<?xml version="1.0" encoding="utf-8"?>
<!-- Generator: Adobe Illustrator 25.0.1, SVG Export Plug-In . SVG Version: 6.00 Build 0)  -->
<svg version="1.1" id="Laag_1" xmlns="http://www.w3.org/2000/svg" xmlns:xlink="http://www.w3.org/1999/xlink" x="0px" y="0px"
	 viewBox="0 0 104.7 110" style="enable-background:new 0 0 104.7 110;" xml:space="preserve">
<style type="text/css">
	.st0{fill:#1F615F;}
	.st1{fill:#164848;}
	.st2{clip-path:url(#SVGID_2_);}
	.st3{fill-rule:evenodd;clip-rule:evenodd;fill:#FCDDCD;}
	.st4{fill-rule:evenodd;clip-rule:evenodd;fill:#75328A;}
	.st5{fill-rule:evenodd;clip-rule:evenodd;fill:#DBB18B;}
	.st6{fill-rule:evenodd;clip-rule:evenodd;fill:#F6D1B0;}
	.st7{fill-rule:evenodd;clip-rule:evenodd;fill:#89CCC5;}
	.st8{fill-rule:evenodd;clip-rule:evenodd;fill:#804393;}
	.st9{opacity:0.2;fill:#020203;}
	.st10{opacity:5.000000e-02;fill:#020203;}
	.st11{opacity:0.1;fill-rule:evenodd;clip-rule:evenodd;fill:#020203;}
	.st12{fill:#B68260;}
	.st13{fill:#461D12;}
	.st14{fill:#EFEFED;}
	.st15{fill:#8A4A30;}
	.st16{fill:#231F20;}
	.st17{fill:#FFFFFF;}
	.st18{fill:#313131;}
</style>
<g>
	<g>
		<g>
			<polygon class="st0" points="104.7,110.1 0,110.1 0,0.1 104.7,0.1 104.7,110.1 			"/>
			<path class="st1" d="M60,25.9l-6.8,0.6c0.1,0.8,0.2,1.5,0.2,2.3v43.2c0,1.2-0.2,2.4-0.5,3.5c0.6,4-0.6,8.2-3.6,11.3
				c-0.9,0.9-1.8,1.9-2.6,3c-1.6,2.2-3.2,4.6-5,6.6c-1,1.1-2.2,2.1-3.4,3.1c-1.6,1.3-3.2,2.5-4.8,3.9l6.7,6.7h61.1
				c1.8,0,3.2-1.4,3.2-3.2v-60L60,25.9z"/>
		</g>
	</g>
	<g>
		<defs>
			<path id="SVGID_1_" d="M94.5,109.9H10.2C4.6,109.9,0,105.3,0,99.7V10.1C0,4.5,4.6-0.1,10.2-0.1h84.3c5.6,0,10.2,4.6,10.2,10.2
				v89.6C104.7,105.3,100.1,109.9,94.5,109.9z"/>
		</defs>
		<clipPath id="SVGID_2_">
			<use xlink:href="#SVGID_1_"  style="overflow:visible;"/>
		</clipPath>
		<g class="st2">
			<path class="st3" d="M39.7,90.5C14,101.7,6.3,107.7,3.3,110.4C-1.4,114.6-4,130-6.8,143.2h58.1h58.1
				c-2.8-13.1-5.4-28.6-10.1-32.8c-3-2.7-10.5-8.5-36.1-19.8L39.7,90.5z"/>
			<path class="st4" d="M39.7,90.5C14,101.7,6.3,107.7,3.3,110.4C-1.4,114.6-4,130-6.8,143.2h58.1h58.1
				c-2.8-13.1-5.4-28.6-10.1-32.8c-3-2.7-10.5-8.5-36.1-19.8L39.7,90.5z"/>
			<path class="st5" d="M38.9,68v19.1v9.4c6.9,8.1,18.1,8.4,24.9,0v-9.4V68C63.8,52.7,38.9,52.7,38.9,68z"/>
			<path class="st6" d="M25.3,50.1c2.2-0.7,5,1.8,6.2,5.6c1.3,3.8,0.5,7.5-1.7,8.2c-2.2,0.7-5-1.8-6.2-5.6
				C22.4,54.5,23.1,50.9,25.3,50.1z"/>
			<path class="st6" d="M77.2,50.1c-2.2-0.7-5,1.8-6.2,5.6s-0.5,7.5,1.7,8.2c2.2,0.7,5-1.8,6.2-5.6C80.2,54.5,79.4,50.9,77.2,50.1z"
				/>
			<path class="st7" d="M46,108.4l3,4.7c1.6,0,3.1,0,4.7,0l3-4.7l-5.3-5.8L46,108.4z"/>
			<polygon class="st7" points="49,113.1 44.7,143.2 58,143.2 53.7,113.1 			"/>
			<path class="st8" d="M38.9,87.1l-1.1,4.2l3,22.1l10.6-10.7L38.9,87.1z"/>
			<path class="st9" d="M38.9,81.8v0.9c0,0,6.4,7.6,12.4,7.8c6.1,0.3,12.5-7.3,12.5-7.3v-1.4"/>
			<g>
				<path class="st5" d="M51.3,16.9c-38.4,0-23.7,52.5-21.1,56.6c2.8,4.4,15,14.2,21.1,14.2c6.2,0,18.4-9.8,21.1-14.2
					C75,69.5,89.7,16.9,51.3,16.9z"/>
			</g>
			<path class="st8" d="M63.8,87.1l0.9,4.2l-2.9,22.4l-10.4-10.9L63.8,87.1z"/>
			<polyline class="st10" points="38.9,87.1 51.4,102.7 63.8,87.1 63.8,86.7 51.4,102.2 38.9,86.7 38.9,87.1 			"/>
			<polygon class="st11" points="49,113.1 53.7,113.1 53.7,113.3 49,113.3 			"/>
			<g>
				<path class="st12" d="M48,67.2c-0.4-1.1,2.1-3.2,3.2-3.2c1.3,0,3.8,2.4,3.5,3.2C54.2,68.2,48.4,68.3,48,67.2z"/>
			</g>
			<g>
				<path class="st13" d="M32,47c0,0,6.2-2.4,12.2-0.1l-0.9,2.6c0,0-7-2.9-11.9-0.7L32,47z"/>
				<path class="st13" d="M70.8,46c0,0-6.4-1.7-12.1,1.2l1.2,2.4c0,0,6.6-3.7,11.7-2.1L70.8,46z"/>
				<g>
					<path class="st14" d="M60.6,54c0,0.1,0.5,1.8,1.5,2.5c2.2,1.5,6.1,2,7.7-2.5c0,0-1.2-3.4-4.9-3.4C61.2,50.7,61,51.8,60.6,54z"
						/>
					<g>
						<g>
							<path class="st15" d="M62.4,54.2c0-1.3,1.1-2.4,2.4-2.4c1.3,0,2.4,1.1,2.4,2.4c0,1.3-1.1,2.4-2.4,2.4
								C63.5,56.6,62.4,55.5,62.4,54.2z"/>
							<path class="st16" d="M63.4,54.2c0-0.8,0.6-1.4,1.4-1.4c0.8,0,1.4,0.6,1.4,1.4s-0.6,1.4-1.4,1.4
								C64.1,55.6,63.4,54.9,63.4,54.2z"/>
							<path class="st17" d="M65.1,54c0-0.2,0.2-0.4,0.4-0.4S66,53.7,66,54c0,0.2-0.2,0.4-0.4,0.4S65.1,54.2,65.1,54z"/>
							<path class="st17" d="M64.8,53.5c0-0.1,0.1-0.2,0.2-0.2c0.1,0,0.2,0.1,0.2,0.2c0,0.1-0.1,0.2-0.2,0.2
								C64.9,53.8,64.8,53.7,64.8,53.5z"/>
						</g>
					</g>
				</g>
				<g>
					<path class="st14" d="M42.5,54c0,0.1-0.5,1.8-1.5,2.5c-2.2,1.5-6.1,2-7.7-2.5c0,0,1.2-3.4,4.9-3.4C41.9,50.7,42.1,51.8,42.5,54
						z"/>
					<g>
						<g>
							<path class="st15" d="M36,54.2c0-1.3,1.1-2.4,2.4-2.4c1.3,0,2.4,1.1,2.4,2.4c0,1.3-1.1,2.4-2.4,2.4
								C37.1,56.6,36,55.5,36,54.2z"/>
							<path class="st16" d="M37,54.2c0-0.8,0.6-1.4,1.4-1.4c0.8,0,1.4,0.6,1.4,1.4s-0.6,1.4-1.4,1.4C37.6,55.6,37,54.9,37,54.2z"/>
							<path class="st17" d="M38.7,54c0-0.2,0.2-0.4,0.4-0.4c0.2,0,0.4,0.2,0.4,0.4c0,0.2-0.2,0.4-0.4,0.4
								C38.9,54.4,38.7,54.2,38.7,54z"/>
							<path class="st17" d="M38.3,53.5c0-0.1,0.1-0.2,0.2-0.2c0.1,0,0.2,0.1,0.2,0.2c0,0.1-0.1,0.2-0.2,0.2
								C38.4,53.8,38.3,53.7,38.3,53.5z"/>
						</g>
					</g>
				</g>
			</g>
			<path class="st13" d="M44.6,73.6h14.1C58.7,73.6,52.5,84,44.6,73.6z"/>
			<g>
				<path class="st18" d="M36.1,20.9c0,0,5.3,21.3,34.5,32c-2.8-4.8-3.3-10.5-3.3-10.5s4.8,5,12.5,9c4.3-8.5,9.3-21.3-2-28.3
					C66.6,16.2,39.8,3.6,36.1,20.9z"/>
				<path class="st18" d="M26.3,51.2c0,0,2.2-24.3,11.2-29.6c-7.7-3.4-19.5,6.9-18.2,13.1C20.6,40.9,26.3,51.2,26.3,51.2z"/>
			</g>
		</g>
	</g>
</g>
</svg>
