<?xml version="1.0" encoding="utf-8"?>
<!-- Generator: Adobe Illustrator 25.1.0, SVG Export Plug-In . SVG Version: 6.00 Build 0)  -->
<svg version="1.1" id="Laag_1" xmlns="http://www.w3.org/2000/svg" xmlns:xlink="http://www.w3.org/1999/xlink" x="0px" y="0px"
	 viewBox="0 0 856.3 1080" style="enable-background:new 0 0 856.3 1080;" xml:space="preserve">
<style type="text/css">
	.st0{fill:#020203;}
</style>
<path class="st0" d="M3349.2,27.3c-11.3-18.5-14.7-86.3-70.6-65.6s-276.3,2.8-276.3,2.8h0c0,0-220.4,17.9-276.3-2.8
	c-55.9-20.7-59.3,47.1-70.6,65.6c-67,109.5-162.3,357.3,18.3,432.1c180.5,74.8,204.2,136.7,204.2,260.8
	c0,58.2,8.5,330.8,124.5,330.8s124.5-272.6,124.5-330.8c0-124,23.6-186,204.2-260.8C3511.4,384.7,3416.2,136.8,3349.2,27.3z"/>
<path class="st0" d="M771.3,65.6c-11.2-18.3-35.8-41.1-70-65C509,0,655.3,0,428.8,0c-0.4,0-0.9,0-1.3,0C201,0,347.4,0,155,0.6
	c-34.2,23.9-58.8,46.7-70,65C18.6,174.1-75.8,419.7,103.1,493.8s202.3,135.5,202.3,258.4c0,57.5,16.7,204.7,122.1,326.3
	c0,1,0,1.5,0,1.5c0.2-0.3,0.4-0.5,0.7-0.8c0.2,0.3,0.4,0.5,0.7,0.8c0,0,0-0.5,0-1.5c105.4-121.6,122.1-268.8,122.1-326.3
	c0-122.9,23.4-184.3,202.3-258.4C932.1,419.7,837.7,174.1,771.3,65.6z"/>
</svg>
