<?xml version="1.0" encoding="utf-8"?>
<!-- Generator: Adobe Illustrator 25.1.0, SVG Export Plug-In . SVG Version: 6.00 Build 0)  -->
<svg version="1.1" id="Laag_1" xmlns="http://www.w3.org/2000/svg" xmlns:xlink="http://www.w3.org/1999/xlink" x="0px" y="0px"
	 viewBox="0 0 1920 1080" style="enable-background:new 0 0 1920 1080;" xml:space="preserve">
<style type="text/css">
	.st0{fill:#0B0B0B;}
	.st1{opacity:0.2;}
	.st2{fill:#FFFFFF;}
</style>
<path id="Path_467" d="M1576.2,65.7c-66.4,108.5-160.8,354.1,18.1,428.2s202.3,135.5,202.3,258.4c0,57.7,16.8,205.9,123.4,327.8
	c160.4,0,287.9,0,287.9,0H1920c0,0,0-1021.2,0-1080c-228.4,0-81.1,0-273.8,0.6C1612,24.6,1587.4,47.4,1576.2,65.7z"/>
<path id="Path_468" d="M0,1080c0,0,0-406.5,1.1-542.3c29.8,30.8,57.9,68.1,80.6,113.1c98.8,195.4,105.6,89.9,155.2,200.7
	s144.9,69.2,68.5,210.7c-3.3,6.1-6,12.5-8.5,17.8"/>
<path id="Path_344" class="st0" d="M1706.3,271.2"/>
<g id="Group_8903" transform="translate(1590.554 -44.083)" class="st1">
	<g id="Group_107" transform="translate(61.463 59.222)">
		<circle id="Ellipse_261" class="st2" cx="82.5" cy="141.3" r="54.6"/>
		<path id="Path_573" class="st2" d="M116.7,182.8l11.4,8.6l4-3.2l-7.7-13.2L116.7,182.8z"/>
		<path id="Path_574" class="st2" d="M123.2,105.6l8.6-11.4l-3.2-4l-13.2,7.7L123.2,105.6z"/>
		<path id="Path_575" class="st2" d="M87.5,195.4l-2,14.1l-5.1,0.6l-3.9-14.7L87.5,195.4z"/>
		<path id="Path_576" class="st2" d="M135.9,133.9l14.1,2l0.6,5.1l-14.7,3.9L135.9,133.9z"/>
		<path id="Rectangle_753" class="st2" d="M128.9,99.1l-5.8-5.8c-2.1-2.1-2.1-5.4,0-7.5l0,0c2.1-2.1,5.4-2.1,7.5,0l5.8,5.8
			c2.1,2.1,2.1,5.4,0,7.5l0,0C134.3,101.2,131,101.2,128.9,99.1z"/>
		<path id="Rectangle_754" class="st2" d="M123.7,190.2l7.8-7.8c2.1-2.1,5.4-2.1,7.5,0l0,0c2.1,2.1,2.1,5.4,0,7.5l-7.8,7.8
			c-2.1,2.1-5.4,2.1-7.5,0l0,0C121.6,195.6,121.6,192.3,123.7,190.2z"/>
		<path id="Rectangle_755" class="st2" d="M147.6,140.5v-3.7c0-2.9,2.4-5.3,5.3-5.3l0,0c2.9,0,5.3,2.4,5.3,5.3v3.7
			c0,2.9-2.4,5.3-5.3,5.3l0,0C149.9,145.8,147.6,143.4,147.6,140.5z"/>
		<path id="Rectangle_756" class="st2" d="M77.3,209.4L77.3,209.4c0.1-2.9,2.6-5.2,5.5-5l0,0c2.9,0.1,5.2,2.6,5,5.5l0,0
			c-0.1,2.9-2.6,5.2-5.5,5l0,0C79.5,214.8,77.2,212.4,77.3,209.4z"/>
	</g>
	<g id="Group_108" transform="translate(42.334 44.083)">
		<path id="Path_577" class="st2" d="M81.2,206.8l0.1,0.2c-2.8-1-5.4-2.2-7.9-3.8c-5.1-3.1-9.7-6.8-14-11
			c-10-10.6-12.2-22.2-12.2-35.8c0-30.2,24.5-54.6,54.6-54.6l0,0c1.7,0,6,0.3,6.7,0.4c0.1,0-0.1,0.1-0.2,0.1
			C68,118.5,67.5,183.4,81.2,206.8z"/>
		<path id="Path_578" class="st2" d="M96.7,102.1l2-14.1l5.1-0.6l3.9,14.7H96.7z"/>
		<path id="Path_579" class="st2" d="M47.9,159.9l-14.1-2l-0.6-5.1l14.7-3.9L47.9,159.9z"/>
		<path id="Path_580" class="st2" d="M67.1,198.2l-11.4,8.6l-4-3.2l7.7-13.2L67.1,198.2z"/>
		<path id="Path_581" class="st2" d="M61.6,120.2L53,108.8l3.2-4l13.2,7.7L61.6,120.2z"/>
		<path id="Rectangle_757" class="st2" d="M99.7,82.1h4.3c2.9,0,5.3,2.4,5.3,5.3l0,0c0,2.9-2.4,5.3-5.3,5.3h-4.3
			c-2.9,0-5.3-2.4-5.3-5.3l0,0C94.4,84.4,96.7,82.1,99.7,82.1z"/>
		<path id="Rectangle_758" class="st2" d="M27.9,160.5v-10.4c0-2.9,2.4-5.3,5.3-5.3l0,0c2.9,0,5.3,2.4,5.3,5.3v10.4
			c0,2.9-2.4,5.3-5.3,5.3l0,0C30.3,165.8,27.9,163.4,27.9,160.5z"/>
		<path id="Rectangle_759" class="st2" d="M49.7,103.3l2.7-2.5c2.2-2,5.5-1.8,7.5,0.3l0,0c2,2.2,1.8,5.5-0.3,7.5l-2.7,2.5
			c-2.2,2-5.5,1.8-7.5-0.3l0,0C47.4,108.6,47.5,105.2,49.7,103.3z"/>
		<path id="Rectangle_760" class="st2" d="M49.9,200.8L49.9,200.8c2.2-2,5.5-1.8,7.5,0.3l0,0c2,2.2,1.8,5.5-0.3,7.5l0,0
			c-2.2,2-5.5,1.8-7.5-0.3l0,0C47.5,206.1,47.7,202.8,49.9,200.8z"/>
	</g>
	<ellipse id="Ellipse_264" class="st2" cx="161.1" cy="244.1" rx="4.2" ry="2.9"/>
	<ellipse id="Ellipse_265" class="st2" cx="167.9" cy="171.7" rx="4.2" ry="2.9"/>
	<ellipse id="Ellipse_266" class="st2" cx="186.3" cy="206.9" rx="4.2" ry="2.9"/>
	<ellipse id="Ellipse_267" class="st2" cx="125.9" cy="163.1" rx="4.2" ry="2.9"/>
	<ellipse id="Ellipse_268" class="st2" cx="126" cy="230.2" rx="8.2" ry="5.8"/>
	<ellipse id="Ellipse_269" class="st2" cx="148.7" cy="209.1" rx="10.7" ry="4.2"/>
</g>
<g id="Group_8906" transform="translate(-42.334 825.223)" class="st1">
	<g id="Group_107-2" transform="translate(55.45 54.462)">
		<circle id="Ellipse_261-2" class="st2" cx="65.3" cy="122.7" r="37.4"/>
		<path id="Path_573-2" class="st2" d="M88.8,151.1l7.8,5.9l2.7-2.2l-5.3-9L88.8,151.1z"/>
		<path id="Path_574-2" class="st2" d="M93.2,98.2l5.9-7.8l-2.2-2.7l-9,5.3L93.2,98.2z"/>
		<path id="Path_575-2" class="st2" d="M68.7,159.8l-1.4,9.7l-3.5,0.4l-2.6-10.1L68.7,159.8z"/>
		<path id="Path_576-2" class="st2" d="M101.9,117.6l9.7,1.4l0.4,3.5l-10.1,2.6V117.6z"/>
		<path id="Rectangle_753-2" class="st2" d="M97.1,93.8l-4-4c-1.4-1.4-1.4-3.7,0-5.1l0,0c1.4-1.4,3.7-1.4,5.1,0l4,4
			c1.4,1.4,1.4,3.7,0,5.1l0,0C100.9,95.2,98.6,95.2,97.1,93.8z"/>
		<path id="Rectangle_754-2" class="st2" d="M93.5,156.2l5.3-5.3c1.4-1.4,3.7-1.4,5.1,0l0,0c1.4,1.4,1.4,3.7,0,5.1l-5.3,5.3
			c-1.4,1.4-3.7,1.4-5.1,0l0,0C92.1,159.9,92.1,157.6,93.5,156.2z"/>
		<path id="Rectangle_755-2" class="st2" d="M109.9,122.1v-2.5c0-2,1.6-3.6,3.6-3.6l0,0c2,0,3.6,1.6,3.6,3.6v2.5
			c0,2-1.6,3.6-3.6,3.6l0,0C111.6,125.8,109.9,124.1,109.9,122.1z"/>
		<path id="Rectangle_756-2" class="st2" d="M61.5,169.4L61.5,169.4c0.1-2,1.8-3.6,3.8-3.5l0,0c2,0.1,3.6,1.8,3.5,3.8l0,0
			c-0.1,2-1.8,3.6-3.8,3.5l0,0C62.9,173.1,61.4,171.4,61.5,169.4z"/>
	</g>
	<g id="Group_108-2" transform="translate(42.334 44.083)">
		<path id="Path_577-2" class="st2" d="M64.4,167.6l0.1,0.1c-1.9-0.7-3.7-1.5-5.4-2.6c-3.5-2.1-6.7-4.7-9.6-7.5
			c-6.8-7.3-8.3-15.2-8.3-24.6c0-20.7,16.8-37.4,37.4-37.5l0,0c1.2,0,4.1,0.2,4.6,0.3c0.1,0-0.1,0.1-0.1,0.1
			C55.4,107,55,151.6,64.4,167.6z"/>
		<path id="Path_578-2" class="st2" d="M75.1,95.8l1.4-9.7l3.5-0.4l2.6,10.1H75.1z"/>
		<path id="Path_579-2" class="st2" d="M41.6,135.4l-9.7-1.4l-0.4-3.5l10.1-2.6V135.4z"/>
		<path id="Path_580-2" class="st2" d="M54.8,161.7l-7.8,5.9l-2.7-2.2l5.3-9L54.8,161.7z"/>
		<path id="Path_581-2" class="st2" d="M51,108.2l-5.9-7.8l2.2-2.7l9,5.3L51,108.2z"/>
		<path id="Rectangle_757-2" class="st2" d="M77.1,82.1h3c2,0,3.6,1.6,3.6,3.6l0,0c0,2-1.6,3.6-3.6,3.6h-3c-2,0-3.6-1.6-3.6-3.6l0,0
			C73.5,83.7,75.1,82.1,77.1,82.1z"/>
		<path id="Rectangle_758-2" class="st2" d="M27.9,135.8v-7.1c0-2,1.6-3.6,3.6-3.6l0,0c2,0,3.6,1.6,3.6,3.6v7.1c0,2-1.6,3.6-3.6,3.6
			l0,0C29.5,139.5,27.9,137.8,27.9,135.8z"/>
		<path id="Rectangle_759-2" class="st2" d="M42.8,96.6l1.9-1.7c1.5-1.4,3.8-1.2,5.1,0.2l0,0c1.4,1.5,1.2,3.8-0.2,5.1l-1.9,1.7
			c-1.5,1.4-3.8,1.2-5.1-0.2l0,0C41.2,100.2,41.3,97.9,42.8,96.6z"/>
		<path id="Rectangle_760-2" class="st2" d="M42.7,163.2L42.7,163.2c1.5-1.4,3.8-1.2,5.1,0.2l0,0c1.4,1.5,1.2,3.8-0.2,5.1l0,0
			c-1.5,1.4-3.8,1.2-5.1-0.2l0,0C41.1,166.8,41.2,164.5,42.7,163.2z"/>
	</g>
	<ellipse id="Ellipse_262" class="st2" cx="106.9" cy="165.9" rx="7.6" ry="4"/>
	<ellipse id="Ellipse_264-2" class="st2" cx="132.6" cy="207" rx="2.9" ry="2"/>
	<ellipse id="Ellipse_265-2" class="st2" cx="137.2" cy="157.4" rx="2.9" ry="2"/>
	<ellipse id="Ellipse_266-2" class="st2" cx="149.8" cy="181.5" rx="2.9" ry="2"/>
	<ellipse id="Ellipse_267-2" class="st2" cx="108.4" cy="151.5" rx="2.9" ry="2"/>
	<ellipse id="Ellipse_268-2" class="st2" cx="108.4" cy="197.5" rx="5.6" ry="4"/>
	<ellipse id="Ellipse_269-2" class="st2" cx="124" cy="183" rx="7.3" ry="2.9"/>
</g>
<g id="Group_8907" transform="translate(-32.59 741.985)" class="st1">
	<g id="Group_107-3" transform="translate(49.16 49.485)">
		<circle id="Ellipse_261-3" class="st2" cx="47.4" cy="103.2" r="19.5"/>
		<path id="Path_573-3" class="st2" d="M59.6,118l4.1,3.1l1.4-1.1l-2.7-4.7L59.6,118z"/>
		<path id="Path_574-3" class="st2" d="M61.9,90.5l3.1-4.1L63.8,85l-4.7,2.7L61.9,90.5z"/>
		<path id="Path_575-3" class="st2" d="M49.1,122.5l-0.7,5l-1.8,0.2l-1.4-5.3L49.1,122.5z"/>
		<path id="Path_576-3" class="st2" d="M66.4,100.5l5,0.7l0.2,1.8l-5.3,1.4L66.4,100.5z"/>
		<path id="Rectangle_753-3" class="st2" d="M63.9,88.1L61.8,86c-0.7-0.7-0.7-1.9,0-2.7l0,0c0.7-0.7,1.9-0.7,2.7,0l2.1,2.1
			c0.7,0.7,0.7,1.9,0,2.7l0,0C65.9,88.9,64.7,88.9,63.9,88.1z"/>
		<path id="Rectangle_754-3" class="st2" d="M62.1,120.7l2.8-2.8c0.7-0.7,1.9-0.7,2.7,0l0,0c0.7,0.7,0.7,1.9,0,2.7l-2.8,2.8
			c-0.7,0.7-1.9,0.7-2.7,0l0,0C61.3,122.6,61.3,121.4,62.1,120.7z"/>
		<path id="Rectangle_755-3" class="st2" d="M70.6,102.9v-1.3c0-1,0.8-1.9,1.9-1.9l0,0c1,0,1.9,0.8,1.9,1.9v1.3c0,1-0.8,1.9-1.9,1.9
			l0,0C71.4,104.8,70.6,104,70.6,102.9z"/>
		<path id="Rectangle_756-3" class="st2" d="M45.4,127.5L45.4,127.5c0-1,0.9-1.8,2-1.8l0,0c1,0,1.8,0.9,1.8,2l0,0c0,1-0.9,1.8-2,1.8
			l0,0C46.1,129.4,45.3,128.6,45.4,127.5z"/>
	</g>
	<g id="Group_108-3" transform="translate(42.334 44.083)">
		<path id="Path_577-3" class="st2" d="M46.9,126.6L46.9,126.6c-1-0.3-1.9-0.7-2.8-1.3c-1.8-1.1-3.5-2.4-5-3.9
			c-3.6-3.8-4.3-7.9-4.3-12.8c0-10.8,8.7-19.5,19.5-19.5l0,0c0.6,0,2.1,0.1,2.4,0.1h-0.1C42.2,95.1,42,118.2,46.9,126.6z"/>
		<path id="Path_578-3" class="st2" d="M52.4,89.2l0.7-5L55,84l1.4,5.3L52.4,89.2z"/>
		<path id="Path_579-3" class="st2" d="M35,109.8l-5-0.7l-0.2-1.8L35,106V109.8z"/>
		<path id="Path_580-3" class="st2" d="M41.9,123.5l-4.1,3.1l-1.4-1.1l2.7-4.7L41.9,123.5z"/>
		<path id="Path_581-3" class="st2" d="M39.9,95.7l-3.1-4.1l1.1-1.4l4.7,2.7L39.9,95.7z"/>
		<path id="Rectangle_757-3" class="st2" d="M53.5,82.1H55c1,0,1.9,0.8,1.9,1.9l0,0c0,1-0.8,1.9-1.9,1.9h-1.5c-1,0-1.9-0.8-1.9-1.9
			l0,0C51.6,82.9,52.5,82.1,53.5,82.1z"/>
		<path id="Rectangle_758-3" class="st2" d="M27.9,110v-3.7c0-1,0.8-1.9,1.9-1.9l0,0c1,0,1.9,0.8,1.9,1.9v3.7c0,1-0.8,1.9-1.9,1.9
			l0,0C28.7,111.9,27.9,111.1,27.9,110z"/>
		<path id="Rectangle_759-3" class="st2" d="M35.7,89.6l1-0.9c0.8-0.7,2-0.6,2.7,0.1l0,0c0.7,0.8,0.6,2-0.1,2.7l-1,0.9
			c-0.8,0.7-2,0.6-2.7-0.1l0,0C34.8,91.5,34.9,90.3,35.7,89.6z"/>
		<path id="Rectangle_760-3" class="st2" d="M35.6,124.3L35.6,124.3c0.8-0.7,2-0.6,2.7,0.1l0,0c0.7,0.8,0.6,2-0.1,2.7l0,0
			c-0.8,0.7-2,0.6-2.7-0.1l0,0C34.7,126.2,34.8,125,35.6,124.3z"/>
	</g>
	<ellipse id="Ellipse_262-2" class="st2" cx="89.3" cy="146.8" rx="3.9" ry="2.1"/>
	<ellipse id="Ellipse_264-3" class="st2" cx="102.7" cy="168.2" rx="1.5" ry="1"/>
	<ellipse id="Ellipse_265-3" class="st2" cx="105.1" cy="142.4" rx="1.5" ry="1"/>
	<ellipse id="Ellipse_266-3" class="st2" cx="111.6" cy="155" rx="1.5" ry="1"/>
	<ellipse id="Ellipse_267-3" class="st2" cx="90.1" cy="139.3" rx="1.5" ry="1"/>
	<ellipse id="Ellipse_268-3" class="st2" cx="90.1" cy="163.3" rx="2.9" ry="2.1"/>
	<ellipse id="Ellipse_269-3" class="st2" cx="98.2" cy="155.8" rx="3.8" ry="1.5"/>
</g>
<g id="Group_8905" transform="translate(45.41 720.985)" class="st1">
	<g id="Group_107-4" transform="translate(46.014 46.995)">
		<circle id="Ellipse_261-4" class="st2" cx="38.4" cy="93.5" r="10.5"/>
		<path id="Path_573-4" class="st2" d="M45,101.4l2.2,1.7l0.8-0.6l-1.5-2.5L45,101.4z"/>
		<path id="Path_574-4" class="st2" d="M46.2,86.6l1.7-2.2l-0.6-0.8l-2.5,1.5L46.2,86.6z"/>
		<path id="Path_575-4" class="st2" d="M39.3,103.9l-0.4,2.7l-1,0.1l-0.7-2.8L39.3,103.9z"/>
		<path id="Path_576-4" class="st2" d="M48.7,92l2.7,0.4l0.1,1l-2.8,0.7V92z"/>
		<path id="Rectangle_753-4" class="st2" d="M47.3,85.3l-1.1-1.1c-0.4-0.4-0.4-1,0-1.4l0,0c0.4-0.4,1-0.4,1.4,0l1.1,1.1
			c0.4,0.4,0.4,1,0,1.4l0,0C48.4,85.7,47.7,85.7,47.3,85.3z"/>
		<path id="Rectangle_754-4" class="st2" d="M46.3,102.9l1.5-1.5c0.4-0.4,1-0.4,1.4,0l0,0c0.4,0.4,0.4,1,0,1.4l-1.5,1.5
			c-0.4,0.4-1,0.4-1.4,0l0,0C45.9,103.9,45.9,103.3,46.3,102.9z"/>
		<path id="Rectangle_755-4" class="st2" d="M50.9,93.3v-0.7c0-0.6,0.5-1,1-1l0,0c0.6,0,1,0.5,1,1v0.7c0,0.6-0.5,1-1,1l0,0
			C51.4,94.3,50.9,93.9,50.9,93.3z"/>
		<path id="Rectangle_756-4" class="st2" d="M37.3,106.6L37.3,106.6c0-0.6,0.5-1,1.1-1l0,0c0.6,0,1,0.5,1,1.1l0,0c0,0.6-0.5,1-1.1,1
			l0,0C37.7,107.6,37.3,107.1,37.3,106.6z"/>
	</g>
	<g id="Group_108-4" transform="translate(42.334 44.083)">
		<path id="Path_577-4" class="st2" d="M38.1,106C38.1,106.1,38.2,106.1,38.1,106c-0.5-0.2-1-0.4-1.5-0.7c-1-0.6-1.9-1.3-2.7-2.1
			c-1.9-2-2.3-4.3-2.3-6.9c0-5.8,4.7-10.5,10.5-10.5l0,0c0.3,0,1.2,0,1.3,0.1l0,0C35.6,89.1,35.5,101.6,38.1,106z"/>
		<path id="Path_578-4" class="st2" d="M41.1,85.9l0.4-2.7l1-0.1l0.7,2.8L41.1,85.9z"/>
		<path id="Path_579-4" class="st2" d="M31.7,97L29,96.7l-0.1-1l2.8-0.7L31.7,97z"/>
		<path id="Path_580-4" class="st2" d="M35.4,104.4l-2.2,1.7l-0.8-0.6l1.5-2.5L35.4,104.4z"/>
		<path id="Path_581-4" class="st2" d="M34.4,89.4l-1.7-2.2l0.6-0.8l2.5,1.5L34.4,89.4z"/>
		<path id="Rectangle_757-4" class="st2" d="M41.7,82.1h0.8c0.6,0,1,0.5,1,1l0,0c0,0.6-0.5,1-1,1h-0.8c-0.6,0-1-0.5-1-1l0,0
			C40.7,82.5,41.1,82.1,41.7,82.1z"/>
		<path id="Rectangle_758-4" class="st2" d="M27.9,97.1v-2c0-0.6,0.5-1,1-1l0,0c0.6,0,1,0.5,1,1v2c0,0.6-0.5,1-1,1l0,0
			C28.3,98.2,27.9,97.7,27.9,97.1z"/>
		<path id="Rectangle_759-4" class="st2" d="M32.1,86.1l0.5-0.5c0.4-0.4,1.1-0.3,1.4,0.1l0,0c0.4,0.4,0.3,1.1-0.1,1.4l-0.5,0.5
			c-0.4,0.4-1,0.4-1.4,0l0,0C31.6,87.2,31.7,86.5,32.1,86.1z"/>
		<path id="Rectangle_760-4" class="st2" d="M32,104.8L32,104.8c0.4-0.4,1.1-0.3,1.4,0.1l0,0c0.4,0.4,0.3,1.1-0.1,1.4l0,0
			c-0.4,0.4-1.1,0.3-1.4-0.1l0,0C31.6,105.8,31.6,105.2,32,104.8z"/>
	</g>
	<ellipse id="Ellipse_262-3" class="st2" cx="80.5" cy="137.3" rx="2.1" ry="1.1"/>
	<ellipse id="Ellipse_264-4" class="st2" cx="87.7" cy="148.8" rx="0.8" ry="0.6"/>
	<ellipse id="Ellipse_265-4" class="st2" cx="89" cy="134.9" rx="0.8" ry="0.6"/>
	<ellipse id="Ellipse_266-4" class="st2" cx="92.5" cy="141.7" rx="0.8" ry="0.6"/>
	<ellipse id="Ellipse_267-4" class="st2" cx="80.9" cy="133.3" rx="0.8" ry="0.6"/>
	<ellipse id="Ellipse_268-4" class="st2" cx="80.9" cy="146.2" rx="1.6" ry="1.1"/>
	<ellipse id="Ellipse_269-4" class="st2" cx="85.3" cy="142.1" rx="2.1" ry="0.8"/>
</g>
<g id="Group_8904" transform="translate(49.41 776.985)" class="st1">
	<g id="Group_107-5" transform="translate(47.335 48.04)">
		<circle id="Ellipse_261-5" class="st2" cx="42.2" cy="97.5" r="14.3"/>
		<path id="Path_573-5" class="st2" d="M51.1,108.4l3,2.2l1-0.8l-2-3.4L51.1,108.4z"/>
		<path id="Path_574-5" class="st2" d="M52.8,88.2l2.2-3l-0.8-1l-3.4,2L52.8,88.2z"/>
		<path id="Path_575-5" class="st2" d="M43.5,111.7l-0.5,3.7l-1.3,0.1l-1-3.9L43.5,111.7z"/>
		<path id="Path_576-5" class="st2" d="M56.1,95.6l3.7,0.5l0.1,1.3l-3.9,1L56.1,95.6z"/>
		<path id="Rectangle_753-5" class="st2" d="M54.3,86.5L52.8,85c-0.5-0.5-0.5-1.4,0-2l0,0c0.5-0.5,1.4-0.5,2,0l1.5,1.5
			c0.5,0.5,0.5,1.4,0,2l0,0C55.7,87.1,54.8,87.1,54.3,86.5z"/>
		<path id="Rectangle_754-5" class="st2" d="M52.9,110.3l2-2c0.5-0.5,1.4-0.5,2,0l0,0c0.5,0.5,0.5,1.4,0,2l-2,2
			c-0.5,0.5-1.4,0.5-2,0l0,0C52.4,111.7,52.4,110.9,52.9,110.3z"/>
		<path id="Rectangle_755-5" class="st2" d="M59.2,97.3v-1c0-0.8,0.6-1.4,1.4-1.4l0,0c0.8,0,1.4,0.6,1.4,1.4v1
			c0,0.8-0.6,1.4-1.4,1.4l0,0C59.8,98.7,59.2,98.1,59.2,97.3z"/>
		<path id="Rectangle_756-5" class="st2" d="M40.7,115.4L40.7,115.4c0-0.8,0.7-1.4,1.4-1.3l0,0c0.8,0,1.4,0.7,1.3,1.4l0,0
			c0,0.8-0.7,1.4-1.4,1.3l0,0C41.2,116.8,40.7,116.1,40.7,115.4z"/>
	</g>
	<g id="Group_108-5" transform="translate(42.334 44.083)">
		<path id="Path_577-5" class="st2" d="M41.8,114.7L41.8,114.7c-0.7-0.2-1.4-0.5-2.1-0.9c-1.3-0.8-2.5-1.8-3.6-2.9
			c-2.6-2.8-3.2-5.8-3.2-9.4c0-7.9,6.4-14.3,14.3-14.3l0,0c0.5,0,1.6,0.1,1.7,0.1l0,0C38.4,91.6,38.2,108.6,41.8,114.7z"/>
		<path id="Path_578-5" class="st2" d="M45.9,87.3l0.5-3.7l1.3-0.1l1,3.9L45.9,87.3z"/>
		<path id="Path_579-5" class="st2" d="M33.1,102.4l-3.7-0.5l-0.1-1.3l3.9-1L33.1,102.4z"/>
		<path id="Path_580-5" class="st2" d="M38.1,112.4l-3,2.2l-1-0.8l2-3.4L38.1,112.4z"/>
		<path id="Path_581-5" class="st2" d="M36.7,92l-2.2-3l0.8-1l3.4,2L36.7,92z"/>
		<path id="Rectangle_757-5" class="st2" d="M46.6,82.1h1.1c0.8,0,1.4,0.6,1.4,1.4l0,0c0,0.8-0.6,1.4-1.4,1.4h-1.1
			c-0.8,0-1.4-0.6-1.4-1.4l0,0C45.3,82.7,45.9,82.1,46.6,82.1z"/>
		<path id="Rectangle_758-5" class="st2" d="M27.9,102.6v-2.7c0-0.8,0.6-1.4,1.4-1.4l0,0c0.8,0,1.4,0.6,1.4,1.4v2.7
			c0,0.8-0.6,1.4-1.4,1.4l0,0C28.5,103.9,27.9,103.3,27.9,102.6z"/>
		<path id="Rectangle_759-5" class="st2" d="M33.6,87.6l0.7-0.6c0.6-0.5,1.4-0.5,2,0.1l0,0c0.5,0.6,0.5,1.4-0.1,2l-0.7,0.6
			c-0.6,0.5-1.4,0.5-2-0.1l0,0C33,89,33,88.1,33.6,87.6z"/>
		<path id="Rectangle_760-5" class="st2" d="M33.5,113L33.5,113c0.6-0.5,1.4-0.5,2,0.1l0,0c0.5,0.6,0.5,1.4-0.1,2l0,0
			c-0.6,0.5-1.4,0.5-2-0.1l0,0C32.9,114.4,32.9,113.5,33.5,113z"/>
	</g>
	<ellipse id="Ellipse_262-4" class="st2" cx="84.2" cy="141.3" rx="2.9" ry="1.5"/>
	<ellipse id="Ellipse_264-5" class="st2" cx="94" cy="157" rx="1.1" ry="0.8"/>
	<ellipse id="Ellipse_265-5" class="st2" cx="95.8" cy="138.1" rx="1.1" ry="0.8"/>
	<ellipse id="Ellipse_266-5" class="st2" cx="100.6" cy="147.3" rx="1.1" ry="0.8"/>
	<ellipse id="Ellipse_267-5" class="st2" cx="84.8" cy="135.8" rx="1.1" ry="0.8"/>
	<ellipse id="Ellipse_268-5" class="st2" cx="84.8" cy="153.3" rx="2.2" ry="1.5"/>
	<ellipse id="Ellipse_269-5" class="st2" cx="90.7" cy="147.8" rx="2.8" ry="1.1"/>
</g>
<g id="Group_8901" transform="translate(1632.41 205.985)" class="st1">
	<g id="Group_107-6" transform="translate(49.16 49.485)">
		<circle id="Ellipse_261-6" class="st2" cx="47.4" cy="103.2" r="19.5"/>
		<path id="Path_573-6" class="st2" d="M59.6,118l4.1,3.1l1.4-1.1l-2.7-4.7L59.6,118z"/>
		<path id="Path_574-6" class="st2" d="M61.9,90.5l3.1-4.1L63.8,85l-4.7,2.7L61.9,90.5z"/>
		<path id="Path_575-6" class="st2" d="M49.1,122.5l-0.7,5l-1.8,0.2l-1.4-5.3L49.1,122.5z"/>
		<path id="Path_576-6" class="st2" d="M66.4,100.5l5,0.7l0.2,1.8l-5.3,1.4L66.4,100.5z"/>
		<path id="Rectangle_753-6" class="st2" d="M63.9,88.1L61.8,86c-0.7-0.7-0.7-1.9,0-2.7l0,0c0.7-0.7,1.9-0.7,2.7,0l2.1,2.1
			c0.7,0.7,0.7,1.9,0,2.7l0,0C65.9,88.9,64.7,88.9,63.9,88.1z"/>
		<path id="Rectangle_754-6" class="st2" d="M62.1,120.7l2.8-2.8c0.7-0.7,1.9-0.7,2.7,0l0,0c0.7,0.7,0.7,1.9,0,2.7l-2.8,2.8
			c-0.7,0.7-1.9,0.7-2.7,0l0,0C61.3,122.6,61.3,121.4,62.1,120.7z"/>
		<path id="Rectangle_755-6" class="st2" d="M70.6,102.9v-1.3c0-1,0.8-1.9,1.9-1.9l0,0c1,0,1.9,0.8,1.9,1.9v1.3c0,1-0.8,1.9-1.9,1.9
			l0,0C71.4,104.8,70.6,104,70.6,102.9z"/>
		<path id="Rectangle_756-6" class="st2" d="M45.4,127.5L45.4,127.5c0-1,0.9-1.8,2-1.8l0,0c1,0,1.8,0.9,1.8,2l0,0c0,1-0.9,1.8-2,1.8
			l0,0C46.1,129.4,45.3,128.6,45.4,127.5z"/>
	</g>
	<g id="Group_108-6" transform="translate(42.334 44.083)">
		<path id="Path_577-6" class="st2" d="M46.9,126.6L46.9,126.6c-1-0.3-1.9-0.7-2.8-1.3c-1.8-1.1-3.5-2.4-5-3.9
			c-3.6-3.8-4.3-7.9-4.3-12.8c0-10.8,8.7-19.5,19.5-19.5l0,0c0.6,0,2.1,0.1,2.4,0.1h-0.1C42.2,95.1,42,118.2,46.9,126.6z"/>
		<path id="Path_578-6" class="st2" d="M52.4,89.2l0.7-5L55,84l1.4,5.3L52.4,89.2z"/>
		<path id="Path_579-6" class="st2" d="M35,109.8l-5-0.7l-0.2-1.8L35,106V109.8z"/>
		<path id="Path_580-6" class="st2" d="M41.9,123.5l-4.1,3.1l-1.4-1.1l2.7-4.7L41.9,123.5z"/>
		<path id="Path_581-6" class="st2" d="M39.9,95.7l-3.1-4.1l1.1-1.4l4.7,2.7L39.9,95.7z"/>
		<path id="Rectangle_757-6" class="st2" d="M53.5,82.1H55c1,0,1.9,0.8,1.9,1.9l0,0c0,1-0.8,1.9-1.9,1.9h-1.5c-1,0-1.9-0.8-1.9-1.9
			l0,0C51.6,82.9,52.5,82.1,53.5,82.1z"/>
		<path id="Rectangle_758-6" class="st2" d="M27.9,110v-3.7c0-1,0.8-1.9,1.9-1.9l0,0c1,0,1.9,0.8,1.9,1.9v3.7c0,1-0.8,1.9-1.9,1.9
			l0,0C28.7,111.9,27.9,111.1,27.9,110z"/>
		<path id="Rectangle_759-6" class="st2" d="M35.7,89.6l1-0.9c0.8-0.7,2-0.6,2.7,0.1l0,0c0.7,0.8,0.6,2-0.1,2.7l-1,0.9
			c-0.8,0.7-2,0.6-2.7-0.1l0,0C34.8,91.5,34.9,90.3,35.7,89.6z"/>
		<path id="Rectangle_760-6" class="st2" d="M35.6,124.3L35.6,124.3c0.8-0.7,2-0.6,2.7,0.1l0,0c0.7,0.8,0.6,2-0.1,2.7l0,0
			c-0.8,0.7-2,0.6-2.7-0.1l0,0C34.7,126.2,34.8,125,35.6,124.3z"/>
	</g>
	<ellipse id="Ellipse_262-5" class="st2" cx="89.3" cy="146.8" rx="3.9" ry="2.1"/>
	<ellipse id="Ellipse_264-6" class="st2" cx="102.7" cy="168.2" rx="1.5" ry="1"/>
	<ellipse id="Ellipse_265-6" class="st2" cx="105.1" cy="142.4" rx="1.5" ry="1"/>
	<ellipse id="Ellipse_266-6" class="st2" cx="111.6" cy="155" rx="1.5" ry="1"/>
	<ellipse id="Ellipse_267-6" class="st2" cx="90.1" cy="139.3" rx="1.5" ry="1"/>
	<ellipse id="Ellipse_268-6" class="st2" cx="90.1" cy="163.3" rx="2.9" ry="2.1"/>
	<ellipse id="Ellipse_269-6" class="st2" cx="98.2" cy="155.8" rx="3.8" ry="1.5"/>
</g>
<g id="Group_8902" transform="translate(1535.41 120.517)" class="st1">
	<g id="Group_107-7" transform="translate(51.284 51.166)">
		<circle id="Ellipse_261-7" class="st2" cx="53.4" cy="109.8" r="25.6"/>
		<path id="Path_573-7" class="st2" d="M69.5,129.2l5.3,4l1.9-1.5l-3.6-6.2L69.5,129.2z"/>
		<path id="Path_574-7" class="st2" d="M72.5,93.1l4-5.3L75,85.9l-6.2,3.6L72.5,93.1z"/>
		<path id="Path_575-7" class="st2" d="M55.8,135.1l-0.9,6.6l-2.4,0.3l-1.8-6.9L55.8,135.1z"/>
		<path id="Path_576-7" class="st2" d="M78.4,106.3l6.6,0.9l0.3,2.4l-6.9,1.8V106.3z"/>
		<path id="Rectangle_753-7" class="st2" d="M75.1,90l-2.7-2.7c-1-1-1-2.5,0-3.5l0,0c1-1,2.5-1,3.5,0l2.7,2.7c1,1,1,2.5,0,3.5l0,0
			C77.7,91,76.1,91,75.1,90z"/>
		<path id="Rectangle_754-7" class="st2" d="M72.7,132.7l3.6-3.6c1-1,2.5-1,3.5,0l0,0c1,1,1,2.5,0,3.5l-3.6,3.6c-1,1-2.5,1-3.5,0
			l0,0C71.7,135.2,71.7,133.6,72.7,132.7z"/>
		<path id="Rectangle_755-7" class="st2" d="M83.9,109.4v-1.7c0-1.4,1.1-2.5,2.5-2.5l0,0c1.4,0,2.5,1.1,2.5,2.5v1.7
			c0,1.4-1.1,2.5-2.5,2.5l0,0C85,111.9,83.9,110.8,83.9,109.4z"/>
		<path id="Rectangle_756-7" class="st2" d="M50.8,141.7L50.8,141.7c0.1-1.4,1.2-2.4,2.6-2.4l0,0c1.4,0.1,2.4,1.2,2.4,2.6l0,0
			c-0.1,1.4-1.2,2.4-2.6,2.4l0,0C51.8,144.2,50.8,143,50.8,141.7z"/>
	</g>
	<g id="Group_108-7" transform="translate(42.334 44.083)">
		<path id="Path_577-7" class="st2" d="M52.8,140.4C52.8,140.4,52.9,140.5,52.8,140.4c-1.3-0.4-2.5-1-3.7-1.7
			c-2.4-1.5-4.6-3.2-6.5-5.1c-4.7-5-5.7-10.4-5.7-16.8c0-14.1,11.4-25.6,25.6-25.6l0,0c0.8,0,2.8,0.1,3.1,0.2h-0.1
			C46.7,99.1,46.4,129.5,52.8,140.4z"/>
		<path id="Path_578-7" class="st2" d="M60.1,91.4l0.9-6.6l2.4-0.3l1.8,6.9H60.1z"/>
		<path id="Path_579-7" class="st2" d="M37.2,118.5l-6.6-0.9l-0.3-2.4l6.9-1.8V118.5z"/>
		<path id="Path_580-7" class="st2" d="M46.2,136.4l-5.3,4l-1.9-1.5l3.6-6.2L46.2,136.4z"/>
		<path id="Path_581-7" class="st2" d="M43.7,99.9l-4-5.3l1.5-1.9l6.2,3.6L43.7,99.9z"/>
		<path id="Rectangle_757-7" class="st2" d="M61.5,82.1h2c1.4,0,2.5,1.1,2.5,2.5l0,0c0,1.4-1.1,2.5-2.5,2.5h-2
			c-1.4,0-2.5-1.1-2.5-2.5l0,0C59,83.2,60.1,82.1,61.5,82.1z"/>
		<path id="Rectangle_758-7" class="st2" d="M27.9,118.7v-4.9c0-1.4,1.1-2.5,2.5-2.5l0,0c1.4,0,2.5,1.1,2.5,2.5v4.9
			c0,1.4-1.1,2.5-2.5,2.5l0,0C29,121.2,27.9,120.1,27.9,118.7z"/>
		<path id="Rectangle_759-7" class="st2" d="M38.1,92l1.3-1.2c1-0.9,2.6-0.8,3.5,0.2l0,0c0.9,1,0.8,2.6-0.2,3.5l-1.3,1.2
			c-1,0.9-2.6,0.8-3.5-0.2l0,0C37,94.5,37.1,92.9,38.1,92z"/>
		<path id="Rectangle_760-7" class="st2" d="M38,137.4L38,137.4c1-0.9,2.6-0.8,3.5,0.2l0,0c0.9,1,0.8,2.6-0.2,3.5l0,0
			c-1,0.9-2.6,0.8-3.5-0.2l0,0C36.9,139.9,36.9,138.3,38,137.4z"/>
	</g>
	<ellipse id="Ellipse_262-6" class="st2" cx="95.2" cy="153.3" rx="5.2" ry="2.7"/>
	<ellipse id="Ellipse_264-7" class="st2" cx="112.8" cy="181.3" rx="1.9" ry="1.4"/>
	<ellipse id="Ellipse_265-7" class="st2" cx="115.9" cy="147.5" rx="1.9" ry="1.4"/>
	<ellipse id="Ellipse_266-7" class="st2" cx="124.5" cy="163.9" rx="1.9" ry="1.4"/>
	<ellipse id="Ellipse_267-7" class="st2" cx="96.3" cy="143.4" rx="1.9" ry="1.4"/>
	<ellipse id="Ellipse_268-7" class="st2" cx="96.3" cy="174.8" rx="3.9" ry="2.7"/>
	<ellipse id="Ellipse_269-7" class="st2" cx="106.9" cy="165" rx="5" ry="2"/>
</g>
</svg>
