<?xml version="1.0" encoding="utf-8"?>
<!-- Generator: Adobe Illustrator 25.1.0, SVG Export Plug-In . SVG Version: 6.00 Build 0)  -->
<svg version="1.1" id="Laag_1" xmlns="http://www.w3.org/2000/svg" xmlns:xlink="http://www.w3.org/1999/xlink" x="0px" y="0px"
	 viewBox="0 0 500 350" style="enable-background:new 0 0 500 350;" xml:space="preserve">
<style type="text/css">
	.st0{fill:#FFFFFF;}
	.st1{font-family:'HelveticaNeue-Medium';}
	.st2{font-size:22px;}
	.st3{font-size:18px;}
	.st4{opacity:0.2;fill:none;stroke:#FFFFFF;stroke-width:2;enable-background:new    ;}
	.st5{fill:#DAB8FF;}
	.st6{fill:#B66DE7;}
</style>
<text transform="matrix(1 0 0 1 188.595 40.441)" class="st0 st1 st2">Jongens</text>
<path id="Path_1017" class="st0" d="M387,102.8"/>
<path id="Path_1021" class="st0" d="M209.2,102.8"/>
<path id="Path_1022" class="st0" d="M209.2,102.8"/>
<path id="Path_1026" class="st0" d="M446.3,102.8"/>
<path id="Path_1029" class="st0" d="M268.4,102.8"/>
<path id="Path_1032" class="st0" d="M327.7,102.8"/>
<text transform="matrix(1 0 0 1 365.785 86.201)" class="st0 st1 st3">30%</text>
<text transform="matrix(1 0 0 1 203.654 86.201)" class="st0 st1 st3">0</text>
<text transform="matrix(1 0 0 1 307.193 86.201)" class="st0 st1 st3">20%</text>
<text transform="matrix(1 0 0 1 425.064 86.201)" class="st0 st1 st3">40%</text>
<text transform="matrix(1 0 0 1 248.805 86.201)" class="st0 st1 st3">10%</text>
<path id="Path_1003" class="st4" d="M387.3,96.2v234.3"/>
<path id="Path_1002" class="st4" d="M446.6,96.2v234.3"/>
<path id="Path_1006" class="st4" d="M268.8,96.2v234.3"/>
<path id="Path_1004" class="st4" d="M328.1,96.2v234.3"/>
<text transform="matrix(1 0 0 1 44.004 132.335)" class="st0 st1 st2">Vakkenvullers</text>
<text transform="matrix(1 0 0 1 1.2369 181.335)" class="st0 st1 st2">Krantenbezorgers</text>
<text transform="matrix(1 0 0 1 37.536 225.62)" class="st0 st1 st2">Keukenhulpen</text>
<text transform="matrix(1 0 0 1 47.2595 274.62)" class="st0 st1 st2">Barpersoneel</text>
<text transform="matrix(1 0 0 1 81.0955 323.62)" class="st0 st1 st2">Verkopers</text>
<rect id="Rectangle_835" x="209.2" y="103.2" class="st5" width="215.9" height="42.7"/>
<rect id="Rectangle_836" x="209.5" y="150.2" class="st5" width="83.2" height="42.7"/>
<rect id="Rectangle_834" x="209.5" y="197.2" class="st6" width="77.3" height="41.4"/>
<path id="Path_1009" class="st6" d="M267.7,243.2v41.4h-57.6v-41.4H267.7z"/>
<path id="Path_1007" class="st6" d="M260.2,289.2v41.4h-50.7v-41.4H260.2z"/>
<path id="Path_1008" class="st4" d="M209.5,96.2v234.3"/>
</svg>
