<svg id="Layer_1" data-name="Layer 1" xmlns="http://www.w3.org/2000/svg" viewBox="0 0 170.8 174.41"><defs><style>.cls-1{opacity:0.9;}.cls-2{fill:#fff;}</style></defs><g id="noun_Cycling_1671495" data-name="noun Cycling 1671495" class="cls-1"><g id="Group_59" data-name="Group 59"><g id="Group_58" data-name="Group 58"><path id="Path_466-2" data-name="Path 466-2" class="cls-2" d="M348.14,443a34.39,34.39,0,0,0-6.24.55l-12.31-38.39a3.75,3.75,0,0,0-3.49-2.57h-8.63a6.57,6.57,0,0,0-5.33-3.86,20.94,20.94,0,0,1-6.43-2.2c0-.73.19-1.47.19-2.2.91-7,2.38-19.84-9.19-25a155.79,155.79,0,0,0-15.06-4.78,8.24,8.24,0,0,0-5,.74c-1.84.73-5.88,3.86-9.19,7.71-5.14,6.07-14,27-14.88,34.72a8.54,8.54,0,0,0,3.68,8.63,3.57,3.57,0,0,0-1.84,3.13,3.69,3.69,0,0,0,3.68,3.67h7l3.3,7.16-11.2,16.34A33,33,0,0,0,242,442.78a32.33,32.33,0,1,0,32.15,36H294s1.29.36,2,.55h.73a7.57,7.57,0,0,0,7.53-6.8c.19-1.29.19-2.57.37-4l27.92-29.94,2.39,7.34A32.14,32.14,0,1,0,348.14,443Zm-70-19.65c.36,0,.73-.19,1.1-.19a111.46,111.46,0,0,1,11.2,4.78H275.22l-2.2-4.59Zm-36.19,77a25,25,0,1,1,0-50,24.37,24.37,0,0,1,11,2.57l-14,20.39a3.33,3.33,0,0,0-.18,3.67,3.43,3.43,0,0,0,3.3,2H267A25.43,25.43,0,0,1,242,500.27Zm7-28.65,10.1-14.7a25.41,25.41,0,0,1,7.71,14.7Zm25.17,0a32.84,32.84,0,0,0-10.84-20.76L272.09,438l15.62,33.62Zm16-11.76-11.39-24.61h13.22C291.57,441.49,291,450.68,290.1,459.86Zm15.61-3.31c.55-7.34,1.1-15.06,1.47-21.49h18.55Zm1.47-28.65a16.29,16.29,0,0,0-.37-3.49c-.55-2.94-1.65-8.27-24.61-16.53,2.57-5.88,6.61-14.33,11.2-20.39a34.07,34.07,0,0,1-.55,5.51c-.55,5-1.28,9.92,2.94,13A30.32,30.32,0,0,0,311,411.92h.37a6,6,0,0,0,4.59-2h7.16l5.7,18Zm41,72.37a25,25,0,0,1-25-25,24.7,24.7,0,0,1,14.14-22.41l7.35,23.51a3.75,3.75,0,0,0,3.49,2.57,2.43,2.43,0,0,0,1.1-.18,3.73,3.73,0,0,0,2.39-4.6l-7.53-23.51a28.62,28.62,0,0,1,4-.37,25,25,0,0,1,0,50Z" transform="translate(-209.67 -333.03)"/></g><circle id="Ellipse_215-2" data-name="Ellipse 215-2" class="cls-2" cx="88.48" cy="15.28" r="15.28"/></g></g></svg>