<?xml version="1.0" encoding="utf-8"?>
<!-- Generator: Adobe Illustrator 25.1.0, SVG Export Plug-In . SVG Version: 6.00 Build 0)  -->
<svg version="1.1" id="Laag_1" xmlns="http://www.w3.org/2000/svg" xmlns:xlink="http://www.w3.org/1999/xlink" x="0px" y="0px"
	 viewBox="0 0 108.5 528.2" style="enable-background:new 0 0 108.5 528.2;" xml:space="preserve">
<style type="text/css">
	.st0{fill:#FFFFFF;}
</style>
<g id="Group_13288" transform="translate(-1827.703 -994.16)">
	<g id="standing-frontal-man-silhouette" transform="translate(1827.702 1220.584)">
		<g id="Group_12169" transform="translate(0 0)">
			<ellipse id="Ellipse_9193" class="st0" cx="6" cy="154.1" rx="1.9" ry="1.9"/>
			<path id="Path_12667" class="st0" d="M12,164.6c-0.5-6.1-3.5-7.4-3.5-7.4c-1.9-1-4.1-0.8-5.8,0.5c-1.9,1.8-2.4,4.4-2.7,7
				c-0.2,1.3,1.9,1.3,2.1,0c0.1-1.5,0.5-3,1.2-4.4v1.5l0,7.2v5.7c0,0.6,0.4,1.1,1,1.1c0,0,0,0,0,0c0.6,0,1.1-0.5,1.1-1.1v-8.1h1v8.2
				c0,0.6,0.5,1,1.1,1c0.5,0,1-0.4,1-1V169l0.1-7.2c0-0.7,0-1.3,0-1.7c0.7,1.4,1.2,3,1.3,4.5C10.1,165.9,12.1,165.9,12,164.6z"/>
		</g>
	</g>
	<g id="standing-frontal-man-silhouette-2" transform="translate(1827.702 1270.968)">
		<g id="Group_12170" transform="translate(0 0)">
			<ellipse id="Ellipse_9194" class="st0" cx="6" cy="154.1" rx="1.9" ry="1.9"/>
			<path id="Path_12668" class="st0" d="M12,164.6c-0.5-6.1-3.5-7.4-3.5-7.4c-1.9-1-4.1-0.8-5.8,0.5c-1.9,1.8-2.4,4.4-2.7,7
				c-0.2,1.3,1.9,1.3,2.1,0c0.1-1.5,0.5-3,1.2-4.4v1.5l0,7.2v5.7c0,0.6,0.4,1.1,1,1.1c0,0,0,0,0,0c0.6,0,1.1-0.5,1.1-1.1v-8.1h1v8.2
				c0,0.6,0.5,1,1.1,1c0.5,0,1-0.4,1-1V169l0.1-7.2c0-0.7,0-1.3,0-1.7c0.7,1.4,1.2,3,1.3,4.5C10.1,165.9,12.1,165.9,12,164.6z"/>
		</g>
	</g>
	<g id="standing-frontal-man-silhouette-3" transform="translate(1827.702 1321.353)">
		<g id="Group_12171" transform="translate(0 0)">
			<ellipse id="Ellipse_9195" class="st0" cx="6" cy="154.1" rx="1.9" ry="1.9"/>
			<path id="Path_12669" class="st0" d="M12,164.6c-0.5-6.1-3.5-7.4-3.5-7.4c-1.9-1-4.1-0.8-5.8,0.5c-1.9,1.8-2.4,4.4-2.7,7
				c-0.2,1.3,1.9,1.3,2.1,0c0.1-1.5,0.5-3,1.2-4.4v1.5l0,7.2v5.7c0,0.6,0.4,1.1,1,1.1c0,0,0,0,0,0c0.6,0,1.1-0.5,1.1-1.1v-8.1h1v8.2
				c0,0.6,0.5,1,1.1,1c0.5,0,1-0.4,1-1V169l0.1-7.2c0-0.7,0-1.3,0-1.7c0.7,1.4,1.2,3,1.3,4.5C10.1,165.9,12.1,165.9,12,164.6z"/>
		</g>
	</g>
	<g id="standing-frontal-man-silhouette-4" transform="translate(1827.702 1245.776)">
		<g id="Group_12172" transform="translate(0 0)">
			<ellipse id="Ellipse_9196" class="st0" cx="6" cy="154.1" rx="1.9" ry="1.9"/>
			<path id="Path_12670" class="st0" d="M12,164.6c-0.5-6.1-3.5-7.4-3.5-7.4c-1.9-1-4.1-0.8-5.8,0.5c-1.9,1.8-2.4,4.4-2.7,7
				c-0.2,1.3,1.9,1.3,2.1,0c0.1-1.5,0.5-3,1.2-4.4v1.5l0,7.2v5.7c0,0.6,0.4,1.1,1,1.1c0,0,0,0,0,0c0.6,0,1.1-0.5,1.1-1.1v-8.1h1v8.2
				c0,0.6,0.5,1,1.1,1c0.5,0,1-0.4,1-1V169l0.1-7.2c0-0.7,0-1.3,0-1.7c0.7,1.4,1.2,3,1.3,4.5C10.1,165.9,12.1,165.9,12,164.6z"/>
		</g>
	</g>
	<g id="standing-frontal-man-silhouette-5" transform="translate(1827.702 1296.16)">
		<g id="Group_12173" transform="translate(0 0)">
			<ellipse id="Ellipse_9197" class="st0" cx="6" cy="154.1" rx="1.9" ry="1.9"/>
			<path id="Path_12671" class="st0" d="M12,164.6c-0.5-6.1-3.5-7.4-3.5-7.4c-1.9-1-4.1-0.8-5.8,0.5c-1.9,1.8-2.4,4.4-2.7,7
				c-0.2,1.3,1.9,1.3,2.1,0c0.1-1.5,0.5-3,1.2-4.4v1.5l0,7.2v5.7c0,0.6,0.4,1.1,1,1.1c0,0,0,0,0,0c0.6,0,1.1-0.5,1.1-1.1v-8.1h1v8.2
				c0,0.6,0.5,1,1.1,1c0.5,0,1-0.4,1-1V169l0.1-7.2c0-0.7,0-1.3,0-1.7c0.7,1.4,1.2,3,1.3,4.5C10.1,165.9,12.1,165.9,12,164.6z"/>
		</g>
	</g>
	<g id="standing-frontal-man-silhouette-6" transform="translate(1827.702 1346.545)">
		<g id="Group_12174" transform="translate(0 0)">
			<ellipse id="Ellipse_9198" class="st0" cx="6" cy="154.1" rx="1.9" ry="1.9"/>
			<path id="Path_12672" class="st0" d="M12,164.6c-0.5-6.1-3.5-7.4-3.5-7.4c-1.9-1-4.1-0.8-5.8,0.5c-1.9,1.8-2.4,4.4-2.7,7
				c-0.2,1.3,1.9,1.3,2.1,0c0.1-1.5,0.5-3,1.2-4.4v1.5l0,7.2v5.7c0,0.6,0.4,1.1,1,1.1c0,0,0,0,0,0c0.6,0,1.1-0.5,1.1-1.1v-8.1h1v8.2
				c0,0.6,0.5,1,1.1,1c0.5,0,1-0.4,1-1V169l0.1-7.2c0-0.7,0-1.3,0-1.7c0.7,1.4,1.2,3,1.3,4.5C10.1,165.9,12.1,165.9,12,164.6z"/>
		</g>
	</g>
	<g id="standing-frontal-man-silhouette-7" transform="translate(1828.31 1069.584)">
		<g id="Group_12175" transform="translate(0 0)">
			<ellipse id="Ellipse_9199" class="st0" cx="6" cy="154.1" rx="1.9" ry="1.9"/>
			<path id="Path_12673" class="st0" d="M12,164.6c-0.5-6.1-3.5-7.4-3.5-7.4c-1.9-1-4.1-0.8-5.8,0.5c-1.9,1.8-2.4,4.4-2.7,7
				c-0.2,1.3,1.9,1.3,2.1,0c0.1-1.5,0.5-3,1.2-4.4v1.5l0,7.2v5.7c0,0.6,0.4,1.1,1,1.1c0,0,0,0,0,0c0.6,0,1.1-0.5,1.1-1.1v-8.1h1v8.2
				c0,0.6,0.5,1,1.1,1c0.5,0,1-0.4,1-1V169l0.1-7.2c0-0.7,0-1.3,0-1.7c0.7,1.4,1.2,3,1.3,4.5C10.1,165.9,12.1,165.9,12,164.6z"/>
		</g>
	</g>
	<g id="standing-frontal-man-silhouette-8" transform="translate(1828.31 1119.968)">
		<g id="Group_12176" transform="translate(0 0)">
			<ellipse id="Ellipse_9200" class="st0" cx="6" cy="154.1" rx="1.9" ry="1.9"/>
			<path id="Path_12674" class="st0" d="M12,164.6c-0.5-6.1-3.5-7.4-3.5-7.4c-1.9-1-4.1-0.8-5.8,0.5c-1.9,1.8-2.4,4.4-2.7,7
				c-0.2,1.3,1.9,1.3,2.1,0c0.1-1.5,0.5-3,1.2-4.4v1.5l0,7.2v5.7c0,0.6,0.4,1.1,1,1.1c0,0,0,0,0,0c0.6,0,1.1-0.5,1.1-1.1v-8.1h1v8.2
				c0,0.6,0.5,1,1.1,1c0.5,0,1-0.4,1-1V169l0.1-7.2c0-0.7,0-1.3,0-1.7c0.7,1.4,1.2,3,1.3,4.5C10.1,165.9,12.1,165.9,12,164.6z"/>
		</g>
	</g>
	<g id="standing-frontal-man-silhouette-9" transform="translate(1828.31 1170.353)">
		<g id="Group_12177" transform="translate(0 0)">
			<ellipse id="Ellipse_9201" class="st0" cx="6" cy="154.1" rx="1.9" ry="1.9"/>
			<path id="Path_12675" class="st0" d="M12,164.6c-0.5-6.1-3.5-7.4-3.5-7.4c-1.9-1-4.1-0.8-5.8,0.5c-1.9,1.8-2.4,4.4-2.7,7
				c-0.2,1.3,1.9,1.3,2.1,0c0.1-1.5,0.5-3,1.2-4.4v1.5l0,7.2v5.7c0,0.6,0.4,1.1,1,1.1c0,0,0,0,0,0c0.6,0,1.1-0.5,1.1-1.1v-8.1h1v8.2
				c0,0.6,0.5,1,1.1,1c0.5,0,1-0.4,1-1V169l0.1-7.2c0-0.7,0-1.3,0-1.7c0.7,1.4,1.2,3,1.3,4.5C10.1,165.9,12.1,165.9,12,164.6z"/>
		</g>
	</g>
	<g id="standing-frontal-man-silhouette-10" transform="translate(1828.31 1094.776)">
		<g id="Group_12178" transform="translate(0 0)">
			<ellipse id="Ellipse_9202" class="st0" cx="6" cy="154.1" rx="1.9" ry="1.9"/>
			<path id="Path_12676" class="st0" d="M12,164.6c-0.5-6.1-3.5-7.4-3.5-7.4c-1.9-1-4.1-0.8-5.8,0.5c-1.9,1.8-2.4,4.4-2.7,7
				c-0.2,1.3,1.9,1.3,2.1,0c0.1-1.5,0.5-3,1.2-4.4v1.5l0,7.2v5.7c0,0.6,0.4,1.1,1,1.1c0,0,0,0,0,0c0.6,0,1.1-0.5,1.1-1.1v-8.1h1v8.2
				c0,0.6,0.5,1,1.1,1c0.5,0,1-0.4,1-1V169l0.1-7.2c0-0.7,0-1.3,0-1.7c0.7,1.4,1.2,3,1.3,4.5C10.1,165.9,12.1,165.9,12,164.6z"/>
		</g>
	</g>
	<g id="standing-frontal-man-silhouette-11" transform="translate(1828.31 1145.16)">
		<g id="Group_12179" transform="translate(0 0)">
			<ellipse id="Ellipse_9203" class="st0" cx="6" cy="154.1" rx="1.9" ry="1.9"/>
			<path id="Path_12677" class="st0" d="M12,164.6c-0.5-6.1-3.5-7.4-3.5-7.4c-1.9-1-4.1-0.8-5.8,0.5c-1.9,1.8-2.4,4.4-2.7,7
				c-0.2,1.3,1.9,1.3,2.1,0c0.1-1.5,0.5-3,1.2-4.4v1.5l0,7.2v5.7c0,0.6,0.4,1.1,1,1.1c0,0,0,0,0,0c0.6,0,1.1-0.5,1.1-1.1v-8.1h1v8.2
				c0,0.6,0.5,1,1.1,1c0.5,0,1-0.4,1-1V169l0.1-7.2c0-0.7,0-1.3,0-1.7c0.7,1.4,1.2,3,1.3,4.5C10.1,165.9,12.1,165.9,12,164.6z"/>
		</g>
	</g>
	<g id="standing-frontal-man-silhouette-12" transform="translate(1828.31 1195.545)">
		<g id="Group_12180" transform="translate(0 0)">
			<ellipse id="Ellipse_9204" class="st0" cx="6" cy="154.1" rx="1.9" ry="1.9"/>
			<path id="Path_12678" class="st0" d="M12,164.6c-0.5-6.1-3.5-7.4-3.5-7.4c-1.9-1-4.1-0.8-5.8,0.5c-1.9,1.8-2.4,4.4-2.7,7
				c-0.2,1.3,1.9,1.3,2.1,0c0.1-1.5,0.5-3,1.2-4.4v1.5l0,7.2v5.7c0,0.6,0.4,1.1,1,1.1c0,0,0,0,0,0c0.6,0,1.1-0.5,1.1-1.1v-8.1h1v8.2
				c0,0.6,0.5,1,1.1,1c0.5,0,1-0.4,1-1V169l0.1-7.2c0-0.7,0-1.3,0-1.7c0.7,1.4,1.2,3,1.3,4.5C10.1,165.9,12.1,165.9,12,164.6z"/>
		</g>
	</g>
	<g id="standing-frontal-man-silhouette-13" transform="translate(1882.505 1220.584)">
		<g id="Group_12181" transform="translate(0 0)">
			<ellipse id="Ellipse_9205" class="st0" cx="6" cy="154.1" rx="1.9" ry="1.9"/>
			<path id="Path_12679" class="st0" d="M12,164.6c-0.5-6.1-3.5-7.4-3.5-7.4c-1.9-1-4.1-0.8-5.8,0.5c-1.9,1.8-2.4,4.4-2.7,7
				c-0.2,1.3,1.9,1.3,2.1,0c0.1-1.5,0.5-3,1.2-4.4v1.5l0,7.2v5.7c0,0.6,0.4,1.1,1,1.1c0,0,0,0,0,0c0.6,0,1.1-0.5,1.1-1.1v-8.1h1v8.2
				c0,0.6,0.5,1,1.1,1c0.5,0,1-0.4,1-1V169l0.1-7.2c0-0.7,0-1.3,0-1.7c0.7,1.4,1.2,3,1.3,4.5C10.1,165.9,12.1,165.9,12,164.6z"/>
		</g>
	</g>
	<g id="standing-frontal-man-silhouette-14" transform="translate(1882.505 1270.968)">
		<g id="Group_12182" transform="translate(0 0)">
			<ellipse id="Ellipse_9206" class="st0" cx="6" cy="154.1" rx="1.9" ry="1.9"/>
			<path id="Path_12680" class="st0" d="M12,164.6c-0.5-6.1-3.5-7.4-3.5-7.4c-1.9-1-4.1-0.8-5.8,0.5c-1.9,1.8-2.4,4.4-2.7,7
				c-0.2,1.3,1.9,1.3,2.1,0c0.1-1.5,0.5-3,1.2-4.4v1.5l0,7.2v5.7c0,0.6,0.4,1.1,1,1.1c0,0,0,0,0,0c0.6,0,1.1-0.5,1.1-1.1v-8.1h1v8.2
				c0,0.6,0.5,1,1.1,1c0.5,0,1-0.4,1-1V169l0.1-7.2c0-0.7,0-1.3,0-1.7c0.7,1.4,1.2,3,1.3,4.5C10.1,165.9,12.1,165.9,12,164.6z"/>
		</g>
	</g>
	<g id="standing-frontal-man-silhouette-15" transform="translate(1882.505 1321.353)">
		<g id="Group_12183" transform="translate(0 0)">
			<ellipse id="Ellipse_9207" class="st0" cx="6" cy="154.1" rx="1.9" ry="1.9"/>
			<path id="Path_12681" class="st0" d="M12,164.6c-0.5-6.1-3.5-7.4-3.5-7.4c-1.9-1-4.1-0.8-5.8,0.5c-1.9,1.8-2.4,4.4-2.7,7
				c-0.2,1.3,1.9,1.3,2.1,0c0.1-1.5,0.5-3,1.2-4.4v1.5l0,7.2v5.7c0,0.6,0.4,1.1,1,1.1c0,0,0,0,0,0c0.6,0,1.1-0.5,1.1-1.1v-8.1h1v8.2
				c0,0.6,0.5,1,1.1,1c0.5,0,1-0.4,1-1V169l0.1-7.2c0-0.7,0-1.3,0-1.7c0.7,1.4,1.2,3,1.3,4.5C10.1,165.9,12.1,165.9,12,164.6z"/>
		</g>
	</g>
	<g id="standing-frontal-man-silhouette-16" transform="translate(1882.505 1245.776)">
		<g id="Group_12184" transform="translate(0 0)">
			<ellipse id="Ellipse_9208" class="st0" cx="6" cy="154.1" rx="1.9" ry="1.9"/>
			<path id="Path_12682" class="st0" d="M12,164.6c-0.5-6.1-3.5-7.4-3.5-7.4c-1.9-1-4.1-0.8-5.8,0.5c-1.9,1.8-2.4,4.4-2.7,7
				c-0.2,1.3,1.9,1.3,2.1,0c0.1-1.5,0.5-3,1.2-4.4v1.5l0,7.2v5.7c0,0.6,0.4,1.1,1,1.1c0,0,0,0,0,0c0.6,0,1.1-0.5,1.1-1.1v-8.1h1v8.2
				c0,0.6,0.5,1,1.1,1c0.5,0,1-0.4,1-1V169l0.1-7.2c0-0.7,0-1.3,0-1.7c0.7,1.4,1.2,3,1.3,4.5C10.1,165.9,12.1,165.9,12,164.6z"/>
		</g>
	</g>
	<g id="standing-frontal-man-silhouette-17" transform="translate(1882.505 1296.16)">
		<g id="Group_12185" transform="translate(0 0)">
			<ellipse id="Ellipse_9209" class="st0" cx="6" cy="154.1" rx="1.9" ry="1.9"/>
			<path id="Path_12683" class="st0" d="M12,164.6c-0.5-6.1-3.5-7.4-3.5-7.4c-1.9-1-4.1-0.8-5.8,0.5c-1.9,1.8-2.4,4.4-2.7,7
				c-0.2,1.3,1.9,1.3,2.1,0c0.1-1.5,0.5-3,1.2-4.4v1.5l0,7.2v5.7c0,0.6,0.4,1.1,1,1.1c0,0,0,0,0,0c0.6,0,1.1-0.5,1.1-1.1v-8.1h1v8.2
				c0,0.6,0.5,1,1.1,1c0.5,0,1-0.4,1-1V169l0.1-7.2c0-0.7,0-1.3,0-1.7c0.7,1.4,1.2,3,1.3,4.5C10.1,165.9,12.1,165.9,12,164.6z"/>
		</g>
	</g>
	<g id="standing-frontal-man-silhouette-18" transform="translate(1882.505 1346.545)">
		<g id="Group_12186" transform="translate(0 0)">
			<ellipse id="Ellipse_9210" class="st0" cx="6" cy="154.1" rx="1.9" ry="1.9"/>
			<path id="Path_12684" class="st0" d="M12,164.6c-0.5-6.1-3.5-7.4-3.5-7.4c-1.9-1-4.1-0.8-5.8,0.5c-1.9,1.8-2.4,4.4-2.7,7
				c-0.2,1.3,1.9,1.3,2.1,0c0.1-1.5,0.5-3,1.2-4.4v1.5l0,7.2v5.7c0,0.6,0.4,1.1,1,1.1c0,0,0,0,0,0c0.6,0,1.1-0.5,1.1-1.1v-8.1h1v8.2
				c0,0.6,0.5,1,1.1,1c0.5,0,1-0.4,1-1V169l0.1-7.2c0-0.7,0-1.3,0-1.7c0.7,1.4,1.2,3,1.3,4.5C10.1,165.9,12.1,165.9,12,164.6z"/>
		</g>
	</g>
	<g id="standing-frontal-man-silhouette-19" transform="translate(1883.113 1069.584)">
		<g id="Group_12187" transform="translate(0 0)">
			<ellipse id="Ellipse_9211" class="st0" cx="6" cy="154.1" rx="1.9" ry="1.9"/>
			<path id="Path_12685" class="st0" d="M12,164.6c-0.5-6.1-3.5-7.4-3.5-7.4c-1.9-1-4.1-0.8-5.8,0.5c-1.9,1.8-2.4,4.4-2.7,7
				c-0.2,1.3,1.9,1.3,2.1,0c0.1-1.5,0.5-3,1.2-4.4v1.5l0,7.2v5.7c0,0.6,0.4,1.1,1,1.1c0,0,0,0,0,0c0.6,0,1.1-0.5,1.1-1.1v-8.1h1v8.2
				c0,0.6,0.5,1,1.1,1c0.5,0,1-0.4,1-1V169l0.1-7.2c0-0.7,0-1.3,0-1.7c0.7,1.4,1.2,3,1.3,4.5C10.1,165.9,12.1,165.9,12,164.6z"/>
		</g>
	</g>
	<g id="standing-frontal-man-silhouette-20" transform="translate(1883.113 1119.968)">
		<g id="Group_12188" transform="translate(0 0)">
			<ellipse id="Ellipse_9212" class="st0" cx="6" cy="154.1" rx="1.9" ry="1.9"/>
			<path id="Path_12686" class="st0" d="M12,164.6c-0.5-6.1-3.5-7.4-3.5-7.4c-1.9-1-4.1-0.8-5.8,0.5c-1.9,1.8-2.4,4.4-2.7,7
				c-0.2,1.3,1.9,1.3,2.1,0c0.1-1.5,0.5-3,1.2-4.4v1.5l0,7.2v5.7c0,0.6,0.4,1.1,1,1.1c0,0,0,0,0,0c0.6,0,1.1-0.5,1.1-1.1v-8.1h1v8.2
				c0,0.6,0.5,1,1.1,1c0.5,0,1-0.4,1-1V169l0.1-7.2c0-0.7,0-1.3,0-1.7c0.7,1.4,1.2,3,1.3,4.5C10.1,165.9,12.1,165.9,12,164.6z"/>
		</g>
	</g>
	<g id="standing-frontal-man-silhouette-21" transform="translate(1883.113 1170.353)">
		<g id="Group_12189" transform="translate(0 0)">
			<ellipse id="Ellipse_9213" class="st0" cx="6" cy="154.1" rx="1.9" ry="1.9"/>
			<path id="Path_12687" class="st0" d="M12,164.6c-0.5-6.1-3.5-7.4-3.5-7.4c-1.9-1-4.1-0.8-5.8,0.5c-1.9,1.8-2.4,4.4-2.7,7
				c-0.2,1.3,1.9,1.3,2.1,0c0.1-1.5,0.5-3,1.2-4.4v1.5l0,7.2v5.7c0,0.6,0.4,1.1,1,1.1c0,0,0,0,0,0c0.6,0,1.1-0.5,1.1-1.1v-8.1h1v8.2
				c0,0.6,0.5,1,1.1,1c0.5,0,1-0.4,1-1V169l0.1-7.2c0-0.7,0-1.3,0-1.7c0.7,1.4,1.2,3,1.3,4.5C10.1,165.9,12.1,165.9,12,164.6z"/>
		</g>
	</g>
	<g id="standing-frontal-man-silhouette-22" transform="translate(1883.113 1094.776)">
		<g id="Group_12190" transform="translate(0 0)">
			<ellipse id="Ellipse_9214" class="st0" cx="6" cy="154.1" rx="1.9" ry="1.9"/>
			<path id="Path_12688" class="st0" d="M12,164.6c-0.5-6.1-3.5-7.4-3.5-7.4c-1.9-1-4.1-0.8-5.8,0.5c-1.9,1.8-2.4,4.4-2.7,7
				c-0.2,1.3,1.9,1.3,2.1,0c0.1-1.5,0.5-3,1.2-4.4v1.5l0,7.2v5.7c0,0.6,0.4,1.1,1,1.1c0,0,0,0,0,0c0.6,0,1.1-0.5,1.1-1.1v-8.1h1v8.2
				c0,0.6,0.5,1,1.1,1c0.5,0,1-0.4,1-1V169l0.1-7.2c0-0.7,0-1.3,0-1.7c0.7,1.4,1.2,3,1.3,4.5C10.1,165.9,12.1,165.9,12,164.6z"/>
		</g>
	</g>
	<g id="standing-frontal-man-silhouette-23" transform="translate(1883.113 1145.16)">
		<g id="Group_12191" transform="translate(0 0)">
			<ellipse id="Ellipse_9215" class="st0" cx="6" cy="154.1" rx="1.9" ry="1.9"/>
			<path id="Path_12689" class="st0" d="M12,164.6c-0.5-6.1-3.5-7.4-3.5-7.4c-1.9-1-4.1-0.8-5.8,0.5c-1.9,1.8-2.4,4.4-2.7,7
				c-0.2,1.3,1.9,1.3,2.1,0c0.1-1.5,0.5-3,1.2-4.4v1.5l0,7.2v5.7c0,0.6,0.4,1.1,1,1.1c0,0,0,0,0,0c0.6,0,1.1-0.5,1.1-1.1v-8.1h1v8.2
				c0,0.6,0.5,1,1.1,1c0.5,0,1-0.4,1-1V169l0.1-7.2c0-0.7,0-1.3,0-1.7c0.7,1.4,1.2,3,1.3,4.5C10.1,165.9,12.1,165.9,12,164.6z"/>
		</g>
	</g>
	<g id="standing-frontal-man-silhouette-24" transform="translate(1883.113 1195.545)">
		<g id="Group_12192" transform="translate(0 0)">
			<ellipse id="Ellipse_9216" class="st0" cx="6" cy="154.1" rx="1.9" ry="1.9"/>
			<path id="Path_12690" class="st0" d="M12,164.6c-0.5-6.1-3.5-7.4-3.5-7.4c-1.9-1-4.1-0.8-5.8,0.5c-1.9,1.8-2.4,4.4-2.7,7
				c-0.2,1.3,1.9,1.3,2.1,0c0.1-1.5,0.5-3,1.2-4.4v1.5l0,7.2v5.7c0,0.6,0.4,1.1,1,1.1c0,0,0,0,0,0c0.6,0,1.1-0.5,1.1-1.1v-8.1h1v8.2
				c0,0.6,0.5,1,1.1,1c0.5,0,1-0.4,1-1V169l0.1-7.2c0-0.7,0-1.3,0-1.7c0.7,1.4,1.2,3,1.3,4.5C10.1,165.9,12.1,165.9,12,164.6z"/>
		</g>
	</g>
	<g id="standing-frontal-man-silhouette-25" transform="translate(1882.918 1043.968)">
		<g id="Group_12193" transform="translate(0 0)">
			<ellipse id="Ellipse_9217" class="st0" cx="6" cy="154.1" rx="1.9" ry="1.9"/>
			<path id="Path_12691" class="st0" d="M12,164.6c-0.5-6.1-3.5-7.4-3.5-7.4c-1.9-1-4.1-0.8-5.8,0.5c-1.9,1.8-2.4,4.4-2.7,7
				c-0.2,1.3,1.9,1.3,2.1,0c0.1-1.5,0.5-3,1.2-4.4v1.5l0,7.2v5.7c0,0.6,0.4,1.1,1,1.1c0,0,0,0,0,0c0.6,0,1.1-0.5,1.1-1.1v-8.1h1v8.2
				c0,0.6,0.5,1,1.1,1c0.5,0,1-0.4,1-1V169l0.1-7.2c0-0.7,0-1.3,0-1.7c0.7,1.4,1.2,3,1.3,4.5C10.1,165.9,12.1,165.9,12,164.6z"/>
		</g>
	</g>
	<g id="standing-frontal-man-silhouette-26" transform="translate(1827.918 1019.353)">
		<g id="Group_12194" transform="translate(0 0)">
			<ellipse id="Ellipse_9218" class="st0" cx="6" cy="154.1" rx="1.9" ry="1.9"/>
			<path id="Path_12692" class="st0" d="M12,164.6c-0.5-6.1-3.5-7.4-3.5-7.4c-1.9-1-4.1-0.8-5.8,0.5c-1.9,1.8-2.4,4.4-2.7,7
				c-0.2,1.3,1.9,1.3,2.1,0c0.1-1.5,0.5-3,1.2-4.4v1.5l0,7.2v5.7c0,0.6,0.4,1.1,1,1.1c0,0,0,0,0,0c0.6,0,1.1-0.5,1.1-1.1v-8.1h1v8.2
				c0,0.6,0.5,1,1.1,1c0.5,0,1-0.4,1-1V169l0.1-7.2c0-0.7,0-1.3,0-1.7c0.7,1.4,1.2,3,1.3,4.5C10.1,165.9,12.1,165.9,12,164.6z"/>
		</g>
	</g>
	<g id="standing-frontal-man-silhouette-27" transform="translate(1882.918 1018.776)">
		<g id="Group_12195" transform="translate(0 0)">
			<ellipse id="Ellipse_9219" class="st0" cx="6" cy="154.1" rx="1.9" ry="1.9"/>
			<path id="Path_12693" class="st0" d="M12,164.6c-0.5-6.1-3.5-7.4-3.5-7.4c-1.9-1-4.1-0.8-5.8,0.5c-1.9,1.8-2.4,4.4-2.7,7
				c-0.2,1.3,1.9,1.3,2.1,0c0.1-1.5,0.5-3,1.2-4.4v1.5l0,7.2v5.7c0,0.6,0.4,1.1,1,1.1c0,0,0,0,0,0c0.6,0,1.1-0.5,1.1-1.1v-8.1h1v8.2
				c0,0.6,0.5,1,1.1,1c0.5,0,1-0.4,1-1V169l0.1-7.2c0-0.7,0-1.3,0-1.7c0.7,1.4,1.2,3,1.3,4.5C10.1,165.9,12.1,165.9,12,164.6z"/>
		</g>
	</g>
	<g id="standing-frontal-man-silhouette-28" transform="translate(1827.918 994.16)">
		<g id="Group_12196" transform="translate(0 0)">
			<ellipse id="Ellipse_9220" class="st0" cx="6" cy="154.1" rx="1.9" ry="1.9"/>
			<path id="Path_12694" class="st0" d="M12,164.6c-0.5-6.1-3.5-7.4-3.5-7.4c-1.9-1-4.1-0.8-5.8,0.5c-1.9,1.8-2.4,4.4-2.7,7
				c-0.2,1.3,1.9,1.3,2.1,0c0.1-1.5,0.5-3,1.2-4.4v1.5l0,7.2v5.7c0,0.6,0.4,1.1,1,1.1c0,0,0,0,0,0c0.6,0,1.1-0.5,1.1-1.1v-8.1h1v8.2
				c0,0.6,0.5,1,1.1,1c0.5,0,1-0.4,1-1V169l0.1-7.2c0-0.7,0-1.3,0-1.7c0.7,1.4,1.2,3,1.3,4.5C10.1,165.9,12.1,165.9,12,164.6z"/>
		</g>
	</g>
	<g id="standing-frontal-man-silhouette-29" transform="translate(1827.918 1044.545)">
		<g id="Group_12197" transform="translate(0 0)">
			<ellipse id="Ellipse_9221" class="st0" cx="6" cy="154.1" rx="1.9" ry="1.9"/>
			<path id="Path_12695" class="st0" d="M12,164.6c-0.5-6.1-3.5-7.4-3.5-7.4c-1.9-1-4.1-0.8-5.8,0.5c-1.9,1.8-2.4,4.4-2.7,7
				c-0.2,1.3,1.9,1.3,2.1,0c0.1-1.5,0.5-3,1.2-4.4v1.5l0,7.2v5.7c0,0.6,0.4,1.1,1,1.1c0,0,0,0,0,0c0.6,0,1.1-0.5,1.1-1.1v-8.1h1v8.2
				c0,0.6,0.5,1,1.1,1c0.5,0,1-0.4,1-1V169l0.1-7.2c0-0.7,0-1.3,0-1.7c0.7,1.4,1.2,3,1.3,4.5C10.1,165.9,12.1,165.9,12,164.6z"/>
		</g>
	</g>
	<g id="standing-frontal-man-silhouette-30" transform="translate(1855.104 1220.584)">
		<g id="Group_12198" transform="translate(0 0)">
			<ellipse id="Ellipse_9222" class="st0" cx="6" cy="154.1" rx="1.9" ry="1.9"/>
			<path id="Path_12696" class="st0" d="M12,164.6c-0.5-6.1-3.5-7.4-3.5-7.4c-1.9-1-4.1-0.8-5.8,0.5c-1.9,1.8-2.4,4.4-2.7,7
				c-0.2,1.3,1.9,1.3,2.1,0c0.1-1.5,0.5-3,1.2-4.4v1.5l0,7.2v5.7c0,0.6,0.4,1.1,1,1.1c0,0,0,0,0,0c0.6,0,1.1-0.5,1.1-1.1v-8.1h1v8.2
				c0,0.6,0.5,1,1.1,1c0.5,0,1-0.4,1-1V169l0.1-7.2c0-0.7,0-1.3,0-1.7c0.7,1.4,1.2,3,1.3,4.5C10.1,165.9,12.1,165.9,12,164.6z"/>
		</g>
	</g>
	<g id="standing-frontal-man-silhouette-31" transform="translate(1855.104 1270.968)">
		<g id="Group_12199" transform="translate(0 0)">
			<ellipse id="Ellipse_9223" class="st0" cx="6" cy="154.1" rx="1.9" ry="1.9"/>
			<path id="Path_12697" class="st0" d="M12,164.6c-0.5-6.1-3.5-7.4-3.5-7.4c-1.9-1-4.1-0.8-5.8,0.5c-1.9,1.8-2.4,4.4-2.7,7
				c-0.2,1.3,1.9,1.3,2.1,0c0.1-1.5,0.5-3,1.2-4.4v1.5l0,7.2v5.7c0,0.6,0.4,1.1,1,1.1c0,0,0,0,0,0c0.6,0,1.1-0.5,1.1-1.1v-8.1h1v8.2
				c0,0.6,0.5,1,1.1,1c0.5,0,1-0.4,1-1V169l0.1-7.2c0-0.7,0-1.3,0-1.7c0.7,1.4,1.2,3,1.3,4.5C10.1,165.9,12.1,165.9,12,164.6z"/>
		</g>
	</g>
	<g id="standing-frontal-man-silhouette-32" transform="translate(1855.104 1321.353)">
		<g id="Group_12200" transform="translate(0 0)">
			<ellipse id="Ellipse_9224" class="st0" cx="6" cy="154.1" rx="1.9" ry="1.9"/>
			<path id="Path_12698" class="st0" d="M12,164.6c-0.5-6.1-3.5-7.4-3.5-7.4c-1.9-1-4.1-0.8-5.8,0.5c-1.9,1.8-2.4,4.4-2.7,7
				c-0.2,1.3,1.9,1.3,2.1,0c0.1-1.5,0.5-3,1.2-4.4v1.5l0,7.2v5.7c0,0.6,0.4,1.1,1,1.1c0,0,0,0,0,0c0.6,0,1.1-0.5,1.1-1.1v-8.1h1v8.2
				c0,0.6,0.5,1,1.1,1c0.5,0,1-0.4,1-1V169l0.1-7.2c0-0.7,0-1.3,0-1.7c0.7,1.4,1.2,3,1.3,4.5C10.1,165.9,12.1,165.9,12,164.6z"/>
		</g>
	</g>
	<g id="standing-frontal-man-silhouette-33" transform="translate(1855.104 1245.776)">
		<g id="Group_12201" transform="translate(0 0)">
			<ellipse id="Ellipse_9225" class="st0" cx="6" cy="154.1" rx="1.9" ry="1.9"/>
			<path id="Path_12699" class="st0" d="M12,164.6c-0.5-6.1-3.5-7.4-3.5-7.4c-1.9-1-4.1-0.8-5.8,0.5c-1.9,1.8-2.4,4.4-2.7,7
				c-0.2,1.3,1.9,1.3,2.1,0c0.1-1.5,0.5-3,1.2-4.4v1.5l0,7.2v5.7c0,0.6,0.4,1.1,1,1.1c0,0,0,0,0,0c0.6,0,1.1-0.5,1.1-1.1v-8.1h1v8.2
				c0,0.6,0.5,1,1.1,1c0.5,0,1-0.4,1-1V169l0.1-7.2c0-0.7,0-1.3,0-1.7c0.7,1.4,1.2,3,1.3,4.5C10.1,165.9,12.1,165.9,12,164.6z"/>
		</g>
	</g>
	<g id="standing-frontal-man-silhouette-34" transform="translate(1855.104 1296.16)">
		<g id="Group_12202" transform="translate(0 0)">
			<ellipse id="Ellipse_9226" class="st0" cx="6" cy="154.1" rx="1.9" ry="1.9"/>
			<path id="Path_12700" class="st0" d="M12,164.6c-0.5-6.1-3.5-7.4-3.5-7.4c-1.9-1-4.1-0.8-5.8,0.5c-1.9,1.8-2.4,4.4-2.7,7
				c-0.2,1.3,1.9,1.3,2.1,0c0.1-1.5,0.5-3,1.2-4.4v1.5l0,7.2v5.7c0,0.6,0.4,1.1,1,1.1c0,0,0,0,0,0c0.6,0,1.1-0.5,1.1-1.1v-8.1h1v8.2
				c0,0.6,0.5,1,1.1,1c0.5,0,1-0.4,1-1V169l0.1-7.2c0-0.7,0-1.3,0-1.7c0.7,1.4,1.2,3,1.3,4.5C10.1,165.9,12.1,165.9,12,164.6z"/>
		</g>
	</g>
	<g id="standing-frontal-man-silhouette-35" transform="translate(1855.104 1346.545)">
		<g id="Group_12203" transform="translate(0 0)">
			<ellipse id="Ellipse_9227" class="st0" cx="6" cy="154.1" rx="1.9" ry="1.9"/>
			<path id="Path_12701" class="st0" d="M12,164.6c-0.5-6.1-3.5-7.4-3.5-7.4c-1.9-1-4.1-0.8-5.8,0.5c-1.9,1.8-2.4,4.4-2.7,7
				c-0.2,1.3,1.9,1.3,2.1,0c0.1-1.5,0.5-3,1.2-4.4v1.5l0,7.2v5.7c0,0.6,0.4,1.1,1,1.1c0,0,0,0,0,0c0.6,0,1.1-0.5,1.1-1.1v-8.1h1v8.2
				c0,0.6,0.5,1,1.1,1c0.5,0,1-0.4,1-1V169l0.1-7.2c0-0.7,0-1.3,0-1.7c0.7,1.4,1.2,3,1.3,4.5C10.1,165.9,12.1,165.9,12,164.6z"/>
		</g>
	</g>
	<g id="standing-frontal-man-silhouette-36" transform="translate(1855.712 1069.584)">
		<g id="Group_12204" transform="translate(0 0)">
			<ellipse id="Ellipse_9228" class="st0" cx="6" cy="154.1" rx="1.9" ry="1.9"/>
			<path id="Path_12702" class="st0" d="M12,164.6c-0.5-6.1-3.5-7.4-3.5-7.4c-1.9-1-4.1-0.8-5.8,0.5c-1.9,1.8-2.4,4.4-2.7,7
				c-0.2,1.3,1.9,1.3,2.1,0c0.1-1.5,0.5-3,1.2-4.4v1.5l0,7.2v5.7c0,0.6,0.4,1.1,1,1.1c0,0,0,0,0,0c0.6,0,1.1-0.5,1.1-1.1v-8.1h1v8.2
				c0,0.6,0.5,1,1.1,1c0.5,0,1-0.4,1-1V169l0.1-7.2c0-0.7,0-1.3,0-1.7c0.7,1.4,1.2,3,1.3,4.5C10.1,165.9,12.1,165.9,12,164.6z"/>
		</g>
	</g>
	<g id="standing-frontal-man-silhouette-37" transform="translate(1855.712 1119.968)">
		<g id="Group_12205" transform="translate(0 0)">
			<ellipse id="Ellipse_9229" class="st0" cx="6" cy="154.1" rx="1.9" ry="1.9"/>
			<path id="Path_12703" class="st0" d="M12,164.6c-0.5-6.1-3.5-7.4-3.5-7.4c-1.9-1-4.1-0.8-5.8,0.5c-1.9,1.8-2.4,4.4-2.7,7
				c-0.2,1.3,1.9,1.3,2.1,0c0.1-1.5,0.5-3,1.2-4.4v1.5l0,7.2v5.7c0,0.6,0.4,1.1,1,1.1c0,0,0,0,0,0c0.6,0,1.1-0.5,1.1-1.1v-8.1h1v8.2
				c0,0.6,0.5,1,1.1,1c0.5,0,1-0.4,1-1V169l0.1-7.2c0-0.7,0-1.3,0-1.7c0.7,1.4,1.2,3,1.3,4.5C10.1,165.9,12.1,165.9,12,164.6z"/>
		</g>
	</g>
	<g id="standing-frontal-man-silhouette-38" transform="translate(1855.712 1170.353)">
		<g id="Group_12206" transform="translate(0 0)">
			<ellipse id="Ellipse_9230" class="st0" cx="6" cy="154.1" rx="1.9" ry="1.9"/>
			<path id="Path_12704" class="st0" d="M12,164.6c-0.5-6.1-3.5-7.4-3.5-7.4c-1.9-1-4.1-0.8-5.8,0.5c-1.9,1.8-2.4,4.4-2.7,7
				c-0.2,1.3,1.9,1.3,2.1,0c0.1-1.5,0.5-3,1.2-4.4v1.5l0,7.2v5.7c0,0.6,0.4,1.1,1,1.1c0,0,0,0,0,0c0.6,0,1.1-0.5,1.1-1.1v-8.1h1v8.2
				c0,0.6,0.5,1,1.1,1c0.5,0,1-0.4,1-1V169l0.1-7.2c0-0.7,0-1.3,0-1.7c0.7,1.4,1.2,3,1.3,4.5C10.1,165.9,12.1,165.9,12,164.6z"/>
		</g>
	</g>
	<g id="standing-frontal-man-silhouette-39" transform="translate(1855.712 1094.776)">
		<g id="Group_12207" transform="translate(0 0)">
			<ellipse id="Ellipse_9231" class="st0" cx="6" cy="154.1" rx="1.9" ry="1.9"/>
			<path id="Path_12705" class="st0" d="M12,164.6c-0.5-6.1-3.5-7.4-3.5-7.4c-1.9-1-4.1-0.8-5.8,0.5c-1.9,1.8-2.4,4.4-2.7,7
				c-0.2,1.3,1.9,1.3,2.1,0c0.1-1.5,0.5-3,1.2-4.4v1.5l0,7.2v5.7c0,0.6,0.4,1.1,1,1.1c0,0,0,0,0,0c0.6,0,1.1-0.5,1.1-1.1v-8.1h1v8.2
				c0,0.6,0.5,1,1.1,1c0.5,0,1-0.4,1-1V169l0.1-7.2c0-0.7,0-1.3,0-1.7c0.7,1.4,1.2,3,1.3,4.5C10.1,165.9,12.1,165.9,12,164.6z"/>
		</g>
	</g>
	<g id="standing-frontal-man-silhouette-40" transform="translate(1855.712 1145.16)">
		<g id="Group_12208" transform="translate(0 0)">
			<ellipse id="Ellipse_9232" class="st0" cx="6" cy="154.1" rx="1.9" ry="1.9"/>
			<path id="Path_12706" class="st0" d="M12,164.6c-0.5-6.1-3.5-7.4-3.5-7.4c-1.9-1-4.1-0.8-5.8,0.5c-1.9,1.8-2.4,4.4-2.7,7
				c-0.2,1.3,1.9,1.3,2.1,0c0.1-1.5,0.5-3,1.2-4.4v1.5l0,7.2v5.7c0,0.6,0.4,1.1,1,1.1c0,0,0,0,0,0c0.6,0,1.1-0.5,1.1-1.1v-8.1h1v8.2
				c0,0.6,0.5,1,1.1,1c0.5,0,1-0.4,1-1V169l0.1-7.2c0-0.7,0-1.3,0-1.7c0.7,1.4,1.2,3,1.3,4.5C10.1,165.9,12.1,165.9,12,164.6z"/>
		</g>
	</g>
	<g id="standing-frontal-man-silhouette-41" transform="translate(1855.712 1195.545)">
		<g id="Group_12209" transform="translate(0 0)">
			<ellipse id="Ellipse_9233" class="st0" cx="6" cy="154.1" rx="1.9" ry="1.9"/>
			<path id="Path_12707" class="st0" d="M12,164.6c-0.5-6.1-3.5-7.4-3.5-7.4c-1.9-1-4.1-0.8-5.8,0.5c-1.9,1.8-2.4,4.4-2.7,7
				c-0.2,1.3,1.9,1.3,2.1,0c0.1-1.5,0.5-3,1.2-4.4v1.5l0,7.2v5.7c0,0.6,0.4,1.1,1,1.1c0,0,0,0,0,0c0.6,0,1.1-0.5,1.1-1.1v-8.1h1v8.2
				c0,0.6,0.5,1,1.1,1c0.5,0,1-0.4,1-1V169l0.1-7.2c0-0.7,0-1.3,0-1.7c0.7,1.4,1.2,3,1.3,4.5C10.1,165.9,12.1,165.9,12,164.6z"/>
		</g>
	</g>
	<g id="standing-frontal-man-silhouette-42" transform="translate(1909.908 1220.584)">
		<g id="Group_12210" transform="translate(0 0)">
			<ellipse id="Ellipse_9234" class="st0" cx="6" cy="154.1" rx="1.9" ry="1.9"/>
			<path id="Path_12708" class="st0" d="M12,164.6c-0.5-6.1-3.5-7.4-3.5-7.4c-1.9-1-4.1-0.8-5.8,0.5c-1.9,1.8-2.4,4.4-2.7,7
				c-0.2,1.3,1.9,1.3,2.1,0c0.1-1.5,0.5-3,1.2-4.4v1.5l0,7.2v5.7c0,0.6,0.4,1.1,1,1.1c0,0,0,0,0,0c0.6,0,1.1-0.5,1.1-1.1v-8.1h1v8.2
				c0,0.6,0.5,1,1.1,1c0.5,0,1-0.4,1-1V169l0.1-7.2c0-0.7,0-1.3,0-1.7c0.7,1.4,1.2,3,1.3,4.5C10.1,165.9,12.1,165.9,12,164.6z"/>
		</g>
	</g>
	<g id="standing-frontal-man-silhouette-43" transform="translate(1909.908 1270.968)">
		<g id="Group_12211" transform="translate(0 0)">
			<ellipse id="Ellipse_9235" class="st0" cx="6" cy="154.1" rx="1.9" ry="1.9"/>
			<path id="Path_12709" class="st0" d="M12,164.6c-0.5-6.1-3.5-7.4-3.5-7.4c-1.9-1-4.1-0.8-5.8,0.5c-1.9,1.8-2.4,4.4-2.7,7
				c-0.2,1.3,1.9,1.3,2.1,0c0.1-1.5,0.5-3,1.2-4.4v1.5l0,7.2v5.7c0,0.6,0.4,1.1,1,1.1c0,0,0,0,0,0c0.6,0,1.1-0.5,1.1-1.1v-8.1h1v8.2
				c0,0.6,0.5,1,1.1,1c0.5,0,1-0.4,1-1V169l0.1-7.2c0-0.7,0-1.3,0-1.7c0.7,1.4,1.2,3,1.3,4.5C10.1,165.9,12.1,165.9,12,164.6z"/>
		</g>
	</g>
	<g id="standing-frontal-man-silhouette-44" transform="translate(1909.908 1321.353)">
		<g id="Group_12212" transform="translate(0 0)">
			<ellipse id="Ellipse_9236" class="st0" cx="6" cy="154.1" rx="1.9" ry="1.9"/>
			<path id="Path_12710" class="st0" d="M12,164.6c-0.5-6.1-3.5-7.4-3.5-7.4c-1.9-1-4.1-0.8-5.8,0.5c-1.9,1.8-2.4,4.4-2.7,7
				c-0.2,1.3,1.9,1.3,2.1,0c0.1-1.5,0.5-3,1.2-4.4v1.5l0,7.2v5.7c0,0.6,0.4,1.1,1,1.1c0,0,0,0,0,0c0.6,0,1.1-0.5,1.1-1.1v-8.1h1v8.2
				c0,0.6,0.5,1,1.1,1c0.5,0,1-0.4,1-1V169l0.1-7.2c0-0.7,0-1.3,0-1.7c0.7,1.4,1.2,3,1.3,4.5C10.1,165.9,12.1,165.9,12,164.6z"/>
		</g>
	</g>
	<g id="standing-frontal-man-silhouette-45" transform="translate(1909.908 1245.776)">
		<g id="Group_12213" transform="translate(0 0)">
			<ellipse id="Ellipse_9237" class="st0" cx="6" cy="154.1" rx="1.9" ry="1.9"/>
			<path id="Path_12711" class="st0" d="M12,164.6c-0.5-6.1-3.5-7.4-3.5-7.4c-1.9-1-4.1-0.8-5.8,0.5c-1.9,1.8-2.4,4.4-2.7,7
				c-0.2,1.3,1.9,1.3,2.1,0c0.1-1.5,0.5-3,1.2-4.4v1.5l0,7.2v5.7c0,0.6,0.4,1.1,1,1.1c0,0,0,0,0,0c0.6,0,1.1-0.5,1.1-1.1v-8.1h1v8.2
				c0,0.6,0.5,1,1.1,1c0.5,0,1-0.4,1-1V169l0.1-7.2c0-0.7,0-1.3,0-1.7c0.7,1.4,1.2,3,1.3,4.5C10.1,165.9,12.1,165.9,12,164.6z"/>
		</g>
	</g>
	<g id="standing-frontal-man-silhouette-46" transform="translate(1909.908 1296.16)">
		<g id="Group_12214" transform="translate(0 0)">
			<ellipse id="Ellipse_9238" class="st0" cx="6" cy="154.1" rx="1.9" ry="1.9"/>
			<path id="Path_12712" class="st0" d="M12,164.6c-0.5-6.1-3.5-7.4-3.5-7.4c-1.9-1-4.1-0.8-5.8,0.5c-1.9,1.8-2.4,4.4-2.7,7
				c-0.2,1.3,1.9,1.3,2.1,0c0.1-1.5,0.5-3,1.2-4.4v1.5l0,7.2v5.7c0,0.6,0.4,1.1,1,1.1c0,0,0,0,0,0c0.6,0,1.1-0.5,1.1-1.1v-8.1h1v8.2
				c0,0.6,0.5,1,1.1,1c0.5,0,1-0.4,1-1V169l0.1-7.2c0-0.7,0-1.3,0-1.7c0.7,1.4,1.2,3,1.3,4.5C10.1,165.9,12.1,165.9,12,164.6z"/>
		</g>
	</g>
	<g id="standing-frontal-man-silhouette-47" transform="translate(1909.908 1346.545)">
		<g id="Group_12215" transform="translate(0 0)">
			<ellipse id="Ellipse_9239" class="st0" cx="6" cy="154.1" rx="1.9" ry="1.9"/>
			<path id="Path_12713" class="st0" d="M12,164.6c-0.5-6.1-3.5-7.4-3.5-7.4c-1.9-1-4.1-0.8-5.8,0.5c-1.9,1.8-2.4,4.4-2.7,7
				c-0.2,1.3,1.9,1.3,2.1,0c0.1-1.5,0.5-3,1.2-4.4v1.5l0,7.2v5.7c0,0.6,0.4,1.1,1,1.1c0,0,0,0,0,0c0.6,0,1.1-0.5,1.1-1.1v-8.1h1v8.2
				c0,0.6,0.5,1,1.1,1c0.5,0,1-0.4,1-1V169l0.1-7.2c0-0.7,0-1.3,0-1.7c0.7,1.4,1.2,3,1.3,4.5C10.1,165.9,12.1,165.9,12,164.6z"/>
		</g>
	</g>
	<g id="standing-frontal-man-silhouette-48" transform="translate(1910.516 1119.968)">
		<g id="Group_12216" transform="translate(0 0)">
			<ellipse id="Ellipse_9240" class="st0" cx="6" cy="154.1" rx="1.9" ry="1.9"/>
			<path id="Path_12714" class="st0" d="M12,164.6c-0.5-6.1-3.5-7.4-3.5-7.4c-1.9-1-4.1-0.8-5.8,0.5c-1.9,1.8-2.4,4.4-2.7,7
				c-0.2,1.3,1.9,1.3,2.1,0c0.1-1.5,0.5-3,1.2-4.4v1.5l0,7.2v5.7c0,0.6,0.4,1.1,1,1.1c0,0,0,0,0,0c0.6,0,1.1-0.5,1.1-1.1v-8.1h1v8.2
				c0,0.6,0.5,1,1.1,1c0.5,0,1-0.4,1-1V169l0.1-7.2c0-0.7,0-1.3,0-1.7c0.7,1.4,1.2,3,1.3,4.5C10.1,165.9,12.1,165.9,12,164.6z"/>
		</g>
	</g>
	<g id="standing-frontal-man-silhouette-49" transform="translate(1910.516 1170.353)">
		<g id="Group_12217" transform="translate(0 0)">
			<ellipse id="Ellipse_9241" class="st0" cx="6" cy="154.1" rx="1.9" ry="1.9"/>
			<path id="Path_12715" class="st0" d="M12,164.6c-0.5-6.1-3.5-7.4-3.5-7.4c-1.9-1-4.1-0.8-5.8,0.5c-1.9,1.8-2.4,4.4-2.7,7
				c-0.2,1.3,1.9,1.3,2.1,0c0.1-1.5,0.5-3,1.2-4.4v1.5l0,7.2v5.7c0,0.6,0.4,1.1,1,1.1c0,0,0,0,0,0c0.6,0,1.1-0.5,1.1-1.1v-8.1h1v8.2
				c0,0.6,0.5,1,1.1,1c0.5,0,1-0.4,1-1V169l0.1-7.2c0-0.7,0-1.3,0-1.7c0.7,1.4,1.2,3,1.3,4.5C10.1,165.9,12.1,165.9,12,164.6z"/>
		</g>
	</g>
	<g id="standing-frontal-man-silhouette-50" transform="translate(1910.516 1094.776)">
		<g id="Group_12218" transform="translate(0 0)">
			<ellipse id="Ellipse_9242" class="st0" cx="6" cy="154.1" rx="1.9" ry="1.9"/>
			<path id="Path_12716" class="st0" d="M12,164.6c-0.5-6.1-3.5-7.4-3.5-7.4c-1.9-1-4.1-0.8-5.8,0.5c-1.9,1.8-2.4,4.4-2.7,7
				c-0.2,1.3,1.9,1.3,2.1,0c0.1-1.5,0.5-3,1.2-4.4v1.5l0,7.2v5.7c0,0.6,0.4,1.1,1,1.1c0,0,0,0,0,0c0.6,0,1.1-0.5,1.1-1.1v-8.1h1v8.2
				c0,0.6,0.5,1,1.1,1c0.5,0,1-0.4,1-1V169l0.1-7.2c0-0.7,0-1.3,0-1.7c0.7,1.4,1.2,3,1.3,4.5C10.1,165.9,12.1,165.9,12,164.6z"/>
		</g>
	</g>
	<g id="standing-frontal-man-silhouette-51" transform="translate(1910.516 1145.16)">
		<g id="Group_12219" transform="translate(0 0)">
			<ellipse id="Ellipse_9243" class="st0" cx="6" cy="154.1" rx="1.9" ry="1.9"/>
			<path id="Path_12717" class="st0" d="M12,164.6c-0.5-6.1-3.5-7.4-3.5-7.4c-1.9-1-4.1-0.8-5.8,0.5c-1.9,1.8-2.4,4.4-2.7,7
				c-0.2,1.3,1.9,1.3,2.1,0c0.1-1.5,0.5-3,1.2-4.4v1.5l0,7.2v5.7c0,0.6,0.4,1.1,1,1.1c0,0,0,0,0,0c0.6,0,1.1-0.5,1.1-1.1v-8.1h1v8.2
				c0,0.6,0.5,1,1.1,1c0.5,0,1-0.4,1-1V169l0.1-7.2c0-0.7,0-1.3,0-1.7c0.7,1.4,1.2,3,1.3,4.5C10.1,165.9,12.1,165.9,12,164.6z"/>
		</g>
	</g>
	<g id="standing-frontal-man-silhouette-52" transform="translate(1910.516 1195.545)">
		<g id="Group_12220" transform="translate(0 0)">
			<ellipse id="Ellipse_9244" class="st0" cx="6" cy="154.1" rx="1.9" ry="1.9"/>
			<path id="Path_12718" class="st0" d="M12,164.6c-0.5-6.1-3.5-7.4-3.5-7.4c-1.9-1-4.1-0.8-5.8,0.5c-1.9,1.8-2.4,4.4-2.7,7
				c-0.2,1.3,1.9,1.3,2.1,0c0.1-1.5,0.5-3,1.2-4.4v1.5l0,7.2v5.7c0,0.6,0.4,1.1,1,1.1c0,0,0,0,0,0c0.6,0,1.1-0.5,1.1-1.1v-8.1h1v8.2
				c0,0.6,0.5,1,1.1,1c0.5,0,1-0.4,1-1V169l0.1-7.2c0-0.7,0-1.3,0-1.7c0.7,1.4,1.2,3,1.3,4.5C10.1,165.9,12.1,165.9,12,164.6z"/>
		</g>
	</g>
	<g id="standing-frontal-man-silhouette-53" transform="translate(1910.319 1043.968)">
		<g id="Group_12221" transform="translate(0 0)">
			<ellipse id="Ellipse_9245" class="st0" cx="6" cy="154.1" rx="1.9" ry="1.9"/>
			<path id="Path_12719" class="st0" d="M12,164.6c-0.5-6.1-3.5-7.4-3.5-7.4c-1.9-1-4.1-0.8-5.8,0.5c-1.9,1.8-2.4,4.4-2.7,7
				c-0.2,1.3,1.9,1.3,2.1,0c0.1-1.5,0.5-3,1.2-4.4v1.5l0,7.2v5.7c0,0.6,0.4,1.1,1,1.1c0,0,0,0,0,0c0.6,0,1.1-0.5,1.1-1.1v-8.1h1v8.2
				c0,0.6,0.5,1,1.1,1c0.5,0,1-0.4,1-1V169l0.1-7.2c0-0.7,0-1.3,0-1.7c0.7,1.4,1.2,3,1.3,4.5C10.1,165.9,12.1,165.9,12,164.6z"/>
		</g>
	</g>
	<g id="standing-frontal-man-silhouette-54" transform="translate(1855.319 1019.353)">
		<g id="Group_12222" transform="translate(0 0)">
			<ellipse id="Ellipse_9246" class="st0" cx="6" cy="154.1" rx="1.9" ry="1.9"/>
			<path id="Path_12720" class="st0" d="M12,164.6c-0.5-6.1-3.5-7.4-3.5-7.4c-1.9-1-4.1-0.8-5.8,0.5c-1.9,1.8-2.4,4.4-2.7,7
				c-0.2,1.3,1.9,1.3,2.1,0c0.1-1.5,0.5-3,1.2-4.4v1.5l0,7.2v5.7c0,0.6,0.4,1.1,1,1.1c0,0,0,0,0,0c0.6,0,1.1-0.5,1.1-1.1v-8.1h1v8.2
				c0,0.6,0.5,1,1.1,1c0.5,0,1-0.4,1-1V169l0.1-7.2c0-0.7,0-1.3,0-1.7c0.7,1.4,1.2,3,1.3,4.5C10.1,165.9,12.1,165.9,12,164.6z"/>
		</g>
	</g>
	<g id="standing-frontal-man-silhouette-55" transform="translate(1910.319 1018.776)">
		<g id="Group_12223" transform="translate(0 0)">
			<ellipse id="Ellipse_9247" class="st0" cx="6" cy="154.1" rx="1.9" ry="1.9"/>
			<path id="Path_12721" class="st0" d="M12,164.6c-0.5-6.1-3.5-7.4-3.5-7.4c-1.9-1-4.1-0.8-5.8,0.5c-1.9,1.8-2.4,4.4-2.7,7
				c-0.2,1.3,1.9,1.3,2.1,0c0.1-1.5,0.5-3,1.2-4.4v1.5l0,7.2v5.7c0,0.6,0.4,1.1,1,1.1c0,0,0,0,0,0c0.6,0,1.1-0.5,1.1-1.1v-8.1h1v8.2
				c0,0.6,0.5,1,1.1,1c0.5,0,1-0.4,1-1V169l0.1-7.2c0-0.7,0-1.3,0-1.7c0.7,1.4,1.2,3,1.3,4.5C10.1,165.9,12.1,165.9,12,164.6z"/>
		</g>
	</g>
	<g id="standing-frontal-man-silhouette-56" transform="translate(1910.319 1070.16)">
		<g id="Group_12224" transform="translate(0 0)">
			<ellipse id="Ellipse_9248" class="st0" cx="6" cy="154.1" rx="1.9" ry="1.9"/>
			<path id="Path_12722" class="st0" d="M12,164.6c-0.5-6.1-3.5-7.4-3.5-7.4c-1.9-1-4.1-0.8-5.8,0.5c-1.9,1.8-2.4,4.4-2.7,7
				c-0.2,1.3,1.9,1.3,2.1,0c0.1-1.5,0.5-3,1.2-4.4v1.5l0,7.2v5.7c0,0.6,0.4,1.1,1,1.1c0,0,0,0,0,0c0.6,0,1.1-0.5,1.1-1.1v-8.1h1v8.2
				c0,0.6,0.5,1,1.1,1c0.5,0,1-0.4,1-1V169l0.1-7.2c0-0.7,0-1.3,0-1.7c0.7,1.4,1.2,3,1.3,4.5C10.1,165.9,12.1,165.9,12,164.6z"/>
		</g>
	</g>
	<g id="standing-frontal-man-silhouette-57" transform="translate(1855.319 1044.545)">
		<g id="Group_12225" transform="translate(0 0)">
			<ellipse id="Ellipse_9249" class="st0" cx="6" cy="154.1" rx="1.9" ry="1.9"/>
			<path id="Path_12723" class="st0" d="M12,164.6c-0.5-6.1-3.5-7.4-3.5-7.4c-1.9-1-4.1-0.8-5.8,0.5c-1.9,1.8-2.4,4.4-2.7,7
				c-0.2,1.3,1.9,1.3,2.1,0c0.1-1.5,0.5-3,1.2-4.4v1.5l0,7.2v5.7c0,0.6,0.4,1.1,1,1.1c0,0,0,0,0,0c0.6,0,1.1-0.5,1.1-1.1v-8.1h1v8.2
				c0,0.6,0.5,1,1.1,1c0.5,0,1-0.4,1-1V169l0.1-7.2c0-0.7,0-1.3,0-1.7c0.7,1.4,1.2,3,1.3,4.5C10.1,165.9,12.1,165.9,12,164.6z"/>
		</g>
	</g>
	<g id="standing-frontal-man-silhouette-58" transform="translate(1841.402 1220.584)">
		<g id="Group_12226" transform="translate(0 0)">
			<ellipse id="Ellipse_9250" class="st0" cx="6" cy="154.1" rx="1.9" ry="1.9"/>
			<path id="Path_12724" class="st0" d="M12,164.6c-0.5-6.1-3.5-7.4-3.5-7.4c-1.9-1-4.1-0.8-5.8,0.5c-1.9,1.8-2.4,4.4-2.7,7
				c-0.2,1.3,1.9,1.3,2.1,0c0.1-1.5,0.5-3,1.2-4.4v1.5l0,7.2v5.7c0,0.6,0.4,1.1,1,1.1c0,0,0,0,0,0c0.6,0,1.1-0.5,1.1-1.1v-8.1h1v8.2
				c0,0.6,0.5,1,1.1,1c0.5,0,1-0.4,1-1V169l0.1-7.2c0-0.7,0-1.3,0-1.7c0.7,1.4,1.2,3,1.3,4.5C10.1,165.9,12.1,165.9,12,164.6z"/>
		</g>
	</g>
	<g id="standing-frontal-man-silhouette-59" transform="translate(1841.402 1270.968)">
		<g id="Group_12227" transform="translate(0 0)">
			<ellipse id="Ellipse_9251" class="st0" cx="6" cy="154.1" rx="1.9" ry="1.9"/>
			<path id="Path_12725" class="st0" d="M12,164.6c-0.5-6.1-3.5-7.4-3.5-7.4c-1.9-1-4.1-0.8-5.8,0.5c-1.9,1.8-2.4,4.4-2.7,7
				c-0.2,1.3,1.9,1.3,2.1,0c0.1-1.5,0.5-3,1.2-4.4v1.5l0,7.2v5.7c0,0.6,0.4,1.1,1,1.1c0,0,0,0,0,0c0.6,0,1.1-0.5,1.1-1.1v-8.1h1v8.2
				c0,0.6,0.5,1,1.1,1c0.5,0,1-0.4,1-1V169l0.1-7.2c0-0.7,0-1.3,0-1.7c0.7,1.4,1.2,3,1.3,4.5C10.1,165.9,12.1,165.9,12,164.6z"/>
		</g>
	</g>
	<g id="standing-frontal-man-silhouette-60" transform="translate(1841.402 1321.353)">
		<g id="Group_12228" transform="translate(0 0)">
			<ellipse id="Ellipse_9252" class="st0" cx="6" cy="154.1" rx="1.9" ry="1.9"/>
			<path id="Path_12726" class="st0" d="M12,164.6c-0.5-6.1-3.5-7.4-3.5-7.4c-1.9-1-4.1-0.8-5.8,0.5c-1.9,1.8-2.4,4.4-2.7,7
				c-0.2,1.3,1.9,1.3,2.1,0c0.1-1.5,0.5-3,1.2-4.4v1.5l0,7.2v5.7c0,0.6,0.4,1.1,1,1.1c0,0,0,0,0,0c0.6,0,1.1-0.5,1.1-1.1v-8.1h1v8.2
				c0,0.6,0.5,1,1.1,1c0.5,0,1-0.4,1-1V169l0.1-7.2c0-0.7,0-1.3,0-1.7c0.7,1.4,1.2,3,1.3,4.5C10.1,165.9,12.1,165.9,12,164.6z"/>
		</g>
	</g>
	<g id="standing-frontal-man-silhouette-61" transform="translate(1841.402 1245.776)">
		<g id="Group_12229" transform="translate(0 0)">
			<ellipse id="Ellipse_9253" class="st0" cx="6" cy="154.1" rx="1.9" ry="1.9"/>
			<path id="Path_12727" class="st0" d="M12,164.6c-0.5-6.1-3.5-7.4-3.5-7.4c-1.9-1-4.1-0.8-5.8,0.5c-1.9,1.8-2.4,4.4-2.7,7
				c-0.2,1.3,1.9,1.3,2.1,0c0.1-1.5,0.5-3,1.2-4.4v1.5l0,7.2v5.7c0,0.6,0.4,1.1,1,1.1c0,0,0,0,0,0c0.6,0,1.1-0.5,1.1-1.1v-8.1h1v8.2
				c0,0.6,0.5,1,1.1,1c0.5,0,1-0.4,1-1V169l0.1-7.2c0-0.7,0-1.3,0-1.7c0.7,1.4,1.2,3,1.3,4.5C10.1,165.9,12.1,165.9,12,164.6z"/>
		</g>
	</g>
	<g id="standing-frontal-man-silhouette-62" transform="translate(1841.402 1296.16)">
		<g id="Group_12230" transform="translate(0 0)">
			<ellipse id="Ellipse_9254" class="st0" cx="6" cy="154.1" rx="1.9" ry="1.9"/>
			<path id="Path_12728" class="st0" d="M12,164.6c-0.5-6.1-3.5-7.4-3.5-7.4c-1.9-1-4.1-0.8-5.8,0.5c-1.9,1.8-2.4,4.4-2.7,7
				c-0.2,1.3,1.9,1.3,2.1,0c0.1-1.5,0.5-3,1.2-4.4v1.5l0,7.2v5.7c0,0.6,0.4,1.1,1,1.1c0,0,0,0,0,0c0.6,0,1.1-0.5,1.1-1.1v-8.1h1v8.2
				c0,0.6,0.5,1,1.1,1c0.5,0,1-0.4,1-1V169l0.1-7.2c0-0.7,0-1.3,0-1.7c0.7,1.4,1.2,3,1.3,4.5C10.1,165.9,12.1,165.9,12,164.6z"/>
		</g>
	</g>
	<g id="standing-frontal-man-silhouette-63" transform="translate(1841.402 1346.545)">
		<g id="Group_12231" transform="translate(0 0)">
			<ellipse id="Ellipse_9255" class="st0" cx="6" cy="154.1" rx="1.9" ry="1.9"/>
			<path id="Path_12729" class="st0" d="M12,164.6c-0.5-6.1-3.5-7.4-3.5-7.4c-1.9-1-4.1-0.8-5.8,0.5c-1.9,1.8-2.4,4.4-2.7,7
				c-0.2,1.3,1.9,1.3,2.1,0c0.1-1.5,0.5-3,1.2-4.4v1.5l0,7.2v5.7c0,0.6,0.4,1.1,1,1.1c0,0,0,0,0,0c0.6,0,1.1-0.5,1.1-1.1v-8.1h1v8.2
				c0,0.6,0.5,1,1.1,1c0.5,0,1-0.4,1-1V169l0.1-7.2c0-0.7,0-1.3,0-1.7c0.7,1.4,1.2,3,1.3,4.5C10.1,165.9,12.1,165.9,12,164.6z"/>
		</g>
	</g>
	<g id="standing-frontal-man-silhouette-64" transform="translate(1842.01 1069.584)">
		<g id="Group_12232" transform="translate(0 0)">
			<ellipse id="Ellipse_9256" class="st0" cx="6" cy="154.1" rx="1.9" ry="1.9"/>
			<path id="Path_12730" class="st0" d="M12,164.6c-0.5-6.1-3.5-7.4-3.5-7.4c-1.9-1-4.1-0.8-5.8,0.5c-1.9,1.8-2.4,4.4-2.7,7
				c-0.2,1.3,1.9,1.3,2.1,0c0.1-1.5,0.5-3,1.2-4.4v1.5l0,7.2v5.7c0,0.6,0.4,1.1,1,1.1c0,0,0,0,0,0c0.6,0,1.1-0.5,1.1-1.1v-8.1h1v8.2
				c0,0.6,0.5,1,1.1,1c0.5,0,1-0.4,1-1V169l0.1-7.2c0-0.7,0-1.3,0-1.7c0.7,1.4,1.2,3,1.3,4.5C10.1,165.9,12.1,165.9,12,164.6z"/>
		</g>
	</g>
	<g id="standing-frontal-man-silhouette-65" transform="translate(1842.01 1119.968)">
		<g id="Group_12233" transform="translate(0 0)">
			<ellipse id="Ellipse_9257" class="st0" cx="6" cy="154.1" rx="1.9" ry="1.9"/>
			<path id="Path_12731" class="st0" d="M12,164.6c-0.5-6.1-3.5-7.4-3.5-7.4c-1.9-1-4.1-0.8-5.8,0.5c-1.9,1.8-2.4,4.4-2.7,7
				c-0.2,1.3,1.9,1.3,2.1,0c0.1-1.5,0.5-3,1.2-4.4v1.5l0,7.2v5.7c0,0.6,0.4,1.1,1,1.1c0,0,0,0,0,0c0.6,0,1.1-0.5,1.1-1.1v-8.1h1v8.2
				c0,0.6,0.5,1,1.1,1c0.5,0,1-0.4,1-1V169l0.1-7.2c0-0.7,0-1.3,0-1.7c0.7,1.4,1.2,3,1.3,4.5C10.1,165.9,12.1,165.9,12,164.6z"/>
		</g>
	</g>
	<g id="standing-frontal-man-silhouette-66" transform="translate(1842.01 1170.353)">
		<g id="Group_12234" transform="translate(0 0)">
			<ellipse id="Ellipse_9258" class="st0" cx="6" cy="154.1" rx="1.9" ry="1.9"/>
			<path id="Path_12732" class="st0" d="M12,164.6c-0.5-6.1-3.5-7.4-3.5-7.4c-1.9-1-4.1-0.8-5.8,0.5c-1.9,1.8-2.4,4.4-2.7,7
				c-0.2,1.3,1.9,1.3,2.1,0c0.1-1.5,0.5-3,1.2-4.4v1.5l0,7.2v5.7c0,0.6,0.4,1.1,1,1.1c0,0,0,0,0,0c0.6,0,1.1-0.5,1.1-1.1v-8.1h1v8.2
				c0,0.6,0.5,1,1.1,1c0.5,0,1-0.4,1-1V169l0.1-7.2c0-0.7,0-1.3,0-1.7c0.7,1.4,1.2,3,1.3,4.5C10.1,165.9,12.1,165.9,12,164.6z"/>
		</g>
	</g>
	<g id="standing-frontal-man-silhouette-67" transform="translate(1842.01 1094.776)">
		<g id="Group_12235" transform="translate(0 0)">
			<ellipse id="Ellipse_9259" class="st0" cx="6" cy="154.1" rx="1.9" ry="1.9"/>
			<path id="Path_12733" class="st0" d="M12,164.6c-0.5-6.1-3.5-7.4-3.5-7.4c-1.9-1-4.1-0.8-5.8,0.5c-1.9,1.8-2.4,4.4-2.7,7
				c-0.2,1.3,1.9,1.3,2.1,0c0.1-1.5,0.5-3,1.2-4.4v1.5l0,7.2v5.7c0,0.6,0.4,1.1,1,1.1c0,0,0,0,0,0c0.6,0,1.1-0.5,1.1-1.1v-8.1h1v8.2
				c0,0.6,0.5,1,1.1,1c0.5,0,1-0.4,1-1V169l0.1-7.2c0-0.7,0-1.3,0-1.7c0.7,1.4,1.2,3,1.3,4.5C10.1,165.9,12.1,165.9,12,164.6z"/>
		</g>
	</g>
	<g id="standing-frontal-man-silhouette-68" transform="translate(1842.01 1145.16)">
		<g id="Group_12236" transform="translate(0 0)">
			<ellipse id="Ellipse_9260" class="st0" cx="6" cy="154.1" rx="1.9" ry="1.9"/>
			<path id="Path_12734" class="st0" d="M12,164.6c-0.5-6.1-3.5-7.4-3.5-7.4c-1.9-1-4.1-0.8-5.8,0.5c-1.9,1.8-2.4,4.4-2.7,7
				c-0.2,1.3,1.9,1.3,2.1,0c0.1-1.5,0.5-3,1.2-4.4v1.5l0,7.2v5.7c0,0.6,0.4,1.1,1,1.1c0,0,0,0,0,0c0.6,0,1.1-0.5,1.1-1.1v-8.1h1v8.2
				c0,0.6,0.5,1,1.1,1c0.5,0,1-0.4,1-1V169l0.1-7.2c0-0.7,0-1.3,0-1.7c0.7,1.4,1.2,3,1.3,4.5C10.1,165.9,12.1,165.9,12,164.6z"/>
		</g>
	</g>
	<g id="standing-frontal-man-silhouette-69" transform="translate(1842.01 1195.545)">
		<g id="Group_12237" transform="translate(0 0)">
			<ellipse id="Ellipse_9261" class="st0" cx="6" cy="154.1" rx="1.9" ry="1.9"/>
			<path id="Path_12735" class="st0" d="M12,164.6c-0.5-6.1-3.5-7.4-3.5-7.4c-1.9-1-4.1-0.8-5.8,0.5c-1.9,1.8-2.4,4.4-2.7,7
				c-0.2,1.3,1.9,1.3,2.1,0c0.1-1.5,0.5-3,1.2-4.4v1.5l0,7.2v5.7c0,0.6,0.4,1.1,1,1.1c0,0,0,0,0,0c0.6,0,1.1-0.5,1.1-1.1v-8.1h1v8.2
				c0,0.6,0.5,1,1.1,1c0.5,0,1-0.4,1-1V169l0.1-7.2c0-0.7,0-1.3,0-1.7c0.7,1.4,1.2,3,1.3,4.5C10.1,165.9,12.1,165.9,12,164.6z"/>
		</g>
	</g>
	<g id="standing-frontal-man-silhouette-70" transform="translate(1896.207 1220.584)">
		<g id="Group_12238" transform="translate(0 0)">
			<ellipse id="Ellipse_9262" class="st0" cx="6" cy="154.1" rx="1.9" ry="1.9"/>
			<path id="Path_12736" class="st0" d="M12,164.6c-0.5-6.1-3.5-7.4-3.5-7.4c-1.9-1-4.1-0.8-5.8,0.5c-1.9,1.8-2.4,4.4-2.7,7
				c-0.2,1.3,1.9,1.3,2.1,0c0.1-1.5,0.5-3,1.2-4.4v1.5l0,7.2v5.7c0,0.6,0.4,1.1,1,1.1c0,0,0,0,0,0c0.6,0,1.1-0.5,1.1-1.1v-8.1h1v8.2
				c0,0.6,0.5,1,1.1,1c0.5,0,1-0.4,1-1V169l0.1-7.2c0-0.7,0-1.3,0-1.7c0.7,1.4,1.2,3,1.3,4.5C10.1,165.9,12.1,165.9,12,164.6z"/>
		</g>
	</g>
	<g id="standing-frontal-man-silhouette-71" transform="translate(1896.207 1270.968)">
		<g id="Group_12239" transform="translate(0 0)">
			<ellipse id="Ellipse_9263" class="st0" cx="6" cy="154.1" rx="1.9" ry="1.9"/>
			<path id="Path_12737" class="st0" d="M12,164.6c-0.5-6.1-3.5-7.4-3.5-7.4c-1.9-1-4.1-0.8-5.8,0.5c-1.9,1.8-2.4,4.4-2.7,7
				c-0.2,1.3,1.9,1.3,2.1,0c0.1-1.5,0.5-3,1.2-4.4v1.5l0,7.2v5.7c0,0.6,0.4,1.1,1,1.1c0,0,0,0,0,0c0.6,0,1.1-0.5,1.1-1.1v-8.1h1v8.2
				c0,0.6,0.5,1,1.1,1c0.5,0,1-0.4,1-1V169l0.1-7.2c0-0.7,0-1.3,0-1.7c0.7,1.4,1.2,3,1.3,4.5C10.1,165.9,12.1,165.9,12,164.6z"/>
		</g>
	</g>
	<g id="standing-frontal-man-silhouette-72" transform="translate(1896.207 1321.353)">
		<g id="Group_12240" transform="translate(0 0)">
			<ellipse id="Ellipse_9264" class="st0" cx="6" cy="154.1" rx="1.9" ry="1.9"/>
			<path id="Path_12738" class="st0" d="M12,164.6c-0.5-6.1-3.5-7.4-3.5-7.4c-1.9-1-4.1-0.8-5.8,0.5c-1.9,1.8-2.4,4.4-2.7,7
				c-0.2,1.3,1.9,1.3,2.1,0c0.1-1.5,0.5-3,1.2-4.4v1.5l0,7.2v5.7c0,0.6,0.4,1.1,1,1.1c0,0,0,0,0,0c0.6,0,1.1-0.5,1.1-1.1v-8.1h1v8.2
				c0,0.6,0.5,1,1.1,1c0.5,0,1-0.4,1-1V169l0.1-7.2c0-0.7,0-1.3,0-1.7c0.7,1.4,1.2,3,1.3,4.5C10.1,165.9,12.1,165.9,12,164.6z"/>
		</g>
	</g>
	<g id="standing-frontal-man-silhouette-73" transform="translate(1896.207 1245.776)">
		<g id="Group_12241" transform="translate(0 0)">
			<ellipse id="Ellipse_9265" class="st0" cx="6" cy="154.1" rx="1.9" ry="1.9"/>
			<path id="Path_12739" class="st0" d="M12,164.6c-0.5-6.1-3.5-7.4-3.5-7.4c-1.9-1-4.1-0.8-5.8,0.5c-1.9,1.8-2.4,4.4-2.7,7
				c-0.2,1.3,1.9,1.3,2.1,0c0.1-1.5,0.5-3,1.2-4.4v1.5l0,7.2v5.7c0,0.6,0.4,1.1,1,1.1c0,0,0,0,0,0c0.6,0,1.1-0.5,1.1-1.1v-8.1h1v8.2
				c0,0.6,0.5,1,1.1,1c0.5,0,1-0.4,1-1V169l0.1-7.2c0-0.7,0-1.3,0-1.7c0.7,1.4,1.2,3,1.3,4.5C10.1,165.9,12.1,165.9,12,164.6z"/>
		</g>
	</g>
	<g id="standing-frontal-man-silhouette-74" transform="translate(1896.207 1296.16)">
		<g id="Group_12242" transform="translate(0 0)">
			<ellipse id="Ellipse_9266" class="st0" cx="6" cy="154.1" rx="1.9" ry="1.9"/>
			<path id="Path_12740" class="st0" d="M12,164.6c-0.5-6.1-3.5-7.4-3.5-7.4c-1.9-1-4.1-0.8-5.8,0.5c-1.9,1.8-2.4,4.4-2.7,7
				c-0.2,1.3,1.9,1.3,2.1,0c0.1-1.5,0.5-3,1.2-4.4v1.5l0,7.2v5.7c0,0.6,0.4,1.1,1,1.1c0,0,0,0,0,0c0.6,0,1.1-0.5,1.1-1.1v-8.1h1v8.2
				c0,0.6,0.5,1,1.1,1c0.5,0,1-0.4,1-1V169l0.1-7.2c0-0.7,0-1.3,0-1.7c0.7,1.4,1.2,3,1.3,4.5C10.1,165.9,12.1,165.9,12,164.6z"/>
		</g>
	</g>
	<g id="standing-frontal-man-silhouette-75" transform="translate(1896.207 1346.545)">
		<g id="Group_12243" transform="translate(0 0)">
			<ellipse id="Ellipse_9267" class="st0" cx="6" cy="154.1" rx="1.9" ry="1.9"/>
			<path id="Path_12741" class="st0" d="M12,164.6c-0.5-6.1-3.5-7.4-3.5-7.4c-1.9-1-4.1-0.8-5.8,0.5c-1.9,1.8-2.4,4.4-2.7,7
				c-0.2,1.3,1.9,1.3,2.1,0c0.1-1.5,0.5-3,1.2-4.4v1.5l0,7.2v5.7c0,0.6,0.4,1.1,1,1.1c0,0,0,0,0,0c0.6,0,1.1-0.5,1.1-1.1v-8.1h1v8.2
				c0,0.6,0.5,1,1.1,1c0.5,0,1-0.4,1-1V169l0.1-7.2c0-0.7,0-1.3,0-1.7c0.7,1.4,1.2,3,1.3,4.5C10.1,165.9,12.1,165.9,12,164.6z"/>
		</g>
	</g>
	<g id="standing-frontal-man-silhouette-76" transform="translate(1896.814 1069.584)">
		<g id="Group_12244" transform="translate(0 0)">
			<ellipse id="Ellipse_9268" class="st0" cx="6" cy="154.1" rx="1.9" ry="1.9"/>
			<path id="Path_12742" class="st0" d="M12,164.6c-0.5-6.1-3.5-7.4-3.5-7.4c-1.9-1-4.1-0.8-5.8,0.5c-1.9,1.8-2.4,4.4-2.7,7
				c-0.2,1.3,1.9,1.3,2.1,0c0.1-1.5,0.5-3,1.2-4.4v1.5l0,7.2v5.7c0,0.6,0.4,1.1,1,1.1c0,0,0,0,0,0c0.6,0,1.1-0.5,1.1-1.1v-8.1h1v8.2
				c0,0.6,0.5,1,1.1,1c0.5,0,1-0.4,1-1V169l0.1-7.2c0-0.7,0-1.3,0-1.7c0.7,1.4,1.2,3,1.3,4.5C10.1,165.9,12.1,165.9,12,164.6z"/>
		</g>
	</g>
	<g id="standing-frontal-man-silhouette-77" transform="translate(1896.814 1119.968)">
		<g id="Group_12245" transform="translate(0 0)">
			<ellipse id="Ellipse_9269" class="st0" cx="6" cy="154.1" rx="1.9" ry="1.9"/>
			<path id="Path_12743" class="st0" d="M12,164.6c-0.5-6.1-3.5-7.4-3.5-7.4c-1.9-1-4.1-0.8-5.8,0.5c-1.9,1.8-2.4,4.4-2.7,7
				c-0.2,1.3,1.9,1.3,2.1,0c0.1-1.5,0.5-3,1.2-4.4v1.5l0,7.2v5.7c0,0.6,0.4,1.1,1,1.1c0,0,0,0,0,0c0.6,0,1.1-0.5,1.1-1.1v-8.1h1v8.2
				c0,0.6,0.5,1,1.1,1c0.5,0,1-0.4,1-1V169l0.1-7.2c0-0.7,0-1.3,0-1.7c0.7,1.4,1.2,3,1.3,4.5C10.1,165.9,12.1,165.9,12,164.6z"/>
		</g>
	</g>
	<g id="standing-frontal-man-silhouette-78" transform="translate(1896.814 1170.353)">
		<g id="Group_12246" transform="translate(0 0)">
			<ellipse id="Ellipse_9270" class="st0" cx="6" cy="154.1" rx="1.9" ry="1.9"/>
			<path id="Path_12744" class="st0" d="M12,164.6c-0.5-6.1-3.5-7.4-3.5-7.4c-1.9-1-4.1-0.8-5.8,0.5c-1.9,1.8-2.4,4.4-2.7,7
				c-0.2,1.3,1.9,1.3,2.1,0c0.1-1.5,0.5-3,1.2-4.4v1.5l0,7.2v5.7c0,0.6,0.4,1.1,1,1.1c0,0,0,0,0,0c0.6,0,1.1-0.5,1.1-1.1v-8.1h1v8.2
				c0,0.6,0.5,1,1.1,1c0.5,0,1-0.4,1-1V169l0.1-7.2c0-0.7,0-1.3,0-1.7c0.7,1.4,1.2,3,1.3,4.5C10.1,165.9,12.1,165.9,12,164.6z"/>
		</g>
	</g>
	<g id="standing-frontal-man-silhouette-79" transform="translate(1896.814 1094.776)">
		<g id="Group_12247" transform="translate(0 0)">
			<ellipse id="Ellipse_9271" class="st0" cx="6" cy="154.1" rx="1.9" ry="1.9"/>
			<path id="Path_12745" class="st0" d="M12,164.6c-0.5-6.1-3.5-7.4-3.5-7.4c-1.9-1-4.1-0.8-5.8,0.5c-1.9,1.8-2.4,4.4-2.7,7
				c-0.2,1.3,1.9,1.3,2.1,0c0.1-1.5,0.5-3,1.2-4.4v1.5l0,7.2v5.7c0,0.6,0.4,1.1,1,1.1c0,0,0,0,0,0c0.6,0,1.1-0.5,1.1-1.1v-8.1h1v8.2
				c0,0.6,0.5,1,1.1,1c0.5,0,1-0.4,1-1V169l0.1-7.2c0-0.7,0-1.3,0-1.7c0.7,1.4,1.2,3,1.3,4.5C10.1,165.9,12.1,165.9,12,164.6z"/>
		</g>
	</g>
	<g id="standing-frontal-man-silhouette-80" transform="translate(1896.814 1145.16)">
		<g id="Group_12248" transform="translate(0 0)">
			<ellipse id="Ellipse_9272" class="st0" cx="6" cy="154.1" rx="1.9" ry="1.9"/>
			<path id="Path_12746" class="st0" d="M12,164.6c-0.5-6.1-3.5-7.4-3.5-7.4c-1.9-1-4.1-0.8-5.8,0.5c-1.9,1.8-2.4,4.4-2.7,7
				c-0.2,1.3,1.9,1.3,2.1,0c0.1-1.5,0.5-3,1.2-4.4v1.5l0,7.2v5.7c0,0.6,0.4,1.1,1,1.1c0,0,0,0,0,0c0.6,0,1.1-0.5,1.1-1.1v-8.1h1v8.2
				c0,0.6,0.5,1,1.1,1c0.5,0,1-0.4,1-1V169l0.1-7.2c0-0.7,0-1.3,0-1.7c0.7,1.4,1.2,3,1.3,4.5C10.1,165.9,12.1,165.9,12,164.6z"/>
		</g>
	</g>
	<g id="standing-frontal-man-silhouette-81" transform="translate(1896.814 1195.545)">
		<g id="Group_12249" transform="translate(0 0)">
			<ellipse id="Ellipse_9273" class="st0" cx="6" cy="154.1" rx="1.9" ry="1.9"/>
			<path id="Path_12747" class="st0" d="M12,164.6c-0.5-6.1-3.5-7.4-3.5-7.4c-1.9-1-4.1-0.8-5.8,0.5c-1.9,1.8-2.4,4.4-2.7,7
				c-0.2,1.3,1.9,1.3,2.1,0c0.1-1.5,0.5-3,1.2-4.4v1.5l0,7.2v5.7c0,0.6,0.4,1.1,1,1.1c0,0,0,0,0,0c0.6,0,1.1-0.5,1.1-1.1v-8.1h1v8.2
				c0,0.6,0.5,1,1.1,1c0.5,0,1-0.4,1-1V169l0.1-7.2c0-0.7,0-1.3,0-1.7c0.7,1.4,1.2,3,1.3,4.5C10.1,165.9,12.1,165.9,12,164.6z"/>
		</g>
	</g>
	<g id="standing-frontal-man-silhouette-82" transform="translate(1896.618 1043.968)">
		<g id="Group_12250" transform="translate(0 0)">
			<ellipse id="Ellipse_9274" class="st0" cx="6" cy="154.1" rx="1.9" ry="1.9"/>
			<path id="Path_12748" class="st0" d="M12,164.6c-0.5-6.1-3.5-7.4-3.5-7.4c-1.9-1-4.1-0.8-5.8,0.5c-1.9,1.8-2.4,4.4-2.7,7
				c-0.2,1.3,1.9,1.3,2.1,0c0.1-1.5,0.5-3,1.2-4.4v1.5l0,7.2v5.7c0,0.6,0.4,1.1,1,1.1c0,0,0,0,0,0c0.6,0,1.1-0.5,1.1-1.1v-8.1h1v8.2
				c0,0.6,0.5,1,1.1,1c0.5,0,1-0.4,1-1V169l0.1-7.2c0-0.7,0-1.3,0-1.7c0.7,1.4,1.2,3,1.3,4.5C10.1,165.9,12.1,165.9,12,164.6z"/>
		</g>
	</g>
	<g id="standing-frontal-man-silhouette-83" transform="translate(1841.618 1019.353)">
		<g id="Group_12251" transform="translate(0 0)">
			<ellipse id="Ellipse_9275" class="st0" cx="6" cy="154.1" rx="1.9" ry="1.9"/>
			<path id="Path_12749" class="st0" d="M12,164.6c-0.5-6.1-3.5-7.4-3.5-7.4c-1.9-1-4.1-0.8-5.8,0.5c-1.9,1.8-2.4,4.4-2.7,7
				c-0.2,1.3,1.9,1.3,2.1,0c0.1-1.5,0.5-3,1.2-4.4v1.5l0,7.2v5.7c0,0.6,0.4,1.1,1,1.1c0,0,0,0,0,0c0.6,0,1.1-0.5,1.1-1.1v-8.1h1v8.2
				c0,0.6,0.5,1,1.1,1c0.5,0,1-0.4,1-1V169l0.1-7.2c0-0.7,0-1.3,0-1.7c0.7,1.4,1.2,3,1.3,4.5C10.1,165.9,12.1,165.9,12,164.6z"/>
		</g>
	</g>
	<g id="standing-frontal-man-silhouette-84" transform="translate(1896.618 1018.776)">
		<g id="Group_12252" transform="translate(0 0)">
			<ellipse id="Ellipse_9276" class="st0" cx="6" cy="154.1" rx="1.9" ry="1.9"/>
			<path id="Path_12750" class="st0" d="M12,164.6c-0.5-6.1-3.5-7.4-3.5-7.4c-1.9-1-4.1-0.8-5.8,0.5c-1.9,1.8-2.4,4.4-2.7,7
				c-0.2,1.3,1.9,1.3,2.1,0c0.1-1.5,0.5-3,1.2-4.4v1.5l0,7.2v5.7c0,0.6,0.4,1.1,1,1.1c0,0,0,0,0,0c0.6,0,1.1-0.5,1.1-1.1v-8.1h1v8.2
				c0,0.6,0.5,1,1.1,1c0.5,0,1-0.4,1-1V169l0.1-7.2c0-0.7,0-1.3,0-1.7c0.7,1.4,1.2,3,1.3,4.5C10.1,165.9,12.1,165.9,12,164.6z"/>
		</g>
	</g>
	<g id="standing-frontal-man-silhouette-85" transform="translate(1841.618 994.16)">
		<g id="Group_12253" transform="translate(0 0)">
			<ellipse id="Ellipse_9277" class="st0" cx="6" cy="154.1" rx="1.9" ry="1.9"/>
			<path id="Path_12751" class="st0" d="M12,164.6c-0.5-6.1-3.5-7.4-3.5-7.4c-1.9-1-4.1-0.8-5.8,0.5c-1.9,1.8-2.4,4.4-2.7,7
				c-0.2,1.3,1.9,1.3,2.1,0c0.1-1.5,0.5-3,1.2-4.4v1.5l0,7.2v5.7c0,0.6,0.4,1.1,1,1.1c0,0,0,0,0,0c0.6,0,1.1-0.5,1.1-1.1v-8.1h1v8.2
				c0,0.6,0.5,1,1.1,1c0.5,0,1-0.4,1-1V169l0.1-7.2c0-0.7,0-1.3,0-1.7c0.7,1.4,1.2,3,1.3,4.5C10.1,165.9,12.1,165.9,12,164.6z"/>
		</g>
	</g>
	<g id="standing-frontal-man-silhouette-86" transform="translate(1841.618 1044.545)">
		<g id="Group_12254" transform="translate(0 0)">
			<ellipse id="Ellipse_9278" class="st0" cx="6" cy="154.1" rx="1.9" ry="1.9"/>
			<path id="Path_12752" class="st0" d="M12,164.6c-0.5-6.1-3.5-7.4-3.5-7.4c-1.9-1-4.1-0.8-5.8,0.5c-1.9,1.8-2.4,4.4-2.7,7
				c-0.2,1.3,1.9,1.3,2.1,0c0.1-1.5,0.5-3,1.2-4.4v1.5l0,7.2v5.7c0,0.6,0.4,1.1,1,1.1c0,0,0,0,0,0c0.6,0,1.1-0.5,1.1-1.1v-8.1h1v8.2
				c0,0.6,0.5,1,1.1,1c0.5,0,1-0.4,1-1V169l0.1-7.2c0-0.7,0-1.3,0-1.7c0.7,1.4,1.2,3,1.3,4.5C10.1,165.9,12.1,165.9,12,164.6z"/>
		</g>
	</g>
	<g id="standing-frontal-man-silhouette-87" transform="translate(1868.805 1220.584)">
		<g id="Group_12255" transform="translate(0 0)">
			<ellipse id="Ellipse_9279" class="st0" cx="6" cy="154.1" rx="1.9" ry="1.9"/>
			<path id="Path_12753" class="st0" d="M12,164.6c-0.5-6.1-3.5-7.4-3.5-7.4c-1.9-1-4.1-0.8-5.8,0.5c-1.9,1.8-2.4,4.4-2.7,7
				c-0.2,1.3,1.9,1.3,2.1,0c0.1-1.5,0.5-3,1.2-4.4v1.5l0,7.2v5.7c0,0.6,0.4,1.1,1,1.1c0,0,0,0,0,0c0.6,0,1.1-0.5,1.1-1.1v-8.1h1v8.2
				c0,0.6,0.5,1,1.1,1c0.5,0,1-0.4,1-1V169l0.1-7.2c0-0.7,0-1.3,0-1.7c0.7,1.4,1.2,3,1.3,4.5C10.1,165.9,12.1,165.9,12,164.6z"/>
		</g>
	</g>
	<g id="standing-frontal-man-silhouette-88" transform="translate(1868.805 1270.968)">
		<g id="Group_12256" transform="translate(0 0)">
			<ellipse id="Ellipse_9280" class="st0" cx="6" cy="154.1" rx="1.9" ry="1.9"/>
			<path id="Path_12754" class="st0" d="M12,164.6c-0.5-6.1-3.5-7.4-3.5-7.4c-1.9-1-4.1-0.8-5.8,0.5c-1.9,1.8-2.4,4.4-2.7,7
				c-0.2,1.3,1.9,1.3,2.1,0c0.1-1.5,0.5-3,1.2-4.4v1.5l0,7.2v5.7c0,0.6,0.4,1.1,1,1.1c0,0,0,0,0,0c0.6,0,1.1-0.5,1.1-1.1v-8.1h1v8.2
				c0,0.6,0.5,1,1.1,1c0.5,0,1-0.4,1-1V169l0.1-7.2c0-0.7,0-1.3,0-1.7c0.7,1.4,1.2,3,1.3,4.5C10.1,165.9,12.1,165.9,12,164.6z"/>
		</g>
	</g>
	<g id="standing-frontal-man-silhouette-89" transform="translate(1868.805 1321.353)">
		<g id="Group_12257" transform="translate(0 0)">
			<ellipse id="Ellipse_9281" class="st0" cx="6" cy="154.1" rx="1.9" ry="1.9"/>
			<path id="Path_12755" class="st0" d="M12,164.6c-0.5-6.1-3.5-7.4-3.5-7.4c-1.9-1-4.1-0.8-5.8,0.5c-1.9,1.8-2.4,4.4-2.7,7
				c-0.2,1.3,1.9,1.3,2.1,0c0.1-1.5,0.5-3,1.2-4.4v1.5l0,7.2v5.7c0,0.6,0.4,1.1,1,1.1c0,0,0,0,0,0c0.6,0,1.1-0.5,1.1-1.1v-8.1h1v8.2
				c0,0.6,0.5,1,1.1,1c0.5,0,1-0.4,1-1V169l0.1-7.2c0-0.7,0-1.3,0-1.7c0.7,1.4,1.2,3,1.3,4.5C10.1,165.9,12.1,165.9,12,164.6z"/>
		</g>
	</g>
	<g id="standing-frontal-man-silhouette-90" transform="translate(1868.805 1245.776)">
		<g id="Group_12258" transform="translate(0 0)">
			<ellipse id="Ellipse_9282" class="st0" cx="6" cy="154.1" rx="1.9" ry="1.9"/>
			<path id="Path_12756" class="st0" d="M12,164.6c-0.5-6.1-3.5-7.4-3.5-7.4c-1.9-1-4.1-0.8-5.8,0.5c-1.9,1.8-2.4,4.4-2.7,7
				c-0.2,1.3,1.9,1.3,2.1,0c0.1-1.5,0.5-3,1.2-4.4v1.5l0,7.2v5.7c0,0.6,0.4,1.1,1,1.1c0,0,0,0,0,0c0.6,0,1.1-0.5,1.1-1.1v-8.1h1v8.2
				c0,0.6,0.5,1,1.1,1c0.5,0,1-0.4,1-1V169l0.1-7.2c0-0.7,0-1.3,0-1.7c0.7,1.4,1.2,3,1.3,4.5C10.1,165.9,12.1,165.9,12,164.6z"/>
		</g>
	</g>
	<g id="standing-frontal-man-silhouette-91" transform="translate(1868.805 1296.16)">
		<g id="Group_12259" transform="translate(0 0)">
			<ellipse id="Ellipse_9283" class="st0" cx="6" cy="154.1" rx="1.9" ry="1.9"/>
			<path id="Path_12757" class="st0" d="M12,164.6c-0.5-6.1-3.5-7.4-3.5-7.4c-1.9-1-4.1-0.8-5.8,0.5c-1.9,1.8-2.4,4.4-2.7,7
				c-0.2,1.3,1.9,1.3,2.1,0c0.1-1.5,0.5-3,1.2-4.4v1.5l0,7.2v5.7c0,0.6,0.4,1.1,1,1.1c0,0,0,0,0,0c0.6,0,1.1-0.5,1.1-1.1v-8.1h1v8.2
				c0,0.6,0.5,1,1.1,1c0.5,0,1-0.4,1-1V169l0.1-7.2c0-0.7,0-1.3,0-1.7c0.7,1.4,1.2,3,1.3,4.5C10.1,165.9,12.1,165.9,12,164.6z"/>
		</g>
	</g>
	<g id="standing-frontal-man-silhouette-92" transform="translate(1868.805 1346.545)">
		<g id="Group_12260" transform="translate(0 0)">
			<ellipse id="Ellipse_9284" class="st0" cx="6" cy="154.1" rx="1.9" ry="1.9"/>
			<path id="Path_12758" class="st0" d="M12,164.6c-0.5-6.1-3.5-7.4-3.5-7.4c-1.9-1-4.1-0.8-5.8,0.5c-1.9,1.8-2.4,4.4-2.7,7
				c-0.2,1.3,1.9,1.3,2.1,0c0.1-1.5,0.5-3,1.2-4.4v1.5l0,7.2v5.7c0,0.6,0.4,1.1,1,1.1c0,0,0,0,0,0c0.6,0,1.1-0.5,1.1-1.1v-8.1h1v8.2
				c0,0.6,0.5,1,1.1,1c0.5,0,1-0.4,1-1V169l0.1-7.2c0-0.7,0-1.3,0-1.7c0.7,1.4,1.2,3,1.3,4.5C10.1,165.9,12.1,165.9,12,164.6z"/>
		</g>
	</g>
	<g id="standing-frontal-man-silhouette-93" transform="translate(1869.413 1069.584)">
		<g id="Group_12261" transform="translate(0 0)">
			<ellipse id="Ellipse_9285" class="st0" cx="6" cy="154.1" rx="1.9" ry="1.9"/>
			<path id="Path_12759" class="st0" d="M12,164.6c-0.5-6.1-3.5-7.4-3.5-7.4c-1.9-1-4.1-0.8-5.8,0.5c-1.9,1.8-2.4,4.4-2.7,7
				c-0.2,1.3,1.9,1.3,2.1,0c0.1-1.5,0.5-3,1.2-4.4v1.5l0,7.2v5.7c0,0.6,0.4,1.1,1,1.1c0,0,0,0,0,0c0.6,0,1.1-0.5,1.1-1.1v-8.1h1v8.2
				c0,0.6,0.5,1,1.1,1c0.5,0,1-0.4,1-1V169l0.1-7.2c0-0.7,0-1.3,0-1.7c0.7,1.4,1.2,3,1.3,4.5C10.1,165.9,12.1,165.9,12,164.6z"/>
		</g>
	</g>
	<g id="standing-frontal-man-silhouette-94" transform="translate(1869.413 1119.968)">
		<g id="Group_12262" transform="translate(0 0)">
			<ellipse id="Ellipse_9286" class="st0" cx="6" cy="154.1" rx="1.9" ry="1.9"/>
			<path id="Path_12760" class="st0" d="M12,164.6c-0.5-6.1-3.5-7.4-3.5-7.4c-1.9-1-4.1-0.8-5.8,0.5c-1.9,1.8-2.4,4.4-2.7,7
				c-0.2,1.3,1.9,1.3,2.1,0c0.1-1.5,0.5-3,1.2-4.4v1.5l0,7.2v5.7c0,0.6,0.4,1.1,1,1.1c0,0,0,0,0,0c0.6,0,1.1-0.5,1.1-1.1v-8.1h1v8.2
				c0,0.6,0.5,1,1.1,1c0.5,0,1-0.4,1-1V169l0.1-7.2c0-0.7,0-1.3,0-1.7c0.7,1.4,1.2,3,1.3,4.5C10.1,165.9,12.1,165.9,12,164.6z"/>
		</g>
	</g>
	<g id="standing-frontal-man-silhouette-95" transform="translate(1869.413 1170.353)">
		<g id="Group_12263" transform="translate(0 0)">
			<ellipse id="Ellipse_9287" class="st0" cx="6" cy="154.1" rx="1.9" ry="1.9"/>
			<path id="Path_12761" class="st0" d="M12,164.6c-0.5-6.1-3.5-7.4-3.5-7.4c-1.9-1-4.1-0.8-5.8,0.5c-1.9,1.8-2.4,4.4-2.7,7
				c-0.2,1.3,1.9,1.3,2.1,0c0.1-1.5,0.5-3,1.2-4.4v1.5l0,7.2v5.7c0,0.6,0.4,1.1,1,1.1c0,0,0,0,0,0c0.6,0,1.1-0.5,1.1-1.1v-8.1h1v8.2
				c0,0.6,0.5,1,1.1,1c0.5,0,1-0.4,1-1V169l0.1-7.2c0-0.7,0-1.3,0-1.7c0.7,1.4,1.2,3,1.3,4.5C10.1,165.9,12.1,165.9,12,164.6z"/>
		</g>
	</g>
	<g id="standing-frontal-man-silhouette-96" transform="translate(1869.413 1094.776)">
		<g id="Group_12264" transform="translate(0 0)">
			<ellipse id="Ellipse_9288" class="st0" cx="6" cy="154.1" rx="1.9" ry="1.9"/>
			<path id="Path_12762" class="st0" d="M12,164.6c-0.5-6.1-3.5-7.4-3.5-7.4c-1.9-1-4.1-0.8-5.8,0.5c-1.9,1.8-2.4,4.4-2.7,7
				c-0.2,1.3,1.9,1.3,2.1,0c0.1-1.5,0.5-3,1.2-4.4v1.5l0,7.2v5.7c0,0.6,0.4,1.1,1,1.1c0,0,0,0,0,0c0.6,0,1.1-0.5,1.1-1.1v-8.1h1v8.2
				c0,0.6,0.5,1,1.1,1c0.5,0,1-0.4,1-1V169l0.1-7.2c0-0.7,0-1.3,0-1.7c0.7,1.4,1.2,3,1.3,4.5C10.1,165.9,12.1,165.9,12,164.6z"/>
		</g>
	</g>
	<g id="standing-frontal-man-silhouette-97" transform="translate(1869.413 1145.16)">
		<g id="Group_12265" transform="translate(0 0)">
			<ellipse id="Ellipse_9289" class="st0" cx="6" cy="154.1" rx="1.9" ry="1.9"/>
			<path id="Path_12763" class="st0" d="M12,164.6c-0.5-6.1-3.5-7.4-3.5-7.4c-1.9-1-4.1-0.8-5.8,0.5c-1.9,1.8-2.4,4.4-2.7,7
				c-0.2,1.3,1.9,1.3,2.1,0c0.1-1.5,0.5-3,1.2-4.4v1.5l0,7.2v5.7c0,0.6,0.4,1.1,1,1.1c0,0,0,0,0,0c0.6,0,1.1-0.5,1.1-1.1v-8.1h1v8.2
				c0,0.6,0.5,1,1.1,1c0.5,0,1-0.4,1-1V169l0.1-7.2c0-0.7,0-1.3,0-1.7c0.7,1.4,1.2,3,1.3,4.5C10.1,165.9,12.1,165.9,12,164.6z"/>
		</g>
	</g>
	<g id="standing-frontal-man-silhouette-98" transform="translate(1869.413 1195.545)">
		<g id="Group_12266" transform="translate(0 0)">
			<ellipse id="Ellipse_9290" class="st0" cx="6" cy="154.1" rx="1.9" ry="1.9"/>
			<path id="Path_12764" class="st0" d="M12,164.6c-0.5-6.1-3.5-7.4-3.5-7.4c-1.9-1-4.1-0.8-5.8,0.5c-1.9,1.8-2.4,4.4-2.7,7
				c-0.2,1.3,1.9,1.3,2.1,0c0.1-1.5,0.5-3,1.2-4.4v1.5l0,7.2v5.7c0,0.6,0.4,1.1,1,1.1c0,0,0,0,0,0c0.6,0,1.1-0.5,1.1-1.1v-8.1h1v8.2
				c0,0.6,0.5,1,1.1,1c0.5,0,1-0.4,1-1V169l0.1-7.2c0-0.7,0-1.3,0-1.7c0.7,1.4,1.2,3,1.3,4.5C10.1,165.9,12.1,165.9,12,164.6z"/>
		</g>
	</g>
	<g id="standing-frontal-man-silhouette-99" transform="translate(1923.608 1220.584)">
		<g id="Group_12267" transform="translate(0 0)">
			<ellipse id="Ellipse_9291" class="st0" cx="6" cy="154.1" rx="1.9" ry="1.9"/>
			<path id="Path_12765" class="st0" d="M12,164.6c-0.5-6.1-3.5-7.4-3.5-7.4c-1.9-1-4.1-0.8-5.8,0.5c-1.9,1.8-2.4,4.4-2.7,7
				c-0.2,1.3,1.9,1.3,2.1,0c0.1-1.5,0.5-3,1.2-4.4v1.5l0,7.2v5.7c0,0.6,0.4,1.1,1,1.1c0,0,0,0,0,0c0.6,0,1.1-0.5,1.1-1.1v-8.1h1v8.2
				c0,0.6,0.5,1,1.1,1c0.5,0,1-0.4,1-1V169l0.1-7.2c0-0.7,0-1.3,0-1.7c0.7,1.4,1.2,3,1.3,4.5C10.1,165.9,12.1,165.9,12,164.6z"/>
		</g>
	</g>
	<g id="standing-frontal-man-silhouette-100" transform="translate(1923.608 1270.968)">
		<g id="Group_12268" transform="translate(0 0)">
			<ellipse id="Ellipse_9292" class="st0" cx="6" cy="154.1" rx="1.9" ry="1.9"/>
			<path id="Path_12766" class="st0" d="M12,164.6c-0.5-6.1-3.5-7.4-3.5-7.4c-1.9-1-4.1-0.8-5.8,0.5c-1.9,1.8-2.4,4.4-2.7,7
				c-0.2,1.3,1.9,1.3,2.1,0c0.1-1.5,0.5-3,1.2-4.4v1.5l0,7.2v5.7c0,0.6,0.4,1.1,1,1.1c0,0,0,0,0,0c0.6,0,1.1-0.5,1.1-1.1v-8.1h1v8.2
				c0,0.6,0.5,1,1.1,1c0.5,0,1-0.4,1-1V169l0.1-7.2c0-0.7,0-1.3,0-1.7c0.7,1.4,1.2,3,1.3,4.5C10.1,165.9,12.1,165.9,12,164.6z"/>
		</g>
	</g>
	<g id="standing-frontal-man-silhouette-101" transform="translate(1923.608 1321.353)">
		<g id="Group_12269" transform="translate(0 0)">
			<ellipse id="Ellipse_9293" class="st0" cx="6" cy="154.1" rx="1.9" ry="1.9"/>
			<path id="Path_12767" class="st0" d="M12,164.6c-0.5-6.1-3.5-7.4-3.5-7.4c-1.9-1-4.1-0.8-5.8,0.5c-1.9,1.8-2.4,4.4-2.7,7
				c-0.2,1.3,1.9,1.3,2.1,0c0.1-1.5,0.5-3,1.2-4.4v1.5l0,7.2v5.7c0,0.6,0.4,1.1,1,1.1c0,0,0,0,0,0c0.6,0,1.1-0.5,1.1-1.1v-8.1h1v8.2
				c0,0.6,0.5,1,1.1,1c0.5,0,1-0.4,1-1V169l0.1-7.2c0-0.7,0-1.3,0-1.7c0.7,1.4,1.2,3,1.3,4.5C10.1,165.9,12.1,165.9,12,164.6z"/>
		</g>
	</g>
	<g id="standing-frontal-man-silhouette-102" transform="translate(1923.608 1245.776)">
		<g id="Group_12270" transform="translate(0 0)">
			<ellipse id="Ellipse_9294" class="st0" cx="6" cy="154.1" rx="1.9" ry="1.9"/>
			<path id="Path_12768" class="st0" d="M12,164.6c-0.5-6.1-3.5-7.4-3.5-7.4c-1.9-1-4.1-0.8-5.8,0.5c-1.9,1.8-2.4,4.4-2.7,7
				c-0.2,1.3,1.9,1.3,2.1,0c0.1-1.5,0.5-3,1.2-4.4v1.5l0,7.2v5.7c0,0.6,0.4,1.1,1,1.1c0,0,0,0,0,0c0.6,0,1.1-0.5,1.1-1.1v-8.1h1v8.2
				c0,0.6,0.5,1,1.1,1c0.5,0,1-0.4,1-1V169l0.1-7.2c0-0.7,0-1.3,0-1.7c0.7,1.4,1.2,3,1.3,4.5C10.1,165.9,12.1,165.9,12,164.6z"/>
		</g>
	</g>
	<g id="standing-frontal-man-silhouette-103" transform="translate(1923.608 1296.16)">
		<g id="Group_12271" transform="translate(0 0)">
			<ellipse id="Ellipse_9295" class="st0" cx="6" cy="154.1" rx="1.9" ry="1.9"/>
			<path id="Path_12769" class="st0" d="M12,164.6c-0.5-6.1-3.5-7.4-3.5-7.4c-1.9-1-4.1-0.8-5.8,0.5c-1.9,1.8-2.4,4.4-2.7,7
				c-0.2,1.3,1.9,1.3,2.1,0c0.1-1.5,0.5-3,1.2-4.4v1.5l0,7.2v5.7c0,0.6,0.4,1.1,1,1.1c0,0,0,0,0,0c0.6,0,1.1-0.5,1.1-1.1v-8.1h1v8.2
				c0,0.6,0.5,1,1.1,1c0.5,0,1-0.4,1-1V169l0.1-7.2c0-0.7,0-1.3,0-1.7c0.7,1.4,1.2,3,1.3,4.5C10.1,165.9,12.1,165.9,12,164.6z"/>
		</g>
	</g>
	<g id="standing-frontal-man-silhouette-104" transform="translate(1923.608 1346.545)">
		<g id="Group_12272" transform="translate(0 0)">
			<ellipse id="Ellipse_9296" class="st0" cx="6" cy="154.1" rx="1.9" ry="1.9"/>
			<path id="Path_12770" class="st0" d="M12,164.6c-0.5-6.1-3.5-7.4-3.5-7.4c-1.9-1-4.1-0.8-5.8,0.5c-1.9,1.8-2.4,4.4-2.7,7
				c-0.2,1.3,1.9,1.3,2.1,0c0.1-1.5,0.5-3,1.2-4.4v1.5l0,7.2v5.7c0,0.6,0.4,1.1,1,1.1c0,0,0,0,0,0c0.6,0,1.1-0.5,1.1-1.1v-8.1h1v8.2
				c0,0.6,0.5,1,1.1,1c0.5,0,1-0.4,1-1V169l0.1-7.2c0-0.7,0-1.3,0-1.7c0.7,1.4,1.2,3,1.3,4.5C10.1,165.9,12.1,165.9,12,164.6z"/>
		</g>
	</g>
	<g id="standing-frontal-man-silhouette-105" transform="translate(1924.217 1119.968)">
		<g id="Group_12273" transform="translate(0 0)">
			<ellipse id="Ellipse_9297" class="st0" cx="6" cy="154.1" rx="1.9" ry="1.9"/>
			<path id="Path_12771" class="st0" d="M12,164.6c-0.5-6.1-3.5-7.4-3.5-7.4c-1.9-1-4.1-0.8-5.8,0.5c-1.9,1.8-2.4,4.4-2.7,7
				c-0.2,1.3,1.9,1.3,2.1,0c0.1-1.5,0.5-3,1.2-4.4v1.5l0,7.2v5.7c0,0.6,0.4,1.1,1,1.1c0,0,0,0,0,0c0.6,0,1.1-0.5,1.1-1.1v-8.1h1v8.2
				c0,0.6,0.5,1,1.1,1c0.5,0,1-0.4,1-1V169l0.1-7.2c0-0.7,0-1.3,0-1.7c0.7,1.4,1.2,3,1.3,4.5C10.1,165.9,12.1,165.9,12,164.6z"/>
		</g>
	</g>
	<g id="standing-frontal-man-silhouette-106" transform="translate(1924.217 1170.353)">
		<g id="Group_12274" transform="translate(0 0)">
			<ellipse id="Ellipse_9298" class="st0" cx="6" cy="154.1" rx="1.9" ry="1.9"/>
			<path id="Path_12772" class="st0" d="M12,164.6c-0.5-6.1-3.5-7.4-3.5-7.4c-1.9-1-4.1-0.8-5.8,0.5c-1.9,1.8-2.4,4.4-2.7,7
				c-0.2,1.3,1.9,1.3,2.1,0c0.1-1.5,0.5-3,1.2-4.4v1.5l0,7.2v5.7c0,0.6,0.4,1.1,1,1.1c0,0,0,0,0,0c0.6,0,1.1-0.5,1.1-1.1v-8.1h1v8.2
				c0,0.6,0.5,1,1.1,1c0.5,0,1-0.4,1-1V169l0.1-7.2c0-0.7,0-1.3,0-1.7c0.7,1.4,1.2,3,1.3,4.5C10.1,165.9,12.1,165.9,12,164.6z"/>
		</g>
	</g>
	<g id="standing-frontal-man-silhouette-107" transform="translate(1924.217 1094.776)">
		<g id="Group_12275" transform="translate(0 0)">
			<ellipse id="Ellipse_9299" class="st0" cx="6" cy="154.1" rx="1.9" ry="1.9"/>
			<path id="Path_12773" class="st0" d="M12,164.6c-0.5-6.1-3.5-7.4-3.5-7.4c-1.9-1-4.1-0.8-5.8,0.5c-1.9,1.8-2.4,4.4-2.7,7
				c-0.2,1.3,1.9,1.3,2.1,0c0.1-1.5,0.5-3,1.2-4.4v1.5l0,7.2v5.7c0,0.6,0.4,1.1,1,1.1c0,0,0,0,0,0c0.6,0,1.1-0.5,1.1-1.1v-8.1h1v8.2
				c0,0.6,0.5,1,1.1,1c0.5,0,1-0.4,1-1V169l0.1-7.2c0-0.7,0-1.3,0-1.7c0.7,1.4,1.2,3,1.3,4.5C10.1,165.9,12.1,165.9,12,164.6z"/>
		</g>
	</g>
	<g id="standing-frontal-man-silhouette-108" transform="translate(1924.217 1145.16)">
		<g id="Group_12276" transform="translate(0 0)">
			<ellipse id="Ellipse_9300" class="st0" cx="6" cy="154.1" rx="1.9" ry="1.9"/>
			<path id="Path_12774" class="st0" d="M12,164.6c-0.5-6.1-3.5-7.4-3.5-7.4c-1.9-1-4.1-0.8-5.8,0.5c-1.9,1.8-2.4,4.4-2.7,7
				c-0.2,1.3,1.9,1.3,2.1,0c0.1-1.5,0.5-3,1.2-4.4v1.5l0,7.2v5.7c0,0.6,0.4,1.1,1,1.1c0,0,0,0,0,0c0.6,0,1.1-0.5,1.1-1.1v-8.1h1v8.2
				c0,0.6,0.5,1,1.1,1c0.5,0,1-0.4,1-1V169l0.1-7.2c0-0.7,0-1.3,0-1.7c0.7,1.4,1.2,3,1.3,4.5C10.1,165.9,12.1,165.9,12,164.6z"/>
		</g>
	</g>
	<g id="standing-frontal-man-silhouette-109" transform="translate(1924.217 1195.545)">
		<g id="Group_12277" transform="translate(0 0)">
			<ellipse id="Ellipse_9301" class="st0" cx="6" cy="154.1" rx="1.9" ry="1.9"/>
			<path id="Path_12775" class="st0" d="M12,164.6c-0.5-6.1-3.5-7.4-3.5-7.4c-1.9-1-4.1-0.8-5.8,0.5c-1.9,1.8-2.4,4.4-2.7,7
				c-0.2,1.3,1.9,1.3,2.1,0c0.1-1.5,0.5-3,1.2-4.4v1.5l0,7.2v5.7c0,0.6,0.4,1.1,1,1.1c0,0,0,0,0,0c0.6,0,1.1-0.5,1.1-1.1v-8.1h1v8.2
				c0,0.6,0.5,1,1.1,1c0.5,0,1-0.4,1-1V169l0.1-7.2c0-0.7,0-1.3,0-1.7c0.7,1.4,1.2,3,1.3,4.5C10.1,165.9,12.1,165.9,12,164.6z"/>
		</g>
	</g>
	<g id="standing-frontal-man-silhouette-110" transform="translate(1924.021 1043.968)">
		<g id="Group_12278" transform="translate(0 0)">
			<ellipse id="Ellipse_9302" class="st0" cx="6" cy="154.1" rx="1.9" ry="1.9"/>
			<path id="Path_12776" class="st0" d="M12,164.6c-0.5-6.1-3.5-7.4-3.5-7.4c-1.9-1-4.1-0.8-5.8,0.5c-1.9,1.8-2.4,4.4-2.7,7
				c-0.2,1.3,1.9,1.3,2.1,0c0.1-1.5,0.5-3,1.2-4.4v1.5l0,7.2v5.7c0,0.6,0.4,1.1,1,1.1c0,0,0,0,0,0c0.6,0,1.1-0.5,1.1-1.1v-8.1h1v8.2
				c0,0.6,0.5,1,1.1,1c0.5,0,1-0.4,1-1V169l0.1-7.2c0-0.7,0-1.3,0-1.7c0.7,1.4,1.2,3,1.3,4.5C10.1,165.9,12.1,165.9,12,164.6z"/>
		</g>
	</g>
	<g id="standing-frontal-man-silhouette-111" transform="translate(1869.021 1019.353)">
		<g id="Group_12279" transform="translate(0 0)">
			<ellipse id="Ellipse_9303" class="st0" cx="6" cy="154.1" rx="1.9" ry="1.9"/>
			<path id="Path_12777" class="st0" d="M12,164.6c-0.5-6.1-3.5-7.4-3.5-7.4c-1.9-1-4.1-0.8-5.8,0.5c-1.9,1.8-2.4,4.4-2.7,7
				c-0.2,1.3,1.9,1.3,2.1,0c0.1-1.5,0.5-3,1.2-4.4v1.5l0,7.2v5.7c0,0.6,0.4,1.1,1,1.1c0,0,0,0,0,0c0.6,0,1.1-0.5,1.1-1.1v-8.1h1v8.2
				c0,0.6,0.5,1,1.1,1c0.5,0,1-0.4,1-1V169l0.1-7.2c0-0.7,0-1.3,0-1.7c0.7,1.4,1.2,3,1.3,4.5C10.1,165.9,12.1,165.9,12,164.6z"/>
		</g>
	</g>
	<g id="standing-frontal-man-silhouette-112" transform="translate(1924.021 1018.776)">
		<g id="Group_12280" transform="translate(0 0)">
			<ellipse id="Ellipse_9304" class="st0" cx="6" cy="154.1" rx="1.9" ry="1.9"/>
			<path id="Path_12778" class="st0" d="M12,164.6c-0.5-6.1-3.5-7.4-3.5-7.4c-1.9-1-4.1-0.8-5.8,0.5c-1.9,1.8-2.4,4.4-2.7,7
				c-0.2,1.3,1.9,1.3,2.1,0c0.1-1.5,0.5-3,1.2-4.4v1.5l0,7.2v5.7c0,0.6,0.4,1.1,1,1.1c0,0,0,0,0,0c0.6,0,1.1-0.5,1.1-1.1v-8.1h1v8.2
				c0,0.6,0.5,1,1.1,1c0.5,0,1-0.4,1-1V169l0.1-7.2c0-0.7,0-1.3,0-1.7c0.7,1.4,1.2,3,1.3,4.5C10.1,165.9,12.1,165.9,12,164.6z"/>
		</g>
	</g>
	<g id="standing-frontal-man-silhouette-113" transform="translate(1924.021 1070.16)">
		<g id="Group_12281" transform="translate(0 0)">
			<ellipse id="Ellipse_9305" class="st0" cx="6" cy="154.1" rx="1.9" ry="1.9"/>
			<path id="Path_12779" class="st0" d="M12,164.6c-0.5-6.1-3.5-7.4-3.5-7.4c-1.9-1-4.1-0.8-5.8,0.5c-1.9,1.8-2.4,4.4-2.7,7
				c-0.2,1.3,1.9,1.3,2.1,0c0.1-1.5,0.5-3,1.2-4.4v1.5l0,7.2v5.7c0,0.6,0.4,1.1,1,1.1c0,0,0,0,0,0c0.6,0,1.1-0.5,1.1-1.1v-8.1h1v8.2
				c0,0.6,0.5,1,1.1,1c0.5,0,1-0.4,1-1V169l0.1-7.2c0-0.7,0-1.3,0-1.7c0.7,1.4,1.2,3,1.3,4.5C10.1,165.9,12.1,165.9,12,164.6z"/>
		</g>
	</g>
	<g id="standing-frontal-man-silhouette-114" transform="translate(1869.021 1044.545)">
		<g id="Group_12282" transform="translate(0 0)">
			<ellipse id="Ellipse_9306" class="st0" cx="6" cy="154.1" rx="1.9" ry="1.9"/>
			<path id="Path_12780" class="st0" d="M12,164.6c-0.5-6.1-3.5-7.4-3.5-7.4c-1.9-1-4.1-0.8-5.8,0.5c-1.9,1.8-2.4,4.4-2.7,7
				c-0.2,1.3,1.9,1.3,2.1,0c0.1-1.5,0.5-3,1.2-4.4v1.5l0,7.2v5.7c0,0.6,0.4,1.1,1,1.1c0,0,0,0,0,0c0.6,0,1.1-0.5,1.1-1.1v-8.1h1v8.2
				c0,0.6,0.5,1,1.1,1c0.5,0,1-0.4,1-1V169l0.1-7.2c0-0.7,0-1.3,0-1.7c0.7,1.4,1.2,3,1.3,4.5C10.1,165.9,12.1,165.9,12,164.6z"/>
		</g>
	</g>
</g>
</svg>
