<svg id="Layer_1" data-name="Layer 1" xmlns="http://www.w3.org/2000/svg" viewBox="0 0 154.7 174.69"><defs><style>.cls-1{fill:#fff;}</style></defs><g id="Group_51" data-name="Group 51"><path id="Path_373" data-name="Path 373" class="cls-1" d="M373.64,374.2l-3.49-2.57a2.34,2.34,0,0,0-3.28.52l0,0-2.93,4.22-3.86-2.94a7.31,7.31,0,0,0-2.93-8.44,7.16,7.16,0,0,0-8.45.18l-2.93-2.2,2.93-4.22a2.34,2.34,0,0,0-.52-3.28l0,0-3.48-2.57a2.35,2.35,0,0,0-3.28.52l0,0-8.26,11.38a2.35,2.35,0,0,0,.52,3.28l0,0,3.48,2.56a2.34,2.34,0,0,0,3.28-.52l0,0,2.75-3.85,2.75,2c-4.95,7.16-10.64,15.23-13.76,18.9-1.47-1.1-3.49-2.57-5-3.67-5.87-4.59-12.66-9.91-19.82-9.91H287.19c-7.15,0-13.94,5.32-19.82,9.91-1.47,1.1-3.48,2.75-4.95,3.67-3.12-3.86-8.81-11.75-13.77-18.9l2.75-2,2.76,3.86a2.35,2.35,0,0,0,3.27.57l0,0,3.48-2.57a2.35,2.35,0,0,0,.58-3.27l0,0-8.26-11.2a2.35,2.35,0,0,0-3.28-.57l0,0-3.49,2.57a2.34,2.34,0,0,0-.57,3.27l0,0,2.94,4.22-2.94,2a7.17,7.17,0,0,0-8.45-.18,7.58,7.58,0,0,0-2.93,8.44l-3.86,2.94-2.93-4.22a2.35,2.35,0,0,0-3.28-.57l0,0-3.49,2.57a2.34,2.34,0,0,0-.57,3.27l0,0,8.26,11.38a2.35,2.35,0,0,0,3.27.57l0,0,3.48-2.57a2.34,2.34,0,0,0,.57-3.27l0,0-2.93-3.86,3.49-2.57c5.69,8.45,14.68,21.3,18.72,24.23A10,10,0,0,0,261,403.2c5.14,0,10.46-4,15.42-7.9.91-.73,2.2-1.65,3.48-2.75l.92,38.91-8.26,66.81A8.7,8.7,0,0,0,289.7,501a4.26,4.26,0,0,0,.06-.5l7.53-60.75,7.52,60.75a8.58,8.58,0,0,0,8.63,7.53h1.1a8.7,8.7,0,0,0,7.52-9.73l-8.26-66.81.74-38.73c1.28.92,2.57,2,3.48,2.76,4.78,3.67,10.1,7.89,15.42,7.89a9.55,9.55,0,0,0,5.69-1.84c4-2.93,13-15.6,18.72-24.22l3.49,2.57-2.75,3.85a2.34,2.34,0,0,0,.52,3.28l0,0,3.48,2.57a2.35,2.35,0,0,0,3.28-.52l0,0,8.26-11.38A2.53,2.53,0,0,0,373.64,374.2Z" transform="translate(-219.94 -333.63)"/><circle id="Ellipse_171" data-name="Ellipse 171" class="cls-1" cx="77.35" cy="17.44" r="17.44"/></g></svg>