<svg id="Layer_1" data-name="Layer 1" xmlns="http://www.w3.org/2000/svg" viewBox="0 0 154.83 174.38"><defs><style>.cls-1{fill:#fff;}</style></defs><g id="Group_50" data-name="Group 50"><path id="Path_372" data-name="Path 372" class="cls-1" d="M373.8,400.9a8.07,8.07,0,0,0-10.65-4c-5.5,2.39-13.21,5.87-18.53,8.08-3.12-8.08-7.71-20.56-19.27-25.33-5-2-11.57-5-12.3-5.32-16.34-7-43.69-3.12-48.28-1.47-2.38.92-6.42,2.38-20,27.71a8.3,8.3,0,0,0,3.3,11,9.71,9.71,0,0,0,3.85.92,8.32,8.32,0,0,0,7.16-4.22c4.22-7.89,9.73-17.43,12.3-20.37a99.28,99.28,0,0,1,16.15-1.29c-7.16,9.73-13.76,25.15-15.6,34.88-3.49,10.82-8.44,22-11,25.51-10.28-.74-30.65-2.76-31-2.76a9.41,9.41,0,0,0-1.84,18.73c1.1.18,25.15,2.38,34.14,3.12h1.47c4.22,0,12.3-2,21.29-25.33,6.24,4.22,19.09,12.66,23,16.88-1.1,6.43-6.43,23.86-11.2,38.36a9.45,9.45,0,0,0,6.05,11.93,8.2,8.2,0,0,0,2.94.55,9.47,9.47,0,0,0,9-6.42c4.77-14.32,12.66-39.28,12.48-46.44-.55-7-7-13.21-21.11-22.94,4.4-10.46,11.2-25.14,17.8-33.4a55.46,55.46,0,0,1,5.14,11.2c1.84,4.59,4.77,12.85,11.57,12.85a8.69,8.69,0,0,0,3.48-.73c4.59-1.66,23.31-9.91,25.33-10.83A8.45,8.45,0,0,0,373.8,400.9Z" transform="translate(-219.58 -334.52)"/><circle id="Ellipse_169" data-name="Ellipse 169" class="cls-1" cx="106.54" cy="18.91" r="18.91"/><circle id="Ellipse_170" data-name="Ellipse 170" class="cls-1" cx="131.71" cy="155.47" r="18.91"/></g></svg>