<?xml version="1.0" encoding="utf-8"?>
<!-- Generator: Adobe Illustrator 25.1.0, SVG Export Plug-In . SVG Version: 6.00 Build 0)  -->
<svg version="1.1" id="Laag_1" xmlns="http://www.w3.org/2000/svg" xmlns:xlink="http://www.w3.org/1999/xlink" x="0px" y="0px"
	 viewBox="0 0 150 150" style="enable-background:new 0 0 150 150;" xml:space="preserve">
<style type="text/css">
	.st0{opacity:0.9;}
	.st1{fill:#FFFFFF;}
</style>
<g id="Group_9041" class="st0">
	<ellipse id="Ellipse_6069" class="st1" cx="56.4" cy="35.3" rx="7.8" ry="7.8"/>
	<ellipse id="Ellipse_6070" class="st1" cx="90.6" cy="35.3" rx="7.8" ry="7.8"/>
	<path id="Path_9547" class="st1" d="M80.5,77.5c-2.2-24.7-14-29.7-14-29.7s-11.2-3.5-18.8-3.1c-3.7-2.3-3-4.8-5.7-13.2
		c-1.8-4.4-9-4.4-7.8,3.6c1.7,6.6,5.7,18.3,11.2,19.5l0.1,11.5l-0.1,28.9V118c-0.1,2.4,1.8,4.4,4.2,4.5c0.1,0,0.1,0,0.2,0
		c2.5,0,4.6-2,4.6-4.5V85.3h4.1v32.9c0,5.3,8.3,5.3,8.3,0v-23L67,66.2c0-2.8,0-5.2,0-6.9c3.3,5.4,4.4,11.9,5.2,18.3
		C72.8,82.8,81.1,82.8,80.5,77.5z"/>
	<path id="Path_9548" class="st1" d="M115.9,77.5c-2.2-24.7-8.6-27.9-13.5-30.2s-18.7-2.1-18.7-2.1s-4.6-1.3-14.2-1.2
		s-8.1,0.7-13.5,2.8s2.2,2.7,2.2,3.1c5.7-2.5-1.7,2.2,4.3,0.9c8.2,0.5,19.2,1.5,18.4,9.4l0,6l-0.1,28.9V118
		c-0.1,2.4,1.8,4.4,4.2,4.5c0.1,0,0.1,0,0.2,0c2.5,0,4.6-2,4.6-4.5V85.3h4.1v32.9c0,5.3,8.3,5.3,8.3,0v-23l0.4-28.9
		c0-2.8,0-5.2,0-6.9c3.3,5.4,4.4,11.9,5.2,18.3C108.2,82.8,116.5,82.8,115.9,77.5z"/>
</g>
</svg>
