<svg id="Group_13273" data-name="Group 13273" xmlns="http://www.w3.org/2000/svg" width="82.252" height="129.858" viewBox="0 0 82.252 129.858">
  <path id="Path_13779" data-name="Path 13779" d="M94.622,50.758c-2.836-.491-14.19-2.458-14.823-2.669-.726-.241,0,0-.241-.363S69.413,26.469,68.445,25.381a17.657,17.657,0,0,0-7.367-5.073,10.892,10.892,0,0,0-7.489.724s-18.6,10.63-19.808,11.233-2.295,2.779-2.295,2.779L22.8,51.369a5.251,5.251,0,1,0,9.221,4.483l8.1-15.312L45.2,37.7c-.363,1.087-5.013,23.735-5.013,23.735L35.473,88.25,18.966,108.139a6.054,6.054,0,1,0,9.062,7.934c3.024-3.555,18.235-21.434,19.7-23.175,1.631-1.932,2.053-2.9,2.295-4.166S52.985,71.1,52.985,71.1L68.565,86.68v27.478H68.6a6.1,6.1,0,0,0,12.137,0h.032s0-.195,0-.532c0-.03,0-.062,0-.092s-.005-.078-.005-.119c-.029-4.187-.158-25.033.005-29.755.181-5.253-1.693-6.4-2.115-6.884S63.673,60.833,63.673,60.833l3.2-15.52s4.168,8.152,4.59,9.058A5.645,5.645,0,0,0,74.6,57.21c1.391.3,18.723,3.805,18.723,3.805l.008-.037a5.242,5.242,0,0,0,.777.078,5.161,5.161,0,0,0,.512-10.3Z" transform="translate(-17.033 10.225)" fill="#fff"/>
  <ellipse id="Ellipse_10278" data-name="Ellipse 10278" cx="12.612" cy="12.612" rx="12.612" ry="12.612" transform="translate(37.42 24.612) rotate(-77.349)" fill="#fff"/>
</svg>
