<?xml version="1.0" encoding="utf-8"?>
<!-- Generator: Adobe Illustrator 25.1.0, SVG Export Plug-In . SVG Version: 6.00 Build 0)  -->
<svg version="1.1" id="Laag_1" xmlns="http://www.w3.org/2000/svg" xmlns:xlink="http://www.w3.org/1999/xlink" x="0px" y="0px"
	 viewBox="0 0 109.3 528.2" style="enable-background:new 0 0 109.3 528.2;" xml:space="preserve">
<style type="text/css">
	.st0{fill:#FFFFFF;}
</style>
<g id="Group_13284" transform="translate(-3156.043 -871.545)">
	<g id="standing-frontal-man-silhouette" transform="translate(3156.043 1346.545)">
		<g id="Group_10693" transform="translate(0 0)">
			<ellipse id="Ellipse_7719" class="st0" cx="6" cy="31.5" rx="1.9" ry="1.9"/>
			<path id="Path_11193" class="st0" d="M12,42c-0.5-6.1-3.5-7.4-3.5-7.4c-1.9-1-4.1-0.8-5.8,0.5c-1.9,1.8-2.4,4.4-2.7,7
				c-0.2,1.3,1.9,1.3,2.1,0c0.1-1.5,0.5-3,1.2-4.4v1.5l0,7.2v5.7c0,0.6,0.4,1.1,1,1.1c0,0,0,0,0,0c0.6,0,1.1-0.5,1.1-1.1v-8.1h1v8.2
				c0,0.6,0.5,1,1.1,1c0.5,0,1-0.4,1-1v-5.7l0.1-7.2c0-0.7,0-1.3,0-1.7c0.7,1.4,1.2,3,1.3,4.5C10.1,43.3,12.1,43.3,12,42z"/>
		</g>
	</g>
	<g id="standing-frontal-man-silhouette-2" transform="translate(3156.043 1246.545)">
		<g id="Group_10694" transform="translate(0 0)">
			<ellipse id="Ellipse_7720" class="st0" cx="6" cy="31.5" rx="1.9" ry="1.9"/>
			<path id="Path_11194" class="st0" d="M12,42c-0.5-6.1-3.5-7.4-3.5-7.4c-1.9-1-4.1-0.8-5.8,0.5c-1.9,1.8-2.4,4.4-2.7,7
				c-0.2,1.3,1.9,1.3,2.1,0c0.1-1.5,0.5-3,1.2-4.4v1.5l0,7.2v5.7c0,0.6,0.4,1.1,1,1.1c0,0,0,0,0,0c0.6,0,1.1-0.5,1.1-1.1v-8.1h1v8.2
				c0,0.6,0.5,1,1.1,1c0.5,0,1-0.4,1-1v-5.7l0.1-7.2c0-0.7,0-1.3,0-1.7c0.7,1.4,1.2,3,1.3,4.5C10.1,43.3,12.1,43.3,12,42z"/>
		</g>
	</g>
	<g id="standing-frontal-man-silhouette-3" transform="translate(3156.043 1296.545)">
		<g id="Group_10695" transform="translate(0 0)">
			<ellipse id="Ellipse_7721" class="st0" cx="6" cy="31.5" rx="1.9" ry="1.9"/>
			<path id="Path_11195" class="st0" d="M12,42c-0.5-6.1-3.5-7.4-3.5-7.4c-1.9-1-4.1-0.8-5.8,0.5c-1.9,1.8-2.4,4.4-2.7,7
				c-0.2,1.3,1.9,1.3,2.1,0c0.1-1.5,0.5-3,1.2-4.4v1.5l0,7.2v5.7c0,0.6,0.4,1.1,1,1.1c0,0,0,0,0,0c0.6,0,1.1-0.5,1.1-1.1v-8.1h1v8.2
				c0,0.6,0.5,1,1.1,1c0.5,0,1-0.4,1-1v-5.7l0.1-7.2c0-0.7,0-1.3,0-1.7c0.7,1.4,1.2,3,1.3,4.5C10.1,43.3,12.1,43.3,12,42z"/>
		</g>
	</g>
	<g id="standing-frontal-man-silhouette-4" transform="translate(3156.043 1196.545)">
		<g id="Group_10696" transform="translate(0 0)">
			<ellipse id="Ellipse_7722" class="st0" cx="6" cy="31.5" rx="1.9" ry="1.9"/>
			<path id="Path_11196" class="st0" d="M12,42c-0.5-6.1-3.5-7.4-3.5-7.4c-1.9-1-4.1-0.8-5.8,0.5c-1.9,1.8-2.4,4.4-2.7,7
				c-0.2,1.3,1.9,1.3,2.1,0c0.1-1.5,0.5-3,1.2-4.4v1.5l0,7.2v5.7c0,0.6,0.4,1.1,1,1.1c0,0,0,0,0,0c0.6,0,1.1-0.5,1.1-1.1v-8.1h1v8.2
				c0,0.6,0.5,1,1.1,1c0.5,0,1-0.4,1-1v-5.7l0.1-7.2c0-0.7,0-1.3,0-1.7c0.7,1.4,1.2,3,1.3,4.5C10.1,43.3,12.1,43.3,12,42z"/>
		</g>
	</g>
	<g id="standing-frontal-man-silhouette-5" transform="translate(3156.043 1321.545)">
		<g id="Group_10697" transform="translate(0 0)">
			<ellipse id="Ellipse_7723" class="st0" cx="6" cy="31.5" rx="1.9" ry="1.9"/>
			<path id="Path_11197" class="st0" d="M12,42c-0.5-6.1-3.5-7.4-3.5-7.4c-1.9-1-4.1-0.8-5.8,0.5c-1.9,1.8-2.4,4.4-2.7,7
				c-0.2,1.3,1.9,1.3,2.1,0c0.1-1.5,0.5-3,1.2-4.4v1.5l0,7.2v5.7c0,0.6,0.4,1.1,1,1.1c0,0,0,0,0,0c0.6,0,1.1-0.5,1.1-1.1v-8.1h1v8.2
				c0,0.6,0.5,1,1.1,1c0.5,0,1-0.4,1-1v-5.7l0.1-7.2c0-0.7,0-1.3,0-1.7c0.7,1.4,1.2,3,1.3,4.5C10.1,43.3,12.1,43.3,12,42z"/>
		</g>
	</g>
	<g id="standing-frontal-man-silhouette-6" transform="translate(3156.043 1221.545)">
		<g id="Group_10698" transform="translate(0 0)">
			<ellipse id="Ellipse_7724" class="st0" cx="6" cy="31.5" rx="1.9" ry="1.9"/>
			<path id="Path_11198" class="st0" d="M12,42c-0.5-6.1-3.5-7.4-3.5-7.4c-1.9-1-4.1-0.8-5.8,0.5c-1.9,1.8-2.4,4.4-2.7,7
				c-0.2,1.3,1.9,1.3,2.1,0c0.1-1.5,0.5-3,1.2-4.4v1.5l0,7.2v5.7c0,0.6,0.4,1.1,1,1.1c0,0,0,0,0,0c0.6,0,1.1-0.5,1.1-1.1v-8.1h1v8.2
				c0,0.6,0.5,1,1.1,1c0.5,0,1-0.4,1-1v-5.7l0.1-7.2c0-0.7,0-1.3,0-1.7c0.7,1.4,1.2,3,1.3,4.5C10.1,43.3,12.1,43.3,12,42z"/>
		</g>
	</g>
	<g id="standing-frontal-man-silhouette-7" transform="translate(3156.043 1271.545)">
		<g id="Group_10699" transform="translate(0 0)">
			<ellipse id="Ellipse_7725" class="st0" cx="6" cy="31.5" rx="1.9" ry="1.9"/>
			<path id="Path_11199" class="st0" d="M12,42c-0.5-6.1-3.5-7.4-3.5-7.4c-1.9-1-4.1-0.8-5.8,0.5c-1.9,1.8-2.4,4.4-2.7,7
				c-0.2,1.3,1.9,1.3,2.1,0c0.1-1.5,0.5-3,1.2-4.4v1.5l0,7.2v5.7c0,0.6,0.4,1.1,1,1.1c0,0,0,0,0,0c0.6,0,1.1-0.5,1.1-1.1v-8.1h1v8.2
				c0,0.6,0.5,1,1.1,1c0.5,0,1-0.4,1-1v-5.7l0.1-7.2c0-0.7,0-1.3,0-1.7c0.7,1.4,1.2,3,1.3,4.5C10.1,43.3,12.1,43.3,12,42z"/>
		</g>
	</g>
	<g id="standing-frontal-man-silhouette-8" transform="translate(3156.043 1171.545)">
		<g id="Group_10700" transform="translate(0 0)">
			<ellipse id="Ellipse_7726" class="st0" cx="6" cy="31.5" rx="1.9" ry="1.9"/>
			<path id="Path_11200" class="st0" d="M12,42c-0.5-6.1-3.5-7.4-3.5-7.4c-1.9-1-4.1-0.8-5.8,0.5c-1.9,1.8-2.4,4.4-2.7,7
				c-0.2,1.3,1.9,1.3,2.1,0c0.1-1.5,0.5-3,1.2-4.4v1.5l0,7.2v5.7c0,0.6,0.4,1.1,1,1.1c0,0,0,0,0,0c0.6,0,1.1-0.5,1.1-1.1v-8.1h1v8.2
				c0,0.6,0.5,1,1.1,1c0.5,0,1-0.4,1-1v-5.7l0.1-7.2c0-0.7,0-1.3,0-1.7c0.7,1.4,1.2,3,1.3,4.5C10.1,43.3,12.1,43.3,12,42z"/>
		</g>
	</g>
	<g id="standing-frontal-man-silhouette-9" transform="translate(3156.65 1146.545)">
		<g id="Group_10701" transform="translate(0 0)">
			<ellipse id="Ellipse_7727" class="st0" cx="6" cy="31.5" rx="1.9" ry="1.9"/>
			<path id="Path_11201" class="st0" d="M12,42c-0.5-6.1-3.5-7.4-3.5-7.4c-1.9-1-4.1-0.8-5.8,0.5c-1.9,1.8-2.4,4.4-2.7,7
				c-0.2,1.3,1.9,1.3,2.1,0c0.1-1.5,0.5-3,1.2-4.4v1.5l0,7.2v5.7c0,0.6,0.4,1.1,1,1.1c0,0,0,0,0,0c0.6,0,1.1-0.5,1.1-1.1v-8.1h1v8.2
				c0,0.6,0.5,1,1.1,1c0.5,0,1-0.4,1-1v-5.7l0.1-7.2c0-0.7,0-1.3,0-1.7c0.7,1.4,1.2,3,1.3,4.5C10.1,43.3,12.1,43.3,12,42z"/>
		</g>
	</g>
	<g id="standing-frontal-man-silhouette-10" transform="translate(3156.65 1046.545)">
		<g id="Group_10702" transform="translate(0 0)">
			<ellipse id="Ellipse_7728" class="st0" cx="6" cy="31.5" rx="1.9" ry="1.9"/>
			<path id="Path_11202" class="st0" d="M12,42c-0.5-6.1-3.5-7.4-3.5-7.4c-1.9-1-4.1-0.8-5.8,0.5c-1.9,1.8-2.4,4.4-2.7,7
				c-0.2,1.3,1.9,1.3,2.1,0c0.1-1.5,0.5-3,1.2-4.4v1.5l0,7.2v5.7c0,0.6,0.4,1.1,1,1.1c0,0,0,0,0,0c0.6,0,1.1-0.5,1.1-1.1v-8.1h1v8.2
				c0,0.6,0.5,1,1.1,1c0.5,0,1-0.4,1-1v-5.7l0.1-7.2c0-0.7,0-1.3,0-1.7c0.7,1.4,1.2,3,1.3,4.5C10.1,43.3,12.1,43.3,12,42z"/>
		</g>
	</g>
	<g id="standing-frontal-man-silhouette-11" transform="translate(3156.65 1096.545)">
		<g id="Group_10703" transform="translate(0 0)">
			<ellipse id="Ellipse_7729" class="st0" cx="6" cy="31.5" rx="1.9" ry="1.9"/>
			<path id="Path_11203" class="st0" d="M12,42c-0.5-6.1-3.5-7.4-3.5-7.4c-1.9-1-4.1-0.8-5.8,0.5c-1.9,1.8-2.4,4.4-2.7,7
				c-0.2,1.3,1.9,1.3,2.1,0c0.1-1.5,0.5-3,1.2-4.4v1.5l0,7.2v5.7c0,0.6,0.4,1.1,1,1.1c0,0,0,0,0,0c0.6,0,1.1-0.5,1.1-1.1v-8.1h1v8.2
				c0,0.6,0.5,1,1.1,1c0.5,0,1-0.4,1-1v-5.7l0.1-7.2c0-0.7,0-1.3,0-1.7c0.7,1.4,1.2,3,1.3,4.5C10.1,43.3,12.1,43.3,12,42z"/>
		</g>
	</g>
	<g id="standing-frontal-man-silhouette-12" transform="translate(3156.65 996.545)">
		<g id="Group_10704" transform="translate(0 0)">
			<ellipse id="Ellipse_7730" class="st0" cx="6" cy="31.5" rx="1.9" ry="1.9"/>
			<path id="Path_11204" class="st0" d="M12,42c-0.5-6.1-3.5-7.4-3.5-7.4c-1.9-1-4.1-0.8-5.8,0.5c-1.9,1.8-2.4,4.4-2.7,7
				c-0.2,1.3,1.9,1.3,2.1,0c0.1-1.5,0.5-3,1.2-4.4v1.5l0,7.2v5.7c0,0.6,0.4,1.1,1,1.1c0,0,0,0,0,0c0.6,0,1.1-0.5,1.1-1.1v-8.1h1v8.2
				c0,0.6,0.5,1,1.1,1c0.5,0,1-0.4,1-1v-5.7l0.1-7.2c0-0.7,0-1.3,0-1.7c0.7,1.4,1.2,3,1.3,4.5C10.1,43.3,12.1,43.3,12,42z"/>
		</g>
	</g>
	<g id="standing-frontal-man-silhouette-13" transform="translate(3156.65 1121.545)">
		<g id="Group_10705" transform="translate(0 0)">
			<ellipse id="Ellipse_7731" class="st0" cx="6" cy="31.5" rx="1.9" ry="1.9"/>
			<path id="Path_11205" class="st0" d="M12,42c-0.5-6.1-3.5-7.4-3.5-7.4c-1.9-1-4.1-0.8-5.8,0.5c-1.9,1.8-2.4,4.4-2.7,7
				c-0.2,1.3,1.9,1.3,2.1,0c0.1-1.5,0.5-3,1.2-4.4v1.5l0,7.2v5.7c0,0.6,0.4,1.1,1,1.1c0,0,0,0,0,0c0.6,0,1.1-0.5,1.1-1.1v-8.1h1v8.2
				c0,0.6,0.5,1,1.1,1c0.5,0,1-0.4,1-1v-5.7l0.1-7.2c0-0.7,0-1.3,0-1.7c0.7,1.4,1.2,3,1.3,4.5C10.1,43.3,12.1,43.3,12,42z"/>
		</g>
	</g>
	<g id="standing-frontal-man-silhouette-14" transform="translate(3156.65 1021.545)">
		<g id="Group_10706" transform="translate(0 0)">
			<ellipse id="Ellipse_7732" class="st0" cx="6" cy="31.5" rx="1.9" ry="1.9"/>
			<path id="Path_11206" class="st0" d="M12,42c-0.5-6.1-3.5-7.4-3.5-7.4c-1.9-1-4.1-0.8-5.8,0.5c-1.9,1.8-2.4,4.4-2.7,7
				c-0.2,1.3,1.9,1.3,2.1,0c0.1-1.5,0.5-3,1.2-4.4v1.5l0,7.2v5.7c0,0.6,0.4,1.1,1,1.1c0,0,0,0,0,0c0.6,0,1.1-0.5,1.1-1.1v-8.1h1v8.2
				c0,0.6,0.5,1,1.1,1c0.5,0,1-0.4,1-1v-5.7l0.1-7.2c0-0.7,0-1.3,0-1.7c0.7,1.4,1.2,3,1.3,4.5C10.1,43.3,12.1,43.3,12,42z"/>
		</g>
	</g>
	<g id="standing-frontal-man-silhouette-15" transform="translate(3156.65 1071.545)">
		<g id="Group_10707" transform="translate(0 0)">
			<ellipse id="Ellipse_7733" class="st0" cx="6" cy="31.5" rx="1.9" ry="1.9"/>
			<path id="Path_11207" class="st0" d="M12,42c-0.5-6.1-3.5-7.4-3.5-7.4c-1.9-1-4.1-0.8-5.8,0.5c-1.9,1.8-2.4,4.4-2.7,7
				c-0.2,1.3,1.9,1.3,2.1,0c0.1-1.5,0.5-3,1.2-4.4v1.5l0,7.2v5.7c0,0.6,0.4,1.1,1,1.1c0,0,0,0,0,0c0.6,0,1.1-0.5,1.1-1.1v-8.1h1v8.2
				c0,0.6,0.5,1,1.1,1c0.5,0,1-0.4,1-1v-5.7l0.1-7.2c0-0.7,0-1.3,0-1.7c0.7,1.4,1.2,3,1.3,4.5C10.1,43.3,12.1,43.3,12,42z"/>
		</g>
	</g>
	<g id="standing-frontal-man-silhouette-16" transform="translate(3156.65 971.545)">
		<g id="Group_10708" transform="translate(0 0)">
			<ellipse id="Ellipse_7734" class="st0" cx="6" cy="31.5" rx="1.9" ry="1.9"/>
			<path id="Path_11208" class="st0" d="M12,42c-0.5-6.1-3.5-7.4-3.5-7.4c-1.9-1-4.1-0.8-5.8,0.5c-1.9,1.8-2.4,4.4-2.7,7
				c-0.2,1.3,1.9,1.3,2.1,0c0.1-1.5,0.5-3,1.2-4.4v1.5l0,7.2v5.7c0,0.6,0.4,1.1,1,1.1c0,0,0,0,0,0c0.6,0,1.1-0.5,1.1-1.1v-8.1h1v8.2
				c0,0.6,0.5,1,1.1,1c0.5,0,1-0.4,1-1v-5.7l0.1-7.2c0-0.7,0-1.3,0-1.7c0.7,1.4,1.2,3,1.3,4.5C10.1,43.3,12.1,43.3,12,42z"/>
		</g>
	</g>
	<g id="standing-frontal-man-silhouette-17" transform="translate(3210.846 1346.545)">
		<g id="Group_10709" transform="translate(0 0)">
			<ellipse id="Ellipse_7735" class="st0" cx="6" cy="31.5" rx="1.9" ry="1.9"/>
			<path id="Path_11209" class="st0" d="M12,42c-0.5-6.1-3.5-7.4-3.5-7.4c-1.9-1-4.1-0.8-5.8,0.5c-1.9,1.8-2.4,4.4-2.7,7
				c-0.2,1.3,1.9,1.3,2.1,0c0.1-1.5,0.5-3,1.2-4.4v1.5l0,7.2v5.7c0,0.6,0.4,1.1,1,1.1c0,0,0,0,0,0c0.6,0,1.1-0.5,1.1-1.1v-8.1h1v8.2
				c0,0.6,0.5,1,1.1,1c0.5,0,1-0.4,1-1v-5.7l0.1-7.2c0-0.7,0-1.3,0-1.7c0.7,1.4,1.2,3,1.3,4.5C10.1,43.3,12.1,43.3,12,42z"/>
		</g>
	</g>
	<g id="standing-frontal-man-silhouette-18" transform="translate(3210.846 1246.545)">
		<g id="Group_10710" transform="translate(0 0)">
			<ellipse id="Ellipse_7736" class="st0" cx="6" cy="31.5" rx="1.9" ry="1.9"/>
			<path id="Path_11210" class="st0" d="M12,42c-0.5-6.1-3.5-7.4-3.5-7.4c-1.9-1-4.1-0.8-5.8,0.5c-1.9,1.8-2.4,4.4-2.7,7
				c-0.2,1.3,1.9,1.3,2.1,0c0.1-1.5,0.5-3,1.2-4.4v1.5l0,7.2v5.7c0,0.6,0.4,1.1,1,1.1c0,0,0,0,0,0c0.6,0,1.1-0.5,1.1-1.1v-8.1h1v8.2
				c0,0.6,0.5,1,1.1,1c0.5,0,1-0.4,1-1v-5.7l0.1-7.2c0-0.7,0-1.3,0-1.7c0.7,1.4,1.2,3,1.3,4.5C10.1,43.3,12.1,43.3,12,42z"/>
		</g>
	</g>
	<g id="standing-frontal-man-silhouette-19" transform="translate(3210.846 1296.545)">
		<g id="Group_10711" transform="translate(0 0)">
			<ellipse id="Ellipse_7737" class="st0" cx="6" cy="31.5" rx="1.9" ry="1.9"/>
			<path id="Path_11211" class="st0" d="M12,42c-0.5-6.1-3.5-7.4-3.5-7.4c-1.9-1-4.1-0.8-5.8,0.5c-1.9,1.8-2.4,4.4-2.7,7
				c-0.2,1.3,1.9,1.3,2.1,0c0.1-1.5,0.5-3,1.2-4.4v1.5l0,7.2v5.7c0,0.6,0.4,1.1,1,1.1c0,0,0,0,0,0c0.6,0,1.1-0.5,1.1-1.1v-8.1h1v8.2
				c0,0.6,0.5,1,1.1,1c0.5,0,1-0.4,1-1v-5.7l0.1-7.2c0-0.7,0-1.3,0-1.7c0.7,1.4,1.2,3,1.3,4.5C10.1,43.3,12.1,43.3,12,42z"/>
		</g>
	</g>
	<g id="standing-frontal-man-silhouette-20" transform="translate(3210.846 1196.545)">
		<g id="Group_10712" transform="translate(0 0)">
			<ellipse id="Ellipse_7738" class="st0" cx="6" cy="31.5" rx="1.9" ry="1.9"/>
			<path id="Path_11212" class="st0" d="M12,42c-0.5-6.1-3.5-7.4-3.5-7.4c-1.9-1-4.1-0.8-5.8,0.5c-1.9,1.8-2.4,4.4-2.7,7
				c-0.2,1.3,1.9,1.3,2.1,0c0.1-1.5,0.5-3,1.2-4.4v1.5l0,7.2v5.7c0,0.6,0.4,1.1,1,1.1c0,0,0,0,0,0c0.6,0,1.1-0.5,1.1-1.1v-8.1h1v8.2
				c0,0.6,0.5,1,1.1,1c0.5,0,1-0.4,1-1v-5.7l0.1-7.2c0-0.7,0-1.3,0-1.7c0.7,1.4,1.2,3,1.3,4.5C10.1,43.3,12.1,43.3,12,42z"/>
		</g>
	</g>
	<g id="standing-frontal-man-silhouette-21" transform="translate(3210.846 1321.545)">
		<g id="Group_10713" transform="translate(0 0)">
			<ellipse id="Ellipse_7739" class="st0" cx="6" cy="31.5" rx="1.9" ry="1.9"/>
			<path id="Path_11213" class="st0" d="M12,42c-0.5-6.1-3.5-7.4-3.5-7.4c-1.9-1-4.1-0.8-5.8,0.5c-1.9,1.8-2.4,4.4-2.7,7
				c-0.2,1.3,1.9,1.3,2.1,0c0.1-1.5,0.5-3,1.2-4.4v1.5l0,7.2v5.7c0,0.6,0.4,1.1,1,1.1c0,0,0,0,0,0c0.6,0,1.1-0.5,1.1-1.1v-8.1h1v8.2
				c0,0.6,0.5,1,1.1,1c0.5,0,1-0.4,1-1v-5.7l0.1-7.2c0-0.7,0-1.3,0-1.7c0.7,1.4,1.2,3,1.3,4.5C10.1,43.3,12.1,43.3,12,42z"/>
		</g>
	</g>
	<g id="standing-frontal-man-silhouette-22" transform="translate(3210.846 1221.545)">
		<g id="Group_10714" transform="translate(0 0)">
			<ellipse id="Ellipse_7740" class="st0" cx="6" cy="31.5" rx="1.9" ry="1.9"/>
			<path id="Path_11214" class="st0" d="M12,42c-0.5-6.1-3.5-7.4-3.5-7.4c-1.9-1-4.1-0.8-5.8,0.5c-1.9,1.8-2.4,4.4-2.7,7
				c-0.2,1.3,1.9,1.3,2.1,0c0.1-1.5,0.5-3,1.2-4.4v1.5l0,7.2v5.7c0,0.6,0.4,1.1,1,1.1c0,0,0,0,0,0c0.6,0,1.1-0.5,1.1-1.1v-8.1h1v8.2
				c0,0.6,0.5,1,1.1,1c0.5,0,1-0.4,1-1v-5.7l0.1-7.2c0-0.7,0-1.3,0-1.7c0.7,1.4,1.2,3,1.3,4.5C10.1,43.3,12.1,43.3,12,42z"/>
		</g>
	</g>
	<g id="standing-frontal-man-silhouette-23" transform="translate(3210.846 1271.545)">
		<g id="Group_10715" transform="translate(0 0)">
			<ellipse id="Ellipse_7741" class="st0" cx="6" cy="31.5" rx="1.9" ry="1.9"/>
			<path id="Path_11215" class="st0" d="M12,42c-0.5-6.1-3.5-7.4-3.5-7.4c-1.9-1-4.1-0.8-5.8,0.5c-1.9,1.8-2.4,4.4-2.7,7
				c-0.2,1.3,1.9,1.3,2.1,0c0.1-1.5,0.5-3,1.2-4.4v1.5l0,7.2v5.7c0,0.6,0.4,1.1,1,1.1c0,0,0,0,0,0c0.6,0,1.1-0.5,1.1-1.1v-8.1h1v8.2
				c0,0.6,0.5,1,1.1,1c0.5,0,1-0.4,1-1v-5.7l0.1-7.2c0-0.7,0-1.3,0-1.7c0.7,1.4,1.2,3,1.3,4.5C10.1,43.3,12.1,43.3,12,42z"/>
		</g>
	</g>
	<g id="standing-frontal-man-silhouette-24" transform="translate(3210.846 1171.545)">
		<g id="Group_10716" transform="translate(0 0)">
			<ellipse id="Ellipse_7742" class="st0" cx="6" cy="31.5" rx="1.9" ry="1.9"/>
			<path id="Path_11216" class="st0" d="M12,42c-0.5-6.1-3.5-7.4-3.5-7.4c-1.9-1-4.1-0.8-5.8,0.5c-1.9,1.8-2.4,4.4-2.7,7
				c-0.2,1.3,1.9,1.3,2.1,0c0.1-1.5,0.5-3,1.2-4.4v1.5l0,7.2v5.7c0,0.6,0.4,1.1,1,1.1c0,0,0,0,0,0c0.6,0,1.1-0.5,1.1-1.1v-8.1h1v8.2
				c0,0.6,0.5,1,1.1,1c0.5,0,1-0.4,1-1v-5.7l0.1-7.2c0-0.7,0-1.3,0-1.7c0.7,1.4,1.2,3,1.3,4.5C10.1,43.3,12.1,43.3,12,42z"/>
		</g>
	</g>
	<g id="standing-frontal-man-silhouette-25" transform="translate(3211.454 1146.545)">
		<g id="Group_10717" transform="translate(0 0)">
			<ellipse id="Ellipse_7743" class="st0" cx="6" cy="31.5" rx="1.9" ry="1.9"/>
			<path id="Path_11217" class="st0" d="M12,42c-0.5-6.1-3.5-7.4-3.5-7.4c-1.9-1-4.1-0.8-5.8,0.5c-1.9,1.8-2.4,4.4-2.7,7
				c-0.2,1.3,1.9,1.3,2.1,0c0.1-1.5,0.5-3,1.2-4.4v1.5l0,7.2v5.7c0,0.6,0.4,1.1,1,1.1c0,0,0,0,0,0c0.6,0,1.1-0.5,1.1-1.1v-8.1h1v8.2
				c0,0.6,0.5,1,1.1,1c0.5,0,1-0.4,1-1v-5.7l0.1-7.2c0-0.7,0-1.3,0-1.7c0.7,1.4,1.2,3,1.3,4.5C10.1,43.3,12.1,43.3,12,42z"/>
		</g>
	</g>
	<g id="standing-frontal-man-silhouette-26" transform="translate(3211.454 1046.545)">
		<g id="Group_10718" transform="translate(0 0)">
			<ellipse id="Ellipse_7744" class="st0" cx="6" cy="31.5" rx="1.9" ry="1.9"/>
			<path id="Path_11218" class="st0" d="M12,42c-0.5-6.1-3.5-7.4-3.5-7.4c-1.9-1-4.1-0.8-5.8,0.5c-1.9,1.8-2.4,4.4-2.7,7
				c-0.2,1.3,1.9,1.3,2.1,0c0.1-1.5,0.5-3,1.2-4.4v1.5l0,7.2v5.7c0,0.6,0.4,1.1,1,1.1c0,0,0,0,0,0c0.6,0,1.1-0.5,1.1-1.1v-8.1h1v8.2
				c0,0.6,0.5,1,1.1,1c0.5,0,1-0.4,1-1v-5.7l0.1-7.2c0-0.7,0-1.3,0-1.7c0.7,1.4,1.2,3,1.3,4.5C10.1,43.3,12.1,43.3,12,42z"/>
		</g>
	</g>
	<g id="standing-frontal-man-silhouette-27" transform="translate(3211.454 1096.545)">
		<g id="Group_10719" transform="translate(0 0)">
			<ellipse id="Ellipse_7745" class="st0" cx="6" cy="31.5" rx="1.9" ry="1.9"/>
			<path id="Path_11219" class="st0" d="M12,42c-0.5-6.1-3.5-7.4-3.5-7.4c-1.9-1-4.1-0.8-5.8,0.5c-1.9,1.8-2.4,4.4-2.7,7
				c-0.2,1.3,1.9,1.3,2.1,0c0.1-1.5,0.5-3,1.2-4.4v1.5l0,7.2v5.7c0,0.6,0.4,1.1,1,1.1c0,0,0,0,0,0c0.6,0,1.1-0.5,1.1-1.1v-8.1h1v8.2
				c0,0.6,0.5,1,1.1,1c0.5,0,1-0.4,1-1v-5.7l0.1-7.2c0-0.7,0-1.3,0-1.7c0.7,1.4,1.2,3,1.3,4.5C10.1,43.3,12.1,43.3,12,42z"/>
		</g>
	</g>
	<g id="standing-frontal-man-silhouette-28" transform="translate(3211.454 996.545)">
		<g id="Group_10720" transform="translate(0 0)">
			<ellipse id="Ellipse_7746" class="st0" cx="6" cy="31.5" rx="1.9" ry="1.9"/>
			<path id="Path_11220" class="st0" d="M12,42c-0.5-6.1-3.5-7.4-3.5-7.4c-1.9-1-4.1-0.8-5.8,0.5c-1.9,1.8-2.4,4.4-2.7,7
				c-0.2,1.3,1.9,1.3,2.1,0c0.1-1.5,0.5-3,1.2-4.4v1.5l0,7.2v5.7c0,0.6,0.4,1.1,1,1.1c0,0,0,0,0,0c0.6,0,1.1-0.5,1.1-1.1v-8.1h1v8.2
				c0,0.6,0.5,1,1.1,1c0.5,0,1-0.4,1-1v-5.7l0.1-7.2c0-0.7,0-1.3,0-1.7c0.7,1.4,1.2,3,1.3,4.5C10.1,43.3,12.1,43.3,12,42z"/>
		</g>
	</g>
	<g id="standing-frontal-man-silhouette-29" transform="translate(3211.454 1121.545)">
		<g id="Group_10721" transform="translate(0 0)">
			<ellipse id="Ellipse_7747" class="st0" cx="6" cy="31.5" rx="1.9" ry="1.9"/>
			<path id="Path_11221" class="st0" d="M12,42c-0.5-6.1-3.5-7.4-3.5-7.4c-1.9-1-4.1-0.8-5.8,0.5c-1.9,1.8-2.4,4.4-2.7,7
				c-0.2,1.3,1.9,1.3,2.1,0c0.1-1.5,0.5-3,1.2-4.4v1.5l0,7.2v5.7c0,0.6,0.4,1.1,1,1.1c0,0,0,0,0,0c0.6,0,1.1-0.5,1.1-1.1v-8.1h1v8.2
				c0,0.6,0.5,1,1.1,1c0.5,0,1-0.4,1-1v-5.7l0.1-7.2c0-0.7,0-1.3,0-1.7c0.7,1.4,1.2,3,1.3,4.5C10.1,43.3,12.1,43.3,12,42z"/>
		</g>
	</g>
	<g id="standing-frontal-man-silhouette-30" transform="translate(3211.454 1021.545)">
		<g id="Group_10722" transform="translate(0 0)">
			<ellipse id="Ellipse_7748" class="st0" cx="6" cy="31.5" rx="1.9" ry="1.9"/>
			<path id="Path_11222" class="st0" d="M12,42c-0.5-6.1-3.5-7.4-3.5-7.4c-1.9-1-4.1-0.8-5.8,0.5c-1.9,1.8-2.4,4.4-2.7,7
				c-0.2,1.3,1.9,1.3,2.1,0c0.1-1.5,0.5-3,1.2-4.4v1.5l0,7.2v5.7c0,0.6,0.4,1.1,1,1.1c0,0,0,0,0,0c0.6,0,1.1-0.5,1.1-1.1v-8.1h1v8.2
				c0,0.6,0.5,1,1.1,1c0.5,0,1-0.4,1-1v-5.7l0.1-7.2c0-0.7,0-1.3,0-1.7c0.7,1.4,1.2,3,1.3,4.5C10.1,43.3,12.1,43.3,12,42z"/>
		</g>
	</g>
	<g id="standing-frontal-man-silhouette-31" transform="translate(3211.454 1071.545)">
		<g id="Group_10723" transform="translate(0 0)">
			<ellipse id="Ellipse_7749" class="st0" cx="6" cy="31.5" rx="1.9" ry="1.9"/>
			<path id="Path_11223" class="st0" d="M12,42c-0.5-6.1-3.5-7.4-3.5-7.4c-1.9-1-4.1-0.8-5.8,0.5c-1.9,1.8-2.4,4.4-2.7,7
				c-0.2,1.3,1.9,1.3,2.1,0c0.1-1.5,0.5-3,1.2-4.4v1.5l0,7.2v5.7c0,0.6,0.4,1.1,1,1.1c0,0,0,0,0,0c0.6,0,1.1-0.5,1.1-1.1v-8.1h1v8.2
				c0,0.6,0.5,1,1.1,1c0.5,0,1-0.4,1-1v-5.7l0.1-7.2c0-0.7,0-1.3,0-1.7c0.7,1.4,1.2,3,1.3,4.5C10.1,43.3,12.1,43.3,12,42z"/>
		</g>
	</g>
	<g id="standing-frontal-man-silhouette-32" transform="translate(3211.454 971.545)">
		<g id="Group_10724" transform="translate(0 0)">
			<ellipse id="Ellipse_7750" class="st0" cx="6" cy="31.5" rx="1.9" ry="1.9"/>
			<path id="Path_11224" class="st0" d="M12,42c-0.5-6.1-3.5-7.4-3.5-7.4c-1.9-1-4.1-0.8-5.8,0.5c-1.9,1.8-2.4,4.4-2.7,7
				c-0.2,1.3,1.9,1.3,2.1,0c0.1-1.5,0.5-3,1.2-4.4v1.5l0,7.2v5.7c0,0.6,0.4,1.1,1,1.1c0,0,0,0,0,0c0.6,0,1.1-0.5,1.1-1.1v-8.1h1v8.2
				c0,0.6,0.5,1,1.1,1c0.5,0,1-0.4,1-1v-5.7l0.1-7.2c0-0.7,0-1.3,0-1.7c0.7,1.4,1.2,3,1.3,4.5C10.1,43.3,12.1,43.3,12,42z"/>
		</g>
	</g>
	<g id="standing-frontal-man-silhouette-33" transform="translate(3157.259 946.545)">
		<g id="Group_10725" transform="translate(0 0)">
			<ellipse id="Ellipse_7751" class="st0" cx="6" cy="31.5" rx="1.9" ry="1.9"/>
			<path id="Path_11225" class="st0" d="M12,42c-0.5-6.1-3.5-7.4-3.5-7.4c-1.9-1-4.1-0.8-5.8,0.5c-1.9,1.8-2.4,4.4-2.7,7
				c-0.2,1.3,1.9,1.3,2.1,0c0.1-1.5,0.5-3,1.2-4.4v1.5l0,7.2v5.7c0,0.6,0.4,1.1,1,1.1c0,0,0,0,0,0c0.6,0,1.1-0.5,1.1-1.1v-8.1h1v8.2
				c0,0.6,0.5,1,1.1,1c0.5,0,1-0.4,1-1v-5.7l0.1-7.2c0-0.7,0-1.3,0-1.7c0.7,1.4,1.2,3,1.3,4.5C10.1,43.3,12.1,43.3,12,42z"/>
		</g>
	</g>
	<g id="standing-frontal-man-silhouette-34" transform="translate(3212.259 946.545)">
		<g id="Group_10725-2" transform="translate(0 0)">
			<ellipse id="Ellipse_7751-2" class="st0" cx="6" cy="31.5" rx="1.9" ry="1.9"/>
			<path id="Path_11225-2" class="st0" d="M12,42c-0.5-6.1-3.5-7.4-3.5-7.4c-1.9-1-4.1-0.8-5.8,0.5c-1.9,1.8-2.4,4.4-2.7,7
				c-0.2,1.3,1.9,1.3,2.1,0c0.1-1.5,0.5-3,1.2-4.4v1.5l0,7.2v5.7c0,0.6,0.4,1.1,1,1.1c0,0,0,0,0,0c0.6,0,1.1-0.5,1.1-1.1v-8.1h1v8.2
				c0,0.6,0.5,1,1.1,1c0.5,0,1-0.4,1-1v-5.7l0.1-7.2c0-0.7,0-1.3,0-1.7c0.7,1.4,1.2,3,1.3,4.5C10.1,43.3,12.1,43.3,12,42z"/>
		</g>
	</g>
	<g id="standing-frontal-man-silhouette-35" transform="translate(3157.259 896.545)">
		<g id="Group_10727" transform="translate(0 0)">
			<ellipse id="Ellipse_7753" class="st0" cx="6" cy="31.5" rx="1.9" ry="1.9"/>
			<path id="Path_11227" class="st0" d="M12,42c-0.5-6.1-3.5-7.4-3.5-7.4c-1.9-1-4.1-0.8-5.8,0.5c-1.9,1.8-2.4,4.4-2.7,7
				c-0.2,1.3,1.9,1.3,2.1,0c0.1-1.5,0.5-3,1.2-4.4v1.5l0,7.2v5.7c0,0.6,0.4,1.1,1,1.1c0,0,0,0,0,0c0.6,0,1.1-0.5,1.1-1.1v-8.1h1v8.2
				c0,0.6,0.5,1,1.1,1c0.5,0,1-0.4,1-1v-5.7l0.1-7.2c0-0.7,0-1.3,0-1.7c0.7,1.4,1.2,3,1.3,4.5C10.1,43.3,12.1,43.3,12,42z"/>
		</g>
	</g>
	<g id="standing-frontal-man-silhouette-36" transform="translate(3212.259 896.545)">
		<g id="Group_10727-2" transform="translate(0 0)">
			<ellipse id="Ellipse_7753-2" class="st0" cx="6" cy="31.5" rx="1.9" ry="1.9"/>
			<path id="Path_11227-2" class="st0" d="M12,42c-0.5-6.1-3.5-7.4-3.5-7.4c-1.9-1-4.1-0.8-5.8,0.5c-1.9,1.8-2.4,4.4-2.7,7
				c-0.2,1.3,1.9,1.3,2.1,0c0.1-1.5,0.5-3,1.2-4.4v1.5l0,7.2v5.7c0,0.6,0.4,1.1,1,1.1c0,0,0,0,0,0c0.6,0,1.1-0.5,1.1-1.1v-8.1h1v8.2
				c0,0.6,0.5,1,1.1,1c0.5,0,1-0.4,1-1v-5.7l0.1-7.2c0-0.7,0-1.3,0-1.7c0.7,1.4,1.2,3,1.3,4.5C10.1,43.3,12.1,43.3,12,42z"/>
		</g>
	</g>
	<g id="standing-frontal-man-silhouette-37" transform="translate(3157.259 921.545)">
		<g id="Group_10729" transform="translate(0 0)">
			<ellipse id="Ellipse_7755" class="st0" cx="6" cy="31.5" rx="1.9" ry="1.9"/>
			<path id="Path_11229" class="st0" d="M12,42c-0.5-6.1-3.5-7.4-3.5-7.4c-1.9-1-4.1-0.8-5.8,0.5c-1.9,1.8-2.4,4.4-2.7,7
				c-0.2,1.3,1.9,1.3,2.1,0c0.1-1.5,0.5-3,1.2-4.4v1.5l0,7.2v5.7c0,0.6,0.4,1.1,1,1.1c0,0,0,0,0,0c0.6,0,1.1-0.5,1.1-1.1v-8.1h1v8.2
				c0,0.6,0.5,1,1.1,1c0.5,0,1-0.4,1-1v-5.7l0.1-7.2c0-0.7,0-1.3,0-1.7c0.7,1.4,1.2,3,1.3,4.5C10.1,43.3,12.1,43.3,12,42z"/>
		</g>
	</g>
	<g id="standing-frontal-man-silhouette-38" transform="translate(3212.259 921.545)">
		<g id="Group_10729-2" transform="translate(0 0)">
			<ellipse id="Ellipse_7755-2" class="st0" cx="6" cy="31.5" rx="1.9" ry="1.9"/>
			<path id="Path_11229-2" class="st0" d="M12,42c-0.5-6.1-3.5-7.4-3.5-7.4c-1.9-1-4.1-0.8-5.8,0.5c-1.9,1.8-2.4,4.4-2.7,7
				c-0.2,1.3,1.9,1.3,2.1,0c0.1-1.5,0.5-3,1.2-4.4v1.5l0,7.2v5.7c0,0.6,0.4,1.1,1,1.1c0,0,0,0,0,0c0.6,0,1.1-0.5,1.1-1.1v-8.1h1v8.2
				c0,0.6,0.5,1,1.1,1c0.5,0,1-0.4,1-1v-5.7l0.1-7.2c0-0.7,0-1.3,0-1.7c0.7,1.4,1.2,3,1.3,4.5C10.1,43.3,12.1,43.3,12,42z"/>
		</g>
	</g>
	<g id="standing-frontal-man-silhouette-39" transform="translate(3157.259 871.545)">
		<g id="Group_10731" transform="translate(0 0)">
			<ellipse id="Ellipse_7757" class="st0" cx="6" cy="31.5" rx="1.9" ry="1.9"/>
			<path id="Path_11231" class="st0" d="M12,42c-0.5-6.1-3.5-7.4-3.5-7.4c-1.9-1-4.1-0.8-5.8,0.5c-1.9,1.8-2.4,4.4-2.7,7
				c-0.2,1.3,1.9,1.3,2.1,0c0.1-1.5,0.5-3,1.2-4.4v1.5l0,7.2v5.7c0,0.6,0.4,1.1,1,1.1c0,0,0,0,0,0c0.6,0,1.1-0.5,1.1-1.1v-8.1h1v8.2
				c0,0.6,0.5,1,1.1,1c0.5,0,1-0.4,1-1v-5.7l0.1-7.2c0-0.7,0-1.3,0-1.7c0.7,1.4,1.2,3,1.3,4.5C10.1,43.3,12.1,43.3,12,42z"/>
		</g>
	</g>
	<g id="standing-frontal-man-silhouette-40" transform="translate(3183.444 1346.545)">
		<g id="Group_10732" transform="translate(0 0)">
			<ellipse id="Ellipse_7758" class="st0" cx="6" cy="31.5" rx="1.9" ry="1.9"/>
			<path id="Path_11232" class="st0" d="M12,42c-0.5-6.1-3.5-7.4-3.5-7.4c-1.9-1-4.1-0.8-5.8,0.5c-1.9,1.8-2.4,4.4-2.7,7
				c-0.2,1.3,1.9,1.3,2.1,0c0.1-1.5,0.5-3,1.2-4.4v1.5l0,7.2v5.7c0,0.6,0.4,1.1,1,1.1c0,0,0,0,0,0c0.6,0,1.1-0.5,1.1-1.1v-8.1h1v8.2
				c0,0.6,0.5,1,1.1,1c0.5,0,1-0.4,1-1v-5.7l0.1-7.2c0-0.7,0-1.3,0-1.7c0.7,1.4,1.2,3,1.3,4.5C10.1,43.3,12.1,43.3,12,42z"/>
		</g>
	</g>
	<g id="standing-frontal-man-silhouette-41" transform="translate(3183.444 1246.545)">
		<g id="Group_10733" transform="translate(0 0)">
			<ellipse id="Ellipse_7759" class="st0" cx="6" cy="31.5" rx="1.9" ry="1.9"/>
			<path id="Path_11233" class="st0" d="M12,42c-0.5-6.1-3.5-7.4-3.5-7.4c-1.9-1-4.1-0.8-5.8,0.5c-1.9,1.8-2.4,4.4-2.7,7
				c-0.2,1.3,1.9,1.3,2.1,0c0.1-1.5,0.5-3,1.2-4.4v1.5l0,7.2v5.7c0,0.6,0.4,1.1,1,1.1c0,0,0,0,0,0c0.6,0,1.1-0.5,1.1-1.1v-8.1h1v8.2
				c0,0.6,0.5,1,1.1,1c0.5,0,1-0.4,1-1v-5.7l0.1-7.2c0-0.7,0-1.3,0-1.7c0.7,1.4,1.2,3,1.3,4.5C10.1,43.3,12.1,43.3,12,42z"/>
		</g>
	</g>
	<g id="standing-frontal-man-silhouette-42" transform="translate(3183.444 1296.545)">
		<g id="Group_10734" transform="translate(0 0)">
			<ellipse id="Ellipse_7760" class="st0" cx="6" cy="31.5" rx="1.9" ry="1.9"/>
			<path id="Path_11234" class="st0" d="M12,42c-0.5-6.1-3.5-7.4-3.5-7.4c-1.9-1-4.1-0.8-5.8,0.5c-1.9,1.8-2.4,4.4-2.7,7
				c-0.2,1.3,1.9,1.3,2.1,0c0.1-1.5,0.5-3,1.2-4.4v1.5l0,7.2v5.7c0,0.6,0.4,1.1,1,1.1c0,0,0,0,0,0c0.6,0,1.1-0.5,1.1-1.1v-8.1h1v8.2
				c0,0.6,0.5,1,1.1,1c0.5,0,1-0.4,1-1v-5.7l0.1-7.2c0-0.7,0-1.3,0-1.7c0.7,1.4,1.2,3,1.3,4.5C10.1,43.3,12.1,43.3,12,42z"/>
		</g>
	</g>
	<g id="standing-frontal-man-silhouette-43" transform="translate(3183.444 1196.545)">
		<g id="Group_10735" transform="translate(0 0)">
			<ellipse id="Ellipse_7761" class="st0" cx="6" cy="31.5" rx="1.9" ry="1.9"/>
			<path id="Path_11235" class="st0" d="M12,42c-0.5-6.1-3.5-7.4-3.5-7.4c-1.9-1-4.1-0.8-5.8,0.5c-1.9,1.8-2.4,4.4-2.7,7
				c-0.2,1.3,1.9,1.3,2.1,0c0.1-1.5,0.5-3,1.2-4.4v1.5l0,7.2v5.7c0,0.6,0.4,1.1,1,1.1c0,0,0,0,0,0c0.6,0,1.1-0.5,1.1-1.1v-8.1h1v8.2
				c0,0.6,0.5,1,1.1,1c0.5,0,1-0.4,1-1v-5.7l0.1-7.2c0-0.7,0-1.3,0-1.7c0.7,1.4,1.2,3,1.3,4.5C10.1,43.3,12.1,43.3,12,42z"/>
		</g>
	</g>
	<g id="standing-frontal-man-silhouette-44" transform="translate(3183.444 1321.545)">
		<g id="Group_10736" transform="translate(0 0)">
			<ellipse id="Ellipse_7762" class="st0" cx="6" cy="31.5" rx="1.9" ry="1.9"/>
			<path id="Path_11236" class="st0" d="M12,42c-0.5-6.1-3.5-7.4-3.5-7.4c-1.9-1-4.1-0.8-5.8,0.5c-1.9,1.8-2.4,4.4-2.7,7
				c-0.2,1.3,1.9,1.3,2.1,0c0.1-1.5,0.5-3,1.2-4.4v1.5l0,7.2v5.7c0,0.6,0.4,1.1,1,1.1c0,0,0,0,0,0c0.6,0,1.1-0.5,1.1-1.1v-8.1h1v8.2
				c0,0.6,0.5,1,1.1,1c0.5,0,1-0.4,1-1v-5.7l0.1-7.2c0-0.7,0-1.3,0-1.7c0.7,1.4,1.2,3,1.3,4.5C10.1,43.3,12.1,43.3,12,42z"/>
		</g>
	</g>
	<g id="standing-frontal-man-silhouette-45" transform="translate(3183.444 1221.545)">
		<g id="Group_10737" transform="translate(0 0)">
			<ellipse id="Ellipse_7763" class="st0" cx="6" cy="31.5" rx="1.9" ry="1.9"/>
			<path id="Path_11237" class="st0" d="M12,42c-0.5-6.1-3.5-7.4-3.5-7.4c-1.9-1-4.1-0.8-5.8,0.5c-1.9,1.8-2.4,4.4-2.7,7
				c-0.2,1.3,1.9,1.3,2.1,0c0.1-1.5,0.5-3,1.2-4.4v1.5l0,7.2v5.7c0,0.6,0.4,1.1,1,1.1c0,0,0,0,0,0c0.6,0,1.1-0.5,1.1-1.1v-8.1h1v8.2
				c0,0.6,0.5,1,1.1,1c0.5,0,1-0.4,1-1v-5.7l0.1-7.2c0-0.7,0-1.3,0-1.7c0.7,1.4,1.2,3,1.3,4.5C10.1,43.3,12.1,43.3,12,42z"/>
		</g>
	</g>
	<g id="standing-frontal-man-silhouette-46" transform="translate(3183.444 1271.545)">
		<g id="Group_10738" transform="translate(0 0)">
			<ellipse id="Ellipse_7764" class="st0" cx="6" cy="31.5" rx="1.9" ry="1.9"/>
			<path id="Path_11238" class="st0" d="M12,42c-0.5-6.1-3.5-7.4-3.5-7.4c-1.9-1-4.1-0.8-5.8,0.5c-1.9,1.8-2.4,4.4-2.7,7
				c-0.2,1.3,1.9,1.3,2.1,0c0.1-1.5,0.5-3,1.2-4.4v1.5l0,7.2v5.7c0,0.6,0.4,1.1,1,1.1c0,0,0,0,0,0c0.6,0,1.1-0.5,1.1-1.1v-8.1h1v8.2
				c0,0.6,0.5,1,1.1,1c0.5,0,1-0.4,1-1v-5.7l0.1-7.2c0-0.7,0-1.3,0-1.7c0.7,1.4,1.2,3,1.3,4.5C10.1,43.3,12.1,43.3,12,42z"/>
		</g>
	</g>
	<g id="standing-frontal-man-silhouette-47" transform="translate(3183.444 1171.545)">
		<g id="Group_10739" transform="translate(0 0)">
			<ellipse id="Ellipse_7765" class="st0" cx="6" cy="31.5" rx="1.9" ry="1.9"/>
			<path id="Path_11239" class="st0" d="M12,42c-0.5-6.1-3.5-7.4-3.5-7.4c-1.9-1-4.1-0.8-5.8,0.5c-1.9,1.8-2.4,4.4-2.7,7
				c-0.2,1.3,1.9,1.3,2.1,0c0.1-1.5,0.5-3,1.2-4.4v1.5l0,7.2v5.7c0,0.6,0.4,1.1,1,1.1c0,0,0,0,0,0c0.6,0,1.1-0.5,1.1-1.1v-8.1h1v8.2
				c0,0.6,0.5,1,1.1,1c0.5,0,1-0.4,1-1v-5.7l0.1-7.2c0-0.7,0-1.3,0-1.7c0.7,1.4,1.2,3,1.3,4.5C10.1,43.3,12.1,43.3,12,42z"/>
		</g>
	</g>
	<g id="standing-frontal-man-silhouette-48" transform="translate(3184.053 1146.545)">
		<g id="Group_10740" transform="translate(0 0)">
			<ellipse id="Ellipse_7766" class="st0" cx="6" cy="31.5" rx="1.9" ry="1.9"/>
			<path id="Path_11240" class="st0" d="M12,42c-0.5-6.1-3.5-7.4-3.5-7.4c-1.9-1-4.1-0.8-5.8,0.5c-1.9,1.8-2.4,4.4-2.7,7
				c-0.2,1.3,1.9,1.3,2.1,0c0.1-1.5,0.5-3,1.2-4.4v1.5l0,7.2v5.7c0,0.6,0.4,1.1,1,1.1c0,0,0,0,0,0c0.6,0,1.1-0.5,1.1-1.1v-8.1h1v8.2
				c0,0.6,0.5,1,1.1,1c0.5,0,1-0.4,1-1v-5.7l0.1-7.2c0-0.7,0-1.3,0-1.7c0.7,1.4,1.2,3,1.3,4.5C10.1,43.3,12.1,43.3,12,42z"/>
		</g>
	</g>
	<g id="standing-frontal-man-silhouette-49" transform="translate(3184.053 1046.545)">
		<g id="Group_10741" transform="translate(0 0)">
			<ellipse id="Ellipse_7767" class="st0" cx="6" cy="31.5" rx="1.9" ry="1.9"/>
			<path id="Path_11241" class="st0" d="M12,42c-0.5-6.1-3.5-7.4-3.5-7.4c-1.9-1-4.1-0.8-5.8,0.5c-1.9,1.8-2.4,4.4-2.7,7
				c-0.2,1.3,1.9,1.3,2.1,0c0.1-1.5,0.5-3,1.2-4.4v1.5l0,7.2v5.7c0,0.6,0.4,1.1,1,1.1c0,0,0,0,0,0c0.6,0,1.1-0.5,1.1-1.1v-8.1h1v8.2
				c0,0.6,0.5,1,1.1,1c0.5,0,1-0.4,1-1v-5.7l0.1-7.2c0-0.7,0-1.3,0-1.7c0.7,1.4,1.2,3,1.3,4.5C10.1,43.3,12.1,43.3,12,42z"/>
		</g>
	</g>
	<g id="standing-frontal-man-silhouette-50" transform="translate(3184.053 1096.545)">
		<g id="Group_10742" transform="translate(0 0)">
			<ellipse id="Ellipse_7768" class="st0" cx="6" cy="31.5" rx="1.9" ry="1.9"/>
			<path id="Path_11242" class="st0" d="M12,42c-0.5-6.1-3.5-7.4-3.5-7.4c-1.9-1-4.1-0.8-5.8,0.5c-1.9,1.8-2.4,4.4-2.7,7
				c-0.2,1.3,1.9,1.3,2.1,0c0.1-1.5,0.5-3,1.2-4.4v1.5l0,7.2v5.7c0,0.6,0.4,1.1,1,1.1c0,0,0,0,0,0c0.6,0,1.1-0.5,1.1-1.1v-8.1h1v8.2
				c0,0.6,0.5,1,1.1,1c0.5,0,1-0.4,1-1v-5.7l0.1-7.2c0-0.7,0-1.3,0-1.7c0.7,1.4,1.2,3,1.3,4.5C10.1,43.3,12.1,43.3,12,42z"/>
		</g>
	</g>
	<g id="standing-frontal-man-silhouette-51" transform="translate(3184.053 996.545)">
		<g id="Group_10743" transform="translate(0 0)">
			<ellipse id="Ellipse_7769" class="st0" cx="6" cy="31.5" rx="1.9" ry="1.9"/>
			<path id="Path_11243" class="st0" d="M12,42c-0.5-6.1-3.5-7.4-3.5-7.4c-1.9-1-4.1-0.8-5.8,0.5c-1.9,1.8-2.4,4.4-2.7,7
				c-0.2,1.3,1.9,1.3,2.1,0c0.1-1.5,0.5-3,1.2-4.4v1.5l0,7.2v5.7c0,0.6,0.4,1.1,1,1.1c0,0,0,0,0,0c0.6,0,1.1-0.5,1.1-1.1v-8.1h1v8.2
				c0,0.6,0.5,1,1.1,1c0.5,0,1-0.4,1-1v-5.7l0.1-7.2c0-0.7,0-1.3,0-1.7c0.7,1.4,1.2,3,1.3,4.5C10.1,43.3,12.1,43.3,12,42z"/>
		</g>
	</g>
	<g id="standing-frontal-man-silhouette-52" transform="translate(3184.053 1121.545)">
		<g id="Group_10744" transform="translate(0 0)">
			<ellipse id="Ellipse_7770" class="st0" cx="6" cy="31.5" rx="1.9" ry="1.9"/>
			<path id="Path_11244" class="st0" d="M12,42c-0.5-6.1-3.5-7.4-3.5-7.4c-1.9-1-4.1-0.8-5.8,0.5c-1.9,1.8-2.4,4.4-2.7,7
				c-0.2,1.3,1.9,1.3,2.1,0c0.1-1.5,0.5-3,1.2-4.4v1.5l0,7.2v5.7c0,0.6,0.4,1.1,1,1.1c0,0,0,0,0,0c0.6,0,1.1-0.5,1.1-1.1v-8.1h1v8.2
				c0,0.6,0.5,1,1.1,1c0.5,0,1-0.4,1-1v-5.7l0.1-7.2c0-0.7,0-1.3,0-1.7c0.7,1.4,1.2,3,1.3,4.5C10.1,43.3,12.1,43.3,12,42z"/>
		</g>
	</g>
	<g id="standing-frontal-man-silhouette-53" transform="translate(3184.053 1021.545)">
		<g id="Group_10745" transform="translate(0 0)">
			<ellipse id="Ellipse_7771" class="st0" cx="6" cy="31.5" rx="1.9" ry="1.9"/>
			<path id="Path_11245" class="st0" d="M12,42c-0.5-6.1-3.5-7.4-3.5-7.4c-1.9-1-4.1-0.8-5.8,0.5c-1.9,1.8-2.4,4.4-2.7,7
				c-0.2,1.3,1.9,1.3,2.1,0c0.1-1.5,0.5-3,1.2-4.4v1.5l0,7.2v5.7c0,0.6,0.4,1.1,1,1.1c0,0,0,0,0,0c0.6,0,1.1-0.5,1.1-1.1v-8.1h1v8.2
				c0,0.6,0.5,1,1.1,1c0.5,0,1-0.4,1-1v-5.7l0.1-7.2c0-0.7,0-1.3,0-1.7c0.7,1.4,1.2,3,1.3,4.5C10.1,43.3,12.1,43.3,12,42z"/>
		</g>
	</g>
	<g id="standing-frontal-man-silhouette-54" transform="translate(3184.053 1071.545)">
		<g id="Group_10746" transform="translate(0 0)">
			<ellipse id="Ellipse_7772" class="st0" cx="6" cy="31.5" rx="1.9" ry="1.9"/>
			<path id="Path_11246" class="st0" d="M12,42c-0.5-6.1-3.5-7.4-3.5-7.4c-1.9-1-4.1-0.8-5.8,0.5c-1.9,1.8-2.4,4.4-2.7,7
				c-0.2,1.3,1.9,1.3,2.1,0c0.1-1.5,0.5-3,1.2-4.4v1.5l0,7.2v5.7c0,0.6,0.4,1.1,1,1.1c0,0,0,0,0,0c0.6,0,1.1-0.5,1.1-1.1v-8.1h1v8.2
				c0,0.6,0.5,1,1.1,1c0.5,0,1-0.4,1-1v-5.7l0.1-7.2c0-0.7,0-1.3,0-1.7c0.7,1.4,1.2,3,1.3,4.5C10.1,43.3,12.1,43.3,12,42z"/>
		</g>
	</g>
	<g id="standing-frontal-man-silhouette-55" transform="translate(3184.053 971.545)">
		<g id="Group_10747" transform="translate(0 0)">
			<ellipse id="Ellipse_7773" class="st0" cx="6" cy="31.5" rx="1.9" ry="1.9"/>
			<path id="Path_11247" class="st0" d="M12,42c-0.5-6.1-3.5-7.4-3.5-7.4c-1.9-1-4.1-0.8-5.8,0.5c-1.9,1.8-2.4,4.4-2.7,7
				c-0.2,1.3,1.9,1.3,2.1,0c0.1-1.5,0.5-3,1.2-4.4v1.5l0,7.2v5.7c0,0.6,0.4,1.1,1,1.1c0,0,0,0,0,0c0.6,0,1.1-0.5,1.1-1.1v-8.1h1v8.2
				c0,0.6,0.5,1,1.1,1c0.5,0,1-0.4,1-1v-5.7l0.1-7.2c0-0.7,0-1.3,0-1.7c0.7,1.4,1.2,3,1.3,4.5C10.1,43.3,12.1,43.3,12,42z"/>
		</g>
	</g>
	<g id="standing-frontal-man-silhouette-56" transform="translate(3238.249 1346.545)">
		<g id="Group_10748" transform="translate(0 0)">
			<ellipse id="Ellipse_7774" class="st0" cx="6" cy="31.5" rx="1.9" ry="1.9"/>
			<path id="Path_11248" class="st0" d="M12,42c-0.5-6.1-3.5-7.4-3.5-7.4c-1.9-1-4.1-0.8-5.8,0.5c-1.9,1.8-2.4,4.4-2.7,7
				c-0.2,1.3,1.9,1.3,2.1,0c0.1-1.5,0.5-3,1.2-4.4v1.5l0,7.2v5.7c0,0.6,0.4,1.1,1,1.1c0,0,0,0,0,0c0.6,0,1.1-0.5,1.1-1.1v-8.1h1v8.2
				c0,0.6,0.5,1,1.1,1c0.5,0,1-0.4,1-1v-5.7l0.1-7.2c0-0.7,0-1.3,0-1.7c0.7,1.4,1.2,3,1.3,4.5C10.1,43.3,12.1,43.3,12,42z"/>
		</g>
	</g>
	<g id="standing-frontal-man-silhouette-57" transform="translate(3238.249 1246.545)">
		<g id="Group_10749" transform="translate(0 0)">
			<ellipse id="Ellipse_7775" class="st0" cx="6" cy="31.5" rx="1.9" ry="1.9"/>
			<path id="Path_11249" class="st0" d="M12,42c-0.5-6.1-3.5-7.4-3.5-7.4c-1.9-1-4.1-0.8-5.8,0.5c-1.9,1.8-2.4,4.4-2.7,7
				c-0.2,1.3,1.9,1.3,2.1,0c0.1-1.5,0.5-3,1.2-4.4v1.5l0,7.2v5.7c0,0.6,0.4,1.1,1,1.1c0,0,0,0,0,0c0.6,0,1.1-0.5,1.1-1.1v-8.1h1v8.2
				c0,0.6,0.5,1,1.1,1c0.5,0,1-0.4,1-1v-5.7l0.1-7.2c0-0.7,0-1.3,0-1.7c0.7,1.4,1.2,3,1.3,4.5C10.1,43.3,12.1,43.3,12,42z"/>
		</g>
	</g>
	<g id="standing-frontal-man-silhouette-58" transform="translate(3238.249 1296.545)">
		<g id="Group_10750" transform="translate(0 0)">
			<ellipse id="Ellipse_7776" class="st0" cx="6" cy="31.5" rx="1.9" ry="1.9"/>
			<path id="Path_11250" class="st0" d="M12,42c-0.5-6.1-3.5-7.4-3.5-7.4c-1.9-1-4.1-0.8-5.8,0.5c-1.9,1.8-2.4,4.4-2.7,7
				c-0.2,1.3,1.9,1.3,2.1,0c0.1-1.5,0.5-3,1.2-4.4v1.5l0,7.2v5.7c0,0.6,0.4,1.1,1,1.1c0,0,0,0,0,0c0.6,0,1.1-0.5,1.1-1.1v-8.1h1v8.2
				c0,0.6,0.5,1,1.1,1c0.5,0,1-0.4,1-1v-5.7l0.1-7.2c0-0.7,0-1.3,0-1.7c0.7,1.4,1.2,3,1.3,4.5C10.1,43.3,12.1,43.3,12,42z"/>
		</g>
	</g>
	<g id="standing-frontal-man-silhouette-59" transform="translate(3238.249 1196.545)">
		<g id="Group_10751" transform="translate(0 0)">
			<ellipse id="Ellipse_7777" class="st0" cx="6" cy="31.5" rx="1.9" ry="1.9"/>
			<path id="Path_11251" class="st0" d="M12,42c-0.5-6.1-3.5-7.4-3.5-7.4c-1.9-1-4.1-0.8-5.8,0.5c-1.9,1.8-2.4,4.4-2.7,7
				c-0.2,1.3,1.9,1.3,2.1,0c0.1-1.5,0.5-3,1.2-4.4v1.5l0,7.2v5.7c0,0.6,0.4,1.1,1,1.1c0,0,0,0,0,0c0.6,0,1.1-0.5,1.1-1.1v-8.1h1v8.2
				c0,0.6,0.5,1,1.1,1c0.5,0,1-0.4,1-1v-5.7l0.1-7.2c0-0.7,0-1.3,0-1.7c0.7,1.4,1.2,3,1.3,4.5C10.1,43.3,12.1,43.3,12,42z"/>
		</g>
	</g>
	<g id="standing-frontal-man-silhouette-60" transform="translate(3238.249 1321.545)">
		<g id="Group_10752" transform="translate(0 0)">
			<ellipse id="Ellipse_7778" class="st0" cx="6" cy="31.5" rx="1.9" ry="1.9"/>
			<path id="Path_11252" class="st0" d="M12,42c-0.5-6.1-3.5-7.4-3.5-7.4c-1.9-1-4.1-0.8-5.8,0.5c-1.9,1.8-2.4,4.4-2.7,7
				c-0.2,1.3,1.9,1.3,2.1,0c0.1-1.5,0.5-3,1.2-4.4v1.5l0,7.2v5.7c0,0.6,0.4,1.1,1,1.1c0,0,0,0,0,0c0.6,0,1.1-0.5,1.1-1.1v-8.1h1v8.2
				c0,0.6,0.5,1,1.1,1c0.5,0,1-0.4,1-1v-5.7l0.1-7.2c0-0.7,0-1.3,0-1.7c0.7,1.4,1.2,3,1.3,4.5C10.1,43.3,12.1,43.3,12,42z"/>
		</g>
	</g>
	<g id="standing-frontal-man-silhouette-61" transform="translate(3238.249 1221.545)">
		<g id="Group_10753" transform="translate(0 0)">
			<ellipse id="Ellipse_7779" class="st0" cx="6" cy="31.5" rx="1.9" ry="1.9"/>
			<path id="Path_11253" class="st0" d="M12,42c-0.5-6.1-3.5-7.4-3.5-7.4c-1.9-1-4.1-0.8-5.8,0.5c-1.9,1.8-2.4,4.4-2.7,7
				c-0.2,1.3,1.9,1.3,2.1,0c0.1-1.5,0.5-3,1.2-4.4v1.5l0,7.2v5.7c0,0.6,0.4,1.1,1,1.1c0,0,0,0,0,0c0.6,0,1.1-0.5,1.1-1.1v-8.1h1v8.2
				c0,0.6,0.5,1,1.1,1c0.5,0,1-0.4,1-1v-5.7l0.1-7.2c0-0.7,0-1.3,0-1.7c0.7,1.4,1.2,3,1.3,4.5C10.1,43.3,12.1,43.3,12,42z"/>
		</g>
	</g>
	<g id="standing-frontal-man-silhouette-62" transform="translate(3238.249 1271.545)">
		<g id="Group_10754" transform="translate(0 0)">
			<ellipse id="Ellipse_7780" class="st0" cx="6" cy="31.5" rx="1.9" ry="1.9"/>
			<path id="Path_11254" class="st0" d="M12,42c-0.5-6.1-3.5-7.4-3.5-7.4c-1.9-1-4.1-0.8-5.8,0.5c-1.9,1.8-2.4,4.4-2.7,7
				c-0.2,1.3,1.9,1.3,2.1,0c0.1-1.5,0.5-3,1.2-4.4v1.5l0,7.2v5.7c0,0.6,0.4,1.1,1,1.1c0,0,0,0,0,0c0.6,0,1.1-0.5,1.1-1.1v-8.1h1v8.2
				c0,0.6,0.5,1,1.1,1c0.5,0,1-0.4,1-1v-5.7l0.1-7.2c0-0.7,0-1.3,0-1.7c0.7,1.4,1.2,3,1.3,4.5C10.1,43.3,12.1,43.3,12,42z"/>
		</g>
	</g>
	<g id="standing-frontal-man-silhouette-63" transform="translate(3238.249 1171.545)">
		<g id="Group_10755" transform="translate(0 0)">
			<ellipse id="Ellipse_7781" class="st0" cx="6" cy="31.5" rx="1.9" ry="1.9"/>
			<path id="Path_11255" class="st0" d="M12,42c-0.5-6.1-3.5-7.4-3.5-7.4c-1.9-1-4.1-0.8-5.8,0.5c-1.9,1.8-2.4,4.4-2.7,7
				c-0.2,1.3,1.9,1.3,2.1,0c0.1-1.5,0.5-3,1.2-4.4v1.5l0,7.2v5.7c0,0.6,0.4,1.1,1,1.1c0,0,0,0,0,0c0.6,0,1.1-0.5,1.1-1.1v-8.1h1v8.2
				c0,0.6,0.5,1,1.1,1c0.5,0,1-0.4,1-1v-5.7l0.1-7.2c0-0.7,0-1.3,0-1.7c0.7,1.4,1.2,3,1.3,4.5C10.1,43.3,12.1,43.3,12,42z"/>
		</g>
	</g>
	<g id="standing-frontal-man-silhouette-64" transform="translate(3238.856 1146.545)">
		<g id="Group_10756" transform="translate(0 0)">
			<ellipse id="Ellipse_7782" class="st0" cx="6" cy="31.5" rx="1.9" ry="1.9"/>
			<path id="Path_11256" class="st0" d="M12,42c-0.5-6.1-3.5-7.4-3.5-7.4c-1.9-1-4.1-0.8-5.8,0.5c-1.9,1.8-2.4,4.4-2.7,7
				c-0.2,1.3,1.9,1.3,2.1,0c0.1-1.5,0.5-3,1.2-4.4v1.5l0,7.2v5.7c0,0.6,0.4,1.1,1,1.1c0,0,0,0,0,0c0.6,0,1.1-0.5,1.1-1.1v-8.1h1v8.2
				c0,0.6,0.5,1,1.1,1c0.5,0,1-0.4,1-1v-5.7l0.1-7.2c0-0.7,0-1.3,0-1.7c0.7,1.4,1.2,3,1.3,4.5C10.1,43.3,12.1,43.3,12,42z"/>
		</g>
	</g>
	<g id="standing-frontal-man-silhouette-65" transform="translate(3238.856 1046.545)">
		<g id="Group_10757" transform="translate(0 0)">
			<ellipse id="Ellipse_7783" class="st0" cx="6" cy="31.5" rx="1.9" ry="1.9"/>
			<path id="Path_11257" class="st0" d="M12,42c-0.5-6.1-3.5-7.4-3.5-7.4c-1.9-1-4.1-0.8-5.8,0.5c-1.9,1.8-2.4,4.4-2.7,7
				c-0.2,1.3,1.9,1.3,2.1,0c0.1-1.5,0.5-3,1.2-4.4v1.5l0,7.2v5.7c0,0.6,0.4,1.1,1,1.1c0,0,0,0,0,0c0.6,0,1.1-0.5,1.1-1.1v-8.1h1v8.2
				c0,0.6,0.5,1,1.1,1c0.5,0,1-0.4,1-1v-5.7l0.1-7.2c0-0.7,0-1.3,0-1.7c0.7,1.4,1.2,3,1.3,4.5C10.1,43.3,12.1,43.3,12,42z"/>
		</g>
	</g>
	<g id="standing-frontal-man-silhouette-66" transform="translate(3238.856 1096.545)">
		<g id="Group_10758" transform="translate(0 0)">
			<ellipse id="Ellipse_7784" class="st0" cx="6" cy="31.5" rx="1.9" ry="1.9"/>
			<path id="Path_11258" class="st0" d="M12,42c-0.5-6.1-3.5-7.4-3.5-7.4c-1.9-1-4.1-0.8-5.8,0.5c-1.9,1.8-2.4,4.4-2.7,7
				c-0.2,1.3,1.9,1.3,2.1,0c0.1-1.5,0.5-3,1.2-4.4v1.5l0,7.2v5.7c0,0.6,0.4,1.1,1,1.1c0,0,0,0,0,0c0.6,0,1.1-0.5,1.1-1.1v-8.1h1v8.2
				c0,0.6,0.5,1,1.1,1c0.5,0,1-0.4,1-1v-5.7l0.1-7.2c0-0.7,0-1.3,0-1.7c0.7,1.4,1.2,3,1.3,4.5C10.1,43.3,12.1,43.3,12,42z"/>
		</g>
	</g>
	<g id="standing-frontal-man-silhouette-67" transform="translate(3238.856 996.545)">
		<g id="Group_10759" transform="translate(0 0)">
			<ellipse id="Ellipse_7785" class="st0" cx="6" cy="31.5" rx="1.9" ry="1.9"/>
			<path id="Path_11259" class="st0" d="M12,42c-0.5-6.1-3.5-7.4-3.5-7.4c-1.9-1-4.1-0.8-5.8,0.5c-1.9,1.8-2.4,4.4-2.7,7
				c-0.2,1.3,1.9,1.3,2.1,0c0.1-1.5,0.5-3,1.2-4.4v1.5l0,7.2v5.7c0,0.6,0.4,1.1,1,1.1c0,0,0,0,0,0c0.6,0,1.1-0.5,1.1-1.1v-8.1h1v8.2
				c0,0.6,0.5,1,1.1,1c0.5,0,1-0.4,1-1v-5.7l0.1-7.2c0-0.7,0-1.3,0-1.7c0.7,1.4,1.2,3,1.3,4.5C10.1,43.3,12.1,43.3,12,42z"/>
		</g>
	</g>
	<g id="standing-frontal-man-silhouette-68" transform="translate(3238.856 1121.545)">
		<g id="Group_10760" transform="translate(0 0)">
			<ellipse id="Ellipse_7786" class="st0" cx="6" cy="31.5" rx="1.9" ry="1.9"/>
			<path id="Path_11260" class="st0" d="M12,42c-0.5-6.1-3.5-7.4-3.5-7.4c-1.9-1-4.1-0.8-5.8,0.5c-1.9,1.8-2.4,4.4-2.7,7
				c-0.2,1.3,1.9,1.3,2.1,0c0.1-1.5,0.5-3,1.2-4.4v1.5l0,7.2v5.7c0,0.6,0.4,1.1,1,1.1c0,0,0,0,0,0c0.6,0,1.1-0.5,1.1-1.1v-8.1h1v8.2
				c0,0.6,0.5,1,1.1,1c0.5,0,1-0.4,1-1v-5.7l0.1-7.2c0-0.7,0-1.3,0-1.7c0.7,1.4,1.2,3,1.3,4.5C10.1,43.3,12.1,43.3,12,42z"/>
		</g>
	</g>
	<g id="standing-frontal-man-silhouette-69" transform="translate(3238.856 1021.545)">
		<g id="Group_10761" transform="translate(0 0)">
			<ellipse id="Ellipse_7787" class="st0" cx="6" cy="31.5" rx="1.9" ry="1.9"/>
			<path id="Path_11261" class="st0" d="M12,42c-0.5-6.1-3.5-7.4-3.5-7.4c-1.9-1-4.1-0.8-5.8,0.5c-1.9,1.8-2.4,4.4-2.7,7
				c-0.2,1.3,1.9,1.3,2.1,0c0.1-1.5,0.5-3,1.2-4.4v1.5l0,7.2v5.7c0,0.6,0.4,1.1,1,1.1c0,0,0,0,0,0c0.6,0,1.1-0.5,1.1-1.1v-8.1h1v8.2
				c0,0.6,0.5,1,1.1,1c0.5,0,1-0.4,1-1v-5.7l0.1-7.2c0-0.7,0-1.3,0-1.7c0.7,1.4,1.2,3,1.3,4.5C10.1,43.3,12.1,43.3,12,42z"/>
		</g>
	</g>
	<g id="standing-frontal-man-silhouette-70" transform="translate(3238.856 1071.545)">
		<g id="Group_10762" transform="translate(0 0)">
			<ellipse id="Ellipse_7788" class="st0" cx="6" cy="31.5" rx="1.9" ry="1.9"/>
			<path id="Path_11262" class="st0" d="M12,42c-0.5-6.1-3.5-7.4-3.5-7.4c-1.9-1-4.1-0.8-5.8,0.5c-1.9,1.8-2.4,4.4-2.7,7
				c-0.2,1.3,1.9,1.3,2.1,0c0.1-1.5,0.5-3,1.2-4.4v1.5l0,7.2v5.7c0,0.6,0.4,1.1,1,1.1c0,0,0,0,0,0c0.6,0,1.1-0.5,1.1-1.1v-8.1h1v8.2
				c0,0.6,0.5,1,1.1,1c0.5,0,1-0.4,1-1v-5.7l0.1-7.2c0-0.7,0-1.3,0-1.7c0.7,1.4,1.2,3,1.3,4.5C10.1,43.3,12.1,43.3,12,42z"/>
		</g>
	</g>
	<g id="standing-frontal-man-silhouette-71" transform="translate(3238.856 971.545)">
		<g id="Group_10763" transform="translate(0 0)">
			<ellipse id="Ellipse_7789" class="st0" cx="6" cy="31.5" rx="1.9" ry="1.9"/>
			<path id="Path_11263" class="st0" d="M12,42c-0.5-6.1-3.5-7.4-3.5-7.4c-1.9-1-4.1-0.8-5.8,0.5c-1.9,1.8-2.4,4.4-2.7,7
				c-0.2,1.3,1.9,1.3,2.1,0c0.1-1.5,0.5-3,1.2-4.4v1.5l0,7.2v5.7c0,0.6,0.4,1.1,1,1.1c0,0,0,0,0,0c0.6,0,1.1-0.5,1.1-1.1v-8.1h1v8.2
				c0,0.6,0.5,1,1.1,1c0.5,0,1-0.4,1-1v-5.7l0.1-7.2c0-0.7,0-1.3,0-1.7c0.7,1.4,1.2,3,1.3,4.5C10.1,43.3,12.1,43.3,12,42z"/>
		</g>
	</g>
	<g id="standing-frontal-man-silhouette-72" transform="translate(3184.66 946.545)">
		<g id="Group_10764" transform="translate(0 0)">
			<ellipse id="Ellipse_7790" class="st0" cx="6" cy="31.5" rx="1.9" ry="1.9"/>
			<path id="Path_11264" class="st0" d="M12,42c-0.5-6.1-3.5-7.4-3.5-7.4c-1.9-1-4.1-0.8-5.8,0.5c-1.9,1.8-2.4,4.4-2.7,7
				c-0.2,1.3,1.9,1.3,2.1,0c0.1-1.5,0.5-3,1.2-4.4v1.5l0,7.2v5.7c0,0.6,0.4,1.1,1,1.1c0,0,0,0,0,0c0.6,0,1.1-0.5,1.1-1.1v-8.1h1v8.2
				c0,0.6,0.5,1,1.1,1c0.5,0,1-0.4,1-1v-5.7l0.1-7.2c0-0.7,0-1.3,0-1.7c0.7,1.4,1.2,3,1.3,4.5C10.1,43.3,12.1,43.3,12,42z"/>
		</g>
	</g>
	<g id="standing-frontal-man-silhouette-73" transform="translate(3239.66 946.545)">
		<g id="Group_10764-2" transform="translate(0 0)">
			<ellipse id="Ellipse_7790-2" class="st0" cx="6" cy="31.5" rx="1.9" ry="1.9"/>
			<path id="Path_11264-2" class="st0" d="M12,42c-0.5-6.1-3.5-7.4-3.5-7.4c-1.9-1-4.1-0.8-5.8,0.5c-1.9,1.8-2.4,4.4-2.7,7
				c-0.2,1.3,1.9,1.3,2.1,0c0.1-1.5,0.5-3,1.2-4.4v1.5l0,7.2v5.7c0,0.6,0.4,1.1,1,1.1c0,0,0,0,0,0c0.6,0,1.1-0.5,1.1-1.1v-8.1h1v8.2
				c0,0.6,0.5,1,1.1,1c0.5,0,1-0.4,1-1v-5.7l0.1-7.2c0-0.7,0-1.3,0-1.7c0.7,1.4,1.2,3,1.3,4.5C10.1,43.3,12.1,43.3,12,42z"/>
		</g>
	</g>
	<g id="standing-frontal-man-silhouette-74" transform="translate(3184.66 896.545)">
		<g id="Group_10766" transform="translate(0 0)">
			<ellipse id="Ellipse_7792" class="st0" cx="6" cy="31.5" rx="1.9" ry="1.9"/>
			<path id="Path_11266" class="st0" d="M12,42c-0.5-6.1-3.5-7.4-3.5-7.4c-1.9-1-4.1-0.8-5.8,0.5c-1.9,1.8-2.4,4.4-2.7,7
				c-0.2,1.3,1.9,1.3,2.1,0c0.1-1.5,0.5-3,1.2-4.4v1.5l0,7.2v5.7c0,0.6,0.4,1.1,1,1.1c0,0,0,0,0,0c0.6,0,1.1-0.5,1.1-1.1v-8.1h1v8.2
				c0,0.6,0.5,1,1.1,1c0.5,0,1-0.4,1-1v-5.7l0.1-7.2c0-0.7,0-1.3,0-1.7c0.7,1.4,1.2,3,1.3,4.5C10.1,43.3,12.1,43.3,12,42z"/>
		</g>
	</g>
	<g id="standing-frontal-man-silhouette-75" transform="translate(3239.66 896.545)">
		<g id="Group_10766-2" transform="translate(0 0)">
			<ellipse id="Ellipse_7792-2" class="st0" cx="6" cy="31.5" rx="1.9" ry="1.9"/>
			<path id="Path_11266-2" class="st0" d="M12,42c-0.5-6.1-3.5-7.4-3.5-7.4c-1.9-1-4.1-0.8-5.8,0.5c-1.9,1.8-2.4,4.4-2.7,7
				c-0.2,1.3,1.9,1.3,2.1,0c0.1-1.5,0.5-3,1.2-4.4v1.5l0,7.2v5.7c0,0.6,0.4,1.1,1,1.1c0,0,0,0,0,0c0.6,0,1.1-0.5,1.1-1.1v-8.1h1v8.2
				c0,0.6,0.5,1,1.1,1c0.5,0,1-0.4,1-1v-5.7l0.1-7.2c0-0.7,0-1.3,0-1.7c0.7,1.4,1.2,3,1.3,4.5C10.1,43.3,12.1,43.3,12,42z"/>
		</g>
	</g>
	<g id="standing-frontal-man-silhouette-76" transform="translate(3184.66 921.545)">
		<g id="Group_10768" transform="translate(0 0)">
			<ellipse id="Ellipse_7794" class="st0" cx="6" cy="31.5" rx="1.9" ry="1.9"/>
			<path id="Path_11268" class="st0" d="M12,42c-0.5-6.1-3.5-7.4-3.5-7.4c-1.9-1-4.1-0.8-5.8,0.5c-1.9,1.8-2.4,4.4-2.7,7
				c-0.2,1.3,1.9,1.3,2.1,0c0.1-1.5,0.5-3,1.2-4.4v1.5l0,7.2v5.7c0,0.6,0.4,1.1,1,1.1c0,0,0,0,0,0c0.6,0,1.1-0.5,1.1-1.1v-8.1h1v8.2
				c0,0.6,0.5,1,1.1,1c0.5,0,1-0.4,1-1v-5.7l0.1-7.2c0-0.7,0-1.3,0-1.7c0.7,1.4,1.2,3,1.3,4.5C10.1,43.3,12.1,43.3,12,42z"/>
		</g>
	</g>
	<g id="standing-frontal-man-silhouette-77" transform="translate(3239.66 921.545)">
		<g id="Group_10768-2" transform="translate(0 0)">
			<ellipse id="Ellipse_7794-2" class="st0" cx="6" cy="31.5" rx="1.9" ry="1.9"/>
			<path id="Path_11268-2" class="st0" d="M12,42c-0.5-6.1-3.5-7.4-3.5-7.4c-1.9-1-4.1-0.8-5.8,0.5c-1.9,1.8-2.4,4.4-2.7,7
				c-0.2,1.3,1.9,1.3,2.1,0c0.1-1.5,0.5-3,1.2-4.4v1.5l0,7.2v5.7c0,0.6,0.4,1.1,1,1.1c0,0,0,0,0,0c0.6,0,1.1-0.5,1.1-1.1v-8.1h1v8.2
				c0,0.6,0.5,1,1.1,1c0.5,0,1-0.4,1-1v-5.7l0.1-7.2c0-0.7,0-1.3,0-1.7c0.7,1.4,1.2,3,1.3,4.5C10.1,43.3,12.1,43.3,12,42z"/>
		</g>
	</g>
	<g id="standing-frontal-man-silhouette-78" transform="translate(3184.66 871.545)">
		<g id="Group_10770" transform="translate(0 0)">
			<ellipse id="Ellipse_7796" class="st0" cx="6" cy="31.5" rx="1.9" ry="1.9"/>
			<path id="Path_11270" class="st0" d="M12,42c-0.5-6.1-3.5-7.4-3.5-7.4c-1.9-1-4.1-0.8-5.8,0.5c-1.9,1.8-2.4,4.4-2.7,7
				c-0.2,1.3,1.9,1.3,2.1,0c0.1-1.5,0.5-3,1.2-4.4v1.5l0,7.2v5.7c0,0.6,0.4,1.1,1,1.1c0,0,0,0,0,0c0.6,0,1.1-0.5,1.1-1.1v-8.1h1v8.2
				c0,0.6,0.5,1,1.1,1c0.5,0,1-0.4,1-1v-5.7l0.1-7.2c0-0.7,0-1.3,0-1.7c0.7,1.4,1.2,3,1.3,4.5C10.1,43.3,12.1,43.3,12,42z"/>
		</g>
	</g>
	<g id="standing-frontal-man-silhouette-79" transform="translate(3169.744 1346.545)">
		<g id="Group_10771" transform="translate(0 0)">
			<ellipse id="Ellipse_7797" class="st0" cx="6" cy="31.5" rx="1.9" ry="1.9"/>
			<path id="Path_11271" class="st0" d="M12,42c-0.5-6.1-3.5-7.4-3.5-7.4c-1.9-1-4.1-0.8-5.8,0.5c-1.9,1.8-2.4,4.4-2.7,7
				c-0.2,1.3,1.9,1.3,2.1,0c0.1-1.5,0.5-3,1.2-4.4v1.5l0,7.2v5.7c0,0.6,0.4,1.1,1,1.1c0,0,0,0,0,0c0.6,0,1.1-0.5,1.1-1.1v-8.1h1v8.2
				c0,0.6,0.5,1,1.1,1c0.5,0,1-0.4,1-1v-5.7l0.1-7.2c0-0.7,0-1.3,0-1.7c0.7,1.4,1.2,3,1.3,4.5C10.1,43.3,12.1,43.3,12,42z"/>
		</g>
	</g>
	<g id="standing-frontal-man-silhouette-80" transform="translate(3169.744 1246.545)">
		<g id="Group_10772" transform="translate(0 0)">
			<ellipse id="Ellipse_7798" class="st0" cx="6" cy="31.5" rx="1.9" ry="1.9"/>
			<path id="Path_11272" class="st0" d="M12,42c-0.5-6.1-3.5-7.4-3.5-7.4c-1.9-1-4.1-0.8-5.8,0.5c-1.9,1.8-2.4,4.4-2.7,7
				c-0.2,1.3,1.9,1.3,2.1,0c0.1-1.5,0.5-3,1.2-4.4v1.5l0,7.2v5.7c0,0.6,0.4,1.1,1,1.1c0,0,0,0,0,0c0.6,0,1.1-0.5,1.1-1.1v-8.1h1v8.2
				c0,0.6,0.5,1,1.1,1c0.5,0,1-0.4,1-1v-5.7l0.1-7.2c0-0.7,0-1.3,0-1.7c0.7,1.4,1.2,3,1.3,4.5C10.1,43.3,12.1,43.3,12,42z"/>
		</g>
	</g>
	<g id="standing-frontal-man-silhouette-81" transform="translate(3169.744 1296.545)">
		<g id="Group_10773" transform="translate(0 0)">
			<ellipse id="Ellipse_7799" class="st0" cx="6" cy="31.5" rx="1.9" ry="1.9"/>
			<path id="Path_11273" class="st0" d="M12,42c-0.5-6.1-3.5-7.4-3.5-7.4c-1.9-1-4.1-0.8-5.8,0.5c-1.9,1.8-2.4,4.4-2.7,7
				c-0.2,1.3,1.9,1.3,2.1,0c0.1-1.5,0.5-3,1.2-4.4v1.5l0,7.2v5.7c0,0.6,0.4,1.1,1,1.1c0,0,0,0,0,0c0.6,0,1.1-0.5,1.1-1.1v-8.1h1v8.2
				c0,0.6,0.5,1,1.1,1c0.5,0,1-0.4,1-1v-5.7l0.1-7.2c0-0.7,0-1.3,0-1.7c0.7,1.4,1.2,3,1.3,4.5C10.1,43.3,12.1,43.3,12,42z"/>
		</g>
	</g>
	<g id="standing-frontal-man-silhouette-82" transform="translate(3169.744 1196.545)">
		<g id="Group_10774" transform="translate(0 0)">
			<ellipse id="Ellipse_7800" class="st0" cx="6" cy="31.5" rx="1.9" ry="1.9"/>
			<path id="Path_11274" class="st0" d="M12,42c-0.5-6.1-3.5-7.4-3.5-7.4c-1.9-1-4.1-0.8-5.8,0.5c-1.9,1.8-2.4,4.4-2.7,7
				c-0.2,1.3,1.9,1.3,2.1,0c0.1-1.5,0.5-3,1.2-4.4v1.5l0,7.2v5.7c0,0.6,0.4,1.1,1,1.1c0,0,0,0,0,0c0.6,0,1.1-0.5,1.1-1.1v-8.1h1v8.2
				c0,0.6,0.5,1,1.1,1c0.5,0,1-0.4,1-1v-5.7l0.1-7.2c0-0.7,0-1.3,0-1.7c0.7,1.4,1.2,3,1.3,4.5C10.1,43.3,12.1,43.3,12,42z"/>
		</g>
	</g>
	<g id="standing-frontal-man-silhouette-83" transform="translate(3169.744 1321.545)">
		<g id="Group_10775" transform="translate(0 0)">
			<ellipse id="Ellipse_7801" class="st0" cx="6" cy="31.5" rx="1.9" ry="1.9"/>
			<path id="Path_11275" class="st0" d="M12,42c-0.5-6.1-3.5-7.4-3.5-7.4c-1.9-1-4.1-0.8-5.8,0.5c-1.9,1.8-2.4,4.4-2.7,7
				c-0.2,1.3,1.9,1.3,2.1,0c0.1-1.5,0.5-3,1.2-4.4v1.5l0,7.2v5.7c0,0.6,0.4,1.1,1,1.1c0,0,0,0,0,0c0.6,0,1.1-0.5,1.1-1.1v-8.1h1v8.2
				c0,0.6,0.5,1,1.1,1c0.5,0,1-0.4,1-1v-5.7l0.1-7.2c0-0.7,0-1.3,0-1.7c0.7,1.4,1.2,3,1.3,4.5C10.1,43.3,12.1,43.3,12,42z"/>
		</g>
	</g>
	<g id="standing-frontal-man-silhouette-84" transform="translate(3169.744 1221.545)">
		<g id="Group_10776" transform="translate(0 0)">
			<ellipse id="Ellipse_7802" class="st0" cx="6" cy="31.5" rx="1.9" ry="1.9"/>
			<path id="Path_11276" class="st0" d="M12,42c-0.5-6.1-3.5-7.4-3.5-7.4c-1.9-1-4.1-0.8-5.8,0.5c-1.9,1.8-2.4,4.4-2.7,7
				c-0.2,1.3,1.9,1.3,2.1,0c0.1-1.5,0.5-3,1.2-4.4v1.5l0,7.2v5.7c0,0.6,0.4,1.1,1,1.1c0,0,0,0,0,0c0.6,0,1.1-0.5,1.1-1.1v-8.1h1v8.2
				c0,0.6,0.5,1,1.1,1c0.5,0,1-0.4,1-1v-5.7l0.1-7.2c0-0.7,0-1.3,0-1.7c0.7,1.4,1.2,3,1.3,4.5C10.1,43.3,12.1,43.3,12,42z"/>
		</g>
	</g>
	<g id="standing-frontal-man-silhouette-85" transform="translate(3169.744 1271.545)">
		<g id="Group_10777" transform="translate(0 0)">
			<ellipse id="Ellipse_7803" class="st0" cx="6" cy="31.5" rx="1.9" ry="1.9"/>
			<path id="Path_11277" class="st0" d="M12,42c-0.5-6.1-3.5-7.4-3.5-7.4c-1.9-1-4.1-0.8-5.8,0.5c-1.9,1.8-2.4,4.4-2.7,7
				c-0.2,1.3,1.9,1.3,2.1,0c0.1-1.5,0.5-3,1.2-4.4v1.5l0,7.2v5.7c0,0.6,0.4,1.1,1,1.1c0,0,0,0,0,0c0.6,0,1.1-0.5,1.1-1.1v-8.1h1v8.2
				c0,0.6,0.5,1,1.1,1c0.5,0,1-0.4,1-1v-5.7l0.1-7.2c0-0.7,0-1.3,0-1.7c0.7,1.4,1.2,3,1.3,4.5C10.1,43.3,12.1,43.3,12,42z"/>
		</g>
	</g>
	<g id="standing-frontal-man-silhouette-86" transform="translate(3169.744 1171.545)">
		<g id="Group_10778" transform="translate(0 0)">
			<ellipse id="Ellipse_7804" class="st0" cx="6" cy="31.5" rx="1.9" ry="1.9"/>
			<path id="Path_11278" class="st0" d="M12,42c-0.5-6.1-3.5-7.4-3.5-7.4c-1.9-1-4.1-0.8-5.8,0.5c-1.9,1.8-2.4,4.4-2.7,7
				c-0.2,1.3,1.9,1.3,2.1,0c0.1-1.5,0.5-3,1.2-4.4v1.5l0,7.2v5.7c0,0.6,0.4,1.1,1,1.1c0,0,0,0,0,0c0.6,0,1.1-0.5,1.1-1.1v-8.1h1v8.2
				c0,0.6,0.5,1,1.1,1c0.5,0,1-0.4,1-1v-5.7l0.1-7.2c0-0.7,0-1.3,0-1.7c0.7,1.4,1.2,3,1.3,4.5C10.1,43.3,12.1,43.3,12,42z"/>
		</g>
	</g>
	<g id="standing-frontal-man-silhouette-87" transform="translate(3170.352 1146.545)">
		<g id="Group_10779" transform="translate(0 0)">
			<ellipse id="Ellipse_7805" class="st0" cx="6" cy="31.5" rx="1.9" ry="1.9"/>
			<path id="Path_11279" class="st0" d="M12,42c-0.5-6.1-3.5-7.4-3.5-7.4c-1.9-1-4.1-0.8-5.8,0.5c-1.9,1.8-2.4,4.4-2.7,7
				c-0.2,1.3,1.9,1.3,2.1,0c0.1-1.5,0.5-3,1.2-4.4v1.5l0,7.2v5.7c0,0.6,0.4,1.1,1,1.1c0,0,0,0,0,0c0.6,0,1.1-0.5,1.1-1.1v-8.1h1v8.2
				c0,0.6,0.5,1,1.1,1c0.5,0,1-0.4,1-1v-5.7l0.1-7.2c0-0.7,0-1.3,0-1.7c0.7,1.4,1.2,3,1.3,4.5C10.1,43.3,12.1,43.3,12,42z"/>
		</g>
	</g>
	<g id="standing-frontal-man-silhouette-88" transform="translate(3170.352 1046.545)">
		<g id="Group_10780" transform="translate(0 0)">
			<ellipse id="Ellipse_7806" class="st0" cx="6" cy="31.5" rx="1.9" ry="1.9"/>
			<path id="Path_11280" class="st0" d="M12,42c-0.5-6.1-3.5-7.4-3.5-7.4c-1.9-1-4.1-0.8-5.8,0.5c-1.9,1.8-2.4,4.4-2.7,7
				c-0.2,1.3,1.9,1.3,2.1,0c0.1-1.5,0.5-3,1.2-4.4v1.5l0,7.2v5.7c0,0.6,0.4,1.1,1,1.1c0,0,0,0,0,0c0.6,0,1.1-0.5,1.1-1.1v-8.1h1v8.2
				c0,0.6,0.5,1,1.1,1c0.5,0,1-0.4,1-1v-5.7l0.1-7.2c0-0.7,0-1.3,0-1.7c0.7,1.4,1.2,3,1.3,4.5C10.1,43.3,12.1,43.3,12,42z"/>
		</g>
	</g>
	<g id="standing-frontal-man-silhouette-89" transform="translate(3170.352 1096.545)">
		<g id="Group_10781" transform="translate(0 0)">
			<ellipse id="Ellipse_7807" class="st0" cx="6" cy="31.5" rx="1.9" ry="1.9"/>
			<path id="Path_11281" class="st0" d="M12,42c-0.5-6.1-3.5-7.4-3.5-7.4c-1.9-1-4.1-0.8-5.8,0.5c-1.9,1.8-2.4,4.4-2.7,7
				c-0.2,1.3,1.9,1.3,2.1,0c0.1-1.5,0.5-3,1.2-4.4v1.5l0,7.2v5.7c0,0.6,0.4,1.1,1,1.1c0,0,0,0,0,0c0.6,0,1.1-0.5,1.1-1.1v-8.1h1v8.2
				c0,0.6,0.5,1,1.1,1c0.5,0,1-0.4,1-1v-5.7l0.1-7.2c0-0.7,0-1.3,0-1.7c0.7,1.4,1.2,3,1.3,4.5C10.1,43.3,12.1,43.3,12,42z"/>
		</g>
	</g>
	<g id="standing-frontal-man-silhouette-90" transform="translate(3170.352 996.545)">
		<g id="Group_10782" transform="translate(0 0)">
			<ellipse id="Ellipse_7808" class="st0" cx="6" cy="31.5" rx="1.9" ry="1.9"/>
			<path id="Path_11282" class="st0" d="M12,42c-0.5-6.1-3.5-7.4-3.5-7.4c-1.9-1-4.1-0.8-5.8,0.5c-1.9,1.8-2.4,4.4-2.7,7
				c-0.2,1.3,1.9,1.3,2.1,0c0.1-1.5,0.5-3,1.2-4.4v1.5l0,7.2v5.7c0,0.6,0.4,1.1,1,1.1c0,0,0,0,0,0c0.6,0,1.1-0.5,1.1-1.1v-8.1h1v8.2
				c0,0.6,0.5,1,1.1,1c0.5,0,1-0.4,1-1v-5.7l0.1-7.2c0-0.7,0-1.3,0-1.7c0.7,1.4,1.2,3,1.3,4.5C10.1,43.3,12.1,43.3,12,42z"/>
		</g>
	</g>
	<g id="standing-frontal-man-silhouette-91" transform="translate(3170.352 1121.545)">
		<g id="Group_10783" transform="translate(0 0)">
			<ellipse id="Ellipse_7809" class="st0" cx="6" cy="31.5" rx="1.9" ry="1.9"/>
			<path id="Path_11283" class="st0" d="M12,42c-0.5-6.1-3.5-7.4-3.5-7.4c-1.9-1-4.1-0.8-5.8,0.5c-1.9,1.8-2.4,4.4-2.7,7
				c-0.2,1.3,1.9,1.3,2.1,0c0.1-1.5,0.5-3,1.2-4.4v1.5l0,7.2v5.7c0,0.6,0.4,1.1,1,1.1c0,0,0,0,0,0c0.6,0,1.1-0.5,1.1-1.1v-8.1h1v8.2
				c0,0.6,0.5,1,1.1,1c0.5,0,1-0.4,1-1v-5.7l0.1-7.2c0-0.7,0-1.3,0-1.7c0.7,1.4,1.2,3,1.3,4.5C10.1,43.3,12.1,43.3,12,42z"/>
		</g>
	</g>
	<g id="standing-frontal-man-silhouette-92" transform="translate(3170.352 1021.545)">
		<g id="Group_10784" transform="translate(0 0)">
			<ellipse id="Ellipse_7810" class="st0" cx="6" cy="31.5" rx="1.9" ry="1.9"/>
			<path id="Path_11284" class="st0" d="M12,42c-0.5-6.1-3.5-7.4-3.5-7.4c-1.9-1-4.1-0.8-5.8,0.5c-1.9,1.8-2.4,4.4-2.7,7
				c-0.2,1.3,1.9,1.3,2.1,0c0.1-1.5,0.5-3,1.2-4.4v1.5l0,7.2v5.7c0,0.6,0.4,1.1,1,1.1c0,0,0,0,0,0c0.6,0,1.1-0.5,1.1-1.1v-8.1h1v8.2
				c0,0.6,0.5,1,1.1,1c0.5,0,1-0.4,1-1v-5.7l0.1-7.2c0-0.7,0-1.3,0-1.7c0.7,1.4,1.2,3,1.3,4.5C10.1,43.3,12.1,43.3,12,42z"/>
		</g>
	</g>
	<g id="standing-frontal-man-silhouette-93" transform="translate(3170.352 1071.545)">
		<g id="Group_10785" transform="translate(0 0)">
			<ellipse id="Ellipse_7811" class="st0" cx="6" cy="31.5" rx="1.9" ry="1.9"/>
			<path id="Path_11285" class="st0" d="M12,42c-0.5-6.1-3.5-7.4-3.5-7.4c-1.9-1-4.1-0.8-5.8,0.5c-1.9,1.8-2.4,4.4-2.7,7
				c-0.2,1.3,1.9,1.3,2.1,0c0.1-1.5,0.5-3,1.2-4.4v1.5l0,7.2v5.7c0,0.6,0.4,1.1,1,1.1c0,0,0,0,0,0c0.6,0,1.1-0.5,1.1-1.1v-8.1h1v8.2
				c0,0.6,0.5,1,1.1,1c0.5,0,1-0.4,1-1v-5.7l0.1-7.2c0-0.7,0-1.3,0-1.7c0.7,1.4,1.2,3,1.3,4.5C10.1,43.3,12.1,43.3,12,42z"/>
		</g>
	</g>
	<g id="standing-frontal-man-silhouette-94" transform="translate(3170.352 971.545)">
		<g id="Group_10786" transform="translate(0 0)">
			<ellipse id="Ellipse_7812" class="st0" cx="6" cy="31.5" rx="1.9" ry="1.9"/>
			<path id="Path_11286" class="st0" d="M12,42c-0.5-6.1-3.5-7.4-3.5-7.4c-1.9-1-4.1-0.8-5.8,0.5c-1.9,1.8-2.4,4.4-2.7,7
				c-0.2,1.3,1.9,1.3,2.1,0c0.1-1.5,0.5-3,1.2-4.4v1.5l0,7.2v5.7c0,0.6,0.4,1.1,1,1.1c0,0,0,0,0,0c0.6,0,1.1-0.5,1.1-1.1v-8.1h1v8.2
				c0,0.6,0.5,1,1.1,1c0.5,0,1-0.4,1-1v-5.7l0.1-7.2c0-0.7,0-1.3,0-1.7c0.7,1.4,1.2,3,1.3,4.5C10.1,43.3,12.1,43.3,12,42z"/>
		</g>
	</g>
	<g id="standing-frontal-man-silhouette-95" transform="translate(3224.548 1346.545)">
		<g id="Group_10787" transform="translate(0 0)">
			<ellipse id="Ellipse_7813" class="st0" cx="6" cy="31.5" rx="1.9" ry="1.9"/>
			<path id="Path_11287" class="st0" d="M12,42c-0.5-6.1-3.5-7.4-3.5-7.4c-1.9-1-4.1-0.8-5.8,0.5c-1.9,1.8-2.4,4.4-2.7,7
				c-0.2,1.3,1.9,1.3,2.1,0c0.1-1.5,0.5-3,1.2-4.4v1.5l0,7.2v5.7c0,0.6,0.4,1.1,1,1.1c0,0,0,0,0,0c0.6,0,1.1-0.5,1.1-1.1v-8.1h1v8.2
				c0,0.6,0.5,1,1.1,1c0.5,0,1-0.4,1-1v-5.7l0.1-7.2c0-0.7,0-1.3,0-1.7c0.7,1.4,1.2,3,1.3,4.5C10.1,43.3,12.1,43.3,12,42z"/>
		</g>
	</g>
	<g id="standing-frontal-man-silhouette-96" transform="translate(3224.548 1246.545)">
		<g id="Group_10788" transform="translate(0 0)">
			<ellipse id="Ellipse_7814" class="st0" cx="6" cy="31.5" rx="1.9" ry="1.9"/>
			<path id="Path_11288" class="st0" d="M12,42c-0.5-6.1-3.5-7.4-3.5-7.4c-1.9-1-4.1-0.8-5.8,0.5c-1.9,1.8-2.4,4.4-2.7,7
				c-0.2,1.3,1.9,1.3,2.1,0c0.1-1.5,0.5-3,1.2-4.4v1.5l0,7.2v5.7c0,0.6,0.4,1.1,1,1.1c0,0,0,0,0,0c0.6,0,1.1-0.5,1.1-1.1v-8.1h1v8.2
				c0,0.6,0.5,1,1.1,1c0.5,0,1-0.4,1-1v-5.7l0.1-7.2c0-0.7,0-1.3,0-1.7c0.7,1.4,1.2,3,1.3,4.5C10.1,43.3,12.1,43.3,12,42z"/>
		</g>
	</g>
	<g id="standing-frontal-man-silhouette-97" transform="translate(3224.548 1296.545)">
		<g id="Group_10789" transform="translate(0 0)">
			<ellipse id="Ellipse_7815" class="st0" cx="6" cy="31.5" rx="1.9" ry="1.9"/>
			<path id="Path_11289" class="st0" d="M12,42c-0.5-6.1-3.5-7.4-3.5-7.4c-1.9-1-4.1-0.8-5.8,0.5c-1.9,1.8-2.4,4.4-2.7,7
				c-0.2,1.3,1.9,1.3,2.1,0c0.1-1.5,0.5-3,1.2-4.4v1.5l0,7.2v5.7c0,0.6,0.4,1.1,1,1.1c0,0,0,0,0,0c0.6,0,1.1-0.5,1.1-1.1v-8.1h1v8.2
				c0,0.6,0.5,1,1.1,1c0.5,0,1-0.4,1-1v-5.7l0.1-7.2c0-0.7,0-1.3,0-1.7c0.7,1.4,1.2,3,1.3,4.5C10.1,43.3,12.1,43.3,12,42z"/>
		</g>
	</g>
	<g id="standing-frontal-man-silhouette-98" transform="translate(3224.548 1196.545)">
		<g id="Group_10790" transform="translate(0 0)">
			<ellipse id="Ellipse_7816" class="st0" cx="6" cy="31.5" rx="1.9" ry="1.9"/>
			<path id="Path_11290" class="st0" d="M12,42c-0.5-6.1-3.5-7.4-3.5-7.4c-1.9-1-4.1-0.8-5.8,0.5c-1.9,1.8-2.4,4.4-2.7,7
				c-0.2,1.3,1.9,1.3,2.1,0c0.1-1.5,0.5-3,1.2-4.4v1.5l0,7.2v5.7c0,0.6,0.4,1.1,1,1.1c0,0,0,0,0,0c0.6,0,1.1-0.5,1.1-1.1v-8.1h1v8.2
				c0,0.6,0.5,1,1.1,1c0.5,0,1-0.4,1-1v-5.7l0.1-7.2c0-0.7,0-1.3,0-1.7c0.7,1.4,1.2,3,1.3,4.5C10.1,43.3,12.1,43.3,12,42z"/>
		</g>
	</g>
	<g id="standing-frontal-man-silhouette-99" transform="translate(3224.548 1321.545)">
		<g id="Group_10791" transform="translate(0 0)">
			<ellipse id="Ellipse_7817" class="st0" cx="6" cy="31.5" rx="1.9" ry="1.9"/>
			<path id="Path_11291" class="st0" d="M12,42c-0.5-6.1-3.5-7.4-3.5-7.4c-1.9-1-4.1-0.8-5.8,0.5c-1.9,1.8-2.4,4.4-2.7,7
				c-0.2,1.3,1.9,1.3,2.1,0c0.1-1.5,0.5-3,1.2-4.4v1.5l0,7.2v5.7c0,0.6,0.4,1.1,1,1.1c0,0,0,0,0,0c0.6,0,1.1-0.5,1.1-1.1v-8.1h1v8.2
				c0,0.6,0.5,1,1.1,1c0.5,0,1-0.4,1-1v-5.7l0.1-7.2c0-0.7,0-1.3,0-1.7c0.7,1.4,1.2,3,1.3,4.5C10.1,43.3,12.1,43.3,12,42z"/>
		</g>
	</g>
	<g id="standing-frontal-man-silhouette-100" transform="translate(3224.548 1221.545)">
		<g id="Group_10792" transform="translate(0 0)">
			<ellipse id="Ellipse_7818" class="st0" cx="6" cy="31.5" rx="1.9" ry="1.9"/>
			<path id="Path_11292" class="st0" d="M12,42c-0.5-6.1-3.5-7.4-3.5-7.4c-1.9-1-4.1-0.8-5.8,0.5c-1.9,1.8-2.4,4.4-2.7,7
				c-0.2,1.3,1.9,1.3,2.1,0c0.1-1.5,0.5-3,1.2-4.4v1.5l0,7.2v5.7c0,0.6,0.4,1.1,1,1.1c0,0,0,0,0,0c0.6,0,1.1-0.5,1.1-1.1v-8.1h1v8.2
				c0,0.6,0.5,1,1.1,1c0.5,0,1-0.4,1-1v-5.7l0.1-7.2c0-0.7,0-1.3,0-1.7c0.7,1.4,1.2,3,1.3,4.5C10.1,43.3,12.1,43.3,12,42z"/>
		</g>
	</g>
	<g id="standing-frontal-man-silhouette-101" transform="translate(3224.548 1271.545)">
		<g id="Group_10793" transform="translate(0 0)">
			<ellipse id="Ellipse_7819" class="st0" cx="6" cy="31.5" rx="1.9" ry="1.9"/>
			<path id="Path_11293" class="st0" d="M12,42c-0.5-6.1-3.5-7.4-3.5-7.4c-1.9-1-4.1-0.8-5.8,0.5c-1.9,1.8-2.4,4.4-2.7,7
				c-0.2,1.3,1.9,1.3,2.1,0c0.1-1.5,0.5-3,1.2-4.4v1.5l0,7.2v5.7c0,0.6,0.4,1.1,1,1.1c0,0,0,0,0,0c0.6,0,1.1-0.5,1.1-1.1v-8.1h1v8.2
				c0,0.6,0.5,1,1.1,1c0.5,0,1-0.4,1-1v-5.7l0.1-7.2c0-0.7,0-1.3,0-1.7c0.7,1.4,1.2,3,1.3,4.5C10.1,43.3,12.1,43.3,12,42z"/>
		</g>
	</g>
	<g id="standing-frontal-man-silhouette-102" transform="translate(3224.548 1171.545)">
		<g id="Group_10794" transform="translate(0 0)">
			<ellipse id="Ellipse_7820" class="st0" cx="6" cy="31.5" rx="1.9" ry="1.9"/>
			<path id="Path_11294" class="st0" d="M12,42c-0.5-6.1-3.5-7.4-3.5-7.4c-1.9-1-4.1-0.8-5.8,0.5c-1.9,1.8-2.4,4.4-2.7,7
				c-0.2,1.3,1.9,1.3,2.1,0c0.1-1.5,0.5-3,1.2-4.4v1.5l0,7.2v5.7c0,0.6,0.4,1.1,1,1.1c0,0,0,0,0,0c0.6,0,1.1-0.5,1.1-1.1v-8.1h1v8.2
				c0,0.6,0.5,1,1.1,1c0.5,0,1-0.4,1-1v-5.7l0.1-7.2c0-0.7,0-1.3,0-1.7c0.7,1.4,1.2,3,1.3,4.5C10.1,43.3,12.1,43.3,12,42z"/>
		</g>
	</g>
	<g id="standing-frontal-man-silhouette-103" transform="translate(3225.155 1146.545)">
		<g id="Group_10795" transform="translate(0 0)">
			<ellipse id="Ellipse_7821" class="st0" cx="6" cy="31.5" rx="1.9" ry="1.9"/>
			<path id="Path_11295" class="st0" d="M12,42c-0.5-6.1-3.5-7.4-3.5-7.4c-1.9-1-4.1-0.8-5.8,0.5c-1.9,1.8-2.4,4.4-2.7,7
				c-0.2,1.3,1.9,1.3,2.1,0c0.1-1.5,0.5-3,1.2-4.4v1.5l0,7.2v5.7c0,0.6,0.4,1.1,1,1.1c0,0,0,0,0,0c0.6,0,1.1-0.5,1.1-1.1v-8.1h1v8.2
				c0,0.6,0.5,1,1.1,1c0.5,0,1-0.4,1-1v-5.7l0.1-7.2c0-0.7,0-1.3,0-1.7c0.7,1.4,1.2,3,1.3,4.5C10.1,43.3,12.1,43.3,12,42z"/>
		</g>
	</g>
	<g id="standing-frontal-man-silhouette-104" transform="translate(3225.155 1046.545)">
		<g id="Group_10796" transform="translate(0 0)">
			<ellipse id="Ellipse_7822" class="st0" cx="6" cy="31.5" rx="1.9" ry="1.9"/>
			<path id="Path_11296" class="st0" d="M12,42c-0.5-6.1-3.5-7.4-3.5-7.4c-1.9-1-4.1-0.8-5.8,0.5c-1.9,1.8-2.4,4.4-2.7,7
				c-0.2,1.3,1.9,1.3,2.1,0c0.1-1.5,0.5-3,1.2-4.4v1.5l0,7.2v5.7c0,0.6,0.4,1.1,1,1.1c0,0,0,0,0,0c0.6,0,1.1-0.5,1.1-1.1v-8.1h1v8.2
				c0,0.6,0.5,1,1.1,1c0.5,0,1-0.4,1-1v-5.7l0.1-7.2c0-0.7,0-1.3,0-1.7c0.7,1.4,1.2,3,1.3,4.5C10.1,43.3,12.1,43.3,12,42z"/>
		</g>
	</g>
	<g id="standing-frontal-man-silhouette-105" transform="translate(3225.155 1096.545)">
		<g id="Group_10797" transform="translate(0 0)">
			<ellipse id="Ellipse_7823" class="st0" cx="6" cy="31.5" rx="1.9" ry="1.9"/>
			<path id="Path_11297" class="st0" d="M12,42c-0.5-6.1-3.5-7.4-3.5-7.4c-1.9-1-4.1-0.8-5.8,0.5c-1.9,1.8-2.4,4.4-2.7,7
				c-0.2,1.3,1.9,1.3,2.1,0c0.1-1.5,0.5-3,1.2-4.4v1.5l0,7.2v5.7c0,0.6,0.4,1.1,1,1.1c0,0,0,0,0,0c0.6,0,1.1-0.5,1.1-1.1v-8.1h1v8.2
				c0,0.6,0.5,1,1.1,1c0.5,0,1-0.4,1-1v-5.7l0.1-7.2c0-0.7,0-1.3,0-1.7c0.7,1.4,1.2,3,1.3,4.5C10.1,43.3,12.1,43.3,12,42z"/>
		</g>
	</g>
	<g id="standing-frontal-man-silhouette-106" transform="translate(3225.155 996.545)">
		<g id="Group_10798" transform="translate(0 0)">
			<ellipse id="Ellipse_7824" class="st0" cx="6" cy="31.5" rx="1.9" ry="1.9"/>
			<path id="Path_11298" class="st0" d="M12,42c-0.5-6.1-3.5-7.4-3.5-7.4c-1.9-1-4.1-0.8-5.8,0.5c-1.9,1.8-2.4,4.4-2.7,7
				c-0.2,1.3,1.9,1.3,2.1,0c0.1-1.5,0.5-3,1.2-4.4v1.5l0,7.2v5.7c0,0.6,0.4,1.1,1,1.1c0,0,0,0,0,0c0.6,0,1.1-0.5,1.1-1.1v-8.1h1v8.2
				c0,0.6,0.5,1,1.1,1c0.5,0,1-0.4,1-1v-5.7l0.1-7.2c0-0.7,0-1.3,0-1.7c0.7,1.4,1.2,3,1.3,4.5C10.1,43.3,12.1,43.3,12,42z"/>
		</g>
	</g>
	<g id="standing-frontal-man-silhouette-107" transform="translate(3225.155 1121.545)">
		<g id="Group_10799" transform="translate(0 0)">
			<ellipse id="Ellipse_7825" class="st0" cx="6" cy="31.5" rx="1.9" ry="1.9"/>
			<path id="Path_11299" class="st0" d="M12,42c-0.5-6.1-3.5-7.4-3.5-7.4c-1.9-1-4.1-0.8-5.8,0.5c-1.9,1.8-2.4,4.4-2.7,7
				c-0.2,1.3,1.9,1.3,2.1,0c0.1-1.5,0.5-3,1.2-4.4v1.5l0,7.2v5.7c0,0.6,0.4,1.1,1,1.1c0,0,0,0,0,0c0.6,0,1.1-0.5,1.1-1.1v-8.1h1v8.2
				c0,0.6,0.5,1,1.1,1c0.5,0,1-0.4,1-1v-5.7l0.1-7.2c0-0.7,0-1.3,0-1.7c0.7,1.4,1.2,3,1.3,4.5C10.1,43.3,12.1,43.3,12,42z"/>
		</g>
	</g>
	<g id="standing-frontal-man-silhouette-108" transform="translate(3225.155 1021.545)">
		<g id="Group_10800" transform="translate(0 0)">
			<ellipse id="Ellipse_7826" class="st0" cx="6" cy="31.5" rx="1.9" ry="1.9"/>
			<path id="Path_11300" class="st0" d="M12,42c-0.5-6.1-3.5-7.4-3.5-7.4c-1.9-1-4.1-0.8-5.8,0.5c-1.9,1.8-2.4,4.4-2.7,7
				c-0.2,1.3,1.9,1.3,2.1,0c0.1-1.5,0.5-3,1.2-4.4v1.5l0,7.2v5.7c0,0.6,0.4,1.1,1,1.1c0,0,0,0,0,0c0.6,0,1.1-0.5,1.1-1.1v-8.1h1v8.2
				c0,0.6,0.5,1,1.1,1c0.5,0,1-0.4,1-1v-5.7l0.1-7.2c0-0.7,0-1.3,0-1.7c0.7,1.4,1.2,3,1.3,4.5C10.1,43.3,12.1,43.3,12,42z"/>
		</g>
	</g>
	<g id="standing-frontal-man-silhouette-109" transform="translate(3225.155 1071.545)">
		<g id="Group_10801" transform="translate(0 0)">
			<ellipse id="Ellipse_7827" class="st0" cx="6" cy="31.5" rx="1.9" ry="1.9"/>
			<path id="Path_11301" class="st0" d="M12,42c-0.5-6.1-3.5-7.4-3.5-7.4c-1.9-1-4.1-0.8-5.8,0.5c-1.9,1.8-2.4,4.4-2.7,7
				c-0.2,1.3,1.9,1.3,2.1,0c0.1-1.5,0.5-3,1.2-4.4v1.5l0,7.2v5.7c0,0.6,0.4,1.1,1,1.1c0,0,0,0,0,0c0.6,0,1.1-0.5,1.1-1.1v-8.1h1v8.2
				c0,0.6,0.5,1,1.1,1c0.5,0,1-0.4,1-1v-5.7l0.1-7.2c0-0.7,0-1.3,0-1.7c0.7,1.4,1.2,3,1.3,4.5C10.1,43.3,12.1,43.3,12,42z"/>
		</g>
	</g>
	<g id="standing-frontal-man-silhouette-110" transform="translate(3225.155 971.545)">
		<g id="Group_10802" transform="translate(0 0)">
			<ellipse id="Ellipse_7828" class="st0" cx="6" cy="31.5" rx="1.9" ry="1.9"/>
			<path id="Path_11302" class="st0" d="M12,42c-0.5-6.1-3.5-7.4-3.5-7.4c-1.9-1-4.1-0.8-5.8,0.5c-1.9,1.8-2.4,4.4-2.7,7
				c-0.2,1.3,1.9,1.3,2.1,0c0.1-1.5,0.5-3,1.2-4.4v1.5l0,7.2v5.7c0,0.6,0.4,1.1,1,1.1c0,0,0,0,0,0c0.6,0,1.1-0.5,1.1-1.1v-8.1h1v8.2
				c0,0.6,0.5,1,1.1,1c0.5,0,1-0.4,1-1v-5.7l0.1-7.2c0-0.7,0-1.3,0-1.7c0.7,1.4,1.2,3,1.3,4.5C10.1,43.3,12.1,43.3,12,42z"/>
		</g>
	</g>
	<g id="standing-frontal-man-silhouette-111" transform="translate(3170.959 946.545)">
		<g id="Group_10803" transform="translate(0 0)">
			<ellipse id="Ellipse_7829" class="st0" cx="6" cy="31.5" rx="1.9" ry="1.9"/>
			<path id="Path_11303" class="st0" d="M12,42c-0.5-6.1-3.5-7.4-3.5-7.4c-1.9-1-4.1-0.8-5.8,0.5c-1.9,1.8-2.4,4.4-2.7,7
				c-0.2,1.3,1.9,1.3,2.1,0c0.1-1.5,0.5-3,1.2-4.4v1.5l0,7.2v5.7c0,0.6,0.4,1.1,1,1.1c0,0,0,0,0,0c0.6,0,1.1-0.5,1.1-1.1v-8.1h1v8.2
				c0,0.6,0.5,1,1.1,1c0.5,0,1-0.4,1-1v-5.7l0.1-7.2c0-0.7,0-1.3,0-1.7c0.7,1.4,1.2,3,1.3,4.5C10.1,43.3,12.1,43.3,12,42z"/>
		</g>
	</g>
	<g id="standing-frontal-man-silhouette-112" transform="translate(3225.959 946.545)">
		<g id="Group_10803-2" transform="translate(0 0)">
			<ellipse id="Ellipse_7829-2" class="st0" cx="6" cy="31.5" rx="1.9" ry="1.9"/>
			<path id="Path_11303-2" class="st0" d="M12,42c-0.5-6.1-3.5-7.4-3.5-7.4c-1.9-1-4.1-0.8-5.8,0.5c-1.9,1.8-2.4,4.4-2.7,7
				c-0.2,1.3,1.9,1.3,2.1,0c0.1-1.5,0.5-3,1.2-4.4v1.5l0,7.2v5.7c0,0.6,0.4,1.1,1,1.1c0,0,0,0,0,0c0.6,0,1.1-0.5,1.1-1.1v-8.1h1v8.2
				c0,0.6,0.5,1,1.1,1c0.5,0,1-0.4,1-1v-5.7l0.1-7.2c0-0.7,0-1.3,0-1.7c0.7,1.4,1.2,3,1.3,4.5C10.1,43.3,12.1,43.3,12,42z"/>
		</g>
	</g>
	<g id="standing-frontal-man-silhouette-113" transform="translate(3170.959 896.545)">
		<g id="Group_10805" transform="translate(0 0)">
			<ellipse id="Ellipse_7831" class="st0" cx="6" cy="31.5" rx="1.9" ry="1.9"/>
			<path id="Path_11305" class="st0" d="M12,42c-0.5-6.1-3.5-7.4-3.5-7.4c-1.9-1-4.1-0.8-5.8,0.5c-1.9,1.8-2.4,4.4-2.7,7
				c-0.2,1.3,1.9,1.3,2.1,0c0.1-1.5,0.5-3,1.2-4.4v1.5l0,7.2v5.7c0,0.6,0.4,1.1,1,1.1c0,0,0,0,0,0c0.6,0,1.1-0.5,1.1-1.1v-8.1h1v8.2
				c0,0.6,0.5,1,1.1,1c0.5,0,1-0.4,1-1v-5.7l0.1-7.2c0-0.7,0-1.3,0-1.7c0.7,1.4,1.2,3,1.3,4.5C10.1,43.3,12.1,43.3,12,42z"/>
		</g>
	</g>
	<g id="standing-frontal-man-silhouette-114" transform="translate(3225.959 896.545)">
		<g id="Group_10805-2" transform="translate(0 0)">
			<ellipse id="Ellipse_7831-2" class="st0" cx="6" cy="31.5" rx="1.9" ry="1.9"/>
			<path id="Path_11305-2" class="st0" d="M12,42c-0.5-6.1-3.5-7.4-3.5-7.4c-1.9-1-4.1-0.8-5.8,0.5c-1.9,1.8-2.4,4.4-2.7,7
				c-0.2,1.3,1.9,1.3,2.1,0c0.1-1.5,0.5-3,1.2-4.4v1.5l0,7.2v5.7c0,0.6,0.4,1.1,1,1.1c0,0,0,0,0,0c0.6,0,1.1-0.5,1.1-1.1v-8.1h1v8.2
				c0,0.6,0.5,1,1.1,1c0.5,0,1-0.4,1-1v-5.7l0.1-7.2c0-0.7,0-1.3,0-1.7c0.7,1.4,1.2,3,1.3,4.5C10.1,43.3,12.1,43.3,12,42z"/>
		</g>
	</g>
	<g id="standing-frontal-man-silhouette-115" transform="translate(3170.959 921.545)">
		<g id="Group_10807" transform="translate(0 0)">
			<ellipse id="Ellipse_7833" class="st0" cx="6" cy="31.5" rx="1.9" ry="1.9"/>
			<path id="Path_11307" class="st0" d="M12,42c-0.5-6.1-3.5-7.4-3.5-7.4c-1.9-1-4.1-0.8-5.8,0.5c-1.9,1.8-2.4,4.4-2.7,7
				c-0.2,1.3,1.9,1.3,2.1,0c0.1-1.5,0.5-3,1.2-4.4v1.5l0,7.2v5.7c0,0.6,0.4,1.1,1,1.1c0,0,0,0,0,0c0.6,0,1.1-0.5,1.1-1.1v-8.1h1v8.2
				c0,0.6,0.5,1,1.1,1c0.5,0,1-0.4,1-1v-5.7l0.1-7.2c0-0.7,0-1.3,0-1.7c0.7,1.4,1.2,3,1.3,4.5C10.1,43.3,12.1,43.3,12,42z"/>
		</g>
	</g>
	<g id="standing-frontal-man-silhouette-116" transform="translate(3225.959 921.545)">
		<g id="Group_10807-2" transform="translate(0 0)">
			<ellipse id="Ellipse_7833-2" class="st0" cx="6" cy="31.5" rx="1.9" ry="1.9"/>
			<path id="Path_11307-2" class="st0" d="M12,42c-0.5-6.1-3.5-7.4-3.5-7.4c-1.9-1-4.1-0.8-5.8,0.5c-1.9,1.8-2.4,4.4-2.7,7
				c-0.2,1.3,1.9,1.3,2.1,0c0.1-1.5,0.5-3,1.2-4.4v1.5l0,7.2v5.7c0,0.6,0.4,1.1,1,1.1c0,0,0,0,0,0c0.6,0,1.1-0.5,1.1-1.1v-8.1h1v8.2
				c0,0.6,0.5,1,1.1,1c0.5,0,1-0.4,1-1v-5.7l0.1-7.2c0-0.7,0-1.3,0-1.7c0.7,1.4,1.2,3,1.3,4.5C10.1,43.3,12.1,43.3,12,42z"/>
		</g>
	</g>
	<g id="standing-frontal-man-silhouette-117" transform="translate(3170.959 871.545)">
		<g id="Group_10809" transform="translate(0 0)">
			<ellipse id="Ellipse_7835" class="st0" cx="6" cy="31.5" rx="1.9" ry="1.9"/>
			<path id="Path_11309" class="st0" d="M12,42c-0.5-6.1-3.5-7.4-3.5-7.4c-1.9-1-4.1-0.8-5.8,0.5c-1.9,1.8-2.4,4.4-2.7,7
				c-0.2,1.3,1.9,1.3,2.1,0c0.1-1.5,0.5-3,1.2-4.4v1.5l0,7.2v5.7c0,0.6,0.4,1.1,1,1.1c0,0,0,0,0,0c0.6,0,1.1-0.5,1.1-1.1v-8.1h1v8.2
				c0,0.6,0.5,1,1.1,1c0.5,0,1-0.4,1-1v-5.7l0.1-7.2c0-0.7,0-1.3,0-1.7c0.7,1.4,1.2,3,1.3,4.5C10.1,43.3,12.1,43.3,12,42z"/>
		</g>
	</g>
	<g id="standing-frontal-man-silhouette-118" transform="translate(3197.146 1346.545)">
		<g id="Group_10810" transform="translate(0 0)">
			<ellipse id="Ellipse_7836" class="st0" cx="6" cy="31.5" rx="1.9" ry="1.9"/>
			<path id="Path_11310" class="st0" d="M12,42c-0.5-6.1-3.5-7.4-3.5-7.4c-1.9-1-4.1-0.8-5.8,0.5c-1.9,1.8-2.4,4.4-2.7,7
				c-0.2,1.3,1.9,1.3,2.1,0c0.1-1.5,0.5-3,1.2-4.4v1.5l0,7.2v5.7c0,0.6,0.4,1.1,1,1.1c0,0,0,0,0,0c0.6,0,1.1-0.5,1.1-1.1v-8.1h1v8.2
				c0,0.6,0.5,1,1.1,1c0.5,0,1-0.4,1-1v-5.7l0.1-7.2c0-0.7,0-1.3,0-1.7c0.7,1.4,1.2,3,1.3,4.5C10.1,43.3,12.1,43.3,12,42z"/>
		</g>
	</g>
	<g id="standing-frontal-man-silhouette-119" transform="translate(3197.146 1246.545)">
		<g id="Group_10811" transform="translate(0 0)">
			<ellipse id="Ellipse_7837" class="st0" cx="6" cy="31.5" rx="1.9" ry="1.9"/>
			<path id="Path_11311" class="st0" d="M12,42c-0.5-6.1-3.5-7.4-3.5-7.4c-1.9-1-4.1-0.8-5.8,0.5c-1.9,1.8-2.4,4.4-2.7,7
				c-0.2,1.3,1.9,1.3,2.1,0c0.1-1.5,0.5-3,1.2-4.4v1.5l0,7.2v5.7c0,0.6,0.4,1.1,1,1.1c0,0,0,0,0,0c0.6,0,1.1-0.5,1.1-1.1v-8.1h1v8.2
				c0,0.6,0.5,1,1.1,1c0.5,0,1-0.4,1-1v-5.7l0.1-7.2c0-0.7,0-1.3,0-1.7c0.7,1.4,1.2,3,1.3,4.5C10.1,43.3,12.1,43.3,12,42z"/>
		</g>
	</g>
	<g id="standing-frontal-man-silhouette-120" transform="translate(3197.146 1296.545)">
		<g id="Group_10812" transform="translate(0 0)">
			<ellipse id="Ellipse_7838" class="st0" cx="6" cy="31.5" rx="1.9" ry="1.9"/>
			<path id="Path_11312" class="st0" d="M12,42c-0.5-6.1-3.5-7.4-3.5-7.4c-1.9-1-4.1-0.8-5.8,0.5c-1.9,1.8-2.4,4.4-2.7,7
				c-0.2,1.3,1.9,1.3,2.1,0c0.1-1.5,0.5-3,1.2-4.4v1.5l0,7.2v5.7c0,0.6,0.4,1.1,1,1.1c0,0,0,0,0,0c0.6,0,1.1-0.5,1.1-1.1v-8.1h1v8.2
				c0,0.6,0.5,1,1.1,1c0.5,0,1-0.4,1-1v-5.7l0.1-7.2c0-0.7,0-1.3,0-1.7c0.7,1.4,1.2,3,1.3,4.5C10.1,43.3,12.1,43.3,12,42z"/>
		</g>
	</g>
	<g id="standing-frontal-man-silhouette-121" transform="translate(3197.146 1196.545)">
		<g id="Group_10813" transform="translate(0 0)">
			<ellipse id="Ellipse_7839" class="st0" cx="6" cy="31.5" rx="1.9" ry="1.9"/>
			<path id="Path_11313" class="st0" d="M12,42c-0.5-6.1-3.5-7.4-3.5-7.4c-1.9-1-4.1-0.8-5.8,0.5c-1.9,1.8-2.4,4.4-2.7,7
				c-0.2,1.3,1.9,1.3,2.1,0c0.1-1.5,0.5-3,1.2-4.4v1.5l0,7.2v5.7c0,0.6,0.4,1.1,1,1.1c0,0,0,0,0,0c0.6,0,1.1-0.5,1.1-1.1v-8.1h1v8.2
				c0,0.6,0.5,1,1.1,1c0.5,0,1-0.4,1-1v-5.7l0.1-7.2c0-0.7,0-1.3,0-1.7c0.7,1.4,1.2,3,1.3,4.5C10.1,43.3,12.1,43.3,12,42z"/>
		</g>
	</g>
	<g id="standing-frontal-man-silhouette-122" transform="translate(3197.146 1321.545)">
		<g id="Group_10814" transform="translate(0 0)">
			<ellipse id="Ellipse_7840" class="st0" cx="6" cy="31.5" rx="1.9" ry="1.9"/>
			<path id="Path_11314" class="st0" d="M12,42c-0.5-6.1-3.5-7.4-3.5-7.4c-1.9-1-4.1-0.8-5.8,0.5c-1.9,1.8-2.4,4.4-2.7,7
				c-0.2,1.3,1.9,1.3,2.1,0c0.1-1.5,0.5-3,1.2-4.4v1.5l0,7.2v5.7c0,0.6,0.4,1.1,1,1.1c0,0,0,0,0,0c0.6,0,1.1-0.5,1.1-1.1v-8.1h1v8.2
				c0,0.6,0.5,1,1.1,1c0.5,0,1-0.4,1-1v-5.7l0.1-7.2c0-0.7,0-1.3,0-1.7c0.7,1.4,1.2,3,1.3,4.5C10.1,43.3,12.1,43.3,12,42z"/>
		</g>
	</g>
	<g id="standing-frontal-man-silhouette-123" transform="translate(3197.146 1221.545)">
		<g id="Group_10815" transform="translate(0 0)">
			<ellipse id="Ellipse_7841" class="st0" cx="6" cy="31.5" rx="1.9" ry="1.9"/>
			<path id="Path_11315" class="st0" d="M12,42c-0.5-6.1-3.5-7.4-3.5-7.4c-1.9-1-4.1-0.8-5.8,0.5c-1.9,1.8-2.4,4.4-2.7,7
				c-0.2,1.3,1.9,1.3,2.1,0c0.1-1.5,0.5-3,1.2-4.4v1.5l0,7.2v5.7c0,0.6,0.4,1.1,1,1.1c0,0,0,0,0,0c0.6,0,1.1-0.5,1.1-1.1v-8.1h1v8.2
				c0,0.6,0.5,1,1.1,1c0.5,0,1-0.4,1-1v-5.7l0.1-7.2c0-0.7,0-1.3,0-1.7c0.7,1.4,1.2,3,1.3,4.5C10.1,43.3,12.1,43.3,12,42z"/>
		</g>
	</g>
	<g id="standing-frontal-man-silhouette-124" transform="translate(3197.146 1271.545)">
		<g id="Group_10816" transform="translate(0 0)">
			<ellipse id="Ellipse_7842" class="st0" cx="6" cy="31.5" rx="1.9" ry="1.9"/>
			<path id="Path_11316" class="st0" d="M12,42c-0.5-6.1-3.5-7.4-3.5-7.4c-1.9-1-4.1-0.8-5.8,0.5c-1.9,1.8-2.4,4.4-2.7,7
				c-0.2,1.3,1.9,1.3,2.1,0c0.1-1.5,0.5-3,1.2-4.4v1.5l0,7.2v5.7c0,0.6,0.4,1.1,1,1.1c0,0,0,0,0,0c0.6,0,1.1-0.5,1.1-1.1v-8.1h1v8.2
				c0,0.6,0.5,1,1.1,1c0.5,0,1-0.4,1-1v-5.7l0.1-7.2c0-0.7,0-1.3,0-1.7c0.7,1.4,1.2,3,1.3,4.5C10.1,43.3,12.1,43.3,12,42z"/>
		</g>
	</g>
	<g id="standing-frontal-man-silhouette-125" transform="translate(3197.146 1171.545)">
		<g id="Group_10817" transform="translate(0 0)">
			<ellipse id="Ellipse_7843" class="st0" cx="6" cy="31.5" rx="1.9" ry="1.9"/>
			<path id="Path_11317" class="st0" d="M12,42c-0.5-6.1-3.5-7.4-3.5-7.4c-1.9-1-4.1-0.8-5.8,0.5c-1.9,1.8-2.4,4.4-2.7,7
				c-0.2,1.3,1.9,1.3,2.1,0c0.1-1.5,0.5-3,1.2-4.4v1.5l0,7.2v5.7c0,0.6,0.4,1.1,1,1.1c0,0,0,0,0,0c0.6,0,1.1-0.5,1.1-1.1v-8.1h1v8.2
				c0,0.6,0.5,1,1.1,1c0.5,0,1-0.4,1-1v-5.7l0.1-7.2c0-0.7,0-1.3,0-1.7c0.7,1.4,1.2,3,1.3,4.5C10.1,43.3,12.1,43.3,12,42z"/>
		</g>
	</g>
	<g id="standing-frontal-man-silhouette-126" transform="translate(3197.754 1146.545)">
		<g id="Group_10818" transform="translate(0 0)">
			<ellipse id="Ellipse_7844" class="st0" cx="6" cy="31.5" rx="1.9" ry="1.9"/>
			<path id="Path_11318" class="st0" d="M12,42c-0.5-6.1-3.5-7.4-3.5-7.4c-1.9-1-4.1-0.8-5.8,0.5c-1.9,1.8-2.4,4.4-2.7,7
				c-0.2,1.3,1.9,1.3,2.1,0c0.1-1.5,0.5-3,1.2-4.4v1.5l0,7.2v5.7c0,0.6,0.4,1.1,1,1.1c0,0,0,0,0,0c0.6,0,1.1-0.5,1.1-1.1v-8.1h1v8.2
				c0,0.6,0.5,1,1.1,1c0.5,0,1-0.4,1-1v-5.7l0.1-7.2c0-0.7,0-1.3,0-1.7c0.7,1.4,1.2,3,1.3,4.5C10.1,43.3,12.1,43.3,12,42z"/>
		</g>
	</g>
	<g id="standing-frontal-man-silhouette-127" transform="translate(3197.754 1046.545)">
		<g id="Group_10819" transform="translate(0 0)">
			<ellipse id="Ellipse_7845" class="st0" cx="6" cy="31.5" rx="1.9" ry="1.9"/>
			<path id="Path_11319" class="st0" d="M12,42c-0.5-6.1-3.5-7.4-3.5-7.4c-1.9-1-4.1-0.8-5.8,0.5c-1.9,1.8-2.4,4.4-2.7,7
				c-0.2,1.3,1.9,1.3,2.1,0c0.1-1.5,0.5-3,1.2-4.4v1.5l0,7.2v5.7c0,0.6,0.4,1.1,1,1.1c0,0,0,0,0,0c0.6,0,1.1-0.5,1.1-1.1v-8.1h1v8.2
				c0,0.6,0.5,1,1.1,1c0.5,0,1-0.4,1-1v-5.7l0.1-7.2c0-0.7,0-1.3,0-1.7c0.7,1.4,1.2,3,1.3,4.5C10.1,43.3,12.1,43.3,12,42z"/>
		</g>
	</g>
	<g id="standing-frontal-man-silhouette-128" transform="translate(3197.754 1096.545)">
		<g id="Group_10820" transform="translate(0 0)">
			<ellipse id="Ellipse_7846" class="st0" cx="6" cy="31.5" rx="1.9" ry="1.9"/>
			<path id="Path_11320" class="st0" d="M12,42c-0.5-6.1-3.5-7.4-3.5-7.4c-1.9-1-4.1-0.8-5.8,0.5c-1.9,1.8-2.4,4.4-2.7,7
				c-0.2,1.3,1.9,1.3,2.1,0c0.1-1.5,0.5-3,1.2-4.4v1.5l0,7.2v5.7c0,0.6,0.4,1.1,1,1.1c0,0,0,0,0,0c0.6,0,1.1-0.5,1.1-1.1v-8.1h1v8.2
				c0,0.6,0.5,1,1.1,1c0.5,0,1-0.4,1-1v-5.7l0.1-7.2c0-0.7,0-1.3,0-1.7c0.7,1.4,1.2,3,1.3,4.5C10.1,43.3,12.1,43.3,12,42z"/>
		</g>
	</g>
	<g id="standing-frontal-man-silhouette-129" transform="translate(3197.754 996.545)">
		<g id="Group_10821" transform="translate(0 0)">
			<ellipse id="Ellipse_7847" class="st0" cx="6" cy="31.5" rx="1.9" ry="1.9"/>
			<path id="Path_11321" class="st0" d="M12,42c-0.5-6.1-3.5-7.4-3.5-7.4c-1.9-1-4.1-0.8-5.8,0.5c-1.9,1.8-2.4,4.4-2.7,7
				c-0.2,1.3,1.9,1.3,2.1,0c0.1-1.5,0.5-3,1.2-4.4v1.5l0,7.2v5.7c0,0.6,0.4,1.1,1,1.1c0,0,0,0,0,0c0.6,0,1.1-0.5,1.1-1.1v-8.1h1v8.2
				c0,0.6,0.5,1,1.1,1c0.5,0,1-0.4,1-1v-5.7l0.1-7.2c0-0.7,0-1.3,0-1.7c0.7,1.4,1.2,3,1.3,4.5C10.1,43.3,12.1,43.3,12,42z"/>
		</g>
	</g>
	<g id="standing-frontal-man-silhouette-130" transform="translate(3197.754 1121.545)">
		<g id="Group_10822" transform="translate(0 0)">
			<ellipse id="Ellipse_7848" class="st0" cx="6" cy="31.5" rx="1.9" ry="1.9"/>
			<path id="Path_11322" class="st0" d="M12,42c-0.5-6.1-3.5-7.4-3.5-7.4c-1.9-1-4.1-0.8-5.8,0.5c-1.9,1.8-2.4,4.4-2.7,7
				c-0.2,1.3,1.9,1.3,2.1,0c0.1-1.5,0.5-3,1.2-4.4v1.5l0,7.2v5.7c0,0.6,0.4,1.1,1,1.1c0,0,0,0,0,0c0.6,0,1.1-0.5,1.1-1.1v-8.1h1v8.2
				c0,0.6,0.5,1,1.1,1c0.5,0,1-0.4,1-1v-5.7l0.1-7.2c0-0.7,0-1.3,0-1.7c0.7,1.4,1.2,3,1.3,4.5C10.1,43.3,12.1,43.3,12,42z"/>
		</g>
	</g>
	<g id="standing-frontal-man-silhouette-131" transform="translate(3197.754 1021.545)">
		<g id="Group_10823" transform="translate(0 0)">
			<ellipse id="Ellipse_7849" class="st0" cx="6" cy="31.5" rx="1.9" ry="1.9"/>
			<path id="Path_11323" class="st0" d="M12,42c-0.5-6.1-3.5-7.4-3.5-7.4c-1.9-1-4.1-0.8-5.8,0.5c-1.9,1.8-2.4,4.4-2.7,7
				c-0.2,1.3,1.9,1.3,2.1,0c0.1-1.5,0.5-3,1.2-4.4v1.5l0,7.2v5.7c0,0.6,0.4,1.1,1,1.1c0,0,0,0,0,0c0.6,0,1.1-0.5,1.1-1.1v-8.1h1v8.2
				c0,0.6,0.5,1,1.1,1c0.5,0,1-0.4,1-1v-5.7l0.1-7.2c0-0.7,0-1.3,0-1.7c0.7,1.4,1.2,3,1.3,4.5C10.1,43.3,12.1,43.3,12,42z"/>
		</g>
	</g>
	<g id="standing-frontal-man-silhouette-132" transform="translate(3197.754 1071.545)">
		<g id="Group_10824" transform="translate(0 0)">
			<ellipse id="Ellipse_7850" class="st0" cx="6" cy="31.5" rx="1.9" ry="1.9"/>
			<path id="Path_11324" class="st0" d="M12,42c-0.5-6.1-3.5-7.4-3.5-7.4c-1.9-1-4.1-0.8-5.8,0.5c-1.9,1.8-2.4,4.4-2.7,7
				c-0.2,1.3,1.9,1.3,2.1,0c0.1-1.5,0.5-3,1.2-4.4v1.5l0,7.2v5.7c0,0.6,0.4,1.1,1,1.1c0,0,0,0,0,0c0.6,0,1.1-0.5,1.1-1.1v-8.1h1v8.2
				c0,0.6,0.5,1,1.1,1c0.5,0,1-0.4,1-1v-5.7l0.1-7.2c0-0.7,0-1.3,0-1.7c0.7,1.4,1.2,3,1.3,4.5C10.1,43.3,12.1,43.3,12,42z"/>
		</g>
	</g>
	<g id="standing-frontal-man-silhouette-133" transform="translate(3197.754 971.545)">
		<g id="Group_10825" transform="translate(0 0)">
			<ellipse id="Ellipse_7851" class="st0" cx="6" cy="31.5" rx="1.9" ry="1.9"/>
			<path id="Path_11325" class="st0" d="M12,42c-0.5-6.1-3.5-7.4-3.5-7.4c-1.9-1-4.1-0.8-5.8,0.5c-1.9,1.8-2.4,4.4-2.7,7
				c-0.2,1.3,1.9,1.3,2.1,0c0.1-1.5,0.5-3,1.2-4.4v1.5l0,7.2v5.7c0,0.6,0.4,1.1,1,1.1c0,0,0,0,0,0c0.6,0,1.1-0.5,1.1-1.1v-8.1h1v8.2
				c0,0.6,0.5,1,1.1,1c0.5,0,1-0.4,1-1v-5.7l0.1-7.2c0-0.7,0-1.3,0-1.7c0.7,1.4,1.2,3,1.3,4.5C10.1,43.3,12.1,43.3,12,42z"/>
		</g>
	</g>
	<g id="standing-frontal-man-silhouette-134" transform="translate(3251.949 1346.545)">
		<g id="Group_10826" transform="translate(0 0)">
			<ellipse id="Ellipse_7852" class="st0" cx="6" cy="31.5" rx="1.9" ry="1.9"/>
			<path id="Path_11326" class="st0" d="M12,42c-0.5-6.1-3.5-7.4-3.5-7.4c-1.9-1-4.1-0.8-5.8,0.5c-1.9,1.8-2.4,4.4-2.7,7
				c-0.2,1.3,1.9,1.3,2.1,0c0.1-1.5,0.5-3,1.2-4.4v1.5l0,7.2v5.7c0,0.6,0.4,1.1,1,1.1c0,0,0,0,0,0c0.6,0,1.1-0.5,1.1-1.1v-8.1h1v8.2
				c0,0.6,0.5,1,1.1,1c0.5,0,1-0.4,1-1v-5.7l0.1-7.2c0-0.7,0-1.3,0-1.7c0.7,1.4,1.2,3,1.3,4.5C10.1,43.3,12.1,43.3,12,42z"/>
		</g>
	</g>
	<g id="standing-frontal-man-silhouette-135" transform="translate(3251.949 1246.545)">
		<g id="Group_10827" transform="translate(0 0)">
			<ellipse id="Ellipse_7853" class="st0" cx="6" cy="31.5" rx="1.9" ry="1.9"/>
			<path id="Path_11327" class="st0" d="M12,42c-0.5-6.1-3.5-7.4-3.5-7.4c-1.9-1-4.1-0.8-5.8,0.5c-1.9,1.8-2.4,4.4-2.7,7
				c-0.2,1.3,1.9,1.3,2.1,0c0.1-1.5,0.5-3,1.2-4.4v1.5l0,7.2v5.7c0,0.6,0.4,1.1,1,1.1c0,0,0,0,0,0c0.6,0,1.1-0.5,1.1-1.1v-8.1h1v8.2
				c0,0.6,0.5,1,1.1,1c0.5,0,1-0.4,1-1v-5.7l0.1-7.2c0-0.7,0-1.3,0-1.7c0.7,1.4,1.2,3,1.3,4.5C10.1,43.3,12.1,43.3,12,42z"/>
		</g>
	</g>
	<g id="standing-frontal-man-silhouette-136" transform="translate(3251.949 1296.545)">
		<g id="Group_10828" transform="translate(0 0)">
			<ellipse id="Ellipse_7854" class="st0" cx="6" cy="31.5" rx="1.9" ry="1.9"/>
			<path id="Path_11328" class="st0" d="M12,42c-0.5-6.1-3.5-7.4-3.5-7.4c-1.9-1-4.1-0.8-5.8,0.5c-1.9,1.8-2.4,4.4-2.7,7
				c-0.2,1.3,1.9,1.3,2.1,0c0.1-1.5,0.5-3,1.2-4.4v1.5l0,7.2v5.7c0,0.6,0.4,1.1,1,1.1c0,0,0,0,0,0c0.6,0,1.1-0.5,1.1-1.1v-8.1h1v8.2
				c0,0.6,0.5,1,1.1,1c0.5,0,1-0.4,1-1v-5.7l0.1-7.2c0-0.7,0-1.3,0-1.7c0.7,1.4,1.2,3,1.3,4.5C10.1,43.3,12.1,43.3,12,42z"/>
		</g>
	</g>
	<g id="standing-frontal-man-silhouette-137" transform="translate(3251.949 1196.545)">
		<g id="Group_10829" transform="translate(0 0)">
			<ellipse id="Ellipse_7855" class="st0" cx="6" cy="31.5" rx="1.9" ry="1.9"/>
			<path id="Path_11329" class="st0" d="M12,42c-0.5-6.1-3.5-7.4-3.5-7.4c-1.9-1-4.1-0.8-5.8,0.5c-1.9,1.8-2.4,4.4-2.7,7
				c-0.2,1.3,1.9,1.3,2.1,0c0.1-1.5,0.5-3,1.2-4.4v1.5l0,7.2v5.7c0,0.6,0.4,1.1,1,1.1c0,0,0,0,0,0c0.6,0,1.1-0.5,1.1-1.1v-8.1h1v8.2
				c0,0.6,0.5,1,1.1,1c0.5,0,1-0.4,1-1v-5.7l0.1-7.2c0-0.7,0-1.3,0-1.7c0.7,1.4,1.2,3,1.3,4.5C10.1,43.3,12.1,43.3,12,42z"/>
		</g>
	</g>
	<g id="standing-frontal-man-silhouette-138" transform="translate(3251.949 1321.545)">
		<g id="Group_10830" transform="translate(0 0)">
			<ellipse id="Ellipse_7856" class="st0" cx="6" cy="31.5" rx="1.9" ry="1.9"/>
			<path id="Path_11330" class="st0" d="M12,42c-0.5-6.1-3.5-7.4-3.5-7.4c-1.9-1-4.1-0.8-5.8,0.5c-1.9,1.8-2.4,4.4-2.7,7
				c-0.2,1.3,1.9,1.3,2.1,0c0.1-1.5,0.5-3,1.2-4.4v1.5l0,7.2v5.7c0,0.6,0.4,1.1,1,1.1c0,0,0,0,0,0c0.6,0,1.1-0.5,1.1-1.1v-8.1h1v8.2
				c0,0.6,0.5,1,1.1,1c0.5,0,1-0.4,1-1v-5.7l0.1-7.2c0-0.7,0-1.3,0-1.7c0.7,1.4,1.2,3,1.3,4.5C10.1,43.3,12.1,43.3,12,42z"/>
		</g>
	</g>
	<g id="standing-frontal-man-silhouette-139" transform="translate(3251.949 1221.545)">
		<g id="Group_10831" transform="translate(0 0)">
			<ellipse id="Ellipse_7857" class="st0" cx="6" cy="31.5" rx="1.9" ry="1.9"/>
			<path id="Path_11331" class="st0" d="M12,42c-0.5-6.1-3.5-7.4-3.5-7.4c-1.9-1-4.1-0.8-5.8,0.5c-1.9,1.8-2.4,4.4-2.7,7
				c-0.2,1.3,1.9,1.3,2.1,0c0.1-1.5,0.5-3,1.2-4.4v1.5l0,7.2v5.7c0,0.6,0.4,1.1,1,1.1c0,0,0,0,0,0c0.6,0,1.1-0.5,1.1-1.1v-8.1h1v8.2
				c0,0.6,0.5,1,1.1,1c0.5,0,1-0.4,1-1v-5.7l0.1-7.2c0-0.7,0-1.3,0-1.7c0.7,1.4,1.2,3,1.3,4.5C10.1,43.3,12.1,43.3,12,42z"/>
		</g>
	</g>
	<g id="standing-frontal-man-silhouette-140" transform="translate(3251.949 1271.545)">
		<g id="Group_10832" transform="translate(0 0)">
			<ellipse id="Ellipse_7858" class="st0" cx="6" cy="31.5" rx="1.9" ry="1.9"/>
			<path id="Path_11332" class="st0" d="M12,42c-0.5-6.1-3.5-7.4-3.5-7.4c-1.9-1-4.1-0.8-5.8,0.5c-1.9,1.8-2.4,4.4-2.7,7
				c-0.2,1.3,1.9,1.3,2.1,0c0.1-1.5,0.5-3,1.2-4.4v1.5l0,7.2v5.7c0,0.6,0.4,1.1,1,1.1c0,0,0,0,0,0c0.6,0,1.1-0.5,1.1-1.1v-8.1h1v8.2
				c0,0.6,0.5,1,1.1,1c0.5,0,1-0.4,1-1v-5.7l0.1-7.2c0-0.7,0-1.3,0-1.7c0.7,1.4,1.2,3,1.3,4.5C10.1,43.3,12.1,43.3,12,42z"/>
		</g>
	</g>
	<g id="standing-frontal-man-silhouette-141" transform="translate(3251.949 1171.545)">
		<g id="Group_10833" transform="translate(0 0)">
			<ellipse id="Ellipse_7859" class="st0" cx="6" cy="31.5" rx="1.9" ry="1.9"/>
			<path id="Path_11333" class="st0" d="M12,42c-0.5-6.1-3.5-7.4-3.5-7.4c-1.9-1-4.1-0.8-5.8,0.5c-1.9,1.8-2.4,4.4-2.7,7
				c-0.2,1.3,1.9,1.3,2.1,0c0.1-1.5,0.5-3,1.2-4.4v1.5l0,7.2v5.7c0,0.6,0.4,1.1,1,1.1c0,0,0,0,0,0c0.6,0,1.1-0.5,1.1-1.1v-8.1h1v8.2
				c0,0.6,0.5,1,1.1,1c0.5,0,1-0.4,1-1v-5.7l0.1-7.2c0-0.7,0-1.3,0-1.7c0.7,1.4,1.2,3,1.3,4.5C10.1,43.3,12.1,43.3,12,42z"/>
		</g>
	</g>
	<g id="standing-frontal-man-silhouette-142" transform="translate(3252.558 1146.545)">
		<g id="Group_10834" transform="translate(0 0)">
			<ellipse id="Ellipse_7860" class="st0" cx="6" cy="31.5" rx="1.9" ry="1.9"/>
			<path id="Path_11334" class="st0" d="M12,42c-0.5-6.1-3.5-7.4-3.5-7.4c-1.9-1-4.1-0.8-5.8,0.5c-1.9,1.8-2.4,4.4-2.7,7
				c-0.2,1.3,1.9,1.3,2.1,0c0.1-1.5,0.5-3,1.2-4.4v1.5l0,7.2v5.7c0,0.6,0.4,1.1,1,1.1c0,0,0,0,0,0c0.6,0,1.1-0.5,1.1-1.1v-8.1h1v8.2
				c0,0.6,0.5,1,1.1,1c0.5,0,1-0.4,1-1v-5.7l0.1-7.2c0-0.7,0-1.3,0-1.7c0.7,1.4,1.2,3,1.3,4.5C10.1,43.3,12.1,43.3,12,42z"/>
		</g>
	</g>
	<g id="standing-frontal-man-silhouette-143" transform="translate(3252.558 1046.545)">
		<g id="Group_10835" transform="translate(0 0)">
			<ellipse id="Ellipse_7861" class="st0" cx="6" cy="31.5" rx="1.9" ry="1.9"/>
			<path id="Path_11335" class="st0" d="M12,42c-0.5-6.1-3.5-7.4-3.5-7.4c-1.9-1-4.1-0.8-5.8,0.5c-1.9,1.8-2.4,4.4-2.7,7
				c-0.2,1.3,1.9,1.3,2.1,0c0.1-1.5,0.5-3,1.2-4.4v1.5l0,7.2v5.7c0,0.6,0.4,1.1,1,1.1c0,0,0,0,0,0c0.6,0,1.1-0.5,1.1-1.1v-8.1h1v8.2
				c0,0.6,0.5,1,1.1,1c0.5,0,1-0.4,1-1v-5.7l0.1-7.2c0-0.7,0-1.3,0-1.7c0.7,1.4,1.2,3,1.3,4.5C10.1,43.3,12.1,43.3,12,42z"/>
		</g>
	</g>
	<g id="standing-frontal-man-silhouette-144" transform="translate(3252.558 1096.545)">
		<g id="Group_10836" transform="translate(0 0)">
			<ellipse id="Ellipse_7862" class="st0" cx="6" cy="31.5" rx="1.9" ry="1.9"/>
			<path id="Path_11336" class="st0" d="M12,42c-0.5-6.1-3.5-7.4-3.5-7.4c-1.9-1-4.1-0.8-5.8,0.5c-1.9,1.8-2.4,4.4-2.7,7
				c-0.2,1.3,1.9,1.3,2.1,0c0.1-1.5,0.5-3,1.2-4.4v1.5l0,7.2v5.7c0,0.6,0.4,1.1,1,1.1c0,0,0,0,0,0c0.6,0,1.1-0.5,1.1-1.1v-8.1h1v8.2
				c0,0.6,0.5,1,1.1,1c0.5,0,1-0.4,1-1v-5.7l0.1-7.2c0-0.7,0-1.3,0-1.7c0.7,1.4,1.2,3,1.3,4.5C10.1,43.3,12.1,43.3,12,42z"/>
		</g>
	</g>
	<g id="standing-frontal-man-silhouette-145" transform="translate(3252.558 996.545)">
		<g id="Group_10837" transform="translate(0 0)">
			<ellipse id="Ellipse_7863" class="st0" cx="6" cy="31.5" rx="1.9" ry="1.9"/>
			<path id="Path_11337" class="st0" d="M12,42c-0.5-6.1-3.5-7.4-3.5-7.4c-1.9-1-4.1-0.8-5.8,0.5c-1.9,1.8-2.4,4.4-2.7,7
				c-0.2,1.3,1.9,1.3,2.1,0c0.1-1.5,0.5-3,1.2-4.4v1.5l0,7.2v5.7c0,0.6,0.4,1.1,1,1.1c0,0,0,0,0,0c0.6,0,1.1-0.5,1.1-1.1v-8.1h1v8.2
				c0,0.6,0.5,1,1.1,1c0.5,0,1-0.4,1-1v-5.7l0.1-7.2c0-0.7,0-1.3,0-1.7c0.7,1.4,1.2,3,1.3,4.5C10.1,43.3,12.1,43.3,12,42z"/>
		</g>
	</g>
	<g id="standing-frontal-man-silhouette-146" transform="translate(3252.558 1121.545)">
		<g id="Group_10838" transform="translate(0 0)">
			<ellipse id="Ellipse_7864" class="st0" cx="6" cy="31.5" rx="1.9" ry="1.9"/>
			<path id="Path_11338" class="st0" d="M12,42c-0.5-6.1-3.5-7.4-3.5-7.4c-1.9-1-4.1-0.8-5.8,0.5c-1.9,1.8-2.4,4.4-2.7,7
				c-0.2,1.3,1.9,1.3,2.1,0c0.1-1.5,0.5-3,1.2-4.4v1.5l0,7.2v5.7c0,0.6,0.4,1.1,1,1.1c0,0,0,0,0,0c0.6,0,1.1-0.5,1.1-1.1v-8.1h1v8.2
				c0,0.6,0.5,1,1.1,1c0.5,0,1-0.4,1-1v-5.7l0.1-7.2c0-0.7,0-1.3,0-1.7c0.7,1.4,1.2,3,1.3,4.5C10.1,43.3,12.1,43.3,12,42z"/>
		</g>
	</g>
	<g id="standing-frontal-man-silhouette-147" transform="translate(3252.558 1021.545)">
		<g id="Group_10839" transform="translate(0 0)">
			<ellipse id="Ellipse_7865" class="st0" cx="6" cy="31.5" rx="1.9" ry="1.9"/>
			<path id="Path_11339" class="st0" d="M12,42c-0.5-6.1-3.5-7.4-3.5-7.4c-1.9-1-4.1-0.8-5.8,0.5c-1.9,1.8-2.4,4.4-2.7,7
				c-0.2,1.3,1.9,1.3,2.1,0c0.1-1.5,0.5-3,1.2-4.4v1.5l0,7.2v5.7c0,0.6,0.4,1.1,1,1.1c0,0,0,0,0,0c0.6,0,1.1-0.5,1.1-1.1v-8.1h1v8.2
				c0,0.6,0.5,1,1.1,1c0.5,0,1-0.4,1-1v-5.7l0.1-7.2c0-0.7,0-1.3,0-1.7c0.7,1.4,1.2,3,1.3,4.5C10.1,43.3,12.1,43.3,12,42z"/>
		</g>
	</g>
	<g id="standing-frontal-man-silhouette-148" transform="translate(3252.558 1071.545)">
		<g id="Group_10840" transform="translate(0 0)">
			<ellipse id="Ellipse_7866" class="st0" cx="6" cy="31.5" rx="1.9" ry="1.9"/>
			<path id="Path_11340" class="st0" d="M12,42c-0.5-6.1-3.5-7.4-3.5-7.4c-1.9-1-4.1-0.8-5.8,0.5c-1.9,1.8-2.4,4.4-2.7,7
				c-0.2,1.3,1.9,1.3,2.1,0c0.1-1.5,0.5-3,1.2-4.4v1.5l0,7.2v5.7c0,0.6,0.4,1.1,1,1.1c0,0,0,0,0,0c0.6,0,1.1-0.5,1.1-1.1v-8.1h1v8.2
				c0,0.6,0.5,1,1.1,1c0.5,0,1-0.4,1-1v-5.7l0.1-7.2c0-0.7,0-1.3,0-1.7c0.7,1.4,1.2,3,1.3,4.5C10.1,43.3,12.1,43.3,12,42z"/>
		</g>
	</g>
	<g id="standing-frontal-man-silhouette-149" transform="translate(3252.558 971.545)">
		<g id="Group_10841" transform="translate(0 0)">
			<ellipse id="Ellipse_7867" class="st0" cx="6" cy="31.5" rx="1.9" ry="1.9"/>
			<path id="Path_11341" class="st0" d="M12,42c-0.5-6.1-3.5-7.4-3.5-7.4c-1.9-1-4.1-0.8-5.8,0.5c-1.9,1.8-2.4,4.4-2.7,7
				c-0.2,1.3,1.9,1.3,2.1,0c0.1-1.5,0.5-3,1.2-4.4v1.5l0,7.2v5.7c0,0.6,0.4,1.1,1,1.1c0,0,0,0,0,0c0.6,0,1.1-0.5,1.1-1.1v-8.1h1v8.2
				c0,0.6,0.5,1,1.1,1c0.5,0,1-0.4,1-1v-5.7l0.1-7.2c0-0.7,0-1.3,0-1.7c0.7,1.4,1.2,3,1.3,4.5C10.1,43.3,12.1,43.3,12,42z"/>
		</g>
	</g>
	<g id="standing-frontal-man-silhouette-150" transform="translate(3198.361 946.545)">
		<g id="Group_10842" transform="translate(0 0)">
			<ellipse id="Ellipse_7868" class="st0" cx="6" cy="31.5" rx="1.9" ry="1.9"/>
			<path id="Path_11342" class="st0" d="M12,42c-0.5-6.1-3.5-7.4-3.5-7.4c-1.9-1-4.1-0.8-5.8,0.5c-1.9,1.8-2.4,4.4-2.7,7
				c-0.2,1.3,1.9,1.3,2.1,0c0.1-1.5,0.5-3,1.2-4.4v1.5l0,7.2v5.7c0,0.6,0.4,1.1,1,1.1c0,0,0,0,0,0c0.6,0,1.1-0.5,1.1-1.1v-8.1h1v8.2
				c0,0.6,0.5,1,1.1,1c0.5,0,1-0.4,1-1v-5.7l0.1-7.2c0-0.7,0-1.3,0-1.7c0.7,1.4,1.2,3,1.3,4.5C10.1,43.3,12.1,43.3,12,42z"/>
		</g>
	</g>
	<g id="standing-frontal-man-silhouette-151" transform="translate(3253.361 946.545)">
		<g id="Group_10842-2" transform="translate(0 0)">
			<ellipse id="Ellipse_7868-2" class="st0" cx="6" cy="31.5" rx="1.9" ry="1.9"/>
			<path id="Path_11342-2" class="st0" d="M12,42c-0.5-6.1-3.5-7.4-3.5-7.4c-1.9-1-4.1-0.8-5.8,0.5c-1.9,1.8-2.4,4.4-2.7,7
				c-0.2,1.3,1.9,1.3,2.1,0c0.1-1.5,0.5-3,1.2-4.4v1.5l0,7.2v5.7c0,0.6,0.4,1.1,1,1.1c0,0,0,0,0,0c0.6,0,1.1-0.5,1.1-1.1v-8.1h1v8.2
				c0,0.6,0.5,1,1.1,1c0.5,0,1-0.4,1-1v-5.7l0.1-7.2c0-0.7,0-1.3,0-1.7c0.7,1.4,1.2,3,1.3,4.5C10.1,43.3,12.1,43.3,12,42z"/>
		</g>
	</g>
	<g id="standing-frontal-man-silhouette-152" transform="translate(3198.361 896.545)">
		<g id="Group_10844" transform="translate(0 0)">
			<ellipse id="Ellipse_7870" class="st0" cx="6" cy="31.5" rx="1.9" ry="1.9"/>
			<path id="Path_11344" class="st0" d="M12,42c-0.5-6.1-3.5-7.4-3.5-7.4c-1.9-1-4.1-0.8-5.8,0.5c-1.9,1.8-2.4,4.4-2.7,7
				c-0.2,1.3,1.9,1.3,2.1,0c0.1-1.5,0.5-3,1.2-4.4v1.5l0,7.2v5.7c0,0.6,0.4,1.1,1,1.1c0,0,0,0,0,0c0.6,0,1.1-0.5,1.1-1.1v-8.1h1v8.2
				c0,0.6,0.5,1,1.1,1c0.5,0,1-0.4,1-1v-5.7l0.1-7.2c0-0.7,0-1.3,0-1.7c0.7,1.4,1.2,3,1.3,4.5C10.1,43.3,12.1,43.3,12,42z"/>
		</g>
	</g>
	<g id="standing-frontal-man-silhouette-153" transform="translate(3253.361 896.545)">
		<g id="Group_10844-2" transform="translate(0 0)">
			<ellipse id="Ellipse_7870-2" class="st0" cx="6" cy="31.5" rx="1.9" ry="1.9"/>
			<path id="Path_11344-2" class="st0" d="M12,42c-0.5-6.1-3.5-7.4-3.5-7.4c-1.9-1-4.1-0.8-5.8,0.5c-1.9,1.8-2.4,4.4-2.7,7
				c-0.2,1.3,1.9,1.3,2.1,0c0.1-1.5,0.5-3,1.2-4.4v1.5l0,7.2v5.7c0,0.6,0.4,1.1,1,1.1c0,0,0,0,0,0c0.6,0,1.1-0.5,1.1-1.1v-8.1h1v8.2
				c0,0.6,0.5,1,1.1,1c0.5,0,1-0.4,1-1v-5.7l0.1-7.2c0-0.7,0-1.3,0-1.7c0.7,1.4,1.2,3,1.3,4.5C10.1,43.3,12.1,43.3,12,42z"/>
		</g>
	</g>
	<g id="standing-frontal-man-silhouette-154" transform="translate(3198.361 921.545)">
		<g id="Group_10846" transform="translate(0 0)">
			<ellipse id="Ellipse_7872" class="st0" cx="6" cy="31.5" rx="1.9" ry="1.9"/>
			<path id="Path_11346" class="st0" d="M12,42c-0.5-6.1-3.5-7.4-3.5-7.4c-1.9-1-4.1-0.8-5.8,0.5c-1.9,1.8-2.4,4.4-2.7,7
				c-0.2,1.3,1.9,1.3,2.1,0c0.1-1.5,0.5-3,1.2-4.4v1.5l0,7.2v5.7c0,0.6,0.4,1.1,1,1.1c0,0,0,0,0,0c0.6,0,1.1-0.5,1.1-1.1v-8.1h1v8.2
				c0,0.6,0.5,1,1.1,1c0.5,0,1-0.4,1-1v-5.7l0.1-7.2c0-0.7,0-1.3,0-1.7c0.7,1.4,1.2,3,1.3,4.5C10.1,43.3,12.1,43.3,12,42z"/>
		</g>
	</g>
	<g id="standing-frontal-man-silhouette-155" transform="translate(3253.361 921.545)">
		<g id="Group_10846-2" transform="translate(0 0)">
			<ellipse id="Ellipse_7872-2" class="st0" cx="6" cy="31.5" rx="1.9" ry="1.9"/>
			<path id="Path_11346-2" class="st0" d="M12,42c-0.5-6.1-3.5-7.4-3.5-7.4c-1.9-1-4.1-0.8-5.8,0.5c-1.9,1.8-2.4,4.4-2.7,7
				c-0.2,1.3,1.9,1.3,2.1,0c0.1-1.5,0.5-3,1.2-4.4v1.5l0,7.2v5.7c0,0.6,0.4,1.1,1,1.1c0,0,0,0,0,0c0.6,0,1.1-0.5,1.1-1.1v-8.1h1v8.2
				c0,0.6,0.5,1,1.1,1c0.5,0,1-0.4,1-1v-5.7l0.1-7.2c0-0.7,0-1.3,0-1.7c0.7,1.4,1.2,3,1.3,4.5C10.1,43.3,12.1,43.3,12,42z"/>
		</g>
	</g>
	<g id="standing-frontal-man-silhouette-156" transform="translate(3198.361 871.545)">
		<g id="Group_10848" transform="translate(0 0)">
			<ellipse id="Ellipse_7874" class="st0" cx="6" cy="31.5" rx="1.9" ry="1.9"/>
			<path id="Path_11348" class="st0" d="M12,42c-0.5-6.1-3.5-7.4-3.5-7.4c-1.9-1-4.1-0.8-5.8,0.5c-1.9,1.8-2.4,4.4-2.7,7
				c-0.2,1.3,1.9,1.3,2.1,0c0.1-1.5,0.5-3,1.2-4.4v1.5l0,7.2v5.7c0,0.6,0.4,1.1,1,1.1c0,0,0,0,0,0c0.6,0,1.1-0.5,1.1-1.1v-8.1h1v8.2
				c0,0.6,0.5,1,1.1,1c0.5,0,1-0.4,1-1v-5.7l0.1-7.2c0-0.7,0-1.3,0-1.7c0.7,1.4,1.2,3,1.3,4.5C10.1,43.3,12.1,43.3,12,42z"/>
		</g>
	</g>
</g>
</svg>
