<?xml version="1.0" encoding="utf-8"?>
<!-- Generator: Adobe Illustrator 25.0.1, SVG Export Plug-In . SVG Version: 6.00 Build 0)  -->
<svg version="1.1" id="Laag_1" xmlns="http://www.w3.org/2000/svg" xmlns:xlink="http://www.w3.org/1999/xlink" x="0px" y="0px"
	 viewBox="0 0 104.7 110" style="enable-background:new 0 0 104.7 110;" xml:space="preserve">
<style type="text/css">
	.st0{fill:#1F615F;}
	.st1{fill:#164848;}
	.st2{fill:#FCD5A9;}
	.st3{fill:#FDDAB4;}
	.st4{fill:#B99664;}
	.st5{fill:#3D3219;}
	.st6{fill:#231F20;}
	.st7{fill:#E8B37F;}
</style>
<g>
	<g>
		<polygon class="st0" points="104.7,110 0,110 0,0 104.7,0 104.7,110 		"/>
		<path class="st1" d="M60,25.7l-6.8,0.6c0.1,0.8,0.2,1.5,0.2,2.3v43.2c0,1.2-0.2,2.4-0.5,3.5c0.6,4-0.6,8.2-3.6,11.3
			c-0.9,0.9-1.8,1.9-2.6,3c-1.6,2.2-3.2,4.6-5,6.6c-1,1.1-2.2,2.1-3.4,3.1c-1.6,1.3-3.2,2.5-4.8,3.9l6.7,6.7h61.1
			c1.8,0,3.2-1.4,3.2-3.2v-60L60,25.7z"/>
	</g>
	<g>
		<g>
			<path class="st2" d="M79.4,55.7c-0.2,3.8-2.1,8.4-4.2,8.3c-2.1-0.1-3.5-4.8-3.3-8.7c0.2-3.8,2-5.4,4.1-5.3
				C78,50.1,79.6,51.9,79.4,55.7z"/>
			<path class="st2" d="M24.7,55.7c0.2,3.8,2.1,8.4,4.2,8.3c2.1-0.1,3.5-4.8,3.3-8.7c-0.2-3.8-2-5.4-4.1-5.3
				C26.2,50.1,24.5,51.9,24.7,55.7z"/>
			<g>
				<path class="st3" d="M52.1,97.4c6.7,0,10.3-3.5,11.9-5.7c-2.3-0.6-2.7-2.7-2.7-3.9c0-1.2,0-3.4,0-5.2H42.8c0,1.8,0,4,0,5.2
					c0,1.2-0.4,3.4-2.7,3.9C41.8,93.9,45.3,97.4,52.1,97.4z"/>
				<path class="st4" d="M78.1,98.7c-2.7-5.2-11.7-6.4-14-7c0,0,0,0-0.1,0c-1.7,2.2-5.2,5.7-11.9,5.7c-6.7,0-10.3-3.5-11.9-5.7
					c0,0,0,0-0.1,0c-2.3,0.5-11.3,1.8-14,7c-2.6,5.1-3.8,11-3.8,11h59.7C81.9,109.7,80.7,103.8,78.1,98.7z"/>
			</g>
			<path class="st3" d="M52.1,85.8c-6.6,0-16.4-5-19.4-10.4C29.6,70,28,58.7,28,49.1c0-15,10.8-24,24-24c13.3,0,24,9.1,24,24
				c0,9.6-1.6,20.9-4.6,26.2C68.4,80.8,58.7,85.8,52.1,85.8L52.1,85.8z"/>
		</g>
		<path class="st5" d="M52,36c0,0-6.6,0-12.4-1.3c0,0-8.9-1.9-9.6,6.7v11.2c0,0-8.6-6.3-4.4-18.1c0,0,2.2-4.8-1.2-6.8
			c0,0,7.8-2.7,8.4-5.7c0,0-1.7-3.7-5.2-2.1c0,0,5.2-4.6,14.8-2.1c0,0,0.6-5.6-3.2-6.2c0,0,23-3.4,37,13.6c0,0,7.4,15.5-2.2,27.4
			l-1-12.8c0,0-0.4-7.1-8.4-5.3C64.7,34.6,56.9,36.2,52,36z"/>
		<path class="st6" d="M40.7,50.9c0,1.2-1,2.2-2.2,2.2c-1.2,0-2.2-1-2.2-2.2c0-1.2,1-2.2,2.2-2.2C39.7,48.7,40.7,49.7,40.7,50.9z"/>
		<path class="st6" d="M68.5,50.9c0,1.2-1,2.2-2.2,2.2c-1.2,0-2.2-1-2.2-2.2c0-1.2,1-2.2,2.2-2.2C67.5,48.7,68.5,49.7,68.5,50.9z"/>
		<polygon class="st7" points="47.8,61.7 52.3,51.6 56.9,61.7 52.3,63.2 		"/>
		<g>
			<path class="st7" d="M56.8,69c-1-0.3-1.9-0.7-3-0.7c-1.1,0-1.5,0.6-1.5,0.6s-0.4-0.6-1.5-0.6c-1.1,0-2,0.4-3,0.7
				c-1,0.3-1.6,0.2-1.6,0.2c0.2,1.6,2,3.7,6.1,3.7c4.1,0,5.9-2.1,6.1-3.7C58.4,69.2,57.8,69.3,56.8,69z"/>
			<path class="st7" d="M56.8,69c-1-0.3-1.9-0.7-3-0.7c-1.1,0-1.5,0.6-1.5,0.6s-0.4-0.6-1.5-0.6c-1.1,0-2,0.4-3,0.7
				c-1,0.3-1.6,0.2-1.6,0.2s0.9,1.3,3.3,1.3c0.4,0,1.3-0.2,1.7-0.2c0.4,0,0.6,0.2,1,0.2c0.4,0,0.6-0.2,1-0.2c0.4,0,1.3,0.2,1.7,0.2
				c2.4,0,3.3-1.3,3.3-1.3S57.8,69.3,56.8,69z"/>
		</g>
	</g>
</g>
</svg>
