<?xml version="1.0" encoding="utf-8"?>
<!-- Generator: Adobe Illustrator 25.1.0, SVG Export Plug-In . SVG Version: 6.00 Build 0)  -->
<svg version="1.1" id="Laag_1" xmlns="http://www.w3.org/2000/svg" xmlns:xlink="http://www.w3.org/1999/xlink" x="0px" y="0px"
	 viewBox="0 0 108.7 528.2" style="enable-background:new 0 0 108.7 528.2;" xml:space="preserve">
<style type="text/css">
	.st0{fill:#FFFFFF;}
</style>
<g id="Group_13285" transform="translate(-2824.043 -943.968)">
	<g id="standing-frontal-man-silhouette" transform="translate(2824.043 1220.584)">
		<g id="Group_11077" transform="translate(0 0)">
			<ellipse id="Ellipse_8103" class="st0" cx="6" cy="103.9" rx="1.9" ry="1.9"/>
			<path id="Path_11577" class="st0" d="M12,114.4c-0.5-6.1-3.5-7.4-3.5-7.4c-1.9-1-4.1-0.8-5.8,0.5c-1.9,1.8-2.4,4.4-2.7,7
				c-0.2,1.3,1.9,1.3,2.1,0c0.1-1.5,0.5-3,1.2-4.4v1.5l0,7.2v5.7c0,0.6,0.4,1.1,1,1.1c0,0,0,0,0,0c0.6,0,1.1-0.5,1.1-1.1v-8.1h1v8.2
				c0,0.6,0.5,1,1.1,1c0.5,0,1-0.4,1-1v-5.7l0.1-7.2c0-0.7,0-1.3,0-1.7c0.7,1.4,1.2,3,1.3,4.5C10.1,115.7,12.1,115.7,12,114.4z"/>
		</g>
	</g>
	<g id="standing-frontal-man-silhouette-2" transform="translate(2852.304 1044.584)">
		<g id="Group_11078" transform="translate(0 0)">
			<ellipse id="Ellipse_8104" class="st0" cx="6" cy="103.9" rx="1.9" ry="1.9"/>
			<path id="Path_11578" class="st0" d="M12,114.4c-0.5-6.1-3.5-7.4-3.5-7.4c-1.9-1-4.1-0.8-5.8,0.5c-1.9,1.8-2.4,4.4-2.7,7
				c-0.2,1.3,1.9,1.3,2.1,0c0.1-1.5,0.5-3,1.2-4.4v1.5l0,7.2v5.7c0,0.6,0.4,1.1,1,1.1c0,0,0,0,0,0c0.6,0,1.1-0.5,1.1-1.1v-8.1h1v8.2
				c0,0.6,0.5,1,1.1,1c0.5,0,1-0.4,1-1v-5.7l0.1-7.2c0-0.7,0-1.3,0-1.7c0.7,1.4,1.2,3,1.3,4.5C10.1,115.7,12.1,115.7,12,114.4z"/>
		</g>
	</g>
	<g id="standing-frontal-man-silhouette-3" transform="translate(2824.043 1270.968)">
		<g id="Group_11079" transform="translate(0 0)">
			<ellipse id="Ellipse_8105" class="st0" cx="6" cy="103.9" rx="1.9" ry="1.9"/>
			<path id="Path_11579" class="st0" d="M12,114.4c-0.5-6.1-3.5-7.4-3.5-7.4c-1.9-1-4.1-0.8-5.8,0.5c-1.9,1.8-2.4,4.4-2.7,7
				c-0.2,1.3,1.9,1.3,2.1,0c0.1-1.5,0.5-3,1.2-4.4v1.5l0,7.2v5.7c0,0.6,0.4,1.1,1,1.1c0,0,0,0,0,0c0.6,0,1.1-0.5,1.1-1.1v-8.1h1v8.2
				c0,0.6,0.5,1,1.1,1c0.5,0,1-0.4,1-1v-5.7l0.1-7.2c0-0.7,0-1.3,0-1.7c0.7,1.4,1.2,3,1.3,4.5C10.1,115.7,12.1,115.7,12,114.4z"/>
		</g>
	</g>
	<g id="standing-frontal-man-silhouette-4" transform="translate(2824.043 1321.353)">
		<g id="Group_11080" transform="translate(0 0)">
			<ellipse id="Ellipse_8106" class="st0" cx="6" cy="103.9" rx="1.9" ry="1.9"/>
			<path id="Path_11580" class="st0" d="M12,114.4c-0.5-6.1-3.5-7.4-3.5-7.4c-1.9-1-4.1-0.8-5.8,0.5c-1.9,1.8-2.4,4.4-2.7,7
				c-0.2,1.3,1.9,1.3,2.1,0c0.1-1.5,0.5-3,1.2-4.4v1.5l0,7.2v5.7c0,0.6,0.4,1.1,1,1.1c0,0,0,0,0,0c0.6,0,1.1-0.5,1.1-1.1v-8.1h1v8.2
				c0,0.6,0.5,1,1.1,1c0.5,0,1-0.4,1-1v-5.7l0.1-7.2c0-0.7,0-1.3,0-1.7c0.7,1.4,1.2,3,1.3,4.5C10.1,115.7,12.1,115.7,12,114.4z"/>
		</g>
	</g>
	<g id="standing-frontal-man-silhouette-5" transform="translate(2824.043 1245.776)">
		<g id="Group_11081" transform="translate(0 0)">
			<ellipse id="Ellipse_8107" class="st0" cx="6" cy="103.9" rx="1.9" ry="1.9"/>
			<path id="Path_11581" class="st0" d="M12,114.4c-0.5-6.1-3.5-7.4-3.5-7.4c-1.9-1-4.1-0.8-5.8,0.5c-1.9,1.8-2.4,4.4-2.7,7
				c-0.2,1.3,1.9,1.3,2.1,0c0.1-1.5,0.5-3,1.2-4.4v1.5l0,7.2v5.7c0,0.6,0.4,1.1,1,1.1c0,0,0,0,0,0c0.6,0,1.1-0.5,1.1-1.1v-8.1h1v8.2
				c0,0.6,0.5,1,1.1,1c0.5,0,1-0.4,1-1v-5.7l0.1-7.2c0-0.7,0-1.3,0-1.7c0.7,1.4,1.2,3,1.3,4.5C10.1,115.7,12.1,115.7,12,114.4z"/>
		</g>
	</g>
	<g id="standing-frontal-man-silhouette-6" transform="translate(2824.043 1296.16)">
		<g id="Group_11082" transform="translate(0 0)">
			<ellipse id="Ellipse_8108" class="st0" cx="6" cy="103.9" rx="1.9" ry="1.9"/>
			<path id="Path_11582" class="st0" d="M12,114.4c-0.5-6.1-3.5-7.4-3.5-7.4c-1.9-1-4.1-0.8-5.8,0.5c-1.9,1.8-2.4,4.4-2.7,7
				c-0.2,1.3,1.9,1.3,2.1,0c0.1-1.5,0.5-3,1.2-4.4v1.5l0,7.2v5.7c0,0.6,0.4,1.1,1,1.1c0,0,0,0,0,0c0.6,0,1.1-0.5,1.1-1.1v-8.1h1v8.2
				c0,0.6,0.5,1,1.1,1c0.5,0,1-0.4,1-1v-5.7l0.1-7.2c0-0.7,0-1.3,0-1.7c0.7,1.4,1.2,3,1.3,4.5C10.1,115.7,12.1,115.7,12,114.4z"/>
		</g>
	</g>
	<g id="standing-frontal-man-silhouette-7" transform="translate(2824.043 1346.545)">
		<g id="Group_11083" transform="translate(0 0)">
			<ellipse id="Ellipse_8109" class="st0" cx="6" cy="103.9" rx="1.9" ry="1.9"/>
			<path id="Path_11583" class="st0" d="M12,114.4c-0.5-6.1-3.5-7.4-3.5-7.4c-1.9-1-4.1-0.8-5.8,0.5c-1.9,1.8-2.4,4.4-2.7,7
				c-0.2,1.3,1.9,1.3,2.1,0c0.1-1.5,0.5-3,1.2-4.4v1.5l0,7.2v5.7c0,0.6,0.4,1.1,1,1.1c0,0,0,0,0,0c0.6,0,1.1-0.5,1.1-1.1v-8.1h1v8.2
				c0,0.6,0.5,1,1.1,1c0.5,0,1-0.4,1-1v-5.7l0.1-7.2c0-0.7,0-1.3,0-1.7c0.7,1.4,1.2,3,1.3,4.5C10.1,115.7,12.1,115.7,12,114.4z"/>
		</g>
	</g>
	<g id="standing-frontal-man-silhouette-8" transform="translate(2824.043 1195.611)">
		<g id="Group_11084" transform="translate(0 0)">
			<ellipse id="Ellipse_8110" class="st0" cx="6" cy="103.9" rx="1.9" ry="1.9"/>
			<path id="Path_11584" class="st0" d="M12,114.4c-0.5-6.1-3.5-7.4-3.5-7.4c-1.9-1-4.1-0.8-5.8,0.5c-1.9,1.8-2.4,4.4-2.7,7
				c-0.2,1.3,1.9,1.3,2.1,0c0.1-1.5,0.5-3,1.2-4.4v1.5l0,7.2v5.7c0,0.6,0.4,1.1,1,1.1c0,0,0,0,0,0c0.6,0,1.1-0.5,1.1-1.1v-8.1h1v8.2
				c0,0.6,0.5,1,1.1,1c0.5,0,1-0.4,1-1v-5.7l0.1-7.2c0-0.7,0-1.3,0-1.7c0.7,1.4,1.2,3,1.3,4.5C10.1,115.7,12.1,115.7,12,114.4z"/>
		</g>
	</g>
	<g id="standing-frontal-man-silhouette-9" transform="translate(2824.65 943.968)">
		<g id="Group_11086" transform="translate(0 0)">
			<ellipse id="Ellipse_8112" class="st0" cx="6" cy="103.9" rx="1.9" ry="1.9"/>
			<path id="Path_11586" class="st0" d="M12,114.4c-0.5-6.1-3.5-7.4-3.5-7.4c-1.9-1-4.1-0.8-5.8,0.5c-1.9,1.8-2.4,4.4-2.7,7
				c-0.2,1.3,1.9,1.3,2.1,0c0.1-1.5,0.5-3,1.2-4.4v1.5l0,7.2v5.7c0,0.6,0.4,1.1,1,1.1c0,0,0,0,0,0c0.6,0,1.1-0.5,1.1-1.1v-8.1h1v8.2
				c0,0.6,0.5,1,1.1,1c0.5,0,1-0.4,1-1v-5.7l0.1-7.2c0-0.7,0-1.3,0-1.7c0.7,1.4,1.2,3,1.3,4.5C10.1,115.7,12.1,115.7,12,114.4z"/>
		</g>
	</g>
	<g id="standing-frontal-man-silhouette-10" transform="translate(2824.65 994.353)">
		<g id="Group_11087" transform="translate(0 0)">
			<ellipse id="Ellipse_8113" class="st0" cx="6" cy="103.9" rx="1.9" ry="1.9"/>
			<path id="Path_11587" class="st0" d="M12,114.4c-0.5-6.1-3.5-7.4-3.5-7.4c-1.9-1-4.1-0.8-5.8,0.5c-1.9,1.8-2.4,4.4-2.7,7
				c-0.2,1.3,1.9,1.3,2.1,0c0.1-1.5,0.5-3,1.2-4.4v1.5l0,7.2v5.7c0,0.6,0.4,1.1,1,1.1c0,0,0,0,0,0c0.6,0,1.1-0.5,1.1-1.1v-8.1h1v8.2
				c0,0.6,0.5,1,1.1,1c0.5,0,1-0.4,1-1v-5.7l0.1-7.2c0-0.7,0-1.3,0-1.7c0.7,1.4,1.2,3,1.3,4.5C10.1,115.7,12.1,115.7,12,114.4z"/>
		</g>
	</g>
	<g id="standing-frontal-man-silhouette-11" transform="translate(2879.65 994.353)">
		<g id="Group_11087-2" transform="translate(0 0)">
			<ellipse id="Ellipse_8113-2" class="st0" cx="6" cy="103.9" rx="1.9" ry="1.9"/>
			<path id="Path_11587-2" class="st0" d="M12,114.4c-0.5-6.1-3.5-7.4-3.5-7.4c-1.9-1-4.1-0.8-5.8,0.5c-1.9,1.8-2.4,4.4-2.7,7
				c-0.2,1.3,1.9,1.3,2.1,0c0.1-1.5,0.5-3,1.2-4.4v1.5l0,7.2v5.7c0,0.6,0.4,1.1,1,1.1c0,0,0,0,0,0c0.6,0,1.1-0.5,1.1-1.1v-8.1h1v8.2
				c0,0.6,0.5,1,1.1,1c0.5,0,1-0.4,1-1v-5.7l0.1-7.2c0-0.7,0-1.3,0-1.7c0.7,1.4,1.2,3,1.3,4.5C10.1,115.7,12.1,115.7,12,114.4z"/>
		</g>
	</g>
	<g id="standing-frontal-man-silhouette-12" transform="translate(2824.65 969.16)">
		<g id="Group_11089" transform="translate(0 0)">
			<ellipse id="Ellipse_8115" class="st0" cx="6" cy="103.9" rx="1.9" ry="1.9"/>
			<path id="Path_11589" class="st0" d="M12,114.4c-0.5-6.1-3.5-7.4-3.5-7.4c-1.9-1-4.1-0.8-5.8,0.5c-1.9,1.8-2.4,4.4-2.7,7
				c-0.2,1.3,1.9,1.3,2.1,0c0.1-1.5,0.5-3,1.2-4.4v1.5l0,7.2v5.7c0,0.6,0.4,1.1,1,1.1c0,0,0,0,0,0c0.6,0,1.1-0.5,1.1-1.1v-8.1h1v8.2
				c0,0.6,0.5,1,1.1,1c0.5,0,1-0.4,1-1v-5.7l0.1-7.2c0-0.7,0-1.3,0-1.7c0.7,1.4,1.2,3,1.3,4.5C10.1,115.7,12.1,115.7,12,114.4z"/>
		</g>
	</g>
	<g id="standing-frontal-man-silhouette-13" transform="translate(2879.65 969.16)">
		<g id="Group_11089-2" transform="translate(0 0)">
			<ellipse id="Ellipse_8115-2" class="st0" cx="6" cy="103.9" rx="1.9" ry="1.9"/>
			<path id="Path_11589-2" class="st0" d="M12,114.4c-0.5-6.1-3.5-7.4-3.5-7.4c-1.9-1-4.1-0.8-5.8,0.5c-1.9,1.8-2.4,4.4-2.7,7
				c-0.2,1.3,1.9,1.3,2.1,0c0.1-1.5,0.5-3,1.2-4.4v1.5l0,7.2v5.7c0,0.6,0.4,1.1,1,1.1c0,0,0,0,0,0c0.6,0,1.1-0.5,1.1-1.1v-8.1h1v8.2
				c0,0.6,0.5,1,1.1,1c0.5,0,1-0.4,1-1v-5.7l0.1-7.2c0-0.7,0-1.3,0-1.7c0.7,1.4,1.2,3,1.3,4.5C10.1,115.7,12.1,115.7,12,114.4z"/>
		</g>
	</g>
	<g id="standing-frontal-man-silhouette-14" transform="translate(2824.65 1019.545)">
		<g id="Group_11090" transform="translate(0 0)">
			<ellipse id="Ellipse_8116" class="st0" cx="6" cy="103.9" rx="1.9" ry="1.9"/>
			<path id="Path_11590" class="st0" d="M12,114.4c-0.5-6.1-3.5-7.4-3.5-7.4c-1.9-1-4.1-0.8-5.8,0.5c-1.9,1.8-2.4,4.4-2.7,7
				c-0.2,1.3,1.9,1.3,2.1,0c0.1-1.5,0.5-3,1.2-4.4v1.5l0,7.2v5.7c0,0.6,0.4,1.1,1,1.1c0,0,0,0,0,0c0.6,0,1.1-0.5,1.1-1.1v-8.1h1v8.2
				c0,0.6,0.5,1,1.1,1c0.5,0,1-0.4,1-1v-5.7l0.1-7.2c0-0.7,0-1.3,0-1.7c0.7,1.4,1.2,3,1.3,4.5C10.1,115.7,12.1,115.7,12,114.4z"/>
		</g>
	</g>
	<g id="standing-frontal-man-silhouette-15" transform="translate(2879.65 1019.545)">
		<g id="Group_11090-2" transform="translate(0 0)">
			<ellipse id="Ellipse_8116-2" class="st0" cx="6" cy="103.9" rx="1.9" ry="1.9"/>
			<path id="Path_11590-2" class="st0" d="M12,114.4c-0.5-6.1-3.5-7.4-3.5-7.4c-1.9-1-4.1-0.8-5.8,0.5c-1.9,1.8-2.4,4.4-2.7,7
				c-0.2,1.3,1.9,1.3,2.1,0c0.1-1.5,0.5-3,1.2-4.4v1.5l0,7.2v5.7c0,0.6,0.4,1.1,1,1.1c0,0,0,0,0,0c0.6,0,1.1-0.5,1.1-1.1v-8.1h1v8.2
				c0,0.6,0.5,1,1.1,1c0.5,0,1-0.4,1-1v-5.7l0.1-7.2c0-0.7,0-1.3,0-1.7c0.7,1.4,1.2,3,1.3,4.5C10.1,115.7,12.1,115.7,12,114.4z"/>
		</g>
	</g>
	<g id="standing-frontal-man-silhouette-16" transform="translate(2878.846 1220.584)">
		<g id="Group_11092" transform="translate(0 0)">
			<ellipse id="Ellipse_8118" class="st0" cx="6" cy="103.9" rx="1.9" ry="1.9"/>
			<path id="Path_11592" class="st0" d="M12,114.4c-0.5-6.1-3.5-7.4-3.5-7.4c-1.9-1-4.1-0.8-5.8,0.5c-1.9,1.8-2.4,4.4-2.7,7
				c-0.2,1.3,1.9,1.3,2.1,0c0.1-1.5,0.5-3,1.2-4.4v1.5l0,7.2v5.7c0,0.6,0.4,1.1,1,1.1c0,0,0,0,0,0c0.6,0,1.1-0.5,1.1-1.1v-8.1h1v8.2
				c0,0.6,0.5,1,1.1,1c0.5,0,1-0.4,1-1v-5.7l0.1-7.2c0-0.7,0-1.3,0-1.7c0.7,1.4,1.2,3,1.3,4.5C10.1,115.7,12.1,115.7,12,114.4z"/>
		</g>
	</g>
	<g id="standing-frontal-man-silhouette-17" transform="translate(2920.583 1044.584)">
		<g id="Group_11093" transform="translate(0 0)">
			<ellipse id="Ellipse_8119" class="st0" cx="6" cy="103.9" rx="1.9" ry="1.9"/>
			<path id="Path_11593" class="st0" d="M12,114.4c-0.5-6.1-3.5-7.4-3.5-7.4c-1.9-1-4.1-0.8-5.8,0.5c-1.9,1.8-2.4,4.4-2.7,7
				c-0.2,1.3,1.9,1.3,2.1,0c0.1-1.5,0.5-3,1.2-4.4v1.5l0,7.2v5.7c0,0.6,0.4,1.1,1,1.1c0,0,0,0,0,0c0.6,0,1.1-0.5,1.1-1.1v-8.1h1v8.2
				c0,0.6,0.5,1,1.1,1c0.5,0,1-0.4,1-1v-5.7l0.1-7.2c0-0.7,0-1.3,0-1.7c0.7,1.4,1.2,3,1.3,4.5C10.1,115.7,12.1,115.7,12,114.4z"/>
		</g>
	</g>
	<g id="standing-frontal-man-silhouette-18" transform="translate(2907.106 1044.584)">
		<g id="Group_11094" transform="translate(0 0)">
			<ellipse id="Ellipse_8120" class="st0" cx="6" cy="103.9" rx="1.9" ry="1.9"/>
			<path id="Path_11594" class="st0" d="M12,114.4c-0.5-6.1-3.5-7.4-3.5-7.4c-1.9-1-4.1-0.8-5.8,0.5c-1.9,1.8-2.4,4.4-2.7,7
				c-0.2,1.3,1.9,1.3,2.1,0c0.1-1.5,0.5-3,1.2-4.4v1.5l0,7.2v5.7c0,0.6,0.4,1.1,1,1.1c0,0,0,0,0,0c0.6,0,1.1-0.5,1.1-1.1v-8.1h1v8.2
				c0,0.6,0.5,1,1.1,1c0.5,0,1-0.4,1-1v-5.7l0.1-7.2c0-0.7,0-1.3,0-1.7c0.7,1.4,1.2,3,1.3,4.5C10.1,115.7,12.1,115.7,12,114.4z"/>
		</g>
	</g>
	<g id="standing-frontal-man-silhouette-19" transform="translate(2878.846 1270.968)">
		<g id="Group_11095" transform="translate(0 0)">
			<ellipse id="Ellipse_8121" class="st0" cx="6" cy="103.9" rx="1.9" ry="1.9"/>
			<path id="Path_11595" class="st0" d="M12,114.4c-0.5-6.1-3.5-7.4-3.5-7.4c-1.9-1-4.1-0.8-5.8,0.5c-1.9,1.8-2.4,4.4-2.7,7
				c-0.2,1.3,1.9,1.3,2.1,0c0.1-1.5,0.5-3,1.2-4.4v1.5l0,7.2v5.7c0,0.6,0.4,1.1,1,1.1c0,0,0,0,0,0c0.6,0,1.1-0.5,1.1-1.1v-8.1h1v8.2
				c0,0.6,0.5,1,1.1,1c0.5,0,1-0.4,1-1v-5.7l0.1-7.2c0-0.7,0-1.3,0-1.7c0.7,1.4,1.2,3,1.3,4.5C10.1,115.7,12.1,115.7,12,114.4z"/>
		</g>
	</g>
	<g id="standing-frontal-man-silhouette-20" transform="translate(2878.846 1321.353)">
		<g id="Group_11096" transform="translate(0 0)">
			<ellipse id="Ellipse_8122" class="st0" cx="6" cy="103.9" rx="1.9" ry="1.9"/>
			<path id="Path_11596" class="st0" d="M12,114.4c-0.5-6.1-3.5-7.4-3.5-7.4c-1.9-1-4.1-0.8-5.8,0.5c-1.9,1.8-2.4,4.4-2.7,7
				c-0.2,1.3,1.9,1.3,2.1,0c0.1-1.5,0.5-3,1.2-4.4v1.5l0,7.2v5.7c0,0.6,0.4,1.1,1,1.1c0,0,0,0,0,0c0.6,0,1.1-0.5,1.1-1.1v-8.1h1v8.2
				c0,0.6,0.5,1,1.1,1c0.5,0,1-0.4,1-1v-5.7l0.1-7.2c0-0.7,0-1.3,0-1.7c0.7,1.4,1.2,3,1.3,4.5C10.1,115.7,12.1,115.7,12,114.4z"/>
		</g>
	</g>
	<g id="standing-frontal-man-silhouette-21" transform="translate(2878.846 1245.776)">
		<g id="Group_11097" transform="translate(0 0)">
			<ellipse id="Ellipse_8123" class="st0" cx="6" cy="103.9" rx="1.9" ry="1.9"/>
			<path id="Path_11597" class="st0" d="M12,114.4c-0.5-6.1-3.5-7.4-3.5-7.4c-1.9-1-4.1-0.8-5.8,0.5c-1.9,1.8-2.4,4.4-2.7,7
				c-0.2,1.3,1.9,1.3,2.1,0c0.1-1.5,0.5-3,1.2-4.4v1.5l0,7.2v5.7c0,0.6,0.4,1.1,1,1.1c0,0,0,0,0,0c0.6,0,1.1-0.5,1.1-1.1v-8.1h1v8.2
				c0,0.6,0.5,1,1.1,1c0.5,0,1-0.4,1-1v-5.7l0.1-7.2c0-0.7,0-1.3,0-1.7c0.7,1.4,1.2,3,1.3,4.5C10.1,115.7,12.1,115.7,12,114.4z"/>
		</g>
	</g>
	<g id="standing-frontal-man-silhouette-22" transform="translate(2878.846 1296.16)">
		<g id="Group_11098" transform="translate(0 0)">
			<ellipse id="Ellipse_8124" class="st0" cx="6" cy="103.9" rx="1.9" ry="1.9"/>
			<path id="Path_11598" class="st0" d="M12,114.4c-0.5-6.1-3.5-7.4-3.5-7.4c-1.9-1-4.1-0.8-5.8,0.5c-1.9,1.8-2.4,4.4-2.7,7
				c-0.2,1.3,1.9,1.3,2.1,0c0.1-1.5,0.5-3,1.2-4.4v1.5l0,7.2v5.7c0,0.6,0.4,1.1,1,1.1c0,0,0,0,0,0c0.6,0,1.1-0.5,1.1-1.1v-8.1h1v8.2
				c0,0.6,0.5,1,1.1,1c0.5,0,1-0.4,1-1v-5.7l0.1-7.2c0-0.7,0-1.3,0-1.7c0.7,1.4,1.2,3,1.3,4.5C10.1,115.7,12.1,115.7,12,114.4z"/>
		</g>
	</g>
	<g id="standing-frontal-man-silhouette-23" transform="translate(2878.846 1346.545)">
		<g id="Group_11099" transform="translate(0 0)">
			<ellipse id="Ellipse_8125" class="st0" cx="6" cy="103.9" rx="1.9" ry="1.9"/>
			<path id="Path_11599" class="st0" d="M12,114.4c-0.5-6.1-3.5-7.4-3.5-7.4c-1.9-1-4.1-0.8-5.8,0.5c-1.9,1.8-2.4,4.4-2.7,7
				c-0.2,1.3,1.9,1.3,2.1,0c0.1-1.5,0.5-3,1.2-4.4v1.5l0,7.2v5.7c0,0.6,0.4,1.1,1,1.1c0,0,0,0,0,0c0.6,0,1.1-0.5,1.1-1.1v-8.1h1v8.2
				c0,0.6,0.5,1,1.1,1c0.5,0,1-0.4,1-1v-5.7l0.1-7.2c0-0.7,0-1.3,0-1.7c0.7,1.4,1.2,3,1.3,4.5C10.1,115.7,12.1,115.7,12,114.4z"/>
		</g>
	</g>
	<g id="standing-frontal-man-silhouette-24" transform="translate(2878.846 1195.611)">
		<g id="Group_11100" transform="translate(0 0)">
			<ellipse id="Ellipse_8126" class="st0" cx="6" cy="103.9" rx="1.9" ry="1.9"/>
			<path id="Path_11600" class="st0" d="M12,114.4c-0.5-6.1-3.5-7.4-3.5-7.4c-1.9-1-4.1-0.8-5.8,0.5c-1.9,1.8-2.4,4.4-2.7,7
				c-0.2,1.3,1.9,1.3,2.1,0c0.1-1.5,0.5-3,1.2-4.4v1.5l0,7.2v5.7c0,0.6,0.4,1.1,1,1.1c0,0,0,0,0,0c0.6,0,1.1-0.5,1.1-1.1v-8.1h1v8.2
				c0,0.6,0.5,1,1.1,1c0.5,0,1-0.4,1-1v-5.7l0.1-7.2c0-0.7,0-1.3,0-1.7c0.7,1.4,1.2,3,1.3,4.5C10.1,115.7,12.1,115.7,12,114.4z"/>
		</g>
	</g>
	<g id="standing-frontal-man-silhouette-25" transform="translate(2824.454 1044.584)">
		<g id="Group_11101" transform="translate(0 0)">
			<ellipse id="Ellipse_8127" class="st0" cx="6" cy="103.9" rx="1.9" ry="1.9"/>
			<path id="Path_11601" class="st0" d="M12,114.4c-0.5-6.1-3.5-7.4-3.5-7.4c-1.9-1-4.1-0.8-5.8,0.5c-1.9,1.8-2.4,4.4-2.7,7
				c-0.2,1.3,1.9,1.3,2.1,0c0.1-1.5,0.5-3,1.2-4.4v1.5l0,7.2v5.7c0,0.6,0.4,1.1,1,1.1c0,0,0,0,0,0c0.6,0,1.1-0.5,1.1-1.1v-8.1h1v8.2
				c0,0.6,0.5,1,1.1,1c0.5,0,1-0.4,1-1v-5.7l0.1-7.2c0-0.7,0-1.3,0-1.7c0.7,1.4,1.2,3,1.3,4.5C10.1,115.7,12.1,115.7,12,114.4z"/>
		</g>
	</g>
	<g id="standing-frontal-man-silhouette-26" transform="translate(2824.454 1094.968)">
		<g id="Group_11102" transform="translate(0 0)">
			<ellipse id="Ellipse_8128" class="st0" cx="6" cy="103.9" rx="1.9" ry="1.9"/>
			<path id="Path_11602" class="st0" d="M12,114.4c-0.5-6.1-3.5-7.4-3.5-7.4c-1.9-1-4.1-0.8-5.8,0.5c-1.9,1.8-2.4,4.4-2.7,7
				c-0.2,1.3,1.9,1.3,2.1,0c0.1-1.5,0.5-3,1.2-4.4v1.5l0,7.2v5.7c0,0.6,0.4,1.1,1,1.1c0,0,0,0,0,0c0.6,0,1.1-0.5,1.1-1.1v-8.1h1v8.2
				c0,0.6,0.5,1,1.1,1c0.5,0,1-0.4,1-1v-5.7l0.1-7.2c0-0.7,0-1.3,0-1.7c0.7,1.4,1.2,3,1.3,4.5C10.1,115.7,12.1,115.7,12,114.4z"/>
		</g>
	</g>
	<g id="standing-frontal-man-silhouette-27" transform="translate(2824.454 1145.353)">
		<g id="Group_11103" transform="translate(0 0)">
			<ellipse id="Ellipse_8129" class="st0" cx="6" cy="103.9" rx="1.9" ry="1.9"/>
			<path id="Path_11603" class="st0" d="M12,114.4c-0.5-6.1-3.5-7.4-3.5-7.4c-1.9-1-4.1-0.8-5.8,0.5c-1.9,1.8-2.4,4.4-2.7,7
				c-0.2,1.3,1.9,1.3,2.1,0c0.1-1.5,0.5-3,1.2-4.4v1.5l0,7.2v5.7c0,0.6,0.4,1.1,1,1.1c0,0,0,0,0,0c0.6,0,1.1-0.5,1.1-1.1v-8.1h1v8.2
				c0,0.6,0.5,1,1.1,1c0.5,0,1-0.4,1-1v-5.7l0.1-7.2c0-0.7,0-1.3,0-1.7c0.7,1.4,1.2,3,1.3,4.5C10.1,115.7,12.1,115.7,12,114.4z"/>
		</g>
	</g>
	<g id="standing-frontal-man-silhouette-28" transform="translate(2824.454 1069.776)">
		<g id="Group_11104" transform="translate(0 0)">
			<ellipse id="Ellipse_8130" class="st0" cx="6" cy="103.9" rx="1.9" ry="1.9"/>
			<path id="Path_11604" class="st0" d="M12,114.4c-0.5-6.1-3.5-7.4-3.5-7.4c-1.9-1-4.1-0.8-5.8,0.5c-1.9,1.8-2.4,4.4-2.7,7
				c-0.2,1.3,1.9,1.3,2.1,0c0.1-1.5,0.5-3,1.2-4.4v1.5l0,7.2v5.7c0,0.6,0.4,1.1,1,1.1c0,0,0,0,0,0c0.6,0,1.1-0.5,1.1-1.1v-8.1h1v8.2
				c0,0.6,0.5,1,1.1,1c0.5,0,1-0.4,1-1v-5.7l0.1-7.2c0-0.7,0-1.3,0-1.7c0.7,1.4,1.2,3,1.3,4.5C10.1,115.7,12.1,115.7,12,114.4z"/>
		</g>
	</g>
	<g id="standing-frontal-man-silhouette-29" transform="translate(2824.454 1120.16)">
		<g id="Group_11105" transform="translate(0 0)">
			<ellipse id="Ellipse_8131" class="st0" cx="6" cy="103.9" rx="1.9" ry="1.9"/>
			<path id="Path_11605" class="st0" d="M12,114.4c-0.5-6.1-3.5-7.4-3.5-7.4c-1.9-1-4.1-0.8-5.8,0.5c-1.9,1.8-2.4,4.4-2.7,7
				c-0.2,1.3,1.9,1.3,2.1,0c0.1-1.5,0.5-3,1.2-4.4v1.5l0,7.2v5.7c0,0.6,0.4,1.1,1,1.1c0,0,0,0,0,0c0.6,0,1.1-0.5,1.1-1.1v-8.1h1v8.2
				c0,0.6,0.5,1,1.1,1c0.5,0,1-0.4,1-1v-5.7l0.1-7.2c0-0.7,0-1.3,0-1.7c0.7,1.4,1.2,3,1.3,4.5C10.1,115.7,12.1,115.7,12,114.4z"/>
		</g>
	</g>
	<g id="standing-frontal-man-silhouette-30" transform="translate(2824.454 1170.545)">
		<g id="Group_11106" transform="translate(0 0)">
			<ellipse id="Ellipse_8132" class="st0" cx="6" cy="103.9" rx="1.9" ry="1.9"/>
			<path id="Path_11606" class="st0" d="M12,114.4c-0.5-6.1-3.5-7.4-3.5-7.4c-1.9-1-4.1-0.8-5.8,0.5c-1.9,1.8-2.4,4.4-2.7,7
				c-0.2,1.3,1.9,1.3,2.1,0c0.1-1.5,0.5-3,1.2-4.4v1.5l0,7.2v5.7c0,0.6,0.4,1.1,1,1.1c0,0,0,0,0,0c0.6,0,1.1-0.5,1.1-1.1v-8.1h1v8.2
				c0,0.6,0.5,1,1.1,1c0.5,0,1-0.4,1-1v-5.7l0.1-7.2c0-0.7,0-1.3,0-1.7c0.7,1.4,1.2,3,1.3,4.5C10.1,115.7,12.1,115.7,12,114.4z"/>
		</g>
	</g>
	<g id="standing-frontal-man-silhouette-31" transform="translate(2879.259 1094.968)">
		<g id="Group_11107" transform="translate(0 0)">
			<ellipse id="Ellipse_8133" class="st0" cx="6" cy="103.9" rx="1.9" ry="1.9"/>
			<path id="Path_11607" class="st0" d="M12,114.4c-0.5-6.1-3.5-7.4-3.5-7.4c-1.9-1-4.1-0.8-5.8,0.5c-1.9,1.8-2.4,4.4-2.7,7
				c-0.2,1.3,1.9,1.3,2.1,0c0.1-1.5,0.5-3,1.2-4.4v1.5l0,7.2v5.7c0,0.6,0.4,1.1,1,1.1c0,0,0,0,0,0c0.6,0,1.1-0.5,1.1-1.1v-8.1h1v8.2
				c0,0.6,0.5,1,1.1,1c0.5,0,1-0.4,1-1v-5.7l0.1-7.2c0-0.7,0-1.3,0-1.7c0.7,1.4,1.2,3,1.3,4.5C10.1,115.7,12.1,115.7,12,114.4z"/>
		</g>
	</g>
	<g id="standing-frontal-man-silhouette-32" transform="translate(2879.259 1145.353)">
		<g id="Group_11108" transform="translate(0 0)">
			<ellipse id="Ellipse_8134" class="st0" cx="6" cy="103.9" rx="1.9" ry="1.9"/>
			<path id="Path_11608" class="st0" d="M12,114.4c-0.5-6.1-3.5-7.4-3.5-7.4c-1.9-1-4.1-0.8-5.8,0.5c-1.9,1.8-2.4,4.4-2.7,7
				c-0.2,1.3,1.9,1.3,2.1,0c0.1-1.5,0.5-3,1.2-4.4v1.5l0,7.2v5.7c0,0.6,0.4,1.1,1,1.1c0,0,0,0,0,0c0.6,0,1.1-0.5,1.1-1.1v-8.1h1v8.2
				c0,0.6,0.5,1,1.1,1c0.5,0,1-0.4,1-1v-5.7l0.1-7.2c0-0.7,0-1.3,0-1.7c0.7,1.4,1.2,3,1.3,4.5C10.1,115.7,12.1,115.7,12,114.4z"/>
		</g>
	</g>
	<g id="standing-frontal-man-silhouette-33" transform="translate(2879.259 1069.776)">
		<g id="Group_11109" transform="translate(0 0)">
			<ellipse id="Ellipse_8135" class="st0" cx="6" cy="103.9" rx="1.9" ry="1.9"/>
			<path id="Path_11609" class="st0" d="M12,114.4c-0.5-6.1-3.5-7.4-3.5-7.4c-1.9-1-4.1-0.8-5.8,0.5c-1.9,1.8-2.4,4.4-2.7,7
				c-0.2,1.3,1.9,1.3,2.1,0c0.1-1.5,0.5-3,1.2-4.4v1.5l0,7.2v5.7c0,0.6,0.4,1.1,1,1.1c0,0,0,0,0,0c0.6,0,1.1-0.5,1.1-1.1v-8.1h1v8.2
				c0,0.6,0.5,1,1.1,1c0.5,0,1-0.4,1-1v-5.7l0.1-7.2c0-0.7,0-1.3,0-1.7c0.7,1.4,1.2,3,1.3,4.5C10.1,115.7,12.1,115.7,12,114.4z"/>
		</g>
	</g>
	<g id="standing-frontal-man-silhouette-34" transform="translate(2879.259 1120.16)">
		<g id="Group_11110" transform="translate(0 0)">
			<ellipse id="Ellipse_8136" class="st0" cx="6" cy="103.9" rx="1.9" ry="1.9"/>
			<path id="Path_11610" class="st0" d="M12,114.4c-0.5-6.1-3.5-7.4-3.5-7.4c-1.9-1-4.1-0.8-5.8,0.5c-1.9,1.8-2.4,4.4-2.7,7
				c-0.2,1.3,1.9,1.3,2.1,0c0.1-1.5,0.5-3,1.2-4.4v1.5l0,7.2v5.7c0,0.6,0.4,1.1,1,1.1c0,0,0,0,0,0c0.6,0,1.1-0.5,1.1-1.1v-8.1h1v8.2
				c0,0.6,0.5,1,1.1,1c0.5,0,1-0.4,1-1v-5.7l0.1-7.2c0-0.7,0-1.3,0-1.7c0.7,1.4,1.2,3,1.3,4.5C10.1,115.7,12.1,115.7,12,114.4z"/>
		</g>
	</g>
	<g id="standing-frontal-man-silhouette-35" transform="translate(2879.259 1170.545)">
		<g id="Group_11111" transform="translate(0 0)">
			<ellipse id="Ellipse_8137" class="st0" cx="6" cy="103.9" rx="1.9" ry="1.9"/>
			<path id="Path_11611" class="st0" d="M12,114.4c-0.5-6.1-3.5-7.4-3.5-7.4c-1.9-1-4.1-0.8-5.8,0.5c-1.9,1.8-2.4,4.4-2.7,7
				c-0.2,1.3,1.9,1.3,2.1,0c0.1-1.5,0.5-3,1.2-4.4v1.5l0,7.2v5.7c0,0.6,0.4,1.1,1,1.1c0,0,0,0,0,0c0.6,0,1.1-0.5,1.1-1.1v-8.1h1v8.2
				c0,0.6,0.5,1,1.1,1c0.5,0,1-0.4,1-1v-5.7l0.1-7.2c0-0.7,0-1.3,0-1.7c0.7,1.4,1.2,3,1.3,4.5C10.1,115.7,12.1,115.7,12,114.4z"/>
		</g>
	</g>
	<g id="standing-frontal-man-silhouette-36" transform="translate(2851.444 1220.584)">
		<g id="Group_11112" transform="translate(0 0)">
			<ellipse id="Ellipse_8138" class="st0" cx="6" cy="103.9" rx="1.9" ry="1.9"/>
			<path id="Path_11612" class="st0" d="M12,114.4c-0.5-6.1-3.5-7.4-3.5-7.4c-1.9-1-4.1-0.8-5.8,0.5c-1.9,1.8-2.4,4.4-2.7,7
				c-0.2,1.3,1.9,1.3,2.1,0c0.1-1.5,0.5-3,1.2-4.4v1.5l0,7.2v5.7c0,0.6,0.4,1.1,1,1.1c0,0,0,0,0,0c0.6,0,1.1-0.5,1.1-1.1v-8.1h1v8.2
				c0,0.6,0.5,1,1.1,1c0.5,0,1-0.4,1-1v-5.7l0.1-7.2c0-0.7,0-1.3,0-1.7c0.7,1.4,1.2,3,1.3,4.5C10.1,115.7,12.1,115.7,12,114.4z"/>
		</g>
	</g>
	<g id="standing-frontal-man-silhouette-37" transform="translate(2879.705 1044.584)">
		<g id="Group_11113" transform="translate(0 0)">
			<ellipse id="Ellipse_8139" class="st0" cx="6" cy="103.9" rx="1.9" ry="1.9"/>
			<path id="Path_11613" class="st0" d="M12,114.4c-0.5-6.1-3.5-7.4-3.5-7.4c-1.9-1-4.1-0.8-5.8,0.5c-1.9,1.8-2.4,4.4-2.7,7
				c-0.2,1.3,1.9,1.3,2.1,0c0.1-1.5,0.5-3,1.2-4.4v1.5l0,7.2v5.7c0,0.6,0.4,1.1,1,1.1c0,0,0,0,0,0c0.6,0,1.1-0.5,1.1-1.1v-8.1h1v8.2
				c0,0.6,0.5,1,1.1,1c0.5,0,1-0.4,1-1v-5.7l0.1-7.2c0-0.7,0-1.3,0-1.7c0.7,1.4,1.2,3,1.3,4.5C10.1,115.7,12.1,115.7,12,114.4z"/>
		</g>
	</g>
	<g id="standing-frontal-man-silhouette-38" transform="translate(2851.444 1270.968)">
		<g id="Group_11114" transform="translate(0 0)">
			<ellipse id="Ellipse_8140" class="st0" cx="6" cy="103.9" rx="1.9" ry="1.9"/>
			<path id="Path_11614" class="st0" d="M12,114.4c-0.5-6.1-3.5-7.4-3.5-7.4c-1.9-1-4.1-0.8-5.8,0.5c-1.9,1.8-2.4,4.4-2.7,7
				c-0.2,1.3,1.9,1.3,2.1,0c0.1-1.5,0.5-3,1.2-4.4v1.5l0,7.2v5.7c0,0.6,0.4,1.1,1,1.1c0,0,0,0,0,0c0.6,0,1.1-0.5,1.1-1.1v-8.1h1v8.2
				c0,0.6,0.5,1,1.1,1c0.5,0,1-0.4,1-1v-5.7l0.1-7.2c0-0.7,0-1.3,0-1.7c0.7,1.4,1.2,3,1.3,4.5C10.1,115.7,12.1,115.7,12,114.4z"/>
		</g>
	</g>
	<g id="standing-frontal-man-silhouette-39" transform="translate(2851.444 1321.353)">
		<g id="Group_11115" transform="translate(0 0)">
			<ellipse id="Ellipse_8141" class="st0" cx="6" cy="103.9" rx="1.9" ry="1.9"/>
			<path id="Path_11615" class="st0" d="M12,114.4c-0.5-6.1-3.5-7.4-3.5-7.4c-1.9-1-4.1-0.8-5.8,0.5c-1.9,1.8-2.4,4.4-2.7,7
				c-0.2,1.3,1.9,1.3,2.1,0c0.1-1.5,0.5-3,1.2-4.4v1.5l0,7.2v5.7c0,0.6,0.4,1.1,1,1.1c0,0,0,0,0,0c0.6,0,1.1-0.5,1.1-1.1v-8.1h1v8.2
				c0,0.6,0.5,1,1.1,1c0.5,0,1-0.4,1-1v-5.7l0.1-7.2c0-0.7,0-1.3,0-1.7c0.7,1.4,1.2,3,1.3,4.5C10.1,115.7,12.1,115.7,12,114.4z"/>
		</g>
	</g>
	<g id="standing-frontal-man-silhouette-40" transform="translate(2851.444 1245.776)">
		<g id="Group_11116" transform="translate(0 0)">
			<ellipse id="Ellipse_8142" class="st0" cx="6" cy="103.9" rx="1.9" ry="1.9"/>
			<path id="Path_11616" class="st0" d="M12,114.4c-0.5-6.1-3.5-7.4-3.5-7.4c-1.9-1-4.1-0.8-5.8,0.5c-1.9,1.8-2.4,4.4-2.7,7
				c-0.2,1.3,1.9,1.3,2.1,0c0.1-1.5,0.5-3,1.2-4.4v1.5l0,7.2v5.7c0,0.6,0.4,1.1,1,1.1c0,0,0,0,0,0c0.6,0,1.1-0.5,1.1-1.1v-8.1h1v8.2
				c0,0.6,0.5,1,1.1,1c0.5,0,1-0.4,1-1v-5.7l0.1-7.2c0-0.7,0-1.3,0-1.7c0.7,1.4,1.2,3,1.3,4.5C10.1,115.7,12.1,115.7,12,114.4z"/>
		</g>
	</g>
	<g id="standing-frontal-man-silhouette-41" transform="translate(2851.444 1296.16)">
		<g id="Group_11117" transform="translate(0 0)">
			<ellipse id="Ellipse_8143" class="st0" cx="6" cy="103.9" rx="1.9" ry="1.9"/>
			<path id="Path_11617" class="st0" d="M12,114.4c-0.5-6.1-3.5-7.4-3.5-7.4c-1.9-1-4.1-0.8-5.8,0.5c-1.9,1.8-2.4,4.4-2.7,7
				c-0.2,1.3,1.9,1.3,2.1,0c0.1-1.5,0.5-3,1.2-4.4v1.5l0,7.2v5.7c0,0.6,0.4,1.1,1,1.1c0,0,0,0,0,0c0.6,0,1.1-0.5,1.1-1.1v-8.1h1v8.2
				c0,0.6,0.5,1,1.1,1c0.5,0,1-0.4,1-1v-5.7l0.1-7.2c0-0.7,0-1.3,0-1.7c0.7,1.4,1.2,3,1.3,4.5C10.1,115.7,12.1,115.7,12,114.4z"/>
		</g>
	</g>
	<g id="standing-frontal-man-silhouette-42" transform="translate(2851.444 1346.545)">
		<g id="Group_11118" transform="translate(0 0)">
			<ellipse id="Ellipse_8144" class="st0" cx="6" cy="103.9" rx="1.9" ry="1.9"/>
			<path id="Path_11618" class="st0" d="M12,114.4c-0.5-6.1-3.5-7.4-3.5-7.4c-1.9-1-4.1-0.8-5.8,0.5c-1.9,1.8-2.4,4.4-2.7,7
				c-0.2,1.3,1.9,1.3,2.1,0c0.1-1.5,0.5-3,1.2-4.4v1.5l0,7.2v5.7c0,0.6,0.4,1.1,1,1.1c0,0,0,0,0,0c0.6,0,1.1-0.5,1.1-1.1v-8.1h1v8.2
				c0,0.6,0.5,1,1.1,1c0.5,0,1-0.4,1-1v-5.7l0.1-7.2c0-0.7,0-1.3,0-1.7c0.7,1.4,1.2,3,1.3,4.5C10.1,115.7,12.1,115.7,12,114.4z"/>
		</g>
	</g>
	<g id="standing-frontal-man-silhouette-43" transform="translate(2851.444 1195.611)">
		<g id="Group_11119" transform="translate(0 0)">
			<ellipse id="Ellipse_8145" class="st0" cx="6" cy="103.9" rx="1.9" ry="1.9"/>
			<path id="Path_11619" class="st0" d="M12,114.4c-0.5-6.1-3.5-7.4-3.5-7.4c-1.9-1-4.1-0.8-5.8,0.5c-1.9,1.8-2.4,4.4-2.7,7
				c-0.2,1.3,1.9,1.3,2.1,0c0.1-1.5,0.5-3,1.2-4.4v1.5l0,7.2v5.7c0,0.6,0.4,1.1,1,1.1c0,0,0,0,0,0c0.6,0,1.1-0.5,1.1-1.1v-8.1h1v8.2
				c0,0.6,0.5,1,1.1,1c0.5,0,1-0.4,1-1v-5.7l0.1-7.2c0-0.7,0-1.3,0-1.7c0.7,1.4,1.2,3,1.3,4.5C10.1,115.7,12.1,115.7,12,114.4z"/>
		</g>
	</g>
	<g id="standing-frontal-man-silhouette-44" transform="translate(2852.053 943.968)">
		<g id="Group_11121" transform="translate(0 0)">
			<ellipse id="Ellipse_8147" class="st0" cx="6" cy="103.9" rx="1.9" ry="1.9"/>
			<path id="Path_11621" class="st0" d="M12,114.4c-0.5-6.1-3.5-7.4-3.5-7.4c-1.9-1-4.1-0.8-5.8,0.5c-1.9,1.8-2.4,4.4-2.7,7
				c-0.2,1.3,1.9,1.3,2.1,0c0.1-1.5,0.5-3,1.2-4.4v1.5l0,7.2v5.7c0,0.6,0.4,1.1,1,1.1c0,0,0,0,0,0c0.6,0,1.1-0.5,1.1-1.1v-8.1h1v8.2
				c0,0.6,0.5,1,1.1,1c0.5,0,1-0.4,1-1v-5.7l0.1-7.2c0-0.7,0-1.3,0-1.7c0.7,1.4,1.2,3,1.3,4.5C10.1,115.7,12.1,115.7,12,114.4z"/>
		</g>
	</g>
	<g id="standing-frontal-man-silhouette-45" transform="translate(2852.053 994.353)">
		<g id="Group_11122" transform="translate(0 0)">
			<ellipse id="Ellipse_8148" class="st0" cx="6" cy="103.9" rx="1.9" ry="1.9"/>
			<path id="Path_11622" class="st0" d="M12,114.4c-0.5-6.1-3.5-7.4-3.5-7.4c-1.9-1-4.1-0.8-5.8,0.5c-1.9,1.8-2.4,4.4-2.7,7
				c-0.2,1.3,1.9,1.3,2.1,0c0.1-1.5,0.5-3,1.2-4.4v1.5l0,7.2v5.7c0,0.6,0.4,1.1,1,1.1c0,0,0,0,0,0c0.6,0,1.1-0.5,1.1-1.1v-8.1h1v8.2
				c0,0.6,0.5,1,1.1,1c0.5,0,1-0.4,1-1v-5.7l0.1-7.2c0-0.7,0-1.3,0-1.7c0.7,1.4,1.2,3,1.3,4.5C10.1,115.7,12.1,115.7,12,114.4z"/>
		</g>
	</g>
	<g id="standing-frontal-man-silhouette-46" transform="translate(2907.053 994.353)">
		<g id="Group_11122-2" transform="translate(0 0)">
			<ellipse id="Ellipse_8148-2" class="st0" cx="6" cy="103.9" rx="1.9" ry="1.9"/>
			<path id="Path_11622-2" class="st0" d="M12,114.4c-0.5-6.1-3.5-7.4-3.5-7.4c-1.9-1-4.1-0.8-5.8,0.5c-1.9,1.8-2.4,4.4-2.7,7
				c-0.2,1.3,1.9,1.3,2.1,0c0.1-1.5,0.5-3,1.2-4.4v1.5l0,7.2v5.7c0,0.6,0.4,1.1,1,1.1c0,0,0,0,0,0c0.6,0,1.1-0.5,1.1-1.1v-8.1h1v8.2
				c0,0.6,0.5,1,1.1,1c0.5,0,1-0.4,1-1v-5.7l0.1-7.2c0-0.7,0-1.3,0-1.7c0.7,1.4,1.2,3,1.3,4.5C10.1,115.7,12.1,115.7,12,114.4z"/>
		</g>
	</g>
	<g id="standing-frontal-man-silhouette-47" transform="translate(2852.053 969.16)">
		<g id="Group_11124" transform="translate(0 0)">
			<ellipse id="Ellipse_8150" class="st0" cx="6" cy="103.9" rx="1.9" ry="1.9"/>
			<path id="Path_11624" class="st0" d="M12,114.4c-0.5-6.1-3.5-7.4-3.5-7.4c-1.9-1-4.1-0.8-5.8,0.5c-1.9,1.8-2.4,4.4-2.7,7
				c-0.2,1.3,1.9,1.3,2.1,0c0.1-1.5,0.5-3,1.2-4.4v1.5l0,7.2v5.7c0,0.6,0.4,1.1,1,1.1c0,0,0,0,0,0c0.6,0,1.1-0.5,1.1-1.1v-8.1h1v8.2
				c0,0.6,0.5,1,1.1,1c0.5,0,1-0.4,1-1v-5.7l0.1-7.2c0-0.7,0-1.3,0-1.7c0.7,1.4,1.2,3,1.3,4.5C10.1,115.7,12.1,115.7,12,114.4z"/>
		</g>
	</g>
	<g id="standing-frontal-man-silhouette-48" transform="translate(2907.053 969.16)">
		<g id="Group_11124-2" transform="translate(0 0)">
			<ellipse id="Ellipse_8150-2" class="st0" cx="6" cy="103.9" rx="1.9" ry="1.9"/>
			<path id="Path_11624-2" class="st0" d="M12,114.4c-0.5-6.1-3.5-7.4-3.5-7.4c-1.9-1-4.1-0.8-5.8,0.5c-1.9,1.8-2.4,4.4-2.7,7
				c-0.2,1.3,1.9,1.3,2.1,0c0.1-1.5,0.5-3,1.2-4.4v1.5l0,7.2v5.7c0,0.6,0.4,1.1,1,1.1c0,0,0,0,0,0c0.6,0,1.1-0.5,1.1-1.1v-8.1h1v8.2
				c0,0.6,0.5,1,1.1,1c0.5,0,1-0.4,1-1v-5.7l0.1-7.2c0-0.7,0-1.3,0-1.7c0.7,1.4,1.2,3,1.3,4.5C10.1,115.7,12.1,115.7,12,114.4z"/>
		</g>
	</g>
	<g id="standing-frontal-man-silhouette-49" transform="translate(2852.053 1019.545)">
		<g id="Group_11125" transform="translate(0 0)">
			<ellipse id="Ellipse_8151" class="st0" cx="6" cy="103.9" rx="1.9" ry="1.9"/>
			<path id="Path_11625" class="st0" d="M12,114.4c-0.5-6.1-3.5-7.4-3.5-7.4c-1.9-1-4.1-0.8-5.8,0.5c-1.9,1.8-2.4,4.4-2.7,7
				c-0.2,1.3,1.9,1.3,2.1,0c0.1-1.5,0.5-3,1.2-4.4v1.5l0,7.2v5.7c0,0.6,0.4,1.1,1,1.1c0,0,0,0,0,0c0.6,0,1.1-0.5,1.1-1.1v-8.1h1v8.2
				c0,0.6,0.5,1,1.1,1c0.5,0,1-0.4,1-1v-5.7l0.1-7.2c0-0.7,0-1.3,0-1.7c0.7,1.4,1.2,3,1.3,4.5C10.1,115.7,12.1,115.7,12,114.4z"/>
		</g>
	</g>
	<g id="standing-frontal-man-silhouette-50" transform="translate(2907.053 1019.545)">
		<g id="Group_11125-2" transform="translate(0 0)">
			<ellipse id="Ellipse_8151-2" class="st0" cx="6" cy="103.9" rx="1.9" ry="1.9"/>
			<path id="Path_11625-2" class="st0" d="M12,114.4c-0.5-6.1-3.5-7.4-3.5-7.4c-1.9-1-4.1-0.8-5.8,0.5c-1.9,1.8-2.4,4.4-2.7,7
				c-0.2,1.3,1.9,1.3,2.1,0c0.1-1.5,0.5-3,1.2-4.4v1.5l0,7.2v5.7c0,0.6,0.4,1.1,1,1.1c0,0,0,0,0,0c0.6,0,1.1-0.5,1.1-1.1v-8.1h1v8.2
				c0,0.6,0.5,1,1.1,1c0.5,0,1-0.4,1-1v-5.7l0.1-7.2c0-0.7,0-1.3,0-1.7c0.7,1.4,1.2,3,1.3,4.5C10.1,115.7,12.1,115.7,12,114.4z"/>
		</g>
	</g>
	<g id="standing-frontal-man-silhouette-51" transform="translate(2906.249 1220.584)">
		<g id="Group_11127" transform="translate(0 0)">
			<ellipse id="Ellipse_8153" class="st0" cx="6" cy="103.9" rx="1.9" ry="1.9"/>
			<path id="Path_11627" class="st0" d="M12,114.4c-0.5-6.1-3.5-7.4-3.5-7.4c-1.9-1-4.1-0.8-5.8,0.5c-1.9,1.8-2.4,4.4-2.7,7
				c-0.2,1.3,1.9,1.3,2.1,0c0.1-1.5,0.5-3,1.2-4.4v1.5l0,7.2v5.7c0,0.6,0.4,1.1,1,1.1c0,0,0,0,0,0c0.6,0,1.1-0.5,1.1-1.1v-8.1h1v8.2
				c0,0.6,0.5,1,1.1,1c0.5,0,1-0.4,1-1v-5.7l0.1-7.2c0-0.7,0-1.3,0-1.7c0.7,1.4,1.2,3,1.3,4.5C10.1,115.7,12.1,115.7,12,114.4z"/>
		</g>
	</g>
	<g id="standing-frontal-man-silhouette-52" transform="translate(2906.249 1270.968)">
		<g id="Group_11128" transform="translate(0 0)">
			<ellipse id="Ellipse_8154" class="st0" cx="6" cy="103.9" rx="1.9" ry="1.9"/>
			<path id="Path_11628" class="st0" d="M12,114.4c-0.5-6.1-3.5-7.4-3.5-7.4c-1.9-1-4.1-0.8-5.8,0.5c-1.9,1.8-2.4,4.4-2.7,7
				c-0.2,1.3,1.9,1.3,2.1,0c0.1-1.5,0.5-3,1.2-4.4v1.5l0,7.2v5.7c0,0.6,0.4,1.1,1,1.1c0,0,0,0,0,0c0.6,0,1.1-0.5,1.1-1.1v-8.1h1v8.2
				c0,0.6,0.5,1,1.1,1c0.5,0,1-0.4,1-1v-5.7l0.1-7.2c0-0.7,0-1.3,0-1.7c0.7,1.4,1.2,3,1.3,4.5C10.1,115.7,12.1,115.7,12,114.4z"/>
		</g>
	</g>
	<g id="standing-frontal-man-silhouette-53" transform="translate(2906.249 1321.353)">
		<g id="Group_11129" transform="translate(0 0)">
			<ellipse id="Ellipse_8155" class="st0" cx="6" cy="103.9" rx="1.9" ry="1.9"/>
			<path id="Path_11629" class="st0" d="M12,114.4c-0.5-6.1-3.5-7.4-3.5-7.4c-1.9-1-4.1-0.8-5.8,0.5c-1.9,1.8-2.4,4.4-2.7,7
				c-0.2,1.3,1.9,1.3,2.1,0c0.1-1.5,0.5-3,1.2-4.4v1.5l0,7.2v5.7c0,0.6,0.4,1.1,1,1.1c0,0,0,0,0,0c0.6,0,1.1-0.5,1.1-1.1v-8.1h1v8.2
				c0,0.6,0.5,1,1.1,1c0.5,0,1-0.4,1-1v-5.7l0.1-7.2c0-0.7,0-1.3,0-1.7c0.7,1.4,1.2,3,1.3,4.5C10.1,115.7,12.1,115.7,12,114.4z"/>
		</g>
	</g>
	<g id="standing-frontal-man-silhouette-54" transform="translate(2906.249 1245.776)">
		<g id="Group_11130" transform="translate(0 0)">
			<ellipse id="Ellipse_8156" class="st0" cx="6" cy="103.9" rx="1.9" ry="1.9"/>
			<path id="Path_11630" class="st0" d="M12,114.4c-0.5-6.1-3.5-7.4-3.5-7.4c-1.9-1-4.1-0.8-5.8,0.5c-1.9,1.8-2.4,4.4-2.7,7
				c-0.2,1.3,1.9,1.3,2.1,0c0.1-1.5,0.5-3,1.2-4.4v1.5l0,7.2v5.7c0,0.6,0.4,1.1,1,1.1c0,0,0,0,0,0c0.6,0,1.1-0.5,1.1-1.1v-8.1h1v8.2
				c0,0.6,0.5,1,1.1,1c0.5,0,1-0.4,1-1v-5.7l0.1-7.2c0-0.7,0-1.3,0-1.7c0.7,1.4,1.2,3,1.3,4.5C10.1,115.7,12.1,115.7,12,114.4z"/>
		</g>
	</g>
	<g id="standing-frontal-man-silhouette-55" transform="translate(2906.249 1296.16)">
		<g id="Group_11131" transform="translate(0 0)">
			<ellipse id="Ellipse_8157" class="st0" cx="6" cy="103.9" rx="1.9" ry="1.9"/>
			<path id="Path_11631" class="st0" d="M12,114.4c-0.5-6.1-3.5-7.4-3.5-7.4c-1.9-1-4.1-0.8-5.8,0.5c-1.9,1.8-2.4,4.4-2.7,7
				c-0.2,1.3,1.9,1.3,2.1,0c0.1-1.5,0.5-3,1.2-4.4v1.5l0,7.2v5.7c0,0.6,0.4,1.1,1,1.1c0,0,0,0,0,0c0.6,0,1.1-0.5,1.1-1.1v-8.1h1v8.2
				c0,0.6,0.5,1,1.1,1c0.5,0,1-0.4,1-1v-5.7l0.1-7.2c0-0.7,0-1.3,0-1.7c0.7,1.4,1.2,3,1.3,4.5C10.1,115.7,12.1,115.7,12,114.4z"/>
		</g>
	</g>
	<g id="standing-frontal-man-silhouette-56" transform="translate(2906.249 1346.545)">
		<g id="Group_11132" transform="translate(0 0)">
			<ellipse id="Ellipse_8158" class="st0" cx="6" cy="103.9" rx="1.9" ry="1.9"/>
			<path id="Path_11632" class="st0" d="M12,114.4c-0.5-6.1-3.5-7.4-3.5-7.4c-1.9-1-4.1-0.8-5.8,0.5c-1.9,1.8-2.4,4.4-2.7,7
				c-0.2,1.3,1.9,1.3,2.1,0c0.1-1.5,0.5-3,1.2-4.4v1.5l0,7.2v5.7c0,0.6,0.4,1.1,1,1.1c0,0,0,0,0,0c0.6,0,1.1-0.5,1.1-1.1v-8.1h1v8.2
				c0,0.6,0.5,1,1.1,1c0.5,0,1-0.4,1-1v-5.7l0.1-7.2c0-0.7,0-1.3,0-1.7c0.7,1.4,1.2,3,1.3,4.5C10.1,115.7,12.1,115.7,12,114.4z"/>
		</g>
	</g>
	<g id="standing-frontal-man-silhouette-57" transform="translate(2906.249 1195.611)">
		<g id="Group_11133" transform="translate(0 0)">
			<ellipse id="Ellipse_8159" class="st0" cx="6" cy="103.9" rx="1.9" ry="1.9"/>
			<path id="Path_11633" class="st0" d="M12,114.4c-0.5-6.1-3.5-7.4-3.5-7.4c-1.9-1-4.1-0.8-5.8,0.5c-1.9,1.8-2.4,4.4-2.7,7
				c-0.2,1.3,1.9,1.3,2.1,0c0.1-1.5,0.5-3,1.2-4.4v1.5l0,7.2v5.7c0,0.6,0.4,1.1,1,1.1c0,0,0,0,0,0c0.6,0,1.1-0.5,1.1-1.1v-8.1h1v8.2
				c0,0.6,0.5,1,1.1,1c0.5,0,1-0.4,1-1v-5.7l0.1-7.2c0-0.7,0-1.3,0-1.7c0.7,1.4,1.2,3,1.3,4.5C10.1,115.7,12.1,115.7,12,114.4z"/>
		</g>
	</g>
	<g id="standing-frontal-man-silhouette-58" transform="translate(2851.856 1094.968)">
		<g id="Group_11134" transform="translate(0 0)">
			<ellipse id="Ellipse_8160" class="st0" cx="6" cy="103.9" rx="1.9" ry="1.9"/>
			<path id="Path_11634" class="st0" d="M12,114.4c-0.5-6.1-3.5-7.4-3.5-7.4c-1.9-1-4.1-0.8-5.8,0.5c-1.9,1.8-2.4,4.4-2.7,7
				c-0.2,1.3,1.9,1.3,2.1,0c0.1-1.5,0.5-3,1.2-4.4v1.5l0,7.2v5.7c0,0.6,0.4,1.1,1,1.1c0,0,0,0,0,0c0.6,0,1.1-0.5,1.1-1.1v-8.1h1v8.2
				c0,0.6,0.5,1,1.1,1c0.5,0,1-0.4,1-1v-5.7l0.1-7.2c0-0.7,0-1.3,0-1.7c0.7,1.4,1.2,3,1.3,4.5C10.1,115.7,12.1,115.7,12,114.4z"/>
		</g>
	</g>
	<g id="standing-frontal-man-silhouette-59" transform="translate(2851.856 1145.353)">
		<g id="Group_11135" transform="translate(0 0)">
			<ellipse id="Ellipse_8161" class="st0" cx="6" cy="103.9" rx="1.9" ry="1.9"/>
			<path id="Path_11635" class="st0" d="M12,114.4c-0.5-6.1-3.5-7.4-3.5-7.4c-1.9-1-4.1-0.8-5.8,0.5c-1.9,1.8-2.4,4.4-2.7,7
				c-0.2,1.3,1.9,1.3,2.1,0c0.1-1.5,0.5-3,1.2-4.4v1.5l0,7.2v5.7c0,0.6,0.4,1.1,1,1.1c0,0,0,0,0,0c0.6,0,1.1-0.5,1.1-1.1v-8.1h1v8.2
				c0,0.6,0.5,1,1.1,1c0.5,0,1-0.4,1-1v-5.7l0.1-7.2c0-0.7,0-1.3,0-1.7c0.7,1.4,1.2,3,1.3,4.5C10.1,115.7,12.1,115.7,12,114.4z"/>
		</g>
	</g>
	<g id="standing-frontal-man-silhouette-60" transform="translate(2851.856 1069.776)">
		<g id="Group_11136" transform="translate(0 0)">
			<ellipse id="Ellipse_8162" class="st0" cx="6" cy="103.9" rx="1.9" ry="1.9"/>
			<path id="Path_11636" class="st0" d="M12,114.4c-0.5-6.1-3.5-7.4-3.5-7.4c-1.9-1-4.1-0.8-5.8,0.5c-1.9,1.8-2.4,4.4-2.7,7
				c-0.2,1.3,1.9,1.3,2.1,0c0.1-1.5,0.5-3,1.2-4.4v1.5l0,7.2v5.7c0,0.6,0.4,1.1,1,1.1c0,0,0,0,0,0c0.6,0,1.1-0.5,1.1-1.1v-8.1h1v8.2
				c0,0.6,0.5,1,1.1,1c0.5,0,1-0.4,1-1v-5.7l0.1-7.2c0-0.7,0-1.3,0-1.7c0.7,1.4,1.2,3,1.3,4.5C10.1,115.7,12.1,115.7,12,114.4z"/>
		</g>
	</g>
	<g id="standing-frontal-man-silhouette-61" transform="translate(2851.856 1120.16)">
		<g id="Group_11137" transform="translate(0 0)">
			<ellipse id="Ellipse_8163" class="st0" cx="6" cy="103.9" rx="1.9" ry="1.9"/>
			<path id="Path_11637" class="st0" d="M12,114.4c-0.5-6.1-3.5-7.4-3.5-7.4c-1.9-1-4.1-0.8-5.8,0.5c-1.9,1.8-2.4,4.4-2.7,7
				c-0.2,1.3,1.9,1.3,2.1,0c0.1-1.5,0.5-3,1.2-4.4v1.5l0,7.2v5.7c0,0.6,0.4,1.1,1,1.1c0,0,0,0,0,0c0.6,0,1.1-0.5,1.1-1.1v-8.1h1v8.2
				c0,0.6,0.5,1,1.1,1c0.5,0,1-0.4,1-1v-5.7l0.1-7.2c0-0.7,0-1.3,0-1.7c0.7,1.4,1.2,3,1.3,4.5C10.1,115.7,12.1,115.7,12,114.4z"/>
		</g>
	</g>
	<g id="standing-frontal-man-silhouette-62" transform="translate(2851.856 1170.545)">
		<g id="Group_11138" transform="translate(0 0)">
			<ellipse id="Ellipse_8164" class="st0" cx="6" cy="103.9" rx="1.9" ry="1.9"/>
			<path id="Path_11638" class="st0" d="M12,114.4c-0.5-6.1-3.5-7.4-3.5-7.4c-1.9-1-4.1-0.8-5.8,0.5c-1.9,1.8-2.4,4.4-2.7,7
				c-0.2,1.3,1.9,1.3,2.1,0c0.1-1.5,0.5-3,1.2-4.4v1.5l0,7.2v5.7c0,0.6,0.4,1.1,1,1.1c0,0,0,0,0,0c0.6,0,1.1-0.5,1.1-1.1v-8.1h1v8.2
				c0,0.6,0.5,1,1.1,1c0.5,0,1-0.4,1-1v-5.7l0.1-7.2c0-0.7,0-1.3,0-1.7c0.7,1.4,1.2,3,1.3,4.5C10.1,115.7,12.1,115.7,12,114.4z"/>
		</g>
	</g>
	<g id="standing-frontal-man-silhouette-63" transform="translate(2906.66 1094.968)">
		<g id="Group_11139" transform="translate(0 0)">
			<ellipse id="Ellipse_8165" class="st0" cx="6" cy="103.9" rx="1.9" ry="1.9"/>
			<path id="Path_11639" class="st0" d="M12,114.4c-0.5-6.1-3.5-7.4-3.5-7.4c-1.9-1-4.1-0.8-5.8,0.5c-1.9,1.8-2.4,4.4-2.7,7
				c-0.2,1.3,1.9,1.3,2.1,0c0.1-1.5,0.5-3,1.2-4.4v1.5l0,7.2v5.7c0,0.6,0.4,1.1,1,1.1c0,0,0,0,0,0c0.6,0,1.1-0.5,1.1-1.1v-8.1h1v8.2
				c0,0.6,0.5,1,1.1,1c0.5,0,1-0.4,1-1v-5.7l0.1-7.2c0-0.7,0-1.3,0-1.7c0.7,1.4,1.2,3,1.3,4.5C10.1,115.7,12.1,115.7,12,114.4z"/>
		</g>
	</g>
	<g id="standing-frontal-man-silhouette-64" transform="translate(2906.66 1145.353)">
		<g id="Group_11140" transform="translate(0 0)">
			<ellipse id="Ellipse_8166" class="st0" cx="6" cy="103.9" rx="1.9" ry="1.9"/>
			<path id="Path_11640" class="st0" d="M12,114.4c-0.5-6.1-3.5-7.4-3.5-7.4c-1.9-1-4.1-0.8-5.8,0.5c-1.9,1.8-2.4,4.4-2.7,7
				c-0.2,1.3,1.9,1.3,2.1,0c0.1-1.5,0.5-3,1.2-4.4v1.5l0,7.2v5.7c0,0.6,0.4,1.1,1,1.1c0,0,0,0,0,0c0.6,0,1.1-0.5,1.1-1.1v-8.1h1v8.2
				c0,0.6,0.5,1,1.1,1c0.5,0,1-0.4,1-1v-5.7l0.1-7.2c0-0.7,0-1.3,0-1.7c0.7,1.4,1.2,3,1.3,4.5C10.1,115.7,12.1,115.7,12,114.4z"/>
		</g>
	</g>
	<g id="standing-frontal-man-silhouette-65" transform="translate(2906.66 1069.776)">
		<g id="Group_11141" transform="translate(0 0)">
			<ellipse id="Ellipse_8167" class="st0" cx="6" cy="103.9" rx="1.9" ry="1.9"/>
			<path id="Path_11641" class="st0" d="M12,114.4c-0.5-6.1-3.5-7.4-3.5-7.4c-1.9-1-4.1-0.8-5.8,0.5c-1.9,1.8-2.4,4.4-2.7,7
				c-0.2,1.3,1.9,1.3,2.1,0c0.1-1.5,0.5-3,1.2-4.4v1.5l0,7.2v5.7c0,0.6,0.4,1.1,1,1.1c0,0,0,0,0,0c0.6,0,1.1-0.5,1.1-1.1v-8.1h1v8.2
				c0,0.6,0.5,1,1.1,1c0.5,0,1-0.4,1-1v-5.7l0.1-7.2c0-0.7,0-1.3,0-1.7c0.7,1.4,1.2,3,1.3,4.5C10.1,115.7,12.1,115.7,12,114.4z"/>
		</g>
	</g>
	<g id="standing-frontal-man-silhouette-66" transform="translate(2906.66 1120.16)">
		<g id="Group_11142" transform="translate(0 0)">
			<ellipse id="Ellipse_8168" class="st0" cx="6" cy="103.9" rx="1.9" ry="1.9"/>
			<path id="Path_11642" class="st0" d="M12,114.4c-0.5-6.1-3.5-7.4-3.5-7.4c-1.9-1-4.1-0.8-5.8,0.5c-1.9,1.8-2.4,4.4-2.7,7
				c-0.2,1.3,1.9,1.3,2.1,0c0.1-1.5,0.5-3,1.2-4.4v1.5l0,7.2v5.7c0,0.6,0.4,1.1,1,1.1c0,0,0,0,0,0c0.6,0,1.1-0.5,1.1-1.1v-8.1h1v8.2
				c0,0.6,0.5,1,1.1,1c0.5,0,1-0.4,1-1v-5.7l0.1-7.2c0-0.7,0-1.3,0-1.7c0.7,1.4,1.2,3,1.3,4.5C10.1,115.7,12.1,115.7,12,114.4z"/>
		</g>
	</g>
	<g id="standing-frontal-man-silhouette-67" transform="translate(2906.66 1170.545)">
		<g id="Group_11143" transform="translate(0 0)">
			<ellipse id="Ellipse_8169" class="st0" cx="6" cy="103.9" rx="1.9" ry="1.9"/>
			<path id="Path_11643" class="st0" d="M12,114.4c-0.5-6.1-3.5-7.4-3.5-7.4c-1.9-1-4.1-0.8-5.8,0.5c-1.9,1.8-2.4,4.4-2.7,7
				c-0.2,1.3,1.9,1.3,2.1,0c0.1-1.5,0.5-3,1.2-4.4v1.5l0,7.2v5.7c0,0.6,0.4,1.1,1,1.1c0,0,0,0,0,0c0.6,0,1.1-0.5,1.1-1.1v-8.1h1v8.2
				c0,0.6,0.5,1,1.1,1c0.5,0,1-0.4,1-1v-5.7l0.1-7.2c0-0.7,0-1.3,0-1.7c0.7,1.4,1.2,3,1.3,4.5C10.1,115.7,12.1,115.7,12,114.4z"/>
		</g>
	</g>
	<g id="standing-frontal-man-silhouette-68" transform="translate(2837.744 1220.584)">
		<g id="Group_11144" transform="translate(0 0)">
			<ellipse id="Ellipse_8170" class="st0" cx="6" cy="103.9" rx="1.9" ry="1.9"/>
			<path id="Path_11644" class="st0" d="M12,114.4c-0.5-6.1-3.5-7.4-3.5-7.4c-1.9-1-4.1-0.8-5.8,0.5c-1.9,1.8-2.4,4.4-2.7,7
				c-0.2,1.3,1.9,1.3,2.1,0c0.1-1.5,0.5-3,1.2-4.4v1.5l0,7.2v5.7c0,0.6,0.4,1.1,1,1.1c0,0,0,0,0,0c0.6,0,1.1-0.5,1.1-1.1v-8.1h1v8.2
				c0,0.6,0.5,1,1.1,1c0.5,0,1-0.4,1-1v-5.7l0.1-7.2c0-0.7,0-1.3,0-1.7c0.7,1.4,1.2,3,1.3,4.5C10.1,115.7,12.1,115.7,12,114.4z"/>
		</g>
	</g>
	<g id="standing-frontal-man-silhouette-69" transform="translate(2866.004 1044.584)">
		<g id="Group_11145" transform="translate(0 0)">
			<ellipse id="Ellipse_8171" class="st0" cx="6" cy="103.9" rx="1.9" ry="1.9"/>
			<path id="Path_11645" class="st0" d="M12,114.4c-0.5-6.1-3.5-7.4-3.5-7.4c-1.9-1-4.1-0.8-5.8,0.5c-1.9,1.8-2.4,4.4-2.7,7
				c-0.2,1.3,1.9,1.3,2.1,0c0.1-1.5,0.5-3,1.2-4.4v1.5l0,7.2v5.7c0,0.6,0.4,1.1,1,1.1c0,0,0,0,0,0c0.6,0,1.1-0.5,1.1-1.1v-8.1h1v8.2
				c0,0.6,0.5,1,1.1,1c0.5,0,1-0.4,1-1v-5.7l0.1-7.2c0-0.7,0-1.3,0-1.7c0.7,1.4,1.2,3,1.3,4.5C10.1,115.7,12.1,115.7,12,114.4z"/>
		</g>
	</g>
	<g id="standing-frontal-man-silhouette-70" transform="translate(2837.744 1270.968)">
		<g id="Group_11146" transform="translate(0 0)">
			<ellipse id="Ellipse_8172" class="st0" cx="6" cy="103.9" rx="1.9" ry="1.9"/>
			<path id="Path_11646" class="st0" d="M12,114.4c-0.5-6.1-3.5-7.4-3.5-7.4c-1.9-1-4.1-0.8-5.8,0.5c-1.9,1.8-2.4,4.4-2.7,7
				c-0.2,1.3,1.9,1.3,2.1,0c0.1-1.5,0.5-3,1.2-4.4v1.5l0,7.2v5.7c0,0.6,0.4,1.1,1,1.1c0,0,0,0,0,0c0.6,0,1.1-0.5,1.1-1.1v-8.1h1v8.2
				c0,0.6,0.5,1,1.1,1c0.5,0,1-0.4,1-1v-5.7l0.1-7.2c0-0.7,0-1.3,0-1.7c0.7,1.4,1.2,3,1.3,4.5C10.1,115.7,12.1,115.7,12,114.4z"/>
		</g>
	</g>
	<g id="standing-frontal-man-silhouette-71" transform="translate(2837.744 1321.353)">
		<g id="Group_11147" transform="translate(0 0)">
			<ellipse id="Ellipse_8173" class="st0" cx="6" cy="103.9" rx="1.9" ry="1.9"/>
			<path id="Path_11647" class="st0" d="M12,114.4c-0.5-6.1-3.5-7.4-3.5-7.4c-1.9-1-4.1-0.8-5.8,0.5c-1.9,1.8-2.4,4.4-2.7,7
				c-0.2,1.3,1.9,1.3,2.1,0c0.1-1.5,0.5-3,1.2-4.4v1.5l0,7.2v5.7c0,0.6,0.4,1.1,1,1.1c0,0,0,0,0,0c0.6,0,1.1-0.5,1.1-1.1v-8.1h1v8.2
				c0,0.6,0.5,1,1.1,1c0.5,0,1-0.4,1-1v-5.7l0.1-7.2c0-0.7,0-1.3,0-1.7c0.7,1.4,1.2,3,1.3,4.5C10.1,115.7,12.1,115.7,12,114.4z"/>
		</g>
	</g>
	<g id="standing-frontal-man-silhouette-72" transform="translate(2837.744 1245.776)">
		<g id="Group_11148" transform="translate(0 0)">
			<ellipse id="Ellipse_8174" class="st0" cx="6" cy="103.9" rx="1.9" ry="1.9"/>
			<path id="Path_11648" class="st0" d="M12,114.4c-0.5-6.1-3.5-7.4-3.5-7.4c-1.9-1-4.1-0.8-5.8,0.5c-1.9,1.8-2.4,4.4-2.7,7
				c-0.2,1.3,1.9,1.3,2.1,0c0.1-1.5,0.5-3,1.2-4.4v1.5l0,7.2v5.7c0,0.6,0.4,1.1,1,1.1c0,0,0,0,0,0c0.6,0,1.1-0.5,1.1-1.1v-8.1h1v8.2
				c0,0.6,0.5,1,1.1,1c0.5,0,1-0.4,1-1v-5.7l0.1-7.2c0-0.7,0-1.3,0-1.7c0.7,1.4,1.2,3,1.3,4.5C10.1,115.7,12.1,115.7,12,114.4z"/>
		</g>
	</g>
	<g id="standing-frontal-man-silhouette-73" transform="translate(2837.744 1296.16)">
		<g id="Group_11149" transform="translate(0 0)">
			<ellipse id="Ellipse_8175" class="st0" cx="6" cy="103.9" rx="1.9" ry="1.9"/>
			<path id="Path_11649" class="st0" d="M12,114.4c-0.5-6.1-3.5-7.4-3.5-7.4c-1.9-1-4.1-0.8-5.8,0.5c-1.9,1.8-2.4,4.4-2.7,7
				c-0.2,1.3,1.9,1.3,2.1,0c0.1-1.5,0.5-3,1.2-4.4v1.5l0,7.2v5.7c0,0.6,0.4,1.1,1,1.1c0,0,0,0,0,0c0.6,0,1.1-0.5,1.1-1.1v-8.1h1v8.2
				c0,0.6,0.5,1,1.1,1c0.5,0,1-0.4,1-1v-5.7l0.1-7.2c0-0.7,0-1.3,0-1.7c0.7,1.4,1.2,3,1.3,4.5C10.1,115.7,12.1,115.7,12,114.4z"/>
		</g>
	</g>
	<g id="standing-frontal-man-silhouette-74" transform="translate(2837.744 1346.545)">
		<g id="Group_11150" transform="translate(0 0)">
			<ellipse id="Ellipse_8176" class="st0" cx="6" cy="103.9" rx="1.9" ry="1.9"/>
			<path id="Path_11650" class="st0" d="M12,114.4c-0.5-6.1-3.5-7.4-3.5-7.4c-1.9-1-4.1-0.8-5.8,0.5c-1.9,1.8-2.4,4.4-2.7,7
				c-0.2,1.3,1.9,1.3,2.1,0c0.1-1.5,0.5-3,1.2-4.4v1.5l0,7.2v5.7c0,0.6,0.4,1.1,1,1.1c0,0,0,0,0,0c0.6,0,1.1-0.5,1.1-1.1v-8.1h1v8.2
				c0,0.6,0.5,1,1.1,1c0.5,0,1-0.4,1-1v-5.7l0.1-7.2c0-0.7,0-1.3,0-1.7c0.7,1.4,1.2,3,1.3,4.5C10.1,115.7,12.1,115.7,12,114.4z"/>
		</g>
	</g>
	<g id="standing-frontal-man-silhouette-75" transform="translate(2837.744 1195.611)">
		<g id="Group_11151" transform="translate(0 0)">
			<ellipse id="Ellipse_8177" class="st0" cx="6" cy="103.9" rx="1.9" ry="1.9"/>
			<path id="Path_11651" class="st0" d="M12,114.4c-0.5-6.1-3.5-7.4-3.5-7.4c-1.9-1-4.1-0.8-5.8,0.5c-1.9,1.8-2.4,4.4-2.7,7
				c-0.2,1.3,1.9,1.3,2.1,0c0.1-1.5,0.5-3,1.2-4.4v1.5l0,7.2v5.7c0,0.6,0.4,1.1,1,1.1c0,0,0,0,0,0c0.6,0,1.1-0.5,1.1-1.1v-8.1h1v8.2
				c0,0.6,0.5,1,1.1,1c0.5,0,1-0.4,1-1v-5.7l0.1-7.2c0-0.7,0-1.3,0-1.7c0.7,1.4,1.2,3,1.3,4.5C10.1,115.7,12.1,115.7,12,114.4z"/>
		</g>
	</g>
	<g id="standing-frontal-man-silhouette-76" transform="translate(2838.352 943.968)">
		<g id="Group_11153" transform="translate(0 0)">
			<ellipse id="Ellipse_8179" class="st0" cx="6" cy="103.9" rx="1.9" ry="1.9"/>
			<path id="Path_11653" class="st0" d="M12,114.4c-0.5-6.1-3.5-7.4-3.5-7.4c-1.9-1-4.1-0.8-5.8,0.5c-1.9,1.8-2.4,4.4-2.7,7
				c-0.2,1.3,1.9,1.3,2.1,0c0.1-1.5,0.5-3,1.2-4.4v1.5l0,7.2v5.7c0,0.6,0.4,1.1,1,1.1c0,0,0,0,0,0c0.6,0,1.1-0.5,1.1-1.1v-8.1h1v8.2
				c0,0.6,0.5,1,1.1,1c0.5,0,1-0.4,1-1v-5.7l0.1-7.2c0-0.7,0-1.3,0-1.7c0.7,1.4,1.2,3,1.3,4.5C10.1,115.7,12.1,115.7,12,114.4z"/>
		</g>
	</g>
	<g id="standing-frontal-man-silhouette-77" transform="translate(2838.352 994.353)">
		<g id="Group_11154" transform="translate(0 0)">
			<ellipse id="Ellipse_8180" class="st0" cx="6" cy="103.9" rx="1.9" ry="1.9"/>
			<path id="Path_11654" class="st0" d="M12,114.4c-0.5-6.1-3.5-7.4-3.5-7.4c-1.9-1-4.1-0.8-5.8,0.5c-1.9,1.8-2.4,4.4-2.7,7
				c-0.2,1.3,1.9,1.3,2.1,0c0.1-1.5,0.5-3,1.2-4.4v1.5l0,7.2v5.7c0,0.6,0.4,1.1,1,1.1c0,0,0,0,0,0c0.6,0,1.1-0.5,1.1-1.1v-8.1h1v8.2
				c0,0.6,0.5,1,1.1,1c0.5,0,1-0.4,1-1v-5.7l0.1-7.2c0-0.7,0-1.3,0-1.7c0.7,1.4,1.2,3,1.3,4.5C10.1,115.7,12.1,115.7,12,114.4z"/>
		</g>
	</g>
	<g id="standing-frontal-man-silhouette-78" transform="translate(2893.352 994.353)">
		<g id="Group_11154-2" transform="translate(0 0)">
			<ellipse id="Ellipse_8180-2" class="st0" cx="6" cy="103.9" rx="1.9" ry="1.9"/>
			<path id="Path_11654-2" class="st0" d="M12,114.4c-0.5-6.1-3.5-7.4-3.5-7.4c-1.9-1-4.1-0.8-5.8,0.5c-1.9,1.8-2.4,4.4-2.7,7
				c-0.2,1.3,1.9,1.3,2.1,0c0.1-1.5,0.5-3,1.2-4.4v1.5l0,7.2v5.7c0,0.6,0.4,1.1,1,1.1c0,0,0,0,0,0c0.6,0,1.1-0.5,1.1-1.1v-8.1h1v8.2
				c0,0.6,0.5,1,1.1,1c0.5,0,1-0.4,1-1v-5.7l0.1-7.2c0-0.7,0-1.3,0-1.7c0.7,1.4,1.2,3,1.3,4.5C10.1,115.7,12.1,115.7,12,114.4z"/>
		</g>
	</g>
	<g id="standing-frontal-man-silhouette-79" transform="translate(2838.352 969.16)">
		<g id="Group_11156" transform="translate(0 0)">
			<ellipse id="Ellipse_8182" class="st0" cx="6" cy="103.9" rx="1.9" ry="1.9"/>
			<path id="Path_11656" class="st0" d="M12,114.4c-0.5-6.1-3.5-7.4-3.5-7.4c-1.9-1-4.1-0.8-5.8,0.5c-1.9,1.8-2.4,4.4-2.7,7
				c-0.2,1.3,1.9,1.3,2.1,0c0.1-1.5,0.5-3,1.2-4.4v1.5l0,7.2v5.7c0,0.6,0.4,1.1,1,1.1c0,0,0,0,0,0c0.6,0,1.1-0.5,1.1-1.1v-8.1h1v8.2
				c0,0.6,0.5,1,1.1,1c0.5,0,1-0.4,1-1v-5.7l0.1-7.2c0-0.7,0-1.3,0-1.7c0.7,1.4,1.2,3,1.3,4.5C10.1,115.7,12.1,115.7,12,114.4z"/>
		</g>
	</g>
	<g id="standing-frontal-man-silhouette-80" transform="translate(2893.352 969.16)">
		<g id="Group_11156-2" transform="translate(0 0)">
			<ellipse id="Ellipse_8182-2" class="st0" cx="6" cy="103.9" rx="1.9" ry="1.9"/>
			<path id="Path_11656-2" class="st0" d="M12,114.4c-0.5-6.1-3.5-7.4-3.5-7.4c-1.9-1-4.1-0.8-5.8,0.5c-1.9,1.8-2.4,4.4-2.7,7
				c-0.2,1.3,1.9,1.3,2.1,0c0.1-1.5,0.5-3,1.2-4.4v1.5l0,7.2v5.7c0,0.6,0.4,1.1,1,1.1c0,0,0,0,0,0c0.6,0,1.1-0.5,1.1-1.1v-8.1h1v8.2
				c0,0.6,0.5,1,1.1,1c0.5,0,1-0.4,1-1v-5.7l0.1-7.2c0-0.7,0-1.3,0-1.7c0.7,1.4,1.2,3,1.3,4.5C10.1,115.7,12.1,115.7,12,114.4z"/>
		</g>
	</g>
	<g id="standing-frontal-man-silhouette-81" transform="translate(2838.352 1019.545)">
		<g id="Group_11157" transform="translate(0 0)">
			<ellipse id="Ellipse_8183" class="st0" cx="6" cy="103.9" rx="1.9" ry="1.9"/>
			<path id="Path_11657" class="st0" d="M12,114.4c-0.5-6.1-3.5-7.4-3.5-7.4c-1.9-1-4.1-0.8-5.8,0.5c-1.9,1.8-2.4,4.4-2.7,7
				c-0.2,1.3,1.9,1.3,2.1,0c0.1-1.5,0.5-3,1.2-4.4v1.5l0,7.2v5.7c0,0.6,0.4,1.1,1,1.1c0,0,0,0,0,0c0.6,0,1.1-0.5,1.1-1.1v-8.1h1v8.2
				c0,0.6,0.5,1,1.1,1c0.5,0,1-0.4,1-1v-5.7l0.1-7.2c0-0.7,0-1.3,0-1.7c0.7,1.4,1.2,3,1.3,4.5C10.1,115.7,12.1,115.7,12,114.4z"/>
		</g>
	</g>
	<g id="standing-frontal-man-silhouette-82" transform="translate(2893.352 1019.545)">
		<g id="Group_11157-2" transform="translate(0 0)">
			<ellipse id="Ellipse_8183-2" class="st0" cx="6" cy="103.9" rx="1.9" ry="1.9"/>
			<path id="Path_11657-2" class="st0" d="M12,114.4c-0.5-6.1-3.5-7.4-3.5-7.4c-1.9-1-4.1-0.8-5.8,0.5c-1.9,1.8-2.4,4.4-2.7,7
				c-0.2,1.3,1.9,1.3,2.1,0c0.1-1.5,0.5-3,1.2-4.4v1.5l0,7.2v5.7c0,0.6,0.4,1.1,1,1.1c0,0,0,0,0,0c0.6,0,1.1-0.5,1.1-1.1v-8.1h1v8.2
				c0,0.6,0.5,1,1.1,1c0.5,0,1-0.4,1-1v-5.7l0.1-7.2c0-0.7,0-1.3,0-1.7c0.7,1.4,1.2,3,1.3,4.5C10.1,115.7,12.1,115.7,12,114.4z"/>
		</g>
	</g>
	<g id="standing-frontal-man-silhouette-83" transform="translate(2892.548 1220.584)">
		<g id="Group_11159" transform="translate(0 0)">
			<ellipse id="Ellipse_8185" class="st0" cx="6" cy="103.9" rx="1.9" ry="1.9"/>
			<path id="Path_11659" class="st0" d="M12,114.4c-0.5-6.1-3.5-7.4-3.5-7.4c-1.9-1-4.1-0.8-5.8,0.5c-1.9,1.8-2.4,4.4-2.7,7
				c-0.2,1.3,1.9,1.3,2.1,0c0.1-1.5,0.5-3,1.2-4.4v1.5l0,7.2v5.7c0,0.6,0.4,1.1,1,1.1c0,0,0,0,0,0c0.6,0,1.1-0.5,1.1-1.1v-8.1h1v8.2
				c0,0.6,0.5,1,1.1,1c0.5,0,1-0.4,1-1v-5.7l0.1-7.2c0-0.7,0-1.3,0-1.7c0.7,1.4,1.2,3,1.3,4.5C10.1,115.7,12.1,115.7,12,114.4z"/>
		</g>
	</g>
	<g id="standing-frontal-man-silhouette-84" transform="translate(2892.548 1270.968)">
		<g id="Group_11160" transform="translate(0 0)">
			<ellipse id="Ellipse_8186" class="st0" cx="6" cy="103.9" rx="1.9" ry="1.9"/>
			<path id="Path_11660" class="st0" d="M12,114.4c-0.5-6.1-3.5-7.4-3.5-7.4c-1.9-1-4.1-0.8-5.8,0.5c-1.9,1.8-2.4,4.4-2.7,7
				c-0.2,1.3,1.9,1.3,2.1,0c0.1-1.5,0.5-3,1.2-4.4v1.5l0,7.2v5.7c0,0.6,0.4,1.1,1,1.1c0,0,0,0,0,0c0.6,0,1.1-0.5,1.1-1.1v-8.1h1v8.2
				c0,0.6,0.5,1,1.1,1c0.5,0,1-0.4,1-1v-5.7l0.1-7.2c0-0.7,0-1.3,0-1.7c0.7,1.4,1.2,3,1.3,4.5C10.1,115.7,12.1,115.7,12,114.4z"/>
		</g>
	</g>
	<g id="standing-frontal-man-silhouette-85" transform="translate(2892.548 1321.353)">
		<g id="Group_11161" transform="translate(0 0)">
			<ellipse id="Ellipse_8187" class="st0" cx="6" cy="103.9" rx="1.9" ry="1.9"/>
			<path id="Path_11661" class="st0" d="M12,114.4c-0.5-6.1-3.5-7.4-3.5-7.4c-1.9-1-4.1-0.8-5.8,0.5c-1.9,1.8-2.4,4.4-2.7,7
				c-0.2,1.3,1.9,1.3,2.1,0c0.1-1.5,0.5-3,1.2-4.4v1.5l0,7.2v5.7c0,0.6,0.4,1.1,1,1.1c0,0,0,0,0,0c0.6,0,1.1-0.5,1.1-1.1v-8.1h1v8.2
				c0,0.6,0.5,1,1.1,1c0.5,0,1-0.4,1-1v-5.7l0.1-7.2c0-0.7,0-1.3,0-1.7c0.7,1.4,1.2,3,1.3,4.5C10.1,115.7,12.1,115.7,12,114.4z"/>
		</g>
	</g>
	<g id="standing-frontal-man-silhouette-86" transform="translate(2892.548 1245.776)">
		<g id="Group_11162" transform="translate(0 0)">
			<ellipse id="Ellipse_8188" class="st0" cx="6" cy="103.9" rx="1.9" ry="1.9"/>
			<path id="Path_11662" class="st0" d="M12,114.4c-0.5-6.1-3.5-7.4-3.5-7.4c-1.9-1-4.1-0.8-5.8,0.5c-1.9,1.8-2.4,4.4-2.7,7
				c-0.2,1.3,1.9,1.3,2.1,0c0.1-1.5,0.5-3,1.2-4.4v1.5l0,7.2v5.7c0,0.6,0.4,1.1,1,1.1c0,0,0,0,0,0c0.6,0,1.1-0.5,1.1-1.1v-8.1h1v8.2
				c0,0.6,0.5,1,1.1,1c0.5,0,1-0.4,1-1v-5.7l0.1-7.2c0-0.7,0-1.3,0-1.7c0.7,1.4,1.2,3,1.3,4.5C10.1,115.7,12.1,115.7,12,114.4z"/>
		</g>
	</g>
	<g id="standing-frontal-man-silhouette-87" transform="translate(2892.548 1296.16)">
		<g id="Group_11163" transform="translate(0 0)">
			<ellipse id="Ellipse_8189" class="st0" cx="6" cy="103.9" rx="1.9" ry="1.9"/>
			<path id="Path_11663" class="st0" d="M12,114.4c-0.5-6.1-3.5-7.4-3.5-7.4c-1.9-1-4.1-0.8-5.8,0.5c-1.9,1.8-2.4,4.4-2.7,7
				c-0.2,1.3,1.9,1.3,2.1,0c0.1-1.5,0.5-3,1.2-4.4v1.5l0,7.2v5.7c0,0.6,0.4,1.1,1,1.1c0,0,0,0,0,0c0.6,0,1.1-0.5,1.1-1.1v-8.1h1v8.2
				c0,0.6,0.5,1,1.1,1c0.5,0,1-0.4,1-1v-5.7l0.1-7.2c0-0.7,0-1.3,0-1.7c0.7,1.4,1.2,3,1.3,4.5C10.1,115.7,12.1,115.7,12,114.4z"/>
		</g>
	</g>
	<g id="standing-frontal-man-silhouette-88" transform="translate(2892.548 1346.545)">
		<g id="Group_11164" transform="translate(0 0)">
			<ellipse id="Ellipse_8190" class="st0" cx="6" cy="103.9" rx="1.9" ry="1.9"/>
			<path id="Path_11664" class="st0" d="M12,114.4c-0.5-6.1-3.5-7.4-3.5-7.4c-1.9-1-4.1-0.8-5.8,0.5c-1.9,1.8-2.4,4.4-2.7,7
				c-0.2,1.3,1.9,1.3,2.1,0c0.1-1.5,0.5-3,1.2-4.4v1.5l0,7.2v5.7c0,0.6,0.4,1.1,1,1.1c0,0,0,0,0,0c0.6,0,1.1-0.5,1.1-1.1v-8.1h1v8.2
				c0,0.6,0.5,1,1.1,1c0.5,0,1-0.4,1-1v-5.7l0.1-7.2c0-0.7,0-1.3,0-1.7c0.7,1.4,1.2,3,1.3,4.5C10.1,115.7,12.1,115.7,12,114.4z"/>
		</g>
	</g>
	<g id="standing-frontal-man-silhouette-89" transform="translate(2892.548 1195.611)">
		<g id="Group_11165" transform="translate(0 0)">
			<ellipse id="Ellipse_8191" class="st0" cx="6" cy="103.9" rx="1.9" ry="1.9"/>
			<path id="Path_11665" class="st0" d="M12,114.4c-0.5-6.1-3.5-7.4-3.5-7.4c-1.9-1-4.1-0.8-5.8,0.5c-1.9,1.8-2.4,4.4-2.7,7
				c-0.2,1.3,1.9,1.3,2.1,0c0.1-1.5,0.5-3,1.2-4.4v1.5l0,7.2v5.7c0,0.6,0.4,1.1,1,1.1c0,0,0,0,0,0c0.6,0,1.1-0.5,1.1-1.1v-8.1h1v8.2
				c0,0.6,0.5,1,1.1,1c0.5,0,1-0.4,1-1v-5.7l0.1-7.2c0-0.7,0-1.3,0-1.7c0.7,1.4,1.2,3,1.3,4.5C10.1,115.7,12.1,115.7,12,114.4z"/>
		</g>
	</g>
	<g id="standing-frontal-man-silhouette-90" transform="translate(2838.155 1044.584)">
		<g id="Group_11166" transform="translate(0 0)">
			<ellipse id="Ellipse_8192" class="st0" cx="6" cy="103.9" rx="1.9" ry="1.9"/>
			<path id="Path_11666" class="st0" d="M12,114.4c-0.5-6.1-3.5-7.4-3.5-7.4c-1.9-1-4.1-0.8-5.8,0.5c-1.9,1.8-2.4,4.4-2.7,7
				c-0.2,1.3,1.9,1.3,2.1,0c0.1-1.5,0.5-3,1.2-4.4v1.5l0,7.2v5.7c0,0.6,0.4,1.1,1,1.1c0,0,0,0,0,0c0.6,0,1.1-0.5,1.1-1.1v-8.1h1v8.2
				c0,0.6,0.5,1,1.1,1c0.5,0,1-0.4,1-1v-5.7l0.1-7.2c0-0.7,0-1.3,0-1.7c0.7,1.4,1.2,3,1.3,4.5C10.1,115.7,12.1,115.7,12,114.4z"/>
		</g>
	</g>
	<g id="standing-frontal-man-silhouette-91" transform="translate(2838.155 1094.968)">
		<g id="Group_11167" transform="translate(0 0)">
			<ellipse id="Ellipse_8193" class="st0" cx="6" cy="103.9" rx="1.9" ry="1.9"/>
			<path id="Path_11667" class="st0" d="M12,114.4c-0.5-6.1-3.5-7.4-3.5-7.4c-1.9-1-4.1-0.8-5.8,0.5c-1.9,1.8-2.4,4.4-2.7,7
				c-0.2,1.3,1.9,1.3,2.1,0c0.1-1.5,0.5-3,1.2-4.4v1.5l0,7.2v5.7c0,0.6,0.4,1.1,1,1.1c0,0,0,0,0,0c0.6,0,1.1-0.5,1.1-1.1v-8.1h1v8.2
				c0,0.6,0.5,1,1.1,1c0.5,0,1-0.4,1-1v-5.7l0.1-7.2c0-0.7,0-1.3,0-1.7c0.7,1.4,1.2,3,1.3,4.5C10.1,115.7,12.1,115.7,12,114.4z"/>
		</g>
	</g>
	<g id="standing-frontal-man-silhouette-92" transform="translate(2838.155 1145.353)">
		<g id="Group_11168" transform="translate(0 0)">
			<ellipse id="Ellipse_8194" class="st0" cx="6" cy="103.9" rx="1.9" ry="1.9"/>
			<path id="Path_11668" class="st0" d="M12,114.4c-0.5-6.1-3.5-7.4-3.5-7.4c-1.9-1-4.1-0.8-5.8,0.5c-1.9,1.8-2.4,4.4-2.7,7
				c-0.2,1.3,1.9,1.3,2.1,0c0.1-1.5,0.5-3,1.2-4.4v1.5l0,7.2v5.7c0,0.6,0.4,1.1,1,1.1c0,0,0,0,0,0c0.6,0,1.1-0.5,1.1-1.1v-8.1h1v8.2
				c0,0.6,0.5,1,1.1,1c0.5,0,1-0.4,1-1v-5.7l0.1-7.2c0-0.7,0-1.3,0-1.7c0.7,1.4,1.2,3,1.3,4.5C10.1,115.7,12.1,115.7,12,114.4z"/>
		</g>
	</g>
	<g id="standing-frontal-man-silhouette-93" transform="translate(2838.155 1069.776)">
		<g id="Group_11169" transform="translate(0 0)">
			<ellipse id="Ellipse_8195" class="st0" cx="6" cy="103.9" rx="1.9" ry="1.9"/>
			<path id="Path_11669" class="st0" d="M12,114.4c-0.5-6.1-3.5-7.4-3.5-7.4c-1.9-1-4.1-0.8-5.8,0.5c-1.9,1.8-2.4,4.4-2.7,7
				c-0.2,1.3,1.9,1.3,2.1,0c0.1-1.5,0.5-3,1.2-4.4v1.5l0,7.2v5.7c0,0.6,0.4,1.1,1,1.1c0,0,0,0,0,0c0.6,0,1.1-0.5,1.1-1.1v-8.1h1v8.2
				c0,0.6,0.5,1,1.1,1c0.5,0,1-0.4,1-1v-5.7l0.1-7.2c0-0.7,0-1.3,0-1.7c0.7,1.4,1.2,3,1.3,4.5C10.1,115.7,12.1,115.7,12,114.4z"/>
		</g>
	</g>
	<g id="standing-frontal-man-silhouette-94" transform="translate(2838.155 1120.16)">
		<g id="Group_11170" transform="translate(0 0)">
			<ellipse id="Ellipse_8196" class="st0" cx="6" cy="103.9" rx="1.9" ry="1.9"/>
			<path id="Path_11670" class="st0" d="M12,114.4c-0.5-6.1-3.5-7.4-3.5-7.4c-1.9-1-4.1-0.8-5.8,0.5c-1.9,1.8-2.4,4.4-2.7,7
				c-0.2,1.3,1.9,1.3,2.1,0c0.1-1.5,0.5-3,1.2-4.4v1.5l0,7.2v5.7c0,0.6,0.4,1.1,1,1.1c0,0,0,0,0,0c0.6,0,1.1-0.5,1.1-1.1v-8.1h1v8.2
				c0,0.6,0.5,1,1.1,1c0.5,0,1-0.4,1-1v-5.7l0.1-7.2c0-0.7,0-1.3,0-1.7c0.7,1.4,1.2,3,1.3,4.5C10.1,115.7,12.1,115.7,12,114.4z"/>
		</g>
	</g>
	<g id="standing-frontal-man-silhouette-95" transform="translate(2838.155 1170.545)">
		<g id="Group_11171" transform="translate(0 0)">
			<ellipse id="Ellipse_8197" class="st0" cx="6" cy="103.9" rx="1.9" ry="1.9"/>
			<path id="Path_11671" class="st0" d="M12,114.4c-0.5-6.1-3.5-7.4-3.5-7.4c-1.9-1-4.1-0.8-5.8,0.5c-1.9,1.8-2.4,4.4-2.7,7
				c-0.2,1.3,1.9,1.3,2.1,0c0.1-1.5,0.5-3,1.2-4.4v1.5l0,7.2v5.7c0,0.6,0.4,1.1,1,1.1c0,0,0,0,0,0c0.6,0,1.1-0.5,1.1-1.1v-8.1h1v8.2
				c0,0.6,0.5,1,1.1,1c0.5,0,1-0.4,1-1v-5.7l0.1-7.2c0-0.7,0-1.3,0-1.7c0.7,1.4,1.2,3,1.3,4.5C10.1,115.7,12.1,115.7,12,114.4z"/>
		</g>
	</g>
	<g id="standing-frontal-man-silhouette-96" transform="translate(2892.959 1094.968)">
		<g id="Group_11172" transform="translate(0 0)">
			<ellipse id="Ellipse_8198" class="st0" cx="6" cy="103.9" rx="1.9" ry="1.9"/>
			<path id="Path_11672" class="st0" d="M12,114.4c-0.5-6.1-3.5-7.4-3.5-7.4c-1.9-1-4.1-0.8-5.8,0.5c-1.9,1.8-2.4,4.4-2.7,7
				c-0.2,1.3,1.9,1.3,2.1,0c0.1-1.5,0.5-3,1.2-4.4v1.5l0,7.2v5.7c0,0.6,0.4,1.1,1,1.1c0,0,0,0,0,0c0.6,0,1.1-0.5,1.1-1.1v-8.1h1v8.2
				c0,0.6,0.5,1,1.1,1c0.5,0,1-0.4,1-1v-5.7l0.1-7.2c0-0.7,0-1.3,0-1.7c0.7,1.4,1.2,3,1.3,4.5C10.1,115.7,12.1,115.7,12,114.4z"/>
		</g>
	</g>
	<g id="standing-frontal-man-silhouette-97" transform="translate(2892.959 1145.353)">
		<g id="Group_11173" transform="translate(0 0)">
			<ellipse id="Ellipse_8199" class="st0" cx="6" cy="103.9" rx="1.9" ry="1.9"/>
			<path id="Path_11673" class="st0" d="M12,114.4c-0.5-6.1-3.5-7.4-3.5-7.4c-1.9-1-4.1-0.8-5.8,0.5c-1.9,1.8-2.4,4.4-2.7,7
				c-0.2,1.3,1.9,1.3,2.1,0c0.1-1.5,0.5-3,1.2-4.4v1.5l0,7.2v5.7c0,0.6,0.4,1.1,1,1.1c0,0,0,0,0,0c0.6,0,1.1-0.5,1.1-1.1v-8.1h1v8.2
				c0,0.6,0.5,1,1.1,1c0.5,0,1-0.4,1-1v-5.7l0.1-7.2c0-0.7,0-1.3,0-1.7c0.7,1.4,1.2,3,1.3,4.5C10.1,115.7,12.1,115.7,12,114.4z"/>
		</g>
	</g>
	<g id="standing-frontal-man-silhouette-98" transform="translate(2892.959 1069.776)">
		<g id="Group_11174" transform="translate(0 0)">
			<ellipse id="Ellipse_8200" class="st0" cx="6" cy="103.9" rx="1.9" ry="1.9"/>
			<path id="Path_11674" class="st0" d="M12,114.4c-0.5-6.1-3.5-7.4-3.5-7.4c-1.9-1-4.1-0.8-5.8,0.5c-1.9,1.8-2.4,4.4-2.7,7
				c-0.2,1.3,1.9,1.3,2.1,0c0.1-1.5,0.5-3,1.2-4.4v1.5l0,7.2v5.7c0,0.6,0.4,1.1,1,1.1c0,0,0,0,0,0c0.6,0,1.1-0.5,1.1-1.1v-8.1h1v8.2
				c0,0.6,0.5,1,1.1,1c0.5,0,1-0.4,1-1v-5.7l0.1-7.2c0-0.7,0-1.3,0-1.7c0.7,1.4,1.2,3,1.3,4.5C10.1,115.7,12.1,115.7,12,114.4z"/>
		</g>
	</g>
	<g id="standing-frontal-man-silhouette-99" transform="translate(2892.959 1120.16)">
		<g id="Group_11175" transform="translate(0 0)">
			<ellipse id="Ellipse_8201" class="st0" cx="6" cy="103.9" rx="1.9" ry="1.9"/>
			<path id="Path_11675" class="st0" d="M12,114.4c-0.5-6.1-3.5-7.4-3.5-7.4c-1.9-1-4.1-0.8-5.8,0.5c-1.9,1.8-2.4,4.4-2.7,7
				c-0.2,1.3,1.9,1.3,2.1,0c0.1-1.5,0.5-3,1.2-4.4v1.5l0,7.2v5.7c0,0.6,0.4,1.1,1,1.1c0,0,0,0,0,0c0.6,0,1.1-0.5,1.1-1.1v-8.1h1v8.2
				c0,0.6,0.5,1,1.1,1c0.5,0,1-0.4,1-1v-5.7l0.1-7.2c0-0.7,0-1.3,0-1.7c0.7,1.4,1.2,3,1.3,4.5C10.1,115.7,12.1,115.7,12,114.4z"/>
		</g>
	</g>
	<g id="standing-frontal-man-silhouette-100" transform="translate(2892.959 1170.545)">
		<g id="Group_11176" transform="translate(0 0)">
			<ellipse id="Ellipse_8202" class="st0" cx="6" cy="103.9" rx="1.9" ry="1.9"/>
			<path id="Path_11676" class="st0" d="M12,114.4c-0.5-6.1-3.5-7.4-3.5-7.4c-1.9-1-4.1-0.8-5.8,0.5c-1.9,1.8-2.4,4.4-2.7,7
				c-0.2,1.3,1.9,1.3,2.1,0c0.1-1.5,0.5-3,1.2-4.4v1.5l0,7.2v5.7c0,0.6,0.4,1.1,1,1.1c0,0,0,0,0,0c0.6,0,1.1-0.5,1.1-1.1v-8.1h1v8.2
				c0,0.6,0.5,1,1.1,1c0.5,0,1-0.4,1-1v-5.7l0.1-7.2c0-0.7,0-1.3,0-1.7c0.7,1.4,1.2,3,1.3,4.5C10.1,115.7,12.1,115.7,12,114.4z"/>
		</g>
	</g>
	<g id="standing-frontal-man-silhouette-101" transform="translate(2865.146 1220.584)">
		<g id="Group_11177" transform="translate(0 0)">
			<ellipse id="Ellipse_8203" class="st0" cx="6" cy="103.9" rx="1.9" ry="1.9"/>
			<path id="Path_11677" class="st0" d="M12,114.4c-0.5-6.1-3.5-7.4-3.5-7.4c-1.9-1-4.1-0.8-5.8,0.5c-1.9,1.8-2.4,4.4-2.7,7
				c-0.2,1.3,1.9,1.3,2.1,0c0.1-1.5,0.5-3,1.2-4.4v1.5l0,7.2v5.7c0,0.6,0.4,1.1,1,1.1c0,0,0,0,0,0c0.6,0,1.1-0.5,1.1-1.1v-8.1h1v8.2
				c0,0.6,0.5,1,1.1,1c0.5,0,1-0.4,1-1v-5.7l0.1-7.2c0-0.7,0-1.3,0-1.7c0.7,1.4,1.2,3,1.3,4.5C10.1,115.7,12.1,115.7,12,114.4z"/>
		</g>
	</g>
	<g id="standing-frontal-man-silhouette-102" transform="translate(2893.406 1044.584)">
		<g id="Group_11178" transform="translate(0 0)">
			<ellipse id="Ellipse_8204" class="st0" cx="6" cy="103.9" rx="1.9" ry="1.9"/>
			<path id="Path_11678" class="st0" d="M12,114.4c-0.5-6.1-3.5-7.4-3.5-7.4c-1.9-1-4.1-0.8-5.8,0.5c-1.9,1.8-2.4,4.4-2.7,7
				c-0.2,1.3,1.9,1.3,2.1,0c0.1-1.5,0.5-3,1.2-4.4v1.5l0,7.2v5.7c0,0.6,0.4,1.1,1,1.1c0,0,0,0,0,0c0.6,0,1.1-0.5,1.1-1.1v-8.1h1v8.2
				c0,0.6,0.5,1,1.1,1c0.5,0,1-0.4,1-1v-5.7l0.1-7.2c0-0.7,0-1.3,0-1.7c0.7,1.4,1.2,3,1.3,4.5C10.1,115.7,12.1,115.7,12,114.4z"/>
		</g>
	</g>
	<g id="standing-frontal-man-silhouette-103" transform="translate(2865.146 1270.968)">
		<g id="Group_11179" transform="translate(0 0)">
			<ellipse id="Ellipse_8205" class="st0" cx="6" cy="103.9" rx="1.9" ry="1.9"/>
			<path id="Path_11679" class="st0" d="M12,114.4c-0.5-6.1-3.5-7.4-3.5-7.4c-1.9-1-4.1-0.8-5.8,0.5c-1.9,1.8-2.4,4.4-2.7,7
				c-0.2,1.3,1.9,1.3,2.1,0c0.1-1.5,0.5-3,1.2-4.4v1.5l0,7.2v5.7c0,0.6,0.4,1.1,1,1.1c0,0,0,0,0,0c0.6,0,1.1-0.5,1.1-1.1v-8.1h1v8.2
				c0,0.6,0.5,1,1.1,1c0.5,0,1-0.4,1-1v-5.7l0.1-7.2c0-0.7,0-1.3,0-1.7c0.7,1.4,1.2,3,1.3,4.5C10.1,115.7,12.1,115.7,12,114.4z"/>
		</g>
	</g>
	<g id="standing-frontal-man-silhouette-104" transform="translate(2865.146 1321.353)">
		<g id="Group_11180" transform="translate(0 0)">
			<ellipse id="Ellipse_8206" class="st0" cx="6" cy="103.9" rx="1.9" ry="1.9"/>
			<path id="Path_11680" class="st0" d="M12,114.4c-0.5-6.1-3.5-7.4-3.5-7.4c-1.9-1-4.1-0.8-5.8,0.5c-1.9,1.8-2.4,4.4-2.7,7
				c-0.2,1.3,1.9,1.3,2.1,0c0.1-1.5,0.5-3,1.2-4.4v1.5l0,7.2v5.7c0,0.6,0.4,1.1,1,1.1c0,0,0,0,0,0c0.6,0,1.1-0.5,1.1-1.1v-8.1h1v8.2
				c0,0.6,0.5,1,1.1,1c0.5,0,1-0.4,1-1v-5.7l0.1-7.2c0-0.7,0-1.3,0-1.7c0.7,1.4,1.2,3,1.3,4.5C10.1,115.7,12.1,115.7,12,114.4z"/>
		</g>
	</g>
	<g id="standing-frontal-man-silhouette-105" transform="translate(2865.146 1245.776)">
		<g id="Group_11181" transform="translate(0 0)">
			<ellipse id="Ellipse_8207" class="st0" cx="6" cy="103.9" rx="1.9" ry="1.9"/>
			<path id="Path_11681" class="st0" d="M12,114.4c-0.5-6.1-3.5-7.4-3.5-7.4c-1.9-1-4.1-0.8-5.8,0.5c-1.9,1.8-2.4,4.4-2.7,7
				c-0.2,1.3,1.9,1.3,2.1,0c0.1-1.5,0.5-3,1.2-4.4v1.5l0,7.2v5.7c0,0.6,0.4,1.1,1,1.1c0,0,0,0,0,0c0.6,0,1.1-0.5,1.1-1.1v-8.1h1v8.2
				c0,0.6,0.5,1,1.1,1c0.5,0,1-0.4,1-1v-5.7l0.1-7.2c0-0.7,0-1.3,0-1.7c0.7,1.4,1.2,3,1.3,4.5C10.1,115.7,12.1,115.7,12,114.4z"/>
		</g>
	</g>
	<g id="standing-frontal-man-silhouette-106" transform="translate(2865.146 1296.16)">
		<g id="Group_11182" transform="translate(0 0)">
			<ellipse id="Ellipse_8208" class="st0" cx="6" cy="103.9" rx="1.9" ry="1.9"/>
			<path id="Path_11682" class="st0" d="M12,114.4c-0.5-6.1-3.5-7.4-3.5-7.4c-1.9-1-4.1-0.8-5.8,0.5c-1.9,1.8-2.4,4.4-2.7,7
				c-0.2,1.3,1.9,1.3,2.1,0c0.1-1.5,0.5-3,1.2-4.4v1.5l0,7.2v5.7c0,0.6,0.4,1.1,1,1.1c0,0,0,0,0,0c0.6,0,1.1-0.5,1.1-1.1v-8.1h1v8.2
				c0,0.6,0.5,1,1.1,1c0.5,0,1-0.4,1-1v-5.7l0.1-7.2c0-0.7,0-1.3,0-1.7c0.7,1.4,1.2,3,1.3,4.5C10.1,115.7,12.1,115.7,12,114.4z"/>
		</g>
	</g>
	<g id="standing-frontal-man-silhouette-107" transform="translate(2865.146 1346.545)">
		<g id="Group_11183" transform="translate(0 0)">
			<ellipse id="Ellipse_8209" class="st0" cx="6" cy="103.9" rx="1.9" ry="1.9"/>
			<path id="Path_11683" class="st0" d="M12,114.4c-0.5-6.1-3.5-7.4-3.5-7.4c-1.9-1-4.1-0.8-5.8,0.5c-1.9,1.8-2.4,4.4-2.7,7
				c-0.2,1.3,1.9,1.3,2.1,0c0.1-1.5,0.5-3,1.2-4.4v1.5l0,7.2v5.7c0,0.6,0.4,1.1,1,1.1c0,0,0,0,0,0c0.6,0,1.1-0.5,1.1-1.1v-8.1h1v8.2
				c0,0.6,0.5,1,1.1,1c0.5,0,1-0.4,1-1v-5.7l0.1-7.2c0-0.7,0-1.3,0-1.7c0.7,1.4,1.2,3,1.3,4.5C10.1,115.7,12.1,115.7,12,114.4z"/>
		</g>
	</g>
	<g id="standing-frontal-man-silhouette-108" transform="translate(2865.146 1195.611)">
		<g id="Group_11184" transform="translate(0 0)">
			<ellipse id="Ellipse_8210" class="st0" cx="6" cy="103.9" rx="1.9" ry="1.9"/>
			<path id="Path_11684" class="st0" d="M12,114.4c-0.5-6.1-3.5-7.4-3.5-7.4c-1.9-1-4.1-0.8-5.8,0.5c-1.9,1.8-2.4,4.4-2.7,7
				c-0.2,1.3,1.9,1.3,2.1,0c0.1-1.5,0.5-3,1.2-4.4v1.5l0,7.2v5.7c0,0.6,0.4,1.1,1,1.1c0,0,0,0,0,0c0.6,0,1.1-0.5,1.1-1.1v-8.1h1v8.2
				c0,0.6,0.5,1,1.1,1c0.5,0,1-0.4,1-1v-5.7l0.1-7.2c0-0.7,0-1.3,0-1.7c0.7,1.4,1.2,3,1.3,4.5C10.1,115.7,12.1,115.7,12,114.4z"/>
		</g>
	</g>
	<g id="standing-frontal-man-silhouette-109" transform="translate(2865.754 943.968)">
		<g id="Group_11186" transform="translate(0 0)">
			<ellipse id="Ellipse_8212" class="st0" cx="6" cy="103.9" rx="1.9" ry="1.9"/>
			<path id="Path_11686" class="st0" d="M12,114.4c-0.5-6.1-3.5-7.4-3.5-7.4c-1.9-1-4.1-0.8-5.8,0.5c-1.9,1.8-2.4,4.4-2.7,7
				c-0.2,1.3,1.9,1.3,2.1,0c0.1-1.5,0.5-3,1.2-4.4v1.5l0,7.2v5.7c0,0.6,0.4,1.1,1,1.1c0,0,0,0,0,0c0.6,0,1.1-0.5,1.1-1.1v-8.1h1v8.2
				c0,0.6,0.5,1,1.1,1c0.5,0,1-0.4,1-1v-5.7l0.1-7.2c0-0.7,0-1.3,0-1.7c0.7,1.4,1.2,3,1.3,4.5C10.1,115.7,12.1,115.7,12,114.4z"/>
		</g>
	</g>
	<g id="standing-frontal-man-silhouette-110" transform="translate(2865.754 994.353)">
		<g id="Group_11187" transform="translate(0 0)">
			<ellipse id="Ellipse_8213" class="st0" cx="6" cy="103.9" rx="1.9" ry="1.9"/>
			<path id="Path_11687" class="st0" d="M12,114.4c-0.5-6.1-3.5-7.4-3.5-7.4c-1.9-1-4.1-0.8-5.8,0.5c-1.9,1.8-2.4,4.4-2.7,7
				c-0.2,1.3,1.9,1.3,2.1,0c0.1-1.5,0.5-3,1.2-4.4v1.5l0,7.2v5.7c0,0.6,0.4,1.1,1,1.1c0,0,0,0,0,0c0.6,0,1.1-0.5,1.1-1.1v-8.1h1v8.2
				c0,0.6,0.5,1,1.1,1c0.5,0,1-0.4,1-1v-5.7l0.1-7.2c0-0.7,0-1.3,0-1.7c0.7,1.4,1.2,3,1.3,4.5C10.1,115.7,12.1,115.7,12,114.4z"/>
		</g>
	</g>
	<g id="standing-frontal-man-silhouette-111" transform="translate(2920.754 994.353)">
		<g id="Group_11187-2" transform="translate(0 0)">
			<ellipse id="Ellipse_8213-2" class="st0" cx="6" cy="103.9" rx="1.9" ry="1.9"/>
			<path id="Path_11687-2" class="st0" d="M12,114.4c-0.5-6.1-3.5-7.4-3.5-7.4c-1.9-1-4.1-0.8-5.8,0.5c-1.9,1.8-2.4,4.4-2.7,7
				c-0.2,1.3,1.9,1.3,2.1,0c0.1-1.5,0.5-3,1.2-4.4v1.5l0,7.2v5.7c0,0.6,0.4,1.1,1,1.1c0,0,0,0,0,0c0.6,0,1.1-0.5,1.1-1.1v-8.1h1v8.2
				c0,0.6,0.5,1,1.1,1c0.5,0,1-0.4,1-1v-5.7l0.1-7.2c0-0.7,0-1.3,0-1.7c0.7,1.4,1.2,3,1.3,4.5C10.1,115.7,12.1,115.7,12,114.4z"/>
		</g>
	</g>
	<g id="standing-frontal-man-silhouette-112" transform="translate(2865.754 969.16)">
		<g id="Group_11189" transform="translate(0 0)">
			<ellipse id="Ellipse_8215" class="st0" cx="6" cy="103.9" rx="1.9" ry="1.9"/>
			<path id="Path_11689" class="st0" d="M12,114.4c-0.5-6.1-3.5-7.4-3.5-7.4c-1.9-1-4.1-0.8-5.8,0.5c-1.9,1.8-2.4,4.4-2.7,7
				c-0.2,1.3,1.9,1.3,2.1,0c0.1-1.5,0.5-3,1.2-4.4v1.5l0,7.2v5.7c0,0.6,0.4,1.1,1,1.1c0,0,0,0,0,0c0.6,0,1.1-0.5,1.1-1.1v-8.1h1v8.2
				c0,0.6,0.5,1,1.1,1c0.5,0,1-0.4,1-1v-5.7l0.1-7.2c0-0.7,0-1.3,0-1.7c0.7,1.4,1.2,3,1.3,4.5C10.1,115.7,12.1,115.7,12,114.4z"/>
		</g>
	</g>
	<g id="standing-frontal-man-silhouette-113" transform="translate(2920.754 969.16)">
		<g id="Group_11189-2" transform="translate(0 0)">
			<ellipse id="Ellipse_8215-2" class="st0" cx="6" cy="103.9" rx="1.9" ry="1.9"/>
			<path id="Path_11689-2" class="st0" d="M12,114.4c-0.5-6.1-3.5-7.4-3.5-7.4c-1.9-1-4.1-0.8-5.8,0.5c-1.9,1.8-2.4,4.4-2.7,7
				c-0.2,1.3,1.9,1.3,2.1,0c0.1-1.5,0.5-3,1.2-4.4v1.5l0,7.2v5.7c0,0.6,0.4,1.1,1,1.1c0,0,0,0,0,0c0.6,0,1.1-0.5,1.1-1.1v-8.1h1v8.2
				c0,0.6,0.5,1,1.1,1c0.5,0,1-0.4,1-1v-5.7l0.1-7.2c0-0.7,0-1.3,0-1.7c0.7,1.4,1.2,3,1.3,4.5C10.1,115.7,12.1,115.7,12,114.4z"/>
		</g>
	</g>
	<g id="standing-frontal-man-silhouette-114" transform="translate(2865.754 1019.545)">
		<g id="Group_11190" transform="translate(0 0)">
			<ellipse id="Ellipse_8216" class="st0" cx="6" cy="103.9" rx="1.9" ry="1.9"/>
			<path id="Path_11690" class="st0" d="M12,114.4c-0.5-6.1-3.5-7.4-3.5-7.4c-1.9-1-4.1-0.8-5.8,0.5c-1.9,1.8-2.4,4.4-2.7,7
				c-0.2,1.3,1.9,1.3,2.1,0c0.1-1.5,0.5-3,1.2-4.4v1.5l0,7.2v5.7c0,0.6,0.4,1.1,1,1.1c0,0,0,0,0,0c0.6,0,1.1-0.5,1.1-1.1v-8.1h1v8.2
				c0,0.6,0.5,1,1.1,1c0.5,0,1-0.4,1-1v-5.7l0.1-7.2c0-0.7,0-1.3,0-1.7c0.7,1.4,1.2,3,1.3,4.5C10.1,115.7,12.1,115.7,12,114.4z"/>
		</g>
	</g>
	<g id="standing-frontal-man-silhouette-115" transform="translate(2920.754 1019.545)">
		<g id="Group_11190-2" transform="translate(0 0)">
			<ellipse id="Ellipse_8216-2" class="st0" cx="6" cy="103.9" rx="1.9" ry="1.9"/>
			<path id="Path_11690-2" class="st0" d="M12,114.4c-0.5-6.1-3.5-7.4-3.5-7.4c-1.9-1-4.1-0.8-5.8,0.5c-1.9,1.8-2.4,4.4-2.7,7
				c-0.2,1.3,1.9,1.3,2.1,0c0.1-1.5,0.5-3,1.2-4.4v1.5l0,7.2v5.7c0,0.6,0.4,1.1,1,1.1c0,0,0,0,0,0c0.6,0,1.1-0.5,1.1-1.1v-8.1h1v8.2
				c0,0.6,0.5,1,1.1,1c0.5,0,1-0.4,1-1v-5.7l0.1-7.2c0-0.7,0-1.3,0-1.7c0.7,1.4,1.2,3,1.3,4.5C10.1,115.7,12.1,115.7,12,114.4z"/>
		</g>
	</g>
	<g id="standing-frontal-man-silhouette-116" transform="translate(2919.949 1220.584)">
		<g id="Group_11192" transform="translate(0 0)">
			<ellipse id="Ellipse_8218" class="st0" cx="6" cy="103.9" rx="1.9" ry="1.9"/>
			<path id="Path_11692" class="st0" d="M12,114.4c-0.5-6.1-3.5-7.4-3.5-7.4c-1.9-1-4.1-0.8-5.8,0.5c-1.9,1.8-2.4,4.4-2.7,7
				c-0.2,1.3,1.9,1.3,2.1,0c0.1-1.5,0.5-3,1.2-4.4v1.5l0,7.2v5.7c0,0.6,0.4,1.1,1,1.1c0,0,0,0,0,0c0.6,0,1.1-0.5,1.1-1.1v-8.1h1v8.2
				c0,0.6,0.5,1,1.1,1c0.5,0,1-0.4,1-1v-5.7l0.1-7.2c0-0.7,0-1.3,0-1.7c0.7,1.4,1.2,3,1.3,4.5C10.1,115.7,12.1,115.7,12,114.4z"/>
		</g>
	</g>
	<g id="standing-frontal-man-silhouette-117" transform="translate(2919.949 1270.968)">
		<g id="Group_11193" transform="translate(0 0)">
			<ellipse id="Ellipse_8219" class="st0" cx="6" cy="103.9" rx="1.9" ry="1.9"/>
			<path id="Path_11693" class="st0" d="M12,114.4c-0.5-6.1-3.5-7.4-3.5-7.4c-1.9-1-4.1-0.8-5.8,0.5c-1.9,1.8-2.4,4.4-2.7,7
				c-0.2,1.3,1.9,1.3,2.1,0c0.1-1.5,0.5-3,1.2-4.4v1.5l0,7.2v5.7c0,0.6,0.4,1.1,1,1.1c0,0,0,0,0,0c0.6,0,1.1-0.5,1.1-1.1v-8.1h1v8.2
				c0,0.6,0.5,1,1.1,1c0.5,0,1-0.4,1-1v-5.7l0.1-7.2c0-0.7,0-1.3,0-1.7c0.7,1.4,1.2,3,1.3,4.5C10.1,115.7,12.1,115.7,12,114.4z"/>
		</g>
	</g>
	<g id="standing-frontal-man-silhouette-118" transform="translate(2919.949 1321.353)">
		<g id="Group_11194" transform="translate(0 0)">
			<ellipse id="Ellipse_8220" class="st0" cx="6" cy="103.9" rx="1.9" ry="1.9"/>
			<path id="Path_11694" class="st0" d="M12,114.4c-0.5-6.1-3.5-7.4-3.5-7.4c-1.9-1-4.1-0.8-5.8,0.5c-1.9,1.8-2.4,4.4-2.7,7
				c-0.2,1.3,1.9,1.3,2.1,0c0.1-1.5,0.5-3,1.2-4.4v1.5l0,7.2v5.7c0,0.6,0.4,1.1,1,1.1c0,0,0,0,0,0c0.6,0,1.1-0.5,1.1-1.1v-8.1h1v8.2
				c0,0.6,0.5,1,1.1,1c0.5,0,1-0.4,1-1v-5.7l0.1-7.2c0-0.7,0-1.3,0-1.7c0.7,1.4,1.2,3,1.3,4.5C10.1,115.7,12.1,115.7,12,114.4z"/>
		</g>
	</g>
	<g id="standing-frontal-man-silhouette-119" transform="translate(2919.949 1245.776)">
		<g id="Group_11195" transform="translate(0 0)">
			<ellipse id="Ellipse_8221" class="st0" cx="6" cy="103.9" rx="1.9" ry="1.9"/>
			<path id="Path_11695" class="st0" d="M12,114.4c-0.5-6.1-3.5-7.4-3.5-7.4c-1.9-1-4.1-0.8-5.8,0.5c-1.9,1.8-2.4,4.4-2.7,7
				c-0.2,1.3,1.9,1.3,2.1,0c0.1-1.5,0.5-3,1.2-4.4v1.5l0,7.2v5.7c0,0.6,0.4,1.1,1,1.1c0,0,0,0,0,0c0.6,0,1.1-0.5,1.1-1.1v-8.1h1v8.2
				c0,0.6,0.5,1,1.1,1c0.5,0,1-0.4,1-1v-5.7l0.1-7.2c0-0.7,0-1.3,0-1.7c0.7,1.4,1.2,3,1.3,4.5C10.1,115.7,12.1,115.7,12,114.4z"/>
		</g>
	</g>
	<g id="standing-frontal-man-silhouette-120" transform="translate(2919.949 1296.16)">
		<g id="Group_11196" transform="translate(0 0)">
			<ellipse id="Ellipse_8222" class="st0" cx="6" cy="103.9" rx="1.9" ry="1.9"/>
			<path id="Path_11696" class="st0" d="M12,114.4c-0.5-6.1-3.5-7.4-3.5-7.4c-1.9-1-4.1-0.8-5.8,0.5c-1.9,1.8-2.4,4.4-2.7,7
				c-0.2,1.3,1.9,1.3,2.1,0c0.1-1.5,0.5-3,1.2-4.4v1.5l0,7.2v5.7c0,0.6,0.4,1.1,1,1.1c0,0,0,0,0,0c0.6,0,1.1-0.5,1.1-1.1v-8.1h1v8.2
				c0,0.6,0.5,1,1.1,1c0.5,0,1-0.4,1-1v-5.7l0.1-7.2c0-0.7,0-1.3,0-1.7c0.7,1.4,1.2,3,1.3,4.5C10.1,115.7,12.1,115.7,12,114.4z"/>
		</g>
	</g>
	<g id="standing-frontal-man-silhouette-121" transform="translate(2919.949 1346.545)">
		<g id="Group_11197" transform="translate(0 0)">
			<ellipse id="Ellipse_8223" class="st0" cx="6" cy="103.9" rx="1.9" ry="1.9"/>
			<path id="Path_11697" class="st0" d="M12,114.4c-0.5-6.1-3.5-7.4-3.5-7.4c-1.9-1-4.1-0.8-5.8,0.5c-1.9,1.8-2.4,4.4-2.7,7
				c-0.2,1.3,1.9,1.3,2.1,0c0.1-1.5,0.5-3,1.2-4.4v1.5l0,7.2v5.7c0,0.6,0.4,1.1,1,1.1c0,0,0,0,0,0c0.6,0,1.1-0.5,1.1-1.1v-8.1h1v8.2
				c0,0.6,0.5,1,1.1,1c0.5,0,1-0.4,1-1v-5.7l0.1-7.2c0-0.7,0-1.3,0-1.7c0.7,1.4,1.2,3,1.3,4.5C10.1,115.7,12.1,115.7,12,114.4z"/>
		</g>
	</g>
	<g id="standing-frontal-man-silhouette-122" transform="translate(2919.949 1195.611)">
		<g id="Group_11198" transform="translate(0 0)">
			<ellipse id="Ellipse_8224" class="st0" cx="6" cy="103.9" rx="1.9" ry="1.9"/>
			<path id="Path_11698" class="st0" d="M12,114.4c-0.5-6.1-3.5-7.4-3.5-7.4c-1.9-1-4.1-0.8-5.8,0.5c-1.9,1.8-2.4,4.4-2.7,7
				c-0.2,1.3,1.9,1.3,2.1,0c0.1-1.5,0.5-3,1.2-4.4v1.5l0,7.2v5.7c0,0.6,0.4,1.1,1,1.1c0,0,0,0,0,0c0.6,0,1.1-0.5,1.1-1.1v-8.1h1v8.2
				c0,0.6,0.5,1,1.1,1c0.5,0,1-0.4,1-1v-5.7l0.1-7.2c0-0.7,0-1.3,0-1.7c0.7,1.4,1.2,3,1.3,4.5C10.1,115.7,12.1,115.7,12,114.4z"/>
		</g>
	</g>
	<g id="standing-frontal-man-silhouette-123" transform="translate(2865.558 1094.968)">
		<g id="Group_11199" transform="translate(0 0)">
			<ellipse id="Ellipse_8225" class="st0" cx="6" cy="103.9" rx="1.9" ry="1.9"/>
			<path id="Path_11699" class="st0" d="M12,114.4c-0.5-6.1-3.5-7.4-3.5-7.4c-1.9-1-4.1-0.8-5.8,0.5c-1.9,1.8-2.4,4.4-2.7,7
				c-0.2,1.3,1.9,1.3,2.1,0c0.1-1.5,0.5-3,1.2-4.4v1.5l0,7.2v5.7c0,0.6,0.4,1.1,1,1.1c0,0,0,0,0,0c0.6,0,1.1-0.5,1.1-1.1v-8.1h1v8.2
				c0,0.6,0.5,1,1.1,1c0.5,0,1-0.4,1-1v-5.7l0.1-7.2c0-0.7,0-1.3,0-1.7c0.7,1.4,1.2,3,1.3,4.5C10.1,115.7,12.1,115.7,12,114.4z"/>
		</g>
	</g>
	<g id="standing-frontal-man-silhouette-124" transform="translate(2865.558 1145.353)">
		<g id="Group_11200" transform="translate(0 0)">
			<ellipse id="Ellipse_8226" class="st0" cx="6" cy="103.9" rx="1.9" ry="1.9"/>
			<path id="Path_11700" class="st0" d="M12,114.4c-0.5-6.1-3.5-7.4-3.5-7.4c-1.9-1-4.1-0.8-5.8,0.5c-1.9,1.8-2.4,4.4-2.7,7
				c-0.2,1.3,1.9,1.3,2.1,0c0.1-1.5,0.5-3,1.2-4.4v1.5l0,7.2v5.7c0,0.6,0.4,1.1,1,1.1c0,0,0,0,0,0c0.6,0,1.1-0.5,1.1-1.1v-8.1h1v8.2
				c0,0.6,0.5,1,1.1,1c0.5,0,1-0.4,1-1v-5.7l0.1-7.2c0-0.7,0-1.3,0-1.7c0.7,1.4,1.2,3,1.3,4.5C10.1,115.7,12.1,115.7,12,114.4z"/>
		</g>
	</g>
	<g id="standing-frontal-man-silhouette-125" transform="translate(2865.558 1069.776)">
		<g id="Group_11201" transform="translate(0 0)">
			<ellipse id="Ellipse_8227" class="st0" cx="6" cy="103.9" rx="1.9" ry="1.9"/>
			<path id="Path_11701" class="st0" d="M12,114.4c-0.5-6.1-3.5-7.4-3.5-7.4c-1.9-1-4.1-0.8-5.8,0.5c-1.9,1.8-2.4,4.4-2.7,7
				c-0.2,1.3,1.9,1.3,2.1,0c0.1-1.5,0.5-3,1.2-4.4v1.5l0,7.2v5.7c0,0.6,0.4,1.1,1,1.1c0,0,0,0,0,0c0.6,0,1.1-0.5,1.1-1.1v-8.1h1v8.2
				c0,0.6,0.5,1,1.1,1c0.5,0,1-0.4,1-1v-5.7l0.1-7.2c0-0.7,0-1.3,0-1.7c0.7,1.4,1.2,3,1.3,4.5C10.1,115.7,12.1,115.7,12,114.4z"/>
		</g>
	</g>
	<g id="standing-frontal-man-silhouette-126" transform="translate(2865.558 1120.16)">
		<g id="Group_11202" transform="translate(0 0)">
			<ellipse id="Ellipse_8228" class="st0" cx="6" cy="103.9" rx="1.9" ry="1.9"/>
			<path id="Path_11702" class="st0" d="M12,114.4c-0.5-6.1-3.5-7.4-3.5-7.4c-1.9-1-4.1-0.8-5.8,0.5c-1.9,1.8-2.4,4.4-2.7,7
				c-0.2,1.3,1.9,1.3,2.1,0c0.1-1.5,0.5-3,1.2-4.4v1.5l0,7.2v5.7c0,0.6,0.4,1.1,1,1.1c0,0,0,0,0,0c0.6,0,1.1-0.5,1.1-1.1v-8.1h1v8.2
				c0,0.6,0.5,1,1.1,1c0.5,0,1-0.4,1-1v-5.7l0.1-7.2c0-0.7,0-1.3,0-1.7c0.7,1.4,1.2,3,1.3,4.5C10.1,115.7,12.1,115.7,12,114.4z"/>
		</g>
	</g>
	<g id="standing-frontal-man-silhouette-127" transform="translate(2865.558 1170.545)">
		<g id="Group_11203" transform="translate(0 0)">
			<ellipse id="Ellipse_8229" class="st0" cx="6" cy="103.9" rx="1.9" ry="1.9"/>
			<path id="Path_11703" class="st0" d="M12,114.4c-0.5-6.1-3.5-7.4-3.5-7.4c-1.9-1-4.1-0.8-5.8,0.5c-1.9,1.8-2.4,4.4-2.7,7
				c-0.2,1.3,1.9,1.3,2.1,0c0.1-1.5,0.5-3,1.2-4.4v1.5l0,7.2v5.7c0,0.6,0.4,1.1,1,1.1c0,0,0,0,0,0c0.6,0,1.1-0.5,1.1-1.1v-8.1h1v8.2
				c0,0.6,0.5,1,1.1,1c0.5,0,1-0.4,1-1v-5.7l0.1-7.2c0-0.7,0-1.3,0-1.7c0.7,1.4,1.2,3,1.3,4.5C10.1,115.7,12.1,115.7,12,114.4z"/>
		</g>
	</g>
	<g id="standing-frontal-man-silhouette-128" transform="translate(2920.361 1094.968)">
		<g id="Group_11204" transform="translate(0 0)">
			<ellipse id="Ellipse_8230" class="st0" cx="6" cy="103.9" rx="1.9" ry="1.9"/>
			<path id="Path_11704" class="st0" d="M12,114.4c-0.5-6.1-3.5-7.4-3.5-7.4c-1.9-1-4.1-0.8-5.8,0.5c-1.9,1.8-2.4,4.4-2.7,7
				c-0.2,1.3,1.9,1.3,2.1,0c0.1-1.5,0.5-3,1.2-4.4v1.5l0,7.2v5.7c0,0.6,0.4,1.1,1,1.1c0,0,0,0,0,0c0.6,0,1.1-0.5,1.1-1.1v-8.1h1v8.2
				c0,0.6,0.5,1,1.1,1c0.5,0,1-0.4,1-1v-5.7l0.1-7.2c0-0.7,0-1.3,0-1.7c0.7,1.4,1.2,3,1.3,4.5C10.1,115.7,12.1,115.7,12,114.4z"/>
		</g>
	</g>
	<g id="standing-frontal-man-silhouette-129" transform="translate(2920.361 1145.353)">
		<g id="Group_11205" transform="translate(0 0)">
			<ellipse id="Ellipse_8231" class="st0" cx="6" cy="103.9" rx="1.9" ry="1.9"/>
			<path id="Path_11705" class="st0" d="M12,114.4c-0.5-6.1-3.5-7.4-3.5-7.4c-1.9-1-4.1-0.8-5.8,0.5c-1.9,1.8-2.4,4.4-2.7,7
				c-0.2,1.3,1.9,1.3,2.1,0c0.1-1.5,0.5-3,1.2-4.4v1.5l0,7.2v5.7c0,0.6,0.4,1.1,1,1.1c0,0,0,0,0,0c0.6,0,1.1-0.5,1.1-1.1v-8.1h1v8.2
				c0,0.6,0.5,1,1.1,1c0.5,0,1-0.4,1-1v-5.7l0.1-7.2c0-0.7,0-1.3,0-1.7c0.7,1.4,1.2,3,1.3,4.5C10.1,115.7,12.1,115.7,12,114.4z"/>
		</g>
	</g>
	<g id="standing-frontal-man-silhouette-130" transform="translate(2920.361 1069.776)">
		<g id="Group_11206" transform="translate(0 0)">
			<ellipse id="Ellipse_8232" class="st0" cx="6" cy="103.9" rx="1.9" ry="1.9"/>
			<path id="Path_11706" class="st0" d="M12,114.4c-0.5-6.1-3.5-7.4-3.5-7.4c-1.9-1-4.1-0.8-5.8,0.5c-1.9,1.8-2.4,4.4-2.7,7
				c-0.2,1.3,1.9,1.3,2.1,0c0.1-1.5,0.5-3,1.2-4.4v1.5l0,7.2v5.7c0,0.6,0.4,1.1,1,1.1c0,0,0,0,0,0c0.6,0,1.1-0.5,1.1-1.1v-8.1h1v8.2
				c0,0.6,0.5,1,1.1,1c0.5,0,1-0.4,1-1v-5.7l0.1-7.2c0-0.7,0-1.3,0-1.7c0.7,1.4,1.2,3,1.3,4.5C10.1,115.7,12.1,115.7,12,114.4z"/>
		</g>
	</g>
	<g id="standing-frontal-man-silhouette-131" transform="translate(2920.361 1120.16)">
		<g id="Group_11207" transform="translate(0 0)">
			<ellipse id="Ellipse_8233" class="st0" cx="6" cy="103.9" rx="1.9" ry="1.9"/>
			<path id="Path_11707" class="st0" d="M12,114.4c-0.5-6.1-3.5-7.4-3.5-7.4c-1.9-1-4.1-0.8-5.8,0.5c-1.9,1.8-2.4,4.4-2.7,7
				c-0.2,1.3,1.9,1.3,2.1,0c0.1-1.5,0.5-3,1.2-4.4v1.5l0,7.2v5.7c0,0.6,0.4,1.1,1,1.1c0,0,0,0,0,0c0.6,0,1.1-0.5,1.1-1.1v-8.1h1v8.2
				c0,0.6,0.5,1,1.1,1c0.5,0,1-0.4,1-1v-5.7l0.1-7.2c0-0.7,0-1.3,0-1.7c0.7,1.4,1.2,3,1.3,4.5C10.1,115.7,12.1,115.7,12,114.4z"/>
		</g>
	</g>
	<g id="standing-frontal-man-silhouette-132" transform="translate(2920.361 1170.545)">
		<g id="Group_11208" transform="translate(0 0)">
			<ellipse id="Ellipse_8234" class="st0" cx="6" cy="103.9" rx="1.9" ry="1.9"/>
			<path id="Path_11708" class="st0" d="M12,114.4c-0.5-6.1-3.5-7.4-3.5-7.4c-1.9-1-4.1-0.8-5.8,0.5c-1.9,1.8-2.4,4.4-2.7,7
				c-0.2,1.3,1.9,1.3,2.1,0c0.1-1.5,0.5-3,1.2-4.4v1.5l0,7.2v5.7c0,0.6,0.4,1.1,1,1.1c0,0,0,0,0,0c0.6,0,1.1-0.5,1.1-1.1v-8.1h1v8.2
				c0,0.6,0.5,1,1.1,1c0.5,0,1-0.4,1-1v-5.7l0.1-7.2c0-0.7,0-1.3,0-1.7c0.7,1.4,1.2,3,1.3,4.5C10.1,115.7,12.1,115.7,12,114.4z"/>
		</g>
	</g>
</g>
</svg>
