<?xml version="1.0" encoding="utf-8"?>
<!-- Generator: Adobe Illustrator 25.1.0, SVG Export Plug-In . SVG Version: 6.00 Build 0)  -->
<svg version="1.1" id="Laag_1" xmlns="http://www.w3.org/2000/svg" xmlns:xlink="http://www.w3.org/1999/xlink" x="0px" y="0px"
	 viewBox="0 0 866 655" style="enable-background:new 0 0 866 655;" xml:space="preserve">
<style type="text/css">
	.st0{fill:#0B2023;}
	.st1{fill:#276068;}
	.st2{fill:#38717A;}
	.st3{fill:#4A8E98;}
	.st4{fill:#62AAB5;}
	.st5{fill:#74B6C1;}
	.st6{fill:#88C9D4;}
	.st7{fill:#B2E7EF;}
	.st8{opacity:0.501;fill:none;stroke:#FFFFFF;stroke-width:2;enable-background:new    ;}
	.st9{fill:#FFFFFF;}
	.st10{font-family:'HelveticaNeue-Medium';}
	.st11{font-size:26px;}
	.st12{font-family:'HelveticaNeue-Light';}
	.st13{font-size:20px;}
</style>
<path id="Path_13857" class="st0" d="M616.6,313.4c-15.3-47.4-45.4-82.3-86.8-110c-29.2-19-70.3-27.4-97.7-27.1
	c0-21.2,0-42.4-0.1-63.6c65.1-0.1,122,22,170.7,64.7c35.7,31.2,60.2,69.9,74.5,115.1c0.3,1.2,0.5,2.5,0.7,3.8c-2,0.5-4,0.9-5.9,1.4
	C653.5,302.9,635,308.1,616.6,313.4z"/>
<path id="Path_13858" class="st1" d="M616.6,313.4c18.5-5.3,36.9-10.5,55.4-15.7c2-0.6,4-1,5.9-1.4c10,29.4,12.7,59.7,10.5,90.4
	c-3.7,51.5-21.4,97.9-52.9,139c-2,2.6-4.3,5-6.5,7.6c-16.6-13.1-32.8-26.8-48.7-40.9c18.3-23.3,32-48.9,38.9-77.8
	C627.2,380.6,626.1,346.9,616.6,313.4z"/>
<path id="Path_13859" class="st2" d="M580.2,492.3c15.8,14.1,32,27.7,48.7,40.9c-18.5,22.9-41,42.1-66.5,56.8
	c-45.2,26.2-93.9,38.5-146.3,34.9c1.1-21.3,2.3-42.5,3.4-63.8c20.9,0.3,41.5-0.6,61.9-6.2c36.4-10,67.4-28.7,92.9-56.5
	C576.2,496.3,578.3,494.3,580.2,492.3z"/>
<path id="Path_13860" class="st3" d="M419.6,561c-1.1,21.3-2.3,42.6-3.4,63.8c-40.6-2-78.3-13.9-113.4-34.1
	c-29.5-17.1-55.3-39.9-75.7-67.2c-1-1.5-1.8-3-2.6-4.6c14.1-10.1,28.1-20.2,42.2-30.2c3.2-2.3,5.9-5.8,10.6-5.4
	C313,530.4,360.8,555.7,419.6,561z"/>
<path id="Path_13861" class="st4" d="M277.2,483.3c-4.6-0.4-7.3,3.1-10.6,5.4c-14.1,10-28.2,20.1-42.2,30.2
	c-7.2-6.2-11.1-14.8-15.6-22.7c-16.3-28.9-27.3-59.6-31.5-92.7c-0.5-4.1,0.6-5,4-5.4c11.4-1.4,22.9-2.9,34.3-4.3
	c6.6-0.8,13.4-0.8,19.9-2.1c5-1,5.6,1,6.1,5C245.8,428.6,258.1,457.4,277.2,483.3z"/>
<path id="Path_13867" class="st5" d="M241,395.4c-3.9-2.6-8-0.8-12-0.4c-17.3,1.8-34.7,3.9-52,5.8c-3.4-8.9-2.6-18.4-2.7-27.6
	c-0.3-33.3,4.9-65.7,17.4-96.8c1.5-3.8,3-4.1,6.1-2.8c10.8,4.4,21.6,8.6,32.4,13c6.2,2.6,12.2,5.9,18.6,7.9c4.9,1.6,4.5,3.6,3,7.4
	C239.9,332.1,236.7,363.3,241,395.4z"/>
<path id="Path_13862" class="st6" d="M303.8,224.5c-4.3,4.8-5.8,6.4-8.8,9.5c-16.3,16.5-29.4,35.8-38.8,57c-1.8,4.2-3.2,5.9-8.2,3.7
	c-16.2-7.1-32.7-13.4-49.1-20.1c-2.4-1-5.5-1.3-3.6-5.7c15.5-35.2,36.7-66.4,66.3-91.3C275.6,193.2,289.7,208.8,303.8,224.5z"/>
<path id="Path_13863" class="st7" d="M303.8,224.5c-14.1-15.6-28.1-31.3-42.2-46.9c16.4-15.7,36.4-28.3,56.8-38.1
	c2,3.4,2.7,5,4.1,7.7c8.1,16.2,16.3,32.5,24.4,48.8C331.8,204.4,317.4,213.9,303.8,224.5z"/>
<g transform="matrix(1, 0, 0, 1, 216, 8827)">
	<path id="Path_13869-2" class="st8" d="M165.7-8721.5v-81.8l-304.5-0.2"/>
</g>
<g transform="matrix(1, 0, 0, 1, 216, 8827)">
	<path id="Path_13871-2" class="st8" d="M63.3-8676.2l-44.9-45.3h-157.1"/>
</g>
<g transform="matrix(1, 0, 0, 1, 216, 8827)">
	<path id="Path_13872-2" class="st8" d="M-10.2-8613.9l-28.6-16.8h-100"/>
</g>
<g transform="matrix(1, 0, 0, 1, 216, 8827)">
	<path id="Path_13878-2" class="st8" d="M398.7-8657.9l38.5-16.8h134.9"/>
</g>
<g transform="matrix(1, 0, 0, 1, 216, 8827)">
	<path id="Path_13875-2" class="st8" d="M72-8224.1l-46.8,16.8h-163.9"/>
</g>
<g transform="matrix(1, 0, 0, 1, 216, 8827)">
	<path id="Path_13876-2" class="st8" d="M361.4-8224.1l46.8,16.8h163.9"/>
</g>
<g transform="matrix(1, 0, 0, 1, 216, 8827)">
	<path id="Path_13874-2" class="st8" d="M-40.4-8352.5l-21.9,14.5h-76.5"/>
</g>
<g transform="matrix(1, 0, 0, 1, 216, 8827)">
	<path id="Path_13873-2" class="st8" d="M-138.8-8490h83.3"/>
</g>
<g transform="matrix(1, 0, 0, 1, 216, 8827)">
	<path id="Path_13877-2" class="st8" d="M488.8-8398.5h83.3"/>
</g>
<text transform="matrix(1 0 0 1 26.4399 26.9816)" class="st9 st10 st11">7%</text>
<text transform="matrix(1 0 0 1 26.4399 115.9102)" class="st9 st10 st11">4%</text>
<text transform="matrix(1 0 0 1 26.4399 200.7717)" class="st9 st10 st11">7%</text>
<text transform="matrix(1 0 0 1 26.4399 336.9902)" class="st9 st10 st11">8%</text>
<text transform="matrix(1 0 0 1 26.4399 494)" class="st9 st10 st11">8%</text>
<text transform="matrix(1 0 0 1 10.544 625)" class="st9 st10 st11">14%</text>
<text transform="matrix(1 0 0 1 794 625)" class="st9 st10 st11">15%</text>
<text transform="matrix(1 0 0 1 793.9998 435)" class="st9 st10 st11">16%</text>
<text transform="matrix(1 0 0 1 793.9998 158)" class="st9 st10 st11">21%</text>
<text transform="matrix(1 0 0 1 732 180)" class="st9 st12 st13">Film streaming</text>
<text transform="matrix(1 0 0 1 706 460)" class="st9 st12 st13">Muziek streaming</text>
<text transform="matrix(1 0 0 1 666 651)" class="st9 st12 st13">Telefoon abonnement</text>
<text transform="matrix(1 0 0 1 14 648)" class="st9 st12 st13">Culturele evenementen</text>
<text transform="matrix(1 0 0 1 23 517)" class="st9 st12 st13">Online games</text>
<text transform="matrix(1 0 0 1 23 365)" class="st9 st12 st13">E-books</text>
<text transform="matrix(1 0 0 1 23 225)" class="st9 st12 st13">Computer</text>
<text transform="matrix(1 0 0 1 23 249)" class="st9 st12 st13">software</text>
<text transform="matrix(1 0 0 1 23 138)" class="st9 st12 st13">Andere betaalde apps</text>
<text transform="matrix(1 0 0 1 23 48)" class="st9 st12 st13">Overig</text>
<path id="Path_13864" class="st9" d="M346.4,196.1c-8.1-16.3-16.3-32.5-24.4-48.8c-1.4-2.7-2.2-4.3-4.1-7.7
	c25.4-12,71.3-29.3,113.7-26.7c0,1.6,0.6,56.9,0.3,63.6C411.3,177.5,371.8,181.9,346.4,196.1z"/>
</svg>
