<?xml version="1.0" encoding="utf-8"?>
<!-- Generator: Adobe Illustrator 25.1.0, SVG Export Plug-In . SVG Version: 6.00 Build 0)  -->
<svg version="1.1" id="Laag_1" xmlns="http://www.w3.org/2000/svg" xmlns:xlink="http://www.w3.org/1999/xlink" x="0px" y="0px"
	 viewBox="0 0 108.7 528.2" style="enable-background:new 0 0 108.7 528.2;" xml:space="preserve">
<style type="text/css">
	.st0{fill:#FFFFFF;}
</style>
<g id="Group_13281" transform="translate(-4111.259 -867.968)">
	<g id="standing-frontal-man-silhouette" transform="translate(4112.043 1270.968)">
		<g id="Group_9897" transform="translate(0 0)">
			<ellipse id="Ellipse_6923" class="st0" cx="6" cy="27.9" rx="1.9" ry="1.9"/>
			<path id="Path_10397" class="st0" d="M12,38.4c-0.5-6.1-3.5-7.4-3.5-7.4c-1.9-1-4.1-0.8-5.8,0.5c-1.9,1.8-2.4,4.4-2.7,7
				c-0.2,1.3,1.9,1.3,2.1,0c0.1-1.5,0.5-3,1.2-4.4v1.5l0,7.2v5.7c0,0.6,0.4,1.1,1,1.1c0,0,0,0,0,0c0.6,0,1.1-0.5,1.1-1.1v-8.1h1v8.2
				c0,0.6,0.5,1,1.1,1c0.5,0,1-0.4,1-1v-5.7l0.1-7.2c0-0.7,0-1.3,0-1.7c0.7,1.4,1.2,3,1.3,4.5C10.1,39.7,12.1,39.7,12,38.4z"/>
		</g>
	</g>
	<g id="standing-frontal-man-silhouette-2" transform="translate(4112.043 1321.353)">
		<g id="Group_9898" transform="translate(0 0)">
			<ellipse id="Ellipse_6924" class="st0" cx="6" cy="27.9" rx="1.9" ry="1.9"/>
			<path id="Path_10398" class="st0" d="M12,38.4c-0.5-6.1-3.5-7.4-3.5-7.4c-1.9-1-4.1-0.8-5.8,0.5c-1.9,1.8-2.4,4.4-2.7,7
				c-0.2,1.3,1.9,1.3,2.1,0c0.1-1.5,0.5-3,1.2-4.4v1.5l0,7.2v5.7c0,0.6,0.4,1.1,1,1.1c0,0,0,0,0,0c0.6,0,1.1-0.5,1.1-1.1v-8.1h1v8.2
				c0,0.6,0.5,1,1.1,1c0.5,0,1-0.4,1-1v-5.7l0.1-7.2c0-0.7,0-1.3,0-1.7c0.7,1.4,1.2,3,1.3,4.5C10.1,39.7,12.1,39.7,12,38.4z"/>
		</g>
	</g>
	<g id="standing-frontal-man-silhouette-3" transform="translate(4112.043 1220.353)">
		<g id="Group_9899" transform="translate(0 0)">
			<ellipse id="Ellipse_6925" class="st0" cx="6" cy="27.9" rx="1.9" ry="1.9"/>
			<path id="Path_10399" class="st0" d="M12,38.4c-0.5-6.1-3.5-7.4-3.5-7.4c-1.9-1-4.1-0.8-5.8,0.5c-1.9,1.8-2.4,4.4-2.7,7
				c-0.2,1.3,1.9,1.3,2.1,0c0.1-1.5,0.5-3,1.2-4.4v1.5l0,7.2v5.7c0,0.6,0.4,1.1,1,1.1c0,0,0,0,0,0c0.6,0,1.1-0.5,1.1-1.1v-8.1h1v8.2
				c0,0.6,0.5,1,1.1,1c0.5,0,1-0.4,1-1v-5.7l0.1-7.2c0-0.7,0-1.3,0-1.7c0.7,1.4,1.2,3,1.3,4.5C10.1,39.7,12.1,39.7,12,38.4z"/>
		</g>
	</g>
	<g id="standing-frontal-man-silhouette-4" transform="translate(4112.043 1296.16)">
		<g id="Group_9900" transform="translate(0 0)">
			<ellipse id="Ellipse_6926" class="st0" cx="6" cy="27.9" rx="1.9" ry="1.9"/>
			<path id="Path_10400" class="st0" d="M12,38.4c-0.5-6.1-3.5-7.4-3.5-7.4c-1.9-1-4.1-0.8-5.8,0.5c-1.9,1.8-2.4,4.4-2.7,7
				c-0.2,1.3,1.9,1.3,2.1,0c0.1-1.5,0.5-3,1.2-4.4v1.5l0,7.2v5.7c0,0.6,0.4,1.1,1,1.1c0,0,0,0,0,0c0.6,0,1.1-0.5,1.1-1.1v-8.1h1v8.2
				c0,0.6,0.5,1,1.1,1c0.5,0,1-0.4,1-1v-5.7l0.1-7.2c0-0.7,0-1.3,0-1.7c0.7,1.4,1.2,3,1.3,4.5C10.1,39.7,12.1,39.7,12,38.4z"/>
		</g>
	</g>
	<g id="standing-frontal-man-silhouette-5" transform="translate(4112.043 1195.16)">
		<g id="Group_9901" transform="translate(0 0)">
			<ellipse id="Ellipse_6927" class="st0" cx="6" cy="27.9" rx="1.9" ry="1.9"/>
			<path id="Path_10401" class="st0" d="M12,38.4c-0.5-6.1-3.5-7.4-3.5-7.4c-1.9-1-4.1-0.8-5.8,0.5c-1.9,1.8-2.4,4.4-2.7,7
				c-0.2,1.3,1.9,1.3,2.1,0c0.1-1.5,0.5-3,1.2-4.4v1.5l0,7.2v5.7c0,0.6,0.4,1.1,1,1.1c0,0,0,0,0,0c0.6,0,1.1-0.5,1.1-1.1v-8.1h1v8.2
				c0,0.6,0.5,1,1.1,1c0.5,0,1-0.4,1-1v-5.7l0.1-7.2c0-0.7,0-1.3,0-1.7c0.7,1.4,1.2,3,1.3,4.5C10.1,39.7,12.1,39.7,12,38.4z"/>
		</g>
	</g>
	<g id="standing-frontal-man-silhouette-6" transform="translate(4112.043 1170.16)">
		<g id="Group_9902" transform="translate(0 0)">
			<ellipse id="Ellipse_6928" class="st0" cx="6" cy="27.9" rx="1.9" ry="1.9"/>
			<path id="Path_10402" class="st0" d="M12,38.4c-0.5-6.1-3.5-7.4-3.5-7.4c-1.9-1-4.1-0.8-5.8,0.5c-1.9,1.8-2.4,4.4-2.7,7
				c-0.2,1.3,1.9,1.3,2.1,0c0.1-1.5,0.5-3,1.2-4.4v1.5l0,7.2v5.7c0,0.6,0.4,1.1,1,1.1c0,0,0,0,0,0c0.6,0,1.1-0.5,1.1-1.1v-8.1h1v8.2
				c0,0.6,0.5,1,1.1,1c0.5,0,1-0.4,1-1v-5.7l0.1-7.2c0-0.7,0-1.3,0-1.7c0.7,1.4,1.2,3,1.3,4.5C10.1,39.7,12.1,39.7,12,38.4z"/>
		</g>
	</g>
	<g id="standing-frontal-man-silhouette-7" transform="translate(4112.043 1346.545)">
		<g id="Group_9903" transform="translate(0 0)">
			<ellipse id="Ellipse_6929" class="st0" cx="6" cy="27.9" rx="1.9" ry="1.9"/>
			<path id="Path_10403" class="st0" d="M12,38.4c-0.5-6.1-3.5-7.4-3.5-7.4c-1.9-1-4.1-0.8-5.8,0.5c-1.9,1.8-2.4,4.4-2.7,7
				c-0.2,1.3,1.9,1.3,2.1,0c0.1-1.5,0.5-3,1.2-4.4v1.5l0,7.2v5.7c0,0.6,0.4,1.1,1,1.1c0,0,0,0,0,0c0.6,0,1.1-0.5,1.1-1.1v-8.1h1v8.2
				c0,0.6,0.5,1,1.1,1c0.5,0,1-0.4,1-1v-5.7l0.1-7.2c0-0.7,0-1.3,0-1.7c0.7,1.4,1.2,3,1.3,4.5C10.1,39.7,12.1,39.7,12,38.4z"/>
		</g>
	</g>
	<g id="standing-frontal-man-silhouette-8" transform="translate(4112.043 1245.545)">
		<g id="Group_9904" transform="translate(0 0)">
			<ellipse id="Ellipse_6930" class="st0" cx="6" cy="27.9" rx="1.9" ry="1.9"/>
			<path id="Path_10404" class="st0" d="M12,38.4c-0.5-6.1-3.5-7.4-3.5-7.4c-1.9-1-4.1-0.8-5.8,0.5c-1.9,1.8-2.4,4.4-2.7,7
				c-0.2,1.3,1.9,1.3,2.1,0c0.1-1.5,0.5-3,1.2-4.4v1.5l0,7.2v5.7c0,0.6,0.4,1.1,1,1.1c0,0,0,0,0,0c0.6,0,1.1-0.5,1.1-1.1v-8.1h1v8.2
				c0,0.6,0.5,1,1.1,1c0.5,0,1-0.4,1-1v-5.7l0.1-7.2c0-0.7,0-1.3,0-1.7c0.7,1.4,1.2,3,1.3,4.5C10.1,39.7,12.1,39.7,12,38.4z"/>
		</g>
	</g>
	<g id="standing-frontal-man-silhouette-9" transform="translate(4111.65 1068.968)">
		<g id="Group_9905" transform="translate(0 0)">
			<ellipse id="Ellipse_6931" class="st0" cx="6" cy="27.9" rx="1.9" ry="1.9"/>
			<path id="Path_10405" class="st0" d="M12,38.4c-0.5-6.1-3.5-7.4-3.5-7.4c-1.9-1-4.1-0.8-5.8,0.5c-1.9,1.8-2.4,4.4-2.7,7
				c-0.2,1.3,1.9,1.3,2.1,0c0.1-1.5,0.5-3,1.2-4.4v1.5l0,7.2v5.7c0,0.6,0.4,1.1,1,1.1c0,0,0,0,0,0c0.6,0,1.1-0.5,1.1-1.1v-8.1h1v8.2
				c0,0.6,0.5,1,1.1,1c0.5,0,1-0.4,1-1v-5.7l0.1-7.2c0-0.7,0-1.3,0-1.7c0.7,1.4,1.2,3,1.3,4.5C10.1,39.7,12.1,39.7,12,38.4z"/>
		</g>
	</g>
	<g id="standing-frontal-man-silhouette-10" transform="translate(4111.65 1119.353)">
		<g id="Group_9906" transform="translate(0 0)">
			<ellipse id="Ellipse_6932" class="st0" cx="6" cy="27.9" rx="1.9" ry="1.9"/>
			<path id="Path_10406" class="st0" d="M12,38.4c-0.5-6.1-3.5-7.4-3.5-7.4c-1.9-1-4.1-0.8-5.8,0.5c-1.9,1.8-2.4,4.4-2.7,7
				c-0.2,1.3,1.9,1.3,2.1,0c0.1-1.5,0.5-3,1.2-4.4v1.5l0,7.2v5.7c0,0.6,0.4,1.1,1,1.1c0,0,0,0,0,0c0.6,0,1.1-0.5,1.1-1.1v-8.1h1v8.2
				c0,0.6,0.5,1,1.1,1c0.5,0,1-0.4,1-1v-5.7l0.1-7.2c0-0.7,0-1.3,0-1.7c0.7,1.4,1.2,3,1.3,4.5C10.1,39.7,12.1,39.7,12,38.4z"/>
		</g>
	</g>
	<g id="standing-frontal-man-silhouette-11" transform="translate(4111.65 1018.353)">
		<g id="Group_9907" transform="translate(0 0)">
			<ellipse id="Ellipse_6933" class="st0" cx="6" cy="27.9" rx="1.9" ry="1.9"/>
			<path id="Path_10407" class="st0" d="M12,38.4c-0.5-6.1-3.5-7.4-3.5-7.4c-1.9-1-4.1-0.8-5.8,0.5c-1.9,1.8-2.4,4.4-2.7,7
				c-0.2,1.3,1.9,1.3,2.1,0c0.1-1.5,0.5-3,1.2-4.4v1.5l0,7.2v5.7c0,0.6,0.4,1.1,1,1.1c0,0,0,0,0,0c0.6,0,1.1-0.5,1.1-1.1v-8.1h1v8.2
				c0,0.6,0.5,1,1.1,1c0.5,0,1-0.4,1-1v-5.7l0.1-7.2c0-0.7,0-1.3,0-1.7c0.7,1.4,1.2,3,1.3,4.5C10.1,39.7,12.1,39.7,12,38.4z"/>
		</g>
	</g>
	<g id="standing-frontal-man-silhouette-12" transform="translate(4111.65 1094.16)">
		<g id="Group_9908" transform="translate(0 0)">
			<ellipse id="Ellipse_6934" class="st0" cx="6" cy="27.9" rx="1.9" ry="1.9"/>
			<path id="Path_10408" class="st0" d="M12,38.4c-0.5-6.1-3.5-7.4-3.5-7.4c-1.9-1-4.1-0.8-5.8,0.5c-1.9,1.8-2.4,4.4-2.7,7
				c-0.2,1.3,1.9,1.3,2.1,0c0.1-1.5,0.5-3,1.2-4.4v1.5l0,7.2v5.7c0,0.6,0.4,1.1,1,1.1c0,0,0,0,0,0c0.6,0,1.1-0.5,1.1-1.1v-8.1h1v8.2
				c0,0.6,0.5,1,1.1,1c0.5,0,1-0.4,1-1v-5.7l0.1-7.2c0-0.7,0-1.3,0-1.7c0.7,1.4,1.2,3,1.3,4.5C10.1,39.7,12.1,39.7,12,38.4z"/>
		</g>
	</g>
	<g id="standing-frontal-man-silhouette-13" transform="translate(4111.65 993.16)">
		<g id="Group_9909" transform="translate(0 0)">
			<ellipse id="Ellipse_6935" class="st0" cx="6" cy="27.9" rx="1.9" ry="1.9"/>
			<path id="Path_10409" class="st0" d="M12,38.4c-0.5-6.1-3.5-7.4-3.5-7.4c-1.9-1-4.1-0.8-5.8,0.5c-1.9,1.8-2.4,4.4-2.7,7
				c-0.2,1.3,1.9,1.3,2.1,0c0.1-1.5,0.5-3,1.2-4.4v1.5l0,7.2v5.7c0,0.6,0.4,1.1,1,1.1c0,0,0,0,0,0c0.6,0,1.1-0.5,1.1-1.1v-8.1h1v8.2
				c0,0.6,0.5,1,1.1,1c0.5,0,1-0.4,1-1v-5.7l0.1-7.2c0-0.7,0-1.3,0-1.7c0.7,1.4,1.2,3,1.3,4.5C10.1,39.7,12.1,39.7,12,38.4z"/>
		</g>
	</g>
	<g id="standing-frontal-man-silhouette-14" transform="translate(4111.65 968.16)">
		<g id="Group_9910" transform="translate(0 0)">
			<ellipse id="Ellipse_6936" class="st0" cx="6" cy="27.9" rx="1.9" ry="1.9"/>
			<path id="Path_10410" class="st0" d="M12,38.4c-0.5-6.1-3.5-7.4-3.5-7.4c-1.9-1-4.1-0.8-5.8,0.5c-1.9,1.8-2.4,4.4-2.7,7
				c-0.2,1.3,1.9,1.3,2.1,0c0.1-1.5,0.5-3,1.2-4.4v1.5l0,7.2v5.7c0,0.6,0.4,1.1,1,1.1c0,0,0,0,0,0c0.6,0,1.1-0.5,1.1-1.1v-8.1h1v8.2
				c0,0.6,0.5,1,1.1,1c0.5,0,1-0.4,1-1v-5.7l0.1-7.2c0-0.7,0-1.3,0-1.7c0.7,1.4,1.2,3,1.3,4.5C10.1,39.7,12.1,39.7,12,38.4z"/>
		</g>
	</g>
	<g id="standing-frontal-man-silhouette-15" transform="translate(4111.65 1144.545)">
		<g id="Group_9911" transform="translate(0 0)">
			<ellipse id="Ellipse_6937" class="st0" cx="6" cy="27.9" rx="1.9" ry="1.9"/>
			<path id="Path_10411" class="st0" d="M12,38.4c-0.5-6.1-3.5-7.4-3.5-7.4c-1.9-1-4.1-0.8-5.8,0.5c-1.9,1.8-2.4,4.4-2.7,7
				c-0.2,1.3,1.9,1.3,2.1,0c0.1-1.5,0.5-3,1.2-4.4v1.5l0,7.2v5.7c0,0.6,0.4,1.1,1,1.1c0,0,0,0,0,0c0.6,0,1.1-0.5,1.1-1.1v-8.1h1v8.2
				c0,0.6,0.5,1,1.1,1c0.5,0,1-0.4,1-1v-5.7l0.1-7.2c0-0.7,0-1.3,0-1.7c0.7,1.4,1.2,3,1.3,4.5C10.1,39.7,12.1,39.7,12,38.4z"/>
		</g>
	</g>
	<g id="standing-frontal-man-silhouette-16" transform="translate(4111.65 1043.545)">
		<g id="Group_9912" transform="translate(0 0)">
			<ellipse id="Ellipse_6938" class="st0" cx="6" cy="27.9" rx="1.9" ry="1.9"/>
			<path id="Path_10412" class="st0" d="M12,38.4c-0.5-6.1-3.5-7.4-3.5-7.4c-1.9-1-4.1-0.8-5.8,0.5c-1.9,1.8-2.4,4.4-2.7,7
				c-0.2,1.3,1.9,1.3,2.1,0c0.1-1.5,0.5-3,1.2-4.4v1.5l0,7.2v5.7c0,0.6,0.4,1.1,1,1.1c0,0,0,0,0,0c0.6,0,1.1-0.5,1.1-1.1v-8.1h1v8.2
				c0,0.6,0.5,1,1.1,1c0.5,0,1-0.4,1-1v-5.7l0.1-7.2c0-0.7,0-1.3,0-1.7c0.7,1.4,1.2,3,1.3,4.5C10.1,39.7,12.1,39.7,12,38.4z"/>
		</g>
	</g>
	<g id="standing-frontal-man-silhouette-17" transform="translate(4166.846 1270.968)">
		<g id="Group_9913" transform="translate(0 0)">
			<ellipse id="Ellipse_6939" class="st0" cx="6" cy="27.9" rx="1.9" ry="1.9"/>
			<path id="Path_10413" class="st0" d="M12,38.4c-0.5-6.1-3.5-7.4-3.5-7.4c-1.9-1-4.1-0.8-5.8,0.5c-1.9,1.8-2.4,4.4-2.7,7
				c-0.2,1.3,1.9,1.3,2.1,0c0.1-1.5,0.5-3,1.2-4.4v1.5l0,7.2v5.7c0,0.6,0.4,1.1,1,1.1c0,0,0,0,0,0c0.6,0,1.1-0.5,1.1-1.1v-8.1h1v8.2
				c0,0.6,0.5,1,1.1,1c0.5,0,1-0.4,1-1v-5.7l0.1-7.2c0-0.7,0-1.3,0-1.7c0.7,1.4,1.2,3,1.3,4.5C10.1,39.7,12.1,39.7,12,38.4z"/>
		</g>
	</g>
	<g id="standing-frontal-man-silhouette-18" transform="translate(4166.846 1321.353)">
		<g id="Group_9914" transform="translate(0 0)">
			<ellipse id="Ellipse_6940" class="st0" cx="6" cy="27.9" rx="1.9" ry="1.9"/>
			<path id="Path_10414" class="st0" d="M12,38.4c-0.5-6.1-3.5-7.4-3.5-7.4c-1.9-1-4.1-0.8-5.8,0.5c-1.9,1.8-2.4,4.4-2.7,7
				c-0.2,1.3,1.9,1.3,2.1,0c0.1-1.5,0.5-3,1.2-4.4v1.5l0,7.2v5.7c0,0.6,0.4,1.1,1,1.1c0,0,0,0,0,0c0.6,0,1.1-0.5,1.1-1.1v-8.1h1v8.2
				c0,0.6,0.5,1,1.1,1c0.5,0,1-0.4,1-1v-5.7l0.1-7.2c0-0.7,0-1.3,0-1.7c0.7,1.4,1.2,3,1.3,4.5C10.1,39.7,12.1,39.7,12,38.4z"/>
		</g>
	</g>
	<g id="standing-frontal-man-silhouette-19" transform="translate(4166.846 1220.353)">
		<g id="Group_9915" transform="translate(0 0)">
			<ellipse id="Ellipse_6941" class="st0" cx="6" cy="27.9" rx="1.9" ry="1.9"/>
			<path id="Path_10415" class="st0" d="M12,38.4c-0.5-6.1-3.5-7.4-3.5-7.4c-1.9-1-4.1-0.8-5.8,0.5c-1.9,1.8-2.4,4.4-2.7,7
				c-0.2,1.3,1.9,1.3,2.1,0c0.1-1.5,0.5-3,1.2-4.4v1.5l0,7.2v5.7c0,0.6,0.4,1.1,1,1.1c0,0,0,0,0,0c0.6,0,1.1-0.5,1.1-1.1v-8.1h1v8.2
				c0,0.6,0.5,1,1.1,1c0.5,0,1-0.4,1-1v-5.7l0.1-7.2c0-0.7,0-1.3,0-1.7c0.7,1.4,1.2,3,1.3,4.5C10.1,39.7,12.1,39.7,12,38.4z"/>
		</g>
	</g>
	<g id="standing-frontal-man-silhouette-20" transform="translate(4166.846 1296.16)">
		<g id="Group_9916" transform="translate(0 0)">
			<ellipse id="Ellipse_6942" class="st0" cx="6" cy="27.9" rx="1.9" ry="1.9"/>
			<path id="Path_10416" class="st0" d="M12,38.4c-0.5-6.1-3.5-7.4-3.5-7.4c-1.9-1-4.1-0.8-5.8,0.5c-1.9,1.8-2.4,4.4-2.7,7
				c-0.2,1.3,1.9,1.3,2.1,0c0.1-1.5,0.5-3,1.2-4.4v1.5l0,7.2v5.7c0,0.6,0.4,1.1,1,1.1c0,0,0,0,0,0c0.6,0,1.1-0.5,1.1-1.1v-8.1h1v8.2
				c0,0.6,0.5,1,1.1,1c0.5,0,1-0.4,1-1v-5.7l0.1-7.2c0-0.7,0-1.3,0-1.7c0.7,1.4,1.2,3,1.3,4.5C10.1,39.7,12.1,39.7,12,38.4z"/>
		</g>
	</g>
	<g id="standing-frontal-man-silhouette-21" transform="translate(4166.846 1195.16)">
		<g id="Group_9917" transform="translate(0 0)">
			<ellipse id="Ellipse_6943" class="st0" cx="6" cy="27.9" rx="1.9" ry="1.9"/>
			<path id="Path_10417" class="st0" d="M12,38.4c-0.5-6.1-3.5-7.4-3.5-7.4c-1.9-1-4.1-0.8-5.8,0.5c-1.9,1.8-2.4,4.4-2.7,7
				c-0.2,1.3,1.9,1.3,2.1,0c0.1-1.5,0.5-3,1.2-4.4v1.5l0,7.2v5.7c0,0.6,0.4,1.1,1,1.1c0,0,0,0,0,0c0.6,0,1.1-0.5,1.1-1.1v-8.1h1v8.2
				c0,0.6,0.5,1,1.1,1c0.5,0,1-0.4,1-1v-5.7l0.1-7.2c0-0.7,0-1.3,0-1.7c0.7,1.4,1.2,3,1.3,4.5C10.1,39.7,12.1,39.7,12,38.4z"/>
		</g>
	</g>
	<g id="standing-frontal-man-silhouette-22" transform="translate(4166.846 1170.16)">
		<g id="Group_9918" transform="translate(0 0)">
			<ellipse id="Ellipse_6944" class="st0" cx="6" cy="27.9" rx="1.9" ry="1.9"/>
			<path id="Path_10418" class="st0" d="M12,38.4c-0.5-6.1-3.5-7.4-3.5-7.4c-1.9-1-4.1-0.8-5.8,0.5c-1.9,1.8-2.4,4.4-2.7,7
				c-0.2,1.3,1.9,1.3,2.1,0c0.1-1.5,0.5-3,1.2-4.4v1.5l0,7.2v5.7c0,0.6,0.4,1.1,1,1.1c0,0,0,0,0,0c0.6,0,1.1-0.5,1.1-1.1v-8.1h1v8.2
				c0,0.6,0.5,1,1.1,1c0.5,0,1-0.4,1-1v-5.7l0.1-7.2c0-0.7,0-1.3,0-1.7c0.7,1.4,1.2,3,1.3,4.5C10.1,39.7,12.1,39.7,12,38.4z"/>
		</g>
	</g>
	<g id="standing-frontal-man-silhouette-23" transform="translate(4166.846 1346.545)">
		<g id="Group_9919" transform="translate(0 0)">
			<ellipse id="Ellipse_6945" class="st0" cx="6" cy="27.9" rx="1.9" ry="1.9"/>
			<path id="Path_10419" class="st0" d="M12,38.4c-0.5-6.1-3.5-7.4-3.5-7.4c-1.9-1-4.1-0.8-5.8,0.5c-1.9,1.8-2.4,4.4-2.7,7
				c-0.2,1.3,1.9,1.3,2.1,0c0.1-1.5,0.5-3,1.2-4.4v1.5l0,7.2v5.7c0,0.6,0.4,1.1,1,1.1c0,0,0,0,0,0c0.6,0,1.1-0.5,1.1-1.1v-8.1h1v8.2
				c0,0.6,0.5,1,1.1,1c0.5,0,1-0.4,1-1v-5.7l0.1-7.2c0-0.7,0-1.3,0-1.7c0.7,1.4,1.2,3,1.3,4.5C10.1,39.7,12.1,39.7,12,38.4z"/>
		</g>
	</g>
	<g id="standing-frontal-man-silhouette-24" transform="translate(4166.846 1245.545)">
		<g id="Group_9920" transform="translate(0 0)">
			<ellipse id="Ellipse_6946" class="st0" cx="6" cy="27.9" rx="1.9" ry="1.9"/>
			<path id="Path_10420" class="st0" d="M12,38.4c-0.5-6.1-3.5-7.4-3.5-7.4c-1.9-1-4.1-0.8-5.8,0.5c-1.9,1.8-2.4,4.4-2.7,7
				c-0.2,1.3,1.9,1.3,2.1,0c0.1-1.5,0.5-3,1.2-4.4v1.5l0,7.2v5.7c0,0.6,0.4,1.1,1,1.1c0,0,0,0,0,0c0.6,0,1.1-0.5,1.1-1.1v-8.1h1v8.2
				c0,0.6,0.5,1,1.1,1c0.5,0,1-0.4,1-1v-5.7l0.1-7.2c0-0.7,0-1.3,0-1.7c0.7,1.4,1.2,3,1.3,4.5C10.1,39.7,12.1,39.7,12,38.4z"/>
		</g>
	</g>
	<g id="standing-frontal-man-silhouette-25" transform="translate(4166.455 1068.968)">
		<g id="Group_9921" transform="translate(0 0)">
			<ellipse id="Ellipse_6947" class="st0" cx="6" cy="27.9" rx="1.9" ry="1.9"/>
			<path id="Path_10421" class="st0" d="M12,38.4c-0.5-6.1-3.5-7.4-3.5-7.4c-1.9-1-4.1-0.8-5.8,0.5c-1.9,1.8-2.4,4.4-2.7,7
				c-0.2,1.3,1.9,1.3,2.1,0c0.1-1.5,0.5-3,1.2-4.4v1.5l0,7.2v5.7c0,0.6,0.4,1.1,1,1.1c0,0,0,0,0,0c0.6,0,1.1-0.5,1.1-1.1v-8.1h1v8.2
				c0,0.6,0.5,1,1.1,1c0.5,0,1-0.4,1-1v-5.7l0.1-7.2c0-0.7,0-1.3,0-1.7c0.7,1.4,1.2,3,1.3,4.5C10.1,39.7,12.1,39.7,12,38.4z"/>
		</g>
	</g>
	<g id="standing-frontal-man-silhouette-26" transform="translate(4166.455 1119.353)">
		<g id="Group_9922" transform="translate(0 0)">
			<ellipse id="Ellipse_6948" class="st0" cx="6" cy="27.9" rx="1.9" ry="1.9"/>
			<path id="Path_10422" class="st0" d="M12,38.4c-0.5-6.1-3.5-7.4-3.5-7.4c-1.9-1-4.1-0.8-5.8,0.5c-1.9,1.8-2.4,4.4-2.7,7
				c-0.2,1.3,1.9,1.3,2.1,0c0.1-1.5,0.5-3,1.2-4.4v1.5l0,7.2v5.7c0,0.6,0.4,1.1,1,1.1c0,0,0,0,0,0c0.6,0,1.1-0.5,1.1-1.1v-8.1h1v8.2
				c0,0.6,0.5,1,1.1,1c0.5,0,1-0.4,1-1v-5.7l0.1-7.2c0-0.7,0-1.3,0-1.7c0.7,1.4,1.2,3,1.3,4.5C10.1,39.7,12.1,39.7,12,38.4z"/>
		</g>
	</g>
	<g id="standing-frontal-man-silhouette-27" transform="translate(4166.455 1018.353)">
		<g id="Group_9923" transform="translate(0 0)">
			<ellipse id="Ellipse_6949" class="st0" cx="6" cy="27.9" rx="1.9" ry="1.9"/>
			<path id="Path_10423" class="st0" d="M12,38.4c-0.5-6.1-3.5-7.4-3.5-7.4c-1.9-1-4.1-0.8-5.8,0.5c-1.9,1.8-2.4,4.4-2.7,7
				c-0.2,1.3,1.9,1.3,2.1,0c0.1-1.5,0.5-3,1.2-4.4v1.5l0,7.2v5.7c0,0.6,0.4,1.1,1,1.1c0,0,0,0,0,0c0.6,0,1.1-0.5,1.1-1.1v-8.1h1v8.2
				c0,0.6,0.5,1,1.1,1c0.5,0,1-0.4,1-1v-5.7l0.1-7.2c0-0.7,0-1.3,0-1.7c0.7,1.4,1.2,3,1.3,4.5C10.1,39.7,12.1,39.7,12,38.4z"/>
		</g>
	</g>
	<g id="standing-frontal-man-silhouette-28" transform="translate(4166.455 1094.16)">
		<g id="Group_9924" transform="translate(0 0)">
			<ellipse id="Ellipse_6950" class="st0" cx="6" cy="27.9" rx="1.9" ry="1.9"/>
			<path id="Path_10424" class="st0" d="M12,38.4c-0.5-6.1-3.5-7.4-3.5-7.4c-1.9-1-4.1-0.8-5.8,0.5c-1.9,1.8-2.4,4.4-2.7,7
				c-0.2,1.3,1.9,1.3,2.1,0c0.1-1.5,0.5-3,1.2-4.4v1.5l0,7.2v5.7c0,0.6,0.4,1.1,1,1.1c0,0,0,0,0,0c0.6,0,1.1-0.5,1.1-1.1v-8.1h1v8.2
				c0,0.6,0.5,1,1.1,1c0.5,0,1-0.4,1-1v-5.7l0.1-7.2c0-0.7,0-1.3,0-1.7c0.7,1.4,1.2,3,1.3,4.5C10.1,39.7,12.1,39.7,12,38.4z"/>
		</g>
	</g>
	<g id="standing-frontal-man-silhouette-29" transform="translate(4166.455 993.16)">
		<g id="Group_9925" transform="translate(0 0)">
			<ellipse id="Ellipse_6951" class="st0" cx="6" cy="27.9" rx="1.9" ry="1.9"/>
			<path id="Path_10425" class="st0" d="M12,38.4c-0.5-6.1-3.5-7.4-3.5-7.4c-1.9-1-4.1-0.8-5.8,0.5c-1.9,1.8-2.4,4.4-2.7,7
				c-0.2,1.3,1.9,1.3,2.1,0c0.1-1.5,0.5-3,1.2-4.4v1.5l0,7.2v5.7c0,0.6,0.4,1.1,1,1.1c0,0,0,0,0,0c0.6,0,1.1-0.5,1.1-1.1v-8.1h1v8.2
				c0,0.6,0.5,1,1.1,1c0.5,0,1-0.4,1-1v-5.7l0.1-7.2c0-0.7,0-1.3,0-1.7c0.7,1.4,1.2,3,1.3,4.5C10.1,39.7,12.1,39.7,12,38.4z"/>
		</g>
	</g>
	<g id="standing-frontal-man-silhouette-30" transform="translate(4166.455 968.16)">
		<g id="Group_9926" transform="translate(0 0)">
			<ellipse id="Ellipse_6952" class="st0" cx="6" cy="27.9" rx="1.9" ry="1.9"/>
			<path id="Path_10426" class="st0" d="M12,38.4c-0.5-6.1-3.5-7.4-3.5-7.4c-1.9-1-4.1-0.8-5.8,0.5c-1.9,1.8-2.4,4.4-2.7,7
				c-0.2,1.3,1.9,1.3,2.1,0c0.1-1.5,0.5-3,1.2-4.4v1.5l0,7.2v5.7c0,0.6,0.4,1.1,1,1.1c0,0,0,0,0,0c0.6,0,1.1-0.5,1.1-1.1v-8.1h1v8.2
				c0,0.6,0.5,1,1.1,1c0.5,0,1-0.4,1-1v-5.7l0.1-7.2c0-0.7,0-1.3,0-1.7c0.7,1.4,1.2,3,1.3,4.5C10.1,39.7,12.1,39.7,12,38.4z"/>
		</g>
	</g>
	<g id="standing-frontal-man-silhouette-31" transform="translate(4166.455 1144.545)">
		<g id="Group_9927" transform="translate(0 0)">
			<ellipse id="Ellipse_6953" class="st0" cx="6" cy="27.9" rx="1.9" ry="1.9"/>
			<path id="Path_10427" class="st0" d="M12,38.4c-0.5-6.1-3.5-7.4-3.5-7.4c-1.9-1-4.1-0.8-5.8,0.5c-1.9,1.8-2.4,4.4-2.7,7
				c-0.2,1.3,1.9,1.3,2.1,0c0.1-1.5,0.5-3,1.2-4.4v1.5l0,7.2v5.7c0,0.6,0.4,1.1,1,1.1c0,0,0,0,0,0c0.6,0,1.1-0.5,1.1-1.1v-8.1h1v8.2
				c0,0.6,0.5,1,1.1,1c0.5,0,1-0.4,1-1v-5.7l0.1-7.2c0-0.7,0-1.3,0-1.7c0.7,1.4,1.2,3,1.3,4.5C10.1,39.7,12.1,39.7,12,38.4z"/>
		</g>
	</g>
	<g id="standing-frontal-man-silhouette-32" transform="translate(4166.455 1043.545)">
		<g id="Group_9928" transform="translate(0 0)">
			<ellipse id="Ellipse_6954" class="st0" cx="6" cy="27.9" rx="1.9" ry="1.9"/>
			<path id="Path_10428" class="st0" d="M12,38.4c-0.5-6.1-3.5-7.4-3.5-7.4c-1.9-1-4.1-0.8-5.8,0.5c-1.9,1.8-2.4,4.4-2.7,7
				c-0.2,1.3,1.9,1.3,2.1,0c0.1-1.5,0.5-3,1.2-4.4v1.5l0,7.2v5.7c0,0.6,0.4,1.1,1,1.1c0,0,0,0,0,0c0.6,0,1.1-0.5,1.1-1.1v-8.1h1v8.2
				c0,0.6,0.5,1,1.1,1c0.5,0,1-0.4,1-1v-5.7l0.1-7.2c0-0.7,0-1.3,0-1.7c0.7,1.4,1.2,3,1.3,4.5C10.1,39.7,12.1,39.7,12,38.4z"/>
		</g>
	</g>
	<g id="standing-frontal-man-silhouette-33" transform="translate(4111.259 867.968)">
		<g id="Group_9929" transform="translate(0 0)">
			<ellipse id="Ellipse_6955" class="st0" cx="6" cy="27.9" rx="1.9" ry="1.9"/>
			<path id="Path_10429" class="st0" d="M12,38.4c-0.5-6.1-3.5-7.4-3.5-7.4c-1.9-1-4.1-0.8-5.8,0.5c-1.9,1.8-2.4,4.4-2.7,7
				c-0.2,1.3,1.9,1.3,2.1,0c0.1-1.5,0.5-3,1.2-4.4v1.5l0,7.2v5.7c0,0.6,0.4,1.1,1,1.1c0,0,0,0,0,0c0.6,0,1.1-0.5,1.1-1.1v-8.1h1v8.2
				c0,0.6,0.5,1,1.1,1c0.5,0,1-0.4,1-1v-5.7l0.1-7.2c0-0.7,0-1.3,0-1.7c0.7,1.4,1.2,3,1.3,4.5C10.1,39.7,12.1,39.7,12,38.4z"/>
		</g>
	</g>
	<g id="standing-frontal-man-silhouette-34" transform="translate(4111.259 918.353)">
		<g id="Group_9930" transform="translate(0 0)">
			<ellipse id="Ellipse_6956" class="st0" cx="6" cy="27.9" rx="1.9" ry="1.9"/>
			<path id="Path_10430" class="st0" d="M12,38.4c-0.5-6.1-3.5-7.4-3.5-7.4c-1.9-1-4.1-0.8-5.8,0.5c-1.9,1.8-2.4,4.4-2.7,7
				c-0.2,1.3,1.9,1.3,2.1,0c0.1-1.5,0.5-3,1.2-4.4v1.5l0,7.2v5.7c0,0.6,0.4,1.1,1,1.1c0,0,0,0,0,0c0.6,0,1.1-0.5,1.1-1.1v-8.1h1v8.2
				c0,0.6,0.5,1,1.1,1c0.5,0,1-0.4,1-1v-5.7l0.1-7.2c0-0.7,0-1.3,0-1.7c0.7,1.4,1.2,3,1.3,4.5C10.1,39.7,12.1,39.7,12,38.4z"/>
		</g>
	</g>
	<g id="standing-frontal-man-silhouette-35" transform="translate(4166.259 918.353)">
		<g id="Group_9931" transform="translate(0 0)">
			<ellipse id="Ellipse_6957" class="st0" cx="6" cy="27.9" rx="1.9" ry="1.9"/>
			<path id="Path_10431" class="st0" d="M12,38.4c-0.5-6.1-3.5-7.4-3.5-7.4c-1.9-1-4.1-0.8-5.8,0.5c-1.9,1.8-2.4,4.4-2.7,7
				c-0.2,1.3,1.9,1.3,2.1,0c0.1-1.5,0.5-3,1.2-4.4v1.5l0,7.2v5.7c0,0.6,0.4,1.1,1,1.1c0,0,0,0,0,0c0.6,0,1.1-0.5,1.1-1.1v-8.1h1v8.2
				c0,0.6,0.5,1,1.1,1c0.5,0,1-0.4,1-1v-5.7l0.1-7.2c0-0.7,0-1.3,0-1.7c0.7,1.4,1.2,3,1.3,4.5C10.1,39.7,12.1,39.7,12,38.4z"/>
		</g>
	</g>
	<g id="standing-frontal-man-silhouette-36" transform="translate(4111.259 893.16)">
		<g id="Group_9932" transform="translate(0 0)">
			<ellipse id="Ellipse_6958" class="st0" cx="6" cy="27.9" rx="1.9" ry="1.9"/>
			<path id="Path_10432" class="st0" d="M12,38.4c-0.5-6.1-3.5-7.4-3.5-7.4c-1.9-1-4.1-0.8-5.8,0.5c-1.9,1.8-2.4,4.4-2.7,7
				c-0.2,1.3,1.9,1.3,2.1,0c0.1-1.5,0.5-3,1.2-4.4v1.5l0,7.2v5.7c0,0.6,0.4,1.1,1,1.1c0,0,0,0,0,0c0.6,0,1.1-0.5,1.1-1.1v-8.1h1v8.2
				c0,0.6,0.5,1,1.1,1c0.5,0,1-0.4,1-1v-5.7l0.1-7.2c0-0.7,0-1.3,0-1.7c0.7,1.4,1.2,3,1.3,4.5C10.1,39.7,12.1,39.7,12,38.4z"/>
		</g>
	</g>
	<g id="standing-frontal-man-silhouette-37" transform="translate(4166.259 893.16)">
		<g id="Group_9933" transform="translate(0 0)">
			<ellipse id="Ellipse_6959" class="st0" cx="6" cy="27.9" rx="1.9" ry="1.9"/>
			<path id="Path_10433" class="st0" d="M12,38.4c-0.5-6.1-3.5-7.4-3.5-7.4c-1.9-1-4.1-0.8-5.8,0.5c-1.9,1.8-2.4,4.4-2.7,7
				c-0.2,1.3,1.9,1.3,2.1,0c0.1-1.5,0.5-3,1.2-4.4v1.5l0,7.2v5.7c0,0.6,0.4,1.1,1,1.1c0,0,0,0,0,0c0.6,0,1.1-0.5,1.1-1.1v-8.1h1v8.2
				c0,0.6,0.5,1,1.1,1c0.5,0,1-0.4,1-1v-5.7l0.1-7.2c0-0.7,0-1.3,0-1.7c0.7,1.4,1.2,3,1.3,4.5C10.1,39.7,12.1,39.7,12,38.4z"/>
		</g>
	</g>
	<g id="standing-frontal-man-silhouette-38" transform="translate(4111.259 943.545)">
		<g id="Group_9934" transform="translate(0 0)">
			<ellipse id="Ellipse_6960" class="st0" cx="6" cy="27.9" rx="1.9" ry="1.9"/>
			<path id="Path_10434" class="st0" d="M12,38.4c-0.5-6.1-3.5-7.4-3.5-7.4c-1.9-1-4.1-0.8-5.8,0.5c-1.9,1.8-2.4,4.4-2.7,7
				c-0.2,1.3,1.9,1.3,2.1,0c0.1-1.5,0.5-3,1.2-4.4v1.5l0,7.2v5.7c0,0.6,0.4,1.1,1,1.1c0,0,0,0,0,0c0.6,0,1.1-0.5,1.1-1.1v-8.1h1v8.2
				c0,0.6,0.5,1,1.1,1c0.5,0,1-0.4,1-1v-5.7l0.1-7.2c0-0.7,0-1.3,0-1.7c0.7,1.4,1.2,3,1.3,4.5C10.1,39.7,12.1,39.7,12,38.4z"/>
		</g>
	</g>
	<g id="standing-frontal-man-silhouette-39" transform="translate(4166.259 943.545)">
		<g id="Group_9935" transform="translate(0 0)">
			<ellipse id="Ellipse_6961" class="st0" cx="6" cy="27.9" rx="1.9" ry="1.9"/>
			<path id="Path_10435" class="st0" d="M12,38.4c-0.5-6.1-3.5-7.4-3.5-7.4c-1.9-1-4.1-0.8-5.8,0.5c-1.9,1.8-2.4,4.4-2.7,7
				c-0.2,1.3,1.9,1.3,2.1,0c0.1-1.5,0.5-3,1.2-4.4v1.5l0,7.2v5.7c0,0.6,0.4,1.1,1,1.1c0,0,0,0,0,0c0.6,0,1.1-0.5,1.1-1.1v-8.1h1v8.2
				c0,0.6,0.5,1,1.1,1c0.5,0,1-0.4,1-1v-5.7l0.1-7.2c0-0.7,0-1.3,0-1.7c0.7,1.4,1.2,3,1.3,4.5C10.1,39.7,12.1,39.7,12,38.4z"/>
		</g>
	</g>
	<g id="standing-frontal-man-silhouette-40" transform="translate(4139.444 1270.968)">
		<g id="Group_9936" transform="translate(0 0)">
			<ellipse id="Ellipse_6962" class="st0" cx="6" cy="27.9" rx="1.9" ry="1.9"/>
			<path id="Path_10436" class="st0" d="M12,38.4c-0.5-6.1-3.5-7.4-3.5-7.4c-1.9-1-4.1-0.8-5.8,0.5c-1.9,1.8-2.4,4.4-2.7,7
				c-0.2,1.3,1.9,1.3,2.1,0c0.1-1.5,0.5-3,1.2-4.4v1.5l0,7.2v5.7c0,0.6,0.4,1.1,1,1.1c0,0,0,0,0,0c0.6,0,1.1-0.5,1.1-1.1v-8.1h1v8.2
				c0,0.6,0.5,1,1.1,1c0.5,0,1-0.4,1-1v-5.7l0.1-7.2c0-0.7,0-1.3,0-1.7c0.7,1.4,1.2,3,1.3,4.5C10.1,39.7,12.1,39.7,12,38.4z"/>
		</g>
	</g>
	<g id="standing-frontal-man-silhouette-41" transform="translate(4139.444 1321.353)">
		<g id="Group_9937" transform="translate(0 0)">
			<ellipse id="Ellipse_6963" class="st0" cx="6" cy="27.9" rx="1.9" ry="1.9"/>
			<path id="Path_10437" class="st0" d="M12,38.4c-0.5-6.1-3.5-7.4-3.5-7.4c-1.9-1-4.1-0.8-5.8,0.5c-1.9,1.8-2.4,4.4-2.7,7
				c-0.2,1.3,1.9,1.3,2.1,0c0.1-1.5,0.5-3,1.2-4.4v1.5l0,7.2v5.7c0,0.6,0.4,1.1,1,1.1c0,0,0,0,0,0c0.6,0,1.1-0.5,1.1-1.1v-8.1h1v8.2
				c0,0.6,0.5,1,1.1,1c0.5,0,1-0.4,1-1v-5.7l0.1-7.2c0-0.7,0-1.3,0-1.7c0.7,1.4,1.2,3,1.3,4.5C10.1,39.7,12.1,39.7,12,38.4z"/>
		</g>
	</g>
	<g id="standing-frontal-man-silhouette-42" transform="translate(4139.444 1220.353)">
		<g id="Group_9938" transform="translate(0 0)">
			<ellipse id="Ellipse_6964" class="st0" cx="6" cy="27.9" rx="1.9" ry="1.9"/>
			<path id="Path_10438" class="st0" d="M12,38.4c-0.5-6.1-3.5-7.4-3.5-7.4c-1.9-1-4.1-0.8-5.8,0.5c-1.9,1.8-2.4,4.4-2.7,7
				c-0.2,1.3,1.9,1.3,2.1,0c0.1-1.5,0.5-3,1.2-4.4v1.5l0,7.2v5.7c0,0.6,0.4,1.1,1,1.1c0,0,0,0,0,0c0.6,0,1.1-0.5,1.1-1.1v-8.1h1v8.2
				c0,0.6,0.5,1,1.1,1c0.5,0,1-0.4,1-1v-5.7l0.1-7.2c0-0.7,0-1.3,0-1.7c0.7,1.4,1.2,3,1.3,4.5C10.1,39.7,12.1,39.7,12,38.4z"/>
		</g>
	</g>
	<g id="standing-frontal-man-silhouette-43" transform="translate(4139.444 1296.16)">
		<g id="Group_9939" transform="translate(0 0)">
			<ellipse id="Ellipse_6965" class="st0" cx="6" cy="27.9" rx="1.9" ry="1.9"/>
			<path id="Path_10439" class="st0" d="M12,38.4c-0.5-6.1-3.5-7.4-3.5-7.4c-1.9-1-4.1-0.8-5.8,0.5c-1.9,1.8-2.4,4.4-2.7,7
				c-0.2,1.3,1.9,1.3,2.1,0c0.1-1.5,0.5-3,1.2-4.4v1.5l0,7.2v5.7c0,0.6,0.4,1.1,1,1.1c0,0,0,0,0,0c0.6,0,1.1-0.5,1.1-1.1v-8.1h1v8.2
				c0,0.6,0.5,1,1.1,1c0.5,0,1-0.4,1-1v-5.7l0.1-7.2c0-0.7,0-1.3,0-1.7c0.7,1.4,1.2,3,1.3,4.5C10.1,39.7,12.1,39.7,12,38.4z"/>
		</g>
	</g>
	<g id="standing-frontal-man-silhouette-44" transform="translate(4139.444 1195.16)">
		<g id="Group_9940" transform="translate(0 0)">
			<ellipse id="Ellipse_6966" class="st0" cx="6" cy="27.9" rx="1.9" ry="1.9"/>
			<path id="Path_10440" class="st0" d="M12,38.4c-0.5-6.1-3.5-7.4-3.5-7.4c-1.9-1-4.1-0.8-5.8,0.5c-1.9,1.8-2.4,4.4-2.7,7
				c-0.2,1.3,1.9,1.3,2.1,0c0.1-1.5,0.5-3,1.2-4.4v1.5l0,7.2v5.7c0,0.6,0.4,1.1,1,1.1c0,0,0,0,0,0c0.6,0,1.1-0.5,1.1-1.1v-8.1h1v8.2
				c0,0.6,0.5,1,1.1,1c0.5,0,1-0.4,1-1v-5.7l0.1-7.2c0-0.7,0-1.3,0-1.7c0.7,1.4,1.2,3,1.3,4.5C10.1,39.7,12.1,39.7,12,38.4z"/>
		</g>
	</g>
	<g id="standing-frontal-man-silhouette-45" transform="translate(4139.444 1170.16)">
		<g id="Group_9941" transform="translate(0 0)">
			<ellipse id="Ellipse_6967" class="st0" cx="6" cy="27.9" rx="1.9" ry="1.9"/>
			<path id="Path_10441" class="st0" d="M12,38.4c-0.5-6.1-3.5-7.4-3.5-7.4c-1.9-1-4.1-0.8-5.8,0.5c-1.9,1.8-2.4,4.4-2.7,7
				c-0.2,1.3,1.9,1.3,2.1,0c0.1-1.5,0.5-3,1.2-4.4v1.5l0,7.2v5.7c0,0.6,0.4,1.1,1,1.1c0,0,0,0,0,0c0.6,0,1.1-0.5,1.1-1.1v-8.1h1v8.2
				c0,0.6,0.5,1,1.1,1c0.5,0,1-0.4,1-1v-5.7l0.1-7.2c0-0.7,0-1.3,0-1.7c0.7,1.4,1.2,3,1.3,4.5C10.1,39.7,12.1,39.7,12,38.4z"/>
		</g>
	</g>
	<g id="standing-frontal-man-silhouette-46" transform="translate(4139.444 1346.545)">
		<g id="Group_9942" transform="translate(0 0)">
			<ellipse id="Ellipse_6968" class="st0" cx="6" cy="27.9" rx="1.9" ry="1.9"/>
			<path id="Path_10442" class="st0" d="M12,38.4c-0.5-6.1-3.5-7.4-3.5-7.4c-1.9-1-4.1-0.8-5.8,0.5c-1.9,1.8-2.4,4.4-2.7,7
				c-0.2,1.3,1.9,1.3,2.1,0c0.1-1.5,0.5-3,1.2-4.4v1.5l0,7.2v5.7c0,0.6,0.4,1.1,1,1.1c0,0,0,0,0,0c0.6,0,1.1-0.5,1.1-1.1v-8.1h1v8.2
				c0,0.6,0.5,1,1.1,1c0.5,0,1-0.4,1-1v-5.7l0.1-7.2c0-0.7,0-1.3,0-1.7c0.7,1.4,1.2,3,1.3,4.5C10.1,39.7,12.1,39.7,12,38.4z"/>
		</g>
	</g>
	<g id="standing-frontal-man-silhouette-47" transform="translate(4139.444 1245.545)">
		<g id="Group_9943" transform="translate(0 0)">
			<ellipse id="Ellipse_6969" class="st0" cx="6" cy="27.9" rx="1.9" ry="1.9"/>
			<path id="Path_10443" class="st0" d="M12,38.4c-0.5-6.1-3.5-7.4-3.5-7.4c-1.9-1-4.1-0.8-5.8,0.5c-1.9,1.8-2.4,4.4-2.7,7
				c-0.2,1.3,1.9,1.3,2.1,0c0.1-1.5,0.5-3,1.2-4.4v1.5l0,7.2v5.7c0,0.6,0.4,1.1,1,1.1c0,0,0,0,0,0c0.6,0,1.1-0.5,1.1-1.1v-8.1h1v8.2
				c0,0.6,0.5,1,1.1,1c0.5,0,1-0.4,1-1v-5.7l0.1-7.2c0-0.7,0-1.3,0-1.7c0.7,1.4,1.2,3,1.3,4.5C10.1,39.7,12.1,39.7,12,38.4z"/>
		</g>
	</g>
	<g id="standing-frontal-man-silhouette-48" transform="translate(4139.053 1068.968)">
		<g id="Group_9944" transform="translate(0 0)">
			<ellipse id="Ellipse_6970" class="st0" cx="6" cy="27.9" rx="1.9" ry="1.9"/>
			<path id="Path_10444" class="st0" d="M12,38.4c-0.5-6.1-3.5-7.4-3.5-7.4c-1.9-1-4.1-0.8-5.8,0.5c-1.9,1.8-2.4,4.4-2.7,7
				c-0.2,1.3,1.9,1.3,2.1,0c0.1-1.5,0.5-3,1.2-4.4v1.5l0,7.2v5.7c0,0.6,0.4,1.1,1,1.1c0,0,0,0,0,0c0.6,0,1.1-0.5,1.1-1.1v-8.1h1v8.2
				c0,0.6,0.5,1,1.1,1c0.5,0,1-0.4,1-1v-5.7l0.1-7.2c0-0.7,0-1.3,0-1.7c0.7,1.4,1.2,3,1.3,4.5C10.1,39.7,12.1,39.7,12,38.4z"/>
		</g>
	</g>
	<g id="standing-frontal-man-silhouette-49" transform="translate(4139.053 1119.353)">
		<g id="Group_9945" transform="translate(0 0)">
			<ellipse id="Ellipse_6971" class="st0" cx="6" cy="27.9" rx="1.9" ry="1.9"/>
			<path id="Path_10445" class="st0" d="M12,38.4c-0.5-6.1-3.5-7.4-3.5-7.4c-1.9-1-4.1-0.8-5.8,0.5c-1.9,1.8-2.4,4.4-2.7,7
				c-0.2,1.3,1.9,1.3,2.1,0c0.1-1.5,0.5-3,1.2-4.4v1.5l0,7.2v5.7c0,0.6,0.4,1.1,1,1.1c0,0,0,0,0,0c0.6,0,1.1-0.5,1.1-1.1v-8.1h1v8.2
				c0,0.6,0.5,1,1.1,1c0.5,0,1-0.4,1-1v-5.7l0.1-7.2c0-0.7,0-1.3,0-1.7c0.7,1.4,1.2,3,1.3,4.5C10.1,39.7,12.1,39.7,12,38.4z"/>
		</g>
	</g>
	<g id="standing-frontal-man-silhouette-50" transform="translate(4139.053 1018.353)">
		<g id="Group_9946" transform="translate(0 0)">
			<ellipse id="Ellipse_6972" class="st0" cx="6" cy="27.9" rx="1.9" ry="1.9"/>
			<path id="Path_10446" class="st0" d="M12,38.4c-0.5-6.1-3.5-7.4-3.5-7.4c-1.9-1-4.1-0.8-5.8,0.5c-1.9,1.8-2.4,4.4-2.7,7
				c-0.2,1.3,1.9,1.3,2.1,0c0.1-1.5,0.5-3,1.2-4.4v1.5l0,7.2v5.7c0,0.6,0.4,1.1,1,1.1c0,0,0,0,0,0c0.6,0,1.1-0.5,1.1-1.1v-8.1h1v8.2
				c0,0.6,0.5,1,1.1,1c0.5,0,1-0.4,1-1v-5.7l0.1-7.2c0-0.7,0-1.3,0-1.7c0.7,1.4,1.2,3,1.3,4.5C10.1,39.7,12.1,39.7,12,38.4z"/>
		</g>
	</g>
	<g id="standing-frontal-man-silhouette-51" transform="translate(4139.053 1094.16)">
		<g id="Group_9947" transform="translate(0 0)">
			<ellipse id="Ellipse_6973" class="st0" cx="6" cy="27.9" rx="1.9" ry="1.9"/>
			<path id="Path_10447" class="st0" d="M12,38.4c-0.5-6.1-3.5-7.4-3.5-7.4c-1.9-1-4.1-0.8-5.8,0.5c-1.9,1.8-2.4,4.4-2.7,7
				c-0.2,1.3,1.9,1.3,2.1,0c0.1-1.5,0.5-3,1.2-4.4v1.5l0,7.2v5.7c0,0.6,0.4,1.1,1,1.1c0,0,0,0,0,0c0.6,0,1.1-0.5,1.1-1.1v-8.1h1v8.2
				c0,0.6,0.5,1,1.1,1c0.5,0,1-0.4,1-1v-5.7l0.1-7.2c0-0.7,0-1.3,0-1.7c0.7,1.4,1.2,3,1.3,4.5C10.1,39.7,12.1,39.7,12,38.4z"/>
		</g>
	</g>
	<g id="standing-frontal-man-silhouette-52" transform="translate(4139.053 993.16)">
		<g id="Group_9948" transform="translate(0 0)">
			<ellipse id="Ellipse_6974" class="st0" cx="6" cy="27.9" rx="1.9" ry="1.9"/>
			<path id="Path_10448" class="st0" d="M12,38.4c-0.5-6.1-3.5-7.4-3.5-7.4c-1.9-1-4.1-0.8-5.8,0.5c-1.9,1.8-2.4,4.4-2.7,7
				c-0.2,1.3,1.9,1.3,2.1,0c0.1-1.5,0.5-3,1.2-4.4v1.5l0,7.2v5.7c0,0.6,0.4,1.1,1,1.1c0,0,0,0,0,0c0.6,0,1.1-0.5,1.1-1.1v-8.1h1v8.2
				c0,0.6,0.5,1,1.1,1c0.5,0,1-0.4,1-1v-5.7l0.1-7.2c0-0.7,0-1.3,0-1.7c0.7,1.4,1.2,3,1.3,4.5C10.1,39.7,12.1,39.7,12,38.4z"/>
		</g>
	</g>
	<g id="standing-frontal-man-silhouette-53" transform="translate(4139.053 968.16)">
		<g id="Group_9949" transform="translate(0 0)">
			<ellipse id="Ellipse_6975" class="st0" cx="6" cy="27.9" rx="1.9" ry="1.9"/>
			<path id="Path_10449" class="st0" d="M12,38.4c-0.5-6.1-3.5-7.4-3.5-7.4c-1.9-1-4.1-0.8-5.8,0.5c-1.9,1.8-2.4,4.4-2.7,7
				c-0.2,1.3,1.9,1.3,2.1,0c0.1-1.5,0.5-3,1.2-4.4v1.5l0,7.2v5.7c0,0.6,0.4,1.1,1,1.1c0,0,0,0,0,0c0.6,0,1.1-0.5,1.1-1.1v-8.1h1v8.2
				c0,0.6,0.5,1,1.1,1c0.5,0,1-0.4,1-1v-5.7l0.1-7.2c0-0.7,0-1.3,0-1.7c0.7,1.4,1.2,3,1.3,4.5C10.1,39.7,12.1,39.7,12,38.4z"/>
		</g>
	</g>
	<g id="standing-frontal-man-silhouette-54" transform="translate(4139.053 1144.545)">
		<g id="Group_9950" transform="translate(0 0)">
			<ellipse id="Ellipse_6976" class="st0" cx="6" cy="27.9" rx="1.9" ry="1.9"/>
			<path id="Path_10450" class="st0" d="M12,38.4c-0.5-6.1-3.5-7.4-3.5-7.4c-1.9-1-4.1-0.8-5.8,0.5c-1.9,1.8-2.4,4.4-2.7,7
				c-0.2,1.3,1.9,1.3,2.1,0c0.1-1.5,0.5-3,1.2-4.4v1.5l0,7.2v5.7c0,0.6,0.4,1.1,1,1.1c0,0,0,0,0,0c0.6,0,1.1-0.5,1.1-1.1v-8.1h1v8.2
				c0,0.6,0.5,1,1.1,1c0.5,0,1-0.4,1-1v-5.7l0.1-7.2c0-0.7,0-1.3,0-1.7c0.7,1.4,1.2,3,1.3,4.5C10.1,39.7,12.1,39.7,12,38.4z"/>
		</g>
	</g>
	<g id="standing-frontal-man-silhouette-55" transform="translate(4139.053 1043.545)">
		<g id="Group_9951" transform="translate(0 0)">
			<ellipse id="Ellipse_6977" class="st0" cx="6" cy="27.9" rx="1.9" ry="1.9"/>
			<path id="Path_10451" class="st0" d="M12,38.4c-0.5-6.1-3.5-7.4-3.5-7.4c-1.9-1-4.1-0.8-5.8,0.5c-1.9,1.8-2.4,4.4-2.7,7
				c-0.2,1.3,1.9,1.3,2.1,0c0.1-1.5,0.5-3,1.2-4.4v1.5l0,7.2v5.7c0,0.6,0.4,1.1,1,1.1c0,0,0,0,0,0c0.6,0,1.1-0.5,1.1-1.1v-8.1h1v8.2
				c0,0.6,0.5,1,1.1,1c0.5,0,1-0.4,1-1v-5.7l0.1-7.2c0-0.7,0-1.3,0-1.7c0.7,1.4,1.2,3,1.3,4.5C10.1,39.7,12.1,39.7,12,38.4z"/>
		</g>
	</g>
	<g id="standing-frontal-man-silhouette-56" transform="translate(4194.249 1270.968)">
		<g id="Group_9952" transform="translate(0 0)">
			<ellipse id="Ellipse_6978" class="st0" cx="6" cy="27.9" rx="1.9" ry="1.9"/>
			<path id="Path_10452" class="st0" d="M12,38.4c-0.5-6.1-3.5-7.4-3.5-7.4c-1.9-1-4.1-0.8-5.8,0.5c-1.9,1.8-2.4,4.4-2.7,7
				c-0.2,1.3,1.9,1.3,2.1,0c0.1-1.5,0.5-3,1.2-4.4v1.5l0,7.2v5.7c0,0.6,0.4,1.1,1,1.1c0,0,0,0,0,0c0.6,0,1.1-0.5,1.1-1.1v-8.1h1v8.2
				c0,0.6,0.5,1,1.1,1c0.5,0,1-0.4,1-1v-5.7l0.1-7.2c0-0.7,0-1.3,0-1.7c0.7,1.4,1.2,3,1.3,4.5C10.1,39.7,12.1,39.7,12,38.4z"/>
		</g>
	</g>
	<g id="standing-frontal-man-silhouette-57" transform="translate(4194.249 1321.353)">
		<g id="Group_9953" transform="translate(0 0)">
			<ellipse id="Ellipse_6979" class="st0" cx="6" cy="27.9" rx="1.9" ry="1.9"/>
			<path id="Path_10453" class="st0" d="M12,38.4c-0.5-6.1-3.5-7.4-3.5-7.4c-1.9-1-4.1-0.8-5.8,0.5c-1.9,1.8-2.4,4.4-2.7,7
				c-0.2,1.3,1.9,1.3,2.1,0c0.1-1.5,0.5-3,1.2-4.4v1.5l0,7.2v5.7c0,0.6,0.4,1.1,1,1.1c0,0,0,0,0,0c0.6,0,1.1-0.5,1.1-1.1v-8.1h1v8.2
				c0,0.6,0.5,1,1.1,1c0.5,0,1-0.4,1-1v-5.7l0.1-7.2c0-0.7,0-1.3,0-1.7c0.7,1.4,1.2,3,1.3,4.5C10.1,39.7,12.1,39.7,12,38.4z"/>
		</g>
	</g>
	<g id="standing-frontal-man-silhouette-58" transform="translate(4194.249 1220.353)">
		<g id="Group_9954" transform="translate(0 0)">
			<ellipse id="Ellipse_6980" class="st0" cx="6" cy="27.9" rx="1.9" ry="1.9"/>
			<path id="Path_10454" class="st0" d="M12,38.4c-0.5-6.1-3.5-7.4-3.5-7.4c-1.9-1-4.1-0.8-5.8,0.5c-1.9,1.8-2.4,4.4-2.7,7
				c-0.2,1.3,1.9,1.3,2.1,0c0.1-1.5,0.5-3,1.2-4.4v1.5l0,7.2v5.7c0,0.6,0.4,1.1,1,1.1c0,0,0,0,0,0c0.6,0,1.1-0.5,1.1-1.1v-8.1h1v8.2
				c0,0.6,0.5,1,1.1,1c0.5,0,1-0.4,1-1v-5.7l0.1-7.2c0-0.7,0-1.3,0-1.7c0.7,1.4,1.2,3,1.3,4.5C10.1,39.7,12.1,39.7,12,38.4z"/>
		</g>
	</g>
	<g id="standing-frontal-man-silhouette-59" transform="translate(4194.249 1296.16)">
		<g id="Group_9955" transform="translate(0 0)">
			<ellipse id="Ellipse_6981" class="st0" cx="6" cy="27.9" rx="1.9" ry="1.9"/>
			<path id="Path_10455" class="st0" d="M12,38.4c-0.5-6.1-3.5-7.4-3.5-7.4c-1.9-1-4.1-0.8-5.8,0.5c-1.9,1.8-2.4,4.4-2.7,7
				c-0.2,1.3,1.9,1.3,2.1,0c0.1-1.5,0.5-3,1.2-4.4v1.5l0,7.2v5.7c0,0.6,0.4,1.1,1,1.1c0,0,0,0,0,0c0.6,0,1.1-0.5,1.1-1.1v-8.1h1v8.2
				c0,0.6,0.5,1,1.1,1c0.5,0,1-0.4,1-1v-5.7l0.1-7.2c0-0.7,0-1.3,0-1.7c0.7,1.4,1.2,3,1.3,4.5C10.1,39.7,12.1,39.7,12,38.4z"/>
		</g>
	</g>
	<g id="standing-frontal-man-silhouette-60" transform="translate(4194.249 1195.16)">
		<g id="Group_9956" transform="translate(0 0)">
			<ellipse id="Ellipse_6982" class="st0" cx="6" cy="27.9" rx="1.9" ry="1.9"/>
			<path id="Path_10456" class="st0" d="M12,38.4c-0.5-6.1-3.5-7.4-3.5-7.4c-1.9-1-4.1-0.8-5.8,0.5c-1.9,1.8-2.4,4.4-2.7,7
				c-0.2,1.3,1.9,1.3,2.1,0c0.1-1.5,0.5-3,1.2-4.4v1.5l0,7.2v5.7c0,0.6,0.4,1.1,1,1.1c0,0,0,0,0,0c0.6,0,1.1-0.5,1.1-1.1v-8.1h1v8.2
				c0,0.6,0.5,1,1.1,1c0.5,0,1-0.4,1-1v-5.7l0.1-7.2c0-0.7,0-1.3,0-1.7c0.7,1.4,1.2,3,1.3,4.5C10.1,39.7,12.1,39.7,12,38.4z"/>
		</g>
	</g>
	<g id="standing-frontal-man-silhouette-61" transform="translate(4194.249 1170.16)">
		<g id="Group_9957" transform="translate(0 0)">
			<ellipse id="Ellipse_6983" class="st0" cx="6" cy="27.9" rx="1.9" ry="1.9"/>
			<path id="Path_10457" class="st0" d="M12,38.4c-0.5-6.1-3.5-7.4-3.5-7.4c-1.9-1-4.1-0.8-5.8,0.5c-1.9,1.8-2.4,4.4-2.7,7
				c-0.2,1.3,1.9,1.3,2.1,0c0.1-1.5,0.5-3,1.2-4.4v1.5l0,7.2v5.7c0,0.6,0.4,1.1,1,1.1c0,0,0,0,0,0c0.6,0,1.1-0.5,1.1-1.1v-8.1h1v8.2
				c0,0.6,0.5,1,1.1,1c0.5,0,1-0.4,1-1v-5.7l0.1-7.2c0-0.7,0-1.3,0-1.7c0.7,1.4,1.2,3,1.3,4.5C10.1,39.7,12.1,39.7,12,38.4z"/>
		</g>
	</g>
	<g id="standing-frontal-man-silhouette-62" transform="translate(4194.249 1346.545)">
		<g id="Group_9958" transform="translate(0 0)">
			<ellipse id="Ellipse_6984" class="st0" cx="6" cy="27.9" rx="1.9" ry="1.9"/>
			<path id="Path_10458" class="st0" d="M12,38.4c-0.5-6.1-3.5-7.4-3.5-7.4c-1.9-1-4.1-0.8-5.8,0.5c-1.9,1.8-2.4,4.4-2.7,7
				c-0.2,1.3,1.9,1.3,2.1,0c0.1-1.5,0.5-3,1.2-4.4v1.5l0,7.2v5.7c0,0.6,0.4,1.1,1,1.1c0,0,0,0,0,0c0.6,0,1.1-0.5,1.1-1.1v-8.1h1v8.2
				c0,0.6,0.5,1,1.1,1c0.5,0,1-0.4,1-1v-5.7l0.1-7.2c0-0.7,0-1.3,0-1.7c0.7,1.4,1.2,3,1.3,4.5C10.1,39.7,12.1,39.7,12,38.4z"/>
		</g>
	</g>
	<g id="standing-frontal-man-silhouette-63" transform="translate(4194.249 1245.545)">
		<g id="Group_9959" transform="translate(0 0)">
			<ellipse id="Ellipse_6985" class="st0" cx="6" cy="27.9" rx="1.9" ry="1.9"/>
			<path id="Path_10459" class="st0" d="M12,38.4c-0.5-6.1-3.5-7.4-3.5-7.4c-1.9-1-4.1-0.8-5.8,0.5c-1.9,1.8-2.4,4.4-2.7,7
				c-0.2,1.3,1.9,1.3,2.1,0c0.1-1.5,0.5-3,1.2-4.4v1.5l0,7.2v5.7c0,0.6,0.4,1.1,1,1.1c0,0,0,0,0,0c0.6,0,1.1-0.5,1.1-1.1v-8.1h1v8.2
				c0,0.6,0.5,1,1.1,1c0.5,0,1-0.4,1-1v-5.7l0.1-7.2c0-0.7,0-1.3,0-1.7c0.7,1.4,1.2,3,1.3,4.5C10.1,39.7,12.1,39.7,12,38.4z"/>
		</g>
	</g>
	<g id="standing-frontal-man-silhouette-64" transform="translate(4193.855 1068.968)">
		<g id="Group_9960" transform="translate(0 0)">
			<ellipse id="Ellipse_6986" class="st0" cx="6" cy="27.9" rx="1.9" ry="1.9"/>
			<path id="Path_10460" class="st0" d="M12,38.4c-0.5-6.1-3.5-7.4-3.5-7.4c-1.9-1-4.1-0.8-5.8,0.5c-1.9,1.8-2.4,4.4-2.7,7
				c-0.2,1.3,1.9,1.3,2.1,0c0.1-1.5,0.5-3,1.2-4.4v1.5l0,7.2v5.7c0,0.6,0.4,1.1,1,1.1c0,0,0,0,0,0c0.6,0,1.1-0.5,1.1-1.1v-8.1h1v8.2
				c0,0.6,0.5,1,1.1,1c0.5,0,1-0.4,1-1v-5.7l0.1-7.2c0-0.7,0-1.3,0-1.7c0.7,1.4,1.2,3,1.3,4.5C10.1,39.7,12.1,39.7,12,38.4z"/>
		</g>
	</g>
	<g id="standing-frontal-man-silhouette-65" transform="translate(4193.855 1119.353)">
		<g id="Group_9961" transform="translate(0 0)">
			<ellipse id="Ellipse_6987" class="st0" cx="6" cy="27.9" rx="1.9" ry="1.9"/>
			<path id="Path_10461" class="st0" d="M12,38.4c-0.5-6.1-3.5-7.4-3.5-7.4c-1.9-1-4.1-0.8-5.8,0.5c-1.9,1.8-2.4,4.4-2.7,7
				c-0.2,1.3,1.9,1.3,2.1,0c0.1-1.5,0.5-3,1.2-4.4v1.5l0,7.2v5.7c0,0.6,0.4,1.1,1,1.1c0,0,0,0,0,0c0.6,0,1.1-0.5,1.1-1.1v-8.1h1v8.2
				c0,0.6,0.5,1,1.1,1c0.5,0,1-0.4,1-1v-5.7l0.1-7.2c0-0.7,0-1.3,0-1.7c0.7,1.4,1.2,3,1.3,4.5C10.1,39.7,12.1,39.7,12,38.4z"/>
		</g>
	</g>
	<g id="standing-frontal-man-silhouette-66" transform="translate(4193.855 1018.353)">
		<g id="Group_9962" transform="translate(0 0)">
			<ellipse id="Ellipse_6988" class="st0" cx="6" cy="27.9" rx="1.9" ry="1.9"/>
			<path id="Path_10462" class="st0" d="M12,38.4c-0.5-6.1-3.5-7.4-3.5-7.4c-1.9-1-4.1-0.8-5.8,0.5c-1.9,1.8-2.4,4.4-2.7,7
				c-0.2,1.3,1.9,1.3,2.1,0c0.1-1.5,0.5-3,1.2-4.4v1.5l0,7.2v5.7c0,0.6,0.4,1.1,1,1.1c0,0,0,0,0,0c0.6,0,1.1-0.5,1.1-1.1v-8.1h1v8.2
				c0,0.6,0.5,1,1.1,1c0.5,0,1-0.4,1-1v-5.7l0.1-7.2c0-0.7,0-1.3,0-1.7c0.7,1.4,1.2,3,1.3,4.5C10.1,39.7,12.1,39.7,12,38.4z"/>
		</g>
	</g>
	<g id="standing-frontal-man-silhouette-67" transform="translate(4193.855 1094.16)">
		<g id="Group_9963" transform="translate(0 0)">
			<ellipse id="Ellipse_6989" class="st0" cx="6" cy="27.9" rx="1.9" ry="1.9"/>
			<path id="Path_10463" class="st0" d="M12,38.4c-0.5-6.1-3.5-7.4-3.5-7.4c-1.9-1-4.1-0.8-5.8,0.5c-1.9,1.8-2.4,4.4-2.7,7
				c-0.2,1.3,1.9,1.3,2.1,0c0.1-1.5,0.5-3,1.2-4.4v1.5l0,7.2v5.7c0,0.6,0.4,1.1,1,1.1c0,0,0,0,0,0c0.6,0,1.1-0.5,1.1-1.1v-8.1h1v8.2
				c0,0.6,0.5,1,1.1,1c0.5,0,1-0.4,1-1v-5.7l0.1-7.2c0-0.7,0-1.3,0-1.7c0.7,1.4,1.2,3,1.3,4.5C10.1,39.7,12.1,39.7,12,38.4z"/>
		</g>
	</g>
	<g id="standing-frontal-man-silhouette-68" transform="translate(4193.855 993.16)">
		<g id="Group_9964" transform="translate(0 0)">
			<ellipse id="Ellipse_6990" class="st0" cx="6" cy="27.9" rx="1.9" ry="1.9"/>
			<path id="Path_10464" class="st0" d="M12,38.4c-0.5-6.1-3.5-7.4-3.5-7.4c-1.9-1-4.1-0.8-5.8,0.5c-1.9,1.8-2.4,4.4-2.7,7
				c-0.2,1.3,1.9,1.3,2.1,0c0.1-1.5,0.5-3,1.2-4.4v1.5l0,7.2v5.7c0,0.6,0.4,1.1,1,1.1c0,0,0,0,0,0c0.6,0,1.1-0.5,1.1-1.1v-8.1h1v8.2
				c0,0.6,0.5,1,1.1,1c0.5,0,1-0.4,1-1v-5.7l0.1-7.2c0-0.7,0-1.3,0-1.7c0.7,1.4,1.2,3,1.3,4.5C10.1,39.7,12.1,39.7,12,38.4z"/>
		</g>
	</g>
	<g id="standing-frontal-man-silhouette-69" transform="translate(4193.855 968.16)">
		<g id="Group_9965" transform="translate(0 0)">
			<ellipse id="Ellipse_6991" class="st0" cx="6" cy="27.9" rx="1.9" ry="1.9"/>
			<path id="Path_10465" class="st0" d="M12,38.4c-0.5-6.1-3.5-7.4-3.5-7.4c-1.9-1-4.1-0.8-5.8,0.5c-1.9,1.8-2.4,4.4-2.7,7
				c-0.2,1.3,1.9,1.3,2.1,0c0.1-1.5,0.5-3,1.2-4.4v1.5l0,7.2v5.7c0,0.6,0.4,1.1,1,1.1c0,0,0,0,0,0c0.6,0,1.1-0.5,1.1-1.1v-8.1h1v8.2
				c0,0.6,0.5,1,1.1,1c0.5,0,1-0.4,1-1v-5.7l0.1-7.2c0-0.7,0-1.3,0-1.7c0.7,1.4,1.2,3,1.3,4.5C10.1,39.7,12.1,39.7,12,38.4z"/>
		</g>
	</g>
	<g id="standing-frontal-man-silhouette-70" transform="translate(4193.855 1144.545)">
		<g id="Group_9966" transform="translate(0 0)">
			<ellipse id="Ellipse_6992" class="st0" cx="6" cy="27.9" rx="1.9" ry="1.9"/>
			<path id="Path_10466" class="st0" d="M12,38.4c-0.5-6.1-3.5-7.4-3.5-7.4c-1.9-1-4.1-0.8-5.8,0.5c-1.9,1.8-2.4,4.4-2.7,7
				c-0.2,1.3,1.9,1.3,2.1,0c0.1-1.5,0.5-3,1.2-4.4v1.5l0,7.2v5.7c0,0.6,0.4,1.1,1,1.1c0,0,0,0,0,0c0.6,0,1.1-0.5,1.1-1.1v-8.1h1v8.2
				c0,0.6,0.5,1,1.1,1c0.5,0,1-0.4,1-1v-5.7l0.1-7.2c0-0.7,0-1.3,0-1.7c0.7,1.4,1.2,3,1.3,4.5C10.1,39.7,12.1,39.7,12,38.4z"/>
		</g>
	</g>
	<g id="standing-frontal-man-silhouette-71" transform="translate(4193.855 1043.545)">
		<g id="Group_9967" transform="translate(0 0)">
			<ellipse id="Ellipse_6993" class="st0" cx="6" cy="27.9" rx="1.9" ry="1.9"/>
			<path id="Path_10467" class="st0" d="M12,38.4c-0.5-6.1-3.5-7.4-3.5-7.4c-1.9-1-4.1-0.8-5.8,0.5c-1.9,1.8-2.4,4.4-2.7,7
				c-0.2,1.3,1.9,1.3,2.1,0c0.1-1.5,0.5-3,1.2-4.4v1.5l0,7.2v5.7c0,0.6,0.4,1.1,1,1.1c0,0,0,0,0,0c0.6,0,1.1-0.5,1.1-1.1v-8.1h1v8.2
				c0,0.6,0.5,1,1.1,1c0.5,0,1-0.4,1-1v-5.7l0.1-7.2c0-0.7,0-1.3,0-1.7c0.7,1.4,1.2,3,1.3,4.5C10.1,39.7,12.1,39.7,12,38.4z"/>
		</g>
	</g>
	<g id="standing-frontal-man-silhouette-72" transform="translate(4138.66 867.968)">
		<g id="Group_9968" transform="translate(0 0)">
			<ellipse id="Ellipse_6994" class="st0" cx="6" cy="27.9" rx="1.9" ry="1.9"/>
			<path id="Path_10468" class="st0" d="M12,38.4c-0.5-6.1-3.5-7.4-3.5-7.4c-1.9-1-4.1-0.8-5.8,0.5c-1.9,1.8-2.4,4.4-2.7,7
				c-0.2,1.3,1.9,1.3,2.1,0c0.1-1.5,0.5-3,1.2-4.4v1.5l0,7.2v5.7c0,0.6,0.4,1.1,1,1.1c0,0,0,0,0,0c0.6,0,1.1-0.5,1.1-1.1v-8.1h1v8.2
				c0,0.6,0.5,1,1.1,1c0.5,0,1-0.4,1-1v-5.7l0.1-7.2c0-0.7,0-1.3,0-1.7c0.7,1.4,1.2,3,1.3,4.5C10.1,39.7,12.1,39.7,12,38.4z"/>
		</g>
	</g>
	<g id="standing-frontal-man-silhouette-73" transform="translate(4138.66 918.353)">
		<g id="Group_9969" transform="translate(0 0)">
			<ellipse id="Ellipse_6995" class="st0" cx="6" cy="27.9" rx="1.9" ry="1.9"/>
			<path id="Path_10469" class="st0" d="M12,38.4c-0.5-6.1-3.5-7.4-3.5-7.4c-1.9-1-4.1-0.8-5.8,0.5c-1.9,1.8-2.4,4.4-2.7,7
				c-0.2,1.3,1.9,1.3,2.1,0c0.1-1.5,0.5-3,1.2-4.4v1.5l0,7.2v5.7c0,0.6,0.4,1.1,1,1.1c0,0,0,0,0,0c0.6,0,1.1-0.5,1.1-1.1v-8.1h1v8.2
				c0,0.6,0.5,1,1.1,1c0.5,0,1-0.4,1-1v-5.7l0.1-7.2c0-0.7,0-1.3,0-1.7c0.7,1.4,1.2,3,1.3,4.5C10.1,39.7,12.1,39.7,12,38.4z"/>
		</g>
	</g>
	<g id="standing-frontal-man-silhouette-74" transform="translate(4193.66 918.353)">
		<g id="Group_9970" transform="translate(0 0)">
			<ellipse id="Ellipse_6996" class="st0" cx="6" cy="27.9" rx="1.9" ry="1.9"/>
			<path id="Path_10470" class="st0" d="M12,38.4c-0.5-6.1-3.5-7.4-3.5-7.4c-1.9-1-4.1-0.8-5.8,0.5c-1.9,1.8-2.4,4.4-2.7,7
				c-0.2,1.3,1.9,1.3,2.1,0c0.1-1.5,0.5-3,1.2-4.4v1.5l0,7.2v5.7c0,0.6,0.4,1.1,1,1.1c0,0,0,0,0,0c0.6,0,1.1-0.5,1.1-1.1v-8.1h1v8.2
				c0,0.6,0.5,1,1.1,1c0.5,0,1-0.4,1-1v-5.7l0.1-7.2c0-0.7,0-1.3,0-1.7c0.7,1.4,1.2,3,1.3,4.5C10.1,39.7,12.1,39.7,12,38.4z"/>
		</g>
	</g>
	<g id="standing-frontal-man-silhouette-75" transform="translate(4138.66 893.16)">
		<g id="Group_9971" transform="translate(0 0)">
			<ellipse id="Ellipse_6997" class="st0" cx="6" cy="27.9" rx="1.9" ry="1.9"/>
			<path id="Path_10471" class="st0" d="M12,38.4c-0.5-6.1-3.5-7.4-3.5-7.4c-1.9-1-4.1-0.8-5.8,0.5c-1.9,1.8-2.4,4.4-2.7,7
				c-0.2,1.3,1.9,1.3,2.1,0c0.1-1.5,0.5-3,1.2-4.4v1.5l0,7.2v5.7c0,0.6,0.4,1.1,1,1.1c0,0,0,0,0,0c0.6,0,1.1-0.5,1.1-1.1v-8.1h1v8.2
				c0,0.6,0.5,1,1.1,1c0.5,0,1-0.4,1-1v-5.7l0.1-7.2c0-0.7,0-1.3,0-1.7c0.7,1.4,1.2,3,1.3,4.5C10.1,39.7,12.1,39.7,12,38.4z"/>
		</g>
	</g>
	<g id="standing-frontal-man-silhouette-76" transform="translate(4193.66 893.16)">
		<g id="Group_9972" transform="translate(0 0)">
			<ellipse id="Ellipse_6998" class="st0" cx="6" cy="27.9" rx="1.9" ry="1.9"/>
			<path id="Path_10472" class="st0" d="M12,38.4c-0.5-6.1-3.5-7.4-3.5-7.4c-1.9-1-4.1-0.8-5.8,0.5c-1.9,1.8-2.4,4.4-2.7,7
				c-0.2,1.3,1.9,1.3,2.1,0c0.1-1.5,0.5-3,1.2-4.4v1.5l0,7.2v5.7c0,0.6,0.4,1.1,1,1.1c0,0,0,0,0,0c0.6,0,1.1-0.5,1.1-1.1v-8.1h1v8.2
				c0,0.6,0.5,1,1.1,1c0.5,0,1-0.4,1-1v-5.7l0.1-7.2c0-0.7,0-1.3,0-1.7c0.7,1.4,1.2,3,1.3,4.5C10.1,39.7,12.1,39.7,12,38.4z"/>
		</g>
	</g>
	<g id="standing-frontal-man-silhouette-77" transform="translate(4138.66 943.545)">
		<g id="Group_9973" transform="translate(0 0)">
			<ellipse id="Ellipse_6999" class="st0" cx="6" cy="27.9" rx="1.9" ry="1.9"/>
			<path id="Path_10473" class="st0" d="M12,38.4c-0.5-6.1-3.5-7.4-3.5-7.4c-1.9-1-4.1-0.8-5.8,0.5c-1.9,1.8-2.4,4.4-2.7,7
				c-0.2,1.3,1.9,1.3,2.1,0c0.1-1.5,0.5-3,1.2-4.4v1.5l0,7.2v5.7c0,0.6,0.4,1.1,1,1.1c0,0,0,0,0,0c0.6,0,1.1-0.5,1.1-1.1v-8.1h1v8.2
				c0,0.6,0.5,1,1.1,1c0.5,0,1-0.4,1-1v-5.7l0.1-7.2c0-0.7,0-1.3,0-1.7c0.7,1.4,1.2,3,1.3,4.5C10.1,39.7,12.1,39.7,12,38.4z"/>
		</g>
	</g>
	<g id="standing-frontal-man-silhouette-78" transform="translate(4193.66 943.545)">
		<g id="Group_9974" transform="translate(0 0)">
			<ellipse id="Ellipse_7000" class="st0" cx="6" cy="27.9" rx="1.9" ry="1.9"/>
			<path id="Path_10474" class="st0" d="M12,38.4c-0.5-6.1-3.5-7.4-3.5-7.4c-1.9-1-4.1-0.8-5.8,0.5c-1.9,1.8-2.4,4.4-2.7,7
				c-0.2,1.3,1.9,1.3,2.1,0c0.1-1.5,0.5-3,1.2-4.4v1.5l0,7.2v5.7c0,0.6,0.4,1.1,1,1.1c0,0,0,0,0,0c0.6,0,1.1-0.5,1.1-1.1v-8.1h1v8.2
				c0,0.6,0.5,1,1.1,1c0.5,0,1-0.4,1-1v-5.7l0.1-7.2c0-0.7,0-1.3,0-1.7c0.7,1.4,1.2,3,1.3,4.5C10.1,39.7,12.1,39.7,12,38.4z"/>
		</g>
	</g>
	<g id="standing-frontal-man-silhouette-79" transform="translate(4125.744 1270.968)">
		<g id="Group_9975" transform="translate(0 0)">
			<ellipse id="Ellipse_7001" class="st0" cx="6" cy="27.9" rx="1.9" ry="1.9"/>
			<path id="Path_10475" class="st0" d="M12,38.4c-0.5-6.1-3.5-7.4-3.5-7.4c-1.9-1-4.1-0.8-5.8,0.5c-1.9,1.8-2.4,4.4-2.7,7
				c-0.2,1.3,1.9,1.3,2.1,0c0.1-1.5,0.5-3,1.2-4.4v1.5l0,7.2v5.7c0,0.6,0.4,1.1,1,1.1c0,0,0,0,0,0c0.6,0,1.1-0.5,1.1-1.1v-8.1h1v8.2
				c0,0.6,0.5,1,1.1,1c0.5,0,1-0.4,1-1v-5.7l0.1-7.2c0-0.7,0-1.3,0-1.7c0.7,1.4,1.2,3,1.3,4.5C10.1,39.7,12.1,39.7,12,38.4z"/>
		</g>
	</g>
	<g id="standing-frontal-man-silhouette-80" transform="translate(4125.744 1321.353)">
		<g id="Group_9976" transform="translate(0 0)">
			<ellipse id="Ellipse_7002" class="st0" cx="6" cy="27.9" rx="1.9" ry="1.9"/>
			<path id="Path_10476" class="st0" d="M12,38.4c-0.5-6.1-3.5-7.4-3.5-7.4c-1.9-1-4.1-0.8-5.8,0.5c-1.9,1.8-2.4,4.4-2.7,7
				c-0.2,1.3,1.9,1.3,2.1,0c0.1-1.5,0.5-3,1.2-4.4v1.5l0,7.2v5.7c0,0.6,0.4,1.1,1,1.1c0,0,0,0,0,0c0.6,0,1.1-0.5,1.1-1.1v-8.1h1v8.2
				c0,0.6,0.5,1,1.1,1c0.5,0,1-0.4,1-1v-5.7l0.1-7.2c0-0.7,0-1.3,0-1.7c0.7,1.4,1.2,3,1.3,4.5C10.1,39.7,12.1,39.7,12,38.4z"/>
		</g>
	</g>
	<g id="standing-frontal-man-silhouette-81" transform="translate(4125.744 1220.353)">
		<g id="Group_9977" transform="translate(0 0)">
			<ellipse id="Ellipse_7003" class="st0" cx="6" cy="27.9" rx="1.9" ry="1.9"/>
			<path id="Path_10477" class="st0" d="M12,38.4c-0.5-6.1-3.5-7.4-3.5-7.4c-1.9-1-4.1-0.8-5.8,0.5c-1.9,1.8-2.4,4.4-2.7,7
				c-0.2,1.3,1.9,1.3,2.1,0c0.1-1.5,0.5-3,1.2-4.4v1.5l0,7.2v5.7c0,0.6,0.4,1.1,1,1.1c0,0,0,0,0,0c0.6,0,1.1-0.5,1.1-1.1v-8.1h1v8.2
				c0,0.6,0.5,1,1.1,1c0.5,0,1-0.4,1-1v-5.7l0.1-7.2c0-0.7,0-1.3,0-1.7c0.7,1.4,1.2,3,1.3,4.5C10.1,39.7,12.1,39.7,12,38.4z"/>
		</g>
	</g>
	<g id="standing-frontal-man-silhouette-82" transform="translate(4125.744 1296.16)">
		<g id="Group_9978" transform="translate(0 0)">
			<ellipse id="Ellipse_7004" class="st0" cx="6" cy="27.9" rx="1.9" ry="1.9"/>
			<path id="Path_10478" class="st0" d="M12,38.4c-0.5-6.1-3.5-7.4-3.5-7.4c-1.9-1-4.1-0.8-5.8,0.5c-1.9,1.8-2.4,4.4-2.7,7
				c-0.2,1.3,1.9,1.3,2.1,0c0.1-1.5,0.5-3,1.2-4.4v1.5l0,7.2v5.7c0,0.6,0.4,1.1,1,1.1c0,0,0,0,0,0c0.6,0,1.1-0.5,1.1-1.1v-8.1h1v8.2
				c0,0.6,0.5,1,1.1,1c0.5,0,1-0.4,1-1v-5.7l0.1-7.2c0-0.7,0-1.3,0-1.7c0.7,1.4,1.2,3,1.3,4.5C10.1,39.7,12.1,39.7,12,38.4z"/>
		</g>
	</g>
	<g id="standing-frontal-man-silhouette-83" transform="translate(4125.744 1195.16)">
		<g id="Group_9979" transform="translate(0 0)">
			<ellipse id="Ellipse_7005" class="st0" cx="6" cy="27.9" rx="1.9" ry="1.9"/>
			<path id="Path_10479" class="st0" d="M12,38.4c-0.5-6.1-3.5-7.4-3.5-7.4c-1.9-1-4.1-0.8-5.8,0.5c-1.9,1.8-2.4,4.4-2.7,7
				c-0.2,1.3,1.9,1.3,2.1,0c0.1-1.5,0.5-3,1.2-4.4v1.5l0,7.2v5.7c0,0.6,0.4,1.1,1,1.1c0,0,0,0,0,0c0.6,0,1.1-0.5,1.1-1.1v-8.1h1v8.2
				c0,0.6,0.5,1,1.1,1c0.5,0,1-0.4,1-1v-5.7l0.1-7.2c0-0.7,0-1.3,0-1.7c0.7,1.4,1.2,3,1.3,4.5C10.1,39.7,12.1,39.7,12,38.4z"/>
		</g>
	</g>
	<g id="standing-frontal-man-silhouette-84" transform="translate(4125.744 1170.16)">
		<g id="Group_9980" transform="translate(0 0)">
			<ellipse id="Ellipse_7006" class="st0" cx="6" cy="27.9" rx="1.9" ry="1.9"/>
			<path id="Path_10480" class="st0" d="M12,38.4c-0.5-6.1-3.5-7.4-3.5-7.4c-1.9-1-4.1-0.8-5.8,0.5c-1.9,1.8-2.4,4.4-2.7,7
				c-0.2,1.3,1.9,1.3,2.1,0c0.1-1.5,0.5-3,1.2-4.4v1.5l0,7.2v5.7c0,0.6,0.4,1.1,1,1.1c0,0,0,0,0,0c0.6,0,1.1-0.5,1.1-1.1v-8.1h1v8.2
				c0,0.6,0.5,1,1.1,1c0.5,0,1-0.4,1-1v-5.7l0.1-7.2c0-0.7,0-1.3,0-1.7c0.7,1.4,1.2,3,1.3,4.5C10.1,39.7,12.1,39.7,12,38.4z"/>
		</g>
	</g>
	<g id="standing-frontal-man-silhouette-85" transform="translate(4125.744 1346.545)">
		<g id="Group_9981" transform="translate(0 0)">
			<ellipse id="Ellipse_7007" class="st0" cx="6" cy="27.9" rx="1.9" ry="1.9"/>
			<path id="Path_10481" class="st0" d="M12,38.4c-0.5-6.1-3.5-7.4-3.5-7.4c-1.9-1-4.1-0.8-5.8,0.5c-1.9,1.8-2.4,4.4-2.7,7
				c-0.2,1.3,1.9,1.3,2.1,0c0.1-1.5,0.5-3,1.2-4.4v1.5l0,7.2v5.7c0,0.6,0.4,1.1,1,1.1c0,0,0,0,0,0c0.6,0,1.1-0.5,1.1-1.1v-8.1h1v8.2
				c0,0.6,0.5,1,1.1,1c0.5,0,1-0.4,1-1v-5.7l0.1-7.2c0-0.7,0-1.3,0-1.7c0.7,1.4,1.2,3,1.3,4.5C10.1,39.7,12.1,39.7,12,38.4z"/>
		</g>
	</g>
	<g id="standing-frontal-man-silhouette-86" transform="translate(4125.744 1245.545)">
		<g id="Group_9982" transform="translate(0 0)">
			<ellipse id="Ellipse_7008" class="st0" cx="6" cy="27.9" rx="1.9" ry="1.9"/>
			<path id="Path_10482" class="st0" d="M12,38.4c-0.5-6.1-3.5-7.4-3.5-7.4c-1.9-1-4.1-0.8-5.8,0.5c-1.9,1.8-2.4,4.4-2.7,7
				c-0.2,1.3,1.9,1.3,2.1,0c0.1-1.5,0.5-3,1.2-4.4v1.5l0,7.2v5.7c0,0.6,0.4,1.1,1,1.1c0,0,0,0,0,0c0.6,0,1.1-0.5,1.1-1.1v-8.1h1v8.2
				c0,0.6,0.5,1,1.1,1c0.5,0,1-0.4,1-1v-5.7l0.1-7.2c0-0.7,0-1.3,0-1.7c0.7,1.4,1.2,3,1.3,4.5C10.1,39.7,12.1,39.7,12,38.4z"/>
		</g>
	</g>
	<g id="standing-frontal-man-silhouette-87" transform="translate(4125.352 1068.968)">
		<g id="Group_9983" transform="translate(0 0)">
			<ellipse id="Ellipse_7009" class="st0" cx="6" cy="27.9" rx="1.9" ry="1.9"/>
			<path id="Path_10483" class="st0" d="M12,38.4c-0.5-6.1-3.5-7.4-3.5-7.4c-1.9-1-4.1-0.8-5.8,0.5c-1.9,1.8-2.4,4.4-2.7,7
				c-0.2,1.3,1.9,1.3,2.1,0c0.1-1.5,0.5-3,1.2-4.4v1.5l0,7.2v5.7c0,0.6,0.4,1.1,1,1.1c0,0,0,0,0,0c0.6,0,1.1-0.5,1.1-1.1v-8.1h1v8.2
				c0,0.6,0.5,1,1.1,1c0.5,0,1-0.4,1-1v-5.7l0.1-7.2c0-0.7,0-1.3,0-1.7c0.7,1.4,1.2,3,1.3,4.5C10.1,39.7,12.1,39.7,12,38.4z"/>
		</g>
	</g>
	<g id="standing-frontal-man-silhouette-88" transform="translate(4125.352 1119.353)">
		<g id="Group_9984" transform="translate(0 0)">
			<ellipse id="Ellipse_7010" class="st0" cx="6" cy="27.9" rx="1.9" ry="1.9"/>
			<path id="Path_10484" class="st0" d="M12,38.4c-0.5-6.1-3.5-7.4-3.5-7.4c-1.9-1-4.1-0.8-5.8,0.5c-1.9,1.8-2.4,4.4-2.7,7
				c-0.2,1.3,1.9,1.3,2.1,0c0.1-1.5,0.5-3,1.2-4.4v1.5l0,7.2v5.7c0,0.6,0.4,1.1,1,1.1c0,0,0,0,0,0c0.6,0,1.1-0.5,1.1-1.1v-8.1h1v8.2
				c0,0.6,0.5,1,1.1,1c0.5,0,1-0.4,1-1v-5.7l0.1-7.2c0-0.7,0-1.3,0-1.7c0.7,1.4,1.2,3,1.3,4.5C10.1,39.7,12.1,39.7,12,38.4z"/>
		</g>
	</g>
	<g id="standing-frontal-man-silhouette-89" transform="translate(4125.352 1018.353)">
		<g id="Group_9985" transform="translate(0 0)">
			<ellipse id="Ellipse_7011" class="st0" cx="6" cy="27.9" rx="1.9" ry="1.9"/>
			<path id="Path_10485" class="st0" d="M12,38.4c-0.5-6.1-3.5-7.4-3.5-7.4c-1.9-1-4.1-0.8-5.8,0.5c-1.9,1.8-2.4,4.4-2.7,7
				c-0.2,1.3,1.9,1.3,2.1,0c0.1-1.5,0.5-3,1.2-4.4v1.5l0,7.2v5.7c0,0.6,0.4,1.1,1,1.1c0,0,0,0,0,0c0.6,0,1.1-0.5,1.1-1.1v-8.1h1v8.2
				c0,0.6,0.5,1,1.1,1c0.5,0,1-0.4,1-1v-5.7l0.1-7.2c0-0.7,0-1.3,0-1.7c0.7,1.4,1.2,3,1.3,4.5C10.1,39.7,12.1,39.7,12,38.4z"/>
		</g>
	</g>
	<g id="standing-frontal-man-silhouette-90" transform="translate(4125.352 1094.16)">
		<g id="Group_9986" transform="translate(0 0)">
			<ellipse id="Ellipse_7012" class="st0" cx="6" cy="27.9" rx="1.9" ry="1.9"/>
			<path id="Path_10486" class="st0" d="M12,38.4c-0.5-6.1-3.5-7.4-3.5-7.4c-1.9-1-4.1-0.8-5.8,0.5c-1.9,1.8-2.4,4.4-2.7,7
				c-0.2,1.3,1.9,1.3,2.1,0c0.1-1.5,0.5-3,1.2-4.4v1.5l0,7.2v5.7c0,0.6,0.4,1.1,1,1.1c0,0,0,0,0,0c0.6,0,1.1-0.5,1.1-1.1v-8.1h1v8.2
				c0,0.6,0.5,1,1.1,1c0.5,0,1-0.4,1-1v-5.7l0.1-7.2c0-0.7,0-1.3,0-1.7c0.7,1.4,1.2,3,1.3,4.5C10.1,39.7,12.1,39.7,12,38.4z"/>
		</g>
	</g>
	<g id="standing-frontal-man-silhouette-91" transform="translate(4125.352 993.16)">
		<g id="Group_9987" transform="translate(0 0)">
			<ellipse id="Ellipse_7013" class="st0" cx="6" cy="27.9" rx="1.9" ry="1.9"/>
			<path id="Path_10487" class="st0" d="M12,38.4c-0.5-6.1-3.5-7.4-3.5-7.4c-1.9-1-4.1-0.8-5.8,0.5c-1.9,1.8-2.4,4.4-2.7,7
				c-0.2,1.3,1.9,1.3,2.1,0c0.1-1.5,0.5-3,1.2-4.4v1.5l0,7.2v5.7c0,0.6,0.4,1.1,1,1.1c0,0,0,0,0,0c0.6,0,1.1-0.5,1.1-1.1v-8.1h1v8.2
				c0,0.6,0.5,1,1.1,1c0.5,0,1-0.4,1-1v-5.7l0.1-7.2c0-0.7,0-1.3,0-1.7c0.7,1.4,1.2,3,1.3,4.5C10.1,39.7,12.1,39.7,12,38.4z"/>
		</g>
	</g>
	<g id="standing-frontal-man-silhouette-92" transform="translate(4125.352 968.16)">
		<g id="Group_9988" transform="translate(0 0)">
			<ellipse id="Ellipse_7014" class="st0" cx="6" cy="27.9" rx="1.9" ry="1.9"/>
			<path id="Path_10488" class="st0" d="M12,38.4c-0.5-6.1-3.5-7.4-3.5-7.4c-1.9-1-4.1-0.8-5.8,0.5c-1.9,1.8-2.4,4.4-2.7,7
				c-0.2,1.3,1.9,1.3,2.1,0c0.1-1.5,0.5-3,1.2-4.4v1.5l0,7.2v5.7c0,0.6,0.4,1.1,1,1.1c0,0,0,0,0,0c0.6,0,1.1-0.5,1.1-1.1v-8.1h1v8.2
				c0,0.6,0.5,1,1.1,1c0.5,0,1-0.4,1-1v-5.7l0.1-7.2c0-0.7,0-1.3,0-1.7c0.7,1.4,1.2,3,1.3,4.5C10.1,39.7,12.1,39.7,12,38.4z"/>
		</g>
	</g>
	<g id="standing-frontal-man-silhouette-93" transform="translate(4125.352 1144.545)">
		<g id="Group_9989" transform="translate(0 0)">
			<ellipse id="Ellipse_7015" class="st0" cx="6" cy="27.9" rx="1.9" ry="1.9"/>
			<path id="Path_10489" class="st0" d="M12,38.4c-0.5-6.1-3.5-7.4-3.5-7.4c-1.9-1-4.1-0.8-5.8,0.5c-1.9,1.8-2.4,4.4-2.7,7
				c-0.2,1.3,1.9,1.3,2.1,0c0.1-1.5,0.5-3,1.2-4.4v1.5l0,7.2v5.7c0,0.6,0.4,1.1,1,1.1c0,0,0,0,0,0c0.6,0,1.1-0.5,1.1-1.1v-8.1h1v8.2
				c0,0.6,0.5,1,1.1,1c0.5,0,1-0.4,1-1v-5.7l0.1-7.2c0-0.7,0-1.3,0-1.7c0.7,1.4,1.2,3,1.3,4.5C10.1,39.7,12.1,39.7,12,38.4z"/>
		</g>
	</g>
	<g id="standing-frontal-man-silhouette-94" transform="translate(4125.352 1043.545)">
		<g id="Group_9990" transform="translate(0 0)">
			<ellipse id="Ellipse_7016" class="st0" cx="6" cy="27.9" rx="1.9" ry="1.9"/>
			<path id="Path_10490" class="st0" d="M12,38.4c-0.5-6.1-3.5-7.4-3.5-7.4c-1.9-1-4.1-0.8-5.8,0.5c-1.9,1.8-2.4,4.4-2.7,7
				c-0.2,1.3,1.9,1.3,2.1,0c0.1-1.5,0.5-3,1.2-4.4v1.5l0,7.2v5.7c0,0.6,0.4,1.1,1,1.1c0,0,0,0,0,0c0.6,0,1.1-0.5,1.1-1.1v-8.1h1v8.2
				c0,0.6,0.5,1,1.1,1c0.5,0,1-0.4,1-1v-5.7l0.1-7.2c0-0.7,0-1.3,0-1.7c0.7,1.4,1.2,3,1.3,4.5C10.1,39.7,12.1,39.7,12,38.4z"/>
		</g>
	</g>
	<g id="standing-frontal-man-silhouette-95" transform="translate(4180.548 1270.968)">
		<g id="Group_9991" transform="translate(0 0)">
			<ellipse id="Ellipse_7017" class="st0" cx="6" cy="27.9" rx="1.9" ry="1.9"/>
			<path id="Path_10491" class="st0" d="M12,38.4c-0.5-6.1-3.5-7.4-3.5-7.4c-1.9-1-4.1-0.8-5.8,0.5c-1.9,1.8-2.4,4.4-2.7,7
				c-0.2,1.3,1.9,1.3,2.1,0c0.1-1.5,0.5-3,1.2-4.4v1.5l0,7.2v5.7c0,0.6,0.4,1.1,1,1.1c0,0,0,0,0,0c0.6,0,1.1-0.5,1.1-1.1v-8.1h1v8.2
				c0,0.6,0.5,1,1.1,1c0.5,0,1-0.4,1-1v-5.7l0.1-7.2c0-0.7,0-1.3,0-1.7c0.7,1.4,1.2,3,1.3,4.5C10.1,39.7,12.1,39.7,12,38.4z"/>
		</g>
	</g>
	<g id="standing-frontal-man-silhouette-96" transform="translate(4180.548 1321.353)">
		<g id="Group_9992" transform="translate(0 0)">
			<ellipse id="Ellipse_7018" class="st0" cx="6" cy="27.9" rx="1.9" ry="1.9"/>
			<path id="Path_10492" class="st0" d="M12,38.4c-0.5-6.1-3.5-7.4-3.5-7.4c-1.9-1-4.1-0.8-5.8,0.5c-1.9,1.8-2.4,4.4-2.7,7
				c-0.2,1.3,1.9,1.3,2.1,0c0.1-1.5,0.5-3,1.2-4.4v1.5l0,7.2v5.7c0,0.6,0.4,1.1,1,1.1c0,0,0,0,0,0c0.6,0,1.1-0.5,1.1-1.1v-8.1h1v8.2
				c0,0.6,0.5,1,1.1,1c0.5,0,1-0.4,1-1v-5.7l0.1-7.2c0-0.7,0-1.3,0-1.7c0.7,1.4,1.2,3,1.3,4.5C10.1,39.7,12.1,39.7,12,38.4z"/>
		</g>
	</g>
	<g id="standing-frontal-man-silhouette-97" transform="translate(4180.548 1220.353)">
		<g id="Group_9993" transform="translate(0 0)">
			<ellipse id="Ellipse_7019" class="st0" cx="6" cy="27.9" rx="1.9" ry="1.9"/>
			<path id="Path_10493" class="st0" d="M12,38.4c-0.5-6.1-3.5-7.4-3.5-7.4c-1.9-1-4.1-0.8-5.8,0.5c-1.9,1.8-2.4,4.4-2.7,7
				c-0.2,1.3,1.9,1.3,2.1,0c0.1-1.5,0.5-3,1.2-4.4v1.5l0,7.2v5.7c0,0.6,0.4,1.1,1,1.1c0,0,0,0,0,0c0.6,0,1.1-0.5,1.1-1.1v-8.1h1v8.2
				c0,0.6,0.5,1,1.1,1c0.5,0,1-0.4,1-1v-5.7l0.1-7.2c0-0.7,0-1.3,0-1.7c0.7,1.4,1.2,3,1.3,4.5C10.1,39.7,12.1,39.7,12,38.4z"/>
		</g>
	</g>
	<g id="standing-frontal-man-silhouette-98" transform="translate(4180.548 1296.16)">
		<g id="Group_9994" transform="translate(0 0)">
			<ellipse id="Ellipse_7020" class="st0" cx="6" cy="27.9" rx="1.9" ry="1.9"/>
			<path id="Path_10494" class="st0" d="M12,38.4c-0.5-6.1-3.5-7.4-3.5-7.4c-1.9-1-4.1-0.8-5.8,0.5c-1.9,1.8-2.4,4.4-2.7,7
				c-0.2,1.3,1.9,1.3,2.1,0c0.1-1.5,0.5-3,1.2-4.4v1.5l0,7.2v5.7c0,0.6,0.4,1.1,1,1.1c0,0,0,0,0,0c0.6,0,1.1-0.5,1.1-1.1v-8.1h1v8.2
				c0,0.6,0.5,1,1.1,1c0.5,0,1-0.4,1-1v-5.7l0.1-7.2c0-0.7,0-1.3,0-1.7c0.7,1.4,1.2,3,1.3,4.5C10.1,39.7,12.1,39.7,12,38.4z"/>
		</g>
	</g>
	<g id="standing-frontal-man-silhouette-99" transform="translate(4180.548 1195.16)">
		<g id="Group_9995" transform="translate(0 0)">
			<ellipse id="Ellipse_7021" class="st0" cx="6" cy="27.9" rx="1.9" ry="1.9"/>
			<path id="Path_10495" class="st0" d="M12,38.4c-0.5-6.1-3.5-7.4-3.5-7.4c-1.9-1-4.1-0.8-5.8,0.5c-1.9,1.8-2.4,4.4-2.7,7
				c-0.2,1.3,1.9,1.3,2.1,0c0.1-1.5,0.5-3,1.2-4.4v1.5l0,7.2v5.7c0,0.6,0.4,1.1,1,1.1c0,0,0,0,0,0c0.6,0,1.1-0.5,1.1-1.1v-8.1h1v8.2
				c0,0.6,0.5,1,1.1,1c0.5,0,1-0.4,1-1v-5.7l0.1-7.2c0-0.7,0-1.3,0-1.7c0.7,1.4,1.2,3,1.3,4.5C10.1,39.7,12.1,39.7,12,38.4z"/>
		</g>
	</g>
	<g id="standing-frontal-man-silhouette-100" transform="translate(4180.548 1170.16)">
		<g id="Group_9996" transform="translate(0 0)">
			<ellipse id="Ellipse_7022" class="st0" cx="6" cy="27.9" rx="1.9" ry="1.9"/>
			<path id="Path_10496" class="st0" d="M12,38.4c-0.5-6.1-3.5-7.4-3.5-7.4c-1.9-1-4.1-0.8-5.8,0.5c-1.9,1.8-2.4,4.4-2.7,7
				c-0.2,1.3,1.9,1.3,2.1,0c0.1-1.5,0.5-3,1.2-4.4v1.5l0,7.2v5.7c0,0.6,0.4,1.1,1,1.1c0,0,0,0,0,0c0.6,0,1.1-0.5,1.1-1.1v-8.1h1v8.2
				c0,0.6,0.5,1,1.1,1c0.5,0,1-0.4,1-1v-5.7l0.1-7.2c0-0.7,0-1.3,0-1.7c0.7,1.4,1.2,3,1.3,4.5C10.1,39.7,12.1,39.7,12,38.4z"/>
		</g>
	</g>
	<g id="standing-frontal-man-silhouette-101" transform="translate(4180.548 1346.545)">
		<g id="Group_9997" transform="translate(0 0)">
			<ellipse id="Ellipse_7023" class="st0" cx="6" cy="27.9" rx="1.9" ry="1.9"/>
			<path id="Path_10497" class="st0" d="M12,38.4c-0.5-6.1-3.5-7.4-3.5-7.4c-1.9-1-4.1-0.8-5.8,0.5c-1.9,1.8-2.4,4.4-2.7,7
				c-0.2,1.3,1.9,1.3,2.1,0c0.1-1.5,0.5-3,1.2-4.4v1.5l0,7.2v5.7c0,0.6,0.4,1.1,1,1.1c0,0,0,0,0,0c0.6,0,1.1-0.5,1.1-1.1v-8.1h1v8.2
				c0,0.6,0.5,1,1.1,1c0.5,0,1-0.4,1-1v-5.7l0.1-7.2c0-0.7,0-1.3,0-1.7c0.7,1.4,1.2,3,1.3,4.5C10.1,39.7,12.1,39.7,12,38.4z"/>
		</g>
	</g>
	<g id="standing-frontal-man-silhouette-102" transform="translate(4180.548 1245.545)">
		<g id="Group_9998" transform="translate(0 0)">
			<ellipse id="Ellipse_7024" class="st0" cx="6" cy="27.9" rx="1.9" ry="1.9"/>
			<path id="Path_10498" class="st0" d="M12,38.4c-0.5-6.1-3.5-7.4-3.5-7.4c-1.9-1-4.1-0.8-5.8,0.5c-1.9,1.8-2.4,4.4-2.7,7
				c-0.2,1.3,1.9,1.3,2.1,0c0.1-1.5,0.5-3,1.2-4.4v1.5l0,7.2v5.7c0,0.6,0.4,1.1,1,1.1c0,0,0,0,0,0c0.6,0,1.1-0.5,1.1-1.1v-8.1h1v8.2
				c0,0.6,0.5,1,1.1,1c0.5,0,1-0.4,1-1v-5.7l0.1-7.2c0-0.7,0-1.3,0-1.7c0.7,1.4,1.2,3,1.3,4.5C10.1,39.7,12.1,39.7,12,38.4z"/>
		</g>
	</g>
	<g id="standing-frontal-man-silhouette-103" transform="translate(4180.155 1068.968)">
		<g id="Group_9999" transform="translate(0 0)">
			<ellipse id="Ellipse_7025" class="st0" cx="6" cy="27.9" rx="1.9" ry="1.9"/>
			<path id="Path_10499" class="st0" d="M12,38.4c-0.5-6.1-3.5-7.4-3.5-7.4c-1.9-1-4.1-0.8-5.8,0.5c-1.9,1.8-2.4,4.4-2.7,7
				c-0.2,1.3,1.9,1.3,2.1,0c0.1-1.5,0.5-3,1.2-4.4v1.5l0,7.2v5.7c0,0.6,0.4,1.1,1,1.1c0,0,0,0,0,0c0.6,0,1.1-0.5,1.1-1.1v-8.1h1v8.2
				c0,0.6,0.5,1,1.1,1c0.5,0,1-0.4,1-1v-5.7l0.1-7.2c0-0.7,0-1.3,0-1.7c0.7,1.4,1.2,3,1.3,4.5C10.1,39.7,12.1,39.7,12,38.4z"/>
		</g>
	</g>
	<g id="standing-frontal-man-silhouette-104" transform="translate(4180.155 1119.353)">
		<g id="Group_10000" transform="translate(0 0)">
			<ellipse id="Ellipse_7026" class="st0" cx="6" cy="27.9" rx="1.9" ry="1.9"/>
			<path id="Path_10500" class="st0" d="M12,38.4c-0.5-6.1-3.5-7.4-3.5-7.4c-1.9-1-4.1-0.8-5.8,0.5c-1.9,1.8-2.4,4.4-2.7,7
				c-0.2,1.3,1.9,1.3,2.1,0c0.1-1.5,0.5-3,1.2-4.4v1.5l0,7.2v5.7c0,0.6,0.4,1.1,1,1.1c0,0,0,0,0,0c0.6,0,1.1-0.5,1.1-1.1v-8.1h1v8.2
				c0,0.6,0.5,1,1.1,1c0.5,0,1-0.4,1-1v-5.7l0.1-7.2c0-0.7,0-1.3,0-1.7c0.7,1.4,1.2,3,1.3,4.5C10.1,39.7,12.1,39.7,12,38.4z"/>
		</g>
	</g>
	<g id="standing-frontal-man-silhouette-105" transform="translate(4180.155 1018.353)">
		<g id="Group_10001" transform="translate(0 0)">
			<ellipse id="Ellipse_7027" class="st0" cx="6" cy="27.9" rx="1.9" ry="1.9"/>
			<path id="Path_10501" class="st0" d="M12,38.4c-0.5-6.1-3.5-7.4-3.5-7.4c-1.9-1-4.1-0.8-5.8,0.5c-1.9,1.8-2.4,4.4-2.7,7
				c-0.2,1.3,1.9,1.3,2.1,0c0.1-1.5,0.5-3,1.2-4.4v1.5l0,7.2v5.7c0,0.6,0.4,1.1,1,1.1c0,0,0,0,0,0c0.6,0,1.1-0.5,1.1-1.1v-8.1h1v8.2
				c0,0.6,0.5,1,1.1,1c0.5,0,1-0.4,1-1v-5.7l0.1-7.2c0-0.7,0-1.3,0-1.7c0.7,1.4,1.2,3,1.3,4.5C10.1,39.7,12.1,39.7,12,38.4z"/>
		</g>
	</g>
	<g id="standing-frontal-man-silhouette-106" transform="translate(4180.155 1094.16)">
		<g id="Group_10002" transform="translate(0 0)">
			<ellipse id="Ellipse_7028" class="st0" cx="6" cy="27.9" rx="1.9" ry="1.9"/>
			<path id="Path_10502" class="st0" d="M12,38.4c-0.5-6.1-3.5-7.4-3.5-7.4c-1.9-1-4.1-0.8-5.8,0.5c-1.9,1.8-2.4,4.4-2.7,7
				c-0.2,1.3,1.9,1.3,2.1,0c0.1-1.5,0.5-3,1.2-4.4v1.5l0,7.2v5.7c0,0.6,0.4,1.1,1,1.1c0,0,0,0,0,0c0.6,0,1.1-0.5,1.1-1.1v-8.1h1v8.2
				c0,0.6,0.5,1,1.1,1c0.5,0,1-0.4,1-1v-5.7l0.1-7.2c0-0.7,0-1.3,0-1.7c0.7,1.4,1.2,3,1.3,4.5C10.1,39.7,12.1,39.7,12,38.4z"/>
		</g>
	</g>
	<g id="standing-frontal-man-silhouette-107" transform="translate(4180.155 993.16)">
		<g id="Group_10003" transform="translate(0 0)">
			<ellipse id="Ellipse_7029" class="st0" cx="6" cy="27.9" rx="1.9" ry="1.9"/>
			<path id="Path_10503" class="st0" d="M12,38.4c-0.5-6.1-3.5-7.4-3.5-7.4c-1.9-1-4.1-0.8-5.8,0.5c-1.9,1.8-2.4,4.4-2.7,7
				c-0.2,1.3,1.9,1.3,2.1,0c0.1-1.5,0.5-3,1.2-4.4v1.5l0,7.2v5.7c0,0.6,0.4,1.1,1,1.1c0,0,0,0,0,0c0.6,0,1.1-0.5,1.1-1.1v-8.1h1v8.2
				c0,0.6,0.5,1,1.1,1c0.5,0,1-0.4,1-1v-5.7l0.1-7.2c0-0.7,0-1.3,0-1.7c0.7,1.4,1.2,3,1.3,4.5C10.1,39.7,12.1,39.7,12,38.4z"/>
		</g>
	</g>
	<g id="standing-frontal-man-silhouette-108" transform="translate(4180.155 968.16)">
		<g id="Group_10004" transform="translate(0 0)">
			<ellipse id="Ellipse_7030" class="st0" cx="6" cy="27.9" rx="1.9" ry="1.9"/>
			<path id="Path_10504" class="st0" d="M12,38.4c-0.5-6.1-3.5-7.4-3.5-7.4c-1.9-1-4.1-0.8-5.8,0.5c-1.9,1.8-2.4,4.4-2.7,7
				c-0.2,1.3,1.9,1.3,2.1,0c0.1-1.5,0.5-3,1.2-4.4v1.5l0,7.2v5.7c0,0.6,0.4,1.1,1,1.1c0,0,0,0,0,0c0.6,0,1.1-0.5,1.1-1.1v-8.1h1v8.2
				c0,0.6,0.5,1,1.1,1c0.5,0,1-0.4,1-1v-5.7l0.1-7.2c0-0.7,0-1.3,0-1.7c0.7,1.4,1.2,3,1.3,4.5C10.1,39.7,12.1,39.7,12,38.4z"/>
		</g>
	</g>
	<g id="standing-frontal-man-silhouette-109" transform="translate(4180.155 1144.545)">
		<g id="Group_10005" transform="translate(0 0)">
			<ellipse id="Ellipse_7031" class="st0" cx="6" cy="27.9" rx="1.9" ry="1.9"/>
			<path id="Path_10505" class="st0" d="M12,38.4c-0.5-6.1-3.5-7.4-3.5-7.4c-1.9-1-4.1-0.8-5.8,0.5c-1.9,1.8-2.4,4.4-2.7,7
				c-0.2,1.3,1.9,1.3,2.1,0c0.1-1.5,0.5-3,1.2-4.4v1.5l0,7.2v5.7c0,0.6,0.4,1.1,1,1.1c0,0,0,0,0,0c0.6,0,1.1-0.5,1.1-1.1v-8.1h1v8.2
				c0,0.6,0.5,1,1.1,1c0.5,0,1-0.4,1-1v-5.7l0.1-7.2c0-0.7,0-1.3,0-1.7c0.7,1.4,1.2,3,1.3,4.5C10.1,39.7,12.1,39.7,12,38.4z"/>
		</g>
	</g>
	<g id="standing-frontal-man-silhouette-110" transform="translate(4180.155 1043.545)">
		<g id="Group_10006" transform="translate(0 0)">
			<ellipse id="Ellipse_7032" class="st0" cx="6" cy="27.9" rx="1.9" ry="1.9"/>
			<path id="Path_10506" class="st0" d="M12,38.4c-0.5-6.1-3.5-7.4-3.5-7.4c-1.9-1-4.1-0.8-5.8,0.5c-1.9,1.8-2.4,4.4-2.7,7
				c-0.2,1.3,1.9,1.3,2.1,0c0.1-1.5,0.5-3,1.2-4.4v1.5l0,7.2v5.7c0,0.6,0.4,1.1,1,1.1c0,0,0,0,0,0c0.6,0,1.1-0.5,1.1-1.1v-8.1h1v8.2
				c0,0.6,0.5,1,1.1,1c0.5,0,1-0.4,1-1v-5.7l0.1-7.2c0-0.7,0-1.3,0-1.7c0.7,1.4,1.2,3,1.3,4.5C10.1,39.7,12.1,39.7,12,38.4z"/>
		</g>
	</g>
	<g id="standing-frontal-man-silhouette-111" transform="translate(4124.959 867.968)">
		<g id="Group_10007" transform="translate(0 0)">
			<ellipse id="Ellipse_7033" class="st0" cx="6" cy="27.9" rx="1.9" ry="1.9"/>
			<path id="Path_10507" class="st0" d="M12,38.4c-0.5-6.1-3.5-7.4-3.5-7.4c-1.9-1-4.1-0.8-5.8,0.5c-1.9,1.8-2.4,4.4-2.7,7
				c-0.2,1.3,1.9,1.3,2.1,0c0.1-1.5,0.5-3,1.2-4.4v1.5l0,7.2v5.7c0,0.6,0.4,1.1,1,1.1c0,0,0,0,0,0c0.6,0,1.1-0.5,1.1-1.1v-8.1h1v8.2
				c0,0.6,0.5,1,1.1,1c0.5,0,1-0.4,1-1v-5.7l0.1-7.2c0-0.7,0-1.3,0-1.7c0.7,1.4,1.2,3,1.3,4.5C10.1,39.7,12.1,39.7,12,38.4z"/>
		</g>
	</g>
	<g id="standing-frontal-man-silhouette-112" transform="translate(4124.959 918.353)">
		<g id="Group_10008" transform="translate(0 0)">
			<ellipse id="Ellipse_7034" class="st0" cx="6" cy="27.9" rx="1.9" ry="1.9"/>
			<path id="Path_10508" class="st0" d="M12,38.4c-0.5-6.1-3.5-7.4-3.5-7.4c-1.9-1-4.1-0.8-5.8,0.5c-1.9,1.8-2.4,4.4-2.7,7
				c-0.2,1.3,1.9,1.3,2.1,0c0.1-1.5,0.5-3,1.2-4.4v1.5l0,7.2v5.7c0,0.6,0.4,1.1,1,1.1c0,0,0,0,0,0c0.6,0,1.1-0.5,1.1-1.1v-8.1h1v8.2
				c0,0.6,0.5,1,1.1,1c0.5,0,1-0.4,1-1v-5.7l0.1-7.2c0-0.7,0-1.3,0-1.7c0.7,1.4,1.2,3,1.3,4.5C10.1,39.7,12.1,39.7,12,38.4z"/>
		</g>
	</g>
	<g id="standing-frontal-man-silhouette-113" transform="translate(4179.959 918.353)">
		<g id="Group_10009" transform="translate(0 0)">
			<ellipse id="Ellipse_7035" class="st0" cx="6" cy="27.9" rx="1.9" ry="1.9"/>
			<path id="Path_10509" class="st0" d="M12,38.4c-0.5-6.1-3.5-7.4-3.5-7.4c-1.9-1-4.1-0.8-5.8,0.5c-1.9,1.8-2.4,4.4-2.7,7
				c-0.2,1.3,1.9,1.3,2.1,0c0.1-1.5,0.5-3,1.2-4.4v1.5l0,7.2v5.7c0,0.6,0.4,1.1,1,1.1c0,0,0,0,0,0c0.6,0,1.1-0.5,1.1-1.1v-8.1h1v8.2
				c0,0.6,0.5,1,1.1,1c0.5,0,1-0.4,1-1v-5.7l0.1-7.2c0-0.7,0-1.3,0-1.7c0.7,1.4,1.2,3,1.3,4.5C10.1,39.7,12.1,39.7,12,38.4z"/>
		</g>
	</g>
	<g id="standing-frontal-man-silhouette-114" transform="translate(4124.959 893.16)">
		<g id="Group_10010" transform="translate(0 0)">
			<ellipse id="Ellipse_7036" class="st0" cx="6" cy="27.9" rx="1.9" ry="1.9"/>
			<path id="Path_10510" class="st0" d="M12,38.4c-0.5-6.1-3.5-7.4-3.5-7.4c-1.9-1-4.1-0.8-5.8,0.5c-1.9,1.8-2.4,4.4-2.7,7
				c-0.2,1.3,1.9,1.3,2.1,0c0.1-1.5,0.5-3,1.2-4.4v1.5l0,7.2v5.7c0,0.6,0.4,1.1,1,1.1c0,0,0,0,0,0c0.6,0,1.1-0.5,1.1-1.1v-8.1h1v8.2
				c0,0.6,0.5,1,1.1,1c0.5,0,1-0.4,1-1v-5.7l0.1-7.2c0-0.7,0-1.3,0-1.7c0.7,1.4,1.2,3,1.3,4.5C10.1,39.7,12.1,39.7,12,38.4z"/>
		</g>
	</g>
	<g id="standing-frontal-man-silhouette-115" transform="translate(4179.959 893.16)">
		<g id="Group_10011" transform="translate(0 0)">
			<ellipse id="Ellipse_7037" class="st0" cx="6" cy="27.9" rx="1.9" ry="1.9"/>
			<path id="Path_10511" class="st0" d="M12,38.4c-0.5-6.1-3.5-7.4-3.5-7.4c-1.9-1-4.1-0.8-5.8,0.5c-1.9,1.8-2.4,4.4-2.7,7
				c-0.2,1.3,1.9,1.3,2.1,0c0.1-1.5,0.5-3,1.2-4.4v1.5l0,7.2v5.7c0,0.6,0.4,1.1,1,1.1c0,0,0,0,0,0c0.6,0,1.1-0.5,1.1-1.1v-8.1h1v8.2
				c0,0.6,0.5,1,1.1,1c0.5,0,1-0.4,1-1v-5.7l0.1-7.2c0-0.7,0-1.3,0-1.7c0.7,1.4,1.2,3,1.3,4.5C10.1,39.7,12.1,39.7,12,38.4z"/>
		</g>
	</g>
	<g id="standing-frontal-man-silhouette-116" transform="translate(4124.959 943.545)">
		<g id="Group_10012" transform="translate(0 0)">
			<ellipse id="Ellipse_7038" class="st0" cx="6" cy="27.9" rx="1.9" ry="1.9"/>
			<path id="Path_10512" class="st0" d="M12,38.4c-0.5-6.1-3.5-7.4-3.5-7.4c-1.9-1-4.1-0.8-5.8,0.5c-1.9,1.8-2.4,4.4-2.7,7
				c-0.2,1.3,1.9,1.3,2.1,0c0.1-1.5,0.5-3,1.2-4.4v1.5l0,7.2v5.7c0,0.6,0.4,1.1,1,1.1c0,0,0,0,0,0c0.6,0,1.1-0.5,1.1-1.1v-8.1h1v8.2
				c0,0.6,0.5,1,1.1,1c0.5,0,1-0.4,1-1v-5.7l0.1-7.2c0-0.7,0-1.3,0-1.7c0.7,1.4,1.2,3,1.3,4.5C10.1,39.7,12.1,39.7,12,38.4z"/>
		</g>
	</g>
	<g id="standing-frontal-man-silhouette-117" transform="translate(4179.959 943.545)">
		<g id="Group_10013" transform="translate(0 0)">
			<ellipse id="Ellipse_7039" class="st0" cx="6" cy="27.9" rx="1.9" ry="1.9"/>
			<path id="Path_10513" class="st0" d="M12,38.4c-0.5-6.1-3.5-7.4-3.5-7.4c-1.9-1-4.1-0.8-5.8,0.5c-1.9,1.8-2.4,4.4-2.7,7
				c-0.2,1.3,1.9,1.3,2.1,0c0.1-1.5,0.5-3,1.2-4.4v1.5l0,7.2v5.7c0,0.6,0.4,1.1,1,1.1c0,0,0,0,0,0c0.6,0,1.1-0.5,1.1-1.1v-8.1h1v8.2
				c0,0.6,0.5,1,1.1,1c0.5,0,1-0.4,1-1v-5.7l0.1-7.2c0-0.7,0-1.3,0-1.7c0.7,1.4,1.2,3,1.3,4.5C10.1,39.7,12.1,39.7,12,38.4z"/>
		</g>
	</g>
	<g id="standing-frontal-man-silhouette-118" transform="translate(4153.146 1270.968)">
		<g id="Group_10014" transform="translate(0 0)">
			<ellipse id="Ellipse_7040" class="st0" cx="6" cy="27.9" rx="1.9" ry="1.9"/>
			<path id="Path_10514" class="st0" d="M12,38.4c-0.5-6.1-3.5-7.4-3.5-7.4c-1.9-1-4.1-0.8-5.8,0.5c-1.9,1.8-2.4,4.4-2.7,7
				c-0.2,1.3,1.9,1.3,2.1,0c0.1-1.5,0.5-3,1.2-4.4v1.5l0,7.2v5.7c0,0.6,0.4,1.1,1,1.1c0,0,0,0,0,0c0.6,0,1.1-0.5,1.1-1.1v-8.1h1v8.2
				c0,0.6,0.5,1,1.1,1c0.5,0,1-0.4,1-1v-5.7l0.1-7.2c0-0.7,0-1.3,0-1.7c0.7,1.4,1.2,3,1.3,4.5C10.1,39.7,12.1,39.7,12,38.4z"/>
		</g>
	</g>
	<g id="standing-frontal-man-silhouette-119" transform="translate(4153.146 1321.353)">
		<g id="Group_10015" transform="translate(0 0)">
			<ellipse id="Ellipse_7041" class="st0" cx="6" cy="27.9" rx="1.9" ry="1.9"/>
			<path id="Path_10515" class="st0" d="M12,38.4c-0.5-6.1-3.5-7.4-3.5-7.4c-1.9-1-4.1-0.8-5.8,0.5c-1.9,1.8-2.4,4.4-2.7,7
				c-0.2,1.3,1.9,1.3,2.1,0c0.1-1.5,0.5-3,1.2-4.4v1.5l0,7.2v5.7c0,0.6,0.4,1.1,1,1.1c0,0,0,0,0,0c0.6,0,1.1-0.5,1.1-1.1v-8.1h1v8.2
				c0,0.6,0.5,1,1.1,1c0.5,0,1-0.4,1-1v-5.7l0.1-7.2c0-0.7,0-1.3,0-1.7c0.7,1.4,1.2,3,1.3,4.5C10.1,39.7,12.1,39.7,12,38.4z"/>
		</g>
	</g>
	<g id="standing-frontal-man-silhouette-120" transform="translate(4153.146 1220.353)">
		<g id="Group_10016" transform="translate(0 0)">
			<ellipse id="Ellipse_7042" class="st0" cx="6" cy="27.9" rx="1.9" ry="1.9"/>
			<path id="Path_10516" class="st0" d="M12,38.4c-0.5-6.1-3.5-7.4-3.5-7.4c-1.9-1-4.1-0.8-5.8,0.5c-1.9,1.8-2.4,4.4-2.7,7
				c-0.2,1.3,1.9,1.3,2.1,0c0.1-1.5,0.5-3,1.2-4.4v1.5l0,7.2v5.7c0,0.6,0.4,1.1,1,1.1c0,0,0,0,0,0c0.6,0,1.1-0.5,1.1-1.1v-8.1h1v8.2
				c0,0.6,0.5,1,1.1,1c0.5,0,1-0.4,1-1v-5.7l0.1-7.2c0-0.7,0-1.3,0-1.7c0.7,1.4,1.2,3,1.3,4.5C10.1,39.7,12.1,39.7,12,38.4z"/>
		</g>
	</g>
	<g id="standing-frontal-man-silhouette-121" transform="translate(4153.146 1296.16)">
		<g id="Group_10017" transform="translate(0 0)">
			<ellipse id="Ellipse_7043" class="st0" cx="6" cy="27.9" rx="1.9" ry="1.9"/>
			<path id="Path_10517" class="st0" d="M12,38.4c-0.5-6.1-3.5-7.4-3.5-7.4c-1.9-1-4.1-0.8-5.8,0.5c-1.9,1.8-2.4,4.4-2.7,7
				c-0.2,1.3,1.9,1.3,2.1,0c0.1-1.5,0.5-3,1.2-4.4v1.5l0,7.2v5.7c0,0.6,0.4,1.1,1,1.1c0,0,0,0,0,0c0.6,0,1.1-0.5,1.1-1.1v-8.1h1v8.2
				c0,0.6,0.5,1,1.1,1c0.5,0,1-0.4,1-1v-5.7l0.1-7.2c0-0.7,0-1.3,0-1.7c0.7,1.4,1.2,3,1.3,4.5C10.1,39.7,12.1,39.7,12,38.4z"/>
		</g>
	</g>
	<g id="standing-frontal-man-silhouette-122" transform="translate(4153.146 1195.16)">
		<g id="Group_10018" transform="translate(0 0)">
			<ellipse id="Ellipse_7044" class="st0" cx="6" cy="27.9" rx="1.9" ry="1.9"/>
			<path id="Path_10518" class="st0" d="M12,38.4c-0.5-6.1-3.5-7.4-3.5-7.4c-1.9-1-4.1-0.8-5.8,0.5c-1.9,1.8-2.4,4.4-2.7,7
				c-0.2,1.3,1.9,1.3,2.1,0c0.1-1.5,0.5-3,1.2-4.4v1.5l0,7.2v5.7c0,0.6,0.4,1.1,1,1.1c0,0,0,0,0,0c0.6,0,1.1-0.5,1.1-1.1v-8.1h1v8.2
				c0,0.6,0.5,1,1.1,1c0.5,0,1-0.4,1-1v-5.7l0.1-7.2c0-0.7,0-1.3,0-1.7c0.7,1.4,1.2,3,1.3,4.5C10.1,39.7,12.1,39.7,12,38.4z"/>
		</g>
	</g>
	<g id="standing-frontal-man-silhouette-123" transform="translate(4153.146 1170.16)">
		<g id="Group_10019" transform="translate(0 0)">
			<ellipse id="Ellipse_7045" class="st0" cx="6" cy="27.9" rx="1.9" ry="1.9"/>
			<path id="Path_10519" class="st0" d="M12,38.4c-0.5-6.1-3.5-7.4-3.5-7.4c-1.9-1-4.1-0.8-5.8,0.5c-1.9,1.8-2.4,4.4-2.7,7
				c-0.2,1.3,1.9,1.3,2.1,0c0.1-1.5,0.5-3,1.2-4.4v1.5l0,7.2v5.7c0,0.6,0.4,1.1,1,1.1c0,0,0,0,0,0c0.6,0,1.1-0.5,1.1-1.1v-8.1h1v8.2
				c0,0.6,0.5,1,1.1,1c0.5,0,1-0.4,1-1v-5.7l0.1-7.2c0-0.7,0-1.3,0-1.7c0.7,1.4,1.2,3,1.3,4.5C10.1,39.7,12.1,39.7,12,38.4z"/>
		</g>
	</g>
	<g id="standing-frontal-man-silhouette-124" transform="translate(4153.146 1346.545)">
		<g id="Group_10020" transform="translate(0 0)">
			<ellipse id="Ellipse_7046" class="st0" cx="6" cy="27.9" rx="1.9" ry="1.9"/>
			<path id="Path_10520" class="st0" d="M12,38.4c-0.5-6.1-3.5-7.4-3.5-7.4c-1.9-1-4.1-0.8-5.8,0.5c-1.9,1.8-2.4,4.4-2.7,7
				c-0.2,1.3,1.9,1.3,2.1,0c0.1-1.5,0.5-3,1.2-4.4v1.5l0,7.2v5.7c0,0.6,0.4,1.1,1,1.1c0,0,0,0,0,0c0.6,0,1.1-0.5,1.1-1.1v-8.1h1v8.2
				c0,0.6,0.5,1,1.1,1c0.5,0,1-0.4,1-1v-5.7l0.1-7.2c0-0.7,0-1.3,0-1.7c0.7,1.4,1.2,3,1.3,4.5C10.1,39.7,12.1,39.7,12,38.4z"/>
		</g>
	</g>
	<g id="standing-frontal-man-silhouette-125" transform="translate(4153.146 1245.545)">
		<g id="Group_10021" transform="translate(0 0)">
			<ellipse id="Ellipse_7047" class="st0" cx="6" cy="27.9" rx="1.9" ry="1.9"/>
			<path id="Path_10521" class="st0" d="M12,38.4c-0.5-6.1-3.5-7.4-3.5-7.4c-1.9-1-4.1-0.8-5.8,0.5c-1.9,1.8-2.4,4.4-2.7,7
				c-0.2,1.3,1.9,1.3,2.1,0c0.1-1.5,0.5-3,1.2-4.4v1.5l0,7.2v5.7c0,0.6,0.4,1.1,1,1.1c0,0,0,0,0,0c0.6,0,1.1-0.5,1.1-1.1v-8.1h1v8.2
				c0,0.6,0.5,1,1.1,1c0.5,0,1-0.4,1-1v-5.7l0.1-7.2c0-0.7,0-1.3,0-1.7c0.7,1.4,1.2,3,1.3,4.5C10.1,39.7,12.1,39.7,12,38.4z"/>
		</g>
	</g>
	<g id="standing-frontal-man-silhouette-126" transform="translate(4152.754 1068.968)">
		<g id="Group_10022" transform="translate(0 0)">
			<ellipse id="Ellipse_7048" class="st0" cx="6" cy="27.9" rx="1.9" ry="1.9"/>
			<path id="Path_10522" class="st0" d="M12,38.4c-0.5-6.1-3.5-7.4-3.5-7.4c-1.9-1-4.1-0.8-5.8,0.5c-1.9,1.8-2.4,4.4-2.7,7
				c-0.2,1.3,1.9,1.3,2.1,0c0.1-1.5,0.5-3,1.2-4.4v1.5l0,7.2v5.7c0,0.6,0.4,1.1,1,1.1c0,0,0,0,0,0c0.6,0,1.1-0.5,1.1-1.1v-8.1h1v8.2
				c0,0.6,0.5,1,1.1,1c0.5,0,1-0.4,1-1v-5.7l0.1-7.2c0-0.7,0-1.3,0-1.7c0.7,1.4,1.2,3,1.3,4.5C10.1,39.7,12.1,39.7,12,38.4z"/>
		</g>
	</g>
	<g id="standing-frontal-man-silhouette-127" transform="translate(4152.754 1119.353)">
		<g id="Group_10023" transform="translate(0 0)">
			<ellipse id="Ellipse_7049" class="st0" cx="6" cy="27.9" rx="1.9" ry="1.9"/>
			<path id="Path_10523" class="st0" d="M12,38.4c-0.5-6.1-3.5-7.4-3.5-7.4c-1.9-1-4.1-0.8-5.8,0.5c-1.9,1.8-2.4,4.4-2.7,7
				c-0.2,1.3,1.9,1.3,2.1,0c0.1-1.5,0.5-3,1.2-4.4v1.5l0,7.2v5.7c0,0.6,0.4,1.1,1,1.1c0,0,0,0,0,0c0.6,0,1.1-0.5,1.1-1.1v-8.1h1v8.2
				c0,0.6,0.5,1,1.1,1c0.5,0,1-0.4,1-1v-5.7l0.1-7.2c0-0.7,0-1.3,0-1.7c0.7,1.4,1.2,3,1.3,4.5C10.1,39.7,12.1,39.7,12,38.4z"/>
		</g>
	</g>
	<g id="standing-frontal-man-silhouette-128" transform="translate(4152.754 1018.353)">
		<g id="Group_10024" transform="translate(0 0)">
			<ellipse id="Ellipse_7050" class="st0" cx="6" cy="27.9" rx="1.9" ry="1.9"/>
			<path id="Path_10524" class="st0" d="M12,38.4c-0.5-6.1-3.5-7.4-3.5-7.4c-1.9-1-4.1-0.8-5.8,0.5c-1.9,1.8-2.4,4.4-2.7,7
				c-0.2,1.3,1.9,1.3,2.1,0c0.1-1.5,0.5-3,1.2-4.4v1.5l0,7.2v5.7c0,0.6,0.4,1.1,1,1.1c0,0,0,0,0,0c0.6,0,1.1-0.5,1.1-1.1v-8.1h1v8.2
				c0,0.6,0.5,1,1.1,1c0.5,0,1-0.4,1-1v-5.7l0.1-7.2c0-0.7,0-1.3,0-1.7c0.7,1.4,1.2,3,1.3,4.5C10.1,39.7,12.1,39.7,12,38.4z"/>
		</g>
	</g>
	<g id="standing-frontal-man-silhouette-129" transform="translate(4152.754 1094.16)">
		<g id="Group_10025" transform="translate(0 0)">
			<ellipse id="Ellipse_7051" class="st0" cx="6" cy="27.9" rx="1.9" ry="1.9"/>
			<path id="Path_10525" class="st0" d="M12,38.4c-0.5-6.1-3.5-7.4-3.5-7.4c-1.9-1-4.1-0.8-5.8,0.5c-1.9,1.8-2.4,4.4-2.7,7
				c-0.2,1.3,1.9,1.3,2.1,0c0.1-1.5,0.5-3,1.2-4.4v1.5l0,7.2v5.7c0,0.6,0.4,1.1,1,1.1c0,0,0,0,0,0c0.6,0,1.1-0.5,1.1-1.1v-8.1h1v8.2
				c0,0.6,0.5,1,1.1,1c0.5,0,1-0.4,1-1v-5.7l0.1-7.2c0-0.7,0-1.3,0-1.7c0.7,1.4,1.2,3,1.3,4.5C10.1,39.7,12.1,39.7,12,38.4z"/>
		</g>
	</g>
	<g id="standing-frontal-man-silhouette-130" transform="translate(4152.754 993.16)">
		<g id="Group_10026" transform="translate(0 0)">
			<ellipse id="Ellipse_7052" class="st0" cx="6" cy="27.9" rx="1.9" ry="1.9"/>
			<path id="Path_10526" class="st0" d="M12,38.4c-0.5-6.1-3.5-7.4-3.5-7.4c-1.9-1-4.1-0.8-5.8,0.5c-1.9,1.8-2.4,4.4-2.7,7
				c-0.2,1.3,1.9,1.3,2.1,0c0.1-1.5,0.5-3,1.2-4.4v1.5l0,7.2v5.7c0,0.6,0.4,1.1,1,1.1c0,0,0,0,0,0c0.6,0,1.1-0.5,1.1-1.1v-8.1h1v8.2
				c0,0.6,0.5,1,1.1,1c0.5,0,1-0.4,1-1v-5.7l0.1-7.2c0-0.7,0-1.3,0-1.7c0.7,1.4,1.2,3,1.3,4.5C10.1,39.7,12.1,39.7,12,38.4z"/>
		</g>
	</g>
	<g id="standing-frontal-man-silhouette-131" transform="translate(4152.754 968.16)">
		<g id="Group_10027" transform="translate(0 0)">
			<ellipse id="Ellipse_7053" class="st0" cx="6" cy="27.9" rx="1.9" ry="1.9"/>
			<path id="Path_10527" class="st0" d="M12,38.4c-0.5-6.1-3.5-7.4-3.5-7.4c-1.9-1-4.1-0.8-5.8,0.5c-1.9,1.8-2.4,4.4-2.7,7
				c-0.2,1.3,1.9,1.3,2.1,0c0.1-1.5,0.5-3,1.2-4.4v1.5l0,7.2v5.7c0,0.6,0.4,1.1,1,1.1c0,0,0,0,0,0c0.6,0,1.1-0.5,1.1-1.1v-8.1h1v8.2
				c0,0.6,0.5,1,1.1,1c0.5,0,1-0.4,1-1v-5.7l0.1-7.2c0-0.7,0-1.3,0-1.7c0.7,1.4,1.2,3,1.3,4.5C10.1,39.7,12.1,39.7,12,38.4z"/>
		</g>
	</g>
	<g id="standing-frontal-man-silhouette-132" transform="translate(4152.754 1144.545)">
		<g id="Group_10028" transform="translate(0 0)">
			<ellipse id="Ellipse_7054" class="st0" cx="6" cy="27.9" rx="1.9" ry="1.9"/>
			<path id="Path_10528" class="st0" d="M12,38.4c-0.5-6.1-3.5-7.4-3.5-7.4c-1.9-1-4.1-0.8-5.8,0.5c-1.9,1.8-2.4,4.4-2.7,7
				c-0.2,1.3,1.9,1.3,2.1,0c0.1-1.5,0.5-3,1.2-4.4v1.5l0,7.2v5.7c0,0.6,0.4,1.1,1,1.1c0,0,0,0,0,0c0.6,0,1.1-0.5,1.1-1.1v-8.1h1v8.2
				c0,0.6,0.5,1,1.1,1c0.5,0,1-0.4,1-1v-5.7l0.1-7.2c0-0.7,0-1.3,0-1.7c0.7,1.4,1.2,3,1.3,4.5C10.1,39.7,12.1,39.7,12,38.4z"/>
		</g>
	</g>
	<g id="standing-frontal-man-silhouette-133" transform="translate(4152.754 1043.545)">
		<g id="Group_10029" transform="translate(0 0)">
			<ellipse id="Ellipse_7055" class="st0" cx="6" cy="27.9" rx="1.9" ry="1.9"/>
			<path id="Path_10529" class="st0" d="M12,38.4c-0.5-6.1-3.5-7.4-3.5-7.4c-1.9-1-4.1-0.8-5.8,0.5c-1.9,1.8-2.4,4.4-2.7,7
				c-0.2,1.3,1.9,1.3,2.1,0c0.1-1.5,0.5-3,1.2-4.4v1.5l0,7.2v5.7c0,0.6,0.4,1.1,1,1.1c0,0,0,0,0,0c0.6,0,1.1-0.5,1.1-1.1v-8.1h1v8.2
				c0,0.6,0.5,1,1.1,1c0.5,0,1-0.4,1-1v-5.7l0.1-7.2c0-0.7,0-1.3,0-1.7c0.7,1.4,1.2,3,1.3,4.5C10.1,39.7,12.1,39.7,12,38.4z"/>
		</g>
	</g>
	<g id="standing-frontal-man-silhouette-134" transform="translate(4207.949 1270.968)">
		<g id="Group_10030" transform="translate(0 0)">
			<ellipse id="Ellipse_7056" class="st0" cx="6" cy="27.9" rx="1.9" ry="1.9"/>
			<path id="Path_10530" class="st0" d="M12,38.4c-0.5-6.1-3.5-7.4-3.5-7.4c-1.9-1-4.1-0.8-5.8,0.5c-1.9,1.8-2.4,4.4-2.7,7
				c-0.2,1.3,1.9,1.3,2.1,0c0.1-1.5,0.5-3,1.2-4.4v1.5l0,7.2v5.7c0,0.6,0.4,1.1,1,1.1c0,0,0,0,0,0c0.6,0,1.1-0.5,1.1-1.1v-8.1h1v8.2
				c0,0.6,0.5,1,1.1,1c0.5,0,1-0.4,1-1v-5.7l0.1-7.2c0-0.7,0-1.3,0-1.7c0.7,1.4,1.2,3,1.3,4.5C10.1,39.7,12.1,39.7,12,38.4z"/>
		</g>
	</g>
	<g id="standing-frontal-man-silhouette-135" transform="translate(4207.949 1321.353)">
		<g id="Group_10031" transform="translate(0 0)">
			<ellipse id="Ellipse_7057" class="st0" cx="6" cy="27.9" rx="1.9" ry="1.9"/>
			<path id="Path_10531" class="st0" d="M12,38.4c-0.5-6.1-3.5-7.4-3.5-7.4c-1.9-1-4.1-0.8-5.8,0.5c-1.9,1.8-2.4,4.4-2.7,7
				c-0.2,1.3,1.9,1.3,2.1,0c0.1-1.5,0.5-3,1.2-4.4v1.5l0,7.2v5.7c0,0.6,0.4,1.1,1,1.1c0,0,0,0,0,0c0.6,0,1.1-0.5,1.1-1.1v-8.1h1v8.2
				c0,0.6,0.5,1,1.1,1c0.5,0,1-0.4,1-1v-5.7l0.1-7.2c0-0.7,0-1.3,0-1.7c0.7,1.4,1.2,3,1.3,4.5C10.1,39.7,12.1,39.7,12,38.4z"/>
		</g>
	</g>
	<g id="standing-frontal-man-silhouette-136" transform="translate(4207.949 1220.353)">
		<g id="Group_10032" transform="translate(0 0)">
			<ellipse id="Ellipse_7058" class="st0" cx="6" cy="27.9" rx="1.9" ry="1.9"/>
			<path id="Path_10532" class="st0" d="M12,38.4c-0.5-6.1-3.5-7.4-3.5-7.4c-1.9-1-4.1-0.8-5.8,0.5c-1.9,1.8-2.4,4.4-2.7,7
				c-0.2,1.3,1.9,1.3,2.1,0c0.1-1.5,0.5-3,1.2-4.4v1.5l0,7.2v5.7c0,0.6,0.4,1.1,1,1.1c0,0,0,0,0,0c0.6,0,1.1-0.5,1.1-1.1v-8.1h1v8.2
				c0,0.6,0.5,1,1.1,1c0.5,0,1-0.4,1-1v-5.7l0.1-7.2c0-0.7,0-1.3,0-1.7c0.7,1.4,1.2,3,1.3,4.5C10.1,39.7,12.1,39.7,12,38.4z"/>
		</g>
	</g>
	<g id="standing-frontal-man-silhouette-137" transform="translate(4207.949 1296.16)">
		<g id="Group_10033" transform="translate(0 0)">
			<ellipse id="Ellipse_7059" class="st0" cx="6" cy="27.9" rx="1.9" ry="1.9"/>
			<path id="Path_10533" class="st0" d="M12,38.4c-0.5-6.1-3.5-7.4-3.5-7.4c-1.9-1-4.1-0.8-5.8,0.5c-1.9,1.8-2.4,4.4-2.7,7
				c-0.2,1.3,1.9,1.3,2.1,0c0.1-1.5,0.5-3,1.2-4.4v1.5l0,7.2v5.7c0,0.6,0.4,1.1,1,1.1c0,0,0,0,0,0c0.6,0,1.1-0.5,1.1-1.1v-8.1h1v8.2
				c0,0.6,0.5,1,1.1,1c0.5,0,1-0.4,1-1v-5.7l0.1-7.2c0-0.7,0-1.3,0-1.7c0.7,1.4,1.2,3,1.3,4.5C10.1,39.7,12.1,39.7,12,38.4z"/>
		</g>
	</g>
	<g id="standing-frontal-man-silhouette-138" transform="translate(4207.949 1195.16)">
		<g id="Group_10034" transform="translate(0 0)">
			<ellipse id="Ellipse_7060" class="st0" cx="6" cy="27.9" rx="1.9" ry="1.9"/>
			<path id="Path_10534" class="st0" d="M12,38.4c-0.5-6.1-3.5-7.4-3.5-7.4c-1.9-1-4.1-0.8-5.8,0.5c-1.9,1.8-2.4,4.4-2.7,7
				c-0.2,1.3,1.9,1.3,2.1,0c0.1-1.5,0.5-3,1.2-4.4v1.5l0,7.2v5.7c0,0.6,0.4,1.1,1,1.1c0,0,0,0,0,0c0.6,0,1.1-0.5,1.1-1.1v-8.1h1v8.2
				c0,0.6,0.5,1,1.1,1c0.5,0,1-0.4,1-1v-5.7l0.1-7.2c0-0.7,0-1.3,0-1.7c0.7,1.4,1.2,3,1.3,4.5C10.1,39.7,12.1,39.7,12,38.4z"/>
		</g>
	</g>
	<g id="standing-frontal-man-silhouette-139" transform="translate(4207.949 1170.16)">
		<g id="Group_10035" transform="translate(0 0)">
			<ellipse id="Ellipse_7061" class="st0" cx="6" cy="27.9" rx="1.9" ry="1.9"/>
			<path id="Path_10535" class="st0" d="M12,38.4c-0.5-6.1-3.5-7.4-3.5-7.4c-1.9-1-4.1-0.8-5.8,0.5c-1.9,1.8-2.4,4.4-2.7,7
				c-0.2,1.3,1.9,1.3,2.1,0c0.1-1.5,0.5-3,1.2-4.4v1.5l0,7.2v5.7c0,0.6,0.4,1.1,1,1.1c0,0,0,0,0,0c0.6,0,1.1-0.5,1.1-1.1v-8.1h1v8.2
				c0,0.6,0.5,1,1.1,1c0.5,0,1-0.4,1-1v-5.7l0.1-7.2c0-0.7,0-1.3,0-1.7c0.7,1.4,1.2,3,1.3,4.5C10.1,39.7,12.1,39.7,12,38.4z"/>
		</g>
	</g>
	<g id="standing-frontal-man-silhouette-140" transform="translate(4207.949 1346.545)">
		<g id="Group_10036" transform="translate(0 0)">
			<ellipse id="Ellipse_7062" class="st0" cx="6" cy="27.9" rx="1.9" ry="1.9"/>
			<path id="Path_10536" class="st0" d="M12,38.4c-0.5-6.1-3.5-7.4-3.5-7.4c-1.9-1-4.1-0.8-5.8,0.5c-1.9,1.8-2.4,4.4-2.7,7
				c-0.2,1.3,1.9,1.3,2.1,0c0.1-1.5,0.5-3,1.2-4.4v1.5l0,7.2v5.7c0,0.6,0.4,1.1,1,1.1c0,0,0,0,0,0c0.6,0,1.1-0.5,1.1-1.1v-8.1h1v8.2
				c0,0.6,0.5,1,1.1,1c0.5,0,1-0.4,1-1v-5.7l0.1-7.2c0-0.7,0-1.3,0-1.7c0.7,1.4,1.2,3,1.3,4.5C10.1,39.7,12.1,39.7,12,38.4z"/>
		</g>
	</g>
	<g id="standing-frontal-man-silhouette-141" transform="translate(4207.949 1245.545)">
		<g id="Group_10037" transform="translate(0 0)">
			<ellipse id="Ellipse_7063" class="st0" cx="6" cy="27.9" rx="1.9" ry="1.9"/>
			<path id="Path_10537" class="st0" d="M12,38.4c-0.5-6.1-3.5-7.4-3.5-7.4c-1.9-1-4.1-0.8-5.8,0.5c-1.9,1.8-2.4,4.4-2.7,7
				c-0.2,1.3,1.9,1.3,2.1,0c0.1-1.5,0.5-3,1.2-4.4v1.5l0,7.2v5.7c0,0.6,0.4,1.1,1,1.1c0,0,0,0,0,0c0.6,0,1.1-0.5,1.1-1.1v-8.1h1v8.2
				c0,0.6,0.5,1,1.1,1c0.5,0,1-0.4,1-1v-5.7l0.1-7.2c0-0.7,0-1.3,0-1.7c0.7,1.4,1.2,3,1.3,4.5C10.1,39.7,12.1,39.7,12,38.4z"/>
		</g>
	</g>
	<g id="standing-frontal-man-silhouette-142" transform="translate(4207.558 1068.968)">
		<g id="Group_10038" transform="translate(0 0)">
			<ellipse id="Ellipse_7064" class="st0" cx="6" cy="27.9" rx="1.9" ry="1.9"/>
			<path id="Path_10538" class="st0" d="M12,38.4c-0.5-6.1-3.5-7.4-3.5-7.4c-1.9-1-4.1-0.8-5.8,0.5c-1.9,1.8-2.4,4.4-2.7,7
				c-0.2,1.3,1.9,1.3,2.1,0c0.1-1.5,0.5-3,1.2-4.4v1.5l0,7.2v5.7c0,0.6,0.4,1.1,1,1.1c0,0,0,0,0,0c0.6,0,1.1-0.5,1.1-1.1v-8.1h1v8.2
				c0,0.6,0.5,1,1.1,1c0.5,0,1-0.4,1-1v-5.7l0.1-7.2c0-0.7,0-1.3,0-1.7c0.7,1.4,1.2,3,1.3,4.5C10.1,39.7,12.1,39.7,12,38.4z"/>
		</g>
	</g>
	<g id="standing-frontal-man-silhouette-143" transform="translate(4207.558 1119.353)">
		<g id="Group_10039" transform="translate(0 0)">
			<ellipse id="Ellipse_7065" class="st0" cx="6" cy="27.9" rx="1.9" ry="1.9"/>
			<path id="Path_10539" class="st0" d="M12,38.4c-0.5-6.1-3.5-7.4-3.5-7.4c-1.9-1-4.1-0.8-5.8,0.5c-1.9,1.8-2.4,4.4-2.7,7
				c-0.2,1.3,1.9,1.3,2.1,0c0.1-1.5,0.5-3,1.2-4.4v1.5l0,7.2v5.7c0,0.6,0.4,1.1,1,1.1c0,0,0,0,0,0c0.6,0,1.1-0.5,1.1-1.1v-8.1h1v8.2
				c0,0.6,0.5,1,1.1,1c0.5,0,1-0.4,1-1v-5.7l0.1-7.2c0-0.7,0-1.3,0-1.7c0.7,1.4,1.2,3,1.3,4.5C10.1,39.7,12.1,39.7,12,38.4z"/>
		</g>
	</g>
	<g id="standing-frontal-man-silhouette-144" transform="translate(4207.558 1018.353)">
		<g id="Group_10040" transform="translate(0 0)">
			<ellipse id="Ellipse_7066" class="st0" cx="6" cy="27.9" rx="1.9" ry="1.9"/>
			<path id="Path_10540" class="st0" d="M12,38.4c-0.5-6.1-3.5-7.4-3.5-7.4c-1.9-1-4.1-0.8-5.8,0.5c-1.9,1.8-2.4,4.4-2.7,7
				c-0.2,1.3,1.9,1.3,2.1,0c0.1-1.5,0.5-3,1.2-4.4v1.5l0,7.2v5.7c0,0.6,0.4,1.1,1,1.1c0,0,0,0,0,0c0.6,0,1.1-0.5,1.1-1.1v-8.1h1v8.2
				c0,0.6,0.5,1,1.1,1c0.5,0,1-0.4,1-1v-5.7l0.1-7.2c0-0.7,0-1.3,0-1.7c0.7,1.4,1.2,3,1.3,4.5C10.1,39.7,12.1,39.7,12,38.4z"/>
		</g>
	</g>
	<g id="standing-frontal-man-silhouette-145" transform="translate(4207.558 1094.16)">
		<g id="Group_10041" transform="translate(0 0)">
			<ellipse id="Ellipse_7067" class="st0" cx="6" cy="27.9" rx="1.9" ry="1.9"/>
			<path id="Path_10541" class="st0" d="M12,38.4c-0.5-6.1-3.5-7.4-3.5-7.4c-1.9-1-4.1-0.8-5.8,0.5c-1.9,1.8-2.4,4.4-2.7,7
				c-0.2,1.3,1.9,1.3,2.1,0c0.1-1.5,0.5-3,1.2-4.4v1.5l0,7.2v5.7c0,0.6,0.4,1.1,1,1.1c0,0,0,0,0,0c0.6,0,1.1-0.5,1.1-1.1v-8.1h1v8.2
				c0,0.6,0.5,1,1.1,1c0.5,0,1-0.4,1-1v-5.7l0.1-7.2c0-0.7,0-1.3,0-1.7c0.7,1.4,1.2,3,1.3,4.5C10.1,39.7,12.1,39.7,12,38.4z"/>
		</g>
	</g>
	<g id="standing-frontal-man-silhouette-146" transform="translate(4207.558 993.16)">
		<g id="Group_10042" transform="translate(0 0)">
			<ellipse id="Ellipse_7068" class="st0" cx="6" cy="27.9" rx="1.9" ry="1.9"/>
			<path id="Path_10542" class="st0" d="M12,38.4c-0.5-6.1-3.5-7.4-3.5-7.4c-1.9-1-4.1-0.8-5.8,0.5c-1.9,1.8-2.4,4.4-2.7,7
				c-0.2,1.3,1.9,1.3,2.1,0c0.1-1.5,0.5-3,1.2-4.4v1.5l0,7.2v5.7c0,0.6,0.4,1.1,1,1.1c0,0,0,0,0,0c0.6,0,1.1-0.5,1.1-1.1v-8.1h1v8.2
				c0,0.6,0.5,1,1.1,1c0.5,0,1-0.4,1-1v-5.7l0.1-7.2c0-0.7,0-1.3,0-1.7c0.7,1.4,1.2,3,1.3,4.5C10.1,39.7,12.1,39.7,12,38.4z"/>
		</g>
	</g>
	<g id="standing-frontal-man-silhouette-147" transform="translate(4207.558 968.16)">
		<g id="Group_10043" transform="translate(0 0)">
			<ellipse id="Ellipse_7069" class="st0" cx="6" cy="27.9" rx="1.9" ry="1.9"/>
			<path id="Path_10543" class="st0" d="M12,38.4c-0.5-6.1-3.5-7.4-3.5-7.4c-1.9-1-4.1-0.8-5.8,0.5c-1.9,1.8-2.4,4.4-2.7,7
				c-0.2,1.3,1.9,1.3,2.1,0c0.1-1.5,0.5-3,1.2-4.4v1.5l0,7.2v5.7c0,0.6,0.4,1.1,1,1.1c0,0,0,0,0,0c0.6,0,1.1-0.5,1.1-1.1v-8.1h1v8.2
				c0,0.6,0.5,1,1.1,1c0.5,0,1-0.4,1-1v-5.7l0.1-7.2c0-0.7,0-1.3,0-1.7c0.7,1.4,1.2,3,1.3,4.5C10.1,39.7,12.1,39.7,12,38.4z"/>
		</g>
	</g>
	<g id="standing-frontal-man-silhouette-148" transform="translate(4207.558 1144.545)">
		<g id="Group_10044" transform="translate(0 0)">
			<ellipse id="Ellipse_7070" class="st0" cx="6" cy="27.9" rx="1.9" ry="1.9"/>
			<path id="Path_10544" class="st0" d="M12,38.4c-0.5-6.1-3.5-7.4-3.5-7.4c-1.9-1-4.1-0.8-5.8,0.5c-1.9,1.8-2.4,4.4-2.7,7
				c-0.2,1.3,1.9,1.3,2.1,0c0.1-1.5,0.5-3,1.2-4.4v1.5l0,7.2v5.7c0,0.6,0.4,1.1,1,1.1c0,0,0,0,0,0c0.6,0,1.1-0.5,1.1-1.1v-8.1h1v8.2
				c0,0.6,0.5,1,1.1,1c0.5,0,1-0.4,1-1v-5.7l0.1-7.2c0-0.7,0-1.3,0-1.7c0.7,1.4,1.2,3,1.3,4.5C10.1,39.7,12.1,39.7,12,38.4z"/>
		</g>
	</g>
	<g id="standing-frontal-man-silhouette-149" transform="translate(4207.558 1043.545)">
		<g id="Group_10045" transform="translate(0 0)">
			<ellipse id="Ellipse_7071" class="st0" cx="6" cy="27.9" rx="1.9" ry="1.9"/>
			<path id="Path_10545" class="st0" d="M12,38.4c-0.5-6.1-3.5-7.4-3.5-7.4c-1.9-1-4.1-0.8-5.8,0.5c-1.9,1.8-2.4,4.4-2.7,7
				c-0.2,1.3,1.9,1.3,2.1,0c0.1-1.5,0.5-3,1.2-4.4v1.5l0,7.2v5.7c0,0.6,0.4,1.1,1,1.1c0,0,0,0,0,0c0.6,0,1.1-0.5,1.1-1.1v-8.1h1v8.2
				c0,0.6,0.5,1,1.1,1c0.5,0,1-0.4,1-1v-5.7l0.1-7.2c0-0.7,0-1.3,0-1.7c0.7,1.4,1.2,3,1.3,4.5C10.1,39.7,12.1,39.7,12,38.4z"/>
		</g>
	</g>
	<g id="standing-frontal-man-silhouette-150" transform="translate(4152.361 867.968)">
		<g id="Group_10046" transform="translate(0 0)">
			<ellipse id="Ellipse_7072" class="st0" cx="6" cy="27.9" rx="1.9" ry="1.9"/>
			<path id="Path_10546" class="st0" d="M12,38.4c-0.5-6.1-3.5-7.4-3.5-7.4c-1.9-1-4.1-0.8-5.8,0.5c-1.9,1.8-2.4,4.4-2.7,7
				c-0.2,1.3,1.9,1.3,2.1,0c0.1-1.5,0.5-3,1.2-4.4v1.5l0,7.2v5.7c0,0.6,0.4,1.1,1,1.1c0,0,0,0,0,0c0.6,0,1.1-0.5,1.1-1.1v-8.1h1v8.2
				c0,0.6,0.5,1,1.1,1c0.5,0,1-0.4,1-1v-5.7l0.1-7.2c0-0.7,0-1.3,0-1.7c0.7,1.4,1.2,3,1.3,4.5C10.1,39.7,12.1,39.7,12,38.4z"/>
		</g>
	</g>
	<g id="standing-frontal-man-silhouette-151" transform="translate(4152.361 918.353)">
		<g id="Group_10047" transform="translate(0 0)">
			<ellipse id="Ellipse_7073" class="st0" cx="6" cy="27.9" rx="1.9" ry="1.9"/>
			<path id="Path_10547" class="st0" d="M12,38.4c-0.5-6.1-3.5-7.4-3.5-7.4c-1.9-1-4.1-0.8-5.8,0.5c-1.9,1.8-2.4,4.4-2.7,7
				c-0.2,1.3,1.9,1.3,2.1,0c0.1-1.5,0.5-3,1.2-4.4v1.5l0,7.2v5.7c0,0.6,0.4,1.1,1,1.1c0,0,0,0,0,0c0.6,0,1.1-0.5,1.1-1.1v-8.1h1v8.2
				c0,0.6,0.5,1,1.1,1c0.5,0,1-0.4,1-1v-5.7l0.1-7.2c0-0.7,0-1.3,0-1.7c0.7,1.4,1.2,3,1.3,4.5C10.1,39.7,12.1,39.7,12,38.4z"/>
		</g>
	</g>
	<g id="standing-frontal-man-silhouette-152" transform="translate(4207.361 918.353)">
		<g id="Group_10048" transform="translate(0 0)">
			<ellipse id="Ellipse_7074" class="st0" cx="6" cy="27.9" rx="1.9" ry="1.9"/>
			<path id="Path_10548" class="st0" d="M12,38.4c-0.5-6.1-3.5-7.4-3.5-7.4c-1.9-1-4.1-0.8-5.8,0.5c-1.9,1.8-2.4,4.4-2.7,7
				c-0.2,1.3,1.9,1.3,2.1,0c0.1-1.5,0.5-3,1.2-4.4v1.5l0,7.2v5.7c0,0.6,0.4,1.1,1,1.1c0,0,0,0,0,0c0.6,0,1.1-0.5,1.1-1.1v-8.1h1v8.2
				c0,0.6,0.5,1,1.1,1c0.5,0,1-0.4,1-1v-5.7l0.1-7.2c0-0.7,0-1.3,0-1.7c0.7,1.4,1.2,3,1.3,4.5C10.1,39.7,12.1,39.7,12,38.4z"/>
		</g>
	</g>
	<g id="standing-frontal-man-silhouette-153" transform="translate(4152.361 893.16)">
		<g id="Group_10049" transform="translate(0 0)">
			<ellipse id="Ellipse_7075" class="st0" cx="6" cy="27.9" rx="1.9" ry="1.9"/>
			<path id="Path_10549" class="st0" d="M12,38.4c-0.5-6.1-3.5-7.4-3.5-7.4c-1.9-1-4.1-0.8-5.8,0.5c-1.9,1.8-2.4,4.4-2.7,7
				c-0.2,1.3,1.9,1.3,2.1,0c0.1-1.5,0.5-3,1.2-4.4v1.5l0,7.2v5.7c0,0.6,0.4,1.1,1,1.1c0,0,0,0,0,0c0.6,0,1.1-0.5,1.1-1.1v-8.1h1v8.2
				c0,0.6,0.5,1,1.1,1c0.5,0,1-0.4,1-1v-5.7l0.1-7.2c0-0.7,0-1.3,0-1.7c0.7,1.4,1.2,3,1.3,4.5C10.1,39.7,12.1,39.7,12,38.4z"/>
		</g>
	</g>
	<g id="standing-frontal-man-silhouette-154" transform="translate(4207.361 893.16)">
		<g id="Group_10050" transform="translate(0 0)">
			<ellipse id="Ellipse_7076" class="st0" cx="6" cy="27.9" rx="1.9" ry="1.9"/>
			<path id="Path_10550" class="st0" d="M12,38.4c-0.5-6.1-3.5-7.4-3.5-7.4c-1.9-1-4.1-0.8-5.8,0.5c-1.9,1.8-2.4,4.4-2.7,7
				c-0.2,1.3,1.9,1.3,2.1,0c0.1-1.5,0.5-3,1.2-4.4v1.5l0,7.2v5.7c0,0.6,0.4,1.1,1,1.1c0,0,0,0,0,0c0.6,0,1.1-0.5,1.1-1.1v-8.1h1v8.2
				c0,0.6,0.5,1,1.1,1c0.5,0,1-0.4,1-1v-5.7l0.1-7.2c0-0.7,0-1.3,0-1.7c0.7,1.4,1.2,3,1.3,4.5C10.1,39.7,12.1,39.7,12,38.4z"/>
		</g>
	</g>
	<g id="standing-frontal-man-silhouette-155" transform="translate(4152.361 943.545)">
		<g id="Group_10051" transform="translate(0 0)">
			<ellipse id="Ellipse_7077" class="st0" cx="6" cy="27.9" rx="1.9" ry="1.9"/>
			<path id="Path_10551" class="st0" d="M12,38.4c-0.5-6.1-3.5-7.4-3.5-7.4c-1.9-1-4.1-0.8-5.8,0.5c-1.9,1.8-2.4,4.4-2.7,7
				c-0.2,1.3,1.9,1.3,2.1,0c0.1-1.5,0.5-3,1.2-4.4v1.5l0,7.2v5.7c0,0.6,0.4,1.1,1,1.1c0,0,0,0,0,0c0.6,0,1.1-0.5,1.1-1.1v-8.1h1v8.2
				c0,0.6,0.5,1,1.1,1c0.5,0,1-0.4,1-1v-5.7l0.1-7.2c0-0.7,0-1.3,0-1.7c0.7,1.4,1.2,3,1.3,4.5C10.1,39.7,12.1,39.7,12,38.4z"/>
		</g>
	</g>
	<g id="standing-frontal-man-silhouette-156" transform="translate(4207.361 943.545)">
		<g id="Group_10052" transform="translate(0 0)">
			<ellipse id="Ellipse_7078" class="st0" cx="6" cy="27.9" rx="1.9" ry="1.9"/>
			<path id="Path_10552" class="st0" d="M12,38.4c-0.5-6.1-3.5-7.4-3.5-7.4c-1.9-1-4.1-0.8-5.8,0.5c-1.9,1.8-2.4,4.4-2.7,7
				c-0.2,1.3,1.9,1.3,2.1,0c0.1-1.5,0.5-3,1.2-4.4v1.5l0,7.2v5.7c0,0.6,0.4,1.1,1,1.1c0,0,0,0,0,0c0.6,0,1.1-0.5,1.1-1.1v-8.1h1v8.2
				c0,0.6,0.5,1,1.1,1c0.5,0,1-0.4,1-1v-5.7l0.1-7.2c0-0.7,0-1.3,0-1.7c0.7,1.4,1.2,3,1.3,4.5C10.1,39.7,12.1,39.7,12,38.4z"/>
		</g>
	</g>
</g>
</svg>
