<svg id="Layer_1" data-name="Layer 1" xmlns="http://www.w3.org/2000/svg" viewBox="0 0 174.36 123.91"><defs><style>.cls-1{fill:#fff;}</style></defs><g id="Group_49" data-name="Group 49"><circle id="Ellipse_168" data-name="Ellipse 168" class="cls-1" cx="120.09" cy="36.53" r="15.78"/><path id="Path_369" data-name="Path 369" class="cls-1" d="M216.36,439.06l6.06-6.05a11.28,11.28,0,0,1,16,0l.92.92a11.19,11.19,0,0,0,15.6,0l.92-.92a11.29,11.29,0,0,1,16,0l.92.92a11.19,11.19,0,0,0,15.6,0l.91-.92a11.29,11.29,0,0,1,16,0l.92.92a11.19,11.19,0,0,0,15.6,0l.92-.92a11.29,11.29,0,0,1,16,0l.91.92a11.19,11.19,0,0,0,15.6,0L356,433a11.29,11.29,0,0,1,16,0l6.06,6.05a3.54,3.54,0,0,0,5,.13.8.8,0,0,0,.13-.13,3.76,3.76,0,0,0,0-5.32l-6.06-6.06a18.63,18.63,0,0,0-26.32-.11l-.11.11-.92.92a3.34,3.34,0,0,1-4.71.25,1.88,1.88,0,0,1-.24-.25l-.92-.92a18.45,18.45,0,0,0-17.8-4.77c-3.3-3.12-19.09-21.47-19.09-21.47-7.71-9-11-16.15-11.2-18.54,1.47-2.75,9.54-7.52,17.25-10.28A6.73,6.73,0,0,0,308.49,360c-4.95,1.83-21.47,8.26-25.32,18.17-2.94,7.34,3.12,18,9.17,26.06a253.43,253.43,0,0,1-20,20,18.45,18.45,0,0,0-21.84,3.3l-.92.92a3.36,3.36,0,0,1-4.72.24l-.24-.24-.92-.92a18.61,18.61,0,0,0-26.32-.11l-.11.11-6.05,6.06a3.76,3.76,0,0,0,0,5.32,3.41,3.41,0,0,0,4.79.51A3.61,3.61,0,0,0,216.36,439.06Z" transform="translate(-210.11 -359.57)"/><path id="Path_370" data-name="Path 370" class="cls-1" d="M377.14,449.34a18.61,18.61,0,0,0-26.32-.11l-.11.11-.92.92a3.33,3.33,0,0,1-4.71.24,1.88,1.88,0,0,1-.25-.24l-.91-.92a18.61,18.61,0,0,0-26.32-.11l-.11.11-.92.92a3.34,3.34,0,0,1-4.72.24,2.72,2.72,0,0,1-.24-.24l-.92-.92a18.61,18.61,0,0,0-26.32-.11.57.57,0,0,1-.11.11l-.91.92a3.34,3.34,0,0,1-4.72.24l-.24-.24-1.47-.92a18.61,18.61,0,0,0-26.32-.11l-.11.11-.92.92a3.33,3.33,0,0,1-4.71.24,1.81,1.81,0,0,1-.24-.24l-.92-.92a18.61,18.61,0,0,0-26.32-.11l-.11.11-6.05,6.06a3.76,3.76,0,0,0,5.32,5.32l5.88-6.06a11.3,11.3,0,0,1,16,0l.92.92a11.19,11.19,0,0,0,15.6,0l.92-.92a11.31,11.31,0,0,1,16,0l.92.92a11.19,11.19,0,0,0,15.6,0l.91-.92a11.31,11.31,0,0,1,16,0l.92.92a11.19,11.19,0,0,0,15.6,0l.92-.92a11.31,11.31,0,0,1,16,0l.91.92a11.19,11.19,0,0,0,15.6,0l.74-.92a11.31,11.31,0,0,1,16,0l6.05,6.06a3.54,3.54,0,0,0,5,.12l.12-.12a3.76,3.76,0,0,0,0-5.32Z" transform="translate(-210.11 -359.57)"/><path id="Path_371" data-name="Path 371" class="cls-1" d="M377.14,471a18.61,18.61,0,0,0-26.32-.11l-.11.11-.92.92a3.33,3.33,0,0,1-4.71.24l-.25-.24-.91-.92a18.61,18.61,0,0,0-26.32-.11,1.14,1.14,0,0,0-.11.11l-.92.92a3.34,3.34,0,0,1-4.72.24l-.24-.24-.92-.92a18.61,18.61,0,0,0-26.32-.11l-.11.11-.91.92a3.34,3.34,0,0,1-4.72.24l-.24-.24-1.47-.92a18.61,18.61,0,0,0-26.32-.11l-.11.11-.92.92a3.33,3.33,0,0,1-4.71.24l-.24-.24-.92-.92a18.61,18.61,0,0,0-26.32-.11l-.11.11-6.05,6.06a3.76,3.76,0,0,0,5.32,5.32l6.06-6.06a11.3,11.3,0,0,1,16,0l.92.92a11.19,11.19,0,0,0,15.6,0l.92-.92a11.31,11.31,0,0,1,16,0l.92.92a11.19,11.19,0,0,0,15.6,0l.91-.92a11.31,11.31,0,0,1,16,0l.92.92a11.19,11.19,0,0,0,15.6,0l.92-.92a11.31,11.31,0,0,1,16,0l.91.92a11.19,11.19,0,0,0,15.6,0l.92-.92a11.31,11.31,0,0,1,16,0l6.06,6.06a3.54,3.54,0,0,0,5,.12l.13-.12a3.76,3.76,0,0,0,0-5.32Z" transform="translate(-210.11 -359.57)"/></g></svg>