<?xml version="1.0" encoding="utf-8"?>
<!-- Generator: Adobe Illustrator 25.1.0, SVG Export Plug-In . SVG Version: 6.00 Build 0)  -->
<svg version="1.1" xmlns="http://www.w3.org/2000/svg" xmlns:xlink="http://www.w3.org/1999/xlink" x="0px" y="0px"
	 viewBox="0 0 157.9 193.8" style="enable-background:new 0 0 157.9 193.8;" xml:space="preserve">
<style type="text/css">
	.st0{display:none;}
	.st1{display:inline;}
	.st2{fill:#FFFFFF;}
	.st3{display:inline;fill:#FFFFFF;}
</style>
<g id="Layer_1" class="st0">
	<g id="Group_51" class="st1">
		<path id="Path_373" class="st2" d="M156.9,59.7l-3.5-2.6c-1-0.8-2.5-0.5-3.3,0.5c0,0,0,0,0,0l0,0l-2.9,4.2l-3.9-2.9
			c1.1-3.2-0.1-6.6-2.9-8.4c-2.6-1.8-6-1.7-8.5,0.2l-2.9-2.2l2.9-4.2c0.8-1,0.5-2.5-0.5-3.3c0,0,0,0,0,0l0,0l-3.5-2.6
			c-1-0.8-2.5-0.5-3.3,0.5l0,0l-8.3,11.4c-0.8,1-0.5,2.5,0.5,3.3l0,0l3.5,2.6c1,0.8,2.5,0.5,3.3-0.5c0,0,0,0,0,0l0,0l2.8-3.9l2.8,2
			c-5,7.2-10.6,15.2-13.8,18.9c-1.5-1.1-3.5-2.6-5-3.7c-5.9-4.6-12.7-9.9-19.8-9.9H70.5c-7.1,0-13.9,5.3-19.8,9.9
			c-1.5,1.1-3.5,2.8-5,3.7c-3.1-3.9-8.8-11.8-13.8-18.9l2.8-2l2.8,3.9c0.7,1.1,2.2,1.3,3.3,0.6l0,0l3.5-2.6c1.1-0.7,1.3-2.2,0.6-3.3
			l0,0l-8.3-11.2c-0.7-1.1-2.2-1.3-3.3-0.6c0,0,0,0,0,0l0,0l-3.5,2.6c-1.1,0.7-1.3,2.2-0.6,3.3c0,0,0,0,0,0l0,0l2.9,4.2l-2.9,2
			c-2.5-1.9-5.9-2-8.4-0.2c-2.7,1.9-3.9,5.3-2.9,8.4l-3.9,2.9L11,57.6c-0.7-1.1-2.2-1.3-3.3-0.6c0,0,0,0,0,0l0,0l-3.5,2.6
			c-1.1,0.7-1.3,2.2-0.6,3.3c0,0,0,0,0,0l0,0l8.3,11.4c0.7,1.1,2.2,1.3,3.3,0.6l0,0l3.5-2.6c1.1-0.7,1.3-2.2,0.6-3.3c0,0,0,0,0,0
			l0,0l-2.9-3.9l3.5-2.6c5.7,8.5,14.7,21.3,18.7,24.2c1.7,1.2,3.7,1.9,5.8,1.9c5.1,0,10.5-4,15.4-7.9c0.9-0.7,2.2-1.6,3.5-2.8
			l0.9,38.9l-8.3,66.8c-0.4,4.8,3.1,9,7.9,9.4c4.3,0.4,8.2-2.5,9.2-6.7c0-0.2,0-0.3,0.1-0.5l7.5-60.8l7.5,60.8
			c0.5,4.3,4.3,7.6,8.6,7.5h1.1c4.8-0.6,8.1-5,7.5-9.7L97.1,117l0.7-38.7c1.3,0.9,2.6,2,3.5,2.8c4.8,3.7,10.1,7.9,15.4,7.9
			c2,0,4-0.6,5.7-1.8c4-2.9,13-15.6,18.7-24.2l3.5,2.6l-2.8,3.9c-0.8,1-0.5,2.5,0.5,3.3c0,0,0,0,0,0l0,0l3.5,2.6
			c1,0.8,2.5,0.5,3.3-0.5l0,0l8.3-11.4C158.3,62.1,158,60.5,156.9,59.7z"/>
		<circle id="Ellipse_171" class="st2" cx="80.6" cy="36.6" r="17.4"/>
	</g>
</g>
<g id="Laag_2">
	<g>
		<g id="Group_51_1_">
			<path id="Path_373_4_" class="st2" d="M63.1,72.4l0.8,44.6l-8.3,66.8c-0.4,4.8,3.1,9,7.9,9.4c4.3,0.4,8.2-2.5,9.2-6.7
				c0-0.2,0-0.3,0.1-0.5l7.5-60.8l7.5,60.8c0.5,4.3,4.3,7.6,8.6,7.5h1.1c4.8-0.6,8.1-5,7.5-9.7l-8.3-66.8l0.7-38.7
				c1.3,0.9,2.6,2,3.5,2.8c4.8,3.7,10.1,7.9,15.4,7.9c2,0,4-0.6,5.7-1.8c4-2.9,13-15.6,18.7-24.2l3.5,2.6l-2.8,3.9
				c-0.8,1-0.5,2.5,0.5,3.3l0,0l0,0l3.5,2.6c1,0.8,2.5,0.5,3.3-0.5l0,0l8.3-11.4c0.8-1.1,0.6-2.7-0.5-3.5l-3.5-2.6
				c-1-0.8-2.5-0.5-3.3,0.5l0,0l0,0l-2.9,4.2l-3.9-2.9c1.1-3.2-0.1-6.6-2.9-8.4c-2.6-1.8-6-1.7-8.5,0.2l-2.9-2.2l2.9-4.2
				c0.8-1,0.5-2.5-0.5-3.3l0,0l0,0l-3.5-2.6c-1-0.8-2.5-0.5-3.3,0.5l0,0l-8.3,11.4c-0.8,1-0.5,2.5,0.5,3.3l0,0l3.5,2.6
				c1,0.8,2.5,0.5,3.3-0.5l0,0l0,0l2.8-3.9l2.8,2c-5,7.2-10.6,15.2-13.8,18.9c-1.5-1.1-3.5-2.6-5-3.7c-5.9-4.6-12.7-9.9-19.8-9.9H70
				"/>
			<circle id="Ellipse_171_1_" class="st2" cx="80.3" cy="36.7" r="17.4"/>
		</g>
		<path id="Path_373_3_" class="st2" d="M73.2,60.4c-1.5-1.9-18.2-3.2-27.5-13.1c-9.9-10.5-12.4-18-13.1-18.8
			c-1.3-1.7-0.9-1.5-2.8-3.1s-5.9-2-8.4-0.2c-2.7,1.9-3.9,5.3-2.9,8.4l2,3.7c2.8,4.2,6,12.2,16.5,22.7
			c10.8,10.7,28.9,12.4,30.9,13.9L73.2,60.4z"/>
		<path id="Path_373_1_" class="st2" d="M32.4,27.5l2.8-2l2.8,3.9c0.7,1.1,2.2,1.3,3.3,0.6l0,0l3.5-2.6c1.1-0.7,1.3-2.2,0.6-3.3l0,0
			l-8.3-11.2c-0.7-1.1-2.2-1.3-3.3-0.6l0,0l0,0l-3.5,2.6c-1.1,0.7-1.3,2.2-0.6,3.3l0,0l0,0l2.9,4.2l-2.9,2l-11.4,8.3l-3.9,2.9
			l-2.9-4.2c-0.7-1.1-2.2-1.3-3.3-0.6l0,0l0,0l-3.5,2.6c-1.1,0.7-1.3,2.2-0.6,3.3l0,0l0,0l8.3,11.4c0.7,1.1,2.2,1.3,3.3,0.6l0,0
			l3.5-2.6c1.1-0.7,1.3-2.2,0.6-3.3l0,0l0,0l-2.9-3.9l3.5-2.6L32.4,27.5z"/>
	</g>
</g>
<g id="Laag_3" class="st0">
	<g id="Group_51_3_" class="st1">
		<path id="Path_373_9_" class="st2" d="M63.1,72.4l0.8,44.6l-8.3,66.8c-0.4,4.8,3.1,9,7.9,9.4c4.3,0.4,8.2-2.5,9.2-6.7
			c0-0.2,0-0.3,0.1-0.5l7.5-60.8l7.5,60.8c0.5,4.3,4.3,7.6,8.6,7.5h1.1c4.8-0.6,8.1-5,7.5-9.7l-8.3-66.8l0.7-38.7
			c1.3,0.9,2.6,2,3.5,2.8c4.8,3.7,10.1,7.9,15.4,7.9c2,0,4-0.6,5.7-1.8c4-2.9,13-15.6,18.7-24.2l3.5,2.6l-2.8,3.9
			c-0.8,1-0.5,2.5,0.5,3.3l0,0l0,0l3.5,2.6c1,0.8,2.5,0.5,3.3-0.5l0,0l8.3-11.4c0.8-1.1,0.6-2.7-0.5-3.5l-3.5-2.6
			c-1-0.8-2.5-0.5-3.3,0.5l0,0l0,0l-2.9,4.2l-3.9-2.9c1.1-3.2-0.1-6.6-2.9-8.4c-2.6-1.8-6-1.7-8.5,0.2l-2.9-2.2l2.9-4.2
			c0.8-1,0.5-2.5-0.5-3.3l0,0l0,0l-3.5-2.6c-1-0.8-2.5-0.5-3.3,0.5l0,0l-8.3,11.4c-0.8,1-0.5,2.5,0.5,3.3l0,0l3.5,2.6
			c1,0.8,2.5,0.5,3.3-0.5l0,0l0,0l2.8-3.9l2.8,2c-5,7.2-10.6,15.2-13.8,18.9c-1.5-1.1-3.5-2.6-5-3.7c-5.9-4.6-12.7-9.9-19.8-9.9H70"
			/>
		<circle id="Ellipse_171_3_" class="st2" cx="80.3" cy="36.7" r="17.4"/>
	</g>
	<g id="Group_51_2_">
		<path id="Path_373_7_" class="st3" d="M288,74.7l-1.1,44.2l-8.3,66.8c-0.4,4.8,3.1,9,7.9,9.4c4.3,0.4,8.2-2.5,9.2-6.7
			c0-0.2,0-0.3,0.1-0.5l7.5-60.8l7.5,60.8c0.5,4.3,4.3,7.6,8.6,7.5h1.1c4.8-0.6,8.1-5,7.5-9.7l-8.3-66.8l0.7-38.7
			c1.3,0.9,2.6,2,3.5,2.8c4.8,3.7,10.1,7.9,15.4,7.9c2,0,4-0.6,5.7-1.8c4-2.9,13-15.6,18.7-24.2l3.5,2.6l-2.8,3.9
			c-0.8,1-0.5,2.5,0.5,3.3l0,0l0,0l3.5,2.6c1,0.8,2.5,0.5,3.3-0.5l0,0l8.3-11.4c0.8-1.1,0.6-2.7-0.5-3.5l-3.5-2.6
			c-1-0.8-2.5-0.5-3.3,0.5l0,0l0,0l-2.9,4.2l-3.9-2.9c1.1-3.2-0.1-6.6-2.9-8.4c-2.6-1.8-6-1.7-8.5,0.2l-2.9-2.2l2.9-4.2
			c0.8-1,0.5-2.5-0.5-3.3l0,0l0,0l-3.5-2.6c-1-0.8-2.5-0.5-3.3,0.5l0,0l-8.3,11.4c-0.8,1-0.5,2.5,0.5,3.3l0,0l3.5,2.6
			c1,0.8,2.5,0.5,3.3-0.5l0,0l0,0L349,54l2.8,2c-5,7.2-10.6,15.2-13.8,18.9c-1.5-1.1-3.5-2.6-5-3.7c-5.9-4.6-12.7-9.9-19.8-9.9H293"
			/>
		
			<ellipse id="Ellipse_171_2_" transform="matrix(0.2238 -0.9746 0.9746 0.2238 197.8887 325.5474)" class="st3" cx="303.3" cy="38.5" rx="17.4" ry="17.4"/>
	</g>
	<g class="st1">
		<path id="Path_373_6_" class="st2" d="M73.2,60.4c-0.4-0.5-3.7-1.5-7.3-4.3S28.8,16.8,27.7,15.4c-1.3-1.7-0.9-1.5-2.8-3.1
			s-5.9-2-8.4-0.2c-2.7,1.9-3.9,5.3-2.9,8.4l2,3.7c5.2,7.8,42.4,46.4,45.6,47.7c3.2,1.3,6.4,1.7,6.7,1.9L73.2,60.4z"/>
		<path id="Path_373_5_" class="st2" d="M29.2,15.6l2.8-2l2.8,3.9c0.7,1.1,2.2,1.3,3.3,0.6l0,0l3.5-2.6c1.1-0.7,1.3-2.2,0.6-3.3l0,0
			L33.9,1c-0.7-1.1-2.2-1.3-3.3-0.6l0,0l0,0L27.1,3c-1.1,0.7-1.3,2.2-0.6,3.3l0,0l0,0l2.9,4.2l-2.9,2l-11.4,8.2l-3.9,2.9l-2.9-4.2
			c-0.7-1.1-2.2-1.3-3.3-0.6l0,0l0,0l-3.5,2.6c-1.1,0.7-1.3,2.2-0.6,3.3l0,0l0,0l8.3,11.4c0.7,1.1,2.2,1.3,3.3,0.6l0,0l3.5-2.6
			c1.1-0.7,1.3-2.2,0.6-3.3l0,0l0,0l-2.9-3.9l3.4-2.5L29.2,15.6z"/>
	</g>
</g>
</svg>
