<svg id="Layer_1" data-name="Layer 1" xmlns="http://www.w3.org/2000/svg" viewBox="0 0 110.65 174.34"><defs><style>.cls-1{opacity:0.9;}.cls-2{fill:#fff;}</style></defs><g id="noun_Tennis_1671480" data-name="noun Tennis 1671480" class="cls-1"><g id="Group_48" data-name="Group 48"><circle id="Ellipse_166" data-name="Ellipse 166" class="cls-2" cx="102.68" cy="21.64" r="5.51"/><path id="Path_368-2" data-name="Path 368-2" class="cls-2" d="M352.17,394.21a5.6,5.6,0,0,0-6.91-3.87l-.06,0c-10.1,2.75-37.63,10.28-45.52,11l-13.4,1.1c-7.34.55-15.6-5.87-17.62-8.08-1.29-1.83-6.79-13-11.56-23.12l9.18-7.34a14.4,14.4,0,0,0,9.17,3.3h0a20.05,20.05,0,0,0,12.3-4.59,19.63,19.63,0,0,0,7.16-11c.92-4.4.18-8.63-2.39-11.75-5.14-6.42-15.59-6.6-23.31-.36a19.69,19.69,0,0,0-7.16,11,14.54,14.54,0,0,0,1.1,9.73l-8.81,7a5.65,5.65,0,0,0-7.52.55,5.31,5.31,0,0,0-.92,6.06h0l-3.3,2.57a2.5,2.5,0,0,0-.37,3.3,2.59,2.59,0,0,0,1.84.92,2.11,2.11,0,0,0,1.47-.56l2.39-1.83c4.76,10.1,10.09,20.93,12.1,23.13,2.57,2.94,10.83,9.91,20.74,11.75,1.29,5.69,4.4,20.37,4.23,31.56-1.66,7-4.23,15.79-5.69,18.54-2.94,1.47-13,4.59-21.48,6.79-3.3.92-5.69,4-5.14,7.34a6.54,6.54,0,0,0,7.47,5.45,6,6,0,0,0,.61-.12c15.05-4,24.23-7.34,27-9.55,1.1-.91,4.22-3.48,8.44-20.37,1.47,7.34,3.3,16.89,3.3,20.19-.18,3.12-5.87,16.33-11,26.61a6.75,6.75,0,0,0,1.65,8.45,6.59,6.59,0,0,0,4,1.28A6.78,6.78,0,0,0,300,505.8c4.77-9.54,12.85-26.43,12.67-33.22-.19-5.32-2.94-18.72-4-24.59h0c2.94-18.36.18-31.39-1.47-36.53,13.95-2.75,37.44-9.36,40.56-10.27C351.44,400.27,353.09,397.15,352.17,394.21Zm-85.34-42.76a15.84,15.84,0,0,1,5.5-8.45,17,17,0,0,1,9.55-3.48,8.67,8.67,0,0,1,8.81,11.19,15.83,15.83,0,0,1-5.51,8.44,16.1,16.1,0,0,1-9.54,3.49,9.19,9.19,0,0,1-7.35-3.12C266.64,357.5,266.28,354.57,266.83,351.45Z" transform="translate(-241.78 -334.95)"/><circle id="Ellipse_167" data-name="Ellipse 167" class="cls-2" cx="50.01" cy="49.71" r="13.22"/></g></g></svg>