<svg xmlns="http://www.w3.org/2000/svg" width="944" height="425.953" viewBox="0 0 944 425.953">
  <g id="Group_13426" data-name="Group 13426" transform="translate(-118 -361.224)">
    <path id="Path_1015" data-name="Path 1015" transform="translate(422.541 398.791) rotate(90)" fill="none" stroke="#707070" stroke-width="1"/>
    <path id="Path_1016" data-name="Path 1016" transform="translate(422.541 398.791) rotate(90)" fill="none" stroke="#707070" stroke-width="1"/>
    <path id="Path_1017" data-name="Path 1017" transform="translate(778.225 398.791) rotate(90)" fill="none" stroke="#707070" stroke-width="1"/>
    <path id="Path_1033" data-name="Path 1033" transform="translate(244.699 398.791) rotate(90)" fill="none" stroke="#707070" stroke-width="3"/>
    <path id="Path_1018" data-name="Path 1018" transform="translate(541.102 398.791) rotate(90)" fill="none" stroke="#707070" stroke-width="1"/>
    <path id="Path_1019" data-name="Path 1019" transform="translate(541.102 398.791) rotate(90)" fill="none" stroke="#707070" stroke-width="1"/>
    <path id="Path_1020" data-name="Path 1020" transform="translate(896.787 398.791) rotate(90)" fill="none" stroke="#707070" stroke-width="1"/>
    <path id="Path_1021" data-name="Path 1021" transform="translate(600.383 398.791) rotate(90)" fill="none" stroke="#707070" stroke-width="1"/>
    <path id="Path_1022" data-name="Path 1022" transform="translate(600.383 398.791) rotate(90)" fill="none" stroke="#707070" stroke-width="1"/>
    <path id="Path_1023" data-name="Path 1023" transform="translate(956.066 398.791) rotate(90)" fill="none" stroke="#707070" stroke-width="1"/>
    <path id="Path_1024" data-name="Path 1024" transform="translate(481.822 398.791) rotate(90)" fill="none" stroke="#707070" stroke-width="1"/>
    <path id="Path_1025" data-name="Path 1025" transform="translate(481.822 398.791) rotate(90)" fill="none" stroke="#707070" stroke-width="1"/>
    <path id="Path_1026" data-name="Path 1026" transform="translate(837.506 398.791) rotate(90)" fill="none" stroke="#707070" stroke-width="1"/>
    <path id="Path_1027" data-name="Path 1027" transform="translate(303.98 398.791) rotate(90)" fill="none" stroke="#707070" stroke-width="1"/>
    <path id="Path_1028" data-name="Path 1028" transform="translate(303.98 398.791) rotate(90)" fill="none" stroke="#707070" stroke-width="1"/>
    <path id="Path_1029" data-name="Path 1029" transform="translate(659.664 398.791) rotate(90)" fill="none" stroke="#707070" stroke-width="1"/>
    <path id="Path_1030" data-name="Path 1030" transform="translate(363.26 398.791) rotate(90)" fill="none" stroke="#707070" stroke-width="1"/>
    <path id="Path_1031" data-name="Path 1031" transform="translate(363.26 398.791) rotate(90)" fill="none" stroke="#707070" stroke-width="1"/>
    <path id="Path_1032" data-name="Path 1032" transform="translate(718.945 398.791) rotate(90)" fill="none" stroke="#707070" stroke-width="1"/>
    <text id="_3" data-name="3" transform="translate(416.404 361.224)" fill="#fff" font-size="22" font-family="HelveticaNeue-Medium, Helvetica Neue" font-weight="500"><tspan x="0" y="21">3</tspan></text>
    <text id="_3-2" data-name="3" transform="translate(770.021 361.224)" fill="#fff" font-size="22" font-family="HelveticaNeue-Medium, Helvetica Neue" font-weight="500"><tspan x="0" y="21">3</tspan></text>
    <text id="_0" data-name="0" transform="translate(594.592 361.568)" fill="#fff" font-size="22" font-family="HelveticaNeue-Medium, Helvetica Neue" font-weight="500"><tspan x="0" y="21">0</tspan></text>
    <text id="_5" data-name="5" transform="translate(297.844 361.224)" fill="#fff" font-size="22" font-family="HelveticaNeue-Medium, Helvetica Neue" font-weight="500"><tspan x="0" y="21">5</tspan></text>
    <text id="_5-2" data-name="5" transform="translate(889.271 361.224)" fill="#fff" font-size="22" font-family="HelveticaNeue-Medium, Helvetica Neue" font-weight="500"><tspan x="0" y="21">5</tspan></text>
    <text id="_2" data-name="2" transform="translate(475.686 361.224)" fill="#fff" font-size="22" font-family="HelveticaNeue-Medium, Helvetica Neue" font-weight="500"><tspan x="0" y="21">2</tspan></text>
    <text id="_2-2" data-name="2" transform="translate(711.43 361.224)" fill="#fff" font-size="22" font-family="HelveticaNeue-Medium, Helvetica Neue" font-weight="500"><tspan x="0" y="21">2</tspan></text>
    <text id="_6" data-name="6" transform="translate(238.563 361.224)" fill="#fff" font-size="22" font-family="HelveticaNeue-Medium, Helvetica Neue" font-weight="500"><tspan x="0" y="21">6</tspan></text>
    <text id="_6-2" data-name="6" transform="translate(949.242 361.224)" fill="#fff" font-size="22" font-family="HelveticaNeue-Medium, Helvetica Neue" font-weight="500"><tspan x="0" y="21">6</tspan></text>
    <text id="_4" data-name="4" transform="translate(357.123 361.224)" fill="#fff" font-size="22" font-family="HelveticaNeue-Medium, Helvetica Neue" font-weight="500"><tspan x="0" y="21">4</tspan></text>
    <text id="_4-2" data-name="4" transform="translate(829.301 361.224)" fill="#fff" font-size="22" font-family="HelveticaNeue-Medium, Helvetica Neue" font-weight="500"><tspan x="0" y="21">4</tspan></text>
    <text id="_1" data-name="1" transform="translate(534.967 361.224)" fill="#fff" font-size="22" font-family="HelveticaNeue-Medium, Helvetica Neue" font-weight="500"><tspan x="0" y="21">1</tspan></text>
    <text id="_1-2" data-name="1" transform="translate(652.838 361.224)" fill="#fff" font-size="22" font-family="HelveticaNeue-Medium, Helvetica Neue" font-weight="500"><tspan x="0" y="21">1</tspan></text>
    <path id="Path_1003" data-name="Path 1003" d="M0,0H394.935" transform="translate(778.57 392.243) rotate(90)" fill="none" stroke="#fff" stroke-width="2" opacity="0.2"/>
    <path id="Path_1012" data-name="Path 1012" d="M0,0H394.935" transform="translate(362.916 392.243) rotate(90)" fill="none" stroke="#fff" stroke-width="2" opacity="0.2"/>
    <path id="Path_1000" data-name="Path 1000" d="M0,0H394.935" transform="translate(897.131 392.243) rotate(90)" fill="none" stroke="#fff" stroke-width="2" opacity="0.2"/>
    <path id="Path_1011" data-name="Path 1011" d="M0,0H394.935" transform="translate(481.477 392.243) rotate(90)" fill="none" stroke="#fff" stroke-width="2" opacity="0.2"/>
    <path id="Path_1002" data-name="Path 1002" d="M0,0H394.935" transform="translate(837.852 392.243) rotate(90)" fill="none" stroke="#fff" stroke-width="2" opacity="0.2"/>
    <path id="Path_1013" data-name="Path 1013" d="M0,0H394.935" transform="translate(422.195 392.243) rotate(90)" fill="none" stroke="#fff" stroke-width="2" opacity="0.2"/>
    <path id="Path_1006" data-name="Path 1006" d="M0,0H394.935" transform="translate(660.008 392.243) rotate(90)" fill="none" stroke="#fff" stroke-width="2" opacity="0.2"/>
    <path id="Path_1036" data-name="Path 1036" d="M0,0H394.935" transform="translate(244.355 392.243) rotate(90)" fill="none" stroke="#fff" stroke-width="2" opacity="0.2"/>
    <path id="Path_1004" data-name="Path 1004" d="M0,0H394.935" transform="translate(719.289 392.243) rotate(90)" fill="none" stroke="#fff" stroke-width="2" opacity="0.2"/>
    <path id="Path_1014" data-name="Path 1014" d="M0,0H394.935" transform="translate(303.635 392.243) rotate(90)" fill="none" stroke="#fff" stroke-width="2" opacity="0.2"/>
    <path id="Path_1001" data-name="Path 1001" d="M0,0H394.935" transform="translate(956.412 392.243) rotate(90)" fill="none" stroke="#fff" stroke-width="2" opacity="0.2"/>
    <path id="Path_1010" data-name="Path 1010" d="M0,0H394.935" transform="translate(540.758 392.243) rotate(90)" fill="none" stroke="#fff" stroke-width="2" opacity="0.2"/>
    <text id="Januari" transform="translate(125 417)" fill="#fff" font-size="22" font-family="HelveticaNeue-Medium, Helvetica Neue" font-weight="500"><tspan x="0" y="21">Januari</tspan></text>
    <rect id="Rectangle_835" data-name="Rectangle 835" width="42.737" height="143.377" transform="translate(744.105 408) rotate(90)" fill="#ff86ae"/>
    <rect id="Rectangle_837" data-name="Rectangle 837" width="42.737" height="139.241" transform="translate(600.039 408) rotate(90)" fill="#ffaac6"/>
    <text id="Februari" transform="translate(118 480)" fill="#fff" font-size="22" font-family="HelveticaNeue-Medium, Helvetica Neue" font-weight="500"><tspan x="0" y="21">Februari</tspan></text>
    <rect id="Rectangle_836" data-name="Rectangle 836" width="42.737" height="155.095" transform="translate(755.822 471) rotate(90)" fill="#ff86ae"/>
    <rect id="Rectangle_838" data-name="Rectangle 838" width="42.737" height="150.959" transform="translate(600.039 471) rotate(90)" fill="#ffaac6"/>
    <text id="Maart" transform="translate(132 542)" fill="#fff" font-size="22" font-family="HelveticaNeue-Medium, Helvetica Neue" font-weight="500"><tspan x="0" y="21">Maart</tspan></text>
    <rect id="Rectangle_833" data-name="Rectangle 833" width="41.359" height="188.871" transform="translate(600.039 534) rotate(90)" fill="#ffaac6"/>
    <rect id="Rectangle_834" data-name="Rectangle 834" width="41.359" height="91.678" transform="translate(692.406 533.517) rotate(90)" fill="#ff86ae"/>
    <text id="April" transform="translate(141 603)" fill="#fff" font-size="22" font-family="HelveticaNeue-Medium, Helvetica Neue" font-weight="500"><tspan x="0" y="21">April</tspan></text>
    <rect id="Rectangle_832" data-name="Rectangle 832" width="41.359" height="177.842" transform="translate(600.727 595) rotate(90)" fill="#ffaac6"/>
    <path id="Path_1009" data-name="Path 1009" d="M0,0H41.359V28.4H0Z" transform="translate(629.816 595) rotate(90)" fill="#ff86ae"/>
    <text id="Mei" transform="translate(145 666)" fill="#fff" font-size="22" font-family="HelveticaNeue-Medium, Helvetica Neue" font-weight="500"><tspan x="0" y="21">Mei</tspan></text>
    <rect id="Rectangle_830" data-name="Rectangle 830" width="41.359" height="264.695" transform="translate(600.039 657) rotate(90)" fill="#ffaac6"/>
    <path id="Path_1007" data-name="Path 1007" d="M0,0H41.359V58.247H0Z" transform="translate(658.975 657) rotate(90)" fill="#ff86ae"/>
    <rect id="Rectangle_831" data-name="Rectangle 831" width="41.359" height="295.714" transform="translate(600.039 719) rotate(90)" fill="#ffaac6"/>
    <path id="Path_1005" data-name="Path 1005" d="M0,0H41.359V132.348H0Z" transform="translate(733.074 719) rotate(90)" fill="#ff86ae"/>
    <text id="Juni" transform="translate(142 727)" fill="#fff" font-size="22" font-family="HelveticaNeue-Medium, Helvetica Neue" font-weight="500"><tspan x="0" y="21">Juni</tspan></text>
    <path id="Path_1008" data-name="Path 1008" d="M0,0H394.935" transform="translate(600.727 392.243) rotate(90)" fill="none" stroke="#fff" stroke-width="2" opacity="0.2"/>
    <text id="_2020" data-name="2020" transform="translate(1030 425)" fill="#fff" font-size="14" font-family="HelveticaNeue-Medium, Helvetica Neue" font-weight="500"><tspan x="0" y="0">2020</tspan></text>
    <path id="Path_527" data-name="Path 527" d="M0,11H25" transform="translate(995 409)" fill="none" stroke="#ff86ae" stroke-linecap="round" stroke-width="3"/>
    <text id="_2019" data-name="2019" transform="translate(1029.578 401)" fill="#fff" font-size="14" font-family="HelveticaNeue-Medium, Helvetica Neue" font-weight="500"><tspan x="0" y="0">2019</tspan></text>
    <g id="Group_8874" data-name="Group 8874" transform="translate(993 385)">
      <path id="Path_528" data-name="Path 528" d="M0,11H25" transform="translate(2)" fill="none" stroke="#ffaac6" stroke-linecap="round" stroke-width="3"/>
    </g>
  </g>
</svg>
