<svg id="Layer_1" data-name="Layer 1" xmlns="http://www.w3.org/2000/svg" viewBox="0 0 86.15 177.01"><defs><style>.cls-1{opacity:0.9;}.cls-2{fill:#fff;}</style></defs><g id="Group_57" data-name="Group 57" class="cls-1"><path id="Path_465-2" data-name="Path 465-2" class="cls-2" d="M331.73,337.89a6.87,6.87,0,0,0-8.75-4.24l-.37.14a6.88,6.88,0,0,0-4.24,8.75c0,.13.09.25.14.37,3.73,9.69,7.46,22,7.82,26.26-4.28,5.4-14.89,13.77-19.36,13.77H287.8c-4.47,0-15.08-8.38-19.36-13.77.37-4.29,4.1-16.57,7.82-26.25a7.27,7.27,0,0,0-4.1-9.13,7.08,7.08,0,0,0-9.22,3.89l-.09.21c-11.72,31.28-8.74,35.74-7.07,38.17,2.61,3.72,13.78,15.63,25,19.73l.74,37.79c-13.22,5-24,10.61-24,20.48,0,3,0,11.72,28.67,25.31a8.17,8.17,0,0,0,10.42-2.79v25.5a8.19,8.19,0,0,0,16.38,0h0v-68.5l.75-38c11.17-4.1,22.53-16,24.95-19.73C340.3,373.45,343.47,369.17,331.73,337.89ZM296.55,467.27a7.2,7.2,0,0,0-3.35-2.79c-6.7-3.16-14-7.44-17.5-10.42,2.61-1.68,7.82-4.1,17.87-7.45a14.63,14.63,0,0,0,3-1.3Z" transform="translate(-254.17 -333.27)"/><circle id="Ellipse_214" data-name="Ellipse 214" class="cls-2" cx="43.13" cy="28.08" r="16.57"/></g></svg>