<?xml version="1.0" encoding="utf-8"?>
<!-- Generator: Adobe Illustrator 25.1.0, SVG Export Plug-In . SVG Version: 6.00 Build 0)  -->
<svg version="1.1" id="Laag_1" xmlns="http://www.w3.org/2000/svg" xmlns:xlink="http://www.w3.org/1999/xlink" x="0px" y="0px"
	 viewBox="0 0 108.5 528.2" style="enable-background:new 0 0 108.5 528.2;" xml:space="preserve">
<style type="text/css">
	.st0{fill:#FFFFFF;}
</style>
<g id="Group_13286" transform="translate(-2481.629 -919.428)">
	<g id="standing-frontal-man-silhouette" transform="translate(2481.63 1220.584)">
		<g id="Group_11655" transform="translate(0 0)">
			<ellipse id="Ellipse_8681" class="st0" cx="6" cy="79.4" rx="1.9" ry="1.9"/>
			<path id="Path_12155" class="st0" d="M12,89.9c-0.5-6.1-3.5-7.4-3.5-7.4c-1.9-1-4.1-0.8-5.8,0.5c-1.9,1.8-2.4,4.4-2.7,7
				c-0.2,1.3,1.9,1.3,2.1,0c0.1-1.5,0.5-3,1.2-4.4v1.5l0,7.2v5.7c0,0.6,0.4,1.1,1,1.1c0,0,0,0,0,0c0.6,0,1.1-0.5,1.1-1.1v-8.1h1v8.2
				c0,0.6,0.5,1,1.1,1c0.5,0,1-0.4,1-1v-5.7l0.1-7.2c0-0.7,0-1.3,0-1.7c0.7,1.4,1.2,3,1.3,4.5C10.1,91.2,12.1,91.2,12,89.9z"/>
		</g>
	</g>
	<g id="standing-frontal-man-silhouette-2" transform="translate(2481.63 1195.428)">
		<g id="Group_11656" transform="translate(0 0)">
			<ellipse id="Ellipse_8682" class="st0" cx="6" cy="79.4" rx="1.9" ry="1.9"/>
			<path id="Path_12156" class="st0" d="M12,89.9c-0.5-6.1-3.5-7.4-3.5-7.4c-1.9-1-4.1-0.8-5.8,0.5c-1.9,1.8-2.4,4.4-2.7,7
				c-0.2,1.3,1.9,1.3,2.1,0c0.1-1.5,0.5-3,1.2-4.4v1.5l0,7.2v5.7c0,0.6,0.4,1.1,1,1.1c0,0,0,0,0,0c0.6,0,1.1-0.5,1.1-1.1v-8.1h1v8.2
				c0,0.6,0.5,1,1.1,1c0.5,0,1-0.4,1-1v-5.7l0.1-7.2c0-0.7,0-1.3,0-1.7c0.7,1.4,1.2,3,1.3,4.5C10.1,91.2,12.1,91.2,12,89.9z"/>
		</g>
	</g>
	<g id="standing-frontal-man-silhouette-3" transform="translate(2481.63 1270.968)">
		<g id="Group_11657" transform="translate(0 0)">
			<ellipse id="Ellipse_8683" class="st0" cx="6" cy="79.4" rx="1.9" ry="1.9"/>
			<path id="Path_12157" class="st0" d="M12,89.9c-0.5-6.1-3.5-7.4-3.5-7.4c-1.9-1-4.1-0.8-5.8,0.5c-1.9,1.8-2.4,4.4-2.7,7
				c-0.2,1.3,1.9,1.3,2.1,0c0.1-1.5,0.5-3,1.2-4.4v1.5l0,7.2v5.7c0,0.6,0.4,1.1,1,1.1c0,0,0,0,0,0c0.6,0,1.1-0.5,1.1-1.1v-8.1h1v8.2
				c0,0.6,0.5,1,1.1,1c0.5,0,1-0.4,1-1v-5.7l0.1-7.2c0-0.7,0-1.3,0-1.7c0.7,1.4,1.2,3,1.3,4.5C10.1,91.2,12.1,91.2,12,89.9z"/>
		</g>
	</g>
	<g id="standing-frontal-man-silhouette-4" transform="translate(2481.63 1321.353)">
		<g id="Group_11658" transform="translate(0 0)">
			<ellipse id="Ellipse_8684" class="st0" cx="6" cy="79.4" rx="1.9" ry="1.9"/>
			<path id="Path_12158" class="st0" d="M12,89.9c-0.5-6.1-3.5-7.4-3.5-7.4c-1.9-1-4.1-0.8-5.8,0.5c-1.9,1.8-2.4,4.4-2.7,7
				c-0.2,1.3,1.9,1.3,2.1,0c0.1-1.5,0.5-3,1.2-4.4v1.5l0,7.2v5.7c0,0.6,0.4,1.1,1,1.1c0,0,0,0,0,0c0.6,0,1.1-0.5,1.1-1.1v-8.1h1v8.2
				c0,0.6,0.5,1,1.1,1c0.5,0,1-0.4,1-1v-5.7l0.1-7.2c0-0.7,0-1.3,0-1.7c0.7,1.4,1.2,3,1.3,4.5C10.1,91.2,12.1,91.2,12,89.9z"/>
		</g>
	</g>
	<g id="standing-frontal-man-silhouette-5" transform="translate(2481.63 1245.776)">
		<g id="Group_11659" transform="translate(0 0)">
			<ellipse id="Ellipse_8685" class="st0" cx="6" cy="79.4" rx="1.9" ry="1.9"/>
			<path id="Path_12159" class="st0" d="M12,89.9c-0.5-6.1-3.5-7.4-3.5-7.4c-1.9-1-4.1-0.8-5.8,0.5c-1.9,1.8-2.4,4.4-2.7,7
				c-0.2,1.3,1.9,1.3,2.1,0c0.1-1.5,0.5-3,1.2-4.4v1.5l0,7.2v5.7c0,0.6,0.4,1.1,1,1.1c0,0,0,0,0,0c0.6,0,1.1-0.5,1.1-1.1v-8.1h1v8.2
				c0,0.6,0.5,1,1.1,1c0.5,0,1-0.4,1-1v-5.7l0.1-7.2c0-0.7,0-1.3,0-1.7c0.7,1.4,1.2,3,1.3,4.5C10.1,91.2,12.1,91.2,12,89.9z"/>
		</g>
	</g>
	<g id="standing-frontal-man-silhouette-6" transform="translate(2481.63 1296.16)">
		<g id="Group_11660" transform="translate(0 0)">
			<ellipse id="Ellipse_8686" class="st0" cx="6" cy="79.4" rx="1.9" ry="1.9"/>
			<path id="Path_12160" class="st0" d="M12,89.9c-0.5-6.1-3.5-7.4-3.5-7.4c-1.9-1-4.1-0.8-5.8,0.5c-1.9,1.8-2.4,4.4-2.7,7
				c-0.2,1.3,1.9,1.3,2.1,0c0.1-1.5,0.5-3,1.2-4.4v1.5l0,7.2v5.7c0,0.6,0.4,1.1,1,1.1c0,0,0,0,0,0c0.6,0,1.1-0.5,1.1-1.1v-8.1h1v8.2
				c0,0.6,0.5,1,1.1,1c0.5,0,1-0.4,1-1v-5.7l0.1-7.2c0-0.7,0-1.3,0-1.7c0.7,1.4,1.2,3,1.3,4.5C10.1,91.2,12.1,91.2,12,89.9z"/>
		</g>
	</g>
	<g id="standing-frontal-man-silhouette-7" transform="translate(2481.63 1346.545)">
		<g id="Group_11661" transform="translate(0 0)">
			<ellipse id="Ellipse_8687" class="st0" cx="6" cy="79.4" rx="1.9" ry="1.9"/>
			<path id="Path_12161" class="st0" d="M12,89.9c-0.5-6.1-3.5-7.4-3.5-7.4c-1.9-1-4.1-0.8-5.8,0.5c-1.9,1.8-2.4,4.4-2.7,7
				c-0.2,1.3,1.9,1.3,2.1,0c0.1-1.5,0.5-3,1.2-4.4v1.5l0,7.2v5.7c0,0.6,0.4,1.1,1,1.1c0,0,0,0,0,0c0.6,0,1.1-0.5,1.1-1.1v-8.1h1v8.2
				c0,0.6,0.5,1,1.1,1c0.5,0,1-0.4,1-1v-5.7l0.1-7.2c0-0.7,0-1.3,0-1.7c0.7,1.4,1.2,3,1.3,4.5C10.1,91.2,12.1,91.2,12,89.9z"/>
		</g>
	</g>
	<g id="standing-frontal-man-silhouette-8" transform="translate(2482.237 1044.584)">
		<g id="Group_11662" transform="translate(0 0)">
			<ellipse id="Ellipse_8688" class="st0" cx="6" cy="79.4" rx="1.9" ry="1.9"/>
			<path id="Path_12162" class="st0" d="M12,89.9c-0.5-6.1-3.5-7.4-3.5-7.4c-1.9-1-4.1-0.8-5.8,0.5c-1.9,1.8-2.4,4.4-2.7,7
				c-0.2,1.3,1.9,1.3,2.1,0c0.1-1.5,0.5-3,1.2-4.4v1.5l0,7.2v5.7c0,0.6,0.4,1.1,1,1.1c0,0,0,0,0,0c0.6,0,1.1-0.5,1.1-1.1v-8.1h1v8.2
				c0,0.6,0.5,1,1.1,1c0.5,0,1-0.4,1-1v-5.7l0.1-7.2c0-0.7,0-1.3,0-1.7c0.7,1.4,1.2,3,1.3,4.5C10.1,91.2,12.1,91.2,12,89.9z"/>
		</g>
	</g>
	<g id="standing-frontal-man-silhouette-9" transform="translate(2482.237 1019.428)">
		<g id="Group_11663" transform="translate(0 0)">
			<ellipse id="Ellipse_8689" class="st0" cx="6" cy="79.4" rx="1.9" ry="1.9"/>
			<path id="Path_12163" class="st0" d="M12,89.9c-0.5-6.1-3.5-7.4-3.5-7.4c-1.9-1-4.1-0.8-5.8,0.5c-1.9,1.8-2.4,4.4-2.7,7
				c-0.2,1.3,1.9,1.3,2.1,0c0.1-1.5,0.5-3,1.2-4.4v1.5l0,7.2v5.7c0,0.6,0.4,1.1,1,1.1c0,0,0,0,0,0c0.6,0,1.1-0.5,1.1-1.1v-8.1h1v8.2
				c0,0.6,0.5,1,1.1,1c0.5,0,1-0.4,1-1v-5.7l0.1-7.2c0-0.7,0-1.3,0-1.7c0.7,1.4,1.2,3,1.3,4.5C10.1,91.2,12.1,91.2,12,89.9z"/>
		</g>
	</g>
	<g id="standing-frontal-man-silhouette-10" transform="translate(2482.237 1094.968)">
		<g id="Group_11664" transform="translate(0 0)">
			<ellipse id="Ellipse_8690" class="st0" cx="6" cy="79.4" rx="1.9" ry="1.9"/>
			<path id="Path_12164" class="st0" d="M12,89.9c-0.5-6.1-3.5-7.4-3.5-7.4c-1.9-1-4.1-0.8-5.8,0.5c-1.9,1.8-2.4,4.4-2.7,7
				c-0.2,1.3,1.9,1.3,2.1,0c0.1-1.5,0.5-3,1.2-4.4v1.5l0,7.2v5.7c0,0.6,0.4,1.1,1,1.1c0,0,0,0,0,0c0.6,0,1.1-0.5,1.1-1.1v-8.1h1v8.2
				c0,0.6,0.5,1,1.1,1c0.5,0,1-0.4,1-1v-5.7l0.1-7.2c0-0.7,0-1.3,0-1.7c0.7,1.4,1.2,3,1.3,4.5C10.1,91.2,12.1,91.2,12,89.9z"/>
		</g>
	</g>
	<g id="standing-frontal-man-silhouette-11" transform="translate(2482.237 1145.353)">
		<g id="Group_11665" transform="translate(0 0)">
			<ellipse id="Ellipse_8691" class="st0" cx="6" cy="79.4" rx="1.9" ry="1.9"/>
			<path id="Path_12165" class="st0" d="M12,89.9c-0.5-6.1-3.5-7.4-3.5-7.4c-1.9-1-4.1-0.8-5.8,0.5c-1.9,1.8-2.4,4.4-2.7,7
				c-0.2,1.3,1.9,1.3,2.1,0c0.1-1.5,0.5-3,1.2-4.4v1.5l0,7.2v5.7c0,0.6,0.4,1.1,1,1.1c0,0,0,0,0,0c0.6,0,1.1-0.5,1.1-1.1v-8.1h1v8.2
				c0,0.6,0.5,1,1.1,1c0.5,0,1-0.4,1-1v-5.7l0.1-7.2c0-0.7,0-1.3,0-1.7c0.7,1.4,1.2,3,1.3,4.5C10.1,91.2,12.1,91.2,12,89.9z"/>
		</g>
	</g>
	<g id="standing-frontal-man-silhouette-12" transform="translate(2482.237 1069.776)">
		<g id="Group_11666" transform="translate(0 0)">
			<ellipse id="Ellipse_8692" class="st0" cx="6" cy="79.4" rx="1.9" ry="1.9"/>
			<path id="Path_12166" class="st0" d="M12,89.9c-0.5-6.1-3.5-7.4-3.5-7.4c-1.9-1-4.1-0.8-5.8,0.5c-1.9,1.8-2.4,4.4-2.7,7
				c-0.2,1.3,1.9,1.3,2.1,0c0.1-1.5,0.5-3,1.2-4.4v1.5l0,7.2v5.7c0,0.6,0.4,1.1,1,1.1c0,0,0,0,0,0c0.6,0,1.1-0.5,1.1-1.1v-8.1h1v8.2
				c0,0.6,0.5,1,1.1,1c0.5,0,1-0.4,1-1v-5.7l0.1-7.2c0-0.7,0-1.3,0-1.7c0.7,1.4,1.2,3,1.3,4.5C10.1,91.2,12.1,91.2,12,89.9z"/>
		</g>
	</g>
	<g id="standing-frontal-man-silhouette-13" transform="translate(2482.237 1120.16)">
		<g id="Group_11667" transform="translate(0 0)">
			<ellipse id="Ellipse_8693" class="st0" cx="6" cy="79.4" rx="1.9" ry="1.9"/>
			<path id="Path_12167" class="st0" d="M12,89.9c-0.5-6.1-3.5-7.4-3.5-7.4c-1.9-1-4.1-0.8-5.8,0.5c-1.9,1.8-2.4,4.4-2.7,7
				c-0.2,1.3,1.9,1.3,2.1,0c0.1-1.5,0.5-3,1.2-4.4v1.5l0,7.2v5.7c0,0.6,0.4,1.1,1,1.1c0,0,0,0,0,0c0.6,0,1.1-0.5,1.1-1.1v-8.1h1v8.2
				c0,0.6,0.5,1,1.1,1c0.5,0,1-0.4,1-1v-5.7l0.1-7.2c0-0.7,0-1.3,0-1.7c0.7,1.4,1.2,3,1.3,4.5C10.1,91.2,12.1,91.2,12,89.9z"/>
		</g>
	</g>
	<g id="standing-frontal-man-silhouette-14" transform="translate(2482.237 1170.545)">
		<g id="Group_11668" transform="translate(0 0)">
			<ellipse id="Ellipse_8694" class="st0" cx="6" cy="79.4" rx="1.9" ry="1.9"/>
			<path id="Path_12168" class="st0" d="M12,89.9c-0.5-6.1-3.5-7.4-3.5-7.4c-1.9-1-4.1-0.8-5.8,0.5c-1.9,1.8-2.4,4.4-2.7,7
				c-0.2,1.3,1.9,1.3,2.1,0c0.1-1.5,0.5-3,1.2-4.4v1.5l0,7.2v5.7c0,0.6,0.4,1.1,1,1.1c0,0,0,0,0,0c0.6,0,1.1-0.5,1.1-1.1v-8.1h1v8.2
				c0,0.6,0.5,1,1.1,1c0.5,0,1-0.4,1-1v-5.7l0.1-7.2c0-0.7,0-1.3,0-1.7c0.7,1.4,1.2,3,1.3,4.5C10.1,91.2,12.1,91.2,12,89.9z"/>
		</g>
	</g>
	<g id="standing-frontal-man-silhouette-15" transform="translate(2536.434 1220.584)">
		<g id="Group_11669" transform="translate(0 0)">
			<ellipse id="Ellipse_8695" class="st0" cx="6" cy="79.4" rx="1.9" ry="1.9"/>
			<path id="Path_12169" class="st0" d="M12,89.9c-0.5-6.1-3.5-7.4-3.5-7.4c-1.9-1-4.1-0.8-5.8,0.5c-1.9,1.8-2.4,4.4-2.7,7
				c-0.2,1.3,1.9,1.3,2.1,0c0.1-1.5,0.5-3,1.2-4.4v1.5l0,7.2v5.7c0,0.6,0.4,1.1,1,1.1c0,0,0,0,0,0c0.6,0,1.1-0.5,1.1-1.1v-8.1h1v8.2
				c0,0.6,0.5,1,1.1,1c0.5,0,1-0.4,1-1v-5.7l0.1-7.2c0-0.7,0-1.3,0-1.7c0.7,1.4,1.2,3,1.3,4.5C10.1,91.2,12.1,91.2,12,89.9z"/>
		</g>
	</g>
	<g id="standing-frontal-man-silhouette-16" transform="translate(2536.434 1195.428)">
		<g id="Group_11670" transform="translate(0 0)">
			<ellipse id="Ellipse_8696" class="st0" cx="6" cy="79.4" rx="1.9" ry="1.9"/>
			<path id="Path_12170" class="st0" d="M12,89.9c-0.5-6.1-3.5-7.4-3.5-7.4c-1.9-1-4.1-0.8-5.8,0.5c-1.9,1.8-2.4,4.4-2.7,7
				c-0.2,1.3,1.9,1.3,2.1,0c0.1-1.5,0.5-3,1.2-4.4v1.5l0,7.2v5.7c0,0.6,0.4,1.1,1,1.1c0,0,0,0,0,0c0.6,0,1.1-0.5,1.1-1.1v-8.1h1v8.2
				c0,0.6,0.5,1,1.1,1c0.5,0,1-0.4,1-1v-5.7l0.1-7.2c0-0.7,0-1.3,0-1.7c0.7,1.4,1.2,3,1.3,4.5C10.1,91.2,12.1,91.2,12,89.9z"/>
		</g>
	</g>
	<g id="standing-frontal-man-silhouette-17" transform="translate(2536.434 1270.968)">
		<g id="Group_11671" transform="translate(0 0)">
			<ellipse id="Ellipse_8697" class="st0" cx="6" cy="79.4" rx="1.9" ry="1.9"/>
			<path id="Path_12171" class="st0" d="M12,89.9c-0.5-6.1-3.5-7.4-3.5-7.4c-1.9-1-4.1-0.8-5.8,0.5c-1.9,1.8-2.4,4.4-2.7,7
				c-0.2,1.3,1.9,1.3,2.1,0c0.1-1.5,0.5-3,1.2-4.4v1.5l0,7.2v5.7c0,0.6,0.4,1.1,1,1.1c0,0,0,0,0,0c0.6,0,1.1-0.5,1.1-1.1v-8.1h1v8.2
				c0,0.6,0.5,1,1.1,1c0.5,0,1-0.4,1-1v-5.7l0.1-7.2c0-0.7,0-1.3,0-1.7c0.7,1.4,1.2,3,1.3,4.5C10.1,91.2,12.1,91.2,12,89.9z"/>
		</g>
	</g>
	<g id="standing-frontal-man-silhouette-18" transform="translate(2536.434 1321.353)">
		<g id="Group_11672" transform="translate(0 0)">
			<ellipse id="Ellipse_8698" class="st0" cx="6" cy="79.4" rx="1.9" ry="1.9"/>
			<path id="Path_12172" class="st0" d="M12,89.9c-0.5-6.1-3.5-7.4-3.5-7.4c-1.9-1-4.1-0.8-5.8,0.5c-1.9,1.8-2.4,4.4-2.7,7
				c-0.2,1.3,1.9,1.3,2.1,0c0.1-1.5,0.5-3,1.2-4.4v1.5l0,7.2v5.7c0,0.6,0.4,1.1,1,1.1c0,0,0,0,0,0c0.6,0,1.1-0.5,1.1-1.1v-8.1h1v8.2
				c0,0.6,0.5,1,1.1,1c0.5,0,1-0.4,1-1v-5.7l0.1-7.2c0-0.7,0-1.3,0-1.7c0.7,1.4,1.2,3,1.3,4.5C10.1,91.2,12.1,91.2,12,89.9z"/>
		</g>
	</g>
	<g id="standing-frontal-man-silhouette-19" transform="translate(2536.434 1245.776)">
		<g id="Group_11673" transform="translate(0 0)">
			<ellipse id="Ellipse_8699" class="st0" cx="6" cy="79.4" rx="1.9" ry="1.9"/>
			<path id="Path_12173" class="st0" d="M12,89.9c-0.5-6.1-3.5-7.4-3.5-7.4c-1.9-1-4.1-0.8-5.8,0.5c-1.9,1.8-2.4,4.4-2.7,7
				c-0.2,1.3,1.9,1.3,2.1,0c0.1-1.5,0.5-3,1.2-4.4v1.5l0,7.2v5.7c0,0.6,0.4,1.1,1,1.1c0,0,0,0,0,0c0.6,0,1.1-0.5,1.1-1.1v-8.1h1v8.2
				c0,0.6,0.5,1,1.1,1c0.5,0,1-0.4,1-1v-5.7l0.1-7.2c0-0.7,0-1.3,0-1.7c0.7,1.4,1.2,3,1.3,4.5C10.1,91.2,12.1,91.2,12,89.9z"/>
		</g>
	</g>
	<g id="standing-frontal-man-silhouette-20" transform="translate(2536.434 1296.16)">
		<g id="Group_11674" transform="translate(0 0)">
			<ellipse id="Ellipse_8700" class="st0" cx="6" cy="79.4" rx="1.9" ry="1.9"/>
			<path id="Path_12174" class="st0" d="M12,89.9c-0.5-6.1-3.5-7.4-3.5-7.4c-1.9-1-4.1-0.8-5.8,0.5c-1.9,1.8-2.4,4.4-2.7,7
				c-0.2,1.3,1.9,1.3,2.1,0c0.1-1.5,0.5-3,1.2-4.4v1.5l0,7.2v5.7c0,0.6,0.4,1.1,1,1.1c0,0,0,0,0,0c0.6,0,1.1-0.5,1.1-1.1v-8.1h1v8.2
				c0,0.6,0.5,1,1.1,1c0.5,0,1-0.4,1-1v-5.7l0.1-7.2c0-0.7,0-1.3,0-1.7c0.7,1.4,1.2,3,1.3,4.5C10.1,91.2,12.1,91.2,12,89.9z"/>
		</g>
	</g>
	<g id="standing-frontal-man-silhouette-21" transform="translate(2536.434 1346.545)">
		<g id="Group_11675" transform="translate(0 0)">
			<ellipse id="Ellipse_8701" class="st0" cx="6" cy="79.4" rx="1.9" ry="1.9"/>
			<path id="Path_12175" class="st0" d="M12,89.9c-0.5-6.1-3.5-7.4-3.5-7.4c-1.9-1-4.1-0.8-5.8,0.5c-1.9,1.8-2.4,4.4-2.7,7
				c-0.2,1.3,1.9,1.3,2.1,0c0.1-1.5,0.5-3,1.2-4.4v1.5l0,7.2v5.7c0,0.6,0.4,1.1,1,1.1c0,0,0,0,0,0c0.6,0,1.1-0.5,1.1-1.1v-8.1h1v8.2
				c0,0.6,0.5,1,1.1,1c0.5,0,1-0.4,1-1v-5.7l0.1-7.2c0-0.7,0-1.3,0-1.7c0.7,1.4,1.2,3,1.3,4.5C10.1,91.2,12.1,91.2,12,89.9z"/>
		</g>
	</g>
	<g id="standing-frontal-man-silhouette-22" transform="translate(2537.041 1044.584)">
		<g id="Group_11676" transform="translate(0 0)">
			<ellipse id="Ellipse_8702" class="st0" cx="6" cy="79.4" rx="1.9" ry="1.9"/>
			<path id="Path_12176" class="st0" d="M12,89.9c-0.5-6.1-3.5-7.4-3.5-7.4c-1.9-1-4.1-0.8-5.8,0.5c-1.9,1.8-2.4,4.4-2.7,7
				c-0.2,1.3,1.9,1.3,2.1,0c0.1-1.5,0.5-3,1.2-4.4v1.5l0,7.2v5.7c0,0.6,0.4,1.1,1,1.1c0,0,0,0,0,0c0.6,0,1.1-0.5,1.1-1.1v-8.1h1v8.2
				c0,0.6,0.5,1,1.1,1c0.5,0,1-0.4,1-1v-5.7l0.1-7.2c0-0.7,0-1.3,0-1.7c0.7,1.4,1.2,3,1.3,4.5C10.1,91.2,12.1,91.2,12,89.9z"/>
		</g>
	</g>
	<g id="standing-frontal-man-silhouette-23" transform="translate(2537.041 1019.428)">
		<g id="Group_11677" transform="translate(0 0)">
			<ellipse id="Ellipse_8703" class="st0" cx="6" cy="79.4" rx="1.9" ry="1.9"/>
			<path id="Path_12177" class="st0" d="M12,89.9c-0.5-6.1-3.5-7.4-3.5-7.4c-1.9-1-4.1-0.8-5.8,0.5c-1.9,1.8-2.4,4.4-2.7,7
				c-0.2,1.3,1.9,1.3,2.1,0c0.1-1.5,0.5-3,1.2-4.4v1.5l0,7.2v5.7c0,0.6,0.4,1.1,1,1.1c0,0,0,0,0,0c0.6,0,1.1-0.5,1.1-1.1v-8.1h1v8.2
				c0,0.6,0.5,1,1.1,1c0.5,0,1-0.4,1-1v-5.7l0.1-7.2c0-0.7,0-1.3,0-1.7c0.7,1.4,1.2,3,1.3,4.5C10.1,91.2,12.1,91.2,12,89.9z"/>
		</g>
	</g>
	<g id="standing-frontal-man-silhouette-24" transform="translate(2537.041 1094.968)">
		<g id="Group_11678" transform="translate(0 0)">
			<ellipse id="Ellipse_8704" class="st0" cx="6" cy="79.4" rx="1.9" ry="1.9"/>
			<path id="Path_12178" class="st0" d="M12,89.9c-0.5-6.1-3.5-7.4-3.5-7.4c-1.9-1-4.1-0.8-5.8,0.5c-1.9,1.8-2.4,4.4-2.7,7
				c-0.2,1.3,1.9,1.3,2.1,0c0.1-1.5,0.5-3,1.2-4.4v1.5l0,7.2v5.7c0,0.6,0.4,1.1,1,1.1c0,0,0,0,0,0c0.6,0,1.1-0.5,1.1-1.1v-8.1h1v8.2
				c0,0.6,0.5,1,1.1,1c0.5,0,1-0.4,1-1v-5.7l0.1-7.2c0-0.7,0-1.3,0-1.7c0.7,1.4,1.2,3,1.3,4.5C10.1,91.2,12.1,91.2,12,89.9z"/>
		</g>
	</g>
	<g id="standing-frontal-man-silhouette-25" transform="translate(2537.041 1145.353)">
		<g id="Group_11679" transform="translate(0 0)">
			<ellipse id="Ellipse_8705" class="st0" cx="6" cy="79.4" rx="1.9" ry="1.9"/>
			<path id="Path_12179" class="st0" d="M12,89.9c-0.5-6.1-3.5-7.4-3.5-7.4c-1.9-1-4.1-0.8-5.8,0.5c-1.9,1.8-2.4,4.4-2.7,7
				c-0.2,1.3,1.9,1.3,2.1,0c0.1-1.5,0.5-3,1.2-4.4v1.5l0,7.2v5.7c0,0.6,0.4,1.1,1,1.1c0,0,0,0,0,0c0.6,0,1.1-0.5,1.1-1.1v-8.1h1v8.2
				c0,0.6,0.5,1,1.1,1c0.5,0,1-0.4,1-1v-5.7l0.1-7.2c0-0.7,0-1.3,0-1.7c0.7,1.4,1.2,3,1.3,4.5C10.1,91.2,12.1,91.2,12,89.9z"/>
		</g>
	</g>
	<g id="standing-frontal-man-silhouette-26" transform="translate(2537.041 1069.776)">
		<g id="Group_11680" transform="translate(0 0)">
			<ellipse id="Ellipse_8706" class="st0" cx="6" cy="79.4" rx="1.9" ry="1.9"/>
			<path id="Path_12180" class="st0" d="M12,89.9c-0.5-6.1-3.5-7.4-3.5-7.4c-1.9-1-4.1-0.8-5.8,0.5c-1.9,1.8-2.4,4.4-2.7,7
				c-0.2,1.3,1.9,1.3,2.1,0c0.1-1.5,0.5-3,1.2-4.4v1.5l0,7.2v5.7c0,0.6,0.4,1.1,1,1.1c0,0,0,0,0,0c0.6,0,1.1-0.5,1.1-1.1v-8.1h1v8.2
				c0,0.6,0.5,1,1.1,1c0.5,0,1-0.4,1-1v-5.7l0.1-7.2c0-0.7,0-1.3,0-1.7c0.7,1.4,1.2,3,1.3,4.5C10.1,91.2,12.1,91.2,12,89.9z"/>
		</g>
	</g>
	<g id="standing-frontal-man-silhouette-27" transform="translate(2537.041 1120.16)">
		<g id="Group_11681" transform="translate(0 0)">
			<ellipse id="Ellipse_8707" class="st0" cx="6" cy="79.4" rx="1.9" ry="1.9"/>
			<path id="Path_12181" class="st0" d="M12,89.9c-0.5-6.1-3.5-7.4-3.5-7.4c-1.9-1-4.1-0.8-5.8,0.5c-1.9,1.8-2.4,4.4-2.7,7
				c-0.2,1.3,1.9,1.3,2.1,0c0.1-1.5,0.5-3,1.2-4.4v1.5l0,7.2v5.7c0,0.6,0.4,1.1,1,1.1c0,0,0,0,0,0c0.6,0,1.1-0.5,1.1-1.1v-8.1h1v8.2
				c0,0.6,0.5,1,1.1,1c0.5,0,1-0.4,1-1v-5.7l0.1-7.2c0-0.7,0-1.3,0-1.7c0.7,1.4,1.2,3,1.3,4.5C10.1,91.2,12.1,91.2,12,89.9z"/>
		</g>
	</g>
	<g id="standing-frontal-man-silhouette-28" transform="translate(2537.041 1170.545)">
		<g id="Group_11682" transform="translate(0 0)">
			<ellipse id="Ellipse_8708" class="st0" cx="6" cy="79.4" rx="1.9" ry="1.9"/>
			<path id="Path_12182" class="st0" d="M12,89.9c-0.5-6.1-3.5-7.4-3.5-7.4c-1.9-1-4.1-0.8-5.8,0.5c-1.9,1.8-2.4,4.4-2.7,7
				c-0.2,1.3,1.9,1.3,2.1,0c0.1-1.5,0.5-3,1.2-4.4v1.5l0,7.2v5.7c0,0.6,0.4,1.1,1,1.1c0,0,0,0,0,0c0.6,0,1.1-0.5,1.1-1.1v-8.1h1v8.2
				c0,0.6,0.5,1,1.1,1c0.5,0,1-0.4,1-1v-5.7l0.1-7.2c0-0.7,0-1.3,0-1.7c0.7,1.4,1.2,3,1.3,4.5C10.1,91.2,12.1,91.2,12,89.9z"/>
		</g>
	</g>
	<g id="standing-frontal-man-silhouette-29" transform="translate(2481.846 944.584)">
		<g id="Group_11683" transform="translate(0 0)">
			<ellipse id="Ellipse_8709" class="st0" cx="6" cy="79.4" rx="1.9" ry="1.9"/>
			<path id="Path_12183" class="st0" d="M12,89.9c-0.5-6.1-3.5-7.4-3.5-7.4c-1.9-1-4.1-0.8-5.8,0.5c-1.9,1.8-2.4,4.4-2.7,7
				c-0.2,1.3,1.9,1.3,2.1,0c0.1-1.5,0.5-3,1.2-4.4v1.5l0,7.2v5.7c0,0.6,0.4,1.1,1,1.1c0,0,0,0,0,0c0.6,0,1.1-0.5,1.1-1.1v-8.1h1v8.2
				c0,0.6,0.5,1,1.1,1c0.5,0,1-0.4,1-1v-5.7l0.1-7.2c0-0.7,0-1.3,0-1.7c0.7,1.4,1.2,3,1.3,4.5C10.1,91.2,12.1,91.2,12,89.9z"/>
		</g>
	</g>
	<g id="standing-frontal-man-silhouette-30" transform="translate(2536.846 944.584)">
		<g id="Group_11683-2" transform="translate(0 0)">
			<ellipse id="Ellipse_8709-2" class="st0" cx="6" cy="79.4" rx="1.9" ry="1.9"/>
			<path id="Path_12183-2" class="st0" d="M12,89.9c-0.5-6.1-3.5-7.4-3.5-7.4c-1.9-1-4.1-0.8-5.8,0.5c-1.9,1.8-2.4,4.4-2.7,7
				c-0.2,1.3,1.9,1.3,2.1,0c0.1-1.5,0.5-3,1.2-4.4v1.5l0,7.2v5.7c0,0.6,0.4,1.1,1,1.1c0,0,0,0,0,0c0.6,0,1.1-0.5,1.1-1.1v-8.1h1v8.2
				c0,0.6,0.5,1,1.1,1c0.5,0,1-0.4,1-1v-5.7l0.1-7.2c0-0.7,0-1.3,0-1.7c0.7,1.4,1.2,3,1.3,4.5C10.1,91.2,12.1,91.2,12,89.9z"/>
		</g>
	</g>
	<g id="standing-frontal-man-silhouette-31" transform="translate(2481.846 919.428)">
		<g id="Group_11684" transform="translate(0 0)">
			<ellipse id="Ellipse_8710" class="st0" cx="6" cy="79.4" rx="1.9" ry="1.9"/>
			<path id="Path_12184" class="st0" d="M12,89.9c-0.5-6.1-3.5-7.4-3.5-7.4c-1.9-1-4.1-0.8-5.8,0.5c-1.9,1.8-2.4,4.4-2.7,7
				c-0.2,1.3,1.9,1.3,2.1,0c0.1-1.5,0.5-3,1.2-4.4v1.5l0,7.2v5.7c0,0.6,0.4,1.1,1,1.1c0,0,0,0,0,0c0.6,0,1.1-0.5,1.1-1.1v-8.1h1v8.2
				c0,0.6,0.5,1,1.1,1c0.5,0,1-0.4,1-1v-5.7l0.1-7.2c0-0.7,0-1.3,0-1.7c0.7,1.4,1.2,3,1.3,4.5C10.1,91.2,12.1,91.2,12,89.9z"/>
		</g>
	</g>
	<g id="standing-frontal-man-silhouette-32" transform="translate(2523.173 944.584)">
		<g id="Group_11685" transform="translate(0 0)">
			<ellipse id="Ellipse_8711" class="st0" cx="6" cy="79.4" rx="1.9" ry="1.9"/>
			<path id="Path_12185" class="st0" d="M12,89.9c-0.5-6.1-3.5-7.4-3.5-7.4c-1.9-1-4.1-0.8-5.8,0.5c-1.9,1.8-2.4,4.4-2.7,7
				c-0.2,1.3,1.9,1.3,2.1,0c0.1-1.5,0.5-3,1.2-4.4v1.5l0,7.2v5.7c0,0.6,0.4,1.1,1,1.1c0,0,0,0,0,0c0.6,0,1.1-0.5,1.1-1.1v-8.1h1v8.2
				c0,0.6,0.5,1,1.1,1c0.5,0,1-0.4,1-1v-5.7l0.1-7.2c0-0.7,0-1.3,0-1.7c0.7,1.4,1.2,3,1.3,4.5C10.1,91.2,12.1,91.2,12,89.9z"/>
		</g>
	</g>
	<g id="standing-frontal-man-silhouette-33" transform="translate(2578.173 944.584)">
		<g id="Group_11685-2" transform="translate(0 0)">
			<ellipse id="Ellipse_8711-2" class="st0" cx="6" cy="79.4" rx="1.9" ry="1.9"/>
			<path id="Path_12185-2" class="st0" d="M12,89.9c-0.5-6.1-3.5-7.4-3.5-7.4c-1.9-1-4.1-0.8-5.8,0.5c-1.9,1.8-2.4,4.4-2.7,7
				c-0.2,1.3,1.9,1.3,2.1,0c0.1-1.5,0.5-3,1.2-4.4v1.5l0,7.2v5.7c0,0.6,0.4,1.1,1,1.1c0,0,0,0,0,0c0.6,0,1.1-0.5,1.1-1.1v-8.1h1v8.2
				c0,0.6,0.5,1,1.1,1c0.5,0,1-0.4,1-1v-5.7l0.1-7.2c0-0.7,0-1.3,0-1.7c0.7,1.4,1.2,3,1.3,4.5C10.1,91.2,12.1,91.2,12,89.9z"/>
		</g>
	</g>
	<g id="standing-frontal-man-silhouette-34" transform="translate(2481.846 994.968)">
		<g id="Group_11686" transform="translate(0 0)">
			<ellipse id="Ellipse_8712" class="st0" cx="6" cy="79.4" rx="1.9" ry="1.9"/>
			<path id="Path_12186" class="st0" d="M12,89.9c-0.5-6.1-3.5-7.4-3.5-7.4c-1.9-1-4.1-0.8-5.8,0.5c-1.9,1.8-2.4,4.4-2.7,7
				c-0.2,1.3,1.9,1.3,2.1,0c0.1-1.5,0.5-3,1.2-4.4v1.5l0,7.2v5.7c0,0.6,0.4,1.1,1,1.1c0,0,0,0,0,0c0.6,0,1.1-0.5,1.1-1.1v-8.1h1v8.2
				c0,0.6,0.5,1,1.1,1c0.5,0,1-0.4,1-1v-5.7l0.1-7.2c0-0.7,0-1.3,0-1.7c0.7,1.4,1.2,3,1.3,4.5C10.1,91.2,12.1,91.2,12,89.9z"/>
		</g>
	</g>
	<g id="standing-frontal-man-silhouette-35" transform="translate(2536.846 994.968)">
		<g id="Group_11686-2" transform="translate(0 0)">
			<ellipse id="Ellipse_8712-2" class="st0" cx="6" cy="79.4" rx="1.9" ry="1.9"/>
			<path id="Path_12186-2" class="st0" d="M12,89.9c-0.5-6.1-3.5-7.4-3.5-7.4c-1.9-1-4.1-0.8-5.8,0.5c-1.9,1.8-2.4,4.4-2.7,7
				c-0.2,1.3,1.9,1.3,2.1,0c0.1-1.5,0.5-3,1.2-4.4v1.5l0,7.2v5.7c0,0.6,0.4,1.1,1,1.1c0,0,0,0,0,0c0.6,0,1.1-0.5,1.1-1.1v-8.1h1v8.2
				c0,0.6,0.5,1,1.1,1c0.5,0,1-0.4,1-1v-5.7l0.1-7.2c0-0.7,0-1.3,0-1.7c0.7,1.4,1.2,3,1.3,4.5C10.1,91.2,12.1,91.2,12,89.9z"/>
		</g>
	</g>
	<g id="standing-frontal-man-silhouette-36" transform="translate(2481.846 969.776)">
		<g id="Group_11688" transform="translate(0 0)">
			<ellipse id="Ellipse_8714" class="st0" cx="6" cy="79.4" rx="1.9" ry="1.9"/>
			<path id="Path_12188" class="st0" d="M12,89.9c-0.5-6.1-3.5-7.4-3.5-7.4c-1.9-1-4.1-0.8-5.8,0.5c-1.9,1.8-2.4,4.4-2.7,7
				c-0.2,1.3,1.9,1.3,2.1,0c0.1-1.5,0.5-3,1.2-4.4v1.5l0,7.2v5.7c0,0.6,0.4,1.1,1,1.1c0,0,0,0,0,0c0.6,0,1.1-0.5,1.1-1.1v-8.1h1v8.2
				c0,0.6,0.5,1,1.1,1c0.5,0,1-0.4,1-1v-5.7l0.1-7.2c0-0.7,0-1.3,0-1.7c0.7,1.4,1.2,3,1.3,4.5C10.1,91.2,12.1,91.2,12,89.9z"/>
		</g>
	</g>
	<g id="standing-frontal-man-silhouette-37" transform="translate(2536.846 969.776)">
		<g id="Group_11688-2" transform="translate(0 0)">
			<ellipse id="Ellipse_8714-2" class="st0" cx="6" cy="79.4" rx="1.9" ry="1.9"/>
			<path id="Path_12188-2" class="st0" d="M12,89.9c-0.5-6.1-3.5-7.4-3.5-7.4c-1.9-1-4.1-0.8-5.8,0.5c-1.9,1.8-2.4,4.4-2.7,7
				c-0.2,1.3,1.9,1.3,2.1,0c0.1-1.5,0.5-3,1.2-4.4v1.5l0,7.2v5.7c0,0.6,0.4,1.1,1,1.1c0,0,0,0,0,0c0.6,0,1.1-0.5,1.1-1.1v-8.1h1v8.2
				c0,0.6,0.5,1,1.1,1c0.5,0,1-0.4,1-1v-5.7l0.1-7.2c0-0.7,0-1.3,0-1.7c0.7,1.4,1.2,3,1.3,4.5C10.1,91.2,12.1,91.2,12,89.9z"/>
		</g>
	</g>
	<g id="standing-frontal-man-silhouette-38" transform="translate(2509.031 1220.584)">
		<g id="Group_11691" transform="translate(0 0)">
			<ellipse id="Ellipse_8717" class="st0" cx="6" cy="79.4" rx="1.9" ry="1.9"/>
			<path id="Path_12191" class="st0" d="M12,89.9c-0.5-6.1-3.5-7.4-3.5-7.4c-1.9-1-4.1-0.8-5.8,0.5c-1.9,1.8-2.4,4.4-2.7,7
				c-0.2,1.3,1.9,1.3,2.1,0c0.1-1.5,0.5-3,1.2-4.4v1.5l0,7.2v5.7c0,0.6,0.4,1.1,1,1.1c0,0,0,0,0,0c0.6,0,1.1-0.5,1.1-1.1v-8.1h1v8.2
				c0,0.6,0.5,1,1.1,1c0.5,0,1-0.4,1-1v-5.7l0.1-7.2c0-0.7,0-1.3,0-1.7c0.7,1.4,1.2,3,1.3,4.5C10.1,91.2,12.1,91.2,12,89.9z"/>
		</g>
	</g>
	<g id="standing-frontal-man-silhouette-39" transform="translate(2509.031 1195.428)">
		<g id="Group_11692" transform="translate(0 0)">
			<ellipse id="Ellipse_8718" class="st0" cx="6" cy="79.4" rx="1.9" ry="1.9"/>
			<path id="Path_12192" class="st0" d="M12,89.9c-0.5-6.1-3.5-7.4-3.5-7.4c-1.9-1-4.1-0.8-5.8,0.5c-1.9,1.8-2.4,4.4-2.7,7
				c-0.2,1.3,1.9,1.3,2.1,0c0.1-1.5,0.5-3,1.2-4.4v1.5l0,7.2v5.7c0,0.6,0.4,1.1,1,1.1c0,0,0,0,0,0c0.6,0,1.1-0.5,1.1-1.1v-8.1h1v8.2
				c0,0.6,0.5,1,1.1,1c0.5,0,1-0.4,1-1v-5.7l0.1-7.2c0-0.7,0-1.3,0-1.7c0.7,1.4,1.2,3,1.3,4.5C10.1,91.2,12.1,91.2,12,89.9z"/>
		</g>
	</g>
	<g id="standing-frontal-man-silhouette-40" transform="translate(2509.031 1270.968)">
		<g id="Group_11693" transform="translate(0 0)">
			<ellipse id="Ellipse_8719" class="st0" cx="6" cy="79.4" rx="1.9" ry="1.9"/>
			<path id="Path_12193" class="st0" d="M12,89.9c-0.5-6.1-3.5-7.4-3.5-7.4c-1.9-1-4.1-0.8-5.8,0.5c-1.9,1.8-2.4,4.4-2.7,7
				c-0.2,1.3,1.9,1.3,2.1,0c0.1-1.5,0.5-3,1.2-4.4v1.5l0,7.2v5.7c0,0.6,0.4,1.1,1,1.1c0,0,0,0,0,0c0.6,0,1.1-0.5,1.1-1.1v-8.1h1v8.2
				c0,0.6,0.5,1,1.1,1c0.5,0,1-0.4,1-1v-5.7l0.1-7.2c0-0.7,0-1.3,0-1.7c0.7,1.4,1.2,3,1.3,4.5C10.1,91.2,12.1,91.2,12,89.9z"/>
		</g>
	</g>
	<g id="standing-frontal-man-silhouette-41" transform="translate(2509.031 1321.353)">
		<g id="Group_11694" transform="translate(0 0)">
			<ellipse id="Ellipse_8720" class="st0" cx="6" cy="79.4" rx="1.9" ry="1.9"/>
			<path id="Path_12194" class="st0" d="M12,89.9c-0.5-6.1-3.5-7.4-3.5-7.4c-1.9-1-4.1-0.8-5.8,0.5c-1.9,1.8-2.4,4.4-2.7,7
				c-0.2,1.3,1.9,1.3,2.1,0c0.1-1.5,0.5-3,1.2-4.4v1.5l0,7.2v5.7c0,0.6,0.4,1.1,1,1.1c0,0,0,0,0,0c0.6,0,1.1-0.5,1.1-1.1v-8.1h1v8.2
				c0,0.6,0.5,1,1.1,1c0.5,0,1-0.4,1-1v-5.7l0.1-7.2c0-0.7,0-1.3,0-1.7c0.7,1.4,1.2,3,1.3,4.5C10.1,91.2,12.1,91.2,12,89.9z"/>
		</g>
	</g>
	<g id="standing-frontal-man-silhouette-42" transform="translate(2509.031 1245.776)">
		<g id="Group_11695" transform="translate(0 0)">
			<ellipse id="Ellipse_8721" class="st0" cx="6" cy="79.4" rx="1.9" ry="1.9"/>
			<path id="Path_12195" class="st0" d="M12,89.9c-0.5-6.1-3.5-7.4-3.5-7.4c-1.9-1-4.1-0.8-5.8,0.5c-1.9,1.8-2.4,4.4-2.7,7
				c-0.2,1.3,1.9,1.3,2.1,0c0.1-1.5,0.5-3,1.2-4.4v1.5l0,7.2v5.7c0,0.6,0.4,1.1,1,1.1c0,0,0,0,0,0c0.6,0,1.1-0.5,1.1-1.1v-8.1h1v8.2
				c0,0.6,0.5,1,1.1,1c0.5,0,1-0.4,1-1v-5.7l0.1-7.2c0-0.7,0-1.3,0-1.7c0.7,1.4,1.2,3,1.3,4.5C10.1,91.2,12.1,91.2,12,89.9z"/>
		</g>
	</g>
	<g id="standing-frontal-man-silhouette-43" transform="translate(2509.031 1296.16)">
		<g id="Group_11696" transform="translate(0 0)">
			<ellipse id="Ellipse_8722" class="st0" cx="6" cy="79.4" rx="1.9" ry="1.9"/>
			<path id="Path_12196" class="st0" d="M12,89.9c-0.5-6.1-3.5-7.4-3.5-7.4c-1.9-1-4.1-0.8-5.8,0.5c-1.9,1.8-2.4,4.4-2.7,7
				c-0.2,1.3,1.9,1.3,2.1,0c0.1-1.5,0.5-3,1.2-4.4v1.5l0,7.2v5.7c0,0.6,0.4,1.1,1,1.1c0,0,0,0,0,0c0.6,0,1.1-0.5,1.1-1.1v-8.1h1v8.2
				c0,0.6,0.5,1,1.1,1c0.5,0,1-0.4,1-1v-5.7l0.1-7.2c0-0.7,0-1.3,0-1.7c0.7,1.4,1.2,3,1.3,4.5C10.1,91.2,12.1,91.2,12,89.9z"/>
		</g>
	</g>
	<g id="standing-frontal-man-silhouette-44" transform="translate(2509.031 1346.545)">
		<g id="Group_11697" transform="translate(0 0)">
			<ellipse id="Ellipse_8723" class="st0" cx="6" cy="79.4" rx="1.9" ry="1.9"/>
			<path id="Path_12197" class="st0" d="M12,89.9c-0.5-6.1-3.5-7.4-3.5-7.4c-1.9-1-4.1-0.8-5.8,0.5c-1.9,1.8-2.4,4.4-2.7,7
				c-0.2,1.3,1.9,1.3,2.1,0c0.1-1.5,0.5-3,1.2-4.4v1.5l0,7.2v5.7c0,0.6,0.4,1.1,1,1.1c0,0,0,0,0,0c0.6,0,1.1-0.5,1.1-1.1v-8.1h1v8.2
				c0,0.6,0.5,1,1.1,1c0.5,0,1-0.4,1-1v-5.7l0.1-7.2c0-0.7,0-1.3,0-1.7c0.7,1.4,1.2,3,1.3,4.5C10.1,91.2,12.1,91.2,12,89.9z"/>
		</g>
	</g>
	<g id="standing-frontal-man-silhouette-45" transform="translate(2509.64 1044.584)">
		<g id="Group_11698" transform="translate(0 0)">
			<ellipse id="Ellipse_8724" class="st0" cx="6" cy="79.4" rx="1.9" ry="1.9"/>
			<path id="Path_12198" class="st0" d="M12,89.9c-0.5-6.1-3.5-7.4-3.5-7.4c-1.9-1-4.1-0.8-5.8,0.5c-1.9,1.8-2.4,4.4-2.7,7
				c-0.2,1.3,1.9,1.3,2.1,0c0.1-1.5,0.5-3,1.2-4.4v1.5l0,7.2v5.7c0,0.6,0.4,1.1,1,1.1c0,0,0,0,0,0c0.6,0,1.1-0.5,1.1-1.1v-8.1h1v8.2
				c0,0.6,0.5,1,1.1,1c0.5,0,1-0.4,1-1v-5.7l0.1-7.2c0-0.7,0-1.3,0-1.7c0.7,1.4,1.2,3,1.3,4.5C10.1,91.2,12.1,91.2,12,89.9z"/>
		</g>
	</g>
	<g id="standing-frontal-man-silhouette-46" transform="translate(2509.64 1019.428)">
		<g id="Group_11699" transform="translate(0 0)">
			<ellipse id="Ellipse_8725" class="st0" cx="6" cy="79.4" rx="1.9" ry="1.9"/>
			<path id="Path_12199" class="st0" d="M12,89.9c-0.5-6.1-3.5-7.4-3.5-7.4c-1.9-1-4.1-0.8-5.8,0.5c-1.9,1.8-2.4,4.4-2.7,7
				c-0.2,1.3,1.9,1.3,2.1,0c0.1-1.5,0.5-3,1.2-4.4v1.5l0,7.2v5.7c0,0.6,0.4,1.1,1,1.1c0,0,0,0,0,0c0.6,0,1.1-0.5,1.1-1.1v-8.1h1v8.2
				c0,0.6,0.5,1,1.1,1c0.5,0,1-0.4,1-1v-5.7l0.1-7.2c0-0.7,0-1.3,0-1.7c0.7,1.4,1.2,3,1.3,4.5C10.1,91.2,12.1,91.2,12,89.9z"/>
		</g>
	</g>
	<g id="standing-frontal-man-silhouette-47" transform="translate(2509.64 1094.968)">
		<g id="Group_11700" transform="translate(0 0)">
			<ellipse id="Ellipse_8726" class="st0" cx="6" cy="79.4" rx="1.9" ry="1.9"/>
			<path id="Path_12200" class="st0" d="M12,89.9c-0.5-6.1-3.5-7.4-3.5-7.4c-1.9-1-4.1-0.8-5.8,0.5c-1.9,1.8-2.4,4.4-2.7,7
				c-0.2,1.3,1.9,1.3,2.1,0c0.1-1.5,0.5-3,1.2-4.4v1.5l0,7.2v5.7c0,0.6,0.4,1.1,1,1.1c0,0,0,0,0,0c0.6,0,1.1-0.5,1.1-1.1v-8.1h1v8.2
				c0,0.6,0.5,1,1.1,1c0.5,0,1-0.4,1-1v-5.7l0.1-7.2c0-0.7,0-1.3,0-1.7c0.7,1.4,1.2,3,1.3,4.5C10.1,91.2,12.1,91.2,12,89.9z"/>
		</g>
	</g>
	<g id="standing-frontal-man-silhouette-48" transform="translate(2509.64 1145.353)">
		<g id="Group_11701" transform="translate(0 0)">
			<ellipse id="Ellipse_8727" class="st0" cx="6" cy="79.4" rx="1.9" ry="1.9"/>
			<path id="Path_12201" class="st0" d="M12,89.9c-0.5-6.1-3.5-7.4-3.5-7.4c-1.9-1-4.1-0.8-5.8,0.5c-1.9,1.8-2.4,4.4-2.7,7
				c-0.2,1.3,1.9,1.3,2.1,0c0.1-1.5,0.5-3,1.2-4.4v1.5l0,7.2v5.7c0,0.6,0.4,1.1,1,1.1c0,0,0,0,0,0c0.6,0,1.1-0.5,1.1-1.1v-8.1h1v8.2
				c0,0.6,0.5,1,1.1,1c0.5,0,1-0.4,1-1v-5.7l0.1-7.2c0-0.7,0-1.3,0-1.7c0.7,1.4,1.2,3,1.3,4.5C10.1,91.2,12.1,91.2,12,89.9z"/>
		</g>
	</g>
	<g id="standing-frontal-man-silhouette-49" transform="translate(2509.64 1069.776)">
		<g id="Group_11702" transform="translate(0 0)">
			<ellipse id="Ellipse_8728" class="st0" cx="6" cy="79.4" rx="1.9" ry="1.9"/>
			<path id="Path_12202" class="st0" d="M12,89.9c-0.5-6.1-3.5-7.4-3.5-7.4c-1.9-1-4.1-0.8-5.8,0.5c-1.9,1.8-2.4,4.4-2.7,7
				c-0.2,1.3,1.9,1.3,2.1,0c0.1-1.5,0.5-3,1.2-4.4v1.5l0,7.2v5.7c0,0.6,0.4,1.1,1,1.1c0,0,0,0,0,0c0.6,0,1.1-0.5,1.1-1.1v-8.1h1v8.2
				c0,0.6,0.5,1,1.1,1c0.5,0,1-0.4,1-1v-5.7l0.1-7.2c0-0.7,0-1.3,0-1.7c0.7,1.4,1.2,3,1.3,4.5C10.1,91.2,12.1,91.2,12,89.9z"/>
		</g>
	</g>
	<g id="standing-frontal-man-silhouette-50" transform="translate(2509.64 1120.16)">
		<g id="Group_11703" transform="translate(0 0)">
			<ellipse id="Ellipse_8729" class="st0" cx="6" cy="79.4" rx="1.9" ry="1.9"/>
			<path id="Path_12203" class="st0" d="M12,89.9c-0.5-6.1-3.5-7.4-3.5-7.4c-1.9-1-4.1-0.8-5.8,0.5c-1.9,1.8-2.4,4.4-2.7,7
				c-0.2,1.3,1.9,1.3,2.1,0c0.1-1.5,0.5-3,1.2-4.4v1.5l0,7.2v5.7c0,0.6,0.4,1.1,1,1.1c0,0,0,0,0,0c0.6,0,1.1-0.5,1.1-1.1v-8.1h1v8.2
				c0,0.6,0.5,1,1.1,1c0.5,0,1-0.4,1-1v-5.7l0.1-7.2c0-0.7,0-1.3,0-1.7c0.7,1.4,1.2,3,1.3,4.5C10.1,91.2,12.1,91.2,12,89.9z"/>
		</g>
	</g>
	<g id="standing-frontal-man-silhouette-51" transform="translate(2509.64 1170.545)">
		<g id="Group_11704" transform="translate(0 0)">
			<ellipse id="Ellipse_8730" class="st0" cx="6" cy="79.4" rx="1.9" ry="1.9"/>
			<path id="Path_12204" class="st0" d="M12,89.9c-0.5-6.1-3.5-7.4-3.5-7.4c-1.9-1-4.1-0.8-5.8,0.5c-1.9,1.8-2.4,4.4-2.7,7
				c-0.2,1.3,1.9,1.3,2.1,0c0.1-1.5,0.5-3,1.2-4.4v1.5l0,7.2v5.7c0,0.6,0.4,1.1,1,1.1c0,0,0,0,0,0c0.6,0,1.1-0.5,1.1-1.1v-8.1h1v8.2
				c0,0.6,0.5,1,1.1,1c0.5,0,1-0.4,1-1v-5.7l0.1-7.2c0-0.7,0-1.3,0-1.7c0.7,1.4,1.2,3,1.3,4.5C10.1,91.2,12.1,91.2,12,89.9z"/>
		</g>
	</g>
	<g id="standing-frontal-man-silhouette-52" transform="translate(2563.836 1220.584)">
		<g id="Group_11705" transform="translate(0 0)">
			<ellipse id="Ellipse_8731" class="st0" cx="6" cy="79.4" rx="1.9" ry="1.9"/>
			<path id="Path_12205" class="st0" d="M12,89.9c-0.5-6.1-3.5-7.4-3.5-7.4c-1.9-1-4.1-0.8-5.8,0.5c-1.9,1.8-2.4,4.4-2.7,7
				c-0.2,1.3,1.9,1.3,2.1,0c0.1-1.5,0.5-3,1.2-4.4v1.5l0,7.2v5.7c0,0.6,0.4,1.1,1,1.1c0,0,0,0,0,0c0.6,0,1.1-0.5,1.1-1.1v-8.1h1v8.2
				c0,0.6,0.5,1,1.1,1c0.5,0,1-0.4,1-1v-5.7l0.1-7.2c0-0.7,0-1.3,0-1.7c0.7,1.4,1.2,3,1.3,4.5C10.1,91.2,12.1,91.2,12,89.9z"/>
		</g>
	</g>
	<g id="standing-frontal-man-silhouette-53" transform="translate(2563.836 1195.428)">
		<g id="Group_11706" transform="translate(0 0)">
			<ellipse id="Ellipse_8732" class="st0" cx="6" cy="79.4" rx="1.9" ry="1.9"/>
			<path id="Path_12206" class="st0" d="M12,89.9c-0.5-6.1-3.5-7.4-3.5-7.4c-1.9-1-4.1-0.8-5.8,0.5c-1.9,1.8-2.4,4.4-2.7,7
				c-0.2,1.3,1.9,1.3,2.1,0c0.1-1.5,0.5-3,1.2-4.4v1.5l0,7.2v5.7c0,0.6,0.4,1.1,1,1.1c0,0,0,0,0,0c0.6,0,1.1-0.5,1.1-1.1v-8.1h1v8.2
				c0,0.6,0.5,1,1.1,1c0.5,0,1-0.4,1-1v-5.7l0.1-7.2c0-0.7,0-1.3,0-1.7c0.7,1.4,1.2,3,1.3,4.5C10.1,91.2,12.1,91.2,12,89.9z"/>
		</g>
	</g>
	<g id="standing-frontal-man-silhouette-54" transform="translate(2563.836 1270.968)">
		<g id="Group_11707" transform="translate(0 0)">
			<ellipse id="Ellipse_8733" class="st0" cx="6" cy="79.4" rx="1.9" ry="1.9"/>
			<path id="Path_12207" class="st0" d="M12,89.9c-0.5-6.1-3.5-7.4-3.5-7.4c-1.9-1-4.1-0.8-5.8,0.5c-1.9,1.8-2.4,4.4-2.7,7
				c-0.2,1.3,1.9,1.3,2.1,0c0.1-1.5,0.5-3,1.2-4.4v1.5l0,7.2v5.7c0,0.6,0.4,1.1,1,1.1c0,0,0,0,0,0c0.6,0,1.1-0.5,1.1-1.1v-8.1h1v8.2
				c0,0.6,0.5,1,1.1,1c0.5,0,1-0.4,1-1v-5.7l0.1-7.2c0-0.7,0-1.3,0-1.7c0.7,1.4,1.2,3,1.3,4.5C10.1,91.2,12.1,91.2,12,89.9z"/>
		</g>
	</g>
	<g id="standing-frontal-man-silhouette-55" transform="translate(2563.836 1321.353)">
		<g id="Group_11708" transform="translate(0 0)">
			<ellipse id="Ellipse_8734" class="st0" cx="6" cy="79.4" rx="1.9" ry="1.9"/>
			<path id="Path_12208" class="st0" d="M12,89.9c-0.5-6.1-3.5-7.4-3.5-7.4c-1.9-1-4.1-0.8-5.8,0.5c-1.9,1.8-2.4,4.4-2.7,7
				c-0.2,1.3,1.9,1.3,2.1,0c0.1-1.5,0.5-3,1.2-4.4v1.5l0,7.2v5.7c0,0.6,0.4,1.1,1,1.1c0,0,0,0,0,0c0.6,0,1.1-0.5,1.1-1.1v-8.1h1v8.2
				c0,0.6,0.5,1,1.1,1c0.5,0,1-0.4,1-1v-5.7l0.1-7.2c0-0.7,0-1.3,0-1.7c0.7,1.4,1.2,3,1.3,4.5C10.1,91.2,12.1,91.2,12,89.9z"/>
		</g>
	</g>
	<g id="standing-frontal-man-silhouette-56" transform="translate(2563.836 1245.776)">
		<g id="Group_11709" transform="translate(0 0)">
			<ellipse id="Ellipse_8735" class="st0" cx="6" cy="79.4" rx="1.9" ry="1.9"/>
			<path id="Path_12209" class="st0" d="M12,89.9c-0.5-6.1-3.5-7.4-3.5-7.4c-1.9-1-4.1-0.8-5.8,0.5c-1.9,1.8-2.4,4.4-2.7,7
				c-0.2,1.3,1.9,1.3,2.1,0c0.1-1.5,0.5-3,1.2-4.4v1.5l0,7.2v5.7c0,0.6,0.4,1.1,1,1.1c0,0,0,0,0,0c0.6,0,1.1-0.5,1.1-1.1v-8.1h1v8.2
				c0,0.6,0.5,1,1.1,1c0.5,0,1-0.4,1-1v-5.7l0.1-7.2c0-0.7,0-1.3,0-1.7c0.7,1.4,1.2,3,1.3,4.5C10.1,91.2,12.1,91.2,12,89.9z"/>
		</g>
	</g>
	<g id="standing-frontal-man-silhouette-57" transform="translate(2563.836 1296.16)">
		<g id="Group_11710" transform="translate(0 0)">
			<ellipse id="Ellipse_8736" class="st0" cx="6" cy="79.4" rx="1.9" ry="1.9"/>
			<path id="Path_12210" class="st0" d="M12,89.9c-0.5-6.1-3.5-7.4-3.5-7.4c-1.9-1-4.1-0.8-5.8,0.5c-1.9,1.8-2.4,4.4-2.7,7
				c-0.2,1.3,1.9,1.3,2.1,0c0.1-1.5,0.5-3,1.2-4.4v1.5l0,7.2v5.7c0,0.6,0.4,1.1,1,1.1c0,0,0,0,0,0c0.6,0,1.1-0.5,1.1-1.1v-8.1h1v8.2
				c0,0.6,0.5,1,1.1,1c0.5,0,1-0.4,1-1v-5.7l0.1-7.2c0-0.7,0-1.3,0-1.7c0.7,1.4,1.2,3,1.3,4.5C10.1,91.2,12.1,91.2,12,89.9z"/>
		</g>
	</g>
	<g id="standing-frontal-man-silhouette-58" transform="translate(2563.836 1346.545)">
		<g id="Group_11711" transform="translate(0 0)">
			<ellipse id="Ellipse_8737" class="st0" cx="6" cy="79.4" rx="1.9" ry="1.9"/>
			<path id="Path_12211" class="st0" d="M12,89.9c-0.5-6.1-3.5-7.4-3.5-7.4c-1.9-1-4.1-0.8-5.8,0.5c-1.9,1.8-2.4,4.4-2.7,7
				c-0.2,1.3,1.9,1.3,2.1,0c0.1-1.5,0.5-3,1.2-4.4v1.5l0,7.2v5.7c0,0.6,0.4,1.1,1,1.1c0,0,0,0,0,0c0.6,0,1.1-0.5,1.1-1.1v-8.1h1v8.2
				c0,0.6,0.5,1,1.1,1c0.5,0,1-0.4,1-1v-5.7l0.1-7.2c0-0.7,0-1.3,0-1.7c0.7,1.4,1.2,3,1.3,4.5C10.1,91.2,12.1,91.2,12,89.9z"/>
		</g>
	</g>
	<g id="standing-frontal-man-silhouette-59" transform="translate(2564.443 1044.584)">
		<g id="Group_11712" transform="translate(0 0)">
			<ellipse id="Ellipse_8738" class="st0" cx="6" cy="79.4" rx="1.9" ry="1.9"/>
			<path id="Path_12212" class="st0" d="M12,89.9c-0.5-6.1-3.5-7.4-3.5-7.4c-1.9-1-4.1-0.8-5.8,0.5c-1.9,1.8-2.4,4.4-2.7,7
				c-0.2,1.3,1.9,1.3,2.1,0c0.1-1.5,0.5-3,1.2-4.4v1.5l0,7.2v5.7c0,0.6,0.4,1.1,1,1.1c0,0,0,0,0,0c0.6,0,1.1-0.5,1.1-1.1v-8.1h1v8.2
				c0,0.6,0.5,1,1.1,1c0.5,0,1-0.4,1-1v-5.7l0.1-7.2c0-0.7,0-1.3,0-1.7c0.7,1.4,1.2,3,1.3,4.5C10.1,91.2,12.1,91.2,12,89.9z"/>
		</g>
	</g>
	<g id="standing-frontal-man-silhouette-60" transform="translate(2564.443 1019.428)">
		<g id="Group_11713" transform="translate(0 0)">
			<ellipse id="Ellipse_8739" class="st0" cx="6" cy="79.4" rx="1.9" ry="1.9"/>
			<path id="Path_12213" class="st0" d="M12,89.9c-0.5-6.1-3.5-7.4-3.5-7.4c-1.9-1-4.1-0.8-5.8,0.5c-1.9,1.8-2.4,4.4-2.7,7
				c-0.2,1.3,1.9,1.3,2.1,0c0.1-1.5,0.5-3,1.2-4.4v1.5l0,7.2v5.7c0,0.6,0.4,1.1,1,1.1c0,0,0,0,0,0c0.6,0,1.1-0.5,1.1-1.1v-8.1h1v8.2
				c0,0.6,0.5,1,1.1,1c0.5,0,1-0.4,1-1v-5.7l0.1-7.2c0-0.7,0-1.3,0-1.7c0.7,1.4,1.2,3,1.3,4.5C10.1,91.2,12.1,91.2,12,89.9z"/>
		</g>
	</g>
	<g id="standing-frontal-man-silhouette-61" transform="translate(2495.77 944.584)">
		<g id="Group_11714" transform="translate(0 0)">
			<ellipse id="Ellipse_8740" class="st0" cx="6" cy="79.4" rx="1.9" ry="1.9"/>
			<path id="Path_12214" class="st0" d="M12,89.9c-0.5-6.1-3.5-7.4-3.5-7.4c-1.9-1-4.1-0.8-5.8,0.5c-1.9,1.8-2.4,4.4-2.7,7
				c-0.2,1.3,1.9,1.3,2.1,0c0.1-1.5,0.5-3,1.2-4.4v1.5l0,7.2v5.7c0,0.6,0.4,1.1,1,1.1c0,0,0,0,0,0c0.6,0,1.1-0.5,1.1-1.1v-8.1h1v8.2
				c0,0.6,0.5,1,1.1,1c0.5,0,1-0.4,1-1v-5.7l0.1-7.2c0-0.7,0-1.3,0-1.7c0.7,1.4,1.2,3,1.3,4.5C10.1,91.2,12.1,91.2,12,89.9z"/>
		</g>
	</g>
	<g id="standing-frontal-man-silhouette-62" transform="translate(2550.77 944.584)">
		<g id="Group_11714-2" transform="translate(0 0)">
			<ellipse id="Ellipse_8740-2" class="st0" cx="6" cy="79.4" rx="1.9" ry="1.9"/>
			<path id="Path_12214-2" class="st0" d="M12,89.9c-0.5-6.1-3.5-7.4-3.5-7.4c-1.9-1-4.1-0.8-5.8,0.5c-1.9,1.8-2.4,4.4-2.7,7
				c-0.2,1.3,1.9,1.3,2.1,0c0.1-1.5,0.5-3,1.2-4.4v1.5l0,7.2v5.7c0,0.6,0.4,1.1,1,1.1c0,0,0,0,0,0c0.6,0,1.1-0.5,1.1-1.1v-8.1h1v8.2
				c0,0.6,0.5,1,1.1,1c0.5,0,1-0.4,1-1v-5.7l0.1-7.2c0-0.7,0-1.3,0-1.7c0.7,1.4,1.2,3,1.3,4.5C10.1,91.2,12.1,91.2,12,89.9z"/>
		</g>
	</g>
	<g id="standing-frontal-man-silhouette-63" transform="translate(2495.77 919.428)">
		<g id="Group_11715" transform="translate(0 0)">
			<ellipse id="Ellipse_8741" class="st0" cx="6" cy="79.4" rx="1.9" ry="1.9"/>
			<path id="Path_12215" class="st0" d="M12,89.9c-0.5-6.1-3.5-7.4-3.5-7.4c-1.9-1-4.1-0.8-5.8,0.5c-1.9,1.8-2.4,4.4-2.7,7
				c-0.2,1.3,1.9,1.3,2.1,0c0.1-1.5,0.5-3,1.2-4.4v1.5l0,7.2v5.7c0,0.6,0.4,1.1,1,1.1c0,0,0,0,0,0c0.6,0,1.1-0.5,1.1-1.1v-8.1h1v8.2
				c0,0.6,0.5,1,1.1,1c0.5,0,1-0.4,1-1v-5.7l0.1-7.2c0-0.7,0-1.3,0-1.7c0.7,1.4,1.2,3,1.3,4.5C10.1,91.2,12.1,91.2,12,89.9z"/>
		</g>
	</g>
	<g id="standing-frontal-man-silhouette-64" transform="translate(2564.443 1094.968)">
		<g id="Group_11716" transform="translate(0 0)">
			<ellipse id="Ellipse_8742" class="st0" cx="6" cy="79.4" rx="1.9" ry="1.9"/>
			<path id="Path_12216" class="st0" d="M12,89.9c-0.5-6.1-3.5-7.4-3.5-7.4c-1.9-1-4.1-0.8-5.8,0.5c-1.9,1.8-2.4,4.4-2.7,7
				c-0.2,1.3,1.9,1.3,2.1,0c0.1-1.5,0.5-3,1.2-4.4v1.5l0,7.2v5.7c0,0.6,0.4,1.1,1,1.1c0,0,0,0,0,0c0.6,0,1.1-0.5,1.1-1.1v-8.1h1v8.2
				c0,0.6,0.5,1,1.1,1c0.5,0,1-0.4,1-1v-5.7l0.1-7.2c0-0.7,0-1.3,0-1.7c0.7,1.4,1.2,3,1.3,4.5C10.1,91.2,12.1,91.2,12,89.9z"/>
		</g>
	</g>
	<g id="standing-frontal-man-silhouette-65" transform="translate(2564.443 1145.353)">
		<g id="Group_11717" transform="translate(0 0)">
			<ellipse id="Ellipse_8743" class="st0" cx="6" cy="79.4" rx="1.9" ry="1.9"/>
			<path id="Path_12217" class="st0" d="M12,89.9c-0.5-6.1-3.5-7.4-3.5-7.4c-1.9-1-4.1-0.8-5.8,0.5c-1.9,1.8-2.4,4.4-2.7,7
				c-0.2,1.3,1.9,1.3,2.1,0c0.1-1.5,0.5-3,1.2-4.4v1.5l0,7.2v5.7c0,0.6,0.4,1.1,1,1.1c0,0,0,0,0,0c0.6,0,1.1-0.5,1.1-1.1v-8.1h1v8.2
				c0,0.6,0.5,1,1.1,1c0.5,0,1-0.4,1-1v-5.7l0.1-7.2c0-0.7,0-1.3,0-1.7c0.7,1.4,1.2,3,1.3,4.5C10.1,91.2,12.1,91.2,12,89.9z"/>
		</g>
	</g>
	<g id="standing-frontal-man-silhouette-66" transform="translate(2564.443 1069.776)">
		<g id="Group_11718" transform="translate(0 0)">
			<ellipse id="Ellipse_8744" class="st0" cx="6" cy="79.4" rx="1.9" ry="1.9"/>
			<path id="Path_12218" class="st0" d="M12,89.9c-0.5-6.1-3.5-7.4-3.5-7.4c-1.9-1-4.1-0.8-5.8,0.5c-1.9,1.8-2.4,4.4-2.7,7
				c-0.2,1.3,1.9,1.3,2.1,0c0.1-1.5,0.5-3,1.2-4.4v1.5l0,7.2v5.7c0,0.6,0.4,1.1,1,1.1c0,0,0,0,0,0c0.6,0,1.1-0.5,1.1-1.1v-8.1h1v8.2
				c0,0.6,0.5,1,1.1,1c0.5,0,1-0.4,1-1v-5.7l0.1-7.2c0-0.7,0-1.3,0-1.7c0.7,1.4,1.2,3,1.3,4.5C10.1,91.2,12.1,91.2,12,89.9z"/>
		</g>
	</g>
	<g id="standing-frontal-man-silhouette-67" transform="translate(2564.443 1120.16)">
		<g id="Group_11719" transform="translate(0 0)">
			<ellipse id="Ellipse_8745" class="st0" cx="6" cy="79.4" rx="1.9" ry="1.9"/>
			<path id="Path_12219" class="st0" d="M12,89.9c-0.5-6.1-3.5-7.4-3.5-7.4c-1.9-1-4.1-0.8-5.8,0.5c-1.9,1.8-2.4,4.4-2.7,7
				c-0.2,1.3,1.9,1.3,2.1,0c0.1-1.5,0.5-3,1.2-4.4v1.5l0,7.2v5.7c0,0.6,0.4,1.1,1,1.1c0,0,0,0,0,0c0.6,0,1.1-0.5,1.1-1.1v-8.1h1v8.2
				c0,0.6,0.5,1,1.1,1c0.5,0,1-0.4,1-1v-5.7l0.1-7.2c0-0.7,0-1.3,0-1.7c0.7,1.4,1.2,3,1.3,4.5C10.1,91.2,12.1,91.2,12,89.9z"/>
		</g>
	</g>
	<g id="standing-frontal-man-silhouette-68" transform="translate(2564.443 1170.545)">
		<g id="Group_11720" transform="translate(0 0)">
			<ellipse id="Ellipse_8746" class="st0" cx="6" cy="79.4" rx="1.9" ry="1.9"/>
			<path id="Path_12220" class="st0" d="M12,89.9c-0.5-6.1-3.5-7.4-3.5-7.4c-1.9-1-4.1-0.8-5.8,0.5c-1.9,1.8-2.4,4.4-2.7,7
				c-0.2,1.3,1.9,1.3,2.1,0c0.1-1.5,0.5-3,1.2-4.4v1.5l0,7.2v5.7c0,0.6,0.4,1.1,1,1.1c0,0,0,0,0,0c0.6,0,1.1-0.5,1.1-1.1v-8.1h1v8.2
				c0,0.6,0.5,1,1.1,1c0.5,0,1-0.4,1-1v-5.7l0.1-7.2c0-0.7,0-1.3,0-1.7c0.7,1.4,1.2,3,1.3,4.5C10.1,91.2,12.1,91.2,12,89.9z"/>
		</g>
	</g>
	<g id="standing-frontal-man-silhouette-69" transform="translate(2509.247 994.968)">
		<g id="Group_11721" transform="translate(0 0)">
			<ellipse id="Ellipse_8747" class="st0" cx="6" cy="79.4" rx="1.9" ry="1.9"/>
			<path id="Path_12221" class="st0" d="M12,89.9c-0.5-6.1-3.5-7.4-3.5-7.4c-1.9-1-4.1-0.8-5.8,0.5c-1.9,1.8-2.4,4.4-2.7,7
				c-0.2,1.3,1.9,1.3,2.1,0c0.1-1.5,0.5-3,1.2-4.4v1.5l0,7.2v5.7c0,0.6,0.4,1.1,1,1.1c0,0,0,0,0,0c0.6,0,1.1-0.5,1.1-1.1v-8.1h1v8.2
				c0,0.6,0.5,1,1.1,1c0.5,0,1-0.4,1-1v-5.7l0.1-7.2c0-0.7,0-1.3,0-1.7c0.7,1.4,1.2,3,1.3,4.5C10.1,91.2,12.1,91.2,12,89.9z"/>
		</g>
	</g>
	<g id="standing-frontal-man-silhouette-70" transform="translate(2564.247 994.968)">
		<g id="Group_11721-2" transform="translate(0 0)">
			<ellipse id="Ellipse_8747-2" class="st0" cx="6" cy="79.4" rx="1.9" ry="1.9"/>
			<path id="Path_12221-2" class="st0" d="M12,89.9c-0.5-6.1-3.5-7.4-3.5-7.4c-1.9-1-4.1-0.8-5.8,0.5c-1.9,1.8-2.4,4.4-2.7,7
				c-0.2,1.3,1.9,1.3,2.1,0c0.1-1.5,0.5-3,1.2-4.4v1.5l0,7.2v5.7c0,0.6,0.4,1.1,1,1.1c0,0,0,0,0,0c0.6,0,1.1-0.5,1.1-1.1v-8.1h1v8.2
				c0,0.6,0.5,1,1.1,1c0.5,0,1-0.4,1-1v-5.7l0.1-7.2c0-0.7,0-1.3,0-1.7c0.7,1.4,1.2,3,1.3,4.5C10.1,91.2,12.1,91.2,12,89.9z"/>
		</g>
	</g>
	<g id="standing-frontal-man-silhouette-71" transform="translate(2509.247 969.776)">
		<g id="Group_11723" transform="translate(0 0)">
			<ellipse id="Ellipse_8749" class="st0" cx="6" cy="79.4" rx="1.9" ry="1.9"/>
			<path id="Path_12223" class="st0" d="M12,89.9c-0.5-6.1-3.5-7.4-3.5-7.4c-1.9-1-4.1-0.8-5.8,0.5c-1.9,1.8-2.4,4.4-2.7,7
				c-0.2,1.3,1.9,1.3,2.1,0c0.1-1.5,0.5-3,1.2-4.4v1.5l0,7.2v5.7c0,0.6,0.4,1.1,1,1.1c0,0,0,0,0,0c0.6,0,1.1-0.5,1.1-1.1v-8.1h1v8.2
				c0,0.6,0.5,1,1.1,1c0.5,0,1-0.4,1-1v-5.7l0.1-7.2c0-0.7,0-1.3,0-1.7c0.7,1.4,1.2,3,1.3,4.5C10.1,91.2,12.1,91.2,12,89.9z"/>
		</g>
	</g>
	<g id="standing-frontal-man-silhouette-72" transform="translate(2564.247 969.776)">
		<g id="Group_11723-2" transform="translate(0 0)">
			<ellipse id="Ellipse_8749-2" class="st0" cx="6" cy="79.4" rx="1.9" ry="1.9"/>
			<path id="Path_12223-2" class="st0" d="M12,89.9c-0.5-6.1-3.5-7.4-3.5-7.4c-1.9-1-4.1-0.8-5.8,0.5c-1.9,1.8-2.4,4.4-2.7,7
				c-0.2,1.3,1.9,1.3,2.1,0c0.1-1.5,0.5-3,1.2-4.4v1.5l0,7.2v5.7c0,0.6,0.4,1.1,1,1.1c0,0,0,0,0,0c0.6,0,1.1-0.5,1.1-1.1v-8.1h1v8.2
				c0,0.6,0.5,1,1.1,1c0.5,0,1-0.4,1-1v-5.7l0.1-7.2c0-0.7,0-1.3,0-1.7c0.7,1.4,1.2,3,1.3,4.5C10.1,91.2,12.1,91.2,12,89.9z"/>
		</g>
	</g>
	<g id="standing-frontal-man-silhouette-73" transform="translate(2495.331 1220.584)">
		<g id="Group_11726" transform="translate(0 0)">
			<ellipse id="Ellipse_8752" class="st0" cx="6" cy="79.4" rx="1.9" ry="1.9"/>
			<path id="Path_12226" class="st0" d="M12,89.9c-0.5-6.1-3.5-7.4-3.5-7.4c-1.9-1-4.1-0.8-5.8,0.5c-1.9,1.8-2.4,4.4-2.7,7
				c-0.2,1.3,1.9,1.3,2.1,0c0.1-1.5,0.5-3,1.2-4.4v1.5l0,7.2v5.7c0,0.6,0.4,1.1,1,1.1c0,0,0,0,0,0c0.6,0,1.1-0.5,1.1-1.1v-8.1h1v8.2
				c0,0.6,0.5,1,1.1,1c0.5,0,1-0.4,1-1v-5.7l0.1-7.2c0-0.7,0-1.3,0-1.7c0.7,1.4,1.2,3,1.3,4.5C10.1,91.2,12.1,91.2,12,89.9z"/>
		</g>
	</g>
	<g id="standing-frontal-man-silhouette-74" transform="translate(2495.331 1195.428)">
		<g id="Group_11727" transform="translate(0 0)">
			<ellipse id="Ellipse_8753" class="st0" cx="6" cy="79.4" rx="1.9" ry="1.9"/>
			<path id="Path_12227" class="st0" d="M12,89.9c-0.5-6.1-3.5-7.4-3.5-7.4c-1.9-1-4.1-0.8-5.8,0.5c-1.9,1.8-2.4,4.4-2.7,7
				c-0.2,1.3,1.9,1.3,2.1,0c0.1-1.5,0.5-3,1.2-4.4v1.5l0,7.2v5.7c0,0.6,0.4,1.1,1,1.1c0,0,0,0,0,0c0.6,0,1.1-0.5,1.1-1.1v-8.1h1v8.2
				c0,0.6,0.5,1,1.1,1c0.5,0,1-0.4,1-1v-5.7l0.1-7.2c0-0.7,0-1.3,0-1.7c0.7,1.4,1.2,3,1.3,4.5C10.1,91.2,12.1,91.2,12,89.9z"/>
		</g>
	</g>
	<g id="standing-frontal-man-silhouette-75" transform="translate(2495.331 1270.968)">
		<g id="Group_11728" transform="translate(0 0)">
			<ellipse id="Ellipse_8754" class="st0" cx="6" cy="79.4" rx="1.9" ry="1.9"/>
			<path id="Path_12228" class="st0" d="M12,89.9c-0.5-6.1-3.5-7.4-3.5-7.4c-1.9-1-4.1-0.8-5.8,0.5c-1.9,1.8-2.4,4.4-2.7,7
				c-0.2,1.3,1.9,1.3,2.1,0c0.1-1.5,0.5-3,1.2-4.4v1.5l0,7.2v5.7c0,0.6,0.4,1.1,1,1.1c0,0,0,0,0,0c0.6,0,1.1-0.5,1.1-1.1v-8.1h1v8.2
				c0,0.6,0.5,1,1.1,1c0.5,0,1-0.4,1-1v-5.7l0.1-7.2c0-0.7,0-1.3,0-1.7c0.7,1.4,1.2,3,1.3,4.5C10.1,91.2,12.1,91.2,12,89.9z"/>
		</g>
	</g>
	<g id="standing-frontal-man-silhouette-76" transform="translate(2495.331 1321.353)">
		<g id="Group_11729" transform="translate(0 0)">
			<ellipse id="Ellipse_8755" class="st0" cx="6" cy="79.4" rx="1.9" ry="1.9"/>
			<path id="Path_12229" class="st0" d="M12,89.9c-0.5-6.1-3.5-7.4-3.5-7.4c-1.9-1-4.1-0.8-5.8,0.5c-1.9,1.8-2.4,4.4-2.7,7
				c-0.2,1.3,1.9,1.3,2.1,0c0.1-1.5,0.5-3,1.2-4.4v1.5l0,7.2v5.7c0,0.6,0.4,1.1,1,1.1c0,0,0,0,0,0c0.6,0,1.1-0.5,1.1-1.1v-8.1h1v8.2
				c0,0.6,0.5,1,1.1,1c0.5,0,1-0.4,1-1v-5.7l0.1-7.2c0-0.7,0-1.3,0-1.7c0.7,1.4,1.2,3,1.3,4.5C10.1,91.2,12.1,91.2,12,89.9z"/>
		</g>
	</g>
	<g id="standing-frontal-man-silhouette-77" transform="translate(2495.331 1245.776)">
		<g id="Group_11730" transform="translate(0 0)">
			<ellipse id="Ellipse_8756" class="st0" cx="6" cy="79.4" rx="1.9" ry="1.9"/>
			<path id="Path_12230" class="st0" d="M12,89.9c-0.5-6.1-3.5-7.4-3.5-7.4c-1.9-1-4.1-0.8-5.8,0.5c-1.9,1.8-2.4,4.4-2.7,7
				c-0.2,1.3,1.9,1.3,2.1,0c0.1-1.5,0.5-3,1.2-4.4v1.5l0,7.2v5.7c0,0.6,0.4,1.1,1,1.1c0,0,0,0,0,0c0.6,0,1.1-0.5,1.1-1.1v-8.1h1v8.2
				c0,0.6,0.5,1,1.1,1c0.5,0,1-0.4,1-1v-5.7l0.1-7.2c0-0.7,0-1.3,0-1.7c0.7,1.4,1.2,3,1.3,4.5C10.1,91.2,12.1,91.2,12,89.9z"/>
		</g>
	</g>
	<g id="standing-frontal-man-silhouette-78" transform="translate(2495.331 1296.16)">
		<g id="Group_11731" transform="translate(0 0)">
			<ellipse id="Ellipse_8757" class="st0" cx="6" cy="79.4" rx="1.9" ry="1.9"/>
			<path id="Path_12231" class="st0" d="M12,89.9c-0.5-6.1-3.5-7.4-3.5-7.4c-1.9-1-4.1-0.8-5.8,0.5c-1.9,1.8-2.4,4.4-2.7,7
				c-0.2,1.3,1.9,1.3,2.1,0c0.1-1.5,0.5-3,1.2-4.4v1.5l0,7.2v5.7c0,0.6,0.4,1.1,1,1.1c0,0,0,0,0,0c0.6,0,1.1-0.5,1.1-1.1v-8.1h1v8.2
				c0,0.6,0.5,1,1.1,1c0.5,0,1-0.4,1-1v-5.7l0.1-7.2c0-0.7,0-1.3,0-1.7c0.7,1.4,1.2,3,1.3,4.5C10.1,91.2,12.1,91.2,12,89.9z"/>
		</g>
	</g>
	<g id="standing-frontal-man-silhouette-79" transform="translate(2495.331 1346.545)">
		<g id="Group_11732" transform="translate(0 0)">
			<ellipse id="Ellipse_8758" class="st0" cx="6" cy="79.4" rx="1.9" ry="1.9"/>
			<path id="Path_12232" class="st0" d="M12,89.9c-0.5-6.1-3.5-7.4-3.5-7.4c-1.9-1-4.1-0.8-5.8,0.5c-1.9,1.8-2.4,4.4-2.7,7
				c-0.2,1.3,1.9,1.3,2.1,0c0.1-1.5,0.5-3,1.2-4.4v1.5l0,7.2v5.7c0,0.6,0.4,1.1,1,1.1c0,0,0,0,0,0c0.6,0,1.1-0.5,1.1-1.1v-8.1h1v8.2
				c0,0.6,0.5,1,1.1,1c0.5,0,1-0.4,1-1v-5.7l0.1-7.2c0-0.7,0-1.3,0-1.7c0.7,1.4,1.2,3,1.3,4.5C10.1,91.2,12.1,91.2,12,89.9z"/>
		</g>
	</g>
	<g id="standing-frontal-man-silhouette-80" transform="translate(2495.938 1044.584)">
		<g id="Group_11733" transform="translate(0 0)">
			<ellipse id="Ellipse_8759" class="st0" cx="6" cy="79.4" rx="1.9" ry="1.9"/>
			<path id="Path_12233" class="st0" d="M12,89.9c-0.5-6.1-3.5-7.4-3.5-7.4c-1.9-1-4.1-0.8-5.8,0.5c-1.9,1.8-2.4,4.4-2.7,7
				c-0.2,1.3,1.9,1.3,2.1,0c0.1-1.5,0.5-3,1.2-4.4v1.5l0,7.2v5.7c0,0.6,0.4,1.1,1,1.1c0,0,0,0,0,0c0.6,0,1.1-0.5,1.1-1.1v-8.1h1v8.2
				c0,0.6,0.5,1,1.1,1c0.5,0,1-0.4,1-1v-5.7l0.1-7.2c0-0.7,0-1.3,0-1.7c0.7,1.4,1.2,3,1.3,4.5C10.1,91.2,12.1,91.2,12,89.9z"/>
		</g>
	</g>
	<g id="standing-frontal-man-silhouette-81" transform="translate(2495.938 1019.428)">
		<g id="Group_11734" transform="translate(0 0)">
			<ellipse id="Ellipse_8760" class="st0" cx="6" cy="79.4" rx="1.9" ry="1.9"/>
			<path id="Path_12234" class="st0" d="M12,89.9c-0.5-6.1-3.5-7.4-3.5-7.4c-1.9-1-4.1-0.8-5.8,0.5c-1.9,1.8-2.4,4.4-2.7,7
				c-0.2,1.3,1.9,1.3,2.1,0c0.1-1.5,0.5-3,1.2-4.4v1.5l0,7.2v5.7c0,0.6,0.4,1.1,1,1.1c0,0,0,0,0,0c0.6,0,1.1-0.5,1.1-1.1v-8.1h1v8.2
				c0,0.6,0.5,1,1.1,1c0.5,0,1-0.4,1-1v-5.7l0.1-7.2c0-0.7,0-1.3,0-1.7c0.7,1.4,1.2,3,1.3,4.5C10.1,91.2,12.1,91.2,12,89.9z"/>
		</g>
	</g>
	<g id="standing-frontal-man-silhouette-82" transform="translate(2495.938 1094.968)">
		<g id="Group_11735" transform="translate(0 0)">
			<ellipse id="Ellipse_8761" class="st0" cx="6" cy="79.4" rx="1.9" ry="1.9"/>
			<path id="Path_12235" class="st0" d="M12,89.9c-0.5-6.1-3.5-7.4-3.5-7.4c-1.9-1-4.1-0.8-5.8,0.5c-1.9,1.8-2.4,4.4-2.7,7
				c-0.2,1.3,1.9,1.3,2.1,0c0.1-1.5,0.5-3,1.2-4.4v1.5l0,7.2v5.7c0,0.6,0.4,1.1,1,1.1c0,0,0,0,0,0c0.6,0,1.1-0.5,1.1-1.1v-8.1h1v8.2
				c0,0.6,0.5,1,1.1,1c0.5,0,1-0.4,1-1v-5.7l0.1-7.2c0-0.7,0-1.3,0-1.7c0.7,1.4,1.2,3,1.3,4.5C10.1,91.2,12.1,91.2,12,89.9z"/>
		</g>
	</g>
	<g id="standing-frontal-man-silhouette-83" transform="translate(2495.938 1145.353)">
		<g id="Group_11736" transform="translate(0 0)">
			<ellipse id="Ellipse_8762" class="st0" cx="6" cy="79.4" rx="1.9" ry="1.9"/>
			<path id="Path_12236" class="st0" d="M12,89.9c-0.5-6.1-3.5-7.4-3.5-7.4c-1.9-1-4.1-0.8-5.8,0.5c-1.9,1.8-2.4,4.4-2.7,7
				c-0.2,1.3,1.9,1.3,2.1,0c0.1-1.5,0.5-3,1.2-4.4v1.5l0,7.2v5.7c0,0.6,0.4,1.1,1,1.1c0,0,0,0,0,0c0.6,0,1.1-0.5,1.1-1.1v-8.1h1v8.2
				c0,0.6,0.5,1,1.1,1c0.5,0,1-0.4,1-1v-5.7l0.1-7.2c0-0.7,0-1.3,0-1.7c0.7,1.4,1.2,3,1.3,4.5C10.1,91.2,12.1,91.2,12,89.9z"/>
		</g>
	</g>
	<g id="standing-frontal-man-silhouette-84" transform="translate(2495.938 1069.776)">
		<g id="Group_11737" transform="translate(0 0)">
			<ellipse id="Ellipse_8763" class="st0" cx="6" cy="79.4" rx="1.9" ry="1.9"/>
			<path id="Path_12237" class="st0" d="M12,89.9c-0.5-6.1-3.5-7.4-3.5-7.4c-1.9-1-4.1-0.8-5.8,0.5c-1.9,1.8-2.4,4.4-2.7,7
				c-0.2,1.3,1.9,1.3,2.1,0c0.1-1.5,0.5-3,1.2-4.4v1.5l0,7.2v5.7c0,0.6,0.4,1.1,1,1.1c0,0,0,0,0,0c0.6,0,1.1-0.5,1.1-1.1v-8.1h1v8.2
				c0,0.6,0.5,1,1.1,1c0.5,0,1-0.4,1-1v-5.7l0.1-7.2c0-0.7,0-1.3,0-1.7c0.7,1.4,1.2,3,1.3,4.5C10.1,91.2,12.1,91.2,12,89.9z"/>
		</g>
	</g>
	<g id="standing-frontal-man-silhouette-85" transform="translate(2495.938 1120.16)">
		<g id="Group_11738" transform="translate(0 0)">
			<ellipse id="Ellipse_8764" class="st0" cx="6" cy="79.4" rx="1.9" ry="1.9"/>
			<path id="Path_12238" class="st0" d="M12,89.9c-0.5-6.1-3.5-7.4-3.5-7.4c-1.9-1-4.1-0.8-5.8,0.5c-1.9,1.8-2.4,4.4-2.7,7
				c-0.2,1.3,1.9,1.3,2.1,0c0.1-1.5,0.5-3,1.2-4.4v1.5l0,7.2v5.7c0,0.6,0.4,1.1,1,1.1c0,0,0,0,0,0c0.6,0,1.1-0.5,1.1-1.1v-8.1h1v8.2
				c0,0.6,0.5,1,1.1,1c0.5,0,1-0.4,1-1v-5.7l0.1-7.2c0-0.7,0-1.3,0-1.7c0.7,1.4,1.2,3,1.3,4.5C10.1,91.2,12.1,91.2,12,89.9z"/>
		</g>
	</g>
	<g id="standing-frontal-man-silhouette-86" transform="translate(2495.938 1170.545)">
		<g id="Group_11739" transform="translate(0 0)">
			<ellipse id="Ellipse_8765" class="st0" cx="6" cy="79.4" rx="1.9" ry="1.9"/>
			<path id="Path_12239" class="st0" d="M12,89.9c-0.5-6.1-3.5-7.4-3.5-7.4c-1.9-1-4.1-0.8-5.8,0.5c-1.9,1.8-2.4,4.4-2.7,7
				c-0.2,1.3,1.9,1.3,2.1,0c0.1-1.5,0.5-3,1.2-4.4v1.5l0,7.2v5.7c0,0.6,0.4,1.1,1,1.1c0,0,0,0,0,0c0.6,0,1.1-0.5,1.1-1.1v-8.1h1v8.2
				c0,0.6,0.5,1,1.1,1c0.5,0,1-0.4,1-1v-5.7l0.1-7.2c0-0.7,0-1.3,0-1.7c0.7,1.4,1.2,3,1.3,4.5C10.1,91.2,12.1,91.2,12,89.9z"/>
		</g>
	</g>
	<g id="standing-frontal-man-silhouette-87" transform="translate(2550.135 1220.584)">
		<g id="Group_11740" transform="translate(0 0)">
			<ellipse id="Ellipse_8766" class="st0" cx="6" cy="79.4" rx="1.9" ry="1.9"/>
			<path id="Path_12240" class="st0" d="M12,89.9c-0.5-6.1-3.5-7.4-3.5-7.4c-1.9-1-4.1-0.8-5.8,0.5c-1.9,1.8-2.4,4.4-2.7,7
				c-0.2,1.3,1.9,1.3,2.1,0c0.1-1.5,0.5-3,1.2-4.4v1.5l0,7.2v5.7c0,0.6,0.4,1.1,1,1.1c0,0,0,0,0,0c0.6,0,1.1-0.5,1.1-1.1v-8.1h1v8.2
				c0,0.6,0.5,1,1.1,1c0.5,0,1-0.4,1-1v-5.7l0.1-7.2c0-0.7,0-1.3,0-1.7c0.7,1.4,1.2,3,1.3,4.5C10.1,91.2,12.1,91.2,12,89.9z"/>
		</g>
	</g>
	<g id="standing-frontal-man-silhouette-88" transform="translate(2550.135 1195.428)">
		<g id="Group_11741" transform="translate(0 0)">
			<ellipse id="Ellipse_8767" class="st0" cx="6" cy="79.4" rx="1.9" ry="1.9"/>
			<path id="Path_12241" class="st0" d="M12,89.9c-0.5-6.1-3.5-7.4-3.5-7.4c-1.9-1-4.1-0.8-5.8,0.5c-1.9,1.8-2.4,4.4-2.7,7
				c-0.2,1.3,1.9,1.3,2.1,0c0.1-1.5,0.5-3,1.2-4.4v1.5l0,7.2v5.7c0,0.6,0.4,1.1,1,1.1c0,0,0,0,0,0c0.6,0,1.1-0.5,1.1-1.1v-8.1h1v8.2
				c0,0.6,0.5,1,1.1,1c0.5,0,1-0.4,1-1v-5.7l0.1-7.2c0-0.7,0-1.3,0-1.7c0.7,1.4,1.2,3,1.3,4.5C10.1,91.2,12.1,91.2,12,89.9z"/>
		</g>
	</g>
	<g id="standing-frontal-man-silhouette-89" transform="translate(2550.135 1270.968)">
		<g id="Group_11742" transform="translate(0 0)">
			<ellipse id="Ellipse_8768" class="st0" cx="6" cy="79.4" rx="1.9" ry="1.9"/>
			<path id="Path_12242" class="st0" d="M12,89.9c-0.5-6.1-3.5-7.4-3.5-7.4c-1.9-1-4.1-0.8-5.8,0.5c-1.9,1.8-2.4,4.4-2.7,7
				c-0.2,1.3,1.9,1.3,2.1,0c0.1-1.5,0.5-3,1.2-4.4v1.5l0,7.2v5.7c0,0.6,0.4,1.1,1,1.1c0,0,0,0,0,0c0.6,0,1.1-0.5,1.1-1.1v-8.1h1v8.2
				c0,0.6,0.5,1,1.1,1c0.5,0,1-0.4,1-1v-5.7l0.1-7.2c0-0.7,0-1.3,0-1.7c0.7,1.4,1.2,3,1.3,4.5C10.1,91.2,12.1,91.2,12,89.9z"/>
		</g>
	</g>
	<g id="standing-frontal-man-silhouette-90" transform="translate(2550.135 1321.353)">
		<g id="Group_11743" transform="translate(0 0)">
			<ellipse id="Ellipse_8769" class="st0" cx="6" cy="79.4" rx="1.9" ry="1.9"/>
			<path id="Path_12243" class="st0" d="M12,89.9c-0.5-6.1-3.5-7.4-3.5-7.4c-1.9-1-4.1-0.8-5.8,0.5c-1.9,1.8-2.4,4.4-2.7,7
				c-0.2,1.3,1.9,1.3,2.1,0c0.1-1.5,0.5-3,1.2-4.4v1.5l0,7.2v5.7c0,0.6,0.4,1.1,1,1.1c0,0,0,0,0,0c0.6,0,1.1-0.5,1.1-1.1v-8.1h1v8.2
				c0,0.6,0.5,1,1.1,1c0.5,0,1-0.4,1-1v-5.7l0.1-7.2c0-0.7,0-1.3,0-1.7c0.7,1.4,1.2,3,1.3,4.5C10.1,91.2,12.1,91.2,12,89.9z"/>
		</g>
	</g>
	<g id="standing-frontal-man-silhouette-91" transform="translate(2550.135 1245.776)">
		<g id="Group_11744" transform="translate(0 0)">
			<ellipse id="Ellipse_8770" class="st0" cx="6" cy="79.4" rx="1.9" ry="1.9"/>
			<path id="Path_12244" class="st0" d="M12,89.9c-0.5-6.1-3.5-7.4-3.5-7.4c-1.9-1-4.1-0.8-5.8,0.5c-1.9,1.8-2.4,4.4-2.7,7
				c-0.2,1.3,1.9,1.3,2.1,0c0.1-1.5,0.5-3,1.2-4.4v1.5l0,7.2v5.7c0,0.6,0.4,1.1,1,1.1c0,0,0,0,0,0c0.6,0,1.1-0.5,1.1-1.1v-8.1h1v8.2
				c0,0.6,0.5,1,1.1,1c0.5,0,1-0.4,1-1v-5.7l0.1-7.2c0-0.7,0-1.3,0-1.7c0.7,1.4,1.2,3,1.3,4.5C10.1,91.2,12.1,91.2,12,89.9z"/>
		</g>
	</g>
	<g id="standing-frontal-man-silhouette-92" transform="translate(2550.135 1296.16)">
		<g id="Group_11745" transform="translate(0 0)">
			<ellipse id="Ellipse_8771" class="st0" cx="6" cy="79.4" rx="1.9" ry="1.9"/>
			<path id="Path_12245" class="st0" d="M12,89.9c-0.5-6.1-3.5-7.4-3.5-7.4c-1.9-1-4.1-0.8-5.8,0.5c-1.9,1.8-2.4,4.4-2.7,7
				c-0.2,1.3,1.9,1.3,2.1,0c0.1-1.5,0.5-3,1.2-4.4v1.5l0,7.2v5.7c0,0.6,0.4,1.1,1,1.1c0,0,0,0,0,0c0.6,0,1.1-0.5,1.1-1.1v-8.1h1v8.2
				c0,0.6,0.5,1,1.1,1c0.5,0,1-0.4,1-1v-5.7l0.1-7.2c0-0.7,0-1.3,0-1.7c0.7,1.4,1.2,3,1.3,4.5C10.1,91.2,12.1,91.2,12,89.9z"/>
		</g>
	</g>
	<g id="standing-frontal-man-silhouette-93" transform="translate(2550.135 1346.545)">
		<g id="Group_11746" transform="translate(0 0)">
			<ellipse id="Ellipse_8772" class="st0" cx="6" cy="79.4" rx="1.9" ry="1.9"/>
			<path id="Path_12246" class="st0" d="M12,89.9c-0.5-6.1-3.5-7.4-3.5-7.4c-1.9-1-4.1-0.8-5.8,0.5c-1.9,1.8-2.4,4.4-2.7,7
				c-0.2,1.3,1.9,1.3,2.1,0c0.1-1.5,0.5-3,1.2-4.4v1.5l0,7.2v5.7c0,0.6,0.4,1.1,1,1.1c0,0,0,0,0,0c0.6,0,1.1-0.5,1.1-1.1v-8.1h1v8.2
				c0,0.6,0.5,1,1.1,1c0.5,0,1-0.4,1-1v-5.7l0.1-7.2c0-0.7,0-1.3,0-1.7c0.7,1.4,1.2,3,1.3,4.5C10.1,91.2,12.1,91.2,12,89.9z"/>
		</g>
	</g>
	<g id="standing-frontal-man-silhouette-94" transform="translate(2550.742 1044.584)">
		<g id="Group_11747" transform="translate(0 0)">
			<ellipse id="Ellipse_8773" class="st0" cx="6" cy="79.4" rx="1.9" ry="1.9"/>
			<path id="Path_12247" class="st0" d="M12,89.9c-0.5-6.1-3.5-7.4-3.5-7.4c-1.9-1-4.1-0.8-5.8,0.5c-1.9,1.8-2.4,4.4-2.7,7
				c-0.2,1.3,1.9,1.3,2.1,0c0.1-1.5,0.5-3,1.2-4.4v1.5l0,7.2v5.7c0,0.6,0.4,1.1,1,1.1c0,0,0,0,0,0c0.6,0,1.1-0.5,1.1-1.1v-8.1h1v8.2
				c0,0.6,0.5,1,1.1,1c0.5,0,1-0.4,1-1v-5.7l0.1-7.2c0-0.7,0-1.3,0-1.7c0.7,1.4,1.2,3,1.3,4.5C10.1,91.2,12.1,91.2,12,89.9z"/>
		</g>
	</g>
	<g id="standing-frontal-man-silhouette-95" transform="translate(2550.742 1019.428)">
		<g id="Group_11748" transform="translate(0 0)">
			<ellipse id="Ellipse_8774" class="st0" cx="6" cy="79.4" rx="1.9" ry="1.9"/>
			<path id="Path_12248" class="st0" d="M12,89.9c-0.5-6.1-3.5-7.4-3.5-7.4c-1.9-1-4.1-0.8-5.8,0.5c-1.9,1.8-2.4,4.4-2.7,7
				c-0.2,1.3,1.9,1.3,2.1,0c0.1-1.5,0.5-3,1.2-4.4v1.5l0,7.2v5.7c0,0.6,0.4,1.1,1,1.1c0,0,0,0,0,0c0.6,0,1.1-0.5,1.1-1.1v-8.1h1v8.2
				c0,0.6,0.5,1,1.1,1c0.5,0,1-0.4,1-1v-5.7l0.1-7.2c0-0.7,0-1.3,0-1.7c0.7,1.4,1.2,3,1.3,4.5C10.1,91.2,12.1,91.2,12,89.9z"/>
		</g>
	</g>
	<g id="standing-frontal-man-silhouette-96" transform="translate(2550.742 1094.968)">
		<g id="Group_11749" transform="translate(0 0)">
			<ellipse id="Ellipse_8775" class="st0" cx="6" cy="79.4" rx="1.9" ry="1.9"/>
			<path id="Path_12249" class="st0" d="M12,89.9c-0.5-6.1-3.5-7.4-3.5-7.4c-1.9-1-4.1-0.8-5.8,0.5c-1.9,1.8-2.4,4.4-2.7,7
				c-0.2,1.3,1.9,1.3,2.1,0c0.1-1.5,0.5-3,1.2-4.4v1.5l0,7.2v5.7c0,0.6,0.4,1.1,1,1.1c0,0,0,0,0,0c0.6,0,1.1-0.5,1.1-1.1v-8.1h1v8.2
				c0,0.6,0.5,1,1.1,1c0.5,0,1-0.4,1-1v-5.7l0.1-7.2c0-0.7,0-1.3,0-1.7c0.7,1.4,1.2,3,1.3,4.5C10.1,91.2,12.1,91.2,12,89.9z"/>
		</g>
	</g>
	<g id="standing-frontal-man-silhouette-97" transform="translate(2550.742 1145.353)">
		<g id="Group_11750" transform="translate(0 0)">
			<ellipse id="Ellipse_8776" class="st0" cx="6" cy="79.4" rx="1.9" ry="1.9"/>
			<path id="Path_12250" class="st0" d="M12,89.9c-0.5-6.1-3.5-7.4-3.5-7.4c-1.9-1-4.1-0.8-5.8,0.5c-1.9,1.8-2.4,4.4-2.7,7
				c-0.2,1.3,1.9,1.3,2.1,0c0.1-1.5,0.5-3,1.2-4.4v1.5l0,7.2v5.7c0,0.6,0.4,1.1,1,1.1c0,0,0,0,0,0c0.6,0,1.1-0.5,1.1-1.1v-8.1h1v8.2
				c0,0.6,0.5,1,1.1,1c0.5,0,1-0.4,1-1v-5.7l0.1-7.2c0-0.7,0-1.3,0-1.7c0.7,1.4,1.2,3,1.3,4.5C10.1,91.2,12.1,91.2,12,89.9z"/>
		</g>
	</g>
	<g id="standing-frontal-man-silhouette-98" transform="translate(2550.742 1069.776)">
		<g id="Group_11751" transform="translate(0 0)">
			<ellipse id="Ellipse_8777" class="st0" cx="6" cy="79.4" rx="1.9" ry="1.9"/>
			<path id="Path_12251" class="st0" d="M12,89.9c-0.5-6.1-3.5-7.4-3.5-7.4c-1.9-1-4.1-0.8-5.8,0.5c-1.9,1.8-2.4,4.4-2.7,7
				c-0.2,1.3,1.9,1.3,2.1,0c0.1-1.5,0.5-3,1.2-4.4v1.5l0,7.2v5.7c0,0.6,0.4,1.1,1,1.1c0,0,0,0,0,0c0.6,0,1.1-0.5,1.1-1.1v-8.1h1v8.2
				c0,0.6,0.5,1,1.1,1c0.5,0,1-0.4,1-1v-5.7l0.1-7.2c0-0.7,0-1.3,0-1.7c0.7,1.4,1.2,3,1.3,4.5C10.1,91.2,12.1,91.2,12,89.9z"/>
		</g>
	</g>
	<g id="standing-frontal-man-silhouette-99" transform="translate(2550.742 1120.16)">
		<g id="Group_11752" transform="translate(0 0)">
			<ellipse id="Ellipse_8778" class="st0" cx="6" cy="79.4" rx="1.9" ry="1.9"/>
			<path id="Path_12252" class="st0" d="M12,89.9c-0.5-6.1-3.5-7.4-3.5-7.4c-1.9-1-4.1-0.8-5.8,0.5c-1.9,1.8-2.4,4.4-2.7,7
				c-0.2,1.3,1.9,1.3,2.1,0c0.1-1.5,0.5-3,1.2-4.4v1.5l0,7.2v5.7c0,0.6,0.4,1.1,1,1.1c0,0,0,0,0,0c0.6,0,1.1-0.5,1.1-1.1v-8.1h1v8.2
				c0,0.6,0.5,1,1.1,1c0.5,0,1-0.4,1-1v-5.7l0.1-7.2c0-0.7,0-1.3,0-1.7c0.7,1.4,1.2,3,1.3,4.5C10.1,91.2,12.1,91.2,12,89.9z"/>
		</g>
	</g>
	<g id="standing-frontal-man-silhouette-100" transform="translate(2550.742 1170.545)">
		<g id="Group_11753" transform="translate(0 0)">
			<ellipse id="Ellipse_8779" class="st0" cx="6" cy="79.4" rx="1.9" ry="1.9"/>
			<path id="Path_12253" class="st0" d="M12,89.9c-0.5-6.1-3.5-7.4-3.5-7.4c-1.9-1-4.1-0.8-5.8,0.5c-1.9,1.8-2.4,4.4-2.7,7
				c-0.2,1.3,1.9,1.3,2.1,0c0.1-1.5,0.5-3,1.2-4.4v1.5l0,7.2v5.7c0,0.6,0.4,1.1,1,1.1c0,0,0,0,0,0c0.6,0,1.1-0.5,1.1-1.1v-8.1h1v8.2
				c0,0.6,0.5,1,1.1,1c0.5,0,1-0.4,1-1v-5.7l0.1-7.2c0-0.7,0-1.3,0-1.7c0.7,1.4,1.2,3,1.3,4.5C10.1,91.2,12.1,91.2,12,89.9z"/>
		</g>
	</g>
	<g id="standing-frontal-man-silhouette-101" transform="translate(2495.546 994.968)">
		<g id="Group_11754" transform="translate(0 0)">
			<ellipse id="Ellipse_8780" class="st0" cx="6" cy="79.4" rx="1.9" ry="1.9"/>
			<path id="Path_12254" class="st0" d="M12,89.9c-0.5-6.1-3.5-7.4-3.5-7.4c-1.9-1-4.1-0.8-5.8,0.5c-1.9,1.8-2.4,4.4-2.7,7
				c-0.2,1.3,1.9,1.3,2.1,0c0.1-1.5,0.5-3,1.2-4.4v1.5l0,7.2v5.7c0,0.6,0.4,1.1,1,1.1c0,0,0,0,0,0c0.6,0,1.1-0.5,1.1-1.1v-8.1h1v8.2
				c0,0.6,0.5,1,1.1,1c0.5,0,1-0.4,1-1v-5.7l0.1-7.2c0-0.7,0-1.3,0-1.7c0.7,1.4,1.2,3,1.3,4.5C10.1,91.2,12.1,91.2,12,89.9z"/>
		</g>
	</g>
	<g id="standing-frontal-man-silhouette-102" transform="translate(2550.546 994.968)">
		<g id="Group_11754-2" transform="translate(0 0)">
			<ellipse id="Ellipse_8780-2" class="st0" cx="6" cy="79.4" rx="1.9" ry="1.9"/>
			<path id="Path_12254-2" class="st0" d="M12,89.9c-0.5-6.1-3.5-7.4-3.5-7.4c-1.9-1-4.1-0.8-5.8,0.5c-1.9,1.8-2.4,4.4-2.7,7
				c-0.2,1.3,1.9,1.3,2.1,0c0.1-1.5,0.5-3,1.2-4.4v1.5l0,7.2v5.7c0,0.6,0.4,1.1,1,1.1c0,0,0,0,0,0c0.6,0,1.1-0.5,1.1-1.1v-8.1h1v8.2
				c0,0.6,0.5,1,1.1,1c0.5,0,1-0.4,1-1v-5.7l0.1-7.2c0-0.7,0-1.3,0-1.7c0.7,1.4,1.2,3,1.3,4.5C10.1,91.2,12.1,91.2,12,89.9z"/>
		</g>
	</g>
	<g id="standing-frontal-man-silhouette-103" transform="translate(2495.546 969.776)">
		<g id="Group_11756" transform="translate(0 0)">
			<ellipse id="Ellipse_8782" class="st0" cx="6" cy="79.4" rx="1.9" ry="1.9"/>
			<path id="Path_12256" class="st0" d="M12,89.9c-0.5-6.1-3.5-7.4-3.5-7.4c-1.9-1-4.1-0.8-5.8,0.5c-1.9,1.8-2.4,4.4-2.7,7
				c-0.2,1.3,1.9,1.3,2.1,0c0.1-1.5,0.5-3,1.2-4.4v1.5l0,7.2v5.7c0,0.6,0.4,1.1,1,1.1c0,0,0,0,0,0c0.6,0,1.1-0.5,1.1-1.1v-8.1h1v8.2
				c0,0.6,0.5,1,1.1,1c0.5,0,1-0.4,1-1v-5.7l0.1-7.2c0-0.7,0-1.3,0-1.7c0.7,1.4,1.2,3,1.3,4.5C10.1,91.2,12.1,91.2,12,89.9z"/>
		</g>
	</g>
	<g id="standing-frontal-man-silhouette-104" transform="translate(2550.546 969.776)">
		<g id="Group_11756-2" transform="translate(0 0)">
			<ellipse id="Ellipse_8782-2" class="st0" cx="6" cy="79.4" rx="1.9" ry="1.9"/>
			<path id="Path_12256-2" class="st0" d="M12,89.9c-0.5-6.1-3.5-7.4-3.5-7.4c-1.9-1-4.1-0.8-5.8,0.5c-1.9,1.8-2.4,4.4-2.7,7
				c-0.2,1.3,1.9,1.3,2.1,0c0.1-1.5,0.5-3,1.2-4.4v1.5l0,7.2v5.7c0,0.6,0.4,1.1,1,1.1c0,0,0,0,0,0c0.6,0,1.1-0.5,1.1-1.1v-8.1h1v8.2
				c0,0.6,0.5,1,1.1,1c0.5,0,1-0.4,1-1v-5.7l0.1-7.2c0-0.7,0-1.3,0-1.7c0.7,1.4,1.2,3,1.3,4.5C10.1,91.2,12.1,91.2,12,89.9z"/>
		</g>
	</g>
	<g id="standing-frontal-man-silhouette-105" transform="translate(2522.732 1220.584)">
		<g id="Group_11759" transform="translate(0 0)">
			<ellipse id="Ellipse_8785" class="st0" cx="6" cy="79.4" rx="1.9" ry="1.9"/>
			<path id="Path_12259" class="st0" d="M12,89.9c-0.5-6.1-3.5-7.4-3.5-7.4c-1.9-1-4.1-0.8-5.8,0.5c-1.9,1.8-2.4,4.4-2.7,7
				c-0.2,1.3,1.9,1.3,2.1,0c0.1-1.5,0.5-3,1.2-4.4v1.5l0,7.2v5.7c0,0.6,0.4,1.1,1,1.1c0,0,0,0,0,0c0.6,0,1.1-0.5,1.1-1.1v-8.1h1v8.2
				c0,0.6,0.5,1,1.1,1c0.5,0,1-0.4,1-1v-5.7l0.1-7.2c0-0.7,0-1.3,0-1.7c0.7,1.4,1.2,3,1.3,4.5C10.1,91.2,12.1,91.2,12,89.9z"/>
		</g>
	</g>
	<g id="standing-frontal-man-silhouette-106" transform="translate(2522.732 1195.428)">
		<g id="Group_11760" transform="translate(0 0)">
			<ellipse id="Ellipse_8786" class="st0" cx="6" cy="79.4" rx="1.9" ry="1.9"/>
			<path id="Path_12260" class="st0" d="M12,89.9c-0.5-6.1-3.5-7.4-3.5-7.4c-1.9-1-4.1-0.8-5.8,0.5c-1.9,1.8-2.4,4.4-2.7,7
				c-0.2,1.3,1.9,1.3,2.1,0c0.1-1.5,0.5-3,1.2-4.4v1.5l0,7.2v5.7c0,0.6,0.4,1.1,1,1.1c0,0,0,0,0,0c0.6,0,1.1-0.5,1.1-1.1v-8.1h1v8.2
				c0,0.6,0.5,1,1.1,1c0.5,0,1-0.4,1-1v-5.7l0.1-7.2c0-0.7,0-1.3,0-1.7c0.7,1.4,1.2,3,1.3,4.5C10.1,91.2,12.1,91.2,12,89.9z"/>
		</g>
	</g>
	<g id="standing-frontal-man-silhouette-107" transform="translate(2522.732 1270.968)">
		<g id="Group_11761" transform="translate(0 0)">
			<ellipse id="Ellipse_8787" class="st0" cx="6" cy="79.4" rx="1.9" ry="1.9"/>
			<path id="Path_12261" class="st0" d="M12,89.9c-0.5-6.1-3.5-7.4-3.5-7.4c-1.9-1-4.1-0.8-5.8,0.5c-1.9,1.8-2.4,4.4-2.7,7
				c-0.2,1.3,1.9,1.3,2.1,0c0.1-1.5,0.5-3,1.2-4.4v1.5l0,7.2v5.7c0,0.6,0.4,1.1,1,1.1c0,0,0,0,0,0c0.6,0,1.1-0.5,1.1-1.1v-8.1h1v8.2
				c0,0.6,0.5,1,1.1,1c0.5,0,1-0.4,1-1v-5.7l0.1-7.2c0-0.7,0-1.3,0-1.7c0.7,1.4,1.2,3,1.3,4.5C10.1,91.2,12.1,91.2,12,89.9z"/>
		</g>
	</g>
	<g id="standing-frontal-man-silhouette-108" transform="translate(2522.732 1321.353)">
		<g id="Group_11762" transform="translate(0 0)">
			<ellipse id="Ellipse_8788" class="st0" cx="6" cy="79.4" rx="1.9" ry="1.9"/>
			<path id="Path_12262" class="st0" d="M12,89.9c-0.5-6.1-3.5-7.4-3.5-7.4c-1.9-1-4.1-0.8-5.8,0.5c-1.9,1.8-2.4,4.4-2.7,7
				c-0.2,1.3,1.9,1.3,2.1,0c0.1-1.5,0.5-3,1.2-4.4v1.5l0,7.2v5.7c0,0.6,0.4,1.1,1,1.1c0,0,0,0,0,0c0.6,0,1.1-0.5,1.1-1.1v-8.1h1v8.2
				c0,0.6,0.5,1,1.1,1c0.5,0,1-0.4,1-1v-5.7l0.1-7.2c0-0.7,0-1.3,0-1.7c0.7,1.4,1.2,3,1.3,4.5C10.1,91.2,12.1,91.2,12,89.9z"/>
		</g>
	</g>
	<g id="standing-frontal-man-silhouette-109" transform="translate(2522.732 1245.776)">
		<g id="Group_11763" transform="translate(0 0)">
			<ellipse id="Ellipse_8789" class="st0" cx="6" cy="79.4" rx="1.9" ry="1.9"/>
			<path id="Path_12263" class="st0" d="M12,89.9c-0.5-6.1-3.5-7.4-3.5-7.4c-1.9-1-4.1-0.8-5.8,0.5c-1.9,1.8-2.4,4.4-2.7,7
				c-0.2,1.3,1.9,1.3,2.1,0c0.1-1.5,0.5-3,1.2-4.4v1.5l0,7.2v5.7c0,0.6,0.4,1.1,1,1.1c0,0,0,0,0,0c0.6,0,1.1-0.5,1.1-1.1v-8.1h1v8.2
				c0,0.6,0.5,1,1.1,1c0.5,0,1-0.4,1-1v-5.7l0.1-7.2c0-0.7,0-1.3,0-1.7c0.7,1.4,1.2,3,1.3,4.5C10.1,91.2,12.1,91.2,12,89.9z"/>
		</g>
	</g>
	<g id="standing-frontal-man-silhouette-110" transform="translate(2522.732 1296.16)">
		<g id="Group_11764" transform="translate(0 0)">
			<ellipse id="Ellipse_8790" class="st0" cx="6" cy="79.4" rx="1.9" ry="1.9"/>
			<path id="Path_12264" class="st0" d="M12,89.9c-0.5-6.1-3.5-7.4-3.5-7.4c-1.9-1-4.1-0.8-5.8,0.5c-1.9,1.8-2.4,4.4-2.7,7
				c-0.2,1.3,1.9,1.3,2.1,0c0.1-1.5,0.5-3,1.2-4.4v1.5l0,7.2v5.7c0,0.6,0.4,1.1,1,1.1c0,0,0,0,0,0c0.6,0,1.1-0.5,1.1-1.1v-8.1h1v8.2
				c0,0.6,0.5,1,1.1,1c0.5,0,1-0.4,1-1v-5.7l0.1-7.2c0-0.7,0-1.3,0-1.7c0.7,1.4,1.2,3,1.3,4.5C10.1,91.2,12.1,91.2,12,89.9z"/>
		</g>
	</g>
	<g id="standing-frontal-man-silhouette-111" transform="translate(2522.732 1346.545)">
		<g id="Group_11765" transform="translate(0 0)">
			<ellipse id="Ellipse_8791" class="st0" cx="6" cy="79.4" rx="1.9" ry="1.9"/>
			<path id="Path_12265" class="st0" d="M12,89.9c-0.5-6.1-3.5-7.4-3.5-7.4c-1.9-1-4.1-0.8-5.8,0.5c-1.9,1.8-2.4,4.4-2.7,7
				c-0.2,1.3,1.9,1.3,2.1,0c0.1-1.5,0.5-3,1.2-4.4v1.5l0,7.2v5.7c0,0.6,0.4,1.1,1,1.1c0,0,0,0,0,0c0.6,0,1.1-0.5,1.1-1.1v-8.1h1v8.2
				c0,0.6,0.5,1,1.1,1c0.5,0,1-0.4,1-1v-5.7l0.1-7.2c0-0.7,0-1.3,0-1.7c0.7,1.4,1.2,3,1.3,4.5C10.1,91.2,12.1,91.2,12,89.9z"/>
		</g>
	</g>
	<g id="standing-frontal-man-silhouette-112" transform="translate(2523.341 1044.584)">
		<g id="Group_11766" transform="translate(0 0)">
			<ellipse id="Ellipse_8792" class="st0" cx="6" cy="79.4" rx="1.9" ry="1.9"/>
			<path id="Path_12266" class="st0" d="M12,89.9c-0.5-6.1-3.5-7.4-3.5-7.4c-1.9-1-4.1-0.8-5.8,0.5c-1.9,1.8-2.4,4.4-2.7,7
				c-0.2,1.3,1.9,1.3,2.1,0c0.1-1.5,0.5-3,1.2-4.4v1.5l0,7.2v5.7c0,0.6,0.4,1.1,1,1.1c0,0,0,0,0,0c0.6,0,1.1-0.5,1.1-1.1v-8.1h1v8.2
				c0,0.6,0.5,1,1.1,1c0.5,0,1-0.4,1-1v-5.7l0.1-7.2c0-0.7,0-1.3,0-1.7c0.7,1.4,1.2,3,1.3,4.5C10.1,91.2,12.1,91.2,12,89.9z"/>
		</g>
	</g>
	<g id="standing-frontal-man-silhouette-113" transform="translate(2523.341 1019.428)">
		<g id="Group_11767" transform="translate(0 0)">
			<ellipse id="Ellipse_8793" class="st0" cx="6" cy="79.4" rx="1.9" ry="1.9"/>
			<path id="Path_12267" class="st0" d="M12,89.9c-0.5-6.1-3.5-7.4-3.5-7.4c-1.9-1-4.1-0.8-5.8,0.5c-1.9,1.8-2.4,4.4-2.7,7
				c-0.2,1.3,1.9,1.3,2.1,0c0.1-1.5,0.5-3,1.2-4.4v1.5l0,7.2v5.7c0,0.6,0.4,1.1,1,1.1c0,0,0,0,0,0c0.6,0,1.1-0.5,1.1-1.1v-8.1h1v8.2
				c0,0.6,0.5,1,1.1,1c0.5,0,1-0.4,1-1v-5.7l0.1-7.2c0-0.7,0-1.3,0-1.7c0.7,1.4,1.2,3,1.3,4.5C10.1,91.2,12.1,91.2,12,89.9z"/>
		</g>
	</g>
	<g id="standing-frontal-man-silhouette-114" transform="translate(2523.341 1094.968)">
		<g id="Group_11768" transform="translate(0 0)">
			<ellipse id="Ellipse_8794" class="st0" cx="6" cy="79.4" rx="1.9" ry="1.9"/>
			<path id="Path_12268" class="st0" d="M12,89.9c-0.5-6.1-3.5-7.4-3.5-7.4c-1.9-1-4.1-0.8-5.8,0.5c-1.9,1.8-2.4,4.4-2.7,7
				c-0.2,1.3,1.9,1.3,2.1,0c0.1-1.5,0.5-3,1.2-4.4v1.5l0,7.2v5.7c0,0.6,0.4,1.1,1,1.1c0,0,0,0,0,0c0.6,0,1.1-0.5,1.1-1.1v-8.1h1v8.2
				c0,0.6,0.5,1,1.1,1c0.5,0,1-0.4,1-1v-5.7l0.1-7.2c0-0.7,0-1.3,0-1.7c0.7,1.4,1.2,3,1.3,4.5C10.1,91.2,12.1,91.2,12,89.9z"/>
		</g>
	</g>
	<g id="standing-frontal-man-silhouette-115" transform="translate(2523.341 1145.353)">
		<g id="Group_11769" transform="translate(0 0)">
			<ellipse id="Ellipse_8795" class="st0" cx="6" cy="79.4" rx="1.9" ry="1.9"/>
			<path id="Path_12269" class="st0" d="M12,89.9c-0.5-6.1-3.5-7.4-3.5-7.4c-1.9-1-4.1-0.8-5.8,0.5c-1.9,1.8-2.4,4.4-2.7,7
				c-0.2,1.3,1.9,1.3,2.1,0c0.1-1.5,0.5-3,1.2-4.4v1.5l0,7.2v5.7c0,0.6,0.4,1.1,1,1.1c0,0,0,0,0,0c0.6,0,1.1-0.5,1.1-1.1v-8.1h1v8.2
				c0,0.6,0.5,1,1.1,1c0.5,0,1-0.4,1-1v-5.7l0.1-7.2c0-0.7,0-1.3,0-1.7c0.7,1.4,1.2,3,1.3,4.5C10.1,91.2,12.1,91.2,12,89.9z"/>
		</g>
	</g>
	<g id="standing-frontal-man-silhouette-116" transform="translate(2523.341 1069.776)">
		<g id="Group_11770" transform="translate(0 0)">
			<ellipse id="Ellipse_8796" class="st0" cx="6" cy="79.4" rx="1.9" ry="1.9"/>
			<path id="Path_12270" class="st0" d="M12,89.9c-0.5-6.1-3.5-7.4-3.5-7.4c-1.9-1-4.1-0.8-5.8,0.5c-1.9,1.8-2.4,4.4-2.7,7
				c-0.2,1.3,1.9,1.3,2.1,0c0.1-1.5,0.5-3,1.2-4.4v1.5l0,7.2v5.7c0,0.6,0.4,1.1,1,1.1c0,0,0,0,0,0c0.6,0,1.1-0.5,1.1-1.1v-8.1h1v8.2
				c0,0.6,0.5,1,1.1,1c0.5,0,1-0.4,1-1v-5.7l0.1-7.2c0-0.7,0-1.3,0-1.7c0.7,1.4,1.2,3,1.3,4.5C10.1,91.2,12.1,91.2,12,89.9z"/>
		</g>
	</g>
	<g id="standing-frontal-man-silhouette-117" transform="translate(2523.341 1120.16)">
		<g id="Group_11771" transform="translate(0 0)">
			<ellipse id="Ellipse_8797" class="st0" cx="6" cy="79.4" rx="1.9" ry="1.9"/>
			<path id="Path_12271" class="st0" d="M12,89.9c-0.5-6.1-3.5-7.4-3.5-7.4c-1.9-1-4.1-0.8-5.8,0.5c-1.9,1.8-2.4,4.4-2.7,7
				c-0.2,1.3,1.9,1.3,2.1,0c0.1-1.5,0.5-3,1.2-4.4v1.5l0,7.2v5.7c0,0.6,0.4,1.1,1,1.1c0,0,0,0,0,0c0.6,0,1.1-0.5,1.1-1.1v-8.1h1v8.2
				c0,0.6,0.5,1,1.1,1c0.5,0,1-0.4,1-1v-5.7l0.1-7.2c0-0.7,0-1.3,0-1.7c0.7,1.4,1.2,3,1.3,4.5C10.1,91.2,12.1,91.2,12,89.9z"/>
		</g>
	</g>
	<g id="standing-frontal-man-silhouette-118" transform="translate(2523.341 1170.545)">
		<g id="Group_11772" transform="translate(0 0)">
			<ellipse id="Ellipse_8798" class="st0" cx="6" cy="79.4" rx="1.9" ry="1.9"/>
			<path id="Path_12272" class="st0" d="M12,89.9c-0.5-6.1-3.5-7.4-3.5-7.4c-1.9-1-4.1-0.8-5.8,0.5c-1.9,1.8-2.4,4.4-2.7,7
				c-0.2,1.3,1.9,1.3,2.1,0c0.1-1.5,0.5-3,1.2-4.4v1.5l0,7.2v5.7c0,0.6,0.4,1.1,1,1.1c0,0,0,0,0,0c0.6,0,1.1-0.5,1.1-1.1v-8.1h1v8.2
				c0,0.6,0.5,1,1.1,1c0.5,0,1-0.4,1-1v-5.7l0.1-7.2c0-0.7,0-1.3,0-1.7c0.7,1.4,1.2,3,1.3,4.5C10.1,91.2,12.1,91.2,12,89.9z"/>
		</g>
	</g>
	<g id="standing-frontal-man-silhouette-119" transform="translate(2577.536 1220.584)">
		<g id="Group_11773" transform="translate(0 0)">
			<ellipse id="Ellipse_8799" class="st0" cx="6" cy="79.4" rx="1.9" ry="1.9"/>
			<path id="Path_12273" class="st0" d="M12,89.9c-0.5-6.1-3.5-7.4-3.5-7.4c-1.9-1-4.1-0.8-5.8,0.5c-1.9,1.8-2.4,4.4-2.7,7
				c-0.2,1.3,1.9,1.3,2.1,0c0.1-1.5,0.5-3,1.2-4.4v1.5l0,7.2v5.7c0,0.6,0.4,1.1,1,1.1c0,0,0,0,0,0c0.6,0,1.1-0.5,1.1-1.1v-8.1h1v8.2
				c0,0.6,0.5,1,1.1,1c0.5,0,1-0.4,1-1v-5.7l0.1-7.2c0-0.7,0-1.3,0-1.7c0.7,1.4,1.2,3,1.3,4.5C10.1,91.2,12.1,91.2,12,89.9z"/>
		</g>
	</g>
	<g id="standing-frontal-man-silhouette-120" transform="translate(2577.536 1195.428)">
		<g id="Group_11774" transform="translate(0 0)">
			<ellipse id="Ellipse_8800" class="st0" cx="6" cy="79.4" rx="1.9" ry="1.9"/>
			<path id="Path_12274" class="st0" d="M12,89.9c-0.5-6.1-3.5-7.4-3.5-7.4c-1.9-1-4.1-0.8-5.8,0.5c-1.9,1.8-2.4,4.4-2.7,7
				c-0.2,1.3,1.9,1.3,2.1,0c0.1-1.5,0.5-3,1.2-4.4v1.5l0,7.2v5.7c0,0.6,0.4,1.1,1,1.1c0,0,0,0,0,0c0.6,0,1.1-0.5,1.1-1.1v-8.1h1v8.2
				c0,0.6,0.5,1,1.1,1c0.5,0,1-0.4,1-1v-5.7l0.1-7.2c0-0.7,0-1.3,0-1.7c0.7,1.4,1.2,3,1.3,4.5C10.1,91.2,12.1,91.2,12,89.9z"/>
		</g>
	</g>
	<g id="standing-frontal-man-silhouette-121" transform="translate(2577.536 1270.968)">
		<g id="Group_11775" transform="translate(0 0)">
			<ellipse id="Ellipse_8801" class="st0" cx="6" cy="79.4" rx="1.9" ry="1.9"/>
			<path id="Path_12275" class="st0" d="M12,89.9c-0.5-6.1-3.5-7.4-3.5-7.4c-1.9-1-4.1-0.8-5.8,0.5c-1.9,1.8-2.4,4.4-2.7,7
				c-0.2,1.3,1.9,1.3,2.1,0c0.1-1.5,0.5-3,1.2-4.4v1.5l0,7.2v5.7c0,0.6,0.4,1.1,1,1.1c0,0,0,0,0,0c0.6,0,1.1-0.5,1.1-1.1v-8.1h1v8.2
				c0,0.6,0.5,1,1.1,1c0.5,0,1-0.4,1-1v-5.7l0.1-7.2c0-0.7,0-1.3,0-1.7c0.7,1.4,1.2,3,1.3,4.5C10.1,91.2,12.1,91.2,12,89.9z"/>
		</g>
	</g>
	<g id="standing-frontal-man-silhouette-122" transform="translate(2577.536 1321.353)">
		<g id="Group_11776" transform="translate(0 0)">
			<ellipse id="Ellipse_8802" class="st0" cx="6" cy="79.4" rx="1.9" ry="1.9"/>
			<path id="Path_12276" class="st0" d="M12,89.9c-0.5-6.1-3.5-7.4-3.5-7.4c-1.9-1-4.1-0.8-5.8,0.5c-1.9,1.8-2.4,4.4-2.7,7
				c-0.2,1.3,1.9,1.3,2.1,0c0.1-1.5,0.5-3,1.2-4.4v1.5l0,7.2v5.7c0,0.6,0.4,1.1,1,1.1c0,0,0,0,0,0c0.6,0,1.1-0.5,1.1-1.1v-8.1h1v8.2
				c0,0.6,0.5,1,1.1,1c0.5,0,1-0.4,1-1v-5.7l0.1-7.2c0-0.7,0-1.3,0-1.7c0.7,1.4,1.2,3,1.3,4.5C10.1,91.2,12.1,91.2,12,89.9z"/>
		</g>
	</g>
	<g id="standing-frontal-man-silhouette-123" transform="translate(2577.536 1245.776)">
		<g id="Group_11777" transform="translate(0 0)">
			<ellipse id="Ellipse_8803" class="st0" cx="6" cy="79.4" rx="1.9" ry="1.9"/>
			<path id="Path_12277" class="st0" d="M12,89.9c-0.5-6.1-3.5-7.4-3.5-7.4c-1.9-1-4.1-0.8-5.8,0.5c-1.9,1.8-2.4,4.4-2.7,7
				c-0.2,1.3,1.9,1.3,2.1,0c0.1-1.5,0.5-3,1.2-4.4v1.5l0,7.2v5.7c0,0.6,0.4,1.1,1,1.1c0,0,0,0,0,0c0.6,0,1.1-0.5,1.1-1.1v-8.1h1v8.2
				c0,0.6,0.5,1,1.1,1c0.5,0,1-0.4,1-1v-5.7l0.1-7.2c0-0.7,0-1.3,0-1.7c0.7,1.4,1.2,3,1.3,4.5C10.1,91.2,12.1,91.2,12,89.9z"/>
		</g>
	</g>
	<g id="standing-frontal-man-silhouette-124" transform="translate(2577.536 1296.16)">
		<g id="Group_11778" transform="translate(0 0)">
			<ellipse id="Ellipse_8804" class="st0" cx="6" cy="79.4" rx="1.9" ry="1.9"/>
			<path id="Path_12278" class="st0" d="M12,89.9c-0.5-6.1-3.5-7.4-3.5-7.4c-1.9-1-4.1-0.8-5.8,0.5c-1.9,1.8-2.4,4.4-2.7,7
				c-0.2,1.3,1.9,1.3,2.1,0c0.1-1.5,0.5-3,1.2-4.4v1.5l0,7.2v5.7c0,0.6,0.4,1.1,1,1.1c0,0,0,0,0,0c0.6,0,1.1-0.5,1.1-1.1v-8.1h1v8.2
				c0,0.6,0.5,1,1.1,1c0.5,0,1-0.4,1-1v-5.7l0.1-7.2c0-0.7,0-1.3,0-1.7c0.7,1.4,1.2,3,1.3,4.5C10.1,91.2,12.1,91.2,12,89.9z"/>
		</g>
	</g>
	<g id="standing-frontal-man-silhouette-125" transform="translate(2577.536 1346.545)">
		<g id="Group_11779" transform="translate(0 0)">
			<ellipse id="Ellipse_8805" class="st0" cx="6" cy="79.4" rx="1.9" ry="1.9"/>
			<path id="Path_12279" class="st0" d="M12,89.9c-0.5-6.1-3.5-7.4-3.5-7.4c-1.9-1-4.1-0.8-5.8,0.5c-1.9,1.8-2.4,4.4-2.7,7
				c-0.2,1.3,1.9,1.3,2.1,0c0.1-1.5,0.5-3,1.2-4.4v1.5l0,7.2v5.7c0,0.6,0.4,1.1,1,1.1c0,0,0,0,0,0c0.6,0,1.1-0.5,1.1-1.1v-8.1h1v8.2
				c0,0.6,0.5,1,1.1,1c0.5,0,1-0.4,1-1v-5.7l0.1-7.2c0-0.7,0-1.3,0-1.7c0.7,1.4,1.2,3,1.3,4.5C10.1,91.2,12.1,91.2,12,89.9z"/>
		</g>
	</g>
	<g id="standing-frontal-man-silhouette-126" transform="translate(2578.145 1044.584)">
		<g id="Group_11780" transform="translate(0 0)">
			<ellipse id="Ellipse_8806" class="st0" cx="6" cy="79.4" rx="1.9" ry="1.9"/>
			<path id="Path_12280" class="st0" d="M12,89.9c-0.5-6.1-3.5-7.4-3.5-7.4c-1.9-1-4.1-0.8-5.8,0.5c-1.9,1.8-2.4,4.4-2.7,7
				c-0.2,1.3,1.9,1.3,2.1,0c0.1-1.5,0.5-3,1.2-4.4v1.5l0,7.2v5.7c0,0.6,0.4,1.1,1,1.1c0,0,0,0,0,0c0.6,0,1.1-0.5,1.1-1.1v-8.1h1v8.2
				c0,0.6,0.5,1,1.1,1c0.5,0,1-0.4,1-1v-5.7l0.1-7.2c0-0.7,0-1.3,0-1.7c0.7,1.4,1.2,3,1.3,4.5C10.1,91.2,12.1,91.2,12,89.9z"/>
		</g>
	</g>
	<g id="standing-frontal-man-silhouette-127" transform="translate(2578.145 1019.428)">
		<g id="Group_11781" transform="translate(0 0)">
			<ellipse id="Ellipse_8807" class="st0" cx="6" cy="79.4" rx="1.9" ry="1.9"/>
			<path id="Path_12281" class="st0" d="M12,89.9c-0.5-6.1-3.5-7.4-3.5-7.4c-1.9-1-4.1-0.8-5.8,0.5c-1.9,1.8-2.4,4.4-2.7,7
				c-0.2,1.3,1.9,1.3,2.1,0c0.1-1.5,0.5-3,1.2-4.4v1.5l0,7.2v5.7c0,0.6,0.4,1.1,1,1.1c0,0,0,0,0,0c0.6,0,1.1-0.5,1.1-1.1v-8.1h1v8.2
				c0,0.6,0.5,1,1.1,1c0.5,0,1-0.4,1-1v-5.7l0.1-7.2c0-0.7,0-1.3,0-1.7c0.7,1.4,1.2,3,1.3,4.5C10.1,91.2,12.1,91.2,12,89.9z"/>
		</g>
	</g>
	<g id="standing-frontal-man-silhouette-128" transform="translate(2509.472 944.584)">
		<g id="Group_11782" transform="translate(0 0)">
			<ellipse id="Ellipse_8808" class="st0" cx="6" cy="79.4" rx="1.9" ry="1.9"/>
			<path id="Path_12282" class="st0" d="M12,89.9c-0.5-6.1-3.5-7.4-3.5-7.4c-1.9-1-4.1-0.8-5.8,0.5c-1.9,1.8-2.4,4.4-2.7,7
				c-0.2,1.3,1.9,1.3,2.1,0c0.1-1.5,0.5-3,1.2-4.4v1.5l0,7.2v5.7c0,0.6,0.4,1.1,1,1.1c0,0,0,0,0,0c0.6,0,1.1-0.5,1.1-1.1v-8.1h1v8.2
				c0,0.6,0.5,1,1.1,1c0.5,0,1-0.4,1-1v-5.7l0.1-7.2c0-0.7,0-1.3,0-1.7c0.7,1.4,1.2,3,1.3,4.5C10.1,91.2,12.1,91.2,12,89.9z"/>
		</g>
	</g>
	<g id="standing-frontal-man-silhouette-129" transform="translate(2564.472 944.584)">
		<g id="Group_11782-2" transform="translate(0 0)">
			<ellipse id="Ellipse_8808-2" class="st0" cx="6" cy="79.4" rx="1.9" ry="1.9"/>
			<path id="Path_12282-2" class="st0" d="M12,89.9c-0.5-6.1-3.5-7.4-3.5-7.4c-1.9-1-4.1-0.8-5.8,0.5c-1.9,1.8-2.4,4.4-2.7,7
				c-0.2,1.3,1.9,1.3,2.1,0c0.1-1.5,0.5-3,1.2-4.4v1.5l0,7.2v5.7c0,0.6,0.4,1.1,1,1.1c0,0,0,0,0,0c0.6,0,1.1-0.5,1.1-1.1v-8.1h1v8.2
				c0,0.6,0.5,1,1.1,1c0.5,0,1-0.4,1-1v-5.7l0.1-7.2c0-0.7,0-1.3,0-1.7c0.7,1.4,1.2,3,1.3,4.5C10.1,91.2,12.1,91.2,12,89.9z"/>
		</g>
	</g>
	<g id="standing-frontal-man-silhouette-130" transform="translate(2509.472 919.428)">
		<g id="Group_11783" transform="translate(0 0)">
			<ellipse id="Ellipse_8809" class="st0" cx="6" cy="79.4" rx="1.9" ry="1.9"/>
			<path id="Path_12283" class="st0" d="M12,89.9c-0.5-6.1-3.5-7.4-3.5-7.4c-1.9-1-4.1-0.8-5.8,0.5c-1.9,1.8-2.4,4.4-2.7,7
				c-0.2,1.3,1.9,1.3,2.1,0c0.1-1.5,0.5-3,1.2-4.4v1.5l0,7.2v5.7c0,0.6,0.4,1.1,1,1.1c0,0,0,0,0,0c0.6,0,1.1-0.5,1.1-1.1v-8.1h1v8.2
				c0,0.6,0.5,1,1.1,1c0.5,0,1-0.4,1-1v-5.7l0.1-7.2c0-0.7,0-1.3,0-1.7c0.7,1.4,1.2,3,1.3,4.5C10.1,91.2,12.1,91.2,12,89.9z"/>
		</g>
	</g>
	<g id="standing-frontal-man-silhouette-131" transform="translate(2578.145 1094.968)">
		<g id="Group_11784" transform="translate(0 0)">
			<ellipse id="Ellipse_8810" class="st0" cx="6" cy="79.4" rx="1.9" ry="1.9"/>
			<path id="Path_12284" class="st0" d="M12,89.9c-0.5-6.1-3.5-7.4-3.5-7.4c-1.9-1-4.1-0.8-5.8,0.5c-1.9,1.8-2.4,4.4-2.7,7
				c-0.2,1.3,1.9,1.3,2.1,0c0.1-1.5,0.5-3,1.2-4.4v1.5l0,7.2v5.7c0,0.6,0.4,1.1,1,1.1c0,0,0,0,0,0c0.6,0,1.1-0.5,1.1-1.1v-8.1h1v8.2
				c0,0.6,0.5,1,1.1,1c0.5,0,1-0.4,1-1v-5.7l0.1-7.2c0-0.7,0-1.3,0-1.7c0.7,1.4,1.2,3,1.3,4.5C10.1,91.2,12.1,91.2,12,89.9z"/>
		</g>
	</g>
	<g id="standing-frontal-man-silhouette-132" transform="translate(2578.145 1145.353)">
		<g id="Group_11785" transform="translate(0 0)">
			<ellipse id="Ellipse_8811" class="st0" cx="6" cy="79.4" rx="1.9" ry="1.9"/>
			<path id="Path_12285" class="st0" d="M12,89.9c-0.5-6.1-3.5-7.4-3.5-7.4c-1.9-1-4.1-0.8-5.8,0.5c-1.9,1.8-2.4,4.4-2.7,7
				c-0.2,1.3,1.9,1.3,2.1,0c0.1-1.5,0.5-3,1.2-4.4v1.5l0,7.2v5.7c0,0.6,0.4,1.1,1,1.1c0,0,0,0,0,0c0.6,0,1.1-0.5,1.1-1.1v-8.1h1v8.2
				c0,0.6,0.5,1,1.1,1c0.5,0,1-0.4,1-1v-5.7l0.1-7.2c0-0.7,0-1.3,0-1.7c0.7,1.4,1.2,3,1.3,4.5C10.1,91.2,12.1,91.2,12,89.9z"/>
		</g>
	</g>
	<g id="standing-frontal-man-silhouette-133" transform="translate(2578.145 1069.776)">
		<g id="Group_11786" transform="translate(0 0)">
			<ellipse id="Ellipse_8812" class="st0" cx="6" cy="79.4" rx="1.9" ry="1.9"/>
			<path id="Path_12286" class="st0" d="M12,89.9c-0.5-6.1-3.5-7.4-3.5-7.4c-1.9-1-4.1-0.8-5.8,0.5c-1.9,1.8-2.4,4.4-2.7,7
				c-0.2,1.3,1.9,1.3,2.1,0c0.1-1.5,0.5-3,1.2-4.4v1.5l0,7.2v5.7c0,0.6,0.4,1.1,1,1.1c0,0,0,0,0,0c0.6,0,1.1-0.5,1.1-1.1v-8.1h1v8.2
				c0,0.6,0.5,1,1.1,1c0.5,0,1-0.4,1-1v-5.7l0.1-7.2c0-0.7,0-1.3,0-1.7c0.7,1.4,1.2,3,1.3,4.5C10.1,91.2,12.1,91.2,12,89.9z"/>
		</g>
	</g>
	<g id="standing-frontal-man-silhouette-134" transform="translate(2578.145 1120.16)">
		<g id="Group_11787" transform="translate(0 0)">
			<ellipse id="Ellipse_8813" class="st0" cx="6" cy="79.4" rx="1.9" ry="1.9"/>
			<path id="Path_12287" class="st0" d="M12,89.9c-0.5-6.1-3.5-7.4-3.5-7.4c-1.9-1-4.1-0.8-5.8,0.5c-1.9,1.8-2.4,4.4-2.7,7
				c-0.2,1.3,1.9,1.3,2.1,0c0.1-1.5,0.5-3,1.2-4.4v1.5l0,7.2v5.7c0,0.6,0.4,1.1,1,1.1c0,0,0,0,0,0c0.6,0,1.1-0.5,1.1-1.1v-8.1h1v8.2
				c0,0.6,0.5,1,1.1,1c0.5,0,1-0.4,1-1v-5.7l0.1-7.2c0-0.7,0-1.3,0-1.7c0.7,1.4,1.2,3,1.3,4.5C10.1,91.2,12.1,91.2,12,89.9z"/>
		</g>
	</g>
	<g id="standing-frontal-man-silhouette-135" transform="translate(2578.145 1170.545)">
		<g id="Group_11788" transform="translate(0 0)">
			<ellipse id="Ellipse_8814" class="st0" cx="6" cy="79.4" rx="1.9" ry="1.9"/>
			<path id="Path_12288" class="st0" d="M12,89.9c-0.5-6.1-3.5-7.4-3.5-7.4c-1.9-1-4.1-0.8-5.8,0.5c-1.9,1.8-2.4,4.4-2.7,7
				c-0.2,1.3,1.9,1.3,2.1,0c0.1-1.5,0.5-3,1.2-4.4v1.5l0,7.2v5.7c0,0.6,0.4,1.1,1,1.1c0,0,0,0,0,0c0.6,0,1.1-0.5,1.1-1.1v-8.1h1v8.2
				c0,0.6,0.5,1,1.1,1c0.5,0,1-0.4,1-1v-5.7l0.1-7.2c0-0.7,0-1.3,0-1.7c0.7,1.4,1.2,3,1.3,4.5C10.1,91.2,12.1,91.2,12,89.9z"/>
		</g>
	</g>
	<g id="standing-frontal-man-silhouette-136" transform="translate(2522.948 994.968)">
		<g id="Group_11789" transform="translate(0 0)">
			<ellipse id="Ellipse_8815" class="st0" cx="6" cy="79.4" rx="1.9" ry="1.9"/>
			<path id="Path_12289" class="st0" d="M12,89.9c-0.5-6.1-3.5-7.4-3.5-7.4c-1.9-1-4.1-0.8-5.8,0.5c-1.9,1.8-2.4,4.4-2.7,7
				c-0.2,1.3,1.9,1.3,2.1,0c0.1-1.5,0.5-3,1.2-4.4v1.5l0,7.2v5.7c0,0.6,0.4,1.1,1,1.1c0,0,0,0,0,0c0.6,0,1.1-0.5,1.1-1.1v-8.1h1v8.2
				c0,0.6,0.5,1,1.1,1c0.5,0,1-0.4,1-1v-5.7l0.1-7.2c0-0.7,0-1.3,0-1.7c0.7,1.4,1.2,3,1.3,4.5C10.1,91.2,12.1,91.2,12,89.9z"/>
		</g>
	</g>
	<g id="standing-frontal-man-silhouette-137" transform="translate(2577.948 994.968)">
		<g id="Group_11789-2" transform="translate(0 0)">
			<ellipse id="Ellipse_8815-2" class="st0" cx="6" cy="79.4" rx="1.9" ry="1.9"/>
			<path id="Path_12289-2" class="st0" d="M12,89.9c-0.5-6.1-3.5-7.4-3.5-7.4c-1.9-1-4.1-0.8-5.8,0.5c-1.9,1.8-2.4,4.4-2.7,7
				c-0.2,1.3,1.9,1.3,2.1,0c0.1-1.5,0.5-3,1.2-4.4v1.5l0,7.2v5.7c0,0.6,0.4,1.1,1,1.1c0,0,0,0,0,0c0.6,0,1.1-0.5,1.1-1.1v-8.1h1v8.2
				c0,0.6,0.5,1,1.1,1c0.5,0,1-0.4,1-1v-5.7l0.1-7.2c0-0.7,0-1.3,0-1.7c0.7,1.4,1.2,3,1.3,4.5C10.1,91.2,12.1,91.2,12,89.9z"/>
		</g>
	</g>
	<g id="standing-frontal-man-silhouette-138" transform="translate(2522.948 969.776)">
		<g id="Group_11791" transform="translate(0 0)">
			<ellipse id="Ellipse_8817" class="st0" cx="6" cy="79.4" rx="1.9" ry="1.9"/>
			<path id="Path_12291" class="st0" d="M12,89.9c-0.5-6.1-3.5-7.4-3.5-7.4c-1.9-1-4.1-0.8-5.8,0.5c-1.9,1.8-2.4,4.4-2.7,7
				c-0.2,1.3,1.9,1.3,2.1,0c0.1-1.5,0.5-3,1.2-4.4v1.5l0,7.2v5.7c0,0.6,0.4,1.1,1,1.1c0,0,0,0,0,0c0.6,0,1.1-0.5,1.1-1.1v-8.1h1v8.2
				c0,0.6,0.5,1,1.1,1c0.5,0,1-0.4,1-1v-5.7l0.1-7.2c0-0.7,0-1.3,0-1.7c0.7,1.4,1.2,3,1.3,4.5C10.1,91.2,12.1,91.2,12,89.9z"/>
		</g>
	</g>
	<g id="standing-frontal-man-silhouette-139" transform="translate(2577.948 969.776)">
		<g id="Group_11791-2" transform="translate(0 0)">
			<ellipse id="Ellipse_8817-2" class="st0" cx="6" cy="79.4" rx="1.9" ry="1.9"/>
			<path id="Path_12291-2" class="st0" d="M12,89.9c-0.5-6.1-3.5-7.4-3.5-7.4c-1.9-1-4.1-0.8-5.8,0.5c-1.9,1.8-2.4,4.4-2.7,7
				c-0.2,1.3,1.9,1.3,2.1,0c0.1-1.5,0.5-3,1.2-4.4v1.5l0,7.2v5.7c0,0.6,0.4,1.1,1,1.1c0,0,0,0,0,0c0.6,0,1.1-0.5,1.1-1.1v-8.1h1v8.2
				c0,0.6,0.5,1,1.1,1c0.5,0,1-0.4,1-1v-5.7l0.1-7.2c0-0.7,0-1.3,0-1.7c0.7,1.4,1.2,3,1.3,4.5C10.1,91.2,12.1,91.2,12,89.9z"/>
		</g>
	</g>
</g>
</svg>
