<?xml version="1.0" encoding="utf-8"?>
<!-- Generator: Adobe Illustrator 25.1.0, SVG Export Plug-In . SVG Version: 6.00 Build 0)  -->
<svg version="1.1" id="Laag_1" xmlns="http://www.w3.org/2000/svg" xmlns:xlink="http://www.w3.org/1999/xlink" x="0px" y="0px"
	 viewBox="0 0 1920 1080" style="enable-background:new 0 0 1920 1080;" xml:space="preserve">
<style type="text/css">
	.st0{clip-path:url(#SVGID_2_);}
	.st1{opacity:0.2;}
	.st2{fill:#FFFFFF;}
	.st3{fill:#3D3E3E;}
	.st4{fill:none;stroke:#3D3E3E;stroke-width:3;}
</style>
<g>
	<defs>
		<rect id="SVGID_1_" x="37.4" y="569.6" width="358" height="451.5"/>
	</defs>
	<clipPath id="SVGID_2_">
		<use xlink:href="#SVGID_1_"  style="overflow:visible;"/>
	</clipPath>
	<g id="Repeat_Grid_1" class="st0">
		<g id="Group_13434" transform="translate(-69.804 -544.932)">
			<g id="Group_13267" transform="translate(248.572 792.534) rotate(120)" class="st1">
				<g id="Group_107" transform="translate(15.59 12.337)">
					
						<ellipse id="Ellipse_261" transform="matrix(0.5 0.866 -0.866 0.5 26.5929 -584.0002)" class="st2" cx="519.1" cy="-269" rx="44.5" ry="44.5"/>
					<path id="Path_573" class="st2" d="M547-235.1l9.3,7l3.2-2.6l-6.3-10.7L547-235.1z"/>
					<path id="Path_574" class="st2" d="M552.2-298.1l7-9.3l-2.6-3.2l-10.7,6.3L552.2-298.1z"/>
					<path id="Path_575" class="st2" d="M523.1-224.8l-1.6,11.5l-4.1,0.5l-3.1-12L523.1-224.8z"/>
					<path id="Path_576" class="st2" d="M562.6-275l11.5,1.6l0.5,4.1l-12,3.1L562.6-275z"/>
					<path id="Rectangle_753" class="st2" d="M556.9-303.3l-4.7-4.7c-1.7-1.7-1.7-4.4,0-6.1l0,0c1.7-1.7,4.4-1.7,6.1,0l4.7,4.7
						c1.7,1.7,1.7,4.4,0,6.1l0,0C561.3-301.6,558.6-301.6,556.9-303.3z"/>
					<path id="Rectangle_754" class="st2" d="M552.6-229.1l6.3-6.3c1.7-1.7,4.4-1.7,6.1,0l0,0c1.7,1.7,1.7,4.4,0,6.1l-6.3,6.3
						c-1.7,1.7-4.4,1.7-6.1,0l0,0C550.9-224.7,550.9-227.4,552.6-229.1z"/>
					<path id="Rectangle_755" class="st2" d="M572.1-269.6v-3c0-2.4,1.9-4.3,4.3-4.3l0,0c2.4,0,4.3,1.9,4.3,4.3v3
						c0,2.4-1.9,4.3-4.3,4.3l0,0C574-265.3,572.1-267.2,572.1-269.6z"/>
					<path id="Rectangle_756" class="st2" d="M514.5-213.4L514.5-213.4c0.1-2.4,2.1-4.2,4.5-4.1l0,0c2.4,0.1,4.2,2.1,4.1,4.5l0,0
						c-0.1,2.4-2.1,4.2-4.5,4.1l0,0C516.2-209,514.4-211,514.5-213.4z"/>
				</g>
				<g id="Group_108" transform="translate(0 0)">
					<path id="Path_577" class="st2" d="M518-215.6c0,0,0.1,0.1,0.1,0.1c-2.3-0.8-4.4-1.8-6.4-3.1c-4.1-2.5-7.9-5.5-11.4-8.9
						c-8.1-8.7-9.9-18.1-9.9-29.2c0-24.6,19.9-44.5,44.5-44.5c1.4,0,4.9,0.2,5.4,0.3c0.1,0-0.1,0.1-0.1,0.1
						C507.3-287.5,506.8-234.6,518-215.6z"/>
					<path id="Path_578" class="st2" d="M530.6-300.9l1.6-11.5l4.1-0.5l3.1,12L530.6-300.9z"/>
					<path id="Path_579" class="st2" d="M490.9-253.8l-11.5-1.6l-0.5-4.1l12-3.1L490.9-253.8z"/>
					<path id="Path_580" class="st2" d="M506.5-222.6l-9.3,7l-3.2-2.6l6.3-10.7L506.5-222.6z"/>
					<path id="Path_581" class="st2" d="M502-286.1l-7-9.3l2.6-3.2l10.7,6.3L502-286.1z"/>
					<path id="Rectangle_757" class="st2" d="M533.1-317.2h3.5c2.4,0,4.3,1.9,4.3,4.3l0,0c0,2.4-1.9,4.3-4.3,4.3h-3.5
						c-2.4,0-4.3-1.9-4.3-4.3l0,0C528.7-315.3,530.7-317.2,533.1-317.2z"/>
					<path id="Rectangle_758" class="st2" d="M474.5-253.3v-8.5c0-2.4,1.9-4.3,4.3-4.3l0,0c2.4,0,4.3,1.9,4.3,4.3v8.5
						c0,2.4-1.9,4.3-4.3,4.3l0,0C476.5-249,474.5-250.9,474.5-253.3z"/>
					<path id="Rectangle_759" class="st2" d="M492.3-299.9l2.2-2c1.8-1.6,4.5-1.5,6.1,0.3l0,0c1.6,1.8,1.5,4.5-0.3,6.1l-2.2,2
						c-1.8,1.6-4.5,1.5-6.1-0.3l0,0C490.4-295.6,490.6-298.3,492.3-299.9z"/>
					<path id="Rectangle_760" class="st2" d="M492.1-220.8L492.1-220.8c1.8-1.6,4.5-1.5,6.1,0.3l0,0c1.6,1.8,1.5,4.5-0.3,6.1l0,0
						c-1.8,1.6-4.5,1.5-6.1-0.3l0,0C490.2-216.5,490.3-219.2,492.1-220.8z"/>
				</g>
				<ellipse id="Ellipse_262" class="st2" cx="518.1" cy="-269.9" rx="9" ry="4.7"/>
				<ellipse id="Ellipse_264" class="st2" cx="548.6" cy="-221.1" rx="3.4" ry="2.4"/>
				<ellipse id="Ellipse_265" class="st2" cx="554.2" cy="-280.1" rx="3.4" ry="2.4"/>
				<ellipse id="Ellipse_266" class="st2" cx="569.1" cy="-251.4" rx="3.4" ry="2.4"/>
				<ellipse id="Ellipse_267" class="st2" cx="519.9" cy="-287.1" rx="3.4" ry="2.4"/>
				<ellipse id="Ellipse_268" class="st2" cx="520" cy="-232.4" rx="6.7" ry="4.7"/>
				<ellipse id="Ellipse_269" class="st2" cx="538.5" cy="-249.6" rx="8.7" ry="3.5"/>
			</g>
			<g id="Group_13375" transform="translate(386.059 722.822) rotate(120)" class="st1">
				<g id="Group_107-2" transform="translate(13.016 10.301)">
					
						<ellipse id="Ellipse_261-2" transform="matrix(0.5 0.866 -0.866 0.5 16.0219 -581.6187)" class="st2" cx="511.7" cy="-276.9" rx="37.2" ry="37.2"/>
					<path id="Path_573-2" class="st2" d="M535-248.7l7.8,5.8l2.7-2.2l-5.2-9L535-248.7z"/>
					<path id="Path_574-2" class="st2" d="M539.4-301.2l5.8-7.8l-2.2-2.7l-9,5.2L539.4-301.2z"/>
					<path id="Path_575-2" class="st2" d="M515.1-240.1l-1.4,9.6l-3.4,0.4l-2.6-10L515.1-240.1z"/>
					<path id="Path_576-2" class="st2" d="M548.1-282l9.6,1.4l0.4,3.4l-10,2.6L548.1-282z"/>
					<path id="Rectangle_753-2" class="st2" d="M543.3-305.6l-4-4c-1.4-1.4-1.4-3.7,0-5.1l0,0c1.4-1.4,3.7-1.4,5.1,0l4,4
						c1.4,1.4,1.4,3.7,0,5.1l0,0C547-304.2,544.7-304.2,543.3-305.6z"/>
					<path id="Rectangle_754-2" class="st2" d="M539.7-243.6l5.3-5.3c1.4-1.4,3.7-1.4,5.1,0l0,0c1.4,1.4,1.4,3.7,0,5.1l-5.3,5.3
						c-1.4,1.4-3.7,1.4-5.1,0l0,0C538.3-239.9,538.3-242.2,539.7-243.6z"/>
					<path id="Rectangle_755-2" class="st2" d="M556-277.5v-2.5c0-2,1.6-3.6,3.6-3.6l0,0c2,0,3.6,1.6,3.6,3.6v2.5
						c0,2-1.6,3.6-3.6,3.6l0,0C557.6-273.8,556-275.5,556-277.5z"/>
					<path id="Rectangle_756-2" class="st2" d="M507.9-230.5L507.9-230.5c0.1-2,1.8-3.5,3.8-3.4l0,0c2,0.1,3.5,1.8,3.4,3.8l0,0
						c-0.1,2-1.8,3.5-3.8,3.4l0,0C509.3-226.9,507.8-228.6,507.9-230.5z"/>
				</g>
				<g id="Group_108-2" transform="translate(0 0)">
					<path id="Path_577-2" class="st2" d="M510.8-232.4c0,0,0.1,0.1,0,0.1c-1.9-0.7-3.7-1.5-5.4-2.6c-3.4-2.1-6.6-4.6-9.5-7.5
						c-6.8-7.2-8.3-15.1-8.3-24.4c0-20.5,16.6-37.2,37.2-37.2c0,0,0,0,0,0c1.2,0,4.1,0.2,4.5,0.3c0.1,0-0.1,0-0.1,0.1
						C501.9-292.4,501.5-248.2,510.8-232.4z"/>
					<path id="Path_578-2" class="st2" d="M521.4-303.6l1.4-9.6l3.4-0.4l2.6,10L521.4-303.6z"/>
					<path id="Path_579-2" class="st2" d="M488.2-264.2l-9.6-1.4l-0.4-3.4l10-2.6L488.2-264.2z"/>
					<path id="Path_580-2" class="st2" d="M501.2-238.2l-7.8,5.8l-2.7-2.2l5.2-9L501.2-238.2z"/>
					<path id="Path_581-2" class="st2" d="M497.5-291.3l-5.8-7.8l2.2-2.7l9,5.2L497.5-291.3z"/>
					<path id="Rectangle_757-2" class="st2" d="M523.4-317.2l2.9,0c2,0,3.6,1.6,3.6,3.6l0,0c0,2-1.6,3.6-3.6,3.6h-2.9
						c-2,0-3.6-1.6-3.6-3.6l0,0C519.8-315.6,521.4-317.2,523.4-317.2z"/>
					<path id="Rectangle_758-2" class="st2" d="M474.5-263.9v-7.1c0-2,1.6-3.6,3.6-3.6l0,0c2,0,3.6,1.6,3.6,3.6v7.1
						c0,2-1.6,3.6-3.6,3.6l0,0C476.2-260.3,474.5-261.9,474.5-263.9z"/>
					<path id="Rectangle_759-2" class="st2" d="M489.4-302.8l1.8-1.7c1.5-1.3,3.8-1.2,5.1,0.2l0,0c1.3,1.5,1.2,3.8-0.2,5.1l-1.8,1.7
						c-1.5,1.3-3.8,1.2-5.1-0.2l0,0C487.8-299.2,487.9-301.5,489.4-302.8z"/>
					<path id="Rectangle_760-2" class="st2" d="M489.2-236.7L489.2-236.7c1.5-1.3,3.8-1.2,5.1,0.2l0,0c1.3,1.5,1.2,3.8-0.2,5.1l0,0
						c-1.5,1.3-3.8,1.2-5.1-0.2l0,0C487.6-233.1,487.7-235.4,489.2-236.7z"/>
				</g>
				<ellipse id="Ellipse_262-2" class="st2" cx="511" cy="-277.7" rx="7.5" ry="3.9"/>
				<ellipse id="Ellipse_264-2" class="st2" cx="536.4" cy="-236.9" rx="2.8" ry="2"/>
				<ellipse id="Ellipse_265-2" class="st2" cx="541" cy="-286.2" rx="2.8" ry="2"/>
				<ellipse id="Ellipse_266-2" class="st2" cx="553.5" cy="-262.3" rx="2.8" ry="2"/>
				<ellipse id="Ellipse_267-2" class="st2" cx="512.4" cy="-292.1" rx="2.8" ry="2"/>
				<ellipse id="Ellipse_268-2" class="st2" cx="512.5" cy="-246.4" rx="5.6" ry="3.9"/>
				<ellipse id="Ellipse_269-2" class="st2" cx="527.9" cy="-260.8" rx="7.3" ry="2.9"/>
			</g>
			<g id="Group_13265" transform="translate(328.467 862.387) rotate(120)" class="st1">
				<g id="Group_107-3" transform="translate(8.113 6.421)">
					<circle id="Ellipse_261-3" class="st2" cx="497.7" cy="-292.1" r="23.2"/>
					<path id="Path_573-3" class="st2" d="M512.2-274.5l4.8,3.6l1.7-1.3l-3.3-5.6L512.2-274.5z"/>
					<path id="Path_574-3" class="st2" d="M515-307.2l3.6-4.8l-1.3-1.7l-5.6,3.3L515-307.2z"/>
					<path id="Path_575-3" class="st2" d="M499.8-269.1l-0.8,6l-2.1,0.2l-1.6-6.3L499.8-269.1z"/>
					<path id="Path_576-3" class="st2" d="M520.4-295.2l6,0.8l0.2,2.1l-6.3,1.6L520.4-295.2z"/>
					<path id="Rectangle_753-3" class="st2" d="M517.4-310l-2.5-2.5c-0.9-0.9-0.9-2.3,0-3.2l0,0c0.9-0.9,2.3-0.9,3.2,0l2.5,2.5
						c0.9,0.9,0.9,2.3,0,3.2l0,0C519.7-309.1,518.3-309.1,517.4-310z"/>
					<path id="Rectangle_754-3" class="st2" d="M515.2-271.3l3.3-3.3c0.9-0.9,2.3-0.9,3.2,0l0,0c0.9,0.9,0.9,2.3,0,3.2l-3.3,3.3
						c-0.9,0.9-2.3,0.9-3.2,0l0,0C514.3-269,514.3-270.5,515.2-271.3z"/>
					<path id="Rectangle_755-3" class="st2" d="M525.3-292.4v-1.6c0-1.2,1-2.2,2.2-2.2l0,0c1.2,0,2.2,1,2.2,2.2v1.6
						c0,1.2-1,2.2-2.2,2.2l0,0C526.3-290.2,525.3-291.2,525.3-292.4z"/>
					<path id="Rectangle_756-3" class="st2" d="M495.3-263.2L495.3-263.2c0.1-1.2,1.1-2.2,2.3-2.1l0,0c1.2,0.1,2.2,1.1,2.1,2.3l0,0
						c-0.1,1.2-1.1,2.2-2.3,2.1l0,0C496.2-260.9,495.3-261.9,495.3-263.2z"/>
				</g>
				<g id="Group_108-3" transform="translate(0 0)">
					<path id="Path_577-3" class="st2" d="M497.2-264.3C497.2-264.3,497.2-264.2,497.2-264.3c-1.1-0.3-2.3-0.9-3.3-1.5
						c-2.1-1.3-4.1-2.9-5.9-4.7c-4.2-4.5-5.2-9.4-5.2-15.2c0-12.8,10.4-23.2,23.2-23.2c0,0,0,0,0,0c0.7,0,2.5,0.1,2.8,0.2
						c0,0-0.1,0-0.1,0C491.6-301.8,491.3-274.2,497.2-264.3z"/>
					<path id="Path_578-3" class="st2" d="M503.7-308.7l0.8-6l2.1-0.2l1.6,6.3L503.7-308.7z"/>
					<path id="Path_579-3" class="st2" d="M483-284.2l-6-0.8l-0.2-2.1l6.3-1.6L483-284.2z"/>
					<path id="Path_580-3" class="st2" d="M491.2-268l-4.8,3.6l-1.7-1.3l3.3-5.6L491.2-268z"/>
					<path id="Path_581-3" class="st2" d="M488.8-301l-3.6-4.8l1.3-1.7l5.6,3.3L488.8-301z"/>
					<path id="Rectangle_757-3" class="st2" d="M505-317.2h1.8c1.2,0,2.2,1,2.2,2.2l0,0c0,1.2-1,2.2-2.2,2.2H505
						c-1.2,0-2.2-1-2.2-2.2l0,0C502.7-316.2,503.8-317.2,505-317.2z"/>
					<path id="Rectangle_758-3" class="st2" d="M474.5-284v-4.4c0-1.2,1-2.2,2.2-2.2l0,0c1.2,0,2.2,1,2.2,2.2v4.4
						c0,1.2-1,2.2-2.2,2.2l0,0C475.6-281.7,474.5-282.7,474.5-284z"/>
					<path id="Rectangle_759-3" class="st2" d="M483.8-308.2l1.2-1c0.9-0.8,2.3-0.8,3.2,0.1l0,0c0.8,0.9,0.8,2.3-0.1,3.2l-1.2,1
						c-0.9,0.8-2.3,0.8-3.2-0.1l0,0C482.8-306,482.9-307.4,483.8-308.2z"/>
					<path id="Rectangle_760-3" class="st2" d="M483.7-267L483.7-267c0.9-0.8,2.3-0.8,3.2,0.1l0,0c0.8,0.9,0.8,2.3-0.1,3.2l0,0
						c-0.9,0.8-2.3,0.8-3.2-0.1l0,0C482.7-264.8,482.8-266.2,483.7-267z"/>
				</g>
				<ellipse id="Ellipse_262-3" class="st2" cx="497.2" cy="-292.6" rx="4.7" ry="2.4"/>
				<ellipse id="Ellipse_264-3" class="st2" cx="513.1" cy="-267.2" rx="1.8" ry="1.2"/>
				<ellipse id="Ellipse_265-3" class="st2" cx="516" cy="-297.9" rx="1.8" ry="1.2"/>
				<ellipse id="Ellipse_266-3" class="st2" cx="523.8" cy="-283" rx="1.8" ry="1.2"/>
				<ellipse id="Ellipse_267-3" class="st2" cx="498.2" cy="-301.5" rx="1.8" ry="1.2"/>
				<ellipse id="Ellipse_268-3" class="st2" cx="498.2" cy="-273.1" rx="3.5" ry="2.4"/>
				<ellipse id="Ellipse_269-3" class="st2" cx="507.8" cy="-282" rx="4.5" ry="1.8"/>
			</g>
			<g id="Group_13373" transform="translate(155.965 660.65) rotate(120)" class="st1">
				<g id="Group_107-4" transform="translate(8.113 6.421)">
					<circle id="Ellipse_261-4" class="st2" cx="497.7" cy="-292.1" r="23.2"/>
					<path id="Path_573-4" class="st2" d="M512.2-274.5l4.8,3.6l1.7-1.3l-3.3-5.6L512.2-274.5z"/>
					<path id="Path_574-4" class="st2" d="M515-307.2l3.6-4.8l-1.3-1.7l-5.6,3.3L515-307.2z"/>
					<path id="Path_575-4" class="st2" d="M499.8-269.1l-0.8,6l-2.1,0.2l-1.6-6.3L499.8-269.1z"/>
					<path id="Path_576-4" class="st2" d="M520.4-295.2l6,0.8l0.2,2.1l-6.3,1.6L520.4-295.2z"/>
					<path id="Rectangle_753-4" class="st2" d="M517.4-310l-2.5-2.5c-0.9-0.9-0.9-2.3,0-3.2l0,0c0.9-0.9,2.3-0.9,3.2,0l2.5,2.5
						c0.9,0.9,0.9,2.3,0,3.2l0,0C519.7-309.1,518.3-309.1,517.4-310z"/>
					<path id="Rectangle_754-4" class="st2" d="M515.2-271.3l3.3-3.3c0.9-0.9,2.3-0.9,3.2,0l0,0c0.9,0.9,0.9,2.3,0,3.2l-3.3,3.3
						c-0.9,0.9-2.3,0.9-3.2,0l0,0C514.3-269,514.3-270.5,515.2-271.3z"/>
					<path id="Rectangle_755-4" class="st2" d="M525.3-292.4v-1.6c0-1.2,1-2.2,2.2-2.2l0,0c1.2,0,2.2,1,2.2,2.2v1.6
						c0,1.2-1,2.2-2.2,2.2l0,0C526.3-290.2,525.3-291.2,525.3-292.4z"/>
					<path id="Rectangle_756-4" class="st2" d="M495.3-263.2L495.3-263.2c0.1-1.2,1.1-2.2,2.3-2.1l0,0c1.2,0.1,2.2,1.1,2.1,2.3l0,0
						c-0.1,1.2-1.1,2.2-2.3,2.1l0,0C496.2-260.9,495.3-261.9,495.3-263.2z"/>
				</g>
				<g id="Group_108-4" transform="translate(0 0)">
					<path id="Path_577-4" class="st2" d="M497.2-264.3C497.2-264.3,497.2-264.2,497.2-264.3c-1.1-0.3-2.3-0.9-3.3-1.5
						c-2.1-1.3-4.1-2.9-5.9-4.7c-4.2-4.5-5.2-9.4-5.2-15.2c0-12.8,10.4-23.2,23.2-23.2c0,0,0,0,0,0c0.7,0,2.5,0.1,2.8,0.2
						c0,0-0.1,0-0.1,0C491.6-301.8,491.3-274.2,497.2-264.3z"/>
					<path id="Path_578-4" class="st2" d="M503.7-308.7l0.8-6l2.1-0.2l1.6,6.3L503.7-308.7z"/>
					<path id="Path_579-4" class="st2" d="M483-284.2l-6-0.8l-0.2-2.1l6.3-1.6L483-284.2z"/>
					<path id="Path_580-4" class="st2" d="M491.2-268l-4.8,3.6l-1.7-1.3l3.3-5.6L491.2-268z"/>
					<path id="Path_581-4" class="st2" d="M488.8-301l-3.6-4.8l1.3-1.7l5.6,3.3L488.8-301z"/>
					<path id="Rectangle_757-4" class="st2" d="M505-317.2h1.8c1.2,0,2.2,1,2.2,2.2l0,0c0,1.2-1,2.2-2.2,2.2H505
						c-1.2,0-2.2-1-2.2-2.2l0,0C502.7-316.2,503.8-317.2,505-317.2z"/>
					<path id="Rectangle_758-4" class="st2" d="M474.5-284v-4.4c0-1.2,1-2.2,2.2-2.2l0,0c1.2,0,2.2,1,2.2,2.2v4.4
						c0,1.2-1,2.2-2.2,2.2l0,0C475.6-281.7,474.5-282.7,474.5-284z"/>
					<path id="Rectangle_759-4" class="st2" d="M483.8-308.2l1.2-1c0.9-0.8,2.3-0.8,3.2,0.1l0,0c0.8,0.9,0.8,2.3-0.1,3.2l-1.2,1
						c-0.9,0.8-2.3,0.8-3.2-0.1l0,0C482.8-306,482.9-307.4,483.8-308.2z"/>
					<path id="Rectangle_760-4" class="st2" d="M483.7-267L483.7-267c0.9-0.8,2.3-0.8,3.2,0.1l0,0c0.8,0.9,0.8,2.3-0.1,3.2l0,0
						c-0.9,0.8-2.3,0.8-3.2-0.1l0,0C482.7-264.8,482.8-266.2,483.7-267z"/>
				</g>
				<ellipse id="Ellipse_262-4" class="st2" cx="497.2" cy="-292.6" rx="4.7" ry="2.4"/>
				<ellipse id="Ellipse_264-4" class="st2" cx="513.1" cy="-267.2" rx="1.8" ry="1.2"/>
				<ellipse id="Ellipse_265-4" class="st2" cx="516" cy="-297.9" rx="1.8" ry="1.2"/>
				<ellipse id="Ellipse_266-4" class="st2" cx="523.8" cy="-283" rx="1.8" ry="1.2"/>
				<ellipse id="Ellipse_267-4" class="st2" cx="498.2" cy="-301.5" rx="1.8" ry="1.2"/>
				<ellipse id="Ellipse_268-4" class="st2" cx="498.2" cy="-273.1" rx="3.5" ry="2.4"/>
				<ellipse id="Ellipse_269-4" class="st2" cx="507.8" cy="-282" rx="4.5" ry="1.8"/>
			</g>
			<g id="Group_13264" transform="translate(298.504 966.811) rotate(120)" class="st1">
				<g id="Group_107-5" transform="translate(4.374 3.462)">
					<circle id="Ellipse_261-5" class="st2" cx="487" cy="-303.7" r="12.5"/>
					<path id="Path_573-5" class="st2" d="M494.9-294.2l2.6,2l0.9-0.7l-1.8-3L494.9-294.2z"/>
					<path id="Path_574-5" class="st2" d="M496.3-311.8l2-2.6l-0.7-0.9l-3,1.8L496.3-311.8z"/>
					<path id="Path_575-5" class="st2" d="M488.2-291.3l-0.5,3.2l-1.2,0.1l-0.9-3.4L488.2-291.3z"/>
					<path id="Path_576-5" class="st2" d="M499.2-305.4l3.2,0.5l0.1,1.2l-3.4,0.9L499.2-305.4z"/>
					<path id="Rectangle_753-5" class="st2" d="M497.6-313.3l-1.3-1.3c-0.5-0.5-0.5-1.2,0-1.7l0,0c0.5-0.5,1.2-0.5,1.7,0l1.3,1.3
						c0.5,0.5,0.5,1.2,0,1.7l0,0C498.9-312.8,498.1-312.8,497.6-313.3z"/>
					<path id="Rectangle_754-5" class="st2" d="M496.4-292.5l1.8-1.8c0.5-0.5,1.2-0.5,1.7,0l0,0c0.5,0.5,0.5,1.2,0,1.7l-1.8,1.8
						c-0.5,0.5-1.2,0.5-1.7,0l0,0C496-291.2,496-292,496.4-292.5z"/>
					<path id="Rectangle_755-5" class="st2" d="M501.9-303.9v-0.8c0-0.7,0.5-1.2,1.2-1.2h0c0.7,0,1.2,0.5,1.2,1.2v0.8
						c0,0.7-0.5,1.2-1.2,1.2h0C502.5-302.6,501.9-303.2,501.9-303.9z"/>
					<path id="Rectangle_756-5" class="st2" d="M485.8-288.1L485.8-288.1c0-0.7,0.6-1.2,1.3-1.2l0,0c0.7,0,1.2,0.6,1.2,1.3l0,0
						c0,0.7-0.6,1.2-1.3,1.2l0,0C486.2-286.9,485.7-287.4,485.8-288.1z"/>
				</g>
				<g id="Group_108-5" transform="translate(0 0)">
					<path id="Path_577-5" class="st2" d="M486.7-288.7C486.7-288.7,486.8-288.7,486.7-288.7c-0.6-0.2-1.2-0.5-1.8-0.8
						c-1.2-0.7-2.2-1.6-3.2-2.5c-2.3-2.4-2.8-5.1-2.8-8.2c0-6.9,5.6-12.5,12.5-12.5c0,0,0,0,0,0c0.4,0,1.4,0.1,1.5,0.1c0,0,0,0,0,0
						C483.7-308.9,483.6-294,486.7-288.7z"/>
					<path id="Path_578-5" class="st2" d="M490.3-312.6l0.5-3.2l1.2-0.1l0.9,3.4L490.3-312.6z"/>
					<path id="Path_579-5" class="st2" d="M479.1-299.4l-3.2-0.5l-0.1-1.2l3.4-0.9L479.1-299.4z"/>
					<path id="Path_580-5" class="st2" d="M483.5-290.7l-2.6,2l-0.9-0.7l1.8-3L483.5-290.7z"/>
					<path id="Path_581-5" class="st2" d="M482.3-308.5l-2-2.6l0.7-0.9l3,1.8L482.3-308.5z"/>
					<path id="Rectangle_757-5" class="st2" d="M491-317.2h1c0.7,0,1.2,0.5,1.2,1.2v0c0,0.7-0.5,1.2-1.2,1.2h-1
						c-0.7,0-1.2-0.5-1.2-1.2v0C489.7-316.7,490.3-317.2,491-317.2z"/>
					<path id="Rectangle_758-5" class="st2" d="M474.5-299.3v-2.4c0-0.7,0.5-1.2,1.2-1.2h0c0.7,0,1.2,0.5,1.2,1.2v2.4
						c0,0.7-0.5,1.2-1.2,1.2h0C475.1-298.1,474.5-298.6,474.5-299.3z"/>
					<path id="Rectangle_759-5" class="st2" d="M479.5-312.4l0.6-0.6c0.5-0.5,1.3-0.4,1.7,0.1l0,0c0.5,0.5,0.4,1.3-0.1,1.7l-0.6,0.6
						c-0.5,0.5-1.3,0.4-1.7-0.1l0,0C479-311.2,479-311.9,479.5-312.4z"/>
					<path id="Rectangle_760-5" class="st2" d="M479.5-290.2L479.5-290.2c0.5-0.5,1.3-0.4,1.7,0.1l0,0c0.5,0.5,0.4,1.3-0.1,1.7l0,0
						c-0.5,0.5-1.3,0.4-1.7-0.1l0,0C478.9-288.9,479-289.7,479.5-290.2z"/>
				</g>
				<ellipse id="Ellipse_262-5" class="st2" cx="486.8" cy="-304" rx="2.5" ry="1.3"/>
				<ellipse id="Ellipse_264-5" class="st2" cx="495.3" cy="-290.2" rx="1" ry="0.7"/>
				<ellipse id="Ellipse_265-5" class="st2" cx="496.9" cy="-306.8" rx="1" ry="0.7"/>
				<ellipse id="Ellipse_266-5" class="st2" cx="501.1" cy="-298.7" rx="1" ry="0.7"/>
				<ellipse id="Ellipse_267-5" class="st2" cx="487.3" cy="-308.8" rx="1" ry="0.7"/>
				<ellipse id="Ellipse_268-5" class="st2" cx="487.3" cy="-293.4" rx="1.9" ry="1.3"/>
				<ellipse id="Ellipse_269-5" class="st2" cx="492.5" cy="-298.2" rx="2.4" ry="1"/>
			</g>
			<g id="Group_13382" transform="translate(403.625 974.018) rotate(120)" class="st1">
				<g id="Group_107-6" transform="translate(3.308 2.618)">
					<circle id="Ellipse_261-6" class="st2" cx="484" cy="-307" r="9.4"/>
					<path id="Path_573-6" class="st2" d="M489.9-299.8l2,1.5l0.7-0.5l-1.3-2.3L489.9-299.8z"/>
					<path id="Path_574-6" class="st2" d="M491-313.1l1.5-2l-0.5-0.7l-2.3,1.3L491-313.1z"/>
					<path id="Path_575-6" class="st2" d="M484.9-297.6l-0.3,2.4l-0.9,0.1l-0.7-2.5L484.9-297.6z"/>
					<path id="Path_576-6" class="st2" d="M493.2-308.3l2.4,0.3l0.1,0.9l-2.5,0.7L493.2-308.3z"/>
					<path id="Rectangle_753-6" class="st2" d="M492-314.3l-1-1c-0.4-0.4-0.4-0.9,0-1.3l0,0c0.4-0.4,0.9-0.4,1.3,0l1,1
						c0.4,0.4,0.4,0.9,0,1.3l0,0C493-313.9,492.4-313.9,492-314.3z"/>
					<path id="Rectangle_754-6" class="st2" d="M491.1-298.5l1.3-1.3c0.4-0.4,0.9-0.4,1.3,0l0,0c0.4,0.4,0.4,0.9,0,1.3l-1.3,1.3
						c-0.4,0.4-0.9,0.4-1.3,0l0,0C490.8-297.6,490.8-298.2,491.1-298.5z"/>
					<path id="Rectangle_755-6" class="st2" d="M495.2-307.1v-0.6c0-0.5,0.4-0.9,0.9-0.9h0c0.5,0,0.9,0.4,0.9,0.9v0.6
						c0,0.5-0.4,0.9-0.9,0.9h0C495.7-306.2,495.2-306.6,495.2-307.1z"/>
					<path id="Rectangle_756-6" class="st2" d="M483-295.2L483-295.2c0-0.5,0.5-0.9,1-0.9l0,0c0.5,0,0.9,0.5,0.9,1l0,0
						c0,0.5-0.5,0.9-1,0.9l0,0C483.4-294.3,483-294.7,483-295.2z"/>
				</g>
				<g id="Group_108-6" transform="translate(0 0)">
					<path id="Path_577-6" class="st2" d="M483.8-295.6C483.8-295.6,483.8-295.6,483.8-295.6c-0.5-0.1-0.9-0.4-1.4-0.6
						c-0.9-0.5-1.7-1.2-2.4-1.9c-1.5-1.7-2.3-3.9-2.1-6.2c0-5.2,4.2-9.4,9.4-9.4c0.3,0,1,0,1.2,0.1c0,0,0,0,0,0
						C481.5-310.9,481.4-299.7,483.8-295.6z"/>
					<path id="Path_578-6" class="st2" d="M486.4-313.8l0.3-2.4l0.9-0.1l0.7,2.5L486.4-313.8z"/>
					<path id="Path_579-6" class="st2" d="M478-303.7l-2.4-0.3l-0.1-0.9l2.5-0.7L478-303.7z"/>
					<path id="Path_580-6" class="st2" d="M481.3-297.1l-2,1.5l-0.7-0.5l1.3-2.3L481.3-297.1z"/>
					<path id="Path_581-6" class="st2" d="M480.4-310.6l-1.5-2l0.5-0.7l2.3,1.3L480.4-310.6z"/>
					<path id="Rectangle_757-6" class="st2" d="M487-317.2h0.8c0.5,0,0.9,0.4,0.9,0.9v0c0,0.5-0.4,0.9-0.9,0.9H487
						c-0.5,0-0.9-0.4-0.9-0.9v0C486-316.8,486.5-317.2,487-317.2z"/>
					<path id="Rectangle_758-6" class="st2" d="M474.5-303.7v-1.8c0-0.5,0.4-0.9,0.9-0.9h0c0.5,0,0.9,0.4,0.9,0.9v1.8
						c0,0.5-0.4,0.9-0.9,0.9h0C475-302.7,474.5-303.1,474.5-303.7z"/>
					<path id="Rectangle_759-6" class="st2" d="M478.3-313.5l0.5-0.4c0.4-0.3,1-0.3,1.3,0.1l0,0c0.3,0.4,0.3,1-0.1,1.3l-0.5,0.4
						c-0.4,0.3-1,0.3-1.3-0.1l0,0C477.9-312.6,477.9-313.2,478.3-313.5z"/>
					<path id="Rectangle_760-6" class="st2" d="M478.3-296.8L478.3-296.8c0.4-0.3,1-0.3,1.3,0.1l0,0c0.3,0.4,0.3,1-0.1,1.3l0,0
						c-0.4,0.3-1,0.3-1.3-0.1l0,0C477.9-295.8,477.9-296.4,478.3-296.8z"/>
				</g>
				<ellipse id="Ellipse_262-6" class="st2" cx="483.8" cy="-307.2" rx="1.9" ry="1"/>
				<ellipse id="Ellipse_264-6" class="st2" cx="490.3" cy="-296.8" rx="0.7" ry="0.5"/>
				<ellipse id="Ellipse_265-6" class="st2" cx="491.4" cy="-309.3" rx="0.7" ry="0.5"/>
				<ellipse id="Ellipse_266-6" class="st2" cx="494.6" cy="-303.2" rx="0.7" ry="0.5"/>
				<ellipse id="Ellipse_267-6" class="st2" cx="484.2" cy="-310.8" rx="0.7" ry="0.5"/>
				<ellipse id="Ellipse_268-6" class="st2" cx="484.2" cy="-299.2" rx="1.4" ry="1"/>
				<ellipse id="Ellipse_269-6" class="st2" cx="488.1" cy="-302.9" rx="1.8" ry="0.7"/>
			</g>
			<g id="Group_13380" transform="translate(165.795 561.886) rotate(120)" class="st1">
				<g id="Group_107-7" transform="translate(4.374 3.462)">
					<circle id="Ellipse_261-7" class="st2" cx="487" cy="-303.7" r="12.5"/>
					<path id="Path_573-7" class="st2" d="M494.9-294.2l2.6,2l0.9-0.7l-1.8-3L494.9-294.2z"/>
					<path id="Path_574-7" class="st2" d="M496.3-311.8l2-2.6l-0.7-0.9l-3,1.8L496.3-311.8z"/>
					<path id="Path_575-7" class="st2" d="M488.2-291.3l-0.5,3.2l-1.2,0.1l-0.9-3.4L488.2-291.3z"/>
					<path id="Path_576-7" class="st2" d="M499.2-305.4l3.2,0.5l0.1,1.2l-3.4,0.9L499.2-305.4z"/>
					<path id="Rectangle_753-7" class="st2" d="M497.6-313.3l-1.3-1.3c-0.5-0.5-0.5-1.2,0-1.7l0,0c0.5-0.5,1.2-0.5,1.7,0l1.3,1.3
						c0.5,0.5,0.5,1.2,0,1.7l0,0C498.9-312.8,498.1-312.8,497.6-313.3z"/>
					<path id="Rectangle_754-7" class="st2" d="M496.4-292.5l1.8-1.8c0.5-0.5,1.2-0.5,1.7,0l0,0c0.5,0.5,0.5,1.2,0,1.7l-1.8,1.8
						c-0.5,0.5-1.2,0.5-1.7,0l0,0C496-291.2,496-292,496.4-292.5z"/>
					<path id="Rectangle_755-7" class="st2" d="M501.9-303.9v-0.8c0-0.7,0.5-1.2,1.2-1.2h0c0.7,0,1.2,0.5,1.2,1.2v0.8
						c0,0.7-0.5,1.2-1.2,1.2h0C502.5-302.6,501.9-303.2,501.9-303.9z"/>
					<path id="Rectangle_756-7" class="st2" d="M485.8-288.1L485.8-288.1c0-0.7,0.6-1.2,1.3-1.2l0,0c0.7,0,1.2,0.6,1.2,1.3l0,0
						c0,0.7-0.6,1.2-1.3,1.2l0,0C486.2-286.9,485.7-287.4,485.8-288.1z"/>
				</g>
				<g id="Group_108-7" transform="translate(0 0)">
					<path id="Path_577-7" class="st2" d="M486.7-288.7C486.7-288.7,486.8-288.7,486.7-288.7c-0.6-0.2-1.2-0.5-1.8-0.8
						c-1.2-0.7-2.2-1.6-3.2-2.5c-2.3-2.4-2.8-5.1-2.8-8.2c0-6.9,5.6-12.5,12.5-12.5c0,0,0,0,0,0c0.4,0,1.4,0.1,1.5,0.1c0,0,0,0,0,0
						C483.7-308.9,483.6-294,486.7-288.7z"/>
					<path id="Path_578-7" class="st2" d="M490.3-312.6l0.5-3.2l1.2-0.1l0.9,3.4L490.3-312.6z"/>
					<path id="Path_579-7" class="st2" d="M479.1-299.4l-3.2-0.5l-0.1-1.2l3.4-0.9L479.1-299.4z"/>
					<path id="Path_580-7" class="st2" d="M483.5-290.7l-2.6,2l-0.9-0.7l1.8-3L483.5-290.7z"/>
					<path id="Path_581-7" class="st2" d="M482.3-308.5l-2-2.6l0.7-0.9l3,1.8L482.3-308.5z"/>
					<path id="Rectangle_757-7" class="st2" d="M491-317.2h1c0.7,0,1.2,0.5,1.2,1.2v0c0,0.7-0.5,1.2-1.2,1.2h-1
						c-0.7,0-1.2-0.5-1.2-1.2v0C489.7-316.7,490.3-317.2,491-317.2z"/>
					<path id="Rectangle_758-7" class="st2" d="M474.5-299.3v-2.4c0-0.7,0.5-1.2,1.2-1.2h0c0.7,0,1.2,0.5,1.2,1.2v2.4
						c0,0.7-0.5,1.2-1.2,1.2h0C475.1-298.1,474.5-298.6,474.5-299.3z"/>
					<path id="Rectangle_759-7" class="st2" d="M479.5-312.4l0.6-0.6c0.5-0.5,1.3-0.4,1.7,0.1l0,0c0.5,0.5,0.4,1.3-0.1,1.7l-0.6,0.6
						c-0.5,0.5-1.3,0.4-1.7-0.1l0,0C479-311.2,479-311.9,479.5-312.4z"/>
					<path id="Rectangle_760-7" class="st2" d="M479.5-290.2L479.5-290.2c0.5-0.5,1.3-0.4,1.7,0.1l0,0c0.5,0.5,0.4,1.3-0.1,1.7l0,0
						c-0.5,0.5-1.3,0.4-1.7-0.1l0,0C478.9-288.9,479-289.7,479.5-290.2z"/>
				</g>
				<ellipse id="Ellipse_262-7" class="st2" cx="486.8" cy="-304" rx="2.5" ry="1.3"/>
				<ellipse id="Ellipse_264-7" class="st2" cx="495.3" cy="-290.2" rx="1" ry="0.7"/>
				<ellipse id="Ellipse_265-7" class="st2" cx="496.9" cy="-306.8" rx="1" ry="0.7"/>
				<ellipse id="Ellipse_266-7" class="st2" cx="501.1" cy="-298.7" rx="1" ry="0.7"/>
				<ellipse id="Ellipse_267-7" class="st2" cx="487.3" cy="-308.8" rx="1" ry="0.7"/>
				<ellipse id="Ellipse_268-7" class="st2" cx="487.3" cy="-293.4" rx="1.9" ry="1.3"/>
				<ellipse id="Ellipse_269-7" class="st2" cx="492.5" cy="-298.2" rx="2.4" ry="1"/>
			</g>
			<g id="Group_13381" transform="translate(275.28 617.485) rotate(120)" class="st1">
				<g id="Group_107-8" transform="translate(4.374 3.462)">
					<circle id="Ellipse_261-8" class="st2" cx="487" cy="-303.7" r="12.5"/>
					<path id="Path_573-8" class="st2" d="M494.9-294.2l2.6,2l0.9-0.7l-1.8-3L494.9-294.2z"/>
					<path id="Path_574-8" class="st2" d="M496.3-311.8l2-2.6l-0.7-0.9l-3,1.8L496.3-311.8z"/>
					<path id="Path_575-8" class="st2" d="M488.2-291.3l-0.5,3.2l-1.2,0.1l-0.9-3.4L488.2-291.3z"/>
					<path id="Path_576-8" class="st2" d="M499.2-305.4l3.2,0.5l0.1,1.2l-3.4,0.9L499.2-305.4z"/>
					<path id="Rectangle_753-8" class="st2" d="M497.6-313.3l-1.3-1.3c-0.5-0.5-0.5-1.2,0-1.7l0,0c0.5-0.5,1.2-0.5,1.7,0l1.3,1.3
						c0.5,0.5,0.5,1.2,0,1.7l0,0C498.9-312.8,498.1-312.8,497.6-313.3z"/>
					<path id="Rectangle_754-8" class="st2" d="M496.4-292.5l1.8-1.8c0.5-0.5,1.2-0.5,1.7,0l0,0c0.5,0.5,0.5,1.2,0,1.7l-1.8,1.8
						c-0.5,0.5-1.2,0.5-1.7,0l0,0C496-291.2,496-292,496.4-292.5z"/>
					<path id="Rectangle_755-8" class="st2" d="M501.9-303.9v-0.8c0-0.7,0.5-1.2,1.2-1.2h0c0.7,0,1.2,0.5,1.2,1.2v0.8
						c0,0.7-0.5,1.2-1.2,1.2h0C502.5-302.6,501.9-303.2,501.9-303.9z"/>
					<path id="Rectangle_756-8" class="st2" d="M485.8-288.1L485.8-288.1c0-0.7,0.6-1.2,1.3-1.2l0,0c0.7,0,1.2,0.6,1.2,1.3l0,0
						c0,0.7-0.6,1.2-1.3,1.2l0,0C486.2-286.9,485.7-287.4,485.8-288.1z"/>
				</g>
				<g id="Group_108-8" transform="translate(0 0)">
					<path id="Path_577-8" class="st2" d="M486.7-288.7C486.7-288.7,486.8-288.7,486.7-288.7c-0.6-0.2-1.2-0.5-1.8-0.8
						c-1.2-0.7-2.2-1.6-3.2-2.5c-2.3-2.4-2.8-5.1-2.8-8.2c0-6.9,5.6-12.5,12.5-12.5c0,0,0,0,0,0c0.4,0,1.4,0.1,1.5,0.1c0,0,0,0,0,0
						C483.7-308.9,483.6-294,486.7-288.7z"/>
					<path id="Path_578-8" class="st2" d="M490.3-312.6l0.5-3.2l1.2-0.1l0.9,3.4L490.3-312.6z"/>
					<path id="Path_579-8" class="st2" d="M479.1-299.4l-3.2-0.5l-0.1-1.2l3.4-0.9L479.1-299.4z"/>
					<path id="Path_580-8" class="st2" d="M483.5-290.7l-2.6,2l-0.9-0.7l1.8-3L483.5-290.7z"/>
					<path id="Path_581-8" class="st2" d="M482.3-308.5l-2-2.6l0.7-0.9l3,1.8L482.3-308.5z"/>
					<path id="Rectangle_757-8" class="st2" d="M491-317.2h1c0.7,0,1.2,0.5,1.2,1.2v0c0,0.7-0.5,1.2-1.2,1.2h-1
						c-0.7,0-1.2-0.5-1.2-1.2v0C489.7-316.7,490.3-317.2,491-317.2z"/>
					<path id="Rectangle_758-8" class="st2" d="M474.5-299.3v-2.4c0-0.7,0.5-1.2,1.2-1.2h0c0.7,0,1.2,0.5,1.2,1.2v2.4
						c0,0.7-0.5,1.2-1.2,1.2h0C475.1-298.1,474.5-298.6,474.5-299.3z"/>
					<path id="Rectangle_759-8" class="st2" d="M479.5-312.4l0.6-0.6c0.5-0.5,1.3-0.4,1.7,0.1l0,0c0.5,0.5,0.4,1.3-0.1,1.7l-0.6,0.6
						c-0.5,0.5-1.3,0.4-1.7-0.1l0,0C479-311.2,479-311.9,479.5-312.4z"/>
					<path id="Rectangle_760-8" class="st2" d="M479.5-290.2L479.5-290.2c0.5-0.5,1.3-0.4,1.7,0.1l0,0c0.5,0.5,0.4,1.3-0.1,1.7l0,0
						c-0.5,0.5-1.3,0.4-1.7-0.1l0,0C478.9-288.9,479-289.7,479.5-290.2z"/>
				</g>
				<ellipse id="Ellipse_262-8" class="st2" cx="486.8" cy="-304" rx="2.5" ry="1.3"/>
				<ellipse id="Ellipse_264-8" class="st2" cx="495.3" cy="-290.2" rx="1" ry="0.7"/>
				<ellipse id="Ellipse_265-8" class="st2" cx="496.9" cy="-306.8" rx="1" ry="0.7"/>
				<ellipse id="Ellipse_266-8" class="st2" cx="501.1" cy="-298.7" rx="1" ry="0.7"/>
				<ellipse id="Ellipse_267-8" class="st2" cx="487.3" cy="-308.8" rx="1" ry="0.7"/>
				<ellipse id="Ellipse_268-8" class="st2" cx="487.3" cy="-293.4" rx="1.9" ry="1.3"/>
				<ellipse id="Ellipse_269-8" class="st2" cx="492.5" cy="-298.2" rx="2.4" ry="1"/>
			</g>
			<g id="Group_13372" transform="translate(394.95 821.454) rotate(120)" class="st1">
				<g id="Group_107-9" transform="translate(4.374 3.462)">
					<circle id="Ellipse_261-9" class="st2" cx="487" cy="-303.7" r="12.5"/>
					<path id="Path_573-9" class="st2" d="M494.9-294.2l2.6,2l0.9-0.7l-1.8-3L494.9-294.2z"/>
					<path id="Path_574-9" class="st2" d="M496.3-311.8l2-2.6l-0.7-0.9l-3,1.8L496.3-311.8z"/>
					<path id="Path_575-9" class="st2" d="M488.2-291.3l-0.5,3.2l-1.2,0.1l-0.9-3.4L488.2-291.3z"/>
					<path id="Path_576-9" class="st2" d="M499.2-305.4l3.2,0.5l0.1,1.2l-3.4,0.9L499.2-305.4z"/>
					<path id="Rectangle_753-9" class="st2" d="M497.6-313.3l-1.3-1.3c-0.5-0.5-0.5-1.2,0-1.7l0,0c0.5-0.5,1.2-0.5,1.7,0l1.3,1.3
						c0.5,0.5,0.5,1.2,0,1.7l0,0C498.9-312.8,498.1-312.8,497.6-313.3z"/>
					<path id="Rectangle_754-9" class="st2" d="M496.4-292.5l1.8-1.8c0.5-0.5,1.2-0.5,1.7,0l0,0c0.5,0.5,0.5,1.2,0,1.7l-1.8,1.8
						c-0.5,0.5-1.2,0.5-1.7,0l0,0C496-291.2,496-292,496.4-292.5z"/>
					<path id="Rectangle_755-9" class="st2" d="M501.9-303.9v-0.8c0-0.7,0.5-1.2,1.2-1.2h0c0.7,0,1.2,0.5,1.2,1.2v0.8
						c0,0.7-0.5,1.2-1.2,1.2h0C502.5-302.6,501.9-303.2,501.9-303.9z"/>
					<path id="Rectangle_756-9" class="st2" d="M485.8-288.1L485.8-288.1c0-0.7,0.6-1.2,1.3-1.2l0,0c0.7,0,1.2,0.6,1.2,1.3l0,0
						c0,0.7-0.6,1.2-1.3,1.2l0,0C486.2-286.9,485.7-287.4,485.8-288.1z"/>
				</g>
				<g id="Group_108-9" transform="translate(0 0)">
					<path id="Path_577-9" class="st2" d="M486.7-288.7C486.7-288.7,486.8-288.7,486.7-288.7c-0.6-0.2-1.2-0.5-1.8-0.8
						c-1.2-0.7-2.2-1.6-3.2-2.5c-2.3-2.4-2.8-5.1-2.8-8.2c0-6.9,5.6-12.5,12.5-12.5c0,0,0,0,0,0c0.4,0,1.4,0.1,1.5,0.1c0,0,0,0,0,0
						C483.7-308.9,483.6-294,486.7-288.7z"/>
					<path id="Path_578-9" class="st2" d="M490.3-312.6l0.5-3.2l1.2-0.1l0.9,3.4L490.3-312.6z"/>
					<path id="Path_579-9" class="st2" d="M479.1-299.4l-3.2-0.5l-0.1-1.2l3.4-0.9L479.1-299.4z"/>
					<path id="Path_580-9" class="st2" d="M483.5-290.7l-2.6,2l-0.9-0.7l1.8-3L483.5-290.7z"/>
					<path id="Path_581-9" class="st2" d="M482.3-308.5l-2-2.6l0.7-0.9l3,1.8L482.3-308.5z"/>
					<path id="Rectangle_757-9" class="st2" d="M491-317.2h1c0.7,0,1.2,0.5,1.2,1.2v0c0,0.7-0.5,1.2-1.2,1.2h-1
						c-0.7,0-1.2-0.5-1.2-1.2v0C489.7-316.7,490.3-317.2,491-317.2z"/>
					<path id="Rectangle_758-9" class="st2" d="M474.5-299.3v-2.4c0-0.7,0.5-1.2,1.2-1.2h0c0.7,0,1.2,0.5,1.2,1.2v2.4
						c0,0.7-0.5,1.2-1.2,1.2h0C475.1-298.1,474.5-298.6,474.5-299.3z"/>
					<path id="Rectangle_759-9" class="st2" d="M479.5-312.4l0.6-0.6c0.5-0.5,1.3-0.4,1.7,0.1l0,0c0.5,0.5,0.4,1.3-0.1,1.7l-0.6,0.6
						c-0.5,0.5-1.3,0.4-1.7-0.1l0,0C479-311.2,479-311.9,479.5-312.4z"/>
					<path id="Rectangle_760-9" class="st2" d="M479.5-290.2L479.5-290.2c0.5-0.5,1.3-0.4,1.7,0.1l0,0c0.5,0.5,0.4,1.3-0.1,1.7l0,0
						c-0.5,0.5-1.3,0.4-1.7-0.1l0,0C478.9-288.9,479-289.7,479.5-290.2z"/>
				</g>
				<ellipse id="Ellipse_262-9" class="st2" cx="486.8" cy="-304" rx="2.5" ry="1.3"/>
				<ellipse id="Ellipse_264-9" class="st2" cx="495.3" cy="-290.2" rx="1" ry="0.7"/>
				<ellipse id="Ellipse_265-9" class="st2" cx="496.9" cy="-306.8" rx="1" ry="0.7"/>
				<ellipse id="Ellipse_266-9" class="st2" cx="501.1" cy="-298.7" rx="1" ry="0.7"/>
				<ellipse id="Ellipse_267-9" class="st2" cx="487.3" cy="-308.8" rx="1" ry="0.7"/>
				<ellipse id="Ellipse_268-9" class="st2" cx="487.3" cy="-293.4" rx="1.9" ry="1.3"/>
				<ellipse id="Ellipse_269-9" class="st2" cx="492.5" cy="-298.2" rx="2.4" ry="1"/>
			</g>
			<g id="Group_13266" transform="translate(219.082 926.805) rotate(120)" class="st1">
				<g id="Group_107-10" transform="translate(5.944 4.704)">
					
						<ellipse id="Ellipse_261-10" transform="matrix(0.5 0.866 -0.866 0.5 -13.0297 -575.0736)" class="st2" cx="491.5" cy="-298.8" rx="17" ry="17"/>
					<path id="Path_573-10" class="st2" d="M502.2-285.9l3.5,2.7l1.2-1l-2.4-4.1L502.2-285.9z"/>
					<path id="Path_574-10" class="st2" d="M504.2-309.9l2.7-3.5l-1-1.2l-4.1,2.4L504.2-309.9z"/>
					<path id="Path_575-10" class="st2" d="M493.1-282l-0.6,4.4l-1.6,0.2l-1.2-4.6L493.1-282z"/>
					<path id="Path_576-10" class="st2" d="M508.1-301.1l4.4,0.6l0.2,1.6l-4.6,1.2L508.1-301.1z"/>
					<path id="Rectangle_753-10" class="st2" d="M505.9-311.9l-1.8-1.8c-0.6-0.6-0.6-1.7,0-2.3l0,0c0.6-0.6,1.7-0.6,2.3,0l1.8,1.8
						c0.6,0.6,0.6,1.7,0,2.3l0,0C507.6-311.3,506.6-311.3,505.9-311.9z"/>
					<path id="Rectangle_754-10" class="st2" d="M504.3-283.6l2.4-2.4c0.6-0.6,1.7-0.6,2.3,0l0,0c0.6,0.6,0.6,1.7,0,2.3l-2.4,2.4
						c-0.6,0.6-1.7,0.6-2.3,0l0,0C503.7-281.9,503.7-283,504.3-283.6z"/>
					<path id="Rectangle_755-10" class="st2" d="M511.7-299.1l0-1.1c0-0.9,0.7-1.6,1.6-1.6l0,0c0.9,0,1.6,0.7,1.6,1.6v1.1
						c0,0.9-0.7,1.6-1.6,1.6l0,0C512.5-297.4,511.7-298.1,511.7-299.1z"/>
					<path id="Rectangle_756-10" class="st2" d="M489.8-277.6L489.8-277.6c0-0.9,0.8-1.6,1.7-1.6l0,0c0.9,0,1.6,0.8,1.6,1.7l0,0
						c0,0.9-0.8,1.6-1.7,1.6l0,0C490.4-276,489.7-276.7,489.8-277.6z"/>
				</g>
				<g id="Group_108-10" transform="translate(0 0)">
					<path id="Path_577-10" class="st2" d="M491.1-278.5C491.1-278.5,491.1-278.4,491.1-278.5c-0.8-0.2-1.7-0.6-2.4-1.1
						c-1.6-1-3-2.1-4.3-3.4c-3.1-3.3-3.8-6.9-3.8-11.1c0-9.4,7.6-17,17-17l0,0c0.5,0,1.9,0.1,2.1,0.1c0,0,0,0-0.1,0
						C487-305.9,486.8-285.7,491.1-278.5z"/>
					<path id="Path_578-10" class="st2" d="M495.9-311l0.6-4.4l1.6-0.2l1.2,4.6L495.9-311z"/>
					<path id="Path_579-10" class="st2" d="M480.8-293l-4.4-0.6l-0.2-1.6l4.6-1.2L480.8-293z"/>
					<path id="Path_580-10" class="st2" d="M486.7-281.1l-3.5,2.7l-1.2-1l2.4-4.1L486.7-281.1z"/>
					<path id="Path_581-10" class="st2" d="M485-305.4l-2.7-3.5l1-1.2l4.1,2.4L485-305.4z"/>
					<path id="Rectangle_757-10" class="st2" d="M496.9-317.2h1.3c0.9,0,1.6,0.7,1.6,1.6l0,0c0,0.9-0.7,1.6-1.6,1.6h-1.3
						c-0.9,0-1.6-0.7-1.6-1.6l0,0C495.2-316.5,495.9-317.2,496.9-317.2z"/>
					<path id="Rectangle_758-10" class="st2" d="M474.5-292.9v-3.2c0-0.9,0.7-1.6,1.6-1.6l0,0c0.9,0,1.6,0.7,1.6,1.6v3.2
						c0,0.9-0.7,1.6-1.6,1.6l0,0C475.3-291.2,474.5-291.9,474.5-292.9z"/>
					<path id="Rectangle_759-10" class="st2" d="M481.3-310.6l0.8-0.8c0.7-0.6,1.7-0.6,2.3,0.1l0,0c0.6,0.7,0.6,1.7-0.1,2.3
						l-0.8,0.8c-0.7,0.6-1.7,0.6-2.3-0.1l0,0C480.6-309,480.6-310,481.3-310.6z"/>
					<path id="Rectangle_760-10" class="st2" d="M481.2-280.5L481.2-280.5c0.7-0.6,1.7-0.6,2.3,0.1l0,0c0.6,0.7,0.6,1.7-0.1,2.3l0,0
						c-0.7,0.6-1.7,0.6-2.3-0.1l0,0C480.5-278.8,480.6-279.8,481.2-280.5z"/>
				</g>
				<ellipse id="Ellipse_262-10" class="st2" cx="491.2" cy="-299.2" rx="3.4" ry="1.8"/>
				<ellipse id="Ellipse_264-10" class="st2" cx="502.8" cy="-280.6" rx="1.3" ry="0.9"/>
				<ellipse id="Ellipse_265-10" class="st2" cx="504.9" cy="-303" rx="1.3" ry="0.9"/>
				<ellipse id="Ellipse_266-10" class="st2" cx="510.6" cy="-292.1" rx="1.3" ry="0.9"/>
				<ellipse id="Ellipse_267-10" class="st2" cx="491.8" cy="-305.7" rx="1.3" ry="0.9"/>
				<ellipse id="Ellipse_268-10" class="st2" cx="491.9" cy="-284.9" rx="2.6" ry="1.8"/>
				<ellipse id="Ellipse_269-10" class="st2" cx="498.9" cy="-291.4" rx="3.3" ry="1.3"/>
			</g>
			<g id="Group_13376" transform="translate(230.526 705.412) rotate(165)">
				<path id="Rectangle_980" class="st3" d="M114.2-559.9h33.1c1.7,0,3,1.3,3,3l0,76.1c0,1.7-1.3,3-3,3h-33.1c-1.7,0-3-1.3-3-3
					l0-76.1C111.2-558.5,112.6-559.9,114.2-559.9z"/>
				<rect id="Rectangle_981" x="123.6" y="-478.4" class="st3" width="14.3" height="7.8"/>
				<rect id="Rectangle_982" x="129.5" y="-471.2" class="st3" width="2.6" height="11.7"/>
				<path id="Path_9491" class="st3" d="M132.7-455.7l5.2-4.1h-14.3v4.1H132.7z"/>
			</g>
			<g id="Group_13377" transform="translate(-568.205 963.759) rotate(-30)">
				<path id="Path_9492" class="st3" d="M566.1,923.4H602c8.4,0,15.2,2.1,15.2,10.5v18.7c0,8.4-6.8,4.7-15.2,4.7h-35.8
					c-8.4,0-15.2,3.7-15.2-4.7V934C550.9,925.6,557.7,923.4,566.1,923.4z"/>
				<path id="Path_9493" class="st4" d="M552.1,929.9c0,0-9.8-14.9-15.3-15.7s-12.8,3.5-3.9,20.1c8.9,16.6,15.7,5.3,19.2,21.6"/>
				<path id="Path_9494" class="st4" d="M615.3,930.3c0,0,9.8-14.9,15.3-15.7s12.8,3.5,3.9,20.1s-15.7,5.3-19.2,21.6"/>
			</g>
		</g>
	</g>
</g>
<g id="Group_13262" transform="translate(1654.836 16.417)" class="st1">
	<g id="Group_107_1_" transform="translate(61.463 59.222)">
		<circle id="Ellipse_261_1_" class="st2" cx="48.7" cy="52.3" r="73.7"/>
		<path id="Path_573_1_" class="st2" d="M95,108.4l15.4,11.6l5.4-4.3l-10.4-17.8L95,108.4z"/>
		<path id="Path_574_1_" class="st2" d="M103.7,4.2l11.6-15.4l-4.3-5.4L93.1-6.2L103.7,4.2z"/>
		<path id="Path_575_1_" class="st2" d="M55.5,125.5l-2.7,19l-6.9,0.8l-5.1-19.9H55.5z"/>
		<path id="Path_576_1_" class="st2" d="M120.8,42.3l19,2.7l0.8,6.9l-19.9,5.3V42.3z"/>
		<path id="Rectangle_753_1_" class="st2" d="M111.4-4.6l-7.8-7.8c-2.8-2.8-2.8-7.3,0-10.1l0,0c2.8-2.8,7.3-2.8,10.1,0l7.8,7.8
			c2.8,2.8,2.8,7.3,0,10.1l0,0C118.7-1.8,114.2-1.8,111.4-4.6z"/>
		<path id="Rectangle_754_1_" class="st2" d="M104.4,118.4l10.5-10.5c2.8-2.8,7.3-2.8,10.1,0l0,0c2.8,2.8,2.8,7.3,0,10.1l-10.5,10.5
			c-2.8,2.8-7.3,2.8-10.1,0l0,0C101.5,125.7,101.5,121.3,104.4,118.4z"/>
		<path id="Rectangle_755_1_" class="st2" d="M136.6,51.3v-5c0-3.9,3.2-7.2,7.2-7.2l0,0c3.9,0,7.2,3.2,7.2,7.2v5
			c0,3.9-3.2,7.2-7.2,7.2l0,0C139.9,58.5,136.6,55.2,136.6,51.3z"/>
		<path id="Rectangle_756_1_" class="st2" d="M41.8,144.4L41.8,144.4c0.1-3.9,3.5-7,7.4-6.8l0,0c3.9,0.1,7,3.5,6.8,7.4l0,0
			c-0.1,3.9-3.5,7-7.4,6.8l0,0C44.7,151.7,41.6,148.3,41.8,144.4z"/>
	</g>
	<g id="Group_108_1_" transform="translate(42.334 44.083)">
		<path id="Path_577_1_" class="st2" d="M40.3,135.5l0.1,0.3c-3.8-1.4-7.3-3-10.7-5.1c-6.9-4.2-13.1-9.2-18.9-14.9
			c-13.5-14.3-16.5-30-16.5-48.4c0-40.8,33.1-73.7,73.7-73.7l0,0c2.3,0,8.1,0.4,9,0.5c0.1,0-0.1,0.1-0.3,0.1
			C22.6,16.3,21.7,103.9,40.3,135.5z"/>
		<path id="Path_578_1_" class="st2" d="M61.2-5.9l2.7-19l6.9-0.8L76-5.9H61.2z"/>
		<path id="Path_579_1_" class="st2" d="M-4.7,72.2l-19-2.7l-0.8-6.9l19.9-5.3V72.2z"/>
		<path id="Path_580_1_" class="st2" d="M21.2,123.9L5.8,135.5l-5.4-4.3l10.4-17.8L21.2,123.9z"/>
		<path id="Path_581_1_" class="st2" d="M13.8,18.6L2.2,3.2l4.3-5.4L24.3,8.2L13.8,18.6z"/>
		<path id="Rectangle_757_1_" class="st2" d="M65.2-33H71c3.9,0,7.2,3.2,7.2,7.2l0,0c0,3.9-3.2,7.2-7.2,7.2h-5.8
			c-3.9,0-7.2-3.2-7.2-7.2l0,0C58.1-29.8,61.3-33,65.2-33z"/>
		<path id="Rectangle_758_1_" class="st2" d="M-31.7,73V59c0-3.9,3.2-7.2,7.2-7.2l0,0c3.9,0,7.2,3.2,7.2,7.2v14
			c0,3.9-3.2,7.2-7.2,7.2l0,0C-28.5,80.2-31.7,76.9-31.7,73z"/>
		<path id="Rectangle_759_1_" class="st2" d="M-2.3-4.4l3.6-3.4c3-2.7,7.4-2.4,10.1,0.4l0,0c2.7,3,2.4,7.4-0.4,10.1L7.4,6.2
			C4.5,8.9,0,8.6-2.7,5.8l0,0C-5.4,2.9-5.3-1.7-2.3-4.4z"/>
		<path id="Rectangle_760_1_" class="st2" d="M-2,127.4L-2,127.4c3-2.7,7.4-2.4,10.1,0.4l0,0c2.7,3,2.4,7.4-0.4,10.1l0,0
			c-3,2.7-7.4,2.4-10.1-0.4l0,0C-5.1,134.6-5,130.1-2,127.4z"/>
	</g>
	<ellipse id="Ellipse_264_1_" class="st2" cx="133.5" cy="170.5" rx="5.7" ry="3.9"/>
	<ellipse id="Ellipse_265_1_" class="st2" cx="142.5" cy="72.7" rx="5.7" ry="3.9"/>
	<ellipse id="Ellipse_266_1_" class="st2" cx="167.4" cy="120.2" rx="5.7" ry="3.9"/>
	<ellipse id="Ellipse_267_1_" class="st2" cx="85.8" cy="61.1" rx="5.7" ry="3.9"/>
	<ellipse id="Ellipse_268_1_" class="st2" cx="85.9" cy="151.6" rx="11.1" ry="7.8"/>
	<ellipse id="Ellipse_269_1_" class="st2" cx="116.6" cy="123.2" rx="14.5" ry="5.7"/>
</g>
<g id="Group_13379" transform="translate(1749.736 258.332) rotate(120)" class="st1">
	<g id="Group_107-2_1_" transform="translate(8.113 6.421)">
		<circle id="Ellipse_261-2_1_" class="st2" cx="72.4" cy="29.5" r="31.3"/>
		<path id="Path_573-2_1_" class="st2" d="M91.9,53.2l6.5,4.9l2.3-1.8l-4.5-7.6L91.9,53.2z"/>
		<path id="Path_574-2_1_" class="st2" d="M95.6,9.1l5-6.6l-1.8-2.3l-7.7,4.5L95.6,9.1z"/>
		<path id="Path_575-2_1_" class="st2" d="M75.2,60.5l-1.1,8.1l-2.8,0.3l-2.2-8.5L75.2,60.5z"/>
		<path id="Path_576-2_1_" class="st2" d="M102.9,25.3l8.1,1.1l0.3,2.8l-8.4,2.3V25.3z"/>
		<path id="Rectangle_753-2_1_" class="st2" d="M99,5.3l-3.4-3.4c-1.2-1.2-1.2-3.1,0-4.3l0,0c1.2-1.2,3.1-1.2,4.3,0l3.4,3.4
			c1.2,1.2,1.2,3.1,0,4.3l0,0C102.1,6.5,100,6.5,99,5.3z"/>
		<path id="Rectangle_754-2_1_" class="st2" d="M95.9,57.6l4.5-4.5c1.2-1.2,3.1-1.2,4.3,0l0,0c1.2,1.2,1.2,3.1,0,4.3l-4.5,4.5
			c-1.2,1.2-3.1,1.2-4.3,0l0,0C94.8,60.7,94.8,58.6,95.9,57.6z"/>
		<path id="Rectangle_755-2_1_" class="st2" d="M109.6,29.1v-2.2c0-1.6,1.4-3,3-3l0,0c1.6,0,3,1.4,3,3v2.2c0,1.6-1.4,3-3,3l0,0
			C111,32,109.6,30.7,109.6,29.1z"/>
		<path id="Rectangle_756-2_1_" class="st2" d="M69.1,68.5L69.1,68.5c0.1-1.6,1.5-3,3.1-2.8l0,0c1.6,0.1,3,1.5,2.8,3.1l0,0
			c-0.1,1.6-1.5,3-3.1,2.8l0,0C70.3,71.6,69,70.3,69.1,68.5z"/>
	</g>
	<g id="Group_108-2_1_" transform="translate(0 0)">
		<path id="Path_577-2_1_" class="st2" d="M68.7,64.8C68.7,64.8,68.8,64.9,68.7,64.8c-1.5-0.4-3.1-1.2-4.5-2c-2.8-1.8-5.5-3.9-8-6.3
			c-5.7-6.1-7-12.7-7-20.5c0-17.3,14-31.3,31.3-31.3l0,0c0.9,0,3.4,0.1,3.8,0.3h-0.1C61.1,14.3,60.9,51.4,68.7,64.8z"/>
		<path id="Path_578-2_1_" class="st2" d="M77.6,4.8l1.1-8.1l2.8-0.3l2.2,8.5L77.6,4.8z"/>
		<path id="Path_579-2_1_" class="st2" d="M49.7,37.9l-8.1-1.1L41.3,34l8.5-2.2L49.7,37.9z"/>
		<path id="Path_580-2_1_" class="st2" d="M60.6,59.8l-6.5,4.9l-2.3-1.8l4.5-7.6L60.6,59.8z"/>
		<path id="Path_581-2_1_" class="st2" d="M57.5,15.2l-4.9-6.5l1.8-2.4l7.6,4.5L57.5,15.2z"/>
		<path id="Rectangle_757-2_1_" class="st2" d="M79.4-6.7l2.4,0c1.6,0,3,1.4,3,3l0,0c0,1.6-1.4,3-3,3l-2.4,0c-1.6,0-3-1.4-3-3l0,0
			C76.3-5.3,77.6-6.7,79.4-6.7z"/>
		<path id="Rectangle_758-2_1_" class="st2" d="M38.2,38.3v-5.9c0-1.6,1.4-3,3-3l0,0c1.6,0,3,1.4,3,3v5.9c0,1.6-1.4,3-3,3l0,0
			C39.5,41.3,38.2,39.9,38.2,38.3z"/>
		<path id="Rectangle_759-2_1_" class="st2" d="M50.7,5.5l1.6-1.4C53.6,3,55.5,3,56.7,4.3l0,0c1.1,1.2,1.1,3.1-0.1,4.3l-1.6,1.4
			c-1.2,1.1-3.1,1.1-4.3-0.1l0,0C49.4,8.4,49.4,6.6,50.7,5.5z"/>
		<path id="Rectangle_760-2_1_" class="st2" d="M50.5,61.1L50.5,61.1c1.2-1.1,3.1-1.1,4.3,0.1l0,0c1.1,1.2,1.1,3.1-0.1,4.3l0,0
			c-1.2,1.1-3.1,1.1-4.3-0.1l0,0C49.3,64.1,49.3,62.2,50.5,61.1z"/>
	</g>
	<ellipse id="Ellipse_262_1_" class="st2" cx="68.8" cy="26.5" rx="6.3" ry="3.2"/>
	<ellipse id="Ellipse_264-2_1_" class="st2" cx="90.3" cy="60.8" rx="2.4" ry="1.6"/>
	<ellipse id="Ellipse_265-2_1_" class="st2" cx="94.1" cy="19.4" rx="2.4" ry="1.6"/>
	<ellipse id="Ellipse_266-2_1_" class="st2" cx="104.6" cy="39.5" rx="2.4" ry="1.6"/>
	<ellipse id="Ellipse_267-2_1_" class="st2" cx="70.1" cy="14.5" rx="2.4" ry="1.6"/>
	<ellipse id="Ellipse_268-2_1_" class="st2" cx="70.1" cy="52.9" rx="4.7" ry="3.2"/>
	<ellipse id="Ellipse_269-2_1_" class="st2" cx="83.2" cy="40.9" rx="6.1" ry="2.4"/>
</g>
<g id="Group_13385" transform="translate(1638.125 338.523) rotate(120)" class="st1">
	<g id="Group_107-3_1_" transform="translate(4.743 3.754)">
		<circle id="Ellipse_261-3_1_" class="st2" cx="102" cy="34.3" r="18.2"/>
		<path id="Path_573-3_1_" class="st2" d="M113.5,48.2l3.8,2.8l1.4-1.1l-2.6-4.5L113.5,48.2z"/>
		<path id="Path_574-3_1_" class="st2" d="M115.6,22.3l2.8-3.8l-1.1-1.4l-4.5,2.6L115.6,22.3z"/>
		<path id="Path_575-3_1_" class="st2" d="M103.7,52.4l-0.7,4.7l-1.8,0.1l-1.4-5L103.7,52.4z"/>
		<path id="Path_576-3_1_" class="st2" d="M120,31.8l4.7,0.7l0.1,1.8l-5,1.4L120,31.8z"/>
		<path id="Rectangle_753-3_1_" class="st2" d="M117.7,20.1l-1.9-1.9c-0.7-0.7-0.7-1.8,0-2.6l0,0c0.7-0.7,1.8-0.7,2.6,0l1.9,1.9
			c0.7,0.7,0.7,1.8,0,2.6l0,0C119.4,20.8,118.3,20.8,117.7,20.1z"/>
		<path id="Rectangle_754-3_1_" class="st2" d="M115.9,50.7l2.6-2.6c0.7-0.7,1.8-0.7,2.6,0l0,0c0.7,0.7,0.7,1.8,0,2.6l-2.6,2.6
			c-0.7,0.7-1.8,0.7-2.6,0l0,0C115.1,52.6,115.1,51.3,115.9,50.7z"/>
		<path id="Rectangle_755-3_1_" class="st2" d="M123.9,34v-1.2c0-0.9,0.8-1.8,1.8-1.8l0,0c0.9,0,1.8,0.8,1.8,1.8V34
			c0,0.9-0.8,1.8-1.8,1.8l0,0C124.7,35.8,123.9,35,123.9,34z"/>
		<path id="Rectangle_756-3_1_" class="st2" d="M100.2,57.1L100.2,57.1c0-0.9,0.8-1.8,1.9-1.8l0,0c0.9,0,1.8,0.8,1.8,1.9l0,0
			c0,0.9-0.8,1.8-1.9,1.8l0,0C100.9,58.9,100.1,58.1,100.2,57.1z"/>
	</g>
	<g id="Group_108-3_1_" transform="translate(0 0)">
		<path id="Path_577-3_1_" class="st2" d="M99.9,54.9C99.9,54.9,99.9,55,99.9,54.9c-0.9-0.3-1.8-0.7-2.6-1.2
			c-1.8-1.1-3.2-2.3-4.7-3.6c-3.4-3.5-4.1-7.4-4.1-12c0-10.1,8.2-18.2,18.2-18.2l0,0c0.5,0,2,0.1,2.3,0.1l0,0
			C95.6,25.3,95.3,47,99.9,54.9z"/>
		<path id="Path_578-3_1_" class="st2" d="M105.2,19.9l0.7-4.7l1.8-0.1l1.4,5L105.2,19.9z"/>
		<path id="Path_579-3_1_" class="st2" d="M88.8,39.2l-4.7-0.7L84,36.8l5-1.4L88.8,39.2z"/>
		<path id="Path_580-3_1_" class="st2" d="M95.2,52l-3.8,2.8l-1.4-1.1l2.6-4.5L95.2,52z"/>
		<path id="Path_581-3_1_" class="st2" d="M93.4,25.8l-3-3.8l1.1-1.4l4.5,2.6L93.4,25.8z"/>
		<path id="Rectangle_757-3_1_" class="st2" d="M106.1,13.1h1.5c0.9,0,1.8,0.8,1.8,1.8l0,0c0,0.9-0.8,1.8-1.8,1.8h-1.5
			c-0.9,0-1.8-0.8-1.8-1.8l0,0C104.4,14,105.2,13.1,106.1,13.1z"/>
		<path id="Rectangle_758-3_1_" class="st2" d="M82.1,39.4v-3.5c0-0.9,0.8-1.8,1.8-1.8l0,0c0.9,0,1.8,0.8,1.8,1.8v3.5
			c0,0.9-0.8,1.8-1.8,1.8l0,0C82.9,41.2,82.1,40.4,82.1,39.4z"/>
		<path id="Rectangle_759-3_1_" class="st2" d="M89.4,20.2l0.9-0.8c0.7-0.7,1.9-0.5,2.6,0.1l0,0c0.7,0.7,0.5,1.9-0.1,2.6l-0.9,0.8
			c-0.7,0.7-1.9,0.5-2.6-0.1l0,0C88.6,22.1,88.7,20.8,89.4,20.2z"/>
		<path id="Rectangle_760-3_1_" class="st2" d="M89.3,52.7L89.3,52.7c0.7-0.7,1.9-0.5,2.6,0.1l0,0c0.7,0.7,0.5,1.9-0.1,2.6l0,0
			c-0.7,0.7-1.9,0.5-2.6-0.1l0,0C88.6,54.6,88.6,53.4,89.3,52.7z"/>
	</g>
	<ellipse id="Ellipse_262-2_1_" class="st2" cx="100.1" cy="32.6" rx="3.6" ry="1.9"/>
	<ellipse id="Ellipse_264-3_1_" class="st2" cx="112.6" cy="52.6" rx="1.4" ry="0.9"/>
	<ellipse id="Ellipse_265-3_1_" class="st2" cx="114.8" cy="28.4" rx="1.4" ry="0.9"/>
	<ellipse id="Ellipse_266-3_1_" class="st2" cx="121" cy="40.2" rx="1.4" ry="0.9"/>
	<ellipse id="Ellipse_267-3_1_" class="st2" cx="100.7" cy="25.6" rx="1.4" ry="0.9"/>
	<ellipse id="Ellipse_268-3_1_" class="st2" cx="100.7" cy="48" rx="2.7" ry="1.9"/>
	<ellipse id="Ellipse_269-3_1_" class="st2" cx="108.4" cy="41" rx="3.6" ry="1.5"/>
</g>
<g id="Group_13386" transform="translate(1663.574 394.107) rotate(120)" class="st1">
	<g id="Group_107-4_1_" transform="translate(3.522 2.787)">
		<circle id="Ellipse_261-4_1_" class="st2" cx="109.4" cy="11.4" r="13.6"/>
		<path id="Path_573-4_1_" class="st2" d="M117.9,21.6l2.8,2.2l0.9-0.8l-1.9-3.2L117.9,21.6z"/>
		<path id="Path_574-4_1_" class="st2" d="M119.5,2.5l2-2.8l-0.8-0.9l-3.2,1.9L119.5,2.5z"/>
		<path id="Path_575-4_1_" class="st2" d="M110.6,24.9l-0.5,3.5l-1.2,0.1l-0.9-3.6H110.6z"/>
		<path id="Path_576-4_1_" class="st2" d="M122.6,9.5l3.5,0.5l0.1,1.2l-3.6,0.9V9.5z"/>
		<path id="Rectangle_753-4_1_" class="st2" d="M120.9,0.8l-1.5-1.5c-0.5-0.5-0.5-1.4,0-1.9l0,0c0.5-0.5,1.4-0.5,1.9,0l1.5,1.5
			c0.5,0.5,0.5,1.4,0,1.9l0,0C122.2,1.4,121.4,1.4,120.9,0.8z"/>
		<path id="Rectangle_754-4_1_" class="st2" d="M119.5,23.5l1.9-1.9c0.5-0.5,1.4-0.5,1.9,0l0,0c0.5,0.5,0.5,1.4,0,1.9l-1.9,1.9
			c-0.5,0.5-1.4,0.5-1.9,0l0,0C119.1,24.9,119.1,24.1,119.5,23.5z"/>
		<path id="Rectangle_755-4_1_" class="st2" d="M125.5,11.2v-0.9c0-0.7,0.5-1.4,1.4-1.4l0,0c0.7,0,1.4,0.5,1.4,1.4v0.9
			c0,0.7-0.5,1.4-1.4,1.4l0,0C126.1,12.5,125.5,11.9,125.5,11.2z"/>
		<path id="Rectangle_756-4_1_" class="st2" d="M107.9,28.3L107.9,28.3c0-0.7,0.7-1.4,1.4-1.2l0,0c0.7,0,1.4,0.7,1.2,1.4l0,0
			c0,0.7-0.7,1.4-1.4,1.2l0,0C108.4,29.6,107.9,29.1,107.9,28.3z"/>
	</g>
	<g id="Group_108-4_1_" transform="translate(0 0)">
		<path id="Path_577-4_1_" class="st2" d="M107.7,26.7L107.7,26.7c-0.7-0.1-1.4-0.5-1.9-0.9c-1.2-0.8-2.4-1.6-3.5-2.7
			c-2.4-2.7-3-5.5-3-8.9c0-7.6,6.1-13.6,13.5-13.6c0.4,0,1.5,0,1.6,0.1l0,0C104.5,4.7,104.4,20.9,107.7,26.7z"/>
		<path id="Path_578-4_1_" class="st2" d="M111.7,0.7l0.5-3.5l1.2-0.1l0.9,3.6L111.7,0.7z"/>
		<path id="Path_579-4_1_" class="st2" d="M99.5,15L96,14.6l-0.1-1.4l3.6-0.9L99.5,15z"/>
		<path id="Path_580-4_1_" class="st2" d="M104.2,24.6l-2.8,2.2l-0.9-0.8l1.9-3.2L104.2,24.6z"/>
		<path id="Path_581-4_1_" class="st2" d="M102.9,5.1l-2.2-2.8l0.8-0.9l3.2,1.9L102.9,5.1z"/>
		<path id="Rectangle_757-4_1_" class="st2" d="M112.3-4.3h1.1c0.7,0,1.4,0.5,1.4,1.4l0,0c0,0.7-0.5,1.4-1.4,1.4l-1.1,0
			c-0.7,0-1.4-0.5-1.4-1.4l0,0C111-3.8,111.7-4.3,112.3-4.3z"/>
		<path id="Rectangle_758-4_1_" class="st2" d="M94.5,15.1v-2.6c0-0.7,0.5-1.4,1.4-1.4l0,0c0.7,0,1.4,0.5,1.4,1.4v2.6
			c0,0.7-0.5,1.4-1.4,1.4l0,0C95,16.5,94.5,15.9,94.5,15.1z"/>
		<path id="Rectangle_759-4_1_" class="st2" d="M99.9,0.9l0.7-0.7c0.5-0.5,1.4-0.4,1.9,0.1l0,0c0.5,0.5,0.4,1.4-0.1,1.9L101.7,3
			c-0.5,0.5-1.4,0.4-1.9-0.1l0,0C99.4,2.3,99.4,1.5,99.9,0.9z"/>
		<path id="Rectangle_760-4_1_" class="st2" d="M99.9,25.1L99.9,25.1c0.5-0.5,1.4-0.4,1.9,0.1l0,0c0.5,0.5,0.4,1.4-0.1,1.9l0,0
			c-0.5,0.5-1.4,0.4-1.9-0.1l0,0C99.2,26.5,99.4,25.5,99.9,25.1z"/>
	</g>
	<ellipse id="Ellipse_262-3_1_" class="st2" cx="107.9" cy="10.1" rx="2.7" ry="1.5"/>
	<ellipse id="Ellipse_264-4_1_" class="st2" cx="117.1" cy="25" rx="1.1" ry="0.7"/>
	<ellipse id="Ellipse_265-4_1_" class="st2" cx="118.8" cy="7" rx="1.1" ry="0.7"/>
	<ellipse id="Ellipse_266-4_1_" class="st2" cx="123.4" cy="15.8" rx="1.1" ry="0.7"/>
	<ellipse id="Ellipse_267-4_1_" class="st2" cx="108.4" cy="4.9" rx="1.1" ry="0.7"/>
	<ellipse id="Ellipse_268-4_1_" class="st2" cx="108.4" cy="21.5" rx="2" ry="1.5"/>
	<ellipse id="Ellipse_269-4_1_" class="st2" cx="114" cy="16.3" rx="2.7" ry="1.1"/>
</g>
<g id="Group_13387" transform="translate(1721.322 350.136) rotate(120)" class="st1">
	<g id="Group_107-5_1_" transform="translate(4.087 3.235)">
		<circle id="Ellipse_261-5_1_" class="st2" cx="88.3" cy="4" r="15.8"/>
		<path id="Path_573-5_1_" class="st2" d="M98.1,16l3.2,2.4l1.2-0.9l-2.2-3.8L98.1,16z"/>
		<path id="Path_574-5_1_" class="st2" d="M100-6.3l2.4-3.2l-0.9-1.2l-3.8,2.2L100-6.3z"/>
		<path id="Path_575-5_1_" class="st2" d="M89.6,19.7l-0.5,4.1l-1.5,0.1l-1.1-4.3L89.6,19.7z"/>
		<path id="Path_576-5_1_" class="st2" d="M103.7,2l4.1,0.5l0.1,1.5l-4.2,1.1V2z"/>
		<path id="Rectangle_753-5_1_" class="st2" d="M101.6-8.1L100-9.8c-0.5-0.5-0.5-1.6,0-2.2l0,0c0.5-0.5,1.6-0.5,2.2,0l1.6,1.6
			c0.5,0.5,0.5,1.6,0,2.2l0,0C103.1-7.5,102.2-7.5,101.6-8.1z"/>
		<path id="Rectangle_754-5_1_" class="st2" d="M100.2,18.2l2.3-2.3c0.5-0.5,1.6-0.5,2.2,0l0,0c0.5,0.5,0.5,1.6,0,2.2l-2.3,2.3
			c-0.5,0.5-1.6,0.5-2.2,0l0,0C99.5,19.8,99.5,18.7,100.2,18.2z"/>
		<path id="Rectangle_755-5_1_" class="st2" d="M107,3.9V2.8c0-0.8,0.7-1.5,1.5-1.5l0,0c0.8,0,1.5,0.7,1.5,1.5v1.1
			c0,0.8-0.7,1.5-1.5,1.5l0,0C107.7,5.4,107,4.7,107,3.9z"/>
		<path id="Rectangle_756-5_1_" class="st2" d="M86.6,23.7L86.6,23.7c0-0.8,0.8-1.5,1.6-1.5l0,0c0.8,0,1.5,0.8,1.5,1.6l0,0
			c0,0.8-0.8,1.5-1.6,1.5l0,0C87.2,25.3,86.5,24.5,86.6,23.7z"/>
	</g>
	<g id="Group_108-5_1_" transform="translate(0 0)">
		<path id="Path_577-5_1_" class="st2" d="M86.4,21.8C86.4,21.8,86.4,21.9,86.4,21.8c-0.8-0.3-1.5-0.5-2.3-1.1
			c-1.5-0.9-2.8-2-4.1-3.1c-2.8-3.1-3.5-6.3-3.5-10.4c0-8.6,7-15.8,15.8-15.8c0.5,0,1.8,0.1,1.9,0.1l0,0
			C82.7-3.6,82.5,15.2,86.4,21.8z"/>
		<path id="Path_578-5_1_" class="st2" d="M90.9-8.3l0.5-4.1l1.5-0.1L94-8.2L90.9-8.3z"/>
		<path id="Path_579-5_1_" class="st2" d="M76.8,8.3l-4.1-0.5l-0.3-1.5l4.3-1.1V8.3z"/>
		<path id="Path_580-5_1_" class="st2" d="M82.4,19.3L79,21.8L77.9,21l2.2-3.8L82.4,19.3z"/>
		<path id="Path_581-5_1_" class="st2" d="M80.8-3.2l-2.4-3.2l0.9-1.2l3.8,2.2L80.8-3.2z"/>
		<path id="Rectangle_757-5_1_" class="st2" d="M91.7-14.1h1.2c0.8,0,1.5,0.7,1.5,1.5l0,0c0,0.8-0.7,1.5-1.5,1.5h-1.2
			c-0.8,0-1.5-0.7-1.5-1.5l0,0C90.2-13.5,90.9-14.1,91.7-14.1z"/>
		<path id="Rectangle_758-5_1_" class="st2" d="M71,8.4v-3C71,4.6,71.7,4,72.5,4l0,0C73.3,4,74,4.6,74,5.4l0,3
			c0,0.8-0.7,1.5-1.5,1.5l0,0C71.7,10,71,9.4,71,8.4z"/>
		<path id="Rectangle_759-5_1_" class="st2" d="M77.4-8.1l0.8-0.7c0.5-0.5,1.5-0.5,2,0.1l0,0c0.5,0.7,0.5,1.6-0.1,2.2l-0.8,0.7
			c-0.5,0.5-1.5,0.5-2-0.1l0,0C76.7-6.4,76.7-7.5,77.4-8.1z"/>
		<path id="Rectangle_760-5_1_" class="st2" d="M77.2,20L77.2,20c0.7-0.5,1.6-0.5,2.2,0.1l0,0c0.5,0.7,0.5,1.6-0.1,2.2l0,0
			c-0.7,0.5-1.6,0.5-2.2-0.1l0,0C76.6,21.5,76.6,20.6,77.2,20z"/>
	</g>
	<ellipse id="Ellipse_262-4_1_" class="st2" cx="86.4" cy="2.6" rx="3.2" ry="1.6"/>
	<ellipse id="Ellipse_264-5_1_" class="st2" cx="97.2" cy="19.9" rx="1.2" ry="0.8"/>
	<ellipse id="Ellipse_265-5_1_" class="st2" cx="99.3" cy="-1" rx="1.2" ry="0.8"/>
	<ellipse id="Ellipse_266-5_1_" class="st2" cx="104.5" cy="9.1" rx="1.2" ry="0.8"/>
	<ellipse id="Ellipse_267-5_1_" class="st2" cx="87.1" cy="-3.5" rx="1.2" ry="0.8"/>
	<ellipse id="Ellipse_268-5_1_" class="st2" cx="87.1" cy="15.8" rx="2.4" ry="1.6"/>
	<ellipse id="Ellipse_269-5_1_" class="st2" cx="93.7" cy="9.8" rx="3.1" ry="1.2"/>
</g>
<g id="Group_13378" transform="translate(1660.752 169.909) rotate(120)" class="st1">
	<g id="Group_107-6_1_" transform="translate(5.944 4.704)">
		
			<ellipse id="Ellipse_261-6_1_" transform="matrix(0.5 0.866 -0.866 0.5 79.9758 -13.8106)" class="st2" cx="51.9" cy="62.4" rx="23" ry="23"/>
		<path id="Path_573-6_1_" class="st2" d="M66.3,79.8l4.7,3.6l1.6-1.4l-3.2-5.5L66.3,79.8z"/>
		<path id="Path_574-6_1_" class="st2" d="M69,47.3l3.6-4.7L71.3,41l-5.5,3.2L69,47.3z"/>
		<path id="Path_575-6_1_" class="st2" d="M54,85L53.2,91L51,91.2L49.4,85H54z"/>
		<path id="Path_576-6_1_" class="st2" d="M74.4,59.2l5.9,0.8l0.3,2.2l-6.2,1.6V59.2z"/>
		<path id="Rectangle_753-6_1_" class="st2" d="M71.4,44.6L69,42.2c-0.8-0.8-0.8-2.3,0-3.1l0,0c0.8-0.8,2.3-0.8,3.1,0l2.4,2.4
			c0.8,0.8,0.8,2.3,0,3.1l0,0C73.7,45.5,72.2,45.5,71.4,44.6z"/>
		<path id="Rectangle_754-6_1_" class="st2" d="M69.3,82.9l3.2-3.2c0.8-0.8,2.3-0.8,3.1,0l0,0c0.8,0.8,0.8,2.3,0,3.1L72.4,86
			c-0.8,0.8-2.3,0.8-3.1,0l0,0C68.3,85.2,68.3,83.7,69.3,82.9z"/>
		<path id="Rectangle_755-6_1_" class="st2" d="M79.3,62.1v-1.5c0-1.2,0.9-2.2,2.2-2.2l0,0c1.2,0,2.2,0.9,2.2,2.2v1.5
			c0,1.2-0.9,2.2-2.2,2.2l0,0C80.2,64.2,79.3,63.3,79.3,62.1z"/>
		<path id="Rectangle_756-6_1_" class="st2" d="M49.5,91L49.5,91c0-1.2,1.1-2.2,2.3-2.2l0,0c1.2,0,2.2,1.1,2.2,2.3l0,0
			c0,1.2-1.1,2.2-2.3,2.2l0,0C50.5,93.3,49.5,92.2,49.5,91z"/>
	</g>
	<g id="Group_108-6_1_" transform="translate(0 0)">
		<path id="Path_577-6_1_" class="st2" d="M49.4,88.1C49.4,88.2,49.4,88.2,49.4,88.1c-1.1-0.3-2.3-0.8-3.2-1.5
			c-2.2-1.4-4.1-2.8-5.8-4.6c-4.2-4.5-5.1-9.3-5.1-15c0-12.7,10.3-23,23-23l0,0c0.7,0,2.6,0.1,2.8,0.1c0,0,0,0-0.1,0
			C43.8,51.1,43.5,78.4,49.4,88.1z"/>
		<path id="Path_578-6_1_" class="st2" d="M55.8,44.2l0.8-5.9l2.2-0.3l1.6,6.2L55.8,44.2z"/>
		<path id="Path_579-6_1_" class="st2" d="M35.3,68.5l-5.9-0.8l-0.3-2.2l6.2-1.6V68.5z"/>
		<path id="Path_580-6_1_" class="st2" d="M43.4,84.6l-4.7,3.6l-1.6-1.4l3.2-5.5L43.4,84.6z"/>
		<path id="Path_581-6_1_" class="st2" d="M41.1,51.8L37.5,47l1.4-1.6l5.5,3.2L41.1,51.8z"/>
		<path id="Rectangle_757-6_1_" class="st2" d="M57.1,35.8h1.8c1.2,0,2.2,0.9,2.2,2.2l0,0c0,1.2-0.9,2.2-2.2,2.2h-1.8
			c-1.2,0-2.2-0.9-2.2-2.2l0,0C54.9,36.8,55.8,35.8,57.1,35.8z"/>
		<path id="Rectangle_758-6_1_" class="st2" d="M26.9,68.8l0-4.3c0-1.2,0.9-2.2,2.2-2.2l0,0c1.2,0,2.2,0.9,2.2,2.2v4.3
			c0,1.2-0.9,2.2-2.2,2.2l0,0C27.9,71,26.9,70,26.9,68.8z"/>
		<path id="Rectangle_759-6_1_" class="st2" d="M36.1,44.7l1.1-1.1c0.9-0.8,2.3-0.8,3.1,0.1l0,0c0.9,0.9,0.8,2.3-0.1,3.1L39.1,48
			c-0.9,0.8-2.3,0.8-3.1-0.1l0,0C35.2,46.9,35.2,45.6,36.1,44.7z"/>
		<path id="Rectangle_760-6_1_" class="st2" d="M36,85.5L36,85.5c0.9-0.8,2.3-0.8,3.1,0.1l0,0c0.8,0.9,0.8,2.3-0.1,3.1l0,0
			c-0.9,0.8-2.3,0.8-3.1-0.1l0,0C35,87.7,35,86.3,36,85.5z"/>
	</g>
	<ellipse id="Ellipse_262-5_1_" class="st2" cx="49.4" cy="60.1" rx="4.6" ry="2.4"/>
	<ellipse id="Ellipse_264-6_1_" class="st2" cx="65.2" cy="85.3" rx="1.8" ry="1.2"/>
	<ellipse id="Ellipse_265-6_1_" class="st2" cx="68" cy="55" rx="1.8" ry="1.2"/>
	<ellipse id="Ellipse_266-6_1_" class="st2" cx="75.7" cy="69.7" rx="1.8" ry="1.2"/>
	<ellipse id="Ellipse_267-6_1_" class="st2" cx="50.3" cy="51.4" rx="1.8" ry="1.2"/>
	<ellipse id="Ellipse_268-6_1_" class="st2" cx="50.3" cy="79.5" rx="3.5" ry="2.4"/>
	<ellipse id="Ellipse_269-6_1_" class="st2" cx="59.9" cy="70.7" rx="4.5" ry="1.8"/>
</g>
<g id="Group_13263" transform="translate(1572.66 -432.155) rotate(40)">
	<path id="Rectangle_980_1_" class="st3" d="M663.6,434.1l44.7,0c2.3,0,4.1,1.8,4.1,4.1l0,102.8c0,2.3-1.8,4.1-4.1,4.1h-44.7
		c-2.3,0-4.1-1.8-4.1-4.1V438.2C659.6,436,661.3,434.1,663.6,434.1z"/>
	
		<rect id="Rectangle_981_1_" x="680.8" y="420" transform="matrix(6.192010e-06 1 -1 6.192010e-06 1115.7048 -256.3326)" class="st3" width="10.5" height="19.3"/>
	
		<rect id="Rectangle_982_1_" x="678.2" y="415.7" transform="matrix(6.192011e-06 1 -1 6.192011e-06 1103.4835 -268.6227)" class="st3" width="15.8" height="3.5"/>
	<path id="Path_9491_1_" class="st3" d="M688.6,404.4l7,5.5l-19.3,0v-5.5H688.6z"/>
</g>
<g id="Group_13261" transform="translate(632.425 189.998) rotate(-22)">
	<path id="Path_9492_1_" class="st3" d="M736.4,418.3l59.2,0c13.9,0,25.1,3.5,25.1,17.4l0,30.9c0,13.9-11.2,7.7-25.1,7.7h-59.2
		c-13.9,0-25.1,6.1-25.1-7.7v-30.9C711.3,421.8,722.7,418.3,736.4,418.3z"/>
	<path id="Path_9493_1_" class="st4" d="M713.3,429c0,0-16.2-24.6-25.3-25.9c-9-1.4-21.1,5.8-6.5,33.2c14.7,27.3,25.9,8.8,31.6,35.8
		"/>
	<path id="Path_9494_1_" class="st4" d="M817.6,429.7c0,0,16.2-24.6,25.3-25.9s21.1,5.8,6.5,33.2c-14.7,27.3-25.9,8.8-31.6,35.8"/>
</g>
</svg>
