<svg xmlns="http://www.w3.org/2000/svg" width="1100.4" height="658" viewBox="0 0 1100.4 658">
  <g id="Group_13279" data-name="Group 13279" transform="translate(-113 -242)">
    <text id="Wekelijks_contact_15_tot_25_jaar" data-name="Wekelijks contact
15 tot 25 jaar" transform="translate(648 267)" fill="#fff" font-size="26" font-family="HelveticaNeue-Medium, Helvetica Neue" font-weight="500"><tspan x="-105.625" y="0">Wekelijks contact</tspan><tspan x="-78.286" y="32">15 tot 25 jaar</tspan></text>
    <text id="En_hoe_zit_het_met_de_rest_" data-name="En hoe zit het met de rest?" transform="translate(249 704)" fill="#fff" font-size="22" font-family="HelveticaNeue-Medium, Helvetica Neue" font-weight="500"><tspan x="-135.916" y="0">En hoe zit het met de rest?</tspan></text>
    <text id="_2019" data-name="2019" transform="translate(377 368)" fill="#fff" font-size="26" font-family="HelveticaNeue-Medium, Helvetica Neue" font-weight="500"><tspan x="0" y="0">2019</tspan></text>
    <text id="_2020" data-name="2020" transform="translate(964 368)" fill="#fff" font-size="26" font-family="HelveticaNeue-Medium, Helvetica Neue" font-weight="500"><tspan x="0" y="0">2020</tspan></text>
    <g id="Group_9062" data-name="Group 9062" transform="translate(-10311 -3240)">
      <text id="_25_tot_35_jaar" data-name="25 tot 35 jaar" transform="translate(10439.616 4134.029)" fill="#fff" font-size="16" font-family="HelveticaNeue-Medium, Helvetica Neue" font-weight="500"><tspan x="0" y="0">25 tot 35 jaar</tspan></text>
      <g id="_25_tot_35_jaar-2" data-name="25 tot 35 jaar" transform="translate(10424 3975.4)">
        <circle id="Ellipse_6079" data-name="Ellipse 6079" cx="66.481" cy="66.481" r="66.481" fill="#45e0dc"/>
        <ellipse id="Ellipse_6078" data-name="Ellipse 6078" cx="63" cy="63.5" rx="63" ry="63.5" transform="translate(3 5.6)" fill="#68efeb"/>
        <circle id="Ellipse_6080" data-name="Ellipse 6080" cx="30.415" cy="30.415" r="30.415" transform="translate(35.323 72.133)" fill="#89fffc"/>
      </g>
      <text id="_35_tot_45_jaar" data-name="35 tot 45 jaar" transform="translate(10583.882 4132.839)" fill="#fff" font-size="16" font-family="HelveticaNeue-Medium, Helvetica Neue" font-weight="500"><tspan x="0" y="0">35 tot 45 jaar</tspan></text>
      <circle id="Ellipse_6082" data-name="Ellipse 6082" cx="62.54" cy="62.54" r="62.54" transform="translate(10571.983 3982.093)" fill="#45e0dc"/>
      <path id="Path_9549" data-name="Path 9549" d="M55.178,0A55.178,55.178,0,1,1,0,55.178,55.178,55.178,0,0,1,55.178,0Z" transform="translate(10579.42 3996.817)" fill="#68efeb"/>
      <circle id="Ellipse_6081" data-name="Ellipse 6081" cx="43.503" cy="43.503" r="43.503" transform="translate(10591.17 4020.018)" fill="#89fffc"/>
      <text id="_45_tot_55_jaar" data-name="45 tot 55 jaar" transform="translate(10727 4134)" fill="#fff" font-size="16" font-family="HelveticaNeue-Medium, Helvetica Neue" font-weight="500"><tspan x="0" y="0">45 tot 55 jaar</tspan></text>
      <circle id="Ellipse_6085" data-name="Ellipse 6085" cx="60.458" cy="60.458" r="60.458" transform="translate(10711.787 3988.042)" fill="#45e0dc"/>
      <circle id="Ellipse_6084" data-name="Ellipse 6084" cx="52.947" cy="52.947" r="52.947" transform="translate(10719.224 4003.658)" fill="#68efeb"/>
      <circle id="Ellipse_6086" data-name="Ellipse 6086" cx="43.28" cy="43.28" r="43.28" transform="translate(10728.965 4022.249)" fill="#89fffc"/>
      <text id="_55_tot_65_jaar" data-name="55 tot 65 jaar" transform="translate(10858 4134)" fill="#fff" font-size="16" font-family="HelveticaNeue-Medium, Helvetica Neue" font-weight="500"><tspan x="0" y="0">55 tot 65 jaar</tspan></text>
      <circle id="Ellipse_6087" data-name="Ellipse 6087" cx="60.681" cy="60.681" r="60.681" transform="translate(10847.129 3985.067)" fill="#45e0dc"/>
      <circle id="Ellipse_6089" data-name="Ellipse 6089" cx="49.5" cy="49.5" r="49.5" transform="translate(10858 4010)" fill="#68efeb"/>
      <circle id="Ellipse_6088" data-name="Ellipse 6088" cx="47.147" cy="47.147" r="47.147" transform="translate(10860.662 4012.135)" fill="#89fffc"/>
      <text id="_65_tot_75_jaar" data-name="65 tot 75 jaar" transform="translate(10994 4136)" fill="#fff" font-size="16" font-family="HelveticaNeue-Medium, Helvetica Neue" font-weight="500"><tspan x="0" y="0">65 tot 75 jaar</tspan></text>
      <circle id="Ellipse_6094" data-name="Ellipse 6094" cx="60.829" cy="60.829" r="60.829" transform="translate(10983.215 3988.042)" fill="#45e0dc"/>
      <circle id="Ellipse_6095" data-name="Ellipse 6095" cx="54.88" cy="54.88" r="54.88" transform="translate(10989.164 3999.94)" fill="#89fffc"/>
      <circle id="Ellipse_6093" data-name="Ellipse 6093" cx="51" cy="51" r="51" transform="translate(10994 4007)" fill="#68efeb"/>
      <text id="_75_jaar_en_ouder" data-name="75 jaar en ouder" transform="translate(11118.999 4135)" fill="#fff" font-size="16" font-family="HelveticaNeue-Medium, Helvetica Neue" font-weight="500"><tspan x="0" y="0">75 jaar en ouder</tspan></text>
      <ellipse id="Ellipse_6091" data-name="Ellipse 6091" cx="61" cy="60.5" rx="61" ry="60.5" transform="translate(11119 3988)" fill="#45e0dc"/>
      <circle id="Ellipse_6090" data-name="Ellipse 6090" cx="55.5" cy="55.5" r="55.5" transform="translate(11125 3998)" fill="#89fffc"/>
      <path id="Path_9550" data-name="Path 9550" d="M49.824,0A49.824,49.824,0,1,1,0,49.824,49.824,49.824,0,0,1,49.824,0Z" transform="translate(11130.454 4009.607)" fill="#68efeb"/>
    </g>
    <g id="Group_9057" data-name="Group 9057" transform="translate(-10409 -3239)">
      <g id="Group_9054" data-name="Group 9054" transform="translate(74 34)">
        <text id="Familie" transform="translate(10715 3819)" fill="#fff" font-size="22" font-family="HelveticaNeue-Medium, Helvetica Neue" font-weight="500"><tspan x="0" y="0">Familie</tspan></text>
        <circle id="Ellipse_6076" data-name="Ellipse 6076" cx="78" cy="78" r="78" transform="translate(10674 3622)" fill="#45e0dc"/>
      </g>
      <g id="Group_9042" data-name="Group 9042" transform="translate(10786.018 3709.63)" opacity="0.9" style="isolation: isolate">
        <ellipse id="Ellipse_6065" data-name="Ellipse 6065" cx="4.132" cy="4.132" rx="4.132" ry="4.132" transform="translate(8.633)" fill="#fff"/>
        <ellipse id="Ellipse_6068" data-name="Ellipse 6068" cx="4.132" cy="4.132" rx="4.132" ry="4.132" transform="translate(46.358)" fill="#fff"/>
        <ellipse id="Ellipse_6066" data-name="Ellipse 6066" cx="3.357" cy="3.358" rx="3.357" ry="3.358" transform="translate(28.167 9.429)" fill="#fff"/>
        <ellipse id="Ellipse_6067" data-name="Ellipse 6067" cx="3.357" cy="3.358" rx="3.357" ry="3.358" transform="translate(65.674 9.429)" fill="#fff"/>
        <path id="Path_9543" data-name="Path 9543" d="M38.651,27.062c-1.165-13.093-7.4-15.7-7.4-15.7a11.54,11.54,0,0,0-12.377.992c-4.115,3.746-5.065,9.464-5.716,14.987-.329,2.807,4.06,2.773,4.386,0,.388-3.3.943-6.607,2.578-9.427l-.008,3.182-.03,15.292V48.514a2.286,2.286,0,0,0,2.3,2.363,2.4,2.4,0,0,0,2.43-2.363V31.173h2.148v17.4c0,2.828,4.386,2.828,4.386,0V36.381l.186-15.322c0-1.462,0-2.769,0-3.678,1.753,2.872,2.331,6.283,2.73,9.678C34.591,29.834,38.98,29.868,38.651,27.062Z" transform="translate(-13.136 -0.575)" fill="#fff"/>
        <path id="Path_9546" data-name="Path 9546" d="M38.651,27.062c-1.165-13.093-7.4-15.7-7.4-15.7a11.54,11.54,0,0,0-12.377.992c-4.115,3.746-5.065,9.464-5.716,14.987-.329,2.807,4.06,2.773,4.386,0,.388-3.3.943-6.607,2.578-9.427l-.008,3.182-.03,15.292V48.514a2.286,2.286,0,0,0,2.3,2.363,2.4,2.4,0,0,0,2.43-2.363V31.173h2.148v17.4c0,2.828,4.386,2.828,4.386,0V36.381l.186-15.322c0-1.462,0-2.769,0-3.678,1.753,2.872,2.331,6.283,2.73,9.678C34.591,29.834,38.98,29.868,38.651,27.062Z" transform="translate(24.589 -0.575)" fill="#fff"/>
        <path id="Path_9544" data-name="Path 9544" d="M33.868,23.864C32.921,13.225,27.852,11.1,27.852,11.1a9.377,9.377,0,0,0-10.057.806c-3.344,3.044-4.116,7.69-4.644,12.178-.267,2.281,3.3,2.253,3.564,0a19.673,19.673,0,0,1,2.1-7.66L18.8,19.013l-.025,12.425V41.3a1.858,1.858,0,0,0,1.868,1.92,1.949,1.949,0,0,0,1.975-1.92V27.205h1.745V41.341a1.783,1.783,0,0,0,3.563,0v-9.9l.151-12.45c0-1.188,0-2.25,0-2.989A19.173,19.173,0,0,1,30.3,23.863C30.57,26.117,34.135,26.145,33.868,23.864Z" transform="translate(8.016 7.086)" fill="#fff"/>
        <path id="Path_9545" data-name="Path 9545" d="M33.868,23.864C32.921,13.225,27.852,11.1,27.852,11.1a9.377,9.377,0,0,0-10.057.806c-3.344,3.044-4.116,7.69-4.644,12.178-.267,2.281,3.3,2.253,3.564,0a19.673,19.673,0,0,1,2.1-7.66L18.8,19.013l-.025,12.425V41.3a1.858,1.858,0,0,0,1.868,1.92,1.949,1.949,0,0,0,1.975-1.92V27.205h1.745V41.341a1.783,1.783,0,0,0,3.563,0v-9.9l.151-12.45c0-1.188,0-2.25,0-2.989A19.173,19.173,0,0,1,30.3,23.863C30.57,26.117,34.135,26.145,33.868,23.864Z" transform="translate(45.523 7.086)" fill="#fff"/>
      </g>
    </g>
    <g id="Group_9060" data-name="Group 9060" transform="translate(-9817 -3239)">
      <g id="Group_9054-2" data-name="Group 9054" transform="translate(74 34)">
        <text id="Familie-2" data-name="Familie" transform="translate(10715 3819)" fill="#fff" font-size="22" font-family="HelveticaNeue-Medium, Helvetica Neue" font-weight="500"><tspan x="0" y="0">Familie</tspan></text>
        <circle id="Ellipse_6076-2" data-name="Ellipse 6076" cx="78" cy="78" r="78" transform="translate(10674 3622)" fill="#45e0dc"/>
      </g>
      <g id="Group_9042-2" data-name="Group 9042" transform="translate(10786.018 3709.63)" opacity="0.9" style="isolation: isolate">
        <ellipse id="Ellipse_6065-2" data-name="Ellipse 6065" cx="4.132" cy="4.132" rx="4.132" ry="4.132" transform="translate(8.633)" fill="#fff"/>
        <ellipse id="Ellipse_6068-2" data-name="Ellipse 6068" cx="4.132" cy="4.132" rx="4.132" ry="4.132" transform="translate(46.358)" fill="#fff"/>
        <ellipse id="Ellipse_6066-2" data-name="Ellipse 6066" cx="3.357" cy="3.358" rx="3.357" ry="3.358" transform="translate(28.167 9.429)" fill="#fff"/>
        <ellipse id="Ellipse_6067-2" data-name="Ellipse 6067" cx="3.357" cy="3.358" rx="3.357" ry="3.358" transform="translate(65.674 9.429)" fill="#fff"/>
        <path id="Path_9543-2" data-name="Path 9543" d="M38.651,27.062c-1.165-13.093-7.4-15.7-7.4-15.7a11.54,11.54,0,0,0-12.377.992c-4.115,3.746-5.065,9.464-5.716,14.987-.329,2.807,4.06,2.773,4.386,0,.388-3.3.943-6.607,2.578-9.427l-.008,3.182-.03,15.292V48.514a2.286,2.286,0,0,0,2.3,2.363,2.4,2.4,0,0,0,2.43-2.363V31.173h2.148v17.4c0,2.828,4.386,2.828,4.386,0V36.381l.186-15.322c0-1.462,0-2.769,0-3.678,1.753,2.872,2.331,6.283,2.73,9.678C34.591,29.834,38.98,29.868,38.651,27.062Z" transform="translate(-13.136 -0.575)" fill="#fff"/>
        <path id="Path_9546-2" data-name="Path 9546" d="M38.651,27.062c-1.165-13.093-7.4-15.7-7.4-15.7a11.54,11.54,0,0,0-12.377.992c-4.115,3.746-5.065,9.464-5.716,14.987-.329,2.807,4.06,2.773,4.386,0,.388-3.3.943-6.607,2.578-9.427l-.008,3.182-.03,15.292V48.514a2.286,2.286,0,0,0,2.3,2.363,2.4,2.4,0,0,0,2.43-2.363V31.173h2.148v17.4c0,2.828,4.386,2.828,4.386,0V36.381l.186-15.322c0-1.462,0-2.769,0-3.678,1.753,2.872,2.331,6.283,2.73,9.678C34.591,29.834,38.98,29.868,38.651,27.062Z" transform="translate(24.589 -0.575)" fill="#fff"/>
        <path id="Path_9544-2" data-name="Path 9544" d="M33.868,23.864C32.921,13.225,27.852,11.1,27.852,11.1a9.377,9.377,0,0,0-10.057.806c-3.344,3.044-4.116,7.69-4.644,12.178-.267,2.281,3.3,2.253,3.564,0a19.673,19.673,0,0,1,2.1-7.66L18.8,19.013l-.025,12.425V41.3a1.858,1.858,0,0,0,1.868,1.92,1.949,1.949,0,0,0,1.975-1.92V27.205h1.745V41.341a1.783,1.783,0,0,0,3.563,0v-9.9l.151-12.45c0-1.188,0-2.25,0-2.989A19.173,19.173,0,0,1,30.3,23.863C30.57,26.117,34.135,26.145,33.868,23.864Z" transform="translate(8.016 7.086)" fill="#fff"/>
        <path id="Path_9545-2" data-name="Path 9545" d="M33.868,23.864C32.921,13.225,27.852,11.1,27.852,11.1a9.377,9.377,0,0,0-10.057.806c-3.344,3.044-4.116,7.69-4.644,12.178-.267,2.281,3.3,2.253,3.564,0a19.673,19.673,0,0,1,2.1-7.66L18.8,19.013l-.025,12.425V41.3a1.858,1.858,0,0,0,1.868,1.92,1.949,1.949,0,0,0,1.975-1.92V27.205h1.745V41.341a1.783,1.783,0,0,0,3.563,0v-9.9l.151-12.45c0-1.188,0-2.25,0-2.989A19.173,19.173,0,0,1,30.3,23.863C30.57,26.117,34.135,26.145,33.868,23.864Z" transform="translate(45.523 7.086)" fill="#fff"/>
      </g>
    </g>
    <g id="Group_9058" data-name="Group 9058" transform="translate(-10389 -3239)">
      <g id="Group_9055" data-name="Group 9055" transform="translate(72 34)">
        <text id="Vrienden" transform="translate(10481 3819)" fill="#fff" font-size="22" font-family="HelveticaNeue-Medium, Helvetica Neue" font-weight="500"><tspan x="0" y="0">Vrienden</tspan></text>
        <circle id="Ellipse_6075" data-name="Ellipse 6075" cx="95.6" cy="95.6" r="95.6" transform="translate(10430 3587)" fill="#68efeb"/>
      </g>
      <g id="Group_9041" data-name="Group 9041" transform="translate(10563.815 3681.955)" opacity="0.9" style="isolation: isolate">
        <ellipse id="Ellipse_6069" data-name="Ellipse 6069" cx="6.405" cy="6.406" rx="6.405" ry="6.406" transform="translate(11.916)" fill="#fff"/>
        <ellipse id="Ellipse_6070" data-name="Ellipse 6070" cx="6.405" cy="6.406" rx="6.405" ry="6.406" transform="translate(39.974)" fill="#fff"/>
        <path id="Path_9547" data-name="Path 9547" d="M55.561,9.64c-1.806-20.3-11.478-24.345-11.478-24.345s-9.161-2.9-15.39-2.516c-3.052-1.887-2.433-3.914-4.707-10.837-1.475-3.648-7.4-3.606-6.4,2.958,1.363,5.384,4.684,15.025,9.184,16.032L26.821.384l-.047,23.705V42.9a3.544,3.544,0,0,0,3.563,3.663A3.718,3.718,0,0,0,34.1,42.9V16.014h3.329V42.982c0,4.385,6.8,4.385,6.8,0V24.088L44.52.336c0-2.267.006-4.293.006-5.7,2.717,4.452,3.614,9.74,4.232,15C49.268,13.939,56.071,13.991,55.561,9.64Z" transform="translate(-17.475 31.419)" fill="#fff"/>
        <path id="Path_9548" data-name="Path 9548" d="M30.832,34.351C29.026,14.054,23.8,11.417,19.726,9.586S4.412,7.863,4.412,7.863.654,6.774-7.272,6.84s-6.676.534-11.044,2.29,1.8,2.241,1.775,2.53c4.669-2.012-1.4,1.827,3.557.772,6.716.438,15.742,1.209,15.088,7.729l-.012,4.933L2.046,48.8V67.606a3.544,3.544,0,0,0,3.563,3.663,3.718,3.718,0,0,0,3.767-3.663V40.725h3.329V67.692c0,4.385,6.8,4.385,6.8,0V48.8l.288-23.752c0-2.267.006-4.293.006-5.7,2.717,4.452,3.614,9.74,4.232,15C24.54,38.649,31.342,38.7,30.832,34.351Z" transform="translate(36.325 6.708)" fill="#fff"/>
      </g>
    </g>
    <g id="Group_9061" data-name="Group 9061" transform="translate(-9797 -3239)">
      <g id="Group_9055-2" data-name="Group 9055" transform="translate(72 34)">
        <text id="Vrienden-2" data-name="Vrienden" transform="translate(10481 3819)" fill="#fff" font-size="22" font-family="HelveticaNeue-Medium, Helvetica Neue" font-weight="500"><tspan x="0" y="0">Vrienden</tspan></text>
        <circle id="Ellipse_6075-2" data-name="Ellipse 6075" cx="95.6" cy="95.6" r="95.6" transform="translate(10430 3587)" fill="#68efeb"/>
      </g>
      <g id="Group_9041-2" data-name="Group 9041" transform="translate(10563.815 3681.955)" opacity="0.9" style="isolation: isolate">
        <ellipse id="Ellipse_6069-2" data-name="Ellipse 6069" cx="6.405" cy="6.406" rx="6.405" ry="6.406" transform="translate(11.916)" fill="#fff"/>
        <ellipse id="Ellipse_6070-2" data-name="Ellipse 6070" cx="6.405" cy="6.406" rx="6.405" ry="6.406" transform="translate(39.974)" fill="#fff"/>
        <path id="Path_9547-2" data-name="Path 9547" d="M55.561,9.64c-1.806-20.3-11.478-24.345-11.478-24.345s-9.161-2.9-15.39-2.516c-3.052-1.887-2.433-3.914-4.707-10.837-1.475-3.648-7.4-3.606-6.4,2.958,1.363,5.384,4.684,15.025,9.184,16.032L26.821.384l-.047,23.705V42.9a3.544,3.544,0,0,0,3.563,3.663A3.718,3.718,0,0,0,34.1,42.9V16.014h3.329V42.982c0,4.385,6.8,4.385,6.8,0V24.088L44.52.336c0-2.267.006-4.293.006-5.7,2.717,4.452,3.614,9.74,4.232,15C49.268,13.939,56.071,13.991,55.561,9.64Z" transform="translate(-17.475 31.419)" fill="#fff"/>
        <path id="Path_9548-2" data-name="Path 9548" d="M30.832,34.351C29.026,14.054,23.8,11.417,19.726,9.586S4.412,7.863,4.412,7.863.654,6.774-7.272,6.84s-6.676.534-11.044,2.29,1.8,2.241,1.775,2.53c4.669-2.012-1.4,1.827,3.557.772,6.716.438,15.742,1.209,15.088,7.729l-.012,4.933L2.046,48.8V67.606a3.544,3.544,0,0,0,3.563,3.663,3.718,3.718,0,0,0,3.767-3.663V40.725h3.329V67.692c0,4.385,6.8,4.385,6.8,0V48.8l.288-23.752c0-2.267.006-4.293.006-5.7,2.717,4.452,3.614,9.74,4.232,15C24.54,38.649,31.342,38.7,30.832,34.351Z" transform="translate(36.325 6.708)" fill="#fff"/>
      </g>
    </g>
    <g id="Group_9056" data-name="Group 9056" transform="translate(-10429 -3239)">
      <g id="Group_9053" data-name="Group 9053" transform="translate(72 34)">
        <text id="Buren" transform="translate(10903 3819)" fill="#fff" font-size="22" font-family="HelveticaNeue-Medium, Helvetica Neue" font-weight="500"><tspan x="0" y="0">Buren</tspan></text>
        <circle id="Ellipse_6077" data-name="Ellipse 6077" cx="45.7" cy="45.7" r="45.7" transform="translate(10887 3687)" fill="#89fffc"/>
      </g>
      <g id="Group_9043" data-name="Group 9043" transform="translate(10980.021 3749.49)">
        <ellipse id="Ellipse_6065-3" data-name="Ellipse 6065" cx="2.547" cy="2.548" rx="2.547" ry="2.548" transform="translate(5.322)" fill="#fff"/>
        <ellipse id="Ellipse_6068-3" data-name="Ellipse 6068" cx="2.547" cy="2.548" rx="2.547" ry="2.548" transform="translate(28.579)" fill="#fff"/>
        <ellipse id="Ellipse_6067-3" data-name="Ellipse 6067" cx="2.07" cy="2.07" rx="2.07" ry="2.07" transform="translate(40.488 5.813)" fill="#fff"/>
        <path id="Path_9543-3" data-name="Path 9543" d="M28.866,20.52c-.718-8.072-4.565-9.682-4.565-9.682a7.115,7.115,0,0,0-7.63.611c-2.537,2.309-3.123,5.835-3.524,9.24-.2,1.73,2.5,1.709,2.7,0a14.926,14.926,0,0,1,1.59-5.812l0,1.962-.019,9.427v7.479A1.409,1.409,0,0,0,18.835,35.2a1.479,1.479,0,0,0,1.5-1.457V23.055h1.324V33.779a1.353,1.353,0,0,0,2.7,0V26.265l.114-9.446c0-.9,0-1.707,0-2.267a14.547,14.547,0,0,1,1.683,5.966C26.363,22.229,29.069,22.25,28.866,20.52Z" transform="translate(-13.136 -4.191)" fill="#fff"/>
        <path id="Path_9546-3" data-name="Path 9546" d="M28.866,20.52c-.718-8.072-4.565-9.682-4.565-9.682a7.115,7.115,0,0,0-7.63.611c-2.537,2.309-3.123,5.835-3.524,9.24-.2,1.73,2.5,1.709,2.7,0a14.926,14.926,0,0,1,1.59-5.812l0,1.962-.019,9.427v7.479A1.409,1.409,0,0,0,18.835,35.2a1.479,1.479,0,0,0,1.5-1.457V23.055h1.324V33.779a1.353,1.353,0,0,0,2.7,0V26.265l.114-9.446c0-.9,0-1.707,0-2.267a14.547,14.547,0,0,1,1.683,5.966C26.363,22.229,29.069,22.25,28.866,20.52Z" transform="translate(10.121 -4.191)" fill="#fff"/>
        <path id="Path_9545-3" data-name="Path 9545" d="M25.917,18.549c-.584-6.559-3.709-7.867-3.709-7.867a5.781,5.781,0,0,0-6.2.5c-2.061,1.876-2.537,4.741-2.863,7.508-.165,1.406,2.034,1.389,2.2,0a12.129,12.129,0,0,1,1.292-4.722l0,1.594-.015,7.66v6.077a1.145,1.145,0,0,0,1.151,1.184,1.2,1.2,0,0,0,1.217-1.184V20.608H20.06v8.714a1.1,1.1,0,0,0,2.2,0V23.217l.093-7.675c0-.733,0-1.387,0-1.842a11.82,11.82,0,0,1,1.368,4.848C23.884,19.938,26.082,19.955,25.917,18.549Z" transform="translate(23.027 0.532)" fill="#fff"/>
      </g>
    </g>
    <g id="Group_9059" data-name="Group 9059" transform="translate(-9837 -3239)">
      <g id="Group_9053-2" data-name="Group 9053" transform="translate(72 34)">
        <text id="Buren-2" data-name="Buren" transform="translate(10903 3819)" fill="#fff" font-size="22" font-family="HelveticaNeue-Medium, Helvetica Neue" font-weight="500"><tspan x="0" y="0">Buren</tspan></text>
        <circle id="Ellipse_6077-2" data-name="Ellipse 6077" cx="45.7" cy="45.7" r="45.7" transform="translate(10887 3687)" fill="#89fffc"/>
      </g>
      <g id="Group_9043-2" data-name="Group 9043" transform="translate(10980.021 3749.49)">
        <ellipse id="Ellipse_6065-4" data-name="Ellipse 6065" cx="2.547" cy="2.548" rx="2.547" ry="2.548" transform="translate(5.322)" fill="#fff"/>
        <ellipse id="Ellipse_6068-4" data-name="Ellipse 6068" cx="2.547" cy="2.548" rx="2.547" ry="2.548" transform="translate(28.579)" fill="#fff"/>
        <ellipse id="Ellipse_6067-4" data-name="Ellipse 6067" cx="2.07" cy="2.07" rx="2.07" ry="2.07" transform="translate(40.488 5.813)" fill="#fff"/>
        <path id="Path_9543-4" data-name="Path 9543" d="M28.866,20.52c-.718-8.072-4.565-9.682-4.565-9.682a7.115,7.115,0,0,0-7.63.611c-2.537,2.309-3.123,5.835-3.524,9.24-.2,1.73,2.5,1.709,2.7,0a14.926,14.926,0,0,1,1.59-5.812l0,1.962-.019,9.427v7.479A1.409,1.409,0,0,0,18.835,35.2a1.479,1.479,0,0,0,1.5-1.457V23.055h1.324V33.779a1.353,1.353,0,0,0,2.7,0V26.265l.114-9.446c0-.9,0-1.707,0-2.267a14.547,14.547,0,0,1,1.683,5.966C26.363,22.229,29.069,22.25,28.866,20.52Z" transform="translate(-13.136 -4.191)" fill="#fff"/>
        <path id="Path_9546-4" data-name="Path 9546" d="M28.866,20.52c-.718-8.072-4.565-9.682-4.565-9.682a7.115,7.115,0,0,0-7.63.611c-2.537,2.309-3.123,5.835-3.524,9.24-.2,1.73,2.5,1.709,2.7,0a14.926,14.926,0,0,1,1.59-5.812l0,1.962-.019,9.427v7.479A1.409,1.409,0,0,0,18.835,35.2a1.479,1.479,0,0,0,1.5-1.457V23.055h1.324V33.779a1.353,1.353,0,0,0,2.7,0V26.265l.114-9.446c0-.9,0-1.707,0-2.267a14.547,14.547,0,0,1,1.683,5.966C26.363,22.229,29.069,22.25,28.866,20.52Z" transform="translate(10.121 -4.191)" fill="#fff"/>
        <path id="Path_9545-4" data-name="Path 9545" d="M25.917,18.549c-.584-6.559-3.709-7.867-3.709-7.867a5.781,5.781,0,0,0-6.2.5c-2.061,1.876-2.537,4.741-2.863,7.508-.165,1.406,2.034,1.389,2.2,0a12.129,12.129,0,0,1,1.292-4.722l0,1.594-.015,7.66v6.077a1.145,1.145,0,0,0,1.151,1.184,1.2,1.2,0,0,0,1.217-1.184V20.608H20.06v8.714a1.1,1.1,0,0,0,2.2,0V23.217l.093-7.675c0-.733,0-1.387,0-1.842a11.82,11.82,0,0,1,1.368,4.848C23.884,19.938,26.082,19.955,25.917,18.549Z" transform="translate(23.027 0.532)" fill="#fff"/>
      </g>
    </g>
  </g>
</svg>
