<?xml version="1.0" encoding="utf-8"?>
<!-- Generator: Adobe Illustrator 25.0.1, SVG Export Plug-In . SVG Version: 6.00 Build 0)  -->
<svg version="1.1" id="Laag_1" xmlns="http://www.w3.org/2000/svg" xmlns:xlink="http://www.w3.org/1999/xlink" x="0px" y="0px"
	 viewBox="0 0 104.7 110" style="enable-background:new 0 0 104.7 110;" xml:space="preserve">
<style type="text/css">
	.st0{fill:#1F615F;}
	.st1{fill:#164848;}
	.st2{fill:#FAD150;}
	.st3{fill:#FCD5A9;}
	.st4{fill:#FDDAB4;}
	.st5{fill:#E32285;}
	.st6{fill:#231F20;}
	.st7{fill:#E8B37F;}
	.st8{fill:#EE75AA;}
	.st9{fill:#EF86B5;}
</style>
<g>
	<g>
		<polygon class="st0" points="104.7,110 0,110 0,0 104.7,0 104.7,110 		"/>
		<path class="st1" d="M64,23.2l-10.8,3.1c0.1,0.8,0.2,1.5,0.2,2.3v43.2c0,1.2-0.2,2.4-0.5,3.5c0.6,4-0.6,8.2-3.6,11.3
			c-0.9,0.9-1.8,1.9-2.6,3c-1.6,2.2-3.2,4.6-5,6.6c-1,1.1-2.2,2.1-3.4,3.1c-1.6,1.3-3.2,2.5-4.8,3.9l6.7,6.7h61.1
			c1.8,0,3.2-1.4,3.2-3.2v-60L64,23.2z"/>
	</g>
	<g>
		<path class="st2" d="M52.3,21.7c-14.7,0-44.2,6.8-23.8,70.9l49-1.1C85.4,54.2,81.9,19.7,52.3,21.7"/>
		<path class="st3" d="M79.4,55.5c-0.2,3.8-2.1,8.4-4.2,8.3c-2.1-0.1-3.5-4.8-3.3-8.7c0.2-3.8,2-5.4,4.1-5.3
			C78,50,79.6,51.7,79.4,55.5z"/>
		<path class="st3" d="M24.8,55.5c0.2,3.8,2.1,8.4,4.2,8.3c2.1-0.1,3.5-4.8,3.3-8.7c-0.2-3.8-2-5.4-4.1-5.3
			C26.2,50,24.6,51.7,24.8,55.5z"/>
		<g>
			<path class="st4" d="M52.1,97.3c6.7,0,10.3-3.5,11.9-5.7c-2.3-0.6-2.7-2.7-2.7-3.9c0-1.2,0-3.4,0-5.2H42.8c0,1.8,0,4,0,5.2
				c0,1.2-0.4,3.4-2.7,3.9C41.8,93.7,45.3,97.3,52.1,97.3z"/>
			<path class="st5" d="M78.1,98.5c-2.7-5.2-11.7-6.4-14-7c0,0,0,0-0.1,0c-1.7,2.2-5.2,5.7-11.9,5.7c-6.7,0-10.3-3.5-11.9-5.7
				c0,0,0,0-0.1,0c-2.3,0.5-11.3,1.8-14,7c-2.6,5.1-3.8,11-3.8,11h59.7C81.9,109.6,80.7,103.6,78.1,98.5z"/>
		</g>
		<path class="st4" d="M52.1,85.6c-6.6,0-16.4-5-19.4-10.4C29.6,69.8,28,58.6,28,49c0-15,10.8-24,24-24c13.3,0,24,9.1,24,24
			c0,9.6-1.6,20.9-4.6,26.2C68.5,80.6,58.7,85.6,52.1,85.6L52.1,85.6z"/>
		<path class="st2" d="M52.3,29.6c-26.2,0-28.2,24-25.3,37.1c2-6.2,37.9-19.3,38.9-20.4c0,4.1,1,7.9,3.9,10.8
			c2.4,2.4,6.3,2.9,7.7,7.8C80.5,55.2,78.5,29.6,52.3,29.6z"/>
		<path class="st5" d="M77.5,51.8c1.1-15.6-7.5-26.8-25.2-26.8S26,36.4,27.1,51.8c0-11,7.6-21.4,25.2-21.4
			C70,30.4,77.5,40.8,77.5,51.8z"/>
		<path class="st6" d="M42.8,59.8c0,1.2-1,2.2-2.2,2.2c-1.2,0-2.2-1-2.2-2.2c0-1.2,1-2.2,2.2-2.2C41.7,57.5,42.8,58.5,42.8,59.8z"/>
		<path class="st6" d="M66.3,59.1c0,1.2-1,2.2-2.2,2.2c-1.2,0-2.2-1-2.2-2.2c0-1.2,1-2.2,2.2-2.2C65.3,56.8,66.3,57.8,66.3,59.1z"/>
		<polygon class="st7" points="46.8,68.3 51.3,58.2 55.9,68.3 51.3,69.8 		"/>
		<g>
			<path class="st8" d="M55.8,75.6c-1-0.3-1.9-0.7-3-0.7c-1.1,0-1.5,0.6-1.5,0.6s-0.4-0.6-1.5-0.6c-1.1,0-2,0.4-3,0.7
				c-1,0.3-1.6,0.2-1.6,0.2c0.2,1.6,2,3.7,6.1,3.7c4.1,0,5.9-2.1,6.1-3.7C57.5,75.8,56.9,75.9,55.8,75.6z"/>
			<path class="st9" d="M55.8,75.6c-1-0.3-1.9-0.7-3-0.7c-1.1,0-1.5,0.6-1.5,0.6s-0.4-0.6-1.5-0.6c-1.1,0-2,0.4-3,0.7
				c-1,0.3-1.6,0.2-1.6,0.2s0.9,1.3,3.3,1.3c0.4,0,1.3-0.2,1.7-0.2c0.4,0,0.6,0.2,1,0.2c0.4,0,0.6-0.2,1-0.2c0.4,0,1.3,0.2,1.7,0.2
				c2.4,0,3.3-1.3,3.3-1.3S56.9,75.9,55.8,75.6z"/>
		</g>
	</g>
</g>
</svg>
