<svg id="noun_hockey_1671460" xmlns="http://www.w3.org/2000/svg" width="81.629" height="129.858" viewBox="0 0 81.629 129.858">
  <g id="Group_13268" data-name="Group 13268" transform="translate(0 0)">
    <path id="Path_13773" data-name="Path 13773" d="M61.921,92.9H56.152a2.952,2.952,0,1,0,0,5.9h5.769a2.952,2.952,0,1,0,0-5.9Z" transform="translate(-8.107 30.786)" fill="#fff"/>
    <path id="Path_13774" data-name="Path 13774" d="M98.9,50.076,99.7,49a2.2,2.2,0,0,0-3.489-2.683l-1.342,1.744c-3.354-1.744-7.514-4.159-9.258-5.769a33.147,33.147,0,0,1-3.489-5.5c-3.22-5.5-5.769-9.795-9.929-10.734l-14.222-3.22a7.957,7.957,0,0,0-5.9,1.208C47.511,27,43.62,46.99,43.62,64.969h0v2.415c0,8.05-.805,16.772-1.61,18.516C40,88.718,28.458,102.538,21.079,111.259a6.288,6.288,0,0,0,9.661,8.05c1.878-2.281,18.65-22,21.6-26.164,2.549-3.623,3.489-11.673,3.891-19.455,4.159,3.623,8.319,7.38,11.539,10.331L45.9,112.869V113a6.493,6.493,0,0,0-1.342,3.891,6.156,6.156,0,0,0,6.172,6.172h4.428a6.172,6.172,0,0,0,0-12.344H53.28L71.125,87.108a35.908,35.908,0,0,0,2.683,2.549c1.476,2.818,5.233,16.1,8.05,27.1a6.17,6.17,0,0,0,6.038,4.7,6.532,6.532,0,0,0,1.61-.134,6.333,6.333,0,0,0,4.562-7.648c-7.111-27.908-9.526-30.86-10.331-31.8a59.3,59.3,0,0,0-4.964-4.83L82.53,72.08a4.838,4.838,0,0,0,2.683.805,5.465,5.465,0,0,0,4.294-2.013,5.378,5.378,0,0,0-.537-7.245l3.623-4.83a7.462,7.462,0,0,1,1.073.537,6.321,6.321,0,0,0,2.281.537,5.673,5.673,0,0,0,4.964-3.086A6,6,0,0,0,98.9,50.076ZM56.769,116.894a1.776,1.776,0,0,1-1.744,1.744H50.6a1.744,1.744,0,0,1,0-3.489h4.428A1.691,1.691,0,0,1,56.769,116.894Zm11-49.778,1.342-5.233c2.683,2.013,6.843,5.233,9.66,7.38l-3.489,4.562C72.87,71.678,70.186,69.263,67.771,67.116ZM85.214,60.81c-3.22-2.415-7.916-6.172-10.734-8.05a27.79,27.79,0,0,1-2.415-3.086l1.476-6.038a31.813,31.813,0,0,0,4.562,6.44c2.549,2.549,6.843,5.1,10.2,6.843Z" transform="translate(-19.592 6.792)" fill="#fff"/>
    <ellipse id="Ellipse_10277" data-name="Ellipse 10277" cx="12.612" cy="12.612" rx="12.612" ry="12.612" transform="translate(34.061 24.612) rotate(-77.349)" fill="#fff"/>
  </g>
</svg>
