<svg id="Group_13279" data-name="Group 13279" xmlns="http://www.w3.org/2000/svg" width="141.09" height="125.857" viewBox="0 0 141.09 125.857">
  <path id="Path_13780" data-name="Path 13780" d="M83.167,73.148a6.469,6.469,0,0,0-1.485-2.377c-.594-.743-1.486-1.783-2.525-2.971-1.783,4.754-3.417,8.764-4.308,10.844a2.2,2.2,0,0,0-.149,1.04l.743,3.714,9.8,17.083a2.9,2.9,0,0,0,3.12,1.337l2.822-.743a2.786,2.786,0,0,0,1.931-3.714Z" transform="translate(32.521 21.662)" fill="#fff"/>
  <path id="Path_13781" data-name="Path 13781" d="M28.5,67.362A15.449,15.449,0,0,1,24.783,63.5C23,68.254,21.218,73.453,20.921,74.641c-.446,1.783-3.714,19.311-4.9,26a2.589,2.589,0,0,0,2.08,3.12l3.565.891a2.752,2.752,0,0,0,3.417-1.931l5.348-20.351c.149-.446.3-.743.446-1.188a9.469,9.469,0,0,0-.3-1.337C30.131,77.464,29.091,71.967,28.5,67.362Z" transform="translate(4.004 19.575)" fill="#fff"/>
  <path id="Path_13782" data-name="Path 13782" d="M143.166,49.861C135.738,37.234,117.021,25.8,117.021,25.8a14.312,14.312,0,0,0-2.674-6.388,1.552,1.552,0,0,0-2.377-.149C108.7,22.676,103.652,30.1,98.3,38.72a3.4,3.4,0,0,0-3.565-1.634,40.079,40.079,0,0,1-8.764.594A123.1,123.1,0,0,1,83.449,25.2a3.848,3.848,0,0,0-1.783-2.525,14.674,14.674,0,0,0-2.228-1.337c-5.793-2.377-7.576-.891-12.627,4.605C62.652,30.7,58.79,37.977,57.6,44.216a8.416,8.416,0,0,0-.446,2.228,5.019,5.019,0,0,0,3.268,5.348,61.56,61.56,0,0,0,9.656,3.12,82.592,82.592,0,0,1,10.844,3.417c-.446,3.862-2.822,12.775-5.2,20.054a4.332,4.332,0,0,0,2.822,5.5,3.658,3.658,0,0,0,1.783.149,4.5,4.5,0,0,0,3.714-2.971c.149-.3,1.931-5.942,3.565-11.884,2.674-10.4,3.268-15.6-.891-17.677a64.429,64.429,0,0,0-12.33-4.308c1.337-3.268,2.971-6.982,4.308-10.1a34.7,34.7,0,0,0,1.337,4.159c.446,1.04,1.485,3.417,8.022,3.417a45.451,45.451,0,0,0,6.982-.594C93.848,46,92.659,47.93,91.619,49.861c-.149.149-.3.446-.446.594,3.862,4.605,1.783,12.627,0,19.757-1.634,6.239-3.565,12.033-3.565,12.181a8.453,8.453,0,0,1-6.685,5.5h-.891a6.939,6.939,0,0,1-2.525-.446,8.04,8.04,0,0,1-5.051-10.1c1.931-5.942,3.714-12.33,4.605-16.489-2.674-.891-5.348-1.634-7.725-2.228a82.922,82.922,0,0,1-10.25-3.417,8.3,8.3,0,0,1-4.011-3.417A48.166,48.166,0,0,0,38.587,52.98,15.163,15.163,0,0,0,31.9,56.694c-5.942-.743-15.3-.3-18.272,8.319-3.862,9.953-8.467,14.261-10.4,15.895a1.837,1.837,0,0,0-.594,2.08c1.04,3.12,4.605,9.953,12.924,3.417,8.913-7.13,2.822-20.351,12.775-23.025C26.7,73.035,34.279,85.513,38.587,86.85c.446,5.348,2.228,13.667,2.377,15,.3,1.931,6.982,18.272,9.359,24.065a2.62,2.62,0,0,0,2.971,1.634l3.714-.594a2.872,2.872,0,0,0,2.228-3.417l-5.645-20.054a5.367,5.367,0,0,1,.446-4.011A30.59,30.59,0,0,0,57.9,88.484c11.438,4.011,26,3.565,37.434,1.485A103.067,103.067,0,0,1,94,101.259a5.335,5.335,0,0,0,.3,2.674l8.319,22.282A2.893,2.893,0,0,0,105.137,128h2.377a2.743,2.743,0,0,0,2.674-3.268l-4.011-20.5a6.176,6.176,0,0,1,.3-3.268,193.375,193.375,0,0,0,7.576-20.2c4.011-7.427,3.12-21.243,4.456-30.3,0-.446.594-.594.891-.149,3.417,5.348,9.953,4.754,13.815,4.605a8.47,8.47,0,0,1,5.348,1.634,2.248,2.248,0,0,0,2.822-.3,9.155,9.155,0,0,0,2.228-4.308A4.745,4.745,0,0,0,143.166,49.861Z" transform="translate(-2.522 -2.141)" fill="#fff"/>
  <ellipse id="Ellipse_10279" data-name="Ellipse 10279" cx="9.062" cy="9.062" rx="9.062" ry="9.062" transform="translate(73.02 0.679) rotate(-2.147)" fill="#fff"/>
</svg>
