<?xml version="1.0" encoding="utf-8"?>
<!-- Generator: Adobe Illustrator 25.1.0, SVG Export Plug-In . SVG Version: 6.00 Build 0)  -->
<svg version="1.1" id="Laag_1" xmlns="http://www.w3.org/2000/svg" xmlns:xlink="http://www.w3.org/1999/xlink" x="0px" y="0px"
	 viewBox="0 0 108.5 528.2" style="enable-background:new 0 0 108.5 528.2;" xml:space="preserve">
<style type="text/css">
	.st0{fill:#FFFFFF;}
</style>
<g id="Group_13289" transform="translate(-1509 -992.16)">
	<g id="standing-frontal-man-silhouette" transform="translate(1509 1220.584)">
		<g id="Group_12505" transform="translate(0 0)">
			<ellipse id="Ellipse_9527" class="st0" cx="6" cy="152.1" rx="1.9" ry="1.9"/>
			<path id="Path_13001" class="st0" d="M12,162.6c-0.5-6.1-3.5-7.4-3.5-7.4c-1.9-1-4.1-0.8-5.8,0.5c-1.9,1.8-2.4,4.4-2.7,7
				c-0.2,1.3,1.9,1.3,2.1,0c0.1-1.5,0.5-3,1.2-4.4v1.5l0,7.2v5.7c0,0.6,0.4,1.1,1,1.1c0,0,0,0,0,0c0.6,0,1.1-0.5,1.1-1.1v-8.1h1v8.2
				c0,0.6,0.5,1,1.1,1c0.5,0,1-0.4,1-1V167l0.1-7.2c0-0.7,0-1.3,0-1.7c0.7,1.4,1.2,3,1.3,4.5C10.1,163.9,12.1,163.9,12,162.6z"/>
		</g>
	</g>
	<g id="standing-frontal-man-silhouette-2" transform="translate(1509 1270.968)">
		<g id="Group_12506" transform="translate(0 0)">
			<ellipse id="Ellipse_9528" class="st0" cx="6" cy="152.1" rx="1.9" ry="1.9"/>
			<path id="Path_13002" class="st0" d="M12,162.6c-0.5-6.1-3.5-7.4-3.5-7.4c-1.9-1-4.1-0.8-5.8,0.5c-1.9,1.8-2.4,4.4-2.7,7
				c-0.2,1.3,1.9,1.3,2.1,0c0.1-1.5,0.5-3,1.2-4.4v1.5l0,7.2v5.7c0,0.6,0.4,1.1,1,1.1c0,0,0,0,0,0c0.6,0,1.1-0.5,1.1-1.1v-8.1h1v8.2
				c0,0.6,0.5,1,1.1,1c0.5,0,1-0.4,1-1V167l0.1-7.2c0-0.7,0-1.3,0-1.7c0.7,1.4,1.2,3,1.3,4.5C10.1,163.9,12.1,163.9,12,162.6z"/>
		</g>
	</g>
	<g id="standing-frontal-man-silhouette-3" transform="translate(1509 1321.353)">
		<g id="Group_12507" transform="translate(0 0)">
			<ellipse id="Ellipse_9529" class="st0" cx="6" cy="152.1" rx="1.9" ry="1.9"/>
			<path id="Path_13003" class="st0" d="M12,162.6c-0.5-6.1-3.5-7.4-3.5-7.4c-1.9-1-4.1-0.8-5.8,0.5c-1.9,1.8-2.4,4.4-2.7,7
				c-0.2,1.3,1.9,1.3,2.1,0c0.1-1.5,0.5-3,1.2-4.4v1.5l0,7.2v5.7c0,0.6,0.4,1.1,1,1.1c0,0,0,0,0,0c0.6,0,1.1-0.5,1.1-1.1v-8.1h1v8.2
				c0,0.6,0.5,1,1.1,1c0.5,0,1-0.4,1-1V167l0.1-7.2c0-0.7,0-1.3,0-1.7c0.7,1.4,1.2,3,1.3,4.5C10.1,163.9,12.1,163.9,12,162.6z"/>
		</g>
	</g>
	<g id="standing-frontal-man-silhouette-4" transform="translate(1509 1245.776)">
		<g id="Group_12508" transform="translate(0 0)">
			<ellipse id="Ellipse_9530" class="st0" cx="6" cy="152.1" rx="1.9" ry="1.9"/>
			<path id="Path_13004" class="st0" d="M12,162.6c-0.5-6.1-3.5-7.4-3.5-7.4c-1.9-1-4.1-0.8-5.8,0.5c-1.9,1.8-2.4,4.4-2.7,7
				c-0.2,1.3,1.9,1.3,2.1,0c0.1-1.5,0.5-3,1.2-4.4v1.5l0,7.2v5.7c0,0.6,0.4,1.1,1,1.1c0,0,0,0,0,0c0.6,0,1.1-0.5,1.1-1.1v-8.1h1v8.2
				c0,0.6,0.5,1,1.1,1c0.5,0,1-0.4,1-1V167l0.1-7.2c0-0.7,0-1.3,0-1.7c0.7,1.4,1.2,3,1.3,4.5C10.1,163.9,12.1,163.9,12,162.6z"/>
		</g>
	</g>
	<g id="standing-frontal-man-silhouette-5" transform="translate(1509 1296.16)">
		<g id="Group_12509" transform="translate(0 0)">
			<ellipse id="Ellipse_9531" class="st0" cx="6" cy="152.1" rx="1.9" ry="1.9"/>
			<path id="Path_13005" class="st0" d="M12,162.6c-0.5-6.1-3.5-7.4-3.5-7.4c-1.9-1-4.1-0.8-5.8,0.5c-1.9,1.8-2.4,4.4-2.7,7
				c-0.2,1.3,1.9,1.3,2.1,0c0.1-1.5,0.5-3,1.2-4.4v1.5l0,7.2v5.7c0,0.6,0.4,1.1,1,1.1c0,0,0,0,0,0c0.6,0,1.1-0.5,1.1-1.1v-8.1h1v8.2
				c0,0.6,0.5,1,1.1,1c0.5,0,1-0.4,1-1V167l0.1-7.2c0-0.7,0-1.3,0-1.7c0.7,1.4,1.2,3,1.3,4.5C10.1,163.9,12.1,163.9,12,162.6z"/>
		</g>
	</g>
	<g id="standing-frontal-man-silhouette-6" transform="translate(1509 1346.545)">
		<g id="Group_12510" transform="translate(0 0)">
			<ellipse id="Ellipse_9532" class="st0" cx="6" cy="152.1" rx="1.9" ry="1.9"/>
			<path id="Path_13006" class="st0" d="M12,162.6c-0.5-6.1-3.5-7.4-3.5-7.4c-1.9-1-4.1-0.8-5.8,0.5c-1.9,1.8-2.4,4.4-2.7,7
				c-0.2,1.3,1.9,1.3,2.1,0c0.1-1.5,0.5-3,1.2-4.4v1.5l0,7.2v5.7c0,0.6,0.4,1.1,1,1.1c0,0,0,0,0,0c0.6,0,1.1-0.5,1.1-1.1v-8.1h1v8.2
				c0,0.6,0.5,1,1.1,1c0.5,0,1-0.4,1-1V167l0.1-7.2c0-0.7,0-1.3,0-1.7c0.7,1.4,1.2,3,1.3,4.5C10.1,163.9,12.1,163.9,12,162.6z"/>
		</g>
	</g>
	<g id="standing-frontal-man-silhouette-7" transform="translate(1509.607 1068.584)">
		<g id="Group_12511" transform="translate(0 0)">
			<ellipse id="Ellipse_9533" class="st0" cx="6" cy="152.1" rx="1.9" ry="1.9"/>
			<path id="Path_13007" class="st0" d="M12,162.6c-0.5-6.1-3.5-7.4-3.5-7.4c-1.9-1-4.1-0.8-5.8,0.5c-1.9,1.8-2.4,4.4-2.7,7
				c-0.2,1.3,1.9,1.3,2.1,0c0.1-1.5,0.5-3,1.2-4.4v1.5l0,7.2v5.7c0,0.6,0.4,1.1,1,1.1c0,0,0,0,0,0c0.6,0,1.1-0.5,1.1-1.1v-8.1h1v8.2
				c0,0.6,0.5,1,1.1,1c0.5,0,1-0.4,1-1V167l0.1-7.2c0-0.7,0-1.3,0-1.7c0.7,1.4,1.2,3,1.3,4.5C10.1,163.9,12.1,163.9,12,162.6z"/>
		</g>
	</g>
	<g id="standing-frontal-man-silhouette-8" transform="translate(1509.607 1118.968)">
		<g id="Group_12512" transform="translate(0 0)">
			<ellipse id="Ellipse_9534" class="st0" cx="6" cy="152.1" rx="1.9" ry="1.9"/>
			<path id="Path_13008" class="st0" d="M12,162.6c-0.5-6.1-3.5-7.4-3.5-7.4c-1.9-1-4.1-0.8-5.8,0.5c-1.9,1.8-2.4,4.4-2.7,7
				c-0.2,1.3,1.9,1.3,2.1,0c0.1-1.5,0.5-3,1.2-4.4v1.5l0,7.2v5.7c0,0.6,0.4,1.1,1,1.1c0,0,0,0,0,0c0.6,0,1.1-0.5,1.1-1.1v-8.1h1v8.2
				c0,0.6,0.5,1,1.1,1c0.5,0,1-0.4,1-1V167l0.1-7.2c0-0.7,0-1.3,0-1.7c0.7,1.4,1.2,3,1.3,4.5C10.1,163.9,12.1,163.9,12,162.6z"/>
		</g>
	</g>
	<g id="standing-frontal-man-silhouette-9" transform="translate(1509.607 1169.353)">
		<g id="Group_12513" transform="translate(0 0)">
			<ellipse id="Ellipse_9535" class="st0" cx="6" cy="152.1" rx="1.9" ry="1.9"/>
			<path id="Path_13009" class="st0" d="M12,162.6c-0.5-6.1-3.5-7.4-3.5-7.4c-1.9-1-4.1-0.8-5.8,0.5c-1.9,1.8-2.4,4.4-2.7,7
				c-0.2,1.3,1.9,1.3,2.1,0c0.1-1.5,0.5-3,1.2-4.4v1.5l0,7.2v5.7c0,0.6,0.4,1.1,1,1.1c0,0,0,0,0,0c0.6,0,1.1-0.5,1.1-1.1v-8.1h1v8.2
				c0,0.6,0.5,1,1.1,1c0.5,0,1-0.4,1-1V167l0.1-7.2c0-0.7,0-1.3,0-1.7c0.7,1.4,1.2,3,1.3,4.5C10.1,163.9,12.1,163.9,12,162.6z"/>
		</g>
	</g>
	<g id="standing-frontal-man-silhouette-10" transform="translate(1509.607 1093.776)">
		<g id="Group_12514" transform="translate(0 0)">
			<ellipse id="Ellipse_9536" class="st0" cx="6" cy="152.1" rx="1.9" ry="1.9"/>
			<path id="Path_13010" class="st0" d="M12,162.6c-0.5-6.1-3.5-7.4-3.5-7.4c-1.9-1-4.1-0.8-5.8,0.5c-1.9,1.8-2.4,4.4-2.7,7
				c-0.2,1.3,1.9,1.3,2.1,0c0.1-1.5,0.5-3,1.2-4.4v1.5l0,7.2v5.7c0,0.6,0.4,1.1,1,1.1c0,0,0,0,0,0c0.6,0,1.1-0.5,1.1-1.1v-8.1h1v8.2
				c0,0.6,0.5,1,1.1,1c0.5,0,1-0.4,1-1V167l0.1-7.2c0-0.7,0-1.3,0-1.7c0.7,1.4,1.2,3,1.3,4.5C10.1,163.9,12.1,163.9,12,162.6z"/>
		</g>
	</g>
	<g id="standing-frontal-man-silhouette-11" transform="translate(1509.607 1144.16)">
		<g id="Group_12515" transform="translate(0 0)">
			<ellipse id="Ellipse_9537" class="st0" cx="6" cy="152.1" rx="1.9" ry="1.9"/>
			<path id="Path_13011" class="st0" d="M12,162.6c-0.5-6.1-3.5-7.4-3.5-7.4c-1.9-1-4.1-0.8-5.8,0.5c-1.9,1.8-2.4,4.4-2.7,7
				c-0.2,1.3,1.9,1.3,2.1,0c0.1-1.5,0.5-3,1.2-4.4v1.5l0,7.2v5.7c0,0.6,0.4,1.1,1,1.1c0,0,0,0,0,0c0.6,0,1.1-0.5,1.1-1.1v-8.1h1v8.2
				c0,0.6,0.5,1,1.1,1c0.5,0,1-0.4,1-1V167l0.1-7.2c0-0.7,0-1.3,0-1.7c0.7,1.4,1.2,3,1.3,4.5C10.1,163.9,12.1,163.9,12,162.6z"/>
		</g>
	</g>
	<g id="standing-frontal-man-silhouette-12" transform="translate(1509.607 1194.545)">
		<g id="Group_12516" transform="translate(0 0)">
			<ellipse id="Ellipse_9538" class="st0" cx="6" cy="152.1" rx="1.9" ry="1.9"/>
			<path id="Path_13012" class="st0" d="M12,162.6c-0.5-6.1-3.5-7.4-3.5-7.4c-1.9-1-4.1-0.8-5.8,0.5c-1.9,1.8-2.4,4.4-2.7,7
				c-0.2,1.3,1.9,1.3,2.1,0c0.1-1.5,0.5-3,1.2-4.4v1.5l0,7.2v5.7c0,0.6,0.4,1.1,1,1.1c0,0,0,0,0,0c0.6,0,1.1-0.5,1.1-1.1v-8.1h1v8.2
				c0,0.6,0.5,1,1.1,1c0.5,0,1-0.4,1-1V167l0.1-7.2c0-0.7,0-1.3,0-1.7c0.7,1.4,1.2,3,1.3,4.5C10.1,163.9,12.1,163.9,12,162.6z"/>
		</g>
	</g>
	<g id="standing-frontal-man-silhouette-13" transform="translate(1563.804 1220.584)">
		<g id="Group_12517" transform="translate(0 0)">
			<ellipse id="Ellipse_9539" class="st0" cx="6" cy="152.1" rx="1.9" ry="1.9"/>
			<path id="Path_13013" class="st0" d="M12,162.6c-0.5-6.1-3.5-7.4-3.5-7.4c-1.9-1-4.1-0.8-5.8,0.5c-1.9,1.8-2.4,4.4-2.7,7
				c-0.2,1.3,1.9,1.3,2.1,0c0.1-1.5,0.5-3,1.2-4.4v1.5l0,7.2v5.7c0,0.6,0.4,1.1,1,1.1c0,0,0,0,0,0c0.6,0,1.1-0.5,1.1-1.1v-8.1h1v8.2
				c0,0.6,0.5,1,1.1,1c0.5,0,1-0.4,1-1V167l0.1-7.2c0-0.7,0-1.3,0-1.7c0.7,1.4,1.2,3,1.3,4.5C10.1,163.9,12.1,163.9,12,162.6z"/>
		</g>
	</g>
	<g id="standing-frontal-man-silhouette-14" transform="translate(1563.804 1270.968)">
		<g id="Group_12518" transform="translate(0 0)">
			<ellipse id="Ellipse_9540" class="st0" cx="6" cy="152.1" rx="1.9" ry="1.9"/>
			<path id="Path_13014" class="st0" d="M12,162.6c-0.5-6.1-3.5-7.4-3.5-7.4c-1.9-1-4.1-0.8-5.8,0.5c-1.9,1.8-2.4,4.4-2.7,7
				c-0.2,1.3,1.9,1.3,2.1,0c0.1-1.5,0.5-3,1.2-4.4v1.5l0,7.2v5.7c0,0.6,0.4,1.1,1,1.1c0,0,0,0,0,0c0.6,0,1.1-0.5,1.1-1.1v-8.1h1v8.2
				c0,0.6,0.5,1,1.1,1c0.5,0,1-0.4,1-1V167l0.1-7.2c0-0.7,0-1.3,0-1.7c0.7,1.4,1.2,3,1.3,4.5C10.1,163.9,12.1,163.9,12,162.6z"/>
		</g>
	</g>
	<g id="standing-frontal-man-silhouette-15" transform="translate(1563.804 1321.353)">
		<g id="Group_12519" transform="translate(0 0)">
			<ellipse id="Ellipse_9541" class="st0" cx="6" cy="152.1" rx="1.9" ry="1.9"/>
			<path id="Path_13015" class="st0" d="M12,162.6c-0.5-6.1-3.5-7.4-3.5-7.4c-1.9-1-4.1-0.8-5.8,0.5c-1.9,1.8-2.4,4.4-2.7,7
				c-0.2,1.3,1.9,1.3,2.1,0c0.1-1.5,0.5-3,1.2-4.4v1.5l0,7.2v5.7c0,0.6,0.4,1.1,1,1.1c0,0,0,0,0,0c0.6,0,1.1-0.5,1.1-1.1v-8.1h1v8.2
				c0,0.6,0.5,1,1.1,1c0.5,0,1-0.4,1-1V167l0.1-7.2c0-0.7,0-1.3,0-1.7c0.7,1.4,1.2,3,1.3,4.5C10.1,163.9,12.1,163.9,12,162.6z"/>
		</g>
	</g>
	<g id="standing-frontal-man-silhouette-16" transform="translate(1563.804 1245.776)">
		<g id="Group_12520" transform="translate(0 0)">
			<ellipse id="Ellipse_9542" class="st0" cx="6" cy="152.1" rx="1.9" ry="1.9"/>
			<path id="Path_13016" class="st0" d="M12,162.6c-0.5-6.1-3.5-7.4-3.5-7.4c-1.9-1-4.1-0.8-5.8,0.5c-1.9,1.8-2.4,4.4-2.7,7
				c-0.2,1.3,1.9,1.3,2.1,0c0.1-1.5,0.5-3,1.2-4.4v1.5l0,7.2v5.7c0,0.6,0.4,1.1,1,1.1c0,0,0,0,0,0c0.6,0,1.1-0.5,1.1-1.1v-8.1h1v8.2
				c0,0.6,0.5,1,1.1,1c0.5,0,1-0.4,1-1V167l0.1-7.2c0-0.7,0-1.3,0-1.7c0.7,1.4,1.2,3,1.3,4.5C10.1,163.9,12.1,163.9,12,162.6z"/>
		</g>
	</g>
	<g id="standing-frontal-man-silhouette-17" transform="translate(1563.804 1296.16)">
		<g id="Group_12521" transform="translate(0 0)">
			<ellipse id="Ellipse_9543" class="st0" cx="6" cy="152.1" rx="1.9" ry="1.9"/>
			<path id="Path_13017" class="st0" d="M12,162.6c-0.5-6.1-3.5-7.4-3.5-7.4c-1.9-1-4.1-0.8-5.8,0.5c-1.9,1.8-2.4,4.4-2.7,7
				c-0.2,1.3,1.9,1.3,2.1,0c0.1-1.5,0.5-3,1.2-4.4v1.5l0,7.2v5.7c0,0.6,0.4,1.1,1,1.1c0,0,0,0,0,0c0.6,0,1.1-0.5,1.1-1.1v-8.1h1v8.2
				c0,0.6,0.5,1,1.1,1c0.5,0,1-0.4,1-1V167l0.1-7.2c0-0.7,0-1.3,0-1.7c0.7,1.4,1.2,3,1.3,4.5C10.1,163.9,12.1,163.9,12,162.6z"/>
		</g>
	</g>
	<g id="standing-frontal-man-silhouette-18" transform="translate(1563.804 1346.545)">
		<g id="Group_12522" transform="translate(0 0)">
			<ellipse id="Ellipse_9544" class="st0" cx="6" cy="152.1" rx="1.9" ry="1.9"/>
			<path id="Path_13018" class="st0" d="M12,162.6c-0.5-6.1-3.5-7.4-3.5-7.4c-1.9-1-4.1-0.8-5.8,0.5c-1.9,1.8-2.4,4.4-2.7,7
				c-0.2,1.3,1.9,1.3,2.1,0c0.1-1.5,0.5-3,1.2-4.4v1.5l0,7.2v5.7c0,0.6,0.4,1.1,1,1.1c0,0,0,0,0,0c0.6,0,1.1-0.5,1.1-1.1v-8.1h1v8.2
				c0,0.6,0.5,1,1.1,1c0.5,0,1-0.4,1-1V167l0.1-7.2c0-0.7,0-1.3,0-1.7c0.7,1.4,1.2,3,1.3,4.5C10.1,163.9,12.1,163.9,12,162.6z"/>
		</g>
	</g>
	<g id="standing-frontal-man-silhouette-19" transform="translate(1564.411 1068.584)">
		<g id="Group_12523" transform="translate(0 0)">
			<ellipse id="Ellipse_9545" class="st0" cx="6" cy="152.1" rx="1.9" ry="1.9"/>
			<path id="Path_13019" class="st0" d="M12,162.6c-0.5-6.1-3.5-7.4-3.5-7.4c-1.9-1-4.1-0.8-5.8,0.5c-1.9,1.8-2.4,4.4-2.7,7
				c-0.2,1.3,1.9,1.3,2.1,0c0.1-1.5,0.5-3,1.2-4.4v1.5l0,7.2v5.7c0,0.6,0.4,1.1,1,1.1c0,0,0,0,0,0c0.6,0,1.1-0.5,1.1-1.1v-8.1h1v8.2
				c0,0.6,0.5,1,1.1,1c0.5,0,1-0.4,1-1V167l0.1-7.2c0-0.7,0-1.3,0-1.7c0.7,1.4,1.2,3,1.3,4.5C10.1,163.9,12.1,163.9,12,162.6z"/>
		</g>
	</g>
	<g id="standing-frontal-man-silhouette-20" transform="translate(1564.411 1118.968)">
		<g id="Group_12524" transform="translate(0 0)">
			<ellipse id="Ellipse_9546" class="st0" cx="6" cy="152.1" rx="1.9" ry="1.9"/>
			<path id="Path_13020" class="st0" d="M12,162.6c-0.5-6.1-3.5-7.4-3.5-7.4c-1.9-1-4.1-0.8-5.8,0.5c-1.9,1.8-2.4,4.4-2.7,7
				c-0.2,1.3,1.9,1.3,2.1,0c0.1-1.5,0.5-3,1.2-4.4v1.5l0,7.2v5.7c0,0.6,0.4,1.1,1,1.1c0,0,0,0,0,0c0.6,0,1.1-0.5,1.1-1.1v-8.1h1v8.2
				c0,0.6,0.5,1,1.1,1c0.5,0,1-0.4,1-1V167l0.1-7.2c0-0.7,0-1.3,0-1.7c0.7,1.4,1.2,3,1.3,4.5C10.1,163.9,12.1,163.9,12,162.6z"/>
		</g>
	</g>
	<g id="standing-frontal-man-silhouette-21" transform="translate(1564.411 1169.353)">
		<g id="Group_12525" transform="translate(0 0)">
			<ellipse id="Ellipse_9547" class="st0" cx="6" cy="152.1" rx="1.9" ry="1.9"/>
			<path id="Path_13021" class="st0" d="M12,162.6c-0.5-6.1-3.5-7.4-3.5-7.4c-1.9-1-4.1-0.8-5.8,0.5c-1.9,1.8-2.4,4.4-2.7,7
				c-0.2,1.3,1.9,1.3,2.1,0c0.1-1.5,0.5-3,1.2-4.4v1.5l0,7.2v5.7c0,0.6,0.4,1.1,1,1.1c0,0,0,0,0,0c0.6,0,1.1-0.5,1.1-1.1v-8.1h1v8.2
				c0,0.6,0.5,1,1.1,1c0.5,0,1-0.4,1-1V167l0.1-7.2c0-0.7,0-1.3,0-1.7c0.7,1.4,1.2,3,1.3,4.5C10.1,163.9,12.1,163.9,12,162.6z"/>
		</g>
	</g>
	<g id="standing-frontal-man-silhouette-22" transform="translate(1564.411 1093.776)">
		<g id="Group_12526" transform="translate(0 0)">
			<ellipse id="Ellipse_9548" class="st0" cx="6" cy="152.1" rx="1.9" ry="1.9"/>
			<path id="Path_13022" class="st0" d="M12,162.6c-0.5-6.1-3.5-7.4-3.5-7.4c-1.9-1-4.1-0.8-5.8,0.5c-1.9,1.8-2.4,4.4-2.7,7
				c-0.2,1.3,1.9,1.3,2.1,0c0.1-1.5,0.5-3,1.2-4.4v1.5l0,7.2v5.7c0,0.6,0.4,1.1,1,1.1c0,0,0,0,0,0c0.6,0,1.1-0.5,1.1-1.1v-8.1h1v8.2
				c0,0.6,0.5,1,1.1,1c0.5,0,1-0.4,1-1V167l0.1-7.2c0-0.7,0-1.3,0-1.7c0.7,1.4,1.2,3,1.3,4.5C10.1,163.9,12.1,163.9,12,162.6z"/>
		</g>
	</g>
	<g id="standing-frontal-man-silhouette-23" transform="translate(1564.411 1144.16)">
		<g id="Group_12527" transform="translate(0 0)">
			<ellipse id="Ellipse_9549" class="st0" cx="6" cy="152.1" rx="1.9" ry="1.9"/>
			<path id="Path_13023" class="st0" d="M12,162.6c-0.5-6.1-3.5-7.4-3.5-7.4c-1.9-1-4.1-0.8-5.8,0.5c-1.9,1.8-2.4,4.4-2.7,7
				c-0.2,1.3,1.9,1.3,2.1,0c0.1-1.5,0.5-3,1.2-4.4v1.5l0,7.2v5.7c0,0.6,0.4,1.1,1,1.1c0,0,0,0,0,0c0.6,0,1.1-0.5,1.1-1.1v-8.1h1v8.2
				c0,0.6,0.5,1,1.1,1c0.5,0,1-0.4,1-1V167l0.1-7.2c0-0.7,0-1.3,0-1.7c0.7,1.4,1.2,3,1.3,4.5C10.1,163.9,12.1,163.9,12,162.6z"/>
		</g>
	</g>
	<g id="standing-frontal-man-silhouette-24" transform="translate(1564.411 1194.545)">
		<g id="Group_12528" transform="translate(0 0)">
			<ellipse id="Ellipse_9550" class="st0" cx="6" cy="152.1" rx="1.9" ry="1.9"/>
			<path id="Path_13024" class="st0" d="M12,162.6c-0.5-6.1-3.5-7.4-3.5-7.4c-1.9-1-4.1-0.8-5.8,0.5c-1.9,1.8-2.4,4.4-2.7,7
				c-0.2,1.3,1.9,1.3,2.1,0c0.1-1.5,0.5-3,1.2-4.4v1.5l0,7.2v5.7c0,0.6,0.4,1.1,1,1.1c0,0,0,0,0,0c0.6,0,1.1-0.5,1.1-1.1v-8.1h1v8.2
				c0,0.6,0.5,1,1.1,1c0.5,0,1-0.4,1-1V167l0.1-7.2c0-0.7,0-1.3,0-1.7c0.7,1.4,1.2,3,1.3,4.5C10.1,163.9,12.1,163.9,12,162.6z"/>
		</g>
	</g>
	<g id="standing-frontal-man-silhouette-25" transform="translate(1564.216 992.584)">
		<g id="Group_12529" transform="translate(0 0)">
			<ellipse id="Ellipse_9551" class="st0" cx="6" cy="152.1" rx="1.9" ry="1.9"/>
			<path id="Path_13025" class="st0" d="M12,162.6c-0.5-6.1-3.5-7.4-3.5-7.4c-1.9-1-4.1-0.8-5.8,0.5c-1.9,1.8-2.4,4.4-2.7,7
				c-0.2,1.3,1.9,1.3,2.1,0c0.1-1.5,0.5-3,1.2-4.4v1.5l0,7.2v5.7c0,0.6,0.4,1.1,1,1.1c0,0,0,0,0,0c0.6,0,1.1-0.5,1.1-1.1v-8.1h1v8.2
				c0,0.6,0.5,1,1.1,1c0.5,0,1-0.4,1-1V167l0.1-7.2c0-0.7,0-1.3,0-1.7c0.7,1.4,1.2,3,1.3,4.5C10.1,163.9,12.1,163.9,12,162.6z"/>
		</g>
	</g>
	<g id="standing-frontal-man-silhouette-26" transform="translate(1564.216 1042.968)">
		<g id="Group_12530" transform="translate(0 0)">
			<ellipse id="Ellipse_9552" class="st0" cx="6" cy="152.1" rx="1.9" ry="1.9"/>
			<path id="Path_13026" class="st0" d="M12,162.6c-0.5-6.1-3.5-7.4-3.5-7.4c-1.9-1-4.1-0.8-5.8,0.5c-1.9,1.8-2.4,4.4-2.7,7
				c-0.2,1.3,1.9,1.3,2.1,0c0.1-1.5,0.5-3,1.2-4.4v1.5l0,7.2v5.7c0,0.6,0.4,1.1,1,1.1c0,0,0,0,0,0c0.6,0,1.1-0.5,1.1-1.1v-8.1h1v8.2
				c0,0.6,0.5,1,1.1,1c0.5,0,1-0.4,1-1V167l0.1-7.2c0-0.7,0-1.3,0-1.7c0.7,1.4,1.2,3,1.3,4.5C10.1,163.9,12.1,163.9,12,162.6z"/>
		</g>
	</g>
	<g id="standing-frontal-man-silhouette-27" transform="translate(1509.216 1017.353)">
		<g id="Group_12531" transform="translate(0 0)">
			<ellipse id="Ellipse_9553" class="st0" cx="6" cy="152.1" rx="1.9" ry="1.9"/>
			<path id="Path_13027" class="st0" d="M12,162.6c-0.5-6.1-3.5-7.4-3.5-7.4c-1.9-1-4.1-0.8-5.8,0.5c-1.9,1.8-2.4,4.4-2.7,7
				c-0.2,1.3,1.9,1.3,2.1,0c0.1-1.5,0.5-3,1.2-4.4v1.5l0,7.2v5.7c0,0.6,0.4,1.1,1,1.1c0,0,0,0,0,0c0.6,0,1.1-0.5,1.1-1.1v-8.1h1v8.2
				c0,0.6,0.5,1,1.1,1c0.5,0,1-0.4,1-1V167l0.1-7.2c0-0.7,0-1.3,0-1.7c0.7,1.4,1.2,3,1.3,4.5C10.1,163.9,12.1,163.9,12,162.6z"/>
		</g>
	</g>
	<g id="standing-frontal-man-silhouette-28" transform="translate(1564.216 1017.776)">
		<g id="Group_12532" transform="translate(0 0)">
			<ellipse id="Ellipse_9554" class="st0" cx="6" cy="152.1" rx="1.9" ry="1.9"/>
			<path id="Path_13028" class="st0" d="M12,162.6c-0.5-6.1-3.5-7.4-3.5-7.4c-1.9-1-4.1-0.8-5.8,0.5c-1.9,1.8-2.4,4.4-2.7,7
				c-0.2,1.3,1.9,1.3,2.1,0c0.1-1.5,0.5-3,1.2-4.4v1.5l0,7.2v5.7c0,0.6,0.4,1.1,1,1.1c0,0,0,0,0,0c0.6,0,1.1-0.5,1.1-1.1v-8.1h1v8.2
				c0,0.6,0.5,1,1.1,1c0.5,0,1-0.4,1-1V167l0.1-7.2c0-0.7,0-1.3,0-1.7c0.7,1.4,1.2,3,1.3,4.5C10.1,163.9,12.1,163.9,12,162.6z"/>
		</g>
	</g>
	<g id="standing-frontal-man-silhouette-29" transform="translate(1509.216 992.16)">
		<g id="Group_12533" transform="translate(0 0)">
			<ellipse id="Ellipse_9555" class="st0" cx="6" cy="152.1" rx="1.9" ry="1.9"/>
			<path id="Path_13029" class="st0" d="M12,162.6c-0.5-6.1-3.5-7.4-3.5-7.4c-1.9-1-4.1-0.8-5.8,0.5c-1.9,1.8-2.4,4.4-2.7,7
				c-0.2,1.3,1.9,1.3,2.1,0c0.1-1.5,0.5-3,1.2-4.4v1.5l0,7.2v5.7c0,0.6,0.4,1.1,1,1.1c0,0,0,0,0,0c0.6,0,1.1-0.5,1.1-1.1v-8.1h1v8.2
				c0,0.6,0.5,1,1.1,1c0.5,0,1-0.4,1-1V167l0.1-7.2c0-0.7,0-1.3,0-1.7c0.7,1.4,1.2,3,1.3,4.5C10.1,163.9,12.1,163.9,12,162.6z"/>
		</g>
	</g>
	<g id="standing-frontal-man-silhouette-30" transform="translate(1509.216 1042.545)">
		<g id="Group_12534" transform="translate(0 0)">
			<ellipse id="Ellipse_9556" class="st0" cx="6" cy="152.1" rx="1.9" ry="1.9"/>
			<path id="Path_13030" class="st0" d="M12,162.6c-0.5-6.1-3.5-7.4-3.5-7.4c-1.9-1-4.1-0.8-5.8,0.5c-1.9,1.8-2.4,4.4-2.7,7
				c-0.2,1.3,1.9,1.3,2.1,0c0.1-1.5,0.5-3,1.2-4.4v1.5l0,7.2v5.7c0,0.6,0.4,1.1,1,1.1c0,0,0,0,0,0c0.6,0,1.1-0.5,1.1-1.1v-8.1h1v8.2
				c0,0.6,0.5,1,1.1,1c0.5,0,1-0.4,1-1V167l0.1-7.2c0-0.7,0-1.3,0-1.7c0.7,1.4,1.2,3,1.3,4.5C10.1,163.9,12.1,163.9,12,162.6z"/>
		</g>
	</g>
	<g id="standing-frontal-man-silhouette-31" transform="translate(1536.401 1220.584)">
		<g id="Group_12535" transform="translate(0 0)">
			<ellipse id="Ellipse_9557" class="st0" cx="6" cy="152.1" rx="1.9" ry="1.9"/>
			<path id="Path_13031" class="st0" d="M12,162.6c-0.5-6.1-3.5-7.4-3.5-7.4c-1.9-1-4.1-0.8-5.8,0.5c-1.9,1.8-2.4,4.4-2.7,7
				c-0.2,1.3,1.9,1.3,2.1,0c0.1-1.5,0.5-3,1.2-4.4v1.5l0,7.2v5.7c0,0.6,0.4,1.1,1,1.1c0,0,0,0,0,0c0.6,0,1.1-0.5,1.1-1.1v-8.1h1v8.2
				c0,0.6,0.5,1,1.1,1c0.5,0,1-0.4,1-1V167l0.1-7.2c0-0.7,0-1.3,0-1.7c0.7,1.4,1.2,3,1.3,4.5C10.1,163.9,12.1,163.9,12,162.6z"/>
		</g>
	</g>
	<g id="standing-frontal-man-silhouette-32" transform="translate(1536.401 1270.968)">
		<g id="Group_12536" transform="translate(0 0)">
			<ellipse id="Ellipse_9558" class="st0" cx="6" cy="152.1" rx="1.9" ry="1.9"/>
			<path id="Path_13032" class="st0" d="M12,162.6c-0.5-6.1-3.5-7.4-3.5-7.4c-1.9-1-4.1-0.8-5.8,0.5c-1.9,1.8-2.4,4.4-2.7,7
				c-0.2,1.3,1.9,1.3,2.1,0c0.1-1.5,0.5-3,1.2-4.4v1.5l0,7.2v5.7c0,0.6,0.4,1.1,1,1.1c0,0,0,0,0,0c0.6,0,1.1-0.5,1.1-1.1v-8.1h1v8.2
				c0,0.6,0.5,1,1.1,1c0.5,0,1-0.4,1-1V167l0.1-7.2c0-0.7,0-1.3,0-1.7c0.7,1.4,1.2,3,1.3,4.5C10.1,163.9,12.1,163.9,12,162.6z"/>
		</g>
	</g>
	<g id="standing-frontal-man-silhouette-33" transform="translate(1536.401 1321.353)">
		<g id="Group_12537" transform="translate(0 0)">
			<ellipse id="Ellipse_9559" class="st0" cx="6" cy="152.1" rx="1.9" ry="1.9"/>
			<path id="Path_13033" class="st0" d="M12,162.6c-0.5-6.1-3.5-7.4-3.5-7.4c-1.9-1-4.1-0.8-5.8,0.5c-1.9,1.8-2.4,4.4-2.7,7
				c-0.2,1.3,1.9,1.3,2.1,0c0.1-1.5,0.5-3,1.2-4.4v1.5l0,7.2v5.7c0,0.6,0.4,1.1,1,1.1c0,0,0,0,0,0c0.6,0,1.1-0.5,1.1-1.1v-8.1h1v8.2
				c0,0.6,0.5,1,1.1,1c0.5,0,1-0.4,1-1V167l0.1-7.2c0-0.7,0-1.3,0-1.7c0.7,1.4,1.2,3,1.3,4.5C10.1,163.9,12.1,163.9,12,162.6z"/>
		</g>
	</g>
	<g id="standing-frontal-man-silhouette-34" transform="translate(1536.401 1245.776)">
		<g id="Group_12538" transform="translate(0 0)">
			<ellipse id="Ellipse_9560" class="st0" cx="6" cy="152.1" rx="1.9" ry="1.9"/>
			<path id="Path_13034" class="st0" d="M12,162.6c-0.5-6.1-3.5-7.4-3.5-7.4c-1.9-1-4.1-0.8-5.8,0.5c-1.9,1.8-2.4,4.4-2.7,7
				c-0.2,1.3,1.9,1.3,2.1,0c0.1-1.5,0.5-3,1.2-4.4v1.5l0,7.2v5.7c0,0.6,0.4,1.1,1,1.1c0,0,0,0,0,0c0.6,0,1.1-0.5,1.1-1.1v-8.1h1v8.2
				c0,0.6,0.5,1,1.1,1c0.5,0,1-0.4,1-1V167l0.1-7.2c0-0.7,0-1.3,0-1.7c0.7,1.4,1.2,3,1.3,4.5C10.1,163.9,12.1,163.9,12,162.6z"/>
		</g>
	</g>
	<g id="standing-frontal-man-silhouette-35" transform="translate(1536.401 1296.16)">
		<g id="Group_12539" transform="translate(0 0)">
			<ellipse id="Ellipse_9561" class="st0" cx="6" cy="152.1" rx="1.9" ry="1.9"/>
			<path id="Path_13035" class="st0" d="M12,162.6c-0.5-6.1-3.5-7.4-3.5-7.4c-1.9-1-4.1-0.8-5.8,0.5c-1.9,1.8-2.4,4.4-2.7,7
				c-0.2,1.3,1.9,1.3,2.1,0c0.1-1.5,0.5-3,1.2-4.4v1.5l0,7.2v5.7c0,0.6,0.4,1.1,1,1.1c0,0,0,0,0,0c0.6,0,1.1-0.5,1.1-1.1v-8.1h1v8.2
				c0,0.6,0.5,1,1.1,1c0.5,0,1-0.4,1-1V167l0.1-7.2c0-0.7,0-1.3,0-1.7c0.7,1.4,1.2,3,1.3,4.5C10.1,163.9,12.1,163.9,12,162.6z"/>
		</g>
	</g>
	<g id="standing-frontal-man-silhouette-36" transform="translate(1536.401 1346.545)">
		<g id="Group_12540" transform="translate(0 0)">
			<ellipse id="Ellipse_9562" class="st0" cx="6" cy="152.1" rx="1.9" ry="1.9"/>
			<path id="Path_13036" class="st0" d="M12,162.6c-0.5-6.1-3.5-7.4-3.5-7.4c-1.9-1-4.1-0.8-5.8,0.5c-1.9,1.8-2.4,4.4-2.7,7
				c-0.2,1.3,1.9,1.3,2.1,0c0.1-1.5,0.5-3,1.2-4.4v1.5l0,7.2v5.7c0,0.6,0.4,1.1,1,1.1c0,0,0,0,0,0c0.6,0,1.1-0.5,1.1-1.1v-8.1h1v8.2
				c0,0.6,0.5,1,1.1,1c0.5,0,1-0.4,1-1V167l0.1-7.2c0-0.7,0-1.3,0-1.7c0.7,1.4,1.2,3,1.3,4.5C10.1,163.9,12.1,163.9,12,162.6z"/>
		</g>
	</g>
	<g id="standing-frontal-man-silhouette-37" transform="translate(1537.01 1068.584)">
		<g id="Group_12541" transform="translate(0 0)">
			<ellipse id="Ellipse_9563" class="st0" cx="6" cy="152.1" rx="1.9" ry="1.9"/>
			<path id="Path_13037" class="st0" d="M12,162.6c-0.5-6.1-3.5-7.4-3.5-7.4c-1.9-1-4.1-0.8-5.8,0.5c-1.9,1.8-2.4,4.4-2.7,7
				c-0.2,1.3,1.9,1.3,2.1,0c0.1-1.5,0.5-3,1.2-4.4v1.5l0,7.2v5.7c0,0.6,0.4,1.1,1,1.1c0,0,0,0,0,0c0.6,0,1.1-0.5,1.1-1.1v-8.1h1v8.2
				c0,0.6,0.5,1,1.1,1c0.5,0,1-0.4,1-1V167l0.1-7.2c0-0.7,0-1.3,0-1.7c0.7,1.4,1.2,3,1.3,4.5C10.1,163.9,12.1,163.9,12,162.6z"/>
		</g>
	</g>
	<g id="standing-frontal-man-silhouette-38" transform="translate(1537.01 1118.968)">
		<g id="Group_12542" transform="translate(0 0)">
			<ellipse id="Ellipse_9564" class="st0" cx="6" cy="152.1" rx="1.9" ry="1.9"/>
			<path id="Path_13038" class="st0" d="M12,162.6c-0.5-6.1-3.5-7.4-3.5-7.4c-1.9-1-4.1-0.8-5.8,0.5c-1.9,1.8-2.4,4.4-2.7,7
				c-0.2,1.3,1.9,1.3,2.1,0c0.1-1.5,0.5-3,1.2-4.4v1.5l0,7.2v5.7c0,0.6,0.4,1.1,1,1.1c0,0,0,0,0,0c0.6,0,1.1-0.5,1.1-1.1v-8.1h1v8.2
				c0,0.6,0.5,1,1.1,1c0.5,0,1-0.4,1-1V167l0.1-7.2c0-0.7,0-1.3,0-1.7c0.7,1.4,1.2,3,1.3,4.5C10.1,163.9,12.1,163.9,12,162.6z"/>
		</g>
	</g>
	<g id="standing-frontal-man-silhouette-39" transform="translate(1537.01 1169.353)">
		<g id="Group_12543" transform="translate(0 0)">
			<ellipse id="Ellipse_9565" class="st0" cx="6" cy="152.1" rx="1.9" ry="1.9"/>
			<path id="Path_13039" class="st0" d="M12,162.6c-0.5-6.1-3.5-7.4-3.5-7.4c-1.9-1-4.1-0.8-5.8,0.5c-1.9,1.8-2.4,4.4-2.7,7
				c-0.2,1.3,1.9,1.3,2.1,0c0.1-1.5,0.5-3,1.2-4.4v1.5l0,7.2v5.7c0,0.6,0.4,1.1,1,1.1c0,0,0,0,0,0c0.6,0,1.1-0.5,1.1-1.1v-8.1h1v8.2
				c0,0.6,0.5,1,1.1,1c0.5,0,1-0.4,1-1V167l0.1-7.2c0-0.7,0-1.3,0-1.7c0.7,1.4,1.2,3,1.3,4.5C10.1,163.9,12.1,163.9,12,162.6z"/>
		</g>
	</g>
	<g id="standing-frontal-man-silhouette-40" transform="translate(1537.01 1093.776)">
		<g id="Group_12544" transform="translate(0 0)">
			<ellipse id="Ellipse_9566" class="st0" cx="6" cy="152.1" rx="1.9" ry="1.9"/>
			<path id="Path_13040" class="st0" d="M12,162.6c-0.5-6.1-3.5-7.4-3.5-7.4c-1.9-1-4.1-0.8-5.8,0.5c-1.9,1.8-2.4,4.4-2.7,7
				c-0.2,1.3,1.9,1.3,2.1,0c0.1-1.5,0.5-3,1.2-4.4v1.5l0,7.2v5.7c0,0.6,0.4,1.1,1,1.1c0,0,0,0,0,0c0.6,0,1.1-0.5,1.1-1.1v-8.1h1v8.2
				c0,0.6,0.5,1,1.1,1c0.5,0,1-0.4,1-1V167l0.1-7.2c0-0.7,0-1.3,0-1.7c0.7,1.4,1.2,3,1.3,4.5C10.1,163.9,12.1,163.9,12,162.6z"/>
		</g>
	</g>
	<g id="standing-frontal-man-silhouette-41" transform="translate(1537.01 1144.16)">
		<g id="Group_12545" transform="translate(0 0)">
			<ellipse id="Ellipse_9567" class="st0" cx="6" cy="152.1" rx="1.9" ry="1.9"/>
			<path id="Path_13041" class="st0" d="M12,162.6c-0.5-6.1-3.5-7.4-3.5-7.4c-1.9-1-4.1-0.8-5.8,0.5c-1.9,1.8-2.4,4.4-2.7,7
				c-0.2,1.3,1.9,1.3,2.1,0c0.1-1.5,0.5-3,1.2-4.4v1.5l0,7.2v5.7c0,0.6,0.4,1.1,1,1.1c0,0,0,0,0,0c0.6,0,1.1-0.5,1.1-1.1v-8.1h1v8.2
				c0,0.6,0.5,1,1.1,1c0.5,0,1-0.4,1-1V167l0.1-7.2c0-0.7,0-1.3,0-1.7c0.7,1.4,1.2,3,1.3,4.5C10.1,163.9,12.1,163.9,12,162.6z"/>
		</g>
	</g>
	<g id="standing-frontal-man-silhouette-42" transform="translate(1537.01 1194.545)">
		<g id="Group_12546" transform="translate(0 0)">
			<ellipse id="Ellipse_9568" class="st0" cx="6" cy="152.1" rx="1.9" ry="1.9"/>
			<path id="Path_13042" class="st0" d="M12,162.6c-0.5-6.1-3.5-7.4-3.5-7.4c-1.9-1-4.1-0.8-5.8,0.5c-1.9,1.8-2.4,4.4-2.7,7
				c-0.2,1.3,1.9,1.3,2.1,0c0.1-1.5,0.5-3,1.2-4.4v1.5l0,7.2v5.7c0,0.6,0.4,1.1,1,1.1c0,0,0,0,0,0c0.6,0,1.1-0.5,1.1-1.1v-8.1h1v8.2
				c0,0.6,0.5,1,1.1,1c0.5,0,1-0.4,1-1V167l0.1-7.2c0-0.7,0-1.3,0-1.7c0.7,1.4,1.2,3,1.3,4.5C10.1,163.9,12.1,163.9,12,162.6z"/>
		</g>
	</g>
	<g id="standing-frontal-man-silhouette-43" transform="translate(1591.206 1220.584)">
		<g id="Group_12547" transform="translate(0 0)">
			<ellipse id="Ellipse_9569" class="st0" cx="6" cy="152.1" rx="1.9" ry="1.9"/>
			<path id="Path_13043" class="st0" d="M12,162.6c-0.5-6.1-3.5-7.4-3.5-7.4c-1.9-1-4.1-0.8-5.8,0.5c-1.9,1.8-2.4,4.4-2.7,7
				c-0.2,1.3,1.9,1.3,2.1,0c0.1-1.5,0.5-3,1.2-4.4v1.5l0,7.2v5.7c0,0.6,0.4,1.1,1,1.1c0,0,0,0,0,0c0.6,0,1.1-0.5,1.1-1.1v-8.1h1v8.2
				c0,0.6,0.5,1,1.1,1c0.5,0,1-0.4,1-1V167l0.1-7.2c0-0.7,0-1.3,0-1.7c0.7,1.4,1.2,3,1.3,4.5C10.1,163.9,12.1,163.9,12,162.6z"/>
		</g>
	</g>
	<g id="standing-frontal-man-silhouette-44" transform="translate(1591.206 1270.968)">
		<g id="Group_12548" transform="translate(0 0)">
			<ellipse id="Ellipse_9570" class="st0" cx="6" cy="152.1" rx="1.9" ry="1.9"/>
			<path id="Path_13044" class="st0" d="M12,162.6c-0.5-6.1-3.5-7.4-3.5-7.4c-1.9-1-4.1-0.8-5.8,0.5c-1.9,1.8-2.4,4.4-2.7,7
				c-0.2,1.3,1.9,1.3,2.1,0c0.1-1.5,0.5-3,1.2-4.4v1.5l0,7.2v5.7c0,0.6,0.4,1.1,1,1.1c0,0,0,0,0,0c0.6,0,1.1-0.5,1.1-1.1v-8.1h1v8.2
				c0,0.6,0.5,1,1.1,1c0.5,0,1-0.4,1-1V167l0.1-7.2c0-0.7,0-1.3,0-1.7c0.7,1.4,1.2,3,1.3,4.5C10.1,163.9,12.1,163.9,12,162.6z"/>
		</g>
	</g>
	<g id="standing-frontal-man-silhouette-45" transform="translate(1591.206 1321.353)">
		<g id="Group_12549" transform="translate(0 0)">
			<ellipse id="Ellipse_9571" class="st0" cx="6" cy="152.1" rx="1.9" ry="1.9"/>
			<path id="Path_13045" class="st0" d="M12,162.6c-0.5-6.1-3.5-7.4-3.5-7.4c-1.9-1-4.1-0.8-5.8,0.5c-1.9,1.8-2.4,4.4-2.7,7
				c-0.2,1.3,1.9,1.3,2.1,0c0.1-1.5,0.5-3,1.2-4.4v1.5l0,7.2v5.7c0,0.6,0.4,1.1,1,1.1c0,0,0,0,0,0c0.6,0,1.1-0.5,1.1-1.1v-8.1h1v8.2
				c0,0.6,0.5,1,1.1,1c0.5,0,1-0.4,1-1V167l0.1-7.2c0-0.7,0-1.3,0-1.7c0.7,1.4,1.2,3,1.3,4.5C10.1,163.9,12.1,163.9,12,162.6z"/>
		</g>
	</g>
	<g id="standing-frontal-man-silhouette-46" transform="translate(1591.206 1245.776)">
		<g id="Group_12550" transform="translate(0 0)">
			<ellipse id="Ellipse_9572" class="st0" cx="6" cy="152.1" rx="1.9" ry="1.9"/>
			<path id="Path_13046" class="st0" d="M12,162.6c-0.5-6.1-3.5-7.4-3.5-7.4c-1.9-1-4.1-0.8-5.8,0.5c-1.9,1.8-2.4,4.4-2.7,7
				c-0.2,1.3,1.9,1.3,2.1,0c0.1-1.5,0.5-3,1.2-4.4v1.5l0,7.2v5.7c0,0.6,0.4,1.1,1,1.1c0,0,0,0,0,0c0.6,0,1.1-0.5,1.1-1.1v-8.1h1v8.2
				c0,0.6,0.5,1,1.1,1c0.5,0,1-0.4,1-1V167l0.1-7.2c0-0.7,0-1.3,0-1.7c0.7,1.4,1.2,3,1.3,4.5C10.1,163.9,12.1,163.9,12,162.6z"/>
		</g>
	</g>
	<g id="standing-frontal-man-silhouette-47" transform="translate(1591.206 1296.16)">
		<g id="Group_12551" transform="translate(0 0)">
			<ellipse id="Ellipse_9573" class="st0" cx="6" cy="152.1" rx="1.9" ry="1.9"/>
			<path id="Path_13047" class="st0" d="M12,162.6c-0.5-6.1-3.5-7.4-3.5-7.4c-1.9-1-4.1-0.8-5.8,0.5c-1.9,1.8-2.4,4.4-2.7,7
				c-0.2,1.3,1.9,1.3,2.1,0c0.1-1.5,0.5-3,1.2-4.4v1.5l0,7.2v5.7c0,0.6,0.4,1.1,1,1.1c0,0,0,0,0,0c0.6,0,1.1-0.5,1.1-1.1v-8.1h1v8.2
				c0,0.6,0.5,1,1.1,1c0.5,0,1-0.4,1-1V167l0.1-7.2c0-0.7,0-1.3,0-1.7c0.7,1.4,1.2,3,1.3,4.5C10.1,163.9,12.1,163.9,12,162.6z"/>
		</g>
	</g>
	<g id="standing-frontal-man-silhouette-48" transform="translate(1591.206 1346.545)">
		<g id="Group_12552" transform="translate(0 0)">
			<ellipse id="Ellipse_9574" class="st0" cx="6" cy="152.1" rx="1.9" ry="1.9"/>
			<path id="Path_13048" class="st0" d="M12,162.6c-0.5-6.1-3.5-7.4-3.5-7.4c-1.9-1-4.1-0.8-5.8,0.5c-1.9,1.8-2.4,4.4-2.7,7
				c-0.2,1.3,1.9,1.3,2.1,0c0.1-1.5,0.5-3,1.2-4.4v1.5l0,7.2v5.7c0,0.6,0.4,1.1,1,1.1c0,0,0,0,0,0c0.6,0,1.1-0.5,1.1-1.1v-8.1h1v8.2
				c0,0.6,0.5,1,1.1,1c0.5,0,1-0.4,1-1V167l0.1-7.2c0-0.7,0-1.3,0-1.7c0.7,1.4,1.2,3,1.3,4.5C10.1,163.9,12.1,163.9,12,162.6z"/>
		</g>
	</g>
	<g id="standing-frontal-man-silhouette-49" transform="translate(1591.813 1068.584)">
		<g id="Group_12553" transform="translate(0 0)">
			<ellipse id="Ellipse_9575" class="st0" cx="6" cy="152.1" rx="1.9" ry="1.9"/>
			<path id="Path_13049" class="st0" d="M12,162.6c-0.5-6.1-3.5-7.4-3.5-7.4c-1.9-1-4.1-0.8-5.8,0.5c-1.9,1.8-2.4,4.4-2.7,7
				c-0.2,1.3,1.9,1.3,2.1,0c0.1-1.5,0.5-3,1.2-4.4v1.5l0,7.2v5.7c0,0.6,0.4,1.1,1,1.1c0,0,0,0,0,0c0.6,0,1.1-0.5,1.1-1.1v-8.1h1v8.2
				c0,0.6,0.5,1,1.1,1c0.5,0,1-0.4,1-1V167l0.1-7.2c0-0.7,0-1.3,0-1.7c0.7,1.4,1.2,3,1.3,4.5C10.1,163.9,12.1,163.9,12,162.6z"/>
		</g>
	</g>
	<g id="standing-frontal-man-silhouette-50" transform="translate(1591.813 1118.968)">
		<g id="Group_12554" transform="translate(0 0)">
			<ellipse id="Ellipse_9576" class="st0" cx="6" cy="152.1" rx="1.9" ry="1.9"/>
			<path id="Path_13050" class="st0" d="M12,162.6c-0.5-6.1-3.5-7.4-3.5-7.4c-1.9-1-4.1-0.8-5.8,0.5c-1.9,1.8-2.4,4.4-2.7,7
				c-0.2,1.3,1.9,1.3,2.1,0c0.1-1.5,0.5-3,1.2-4.4v1.5l0,7.2v5.7c0,0.6,0.4,1.1,1,1.1c0,0,0,0,0,0c0.6,0,1.1-0.5,1.1-1.1v-8.1h1v8.2
				c0,0.6,0.5,1,1.1,1c0.5,0,1-0.4,1-1V167l0.1-7.2c0-0.7,0-1.3,0-1.7c0.7,1.4,1.2,3,1.3,4.5C10.1,163.9,12.1,163.9,12,162.6z"/>
		</g>
	</g>
	<g id="standing-frontal-man-silhouette-51" transform="translate(1591.813 1169.353)">
		<g id="Group_12555" transform="translate(0 0)">
			<ellipse id="Ellipse_9577" class="st0" cx="6" cy="152.1" rx="1.9" ry="1.9"/>
			<path id="Path_13051" class="st0" d="M12,162.6c-0.5-6.1-3.5-7.4-3.5-7.4c-1.9-1-4.1-0.8-5.8,0.5c-1.9,1.8-2.4,4.4-2.7,7
				c-0.2,1.3,1.9,1.3,2.1,0c0.1-1.5,0.5-3,1.2-4.4v1.5l0,7.2v5.7c0,0.6,0.4,1.1,1,1.1c0,0,0,0,0,0c0.6,0,1.1-0.5,1.1-1.1v-8.1h1v8.2
				c0,0.6,0.5,1,1.1,1c0.5,0,1-0.4,1-1V167l0.1-7.2c0-0.7,0-1.3,0-1.7c0.7,1.4,1.2,3,1.3,4.5C10.1,163.9,12.1,163.9,12,162.6z"/>
		</g>
	</g>
	<g id="standing-frontal-man-silhouette-52" transform="translate(1591.813 1093.776)">
		<g id="Group_12556" transform="translate(0 0)">
			<ellipse id="Ellipse_9578" class="st0" cx="6" cy="152.1" rx="1.9" ry="1.9"/>
			<path id="Path_13052" class="st0" d="M12,162.6c-0.5-6.1-3.5-7.4-3.5-7.4c-1.9-1-4.1-0.8-5.8,0.5c-1.9,1.8-2.4,4.4-2.7,7
				c-0.2,1.3,1.9,1.3,2.1,0c0.1-1.5,0.5-3,1.2-4.4v1.5l0,7.2v5.7c0,0.6,0.4,1.1,1,1.1c0,0,0,0,0,0c0.6,0,1.1-0.5,1.1-1.1v-8.1h1v8.2
				c0,0.6,0.5,1,1.1,1c0.5,0,1-0.4,1-1V167l0.1-7.2c0-0.7,0-1.3,0-1.7c0.7,1.4,1.2,3,1.3,4.5C10.1,163.9,12.1,163.9,12,162.6z"/>
		</g>
	</g>
	<g id="standing-frontal-man-silhouette-53" transform="translate(1591.813 1144.16)">
		<g id="Group_12557" transform="translate(0 0)">
			<ellipse id="Ellipse_9579" class="st0" cx="6" cy="152.1" rx="1.9" ry="1.9"/>
			<path id="Path_13053" class="st0" d="M12,162.6c-0.5-6.1-3.5-7.4-3.5-7.4c-1.9-1-4.1-0.8-5.8,0.5c-1.9,1.8-2.4,4.4-2.7,7
				c-0.2,1.3,1.9,1.3,2.1,0c0.1-1.5,0.5-3,1.2-4.4v1.5l0,7.2v5.7c0,0.6,0.4,1.1,1,1.1c0,0,0,0,0,0c0.6,0,1.1-0.5,1.1-1.1v-8.1h1v8.2
				c0,0.6,0.5,1,1.1,1c0.5,0,1-0.4,1-1V167l0.1-7.2c0-0.7,0-1.3,0-1.7c0.7,1.4,1.2,3,1.3,4.5C10.1,163.9,12.1,163.9,12,162.6z"/>
		</g>
	</g>
	<g id="standing-frontal-man-silhouette-54" transform="translate(1591.813 1194.545)">
		<g id="Group_12558" transform="translate(0 0)">
			<ellipse id="Ellipse_9580" class="st0" cx="6" cy="152.1" rx="1.9" ry="1.9"/>
			<path id="Path_13054" class="st0" d="M12,162.6c-0.5-6.1-3.5-7.4-3.5-7.4c-1.9-1-4.1-0.8-5.8,0.5c-1.9,1.8-2.4,4.4-2.7,7
				c-0.2,1.3,1.9,1.3,2.1,0c0.1-1.5,0.5-3,1.2-4.4v1.5l0,7.2v5.7c0,0.6,0.4,1.1,1,1.1c0,0,0,0,0,0c0.6,0,1.1-0.5,1.1-1.1v-8.1h1v8.2
				c0,0.6,0.5,1,1.1,1c0.5,0,1-0.4,1-1V167l0.1-7.2c0-0.7,0-1.3,0-1.7c0.7,1.4,1.2,3,1.3,4.5C10.1,163.9,12.1,163.9,12,162.6z"/>
		</g>
	</g>
	<g id="standing-frontal-man-silhouette-55" transform="translate(1591.617 1042.968)">
		<g id="Group_12559" transform="translate(0 0)">
			<ellipse id="Ellipse_9581" class="st0" cx="6" cy="152.1" rx="1.9" ry="1.9"/>
			<path id="Path_13055" class="st0" d="M12,162.6c-0.5-6.1-3.5-7.4-3.5-7.4c-1.9-1-4.1-0.8-5.8,0.5c-1.9,1.8-2.4,4.4-2.7,7
				c-0.2,1.3,1.9,1.3,2.1,0c0.1-1.5,0.5-3,1.2-4.4v1.5l0,7.2v5.7c0,0.6,0.4,1.1,1,1.1c0,0,0,0,0,0c0.6,0,1.1-0.5,1.1-1.1v-8.1h1v8.2
				c0,0.6,0.5,1,1.1,1c0.5,0,1-0.4,1-1V167l0.1-7.2c0-0.7,0-1.3,0-1.7c0.7,1.4,1.2,3,1.3,4.5C10.1,163.9,12.1,163.9,12,162.6z"/>
		</g>
	</g>
	<g id="standing-frontal-man-silhouette-56" transform="translate(1536.617 1017.353)">
		<g id="Group_12560" transform="translate(0 0)">
			<ellipse id="Ellipse_9582" class="st0" cx="6" cy="152.1" rx="1.9" ry="1.9"/>
			<path id="Path_13056" class="st0" d="M12,162.6c-0.5-6.1-3.5-7.4-3.5-7.4c-1.9-1-4.1-0.8-5.8,0.5c-1.9,1.8-2.4,4.4-2.7,7
				c-0.2,1.3,1.9,1.3,2.1,0c0.1-1.5,0.5-3,1.2-4.4v1.5l0,7.2v5.7c0,0.6,0.4,1.1,1,1.1c0,0,0,0,0,0c0.6,0,1.1-0.5,1.1-1.1v-8.1h1v8.2
				c0,0.6,0.5,1,1.1,1c0.5,0,1-0.4,1-1V167l0.1-7.2c0-0.7,0-1.3,0-1.7c0.7,1.4,1.2,3,1.3,4.5C10.1,163.9,12.1,163.9,12,162.6z"/>
		</g>
	</g>
	<g id="standing-frontal-man-silhouette-57" transform="translate(1591.617 1017.776)">
		<g id="Group_12561" transform="translate(0 0)">
			<ellipse id="Ellipse_9583" class="st0" cx="6" cy="152.1" rx="1.9" ry="1.9"/>
			<path id="Path_13057" class="st0" d="M12,162.6c-0.5-6.1-3.5-7.4-3.5-7.4c-1.9-1-4.1-0.8-5.8,0.5c-1.9,1.8-2.4,4.4-2.7,7
				c-0.2,1.3,1.9,1.3,2.1,0c0.1-1.5,0.5-3,1.2-4.4v1.5l0,7.2v5.7c0,0.6,0.4,1.1,1,1.1c0,0,0,0,0,0c0.6,0,1.1-0.5,1.1-1.1v-8.1h1v8.2
				c0,0.6,0.5,1,1.1,1c0.5,0,1-0.4,1-1V167l0.1-7.2c0-0.7,0-1.3,0-1.7c0.7,1.4,1.2,3,1.3,4.5C10.1,163.9,12.1,163.9,12,162.6z"/>
		</g>
	</g>
	<g id="standing-frontal-man-silhouette-58" transform="translate(1536.617 992.16)">
		<g id="Group_12562" transform="translate(0 0)">
			<ellipse id="Ellipse_9584" class="st0" cx="6" cy="152.1" rx="1.9" ry="1.9"/>
			<path id="Path_13058" class="st0" d="M12,162.6c-0.5-6.1-3.5-7.4-3.5-7.4c-1.9-1-4.1-0.8-5.8,0.5c-1.9,1.8-2.4,4.4-2.7,7
				c-0.2,1.3,1.9,1.3,2.1,0c0.1-1.5,0.5-3,1.2-4.4v1.5l0,7.2v5.7c0,0.6,0.4,1.1,1,1.1c0,0,0,0,0,0c0.6,0,1.1-0.5,1.1-1.1v-8.1h1v8.2
				c0,0.6,0.5,1,1.1,1c0.5,0,1-0.4,1-1V167l0.1-7.2c0-0.7,0-1.3,0-1.7c0.7,1.4,1.2,3,1.3,4.5C10.1,163.9,12.1,163.9,12,162.6z"/>
		</g>
	</g>
	<g id="standing-frontal-man-silhouette-59" transform="translate(1536.617 1042.545)">
		<g id="Group_12563" transform="translate(0 0)">
			<ellipse id="Ellipse_9585" class="st0" cx="6" cy="152.1" rx="1.9" ry="1.9"/>
			<path id="Path_13059" class="st0" d="M12,162.6c-0.5-6.1-3.5-7.4-3.5-7.4c-1.9-1-4.1-0.8-5.8,0.5c-1.9,1.8-2.4,4.4-2.7,7
				c-0.2,1.3,1.9,1.3,2.1,0c0.1-1.5,0.5-3,1.2-4.4v1.5l0,7.2v5.7c0,0.6,0.4,1.1,1,1.1c0,0,0,0,0,0c0.6,0,1.1-0.5,1.1-1.1v-8.1h1v8.2
				c0,0.6,0.5,1,1.1,1c0.5,0,1-0.4,1-1V167l0.1-7.2c0-0.7,0-1.3,0-1.7c0.7,1.4,1.2,3,1.3,4.5C10.1,163.9,12.1,163.9,12,162.6z"/>
		</g>
	</g>
	<g id="standing-frontal-man-silhouette-60" transform="translate(1522.701 1220.584)">
		<g id="Group_12564" transform="translate(0 0)">
			<ellipse id="Ellipse_9586" class="st0" cx="6" cy="152.1" rx="1.9" ry="1.9"/>
			<path id="Path_13060" class="st0" d="M12,162.6c-0.5-6.1-3.5-7.4-3.5-7.4c-1.9-1-4.1-0.8-5.8,0.5c-1.9,1.8-2.4,4.4-2.7,7
				c-0.2,1.3,1.9,1.3,2.1,0c0.1-1.5,0.5-3,1.2-4.4v1.5l0,7.2v5.7c0,0.6,0.4,1.1,1,1.1c0,0,0,0,0,0c0.6,0,1.1-0.5,1.1-1.1v-8.1h1v8.2
				c0,0.6,0.5,1,1.1,1c0.5,0,1-0.4,1-1V167l0.1-7.2c0-0.7,0-1.3,0-1.7c0.7,1.4,1.2,3,1.3,4.5C10.1,163.9,12.1,163.9,12,162.6z"/>
		</g>
	</g>
	<g id="standing-frontal-man-silhouette-61" transform="translate(1522.701 1270.968)">
		<g id="Group_12565" transform="translate(0 0)">
			<ellipse id="Ellipse_9587" class="st0" cx="6" cy="152.1" rx="1.9" ry="1.9"/>
			<path id="Path_13061" class="st0" d="M12,162.6c-0.5-6.1-3.5-7.4-3.5-7.4c-1.9-1-4.1-0.8-5.8,0.5c-1.9,1.8-2.4,4.4-2.7,7
				c-0.2,1.3,1.9,1.3,2.1,0c0.1-1.5,0.5-3,1.2-4.4v1.5l0,7.2v5.7c0,0.6,0.4,1.1,1,1.1c0,0,0,0,0,0c0.6,0,1.1-0.5,1.1-1.1v-8.1h1v8.2
				c0,0.6,0.5,1,1.1,1c0.5,0,1-0.4,1-1V167l0.1-7.2c0-0.7,0-1.3,0-1.7c0.7,1.4,1.2,3,1.3,4.5C10.1,163.9,12.1,163.9,12,162.6z"/>
		</g>
	</g>
	<g id="standing-frontal-man-silhouette-62" transform="translate(1522.701 1321.353)">
		<g id="Group_12566" transform="translate(0 0)">
			<ellipse id="Ellipse_9588" class="st0" cx="6" cy="152.1" rx="1.9" ry="1.9"/>
			<path id="Path_13062" class="st0" d="M12,162.6c-0.5-6.1-3.5-7.4-3.5-7.4c-1.9-1-4.1-0.8-5.8,0.5c-1.9,1.8-2.4,4.4-2.7,7
				c-0.2,1.3,1.9,1.3,2.1,0c0.1-1.5,0.5-3,1.2-4.4v1.5l0,7.2v5.7c0,0.6,0.4,1.1,1,1.1c0,0,0,0,0,0c0.6,0,1.1-0.5,1.1-1.1v-8.1h1v8.2
				c0,0.6,0.5,1,1.1,1c0.5,0,1-0.4,1-1V167l0.1-7.2c0-0.7,0-1.3,0-1.7c0.7,1.4,1.2,3,1.3,4.5C10.1,163.9,12.1,163.9,12,162.6z"/>
		</g>
	</g>
	<g id="standing-frontal-man-silhouette-63" transform="translate(1522.701 1245.776)">
		<g id="Group_12567" transform="translate(0 0)">
			<ellipse id="Ellipse_9589" class="st0" cx="6" cy="152.1" rx="1.9" ry="1.9"/>
			<path id="Path_13063" class="st0" d="M12,162.6c-0.5-6.1-3.5-7.4-3.5-7.4c-1.9-1-4.1-0.8-5.8,0.5c-1.9,1.8-2.4,4.4-2.7,7
				c-0.2,1.3,1.9,1.3,2.1,0c0.1-1.5,0.5-3,1.2-4.4v1.5l0,7.2v5.7c0,0.6,0.4,1.1,1,1.1c0,0,0,0,0,0c0.6,0,1.1-0.5,1.1-1.1v-8.1h1v8.2
				c0,0.6,0.5,1,1.1,1c0.5,0,1-0.4,1-1V167l0.1-7.2c0-0.7,0-1.3,0-1.7c0.7,1.4,1.2,3,1.3,4.5C10.1,163.9,12.1,163.9,12,162.6z"/>
		</g>
	</g>
	<g id="standing-frontal-man-silhouette-64" transform="translate(1522.701 1296.16)">
		<g id="Group_12568" transform="translate(0 0)">
			<ellipse id="Ellipse_9590" class="st0" cx="6" cy="152.1" rx="1.9" ry="1.9"/>
			<path id="Path_13064" class="st0" d="M12,162.6c-0.5-6.1-3.5-7.4-3.5-7.4c-1.9-1-4.1-0.8-5.8,0.5c-1.9,1.8-2.4,4.4-2.7,7
				c-0.2,1.3,1.9,1.3,2.1,0c0.1-1.5,0.5-3,1.2-4.4v1.5l0,7.2v5.7c0,0.6,0.4,1.1,1,1.1c0,0,0,0,0,0c0.6,0,1.1-0.5,1.1-1.1v-8.1h1v8.2
				c0,0.6,0.5,1,1.1,1c0.5,0,1-0.4,1-1V167l0.1-7.2c0-0.7,0-1.3,0-1.7c0.7,1.4,1.2,3,1.3,4.5C10.1,163.9,12.1,163.9,12,162.6z"/>
		</g>
	</g>
	<g id="standing-frontal-man-silhouette-65" transform="translate(1522.701 1346.545)">
		<g id="Group_12569" transform="translate(0 0)">
			<ellipse id="Ellipse_9591" class="st0" cx="6" cy="152.1" rx="1.9" ry="1.9"/>
			<path id="Path_13065" class="st0" d="M12,162.6c-0.5-6.1-3.5-7.4-3.5-7.4c-1.9-1-4.1-0.8-5.8,0.5c-1.9,1.8-2.4,4.4-2.7,7
				c-0.2,1.3,1.9,1.3,2.1,0c0.1-1.5,0.5-3,1.2-4.4v1.5l0,7.2v5.7c0,0.6,0.4,1.1,1,1.1c0,0,0,0,0,0c0.6,0,1.1-0.5,1.1-1.1v-8.1h1v8.2
				c0,0.6,0.5,1,1.1,1c0.5,0,1-0.4,1-1V167l0.1-7.2c0-0.7,0-1.3,0-1.7c0.7,1.4,1.2,3,1.3,4.5C10.1,163.9,12.1,163.9,12,162.6z"/>
		</g>
	</g>
	<g id="standing-frontal-man-silhouette-66" transform="translate(1523.309 1068.584)">
		<g id="Group_12570" transform="translate(0 0)">
			<ellipse id="Ellipse_9592" class="st0" cx="6" cy="152.1" rx="1.9" ry="1.9"/>
			<path id="Path_13066" class="st0" d="M12,162.6c-0.5-6.1-3.5-7.4-3.5-7.4c-1.9-1-4.1-0.8-5.8,0.5c-1.9,1.8-2.4,4.4-2.7,7
				c-0.2,1.3,1.9,1.3,2.1,0c0.1-1.5,0.5-3,1.2-4.4v1.5l0,7.2v5.7c0,0.6,0.4,1.1,1,1.1c0,0,0,0,0,0c0.6,0,1.1-0.5,1.1-1.1v-8.1h1v8.2
				c0,0.6,0.5,1,1.1,1c0.5,0,1-0.4,1-1V167l0.1-7.2c0-0.7,0-1.3,0-1.7c0.7,1.4,1.2,3,1.3,4.5C10.1,163.9,12.1,163.9,12,162.6z"/>
		</g>
	</g>
	<g id="standing-frontal-man-silhouette-67" transform="translate(1523.309 1118.968)">
		<g id="Group_12571" transform="translate(0 0)">
			<ellipse id="Ellipse_9593" class="st0" cx="6" cy="152.1" rx="1.9" ry="1.9"/>
			<path id="Path_13067" class="st0" d="M12,162.6c-0.5-6.1-3.5-7.4-3.5-7.4c-1.9-1-4.1-0.8-5.8,0.5c-1.9,1.8-2.4,4.4-2.7,7
				c-0.2,1.3,1.9,1.3,2.1,0c0.1-1.5,0.5-3,1.2-4.4v1.5l0,7.2v5.7c0,0.6,0.4,1.1,1,1.1c0,0,0,0,0,0c0.6,0,1.1-0.5,1.1-1.1v-8.1h1v8.2
				c0,0.6,0.5,1,1.1,1c0.5,0,1-0.4,1-1V167l0.1-7.2c0-0.7,0-1.3,0-1.7c0.7,1.4,1.2,3,1.3,4.5C10.1,163.9,12.1,163.9,12,162.6z"/>
		</g>
	</g>
	<g id="standing-frontal-man-silhouette-68" transform="translate(1523.309 1169.353)">
		<g id="Group_12572" transform="translate(0 0)">
			<ellipse id="Ellipse_9594" class="st0" cx="6" cy="152.1" rx="1.9" ry="1.9"/>
			<path id="Path_13068" class="st0" d="M12,162.6c-0.5-6.1-3.5-7.4-3.5-7.4c-1.9-1-4.1-0.8-5.8,0.5c-1.9,1.8-2.4,4.4-2.7,7
				c-0.2,1.3,1.9,1.3,2.1,0c0.1-1.5,0.5-3,1.2-4.4v1.5l0,7.2v5.7c0,0.6,0.4,1.1,1,1.1c0,0,0,0,0,0c0.6,0,1.1-0.5,1.1-1.1v-8.1h1v8.2
				c0,0.6,0.5,1,1.1,1c0.5,0,1-0.4,1-1V167l0.1-7.2c0-0.7,0-1.3,0-1.7c0.7,1.4,1.2,3,1.3,4.5C10.1,163.9,12.1,163.9,12,162.6z"/>
		</g>
	</g>
	<g id="standing-frontal-man-silhouette-69" transform="translate(1523.309 1093.776)">
		<g id="Group_12573" transform="translate(0 0)">
			<ellipse id="Ellipse_9595" class="st0" cx="6" cy="152.1" rx="1.9" ry="1.9"/>
			<path id="Path_13069" class="st0" d="M12,162.6c-0.5-6.1-3.5-7.4-3.5-7.4c-1.9-1-4.1-0.8-5.8,0.5c-1.9,1.8-2.4,4.4-2.7,7
				c-0.2,1.3,1.9,1.3,2.1,0c0.1-1.5,0.5-3,1.2-4.4v1.5l0,7.2v5.7c0,0.6,0.4,1.1,1,1.1c0,0,0,0,0,0c0.6,0,1.1-0.5,1.1-1.1v-8.1h1v8.2
				c0,0.6,0.5,1,1.1,1c0.5,0,1-0.4,1-1V167l0.1-7.2c0-0.7,0-1.3,0-1.7c0.7,1.4,1.2,3,1.3,4.5C10.1,163.9,12.1,163.9,12,162.6z"/>
		</g>
	</g>
	<g id="standing-frontal-man-silhouette-70" transform="translate(1523.309 1144.16)">
		<g id="Group_12574" transform="translate(0 0)">
			<ellipse id="Ellipse_9596" class="st0" cx="6" cy="152.1" rx="1.9" ry="1.9"/>
			<path id="Path_13070" class="st0" d="M12,162.6c-0.5-6.1-3.5-7.4-3.5-7.4c-1.9-1-4.1-0.8-5.8,0.5c-1.9,1.8-2.4,4.4-2.7,7
				c-0.2,1.3,1.9,1.3,2.1,0c0.1-1.5,0.5-3,1.2-4.4v1.5l0,7.2v5.7c0,0.6,0.4,1.1,1,1.1c0,0,0,0,0,0c0.6,0,1.1-0.5,1.1-1.1v-8.1h1v8.2
				c0,0.6,0.5,1,1.1,1c0.5,0,1-0.4,1-1V167l0.1-7.2c0-0.7,0-1.3,0-1.7c0.7,1.4,1.2,3,1.3,4.5C10.1,163.9,12.1,163.9,12,162.6z"/>
		</g>
	</g>
	<g id="standing-frontal-man-silhouette-71" transform="translate(1523.309 1194.545)">
		<g id="Group_12575" transform="translate(0 0)">
			<ellipse id="Ellipse_9597" class="st0" cx="6" cy="152.1" rx="1.9" ry="1.9"/>
			<path id="Path_13071" class="st0" d="M12,162.6c-0.5-6.1-3.5-7.4-3.5-7.4c-1.9-1-4.1-0.8-5.8,0.5c-1.9,1.8-2.4,4.4-2.7,7
				c-0.2,1.3,1.9,1.3,2.1,0c0.1-1.5,0.5-3,1.2-4.4v1.5l0,7.2v5.7c0,0.6,0.4,1.1,1,1.1c0,0,0,0,0,0c0.6,0,1.1-0.5,1.1-1.1v-8.1h1v8.2
				c0,0.6,0.5,1,1.1,1c0.5,0,1-0.4,1-1V167l0.1-7.2c0-0.7,0-1.3,0-1.7c0.7,1.4,1.2,3,1.3,4.5C10.1,163.9,12.1,163.9,12,162.6z"/>
		</g>
	</g>
	<g id="standing-frontal-man-silhouette-72" transform="translate(1577.505 1220.584)">
		<g id="Group_12576" transform="translate(0 0)">
			<ellipse id="Ellipse_9598" class="st0" cx="6" cy="152.1" rx="1.9" ry="1.9"/>
			<path id="Path_13072" class="st0" d="M12,162.6c-0.5-6.1-3.5-7.4-3.5-7.4c-1.9-1-4.1-0.8-5.8,0.5c-1.9,1.8-2.4,4.4-2.7,7
				c-0.2,1.3,1.9,1.3,2.1,0c0.1-1.5,0.5-3,1.2-4.4v1.5l0,7.2v5.7c0,0.6,0.4,1.1,1,1.1c0,0,0,0,0,0c0.6,0,1.1-0.5,1.1-1.1v-8.1h1v8.2
				c0,0.6,0.5,1,1.1,1c0.5,0,1-0.4,1-1V167l0.1-7.2c0-0.7,0-1.3,0-1.7c0.7,1.4,1.2,3,1.3,4.5C10.1,163.9,12.1,163.9,12,162.6z"/>
		</g>
	</g>
	<g id="standing-frontal-man-silhouette-73" transform="translate(1577.505 1270.968)">
		<g id="Group_12577" transform="translate(0 0)">
			<ellipse id="Ellipse_9599" class="st0" cx="6" cy="152.1" rx="1.9" ry="1.9"/>
			<path id="Path_13073" class="st0" d="M12,162.6c-0.5-6.1-3.5-7.4-3.5-7.4c-1.9-1-4.1-0.8-5.8,0.5c-1.9,1.8-2.4,4.4-2.7,7
				c-0.2,1.3,1.9,1.3,2.1,0c0.1-1.5,0.5-3,1.2-4.4v1.5l0,7.2v5.7c0,0.6,0.4,1.1,1,1.1c0,0,0,0,0,0c0.6,0,1.1-0.5,1.1-1.1v-8.1h1v8.2
				c0,0.6,0.5,1,1.1,1c0.5,0,1-0.4,1-1V167l0.1-7.2c0-0.7,0-1.3,0-1.7c0.7,1.4,1.2,3,1.3,4.5C10.1,163.9,12.1,163.9,12,162.6z"/>
		</g>
	</g>
	<g id="standing-frontal-man-silhouette-74" transform="translate(1577.505 1321.353)">
		<g id="Group_12578" transform="translate(0 0)">
			<ellipse id="Ellipse_9600" class="st0" cx="6" cy="152.1" rx="1.9" ry="1.9"/>
			<path id="Path_13074" class="st0" d="M12,162.6c-0.5-6.1-3.5-7.4-3.5-7.4c-1.9-1-4.1-0.8-5.8,0.5c-1.9,1.8-2.4,4.4-2.7,7
				c-0.2,1.3,1.9,1.3,2.1,0c0.1-1.5,0.5-3,1.2-4.4v1.5l0,7.2v5.7c0,0.6,0.4,1.1,1,1.1c0,0,0,0,0,0c0.6,0,1.1-0.5,1.1-1.1v-8.1h1v8.2
				c0,0.6,0.5,1,1.1,1c0.5,0,1-0.4,1-1V167l0.1-7.2c0-0.7,0-1.3,0-1.7c0.7,1.4,1.2,3,1.3,4.5C10.1,163.9,12.1,163.9,12,162.6z"/>
		</g>
	</g>
	<g id="standing-frontal-man-silhouette-75" transform="translate(1577.505 1245.776)">
		<g id="Group_12579" transform="translate(0 0)">
			<ellipse id="Ellipse_9601" class="st0" cx="6" cy="152.1" rx="1.9" ry="1.9"/>
			<path id="Path_13075" class="st0" d="M12,162.6c-0.5-6.1-3.5-7.4-3.5-7.4c-1.9-1-4.1-0.8-5.8,0.5c-1.9,1.8-2.4,4.4-2.7,7
				c-0.2,1.3,1.9,1.3,2.1,0c0.1-1.5,0.5-3,1.2-4.4v1.5l0,7.2v5.7c0,0.6,0.4,1.1,1,1.1c0,0,0,0,0,0c0.6,0,1.1-0.5,1.1-1.1v-8.1h1v8.2
				c0,0.6,0.5,1,1.1,1c0.5,0,1-0.4,1-1V167l0.1-7.2c0-0.7,0-1.3,0-1.7c0.7,1.4,1.2,3,1.3,4.5C10.1,163.9,12.1,163.9,12,162.6z"/>
		</g>
	</g>
	<g id="standing-frontal-man-silhouette-76" transform="translate(1577.505 1296.16)">
		<g id="Group_12580" transform="translate(0 0)">
			<ellipse id="Ellipse_9602" class="st0" cx="6" cy="152.1" rx="1.9" ry="1.9"/>
			<path id="Path_13076" class="st0" d="M12,162.6c-0.5-6.1-3.5-7.4-3.5-7.4c-1.9-1-4.1-0.8-5.8,0.5c-1.9,1.8-2.4,4.4-2.7,7
				c-0.2,1.3,1.9,1.3,2.1,0c0.1-1.5,0.5-3,1.2-4.4v1.5l0,7.2v5.7c0,0.6,0.4,1.1,1,1.1c0,0,0,0,0,0c0.6,0,1.1-0.5,1.1-1.1v-8.1h1v8.2
				c0,0.6,0.5,1,1.1,1c0.5,0,1-0.4,1-1V167l0.1-7.2c0-0.7,0-1.3,0-1.7c0.7,1.4,1.2,3,1.3,4.5C10.1,163.9,12.1,163.9,12,162.6z"/>
		</g>
	</g>
	<g id="standing-frontal-man-silhouette-77" transform="translate(1577.505 1346.545)">
		<g id="Group_12581" transform="translate(0 0)">
			<ellipse id="Ellipse_9603" class="st0" cx="6" cy="152.1" rx="1.9" ry="1.9"/>
			<path id="Path_13077" class="st0" d="M12,162.6c-0.5-6.1-3.5-7.4-3.5-7.4c-1.9-1-4.1-0.8-5.8,0.5c-1.9,1.8-2.4,4.4-2.7,7
				c-0.2,1.3,1.9,1.3,2.1,0c0.1-1.5,0.5-3,1.2-4.4v1.5l0,7.2v5.7c0,0.6,0.4,1.1,1,1.1c0,0,0,0,0,0c0.6,0,1.1-0.5,1.1-1.1v-8.1h1v8.2
				c0,0.6,0.5,1,1.1,1c0.5,0,1-0.4,1-1V167l0.1-7.2c0-0.7,0-1.3,0-1.7c0.7,1.4,1.2,3,1.3,4.5C10.1,163.9,12.1,163.9,12,162.6z"/>
		</g>
	</g>
	<g id="standing-frontal-man-silhouette-78" transform="translate(1578.112 1068.584)">
		<g id="Group_12582" transform="translate(0 0)">
			<ellipse id="Ellipse_9604" class="st0" cx="6" cy="152.1" rx="1.9" ry="1.9"/>
			<path id="Path_13078" class="st0" d="M12,162.6c-0.5-6.1-3.5-7.4-3.5-7.4c-1.9-1-4.1-0.8-5.8,0.5c-1.9,1.8-2.4,4.4-2.7,7
				c-0.2,1.3,1.9,1.3,2.1,0c0.1-1.5,0.5-3,1.2-4.4v1.5l0,7.2v5.7c0,0.6,0.4,1.1,1,1.1c0,0,0,0,0,0c0.6,0,1.1-0.5,1.1-1.1v-8.1h1v8.2
				c0,0.6,0.5,1,1.1,1c0.5,0,1-0.4,1-1V167l0.1-7.2c0-0.7,0-1.3,0-1.7c0.7,1.4,1.2,3,1.3,4.5C10.1,163.9,12.1,163.9,12,162.6z"/>
		</g>
	</g>
	<g id="standing-frontal-man-silhouette-79" transform="translate(1578.112 1118.968)">
		<g id="Group_12583" transform="translate(0 0)">
			<ellipse id="Ellipse_9605" class="st0" cx="6" cy="152.1" rx="1.9" ry="1.9"/>
			<path id="Path_13079" class="st0" d="M12,162.6c-0.5-6.1-3.5-7.4-3.5-7.4c-1.9-1-4.1-0.8-5.8,0.5c-1.9,1.8-2.4,4.4-2.7,7
				c-0.2,1.3,1.9,1.3,2.1,0c0.1-1.5,0.5-3,1.2-4.4v1.5l0,7.2v5.7c0,0.6,0.4,1.1,1,1.1c0,0,0,0,0,0c0.6,0,1.1-0.5,1.1-1.1v-8.1h1v8.2
				c0,0.6,0.5,1,1.1,1c0.5,0,1-0.4,1-1V167l0.1-7.2c0-0.7,0-1.3,0-1.7c0.7,1.4,1.2,3,1.3,4.5C10.1,163.9,12.1,163.9,12,162.6z"/>
		</g>
	</g>
	<g id="standing-frontal-man-silhouette-80" transform="translate(1578.112 1169.353)">
		<g id="Group_12584" transform="translate(0 0)">
			<ellipse id="Ellipse_9606" class="st0" cx="6" cy="152.1" rx="1.9" ry="1.9"/>
			<path id="Path_13080" class="st0" d="M12,162.6c-0.5-6.1-3.5-7.4-3.5-7.4c-1.9-1-4.1-0.8-5.8,0.5c-1.9,1.8-2.4,4.4-2.7,7
				c-0.2,1.3,1.9,1.3,2.1,0c0.1-1.5,0.5-3,1.2-4.4v1.5l0,7.2v5.7c0,0.6,0.4,1.1,1,1.1c0,0,0,0,0,0c0.6,0,1.1-0.5,1.1-1.1v-8.1h1v8.2
				c0,0.6,0.5,1,1.1,1c0.5,0,1-0.4,1-1V167l0.1-7.2c0-0.7,0-1.3,0-1.7c0.7,1.4,1.2,3,1.3,4.5C10.1,163.9,12.1,163.9,12,162.6z"/>
		</g>
	</g>
	<g id="standing-frontal-man-silhouette-81" transform="translate(1578.112 1093.776)">
		<g id="Group_12585" transform="translate(0 0)">
			<ellipse id="Ellipse_9607" class="st0" cx="6" cy="152.1" rx="1.9" ry="1.9"/>
			<path id="Path_13081" class="st0" d="M12,162.6c-0.5-6.1-3.5-7.4-3.5-7.4c-1.9-1-4.1-0.8-5.8,0.5c-1.9,1.8-2.4,4.4-2.7,7
				c-0.2,1.3,1.9,1.3,2.1,0c0.1-1.5,0.5-3,1.2-4.4v1.5l0,7.2v5.7c0,0.6,0.4,1.1,1,1.1c0,0,0,0,0,0c0.6,0,1.1-0.5,1.1-1.1v-8.1h1v8.2
				c0,0.6,0.5,1,1.1,1c0.5,0,1-0.4,1-1V167l0.1-7.2c0-0.7,0-1.3,0-1.7c0.7,1.4,1.2,3,1.3,4.5C10.1,163.9,12.1,163.9,12,162.6z"/>
		</g>
	</g>
	<g id="standing-frontal-man-silhouette-82" transform="translate(1578.112 1144.16)">
		<g id="Group_12586" transform="translate(0 0)">
			<ellipse id="Ellipse_9608" class="st0" cx="6" cy="152.1" rx="1.9" ry="1.9"/>
			<path id="Path_13082" class="st0" d="M12,162.6c-0.5-6.1-3.5-7.4-3.5-7.4c-1.9-1-4.1-0.8-5.8,0.5c-1.9,1.8-2.4,4.4-2.7,7
				c-0.2,1.3,1.9,1.3,2.1,0c0.1-1.5,0.5-3,1.2-4.4v1.5l0,7.2v5.7c0,0.6,0.4,1.1,1,1.1c0,0,0,0,0,0c0.6,0,1.1-0.5,1.1-1.1v-8.1h1v8.2
				c0,0.6,0.5,1,1.1,1c0.5,0,1-0.4,1-1V167l0.1-7.2c0-0.7,0-1.3,0-1.7c0.7,1.4,1.2,3,1.3,4.5C10.1,163.9,12.1,163.9,12,162.6z"/>
		</g>
	</g>
	<g id="standing-frontal-man-silhouette-83" transform="translate(1578.112 1194.545)">
		<g id="Group_12587" transform="translate(0 0)">
			<ellipse id="Ellipse_9609" class="st0" cx="6" cy="152.1" rx="1.9" ry="1.9"/>
			<path id="Path_13083" class="st0" d="M12,162.6c-0.5-6.1-3.5-7.4-3.5-7.4c-1.9-1-4.1-0.8-5.8,0.5c-1.9,1.8-2.4,4.4-2.7,7
				c-0.2,1.3,1.9,1.3,2.1,0c0.1-1.5,0.5-3,1.2-4.4v1.5l0,7.2v5.7c0,0.6,0.4,1.1,1,1.1c0,0,0,0,0,0c0.6,0,1.1-0.5,1.1-1.1v-8.1h1v8.2
				c0,0.6,0.5,1,1.1,1c0.5,0,1-0.4,1-1V167l0.1-7.2c0-0.7,0-1.3,0-1.7c0.7,1.4,1.2,3,1.3,4.5C10.1,163.9,12.1,163.9,12,162.6z"/>
		</g>
	</g>
	<g id="standing-frontal-man-silhouette-84" transform="translate(1577.916 1042.968)">
		<g id="Group_12588" transform="translate(0 0)">
			<ellipse id="Ellipse_9610" class="st0" cx="6" cy="152.1" rx="1.9" ry="1.9"/>
			<path id="Path_13084" class="st0" d="M12,162.6c-0.5-6.1-3.5-7.4-3.5-7.4c-1.9-1-4.1-0.8-5.8,0.5c-1.9,1.8-2.4,4.4-2.7,7
				c-0.2,1.3,1.9,1.3,2.1,0c0.1-1.5,0.5-3,1.2-4.4v1.5l0,7.2v5.7c0,0.6,0.4,1.1,1,1.1c0,0,0,0,0,0c0.6,0,1.1-0.5,1.1-1.1v-8.1h1v8.2
				c0,0.6,0.5,1,1.1,1c0.5,0,1-0.4,1-1V167l0.1-7.2c0-0.7,0-1.3,0-1.7c0.7,1.4,1.2,3,1.3,4.5C10.1,163.9,12.1,163.9,12,162.6z"/>
		</g>
	</g>
	<g id="standing-frontal-man-silhouette-85" transform="translate(1522.916 1017.353)">
		<g id="Group_12589" transform="translate(0 0)">
			<ellipse id="Ellipse_9611" class="st0" cx="6" cy="152.1" rx="1.9" ry="1.9"/>
			<path id="Path_13085" class="st0" d="M12,162.6c-0.5-6.1-3.5-7.4-3.5-7.4c-1.9-1-4.1-0.8-5.8,0.5c-1.9,1.8-2.4,4.4-2.7,7
				c-0.2,1.3,1.9,1.3,2.1,0c0.1-1.5,0.5-3,1.2-4.4v1.5l0,7.2v5.7c0,0.6,0.4,1.1,1,1.1c0,0,0,0,0,0c0.6,0,1.1-0.5,1.1-1.1v-8.1h1v8.2
				c0,0.6,0.5,1,1.1,1c0.5,0,1-0.4,1-1V167l0.1-7.2c0-0.7,0-1.3,0-1.7c0.7,1.4,1.2,3,1.3,4.5C10.1,163.9,12.1,163.9,12,162.6z"/>
		</g>
	</g>
	<g id="standing-frontal-man-silhouette-86" transform="translate(1577.916 1017.776)">
		<g id="Group_12590" transform="translate(0 0)">
			<ellipse id="Ellipse_9612" class="st0" cx="6" cy="152.1" rx="1.9" ry="1.9"/>
			<path id="Path_13086" class="st0" d="M12,162.6c-0.5-6.1-3.5-7.4-3.5-7.4c-1.9-1-4.1-0.8-5.8,0.5c-1.9,1.8-2.4,4.4-2.7,7
				c-0.2,1.3,1.9,1.3,2.1,0c0.1-1.5,0.5-3,1.2-4.4v1.5l0,7.2v5.7c0,0.6,0.4,1.1,1,1.1c0,0,0,0,0,0c0.6,0,1.1-0.5,1.1-1.1v-8.1h1v8.2
				c0,0.6,0.5,1,1.1,1c0.5,0,1-0.4,1-1V167l0.1-7.2c0-0.7,0-1.3,0-1.7c0.7,1.4,1.2,3,1.3,4.5C10.1,163.9,12.1,163.9,12,162.6z"/>
		</g>
	</g>
	<g id="standing-frontal-man-silhouette-87" transform="translate(1522.916 992.16)">
		<g id="Group_12591" transform="translate(0 0)">
			<ellipse id="Ellipse_9613" class="st0" cx="6" cy="152.1" rx="1.9" ry="1.9"/>
			<path id="Path_13087" class="st0" d="M12,162.6c-0.5-6.1-3.5-7.4-3.5-7.4c-1.9-1-4.1-0.8-5.8,0.5c-1.9,1.8-2.4,4.4-2.7,7
				c-0.2,1.3,1.9,1.3,2.1,0c0.1-1.5,0.5-3,1.2-4.4v1.5l0,7.2v5.7c0,0.6,0.4,1.1,1,1.1c0,0,0,0,0,0c0.6,0,1.1-0.5,1.1-1.1v-8.1h1v8.2
				c0,0.6,0.5,1,1.1,1c0.5,0,1-0.4,1-1V167l0.1-7.2c0-0.7,0-1.3,0-1.7c0.7,1.4,1.2,3,1.3,4.5C10.1,163.9,12.1,163.9,12,162.6z"/>
		</g>
	</g>
	<g id="standing-frontal-man-silhouette-88" transform="translate(1522.916 1042.545)">
		<g id="Group_12592" transform="translate(0 0)">
			<ellipse id="Ellipse_9614" class="st0" cx="6" cy="152.1" rx="1.9" ry="1.9"/>
			<path id="Path_13088" class="st0" d="M12,162.6c-0.5-6.1-3.5-7.4-3.5-7.4c-1.9-1-4.1-0.8-5.8,0.5c-1.9,1.8-2.4,4.4-2.7,7
				c-0.2,1.3,1.9,1.3,2.1,0c0.1-1.5,0.5-3,1.2-4.4v1.5l0,7.2v5.7c0,0.6,0.4,1.1,1,1.1c0,0,0,0,0,0c0.6,0,1.1-0.5,1.1-1.1v-8.1h1v8.2
				c0,0.6,0.5,1,1.1,1c0.5,0,1-0.4,1-1V167l0.1-7.2c0-0.7,0-1.3,0-1.7c0.7,1.4,1.2,3,1.3,4.5C10.1,163.9,12.1,163.9,12,162.6z"/>
		</g>
	</g>
	<g id="standing-frontal-man-silhouette-89" transform="translate(1550.103 1220.584)">
		<g id="Group_12593" transform="translate(0 0)">
			<ellipse id="Ellipse_9615" class="st0" cx="6" cy="152.1" rx="1.9" ry="1.9"/>
			<path id="Path_13089" class="st0" d="M12,162.6c-0.5-6.1-3.5-7.4-3.5-7.4c-1.9-1-4.1-0.8-5.8,0.5c-1.9,1.8-2.4,4.4-2.7,7
				c-0.2,1.3,1.9,1.3,2.1,0c0.1-1.5,0.5-3,1.2-4.4v1.5l0,7.2v5.7c0,0.6,0.4,1.1,1,1.1c0,0,0,0,0,0c0.6,0,1.1-0.5,1.1-1.1v-8.1h1v8.2
				c0,0.6,0.5,1,1.1,1c0.5,0,1-0.4,1-1V167l0.1-7.2c0-0.7,0-1.3,0-1.7c0.7,1.4,1.2,3,1.3,4.5C10.1,163.9,12.1,163.9,12,162.6z"/>
		</g>
	</g>
	<g id="standing-frontal-man-silhouette-90" transform="translate(1550.103 1270.968)">
		<g id="Group_12594" transform="translate(0 0)">
			<ellipse id="Ellipse_9616" class="st0" cx="6" cy="152.1" rx="1.9" ry="1.9"/>
			<path id="Path_13090" class="st0" d="M12,162.6c-0.5-6.1-3.5-7.4-3.5-7.4c-1.9-1-4.1-0.8-5.8,0.5c-1.9,1.8-2.4,4.4-2.7,7
				c-0.2,1.3,1.9,1.3,2.1,0c0.1-1.5,0.5-3,1.2-4.4v1.5l0,7.2v5.7c0,0.6,0.4,1.1,1,1.1c0,0,0,0,0,0c0.6,0,1.1-0.5,1.1-1.1v-8.1h1v8.2
				c0,0.6,0.5,1,1.1,1c0.5,0,1-0.4,1-1V167l0.1-7.2c0-0.7,0-1.3,0-1.7c0.7,1.4,1.2,3,1.3,4.5C10.1,163.9,12.1,163.9,12,162.6z"/>
		</g>
	</g>
	<g id="standing-frontal-man-silhouette-91" transform="translate(1550.103 1321.353)">
		<g id="Group_12595" transform="translate(0 0)">
			<ellipse id="Ellipse_9617" class="st0" cx="6" cy="152.1" rx="1.9" ry="1.9"/>
			<path id="Path_13091" class="st0" d="M12,162.6c-0.5-6.1-3.5-7.4-3.5-7.4c-1.9-1-4.1-0.8-5.8,0.5c-1.9,1.8-2.4,4.4-2.7,7
				c-0.2,1.3,1.9,1.3,2.1,0c0.1-1.5,0.5-3,1.2-4.4v1.5l0,7.2v5.7c0,0.6,0.4,1.1,1,1.1c0,0,0,0,0,0c0.6,0,1.1-0.5,1.1-1.1v-8.1h1v8.2
				c0,0.6,0.5,1,1.1,1c0.5,0,1-0.4,1-1V167l0.1-7.2c0-0.7,0-1.3,0-1.7c0.7,1.4,1.2,3,1.3,4.5C10.1,163.9,12.1,163.9,12,162.6z"/>
		</g>
	</g>
	<g id="standing-frontal-man-silhouette-92" transform="translate(1550.103 1245.776)">
		<g id="Group_12596" transform="translate(0 0)">
			<ellipse id="Ellipse_9618" class="st0" cx="6" cy="152.1" rx="1.9" ry="1.9"/>
			<path id="Path_13092" class="st0" d="M12,162.6c-0.5-6.1-3.5-7.4-3.5-7.4c-1.9-1-4.1-0.8-5.8,0.5c-1.9,1.8-2.4,4.4-2.7,7
				c-0.2,1.3,1.9,1.3,2.1,0c0.1-1.5,0.5-3,1.2-4.4v1.5l0,7.2v5.7c0,0.6,0.4,1.1,1,1.1c0,0,0,0,0,0c0.6,0,1.1-0.5,1.1-1.1v-8.1h1v8.2
				c0,0.6,0.5,1,1.1,1c0.5,0,1-0.4,1-1V167l0.1-7.2c0-0.7,0-1.3,0-1.7c0.7,1.4,1.2,3,1.3,4.5C10.1,163.9,12.1,163.9,12,162.6z"/>
		</g>
	</g>
	<g id="standing-frontal-man-silhouette-93" transform="translate(1550.103 1296.16)">
		<g id="Group_12597" transform="translate(0 0)">
			<ellipse id="Ellipse_9619" class="st0" cx="6" cy="152.1" rx="1.9" ry="1.9"/>
			<path id="Path_13093" class="st0" d="M12,162.6c-0.5-6.1-3.5-7.4-3.5-7.4c-1.9-1-4.1-0.8-5.8,0.5c-1.9,1.8-2.4,4.4-2.7,7
				c-0.2,1.3,1.9,1.3,2.1,0c0.1-1.5,0.5-3,1.2-4.4v1.5l0,7.2v5.7c0,0.6,0.4,1.1,1,1.1c0,0,0,0,0,0c0.6,0,1.1-0.5,1.1-1.1v-8.1h1v8.2
				c0,0.6,0.5,1,1.1,1c0.5,0,1-0.4,1-1V167l0.1-7.2c0-0.7,0-1.3,0-1.7c0.7,1.4,1.2,3,1.3,4.5C10.1,163.9,12.1,163.9,12,162.6z"/>
		</g>
	</g>
	<g id="standing-frontal-man-silhouette-94" transform="translate(1550.103 1346.545)">
		<g id="Group_12598" transform="translate(0 0)">
			<ellipse id="Ellipse_9620" class="st0" cx="6" cy="152.1" rx="1.9" ry="1.9"/>
			<path id="Path_13094" class="st0" d="M12,162.6c-0.5-6.1-3.5-7.4-3.5-7.4c-1.9-1-4.1-0.8-5.8,0.5c-1.9,1.8-2.4,4.4-2.7,7
				c-0.2,1.3,1.9,1.3,2.1,0c0.1-1.5,0.5-3,1.2-4.4v1.5l0,7.2v5.7c0,0.6,0.4,1.1,1,1.1c0,0,0,0,0,0c0.6,0,1.1-0.5,1.1-1.1v-8.1h1v8.2
				c0,0.6,0.5,1,1.1,1c0.5,0,1-0.4,1-1V167l0.1-7.2c0-0.7,0-1.3,0-1.7c0.7,1.4,1.2,3,1.3,4.5C10.1,163.9,12.1,163.9,12,162.6z"/>
		</g>
	</g>
	<g id="standing-frontal-man-silhouette-95" transform="translate(1550.711 1068.584)">
		<g id="Group_12599" transform="translate(0 0)">
			<ellipse id="Ellipse_9621" class="st0" cx="6" cy="152.1" rx="1.9" ry="1.9"/>
			<path id="Path_13095" class="st0" d="M12,162.6c-0.5-6.1-3.5-7.4-3.5-7.4c-1.9-1-4.1-0.8-5.8,0.5c-1.9,1.8-2.4,4.4-2.7,7
				c-0.2,1.3,1.9,1.3,2.1,0c0.1-1.5,0.5-3,1.2-4.4v1.5l0,7.2v5.7c0,0.6,0.4,1.1,1,1.1c0,0,0,0,0,0c0.6,0,1.1-0.5,1.1-1.1v-8.1h1v8.2
				c0,0.6,0.5,1,1.1,1c0.5,0,1-0.4,1-1V167l0.1-7.2c0-0.7,0-1.3,0-1.7c0.7,1.4,1.2,3,1.3,4.5C10.1,163.9,12.1,163.9,12,162.6z"/>
		</g>
	</g>
	<g id="standing-frontal-man-silhouette-96" transform="translate(1550.711 1118.968)">
		<g id="Group_12600" transform="translate(0 0)">
			<ellipse id="Ellipse_9622" class="st0" cx="6" cy="152.1" rx="1.9" ry="1.9"/>
			<path id="Path_13096" class="st0" d="M12,162.6c-0.5-6.1-3.5-7.4-3.5-7.4c-1.9-1-4.1-0.8-5.8,0.5c-1.9,1.8-2.4,4.4-2.7,7
				c-0.2,1.3,1.9,1.3,2.1,0c0.1-1.5,0.5-3,1.2-4.4v1.5l0,7.2v5.7c0,0.6,0.4,1.1,1,1.1c0,0,0,0,0,0c0.6,0,1.1-0.5,1.1-1.1v-8.1h1v8.2
				c0,0.6,0.5,1,1.1,1c0.5,0,1-0.4,1-1V167l0.1-7.2c0-0.7,0-1.3,0-1.7c0.7,1.4,1.2,3,1.3,4.5C10.1,163.9,12.1,163.9,12,162.6z"/>
		</g>
	</g>
	<g id="standing-frontal-man-silhouette-97" transform="translate(1550.711 1169.353)">
		<g id="Group_12601" transform="translate(0 0)">
			<ellipse id="Ellipse_9623" class="st0" cx="6" cy="152.1" rx="1.9" ry="1.9"/>
			<path id="Path_13097" class="st0" d="M12,162.6c-0.5-6.1-3.5-7.4-3.5-7.4c-1.9-1-4.1-0.8-5.8,0.5c-1.9,1.8-2.4,4.4-2.7,7
				c-0.2,1.3,1.9,1.3,2.1,0c0.1-1.5,0.5-3,1.2-4.4v1.5l0,7.2v5.7c0,0.6,0.4,1.1,1,1.1c0,0,0,0,0,0c0.6,0,1.1-0.5,1.1-1.1v-8.1h1v8.2
				c0,0.6,0.5,1,1.1,1c0.5,0,1-0.4,1-1V167l0.1-7.2c0-0.7,0-1.3,0-1.7c0.7,1.4,1.2,3,1.3,4.5C10.1,163.9,12.1,163.9,12,162.6z"/>
		</g>
	</g>
	<g id="standing-frontal-man-silhouette-98" transform="translate(1550.711 1093.776)">
		<g id="Group_12602" transform="translate(0 0)">
			<ellipse id="Ellipse_9624" class="st0" cx="6" cy="152.1" rx="1.9" ry="1.9"/>
			<path id="Path_13098" class="st0" d="M12,162.6c-0.5-6.1-3.5-7.4-3.5-7.4c-1.9-1-4.1-0.8-5.8,0.5c-1.9,1.8-2.4,4.4-2.7,7
				c-0.2,1.3,1.9,1.3,2.1,0c0.1-1.5,0.5-3,1.2-4.4v1.5l0,7.2v5.7c0,0.6,0.4,1.1,1,1.1c0,0,0,0,0,0c0.6,0,1.1-0.5,1.1-1.1v-8.1h1v8.2
				c0,0.6,0.5,1,1.1,1c0.5,0,1-0.4,1-1V167l0.1-7.2c0-0.7,0-1.3,0-1.7c0.7,1.4,1.2,3,1.3,4.5C10.1,163.9,12.1,163.9,12,162.6z"/>
		</g>
	</g>
	<g id="standing-frontal-man-silhouette-99" transform="translate(1550.711 1144.16)">
		<g id="Group_12603" transform="translate(0 0)">
			<ellipse id="Ellipse_9625" class="st0" cx="6" cy="152.1" rx="1.9" ry="1.9"/>
			<path id="Path_13099" class="st0" d="M12,162.6c-0.5-6.1-3.5-7.4-3.5-7.4c-1.9-1-4.1-0.8-5.8,0.5c-1.9,1.8-2.4,4.4-2.7,7
				c-0.2,1.3,1.9,1.3,2.1,0c0.1-1.5,0.5-3,1.2-4.4v1.5l0,7.2v5.7c0,0.6,0.4,1.1,1,1.1c0,0,0,0,0,0c0.6,0,1.1-0.5,1.1-1.1v-8.1h1v8.2
				c0,0.6,0.5,1,1.1,1c0.5,0,1-0.4,1-1V167l0.1-7.2c0-0.7,0-1.3,0-1.7c0.7,1.4,1.2,3,1.3,4.5C10.1,163.9,12.1,163.9,12,162.6z"/>
		</g>
	</g>
	<g id="standing-frontal-man-silhouette-100" transform="translate(1550.711 1194.545)">
		<g id="Group_12604" transform="translate(0 0)">
			<ellipse id="Ellipse_9626" class="st0" cx="6" cy="152.1" rx="1.9" ry="1.9"/>
			<path id="Path_13100" class="st0" d="M12,162.6c-0.5-6.1-3.5-7.4-3.5-7.4c-1.9-1-4.1-0.8-5.8,0.5c-1.9,1.8-2.4,4.4-2.7,7
				c-0.2,1.3,1.9,1.3,2.1,0c0.1-1.5,0.5-3,1.2-4.4v1.5l0,7.2v5.7c0,0.6,0.4,1.1,1,1.1c0,0,0,0,0,0c0.6,0,1.1-0.5,1.1-1.1v-8.1h1v8.2
				c0,0.6,0.5,1,1.1,1c0.5,0,1-0.4,1-1V167l0.1-7.2c0-0.7,0-1.3,0-1.7c0.7,1.4,1.2,3,1.3,4.5C10.1,163.9,12.1,163.9,12,162.6z"/>
		</g>
	</g>
	<g id="standing-frontal-man-silhouette-101" transform="translate(1604.906 1220.584)">
		<g id="Group_12605" transform="translate(0 0)">
			<ellipse id="Ellipse_9627" class="st0" cx="6" cy="152.1" rx="1.9" ry="1.9"/>
			<path id="Path_13101" class="st0" d="M12,162.6c-0.5-6.1-3.5-7.4-3.5-7.4c-1.9-1-4.1-0.8-5.8,0.5c-1.9,1.8-2.4,4.4-2.7,7
				c-0.2,1.3,1.9,1.3,2.1,0c0.1-1.5,0.5-3,1.2-4.4v1.5l0,7.2v5.7c0,0.6,0.4,1.1,1,1.1c0,0,0,0,0,0c0.6,0,1.1-0.5,1.1-1.1v-8.1h1v8.2
				c0,0.6,0.5,1,1.1,1c0.5,0,1-0.4,1-1V167l0.1-7.2c0-0.7,0-1.3,0-1.7c0.7,1.4,1.2,3,1.3,4.5C10.1,163.9,12.1,163.9,12,162.6z"/>
		</g>
	</g>
	<g id="standing-frontal-man-silhouette-102" transform="translate(1604.906 1270.968)">
		<g id="Group_12606" transform="translate(0 0)">
			<ellipse id="Ellipse_9628" class="st0" cx="6" cy="152.1" rx="1.9" ry="1.9"/>
			<path id="Path_13102" class="st0" d="M12,162.6c-0.5-6.1-3.5-7.4-3.5-7.4c-1.9-1-4.1-0.8-5.8,0.5c-1.9,1.8-2.4,4.4-2.7,7
				c-0.2,1.3,1.9,1.3,2.1,0c0.1-1.5,0.5-3,1.2-4.4v1.5l0,7.2v5.7c0,0.6,0.4,1.1,1,1.1c0,0,0,0,0,0c0.6,0,1.1-0.5,1.1-1.1v-8.1h1v8.2
				c0,0.6,0.5,1,1.1,1c0.5,0,1-0.4,1-1V167l0.1-7.2c0-0.7,0-1.3,0-1.7c0.7,1.4,1.2,3,1.3,4.5C10.1,163.9,12.1,163.9,12,162.6z"/>
		</g>
	</g>
	<g id="standing-frontal-man-silhouette-103" transform="translate(1604.906 1321.353)">
		<g id="Group_12607" transform="translate(0 0)">
			<ellipse id="Ellipse_9629" class="st0" cx="6" cy="152.1" rx="1.9" ry="1.9"/>
			<path id="Path_13103" class="st0" d="M12,162.6c-0.5-6.1-3.5-7.4-3.5-7.4c-1.9-1-4.1-0.8-5.8,0.5c-1.9,1.8-2.4,4.4-2.7,7
				c-0.2,1.3,1.9,1.3,2.1,0c0.1-1.5,0.5-3,1.2-4.4v1.5l0,7.2v5.7c0,0.6,0.4,1.1,1,1.1c0,0,0,0,0,0c0.6,0,1.1-0.5,1.1-1.1v-8.1h1v8.2
				c0,0.6,0.5,1,1.1,1c0.5,0,1-0.4,1-1V167l0.1-7.2c0-0.7,0-1.3,0-1.7c0.7,1.4,1.2,3,1.3,4.5C10.1,163.9,12.1,163.9,12,162.6z"/>
		</g>
	</g>
	<g id="standing-frontal-man-silhouette-104" transform="translate(1604.906 1245.776)">
		<g id="Group_12608" transform="translate(0 0)">
			<ellipse id="Ellipse_9630" class="st0" cx="6" cy="152.1" rx="1.9" ry="1.9"/>
			<path id="Path_13104" class="st0" d="M12,162.6c-0.5-6.1-3.5-7.4-3.5-7.4c-1.9-1-4.1-0.8-5.8,0.5c-1.9,1.8-2.4,4.4-2.7,7
				c-0.2,1.3,1.9,1.3,2.1,0c0.1-1.5,0.5-3,1.2-4.4v1.5l0,7.2v5.7c0,0.6,0.4,1.1,1,1.1c0,0,0,0,0,0c0.6,0,1.1-0.5,1.1-1.1v-8.1h1v8.2
				c0,0.6,0.5,1,1.1,1c0.5,0,1-0.4,1-1V167l0.1-7.2c0-0.7,0-1.3,0-1.7c0.7,1.4,1.2,3,1.3,4.5C10.1,163.9,12.1,163.9,12,162.6z"/>
		</g>
	</g>
	<g id="standing-frontal-man-silhouette-105" transform="translate(1604.906 1296.16)">
		<g id="Group_12609" transform="translate(0 0)">
			<ellipse id="Ellipse_9631" class="st0" cx="6" cy="152.1" rx="1.9" ry="1.9"/>
			<path id="Path_13105" class="st0" d="M12,162.6c-0.5-6.1-3.5-7.4-3.5-7.4c-1.9-1-4.1-0.8-5.8,0.5c-1.9,1.8-2.4,4.4-2.7,7
				c-0.2,1.3,1.9,1.3,2.1,0c0.1-1.5,0.5-3,1.2-4.4v1.5l0,7.2v5.7c0,0.6,0.4,1.1,1,1.1c0,0,0,0,0,0c0.6,0,1.1-0.5,1.1-1.1v-8.1h1v8.2
				c0,0.6,0.5,1,1.1,1c0.5,0,1-0.4,1-1V167l0.1-7.2c0-0.7,0-1.3,0-1.7c0.7,1.4,1.2,3,1.3,4.5C10.1,163.9,12.1,163.9,12,162.6z"/>
		</g>
	</g>
	<g id="standing-frontal-man-silhouette-106" transform="translate(1604.906 1346.545)">
		<g id="Group_12610" transform="translate(0 0)">
			<ellipse id="Ellipse_9632" class="st0" cx="6" cy="152.1" rx="1.9" ry="1.9"/>
			<path id="Path_13106" class="st0" d="M12,162.6c-0.5-6.1-3.5-7.4-3.5-7.4c-1.9-1-4.1-0.8-5.8,0.5c-1.9,1.8-2.4,4.4-2.7,7
				c-0.2,1.3,1.9,1.3,2.1,0c0.1-1.5,0.5-3,1.2-4.4v1.5l0,7.2v5.7c0,0.6,0.4,1.1,1,1.1c0,0,0,0,0,0c0.6,0,1.1-0.5,1.1-1.1v-8.1h1v8.2
				c0,0.6,0.5,1,1.1,1c0.5,0,1-0.4,1-1V167l0.1-7.2c0-0.7,0-1.3,0-1.7c0.7,1.4,1.2,3,1.3,4.5C10.1,163.9,12.1,163.9,12,162.6z"/>
		</g>
	</g>
	<g id="standing-frontal-man-silhouette-107" transform="translate(1605.515 1068.584)">
		<g id="Group_12611" transform="translate(0 0)">
			<ellipse id="Ellipse_9633" class="st0" cx="6" cy="152.1" rx="1.9" ry="1.9"/>
			<path id="Path_13107" class="st0" d="M12,162.6c-0.5-6.1-3.5-7.4-3.5-7.4c-1.9-1-4.1-0.8-5.8,0.5c-1.9,1.8-2.4,4.4-2.7,7
				c-0.2,1.3,1.9,1.3,2.1,0c0.1-1.5,0.5-3,1.2-4.4v1.5l0,7.2v5.7c0,0.6,0.4,1.1,1,1.1c0,0,0,0,0,0c0.6,0,1.1-0.5,1.1-1.1v-8.1h1v8.2
				c0,0.6,0.5,1,1.1,1c0.5,0,1-0.4,1-1V167l0.1-7.2c0-0.7,0-1.3,0-1.7c0.7,1.4,1.2,3,1.3,4.5C10.1,163.9,12.1,163.9,12,162.6z"/>
		</g>
	</g>
	<g id="standing-frontal-man-silhouette-108" transform="translate(1605.515 1118.968)">
		<g id="Group_12612" transform="translate(0 0)">
			<ellipse id="Ellipse_9634" class="st0" cx="6" cy="152.1" rx="1.9" ry="1.9"/>
			<path id="Path_13108" class="st0" d="M12,162.6c-0.5-6.1-3.5-7.4-3.5-7.4c-1.9-1-4.1-0.8-5.8,0.5c-1.9,1.8-2.4,4.4-2.7,7
				c-0.2,1.3,1.9,1.3,2.1,0c0.1-1.5,0.5-3,1.2-4.4v1.5l0,7.2v5.7c0,0.6,0.4,1.1,1,1.1c0,0,0,0,0,0c0.6,0,1.1-0.5,1.1-1.1v-8.1h1v8.2
				c0,0.6,0.5,1,1.1,1c0.5,0,1-0.4,1-1V167l0.1-7.2c0-0.7,0-1.3,0-1.7c0.7,1.4,1.2,3,1.3,4.5C10.1,163.9,12.1,163.9,12,162.6z"/>
		</g>
	</g>
	<g id="standing-frontal-man-silhouette-109" transform="translate(1605.515 1169.353)">
		<g id="Group_12613" transform="translate(0 0)">
			<ellipse id="Ellipse_9635" class="st0" cx="6" cy="152.1" rx="1.9" ry="1.9"/>
			<path id="Path_13109" class="st0" d="M12,162.6c-0.5-6.1-3.5-7.4-3.5-7.4c-1.9-1-4.1-0.8-5.8,0.5c-1.9,1.8-2.4,4.4-2.7,7
				c-0.2,1.3,1.9,1.3,2.1,0c0.1-1.5,0.5-3,1.2-4.4v1.5l0,7.2v5.7c0,0.6,0.4,1.1,1,1.1c0,0,0,0,0,0c0.6,0,1.1-0.5,1.1-1.1v-8.1h1v8.2
				c0,0.6,0.5,1,1.1,1c0.5,0,1-0.4,1-1V167l0.1-7.2c0-0.7,0-1.3,0-1.7c0.7,1.4,1.2,3,1.3,4.5C10.1,163.9,12.1,163.9,12,162.6z"/>
		</g>
	</g>
	<g id="standing-frontal-man-silhouette-110" transform="translate(1605.515 1093.776)">
		<g id="Group_12614" transform="translate(0 0)">
			<ellipse id="Ellipse_9636" class="st0" cx="6" cy="152.1" rx="1.9" ry="1.9"/>
			<path id="Path_13110" class="st0" d="M12,162.6c-0.5-6.1-3.5-7.4-3.5-7.4c-1.9-1-4.1-0.8-5.8,0.5c-1.9,1.8-2.4,4.4-2.7,7
				c-0.2,1.3,1.9,1.3,2.1,0c0.1-1.5,0.5-3,1.2-4.4v1.5l0,7.2v5.7c0,0.6,0.4,1.1,1,1.1c0,0,0,0,0,0c0.6,0,1.1-0.5,1.1-1.1v-8.1h1v8.2
				c0,0.6,0.5,1,1.1,1c0.5,0,1-0.4,1-1V167l0.1-7.2c0-0.7,0-1.3,0-1.7c0.7,1.4,1.2,3,1.3,4.5C10.1,163.9,12.1,163.9,12,162.6z"/>
		</g>
	</g>
	<g id="standing-frontal-man-silhouette-111" transform="translate(1605.515 1144.16)">
		<g id="Group_12615" transform="translate(0 0)">
			<ellipse id="Ellipse_9637" class="st0" cx="6" cy="152.1" rx="1.9" ry="1.9"/>
			<path id="Path_13111" class="st0" d="M12,162.6c-0.5-6.1-3.5-7.4-3.5-7.4c-1.9-1-4.1-0.8-5.8,0.5c-1.9,1.8-2.4,4.4-2.7,7
				c-0.2,1.3,1.9,1.3,2.1,0c0.1-1.5,0.5-3,1.2-4.4v1.5l0,7.2v5.7c0,0.6,0.4,1.1,1,1.1c0,0,0,0,0,0c0.6,0,1.1-0.5,1.1-1.1v-8.1h1v8.2
				c0,0.6,0.5,1,1.1,1c0.5,0,1-0.4,1-1V167l0.1-7.2c0-0.7,0-1.3,0-1.7c0.7,1.4,1.2,3,1.3,4.5C10.1,163.9,12.1,163.9,12,162.6z"/>
		</g>
	</g>
	<g id="standing-frontal-man-silhouette-112" transform="translate(1605.515 1194.545)">
		<g id="Group_12616" transform="translate(0 0)">
			<ellipse id="Ellipse_9638" class="st0" cx="6" cy="152.1" rx="1.9" ry="1.9"/>
			<path id="Path_13112" class="st0" d="M12,162.6c-0.5-6.1-3.5-7.4-3.5-7.4c-1.9-1-4.1-0.8-5.8,0.5c-1.9,1.8-2.4,4.4-2.7,7
				c-0.2,1.3,1.9,1.3,2.1,0c0.1-1.5,0.5-3,1.2-4.4v1.5l0,7.2v5.7c0,0.6,0.4,1.1,1,1.1c0,0,0,0,0,0c0.6,0,1.1-0.5,1.1-1.1v-8.1h1v8.2
				c0,0.6,0.5,1,1.1,1c0.5,0,1-0.4,1-1V167l0.1-7.2c0-0.7,0-1.3,0-1.7c0.7,1.4,1.2,3,1.3,4.5C10.1,163.9,12.1,163.9,12,162.6z"/>
		</g>
	</g>
	<g id="standing-frontal-man-silhouette-113" transform="translate(1605.318 1042.968)">
		<g id="Group_12617" transform="translate(0 0)">
			<ellipse id="Ellipse_9639" class="st0" cx="6" cy="152.1" rx="1.9" ry="1.9"/>
			<path id="Path_13113" class="st0" d="M12,162.6c-0.5-6.1-3.5-7.4-3.5-7.4c-1.9-1-4.1-0.8-5.8,0.5c-1.9,1.8-2.4,4.4-2.7,7
				c-0.2,1.3,1.9,1.3,2.1,0c0.1-1.5,0.5-3,1.2-4.4v1.5l0,7.2v5.7c0,0.6,0.4,1.1,1,1.1c0,0,0,0,0,0c0.6,0,1.1-0.5,1.1-1.1v-8.1h1v8.2
				c0,0.6,0.5,1,1.1,1c0.5,0,1-0.4,1-1V167l0.1-7.2c0-0.7,0-1.3,0-1.7c0.7,1.4,1.2,3,1.3,4.5C10.1,163.9,12.1,163.9,12,162.6z"/>
		</g>
	</g>
	<g id="standing-frontal-man-silhouette-114" transform="translate(1550.318 1017.353)">
		<g id="Group_12618" transform="translate(0 0)">
			<ellipse id="Ellipse_9640" class="st0" cx="6" cy="152.1" rx="1.9" ry="1.9"/>
			<path id="Path_13114" class="st0" d="M12,162.6c-0.5-6.1-3.5-7.4-3.5-7.4c-1.9-1-4.1-0.8-5.8,0.5c-1.9,1.8-2.4,4.4-2.7,7
				c-0.2,1.3,1.9,1.3,2.1,0c0.1-1.5,0.5-3,1.2-4.4v1.5l0,7.2v5.7c0,0.6,0.4,1.1,1,1.1c0,0,0,0,0,0c0.6,0,1.1-0.5,1.1-1.1v-8.1h1v8.2
				c0,0.6,0.5,1,1.1,1c0.5,0,1-0.4,1-1V167l0.1-7.2c0-0.7,0-1.3,0-1.7c0.7,1.4,1.2,3,1.3,4.5C10.1,163.9,12.1,163.9,12,162.6z"/>
		</g>
	</g>
	<g id="standing-frontal-man-silhouette-115" transform="translate(1605.318 1017.776)">
		<g id="Group_12619" transform="translate(0 0)">
			<ellipse id="Ellipse_9641" class="st0" cx="6" cy="152.1" rx="1.9" ry="1.9"/>
			<path id="Path_13115" class="st0" d="M12,162.6c-0.5-6.1-3.5-7.4-3.5-7.4c-1.9-1-4.1-0.8-5.8,0.5c-1.9,1.8-2.4,4.4-2.7,7
				c-0.2,1.3,1.9,1.3,2.1,0c0.1-1.5,0.5-3,1.2-4.4v1.5l0,7.2v5.7c0,0.6,0.4,1.1,1,1.1c0,0,0,0,0,0c0.6,0,1.1-0.5,1.1-1.1v-8.1h1v8.2
				c0,0.6,0.5,1,1.1,1c0.5,0,1-0.4,1-1V167l0.1-7.2c0-0.7,0-1.3,0-1.7c0.7,1.4,1.2,3,1.3,4.5C10.1,163.9,12.1,163.9,12,162.6z"/>
		</g>
	</g>
	<g id="standing-frontal-man-silhouette-116" transform="translate(1550.318 992.16)">
		<g id="Group_12620" transform="translate(0 0)">
			<ellipse id="Ellipse_9642" class="st0" cx="6" cy="152.1" rx="1.9" ry="1.9"/>
			<path id="Path_13116" class="st0" d="M12,162.6c-0.5-6.1-3.5-7.4-3.5-7.4c-1.9-1-4.1-0.8-5.8,0.5c-1.9,1.8-2.4,4.4-2.7,7
				c-0.2,1.3,1.9,1.3,2.1,0c0.1-1.5,0.5-3,1.2-4.4v1.5l0,7.2v5.7c0,0.6,0.4,1.1,1,1.1c0,0,0,0,0,0c0.6,0,1.1-0.5,1.1-1.1v-8.1h1v8.2
				c0,0.6,0.5,1,1.1,1c0.5,0,1-0.4,1-1V167l0.1-7.2c0-0.7,0-1.3,0-1.7c0.7,1.4,1.2,3,1.3,4.5C10.1,163.9,12.1,163.9,12,162.6z"/>
		</g>
	</g>
	<g id="standing-frontal-man-silhouette-117" transform="translate(1550.318 1042.545)">
		<g id="Group_12621" transform="translate(0 0)">
			<ellipse id="Ellipse_9643" class="st0" cx="6" cy="152.1" rx="1.9" ry="1.9"/>
			<path id="Path_13117" class="st0" d="M12,162.6c-0.5-6.1-3.5-7.4-3.5-7.4c-1.9-1-4.1-0.8-5.8,0.5c-1.9,1.8-2.4,4.4-2.7,7
				c-0.2,1.3,1.9,1.3,2.1,0c0.1-1.5,0.5-3,1.2-4.4v1.5l0,7.2v5.7c0,0.6,0.4,1.1,1,1.1c0,0,0,0,0,0c0.6,0,1.1-0.5,1.1-1.1v-8.1h1v8.2
				c0,0.6,0.5,1,1.1,1c0.5,0,1-0.4,1-1V167l0.1-7.2c0-0.7,0-1.3,0-1.7c0.7,1.4,1.2,3,1.3,4.5C10.1,163.9,12.1,163.9,12,162.6z"/>
		</g>
	</g>
</g>
</svg>
