<?xml version="1.0" encoding="utf-8"?>
<!-- Generator: Adobe Illustrator 25.1.0, SVG Export Plug-In . SVG Version: 6.00 Build 0)  -->
<svg version="1.1" id="Laag_1" xmlns="http://www.w3.org/2000/svg" xmlns:xlink="http://www.w3.org/1999/xlink" x="0px" y="0px"
	 viewBox="0 0 108.7 528.2" style="enable-background:new 0 0 108.7 528.2;" xml:space="preserve">
<style type="text/css">
	.st0{fill:#FFFFFF;}
</style>
<g id="Group_13294" transform="translate(-3472 -868.968)">
	<g id="Group_13283" transform="translate(-0.259)">
		<g id="standing-frontal-man-silhouette" transform="translate(3473.043 1220.584)">
			<g id="Group_10310" transform="translate(0 0)">
				<ellipse id="Ellipse_7336" class="st0" cx="6" cy="28.9" rx="1.9" ry="1.9"/>
				<path id="Path_10810" class="st0" d="M12,39.4c-0.5-6.1-3.5-7.4-3.5-7.4c-1.9-1-4.1-0.8-5.8,0.5c-1.9,1.8-2.4,4.4-2.7,7
					c-0.2,1.3,1.9,1.3,2.1,0c0.1-1.5,0.5-3,1.2-4.4v1.5l0,7.2v5.7c0,0.6,0.4,1.1,1,1.1c0,0,0,0,0,0c0.6,0,1.1-0.5,1.1-1.1v-8.1h1
					v8.2c0,0.6,0.5,1,1.1,1c0.5,0,1-0.4,1-1v-5.7l0.1-7.2c0-0.7,0-1.3,0-1.7c0.7,1.4,1.2,3,1.3,4.5C10.1,40.7,12.1,40.7,12,39.4z"/>
			</g>
		</g>
		<g id="standing-frontal-man-silhouette-2" transform="translate(3555.304 1019.584)">
			<g id="Group_10311" transform="translate(0 0)">
				<ellipse id="Ellipse_7337" class="st0" cx="6" cy="28.9" rx="1.9" ry="1.9"/>
				<path id="Path_10811" class="st0" d="M12,39.4c-0.5-6.1-3.5-7.4-3.5-7.4c-1.9-1-4.1-0.8-5.8,0.5c-1.9,1.8-2.4,4.4-2.7,7
					c-0.2,1.3,1.9,1.3,2.1,0c0.1-1.5,0.5-3,1.2-4.4v1.5l0,7.2v5.7c0,0.6,0.4,1.1,1,1.1c0,0,0,0,0,0c0.6,0,1.1-0.5,1.1-1.1v-8.1h1
					v8.2c0,0.6,0.5,1,1.1,1c0.5,0,1-0.4,1-1v-5.7l0.1-7.2c0-0.7,0-1.3,0-1.7c0.7,1.4,1.2,3,1.3,4.5C10.1,40.7,12.1,40.7,12,39.4z"/>
			</g>
		</g>
		<g id="standing-frontal-man-silhouette-3" transform="translate(3473.043 1270.968)">
			<g id="Group_10312" transform="translate(0 0)">
				<ellipse id="Ellipse_7338" class="st0" cx="6" cy="28.9" rx="1.9" ry="1.9"/>
				<path id="Path_10812" class="st0" d="M12,39.4c-0.5-6.1-3.5-7.4-3.5-7.4c-1.9-1-4.1-0.8-5.8,0.5c-1.9,1.8-2.4,4.4-2.7,7
					c-0.2,1.3,1.9,1.3,2.1,0c0.1-1.5,0.5-3,1.2-4.4v1.5l0,7.2v5.7c0,0.6,0.4,1.1,1,1.1c0,0,0,0,0,0c0.6,0,1.1-0.5,1.1-1.1v-8.1h1
					v8.2c0,0.6,0.5,1,1.1,1c0.5,0,1-0.4,1-1v-5.7l0.1-7.2c0-0.7,0-1.3,0-1.7c0.7,1.4,1.2,3,1.3,4.5C10.1,40.7,12.1,40.7,12,39.4z"/>
			</g>
		</g>
		<g id="standing-frontal-man-silhouette-4" transform="translate(3473.043 1321.353)">
			<g id="Group_10313" transform="translate(0 0)">
				<ellipse id="Ellipse_7339" class="st0" cx="6" cy="28.9" rx="1.9" ry="1.9"/>
				<path id="Path_10813" class="st0" d="M12,39.4c-0.5-6.1-3.5-7.4-3.5-7.4c-1.9-1-4.1-0.8-5.8,0.5c-1.9,1.8-2.4,4.4-2.7,7
					c-0.2,1.3,1.9,1.3,2.1,0c0.1-1.5,0.5-3,1.2-4.4v1.5l0,7.2v5.7c0,0.6,0.4,1.1,1,1.1c0,0,0,0,0,0c0.6,0,1.1-0.5,1.1-1.1v-8.1h1
					v8.2c0,0.6,0.5,1,1.1,1c0.5,0,1-0.4,1-1v-5.7l0.1-7.2c0-0.7,0-1.3,0-1.7c0.7,1.4,1.2,3,1.3,4.5C10.1,40.7,12.1,40.7,12,39.4z"/>
			</g>
		</g>
		<g id="standing-frontal-man-silhouette-5" transform="translate(3473.043 1170.419)">
			<g id="Group_10314" transform="translate(0 0)">
				<ellipse id="Ellipse_7340" class="st0" cx="6" cy="28.9" rx="1.9" ry="1.9"/>
				<path id="Path_10814" class="st0" d="M12,39.4c-0.5-6.1-3.5-7.4-3.5-7.4c-1.9-1-4.1-0.8-5.8,0.5c-1.9,1.8-2.4,4.4-2.7,7
					c-0.2,1.3,1.9,1.3,2.1,0c0.1-1.5,0.5-3,1.2-4.4v1.5l0,7.2v5.7c0,0.6,0.4,1.1,1,1.1c0,0,0,0,0,0c0.6,0,1.1-0.5,1.1-1.1v-8.1h1
					v8.2c0,0.6,0.5,1,1.1,1c0.5,0,1-0.4,1-1v-5.7l0.1-7.2c0-0.7,0-1.3,0-1.7c0.7,1.4,1.2,3,1.3,4.5C10.1,40.7,12.1,40.7,12,39.4z"/>
			</g>
		</g>
		<g id="standing-frontal-man-silhouette-6" transform="translate(3473.043 1245.776)">
			<g id="Group_10315" transform="translate(0 0)">
				<ellipse id="Ellipse_7341" class="st0" cx="6" cy="28.9" rx="1.9" ry="1.9"/>
				<path id="Path_10815" class="st0" d="M12,39.4c-0.5-6.1-3.5-7.4-3.5-7.4c-1.9-1-4.1-0.8-5.8,0.5c-1.9,1.8-2.4,4.4-2.7,7
					c-0.2,1.3,1.9,1.3,2.1,0c0.1-1.5,0.5-3,1.2-4.4v1.5l0,7.2v5.7c0,0.6,0.4,1.1,1,1.1c0,0,0,0,0,0c0.6,0,1.1-0.5,1.1-1.1v-8.1h1
					v8.2c0,0.6,0.5,1,1.1,1c0.5,0,1-0.4,1-1v-5.7l0.1-7.2c0-0.7,0-1.3,0-1.7c0.7,1.4,1.2,3,1.3,4.5C10.1,40.7,12.1,40.7,12,39.4z"/>
			</g>
		</g>
		<g id="standing-frontal-man-silhouette-7" transform="translate(3473.043 1296.16)">
			<g id="Group_10316" transform="translate(0 0)">
				<ellipse id="Ellipse_7342" class="st0" cx="6" cy="28.9" rx="1.9" ry="1.9"/>
				<path id="Path_10816" class="st0" d="M12,39.4c-0.5-6.1-3.5-7.4-3.5-7.4c-1.9-1-4.1-0.8-5.8,0.5c-1.9,1.8-2.4,4.4-2.7,7
					c-0.2,1.3,1.9,1.3,2.1,0c0.1-1.5,0.5-3,1.2-4.4v1.5l0,7.2v5.7c0,0.6,0.4,1.1,1,1.1c0,0,0,0,0,0c0.6,0,1.1-0.5,1.1-1.1v-8.1h1
					v8.2c0,0.6,0.5,1,1.1,1c0.5,0,1-0.4,1-1v-5.7l0.1-7.2c0-0.7,0-1.3,0-1.7c0.7,1.4,1.2,3,1.3,4.5C10.1,40.7,12.1,40.7,12,39.4z"/>
			</g>
		</g>
		<g id="standing-frontal-man-silhouette-8" transform="translate(3473.043 1346.545)">
			<g id="Group_10317" transform="translate(0 0)">
				<ellipse id="Ellipse_7343" class="st0" cx="6" cy="28.9" rx="1.9" ry="1.9"/>
				<path id="Path_10817" class="st0" d="M12,39.4c-0.5-6.1-3.5-7.4-3.5-7.4c-1.9-1-4.1-0.8-5.8,0.5c-1.9,1.8-2.4,4.4-2.7,7
					c-0.2,1.3,1.9,1.3,2.1,0c0.1-1.5,0.5-3,1.2-4.4v1.5l0,7.2v5.7c0,0.6,0.4,1.1,1,1.1c0,0,0,0,0,0c0.6,0,1.1-0.5,1.1-1.1v-8.1h1
					v8.2c0,0.6,0.5,1,1.1,1c0.5,0,1-0.4,1-1v-5.7l0.1-7.2c0-0.7,0-1.3,0-1.7c0.7,1.4,1.2,3,1.3,4.5C10.1,40.7,12.1,40.7,12,39.4z"/>
			</g>
		</g>
		<g id="standing-frontal-man-silhouette-9" transform="translate(3473.043 1195.611)">
			<g id="Group_10318" transform="translate(0 0)">
				<ellipse id="Ellipse_7344" class="st0" cx="6" cy="28.9" rx="1.9" ry="1.9"/>
				<path id="Path_10818" class="st0" d="M12,39.4c-0.5-6.1-3.5-7.4-3.5-7.4c-1.9-1-4.1-0.8-5.8,0.5c-1.9,1.8-2.4,4.4-2.7,7
					c-0.2,1.3,1.9,1.3,2.1,0c0.1-1.5,0.5-3,1.2-4.4v1.5l0,7.2v5.7c0,0.6,0.4,1.1,1,1.1c0,0,0,0,0,0c0.6,0,1.1-0.5,1.1-1.1v-8.1h1
					v8.2c0,0.6,0.5,1,1.1,1c0.5,0,1-0.4,1-1v-5.7l0.1-7.2c0-0.7,0-1.3,0-1.7c0.7,1.4,1.2,3,1.3,4.5C10.1,40.7,12.1,40.7,12,39.4z"/>
			</g>
		</g>
		<g id="standing-frontal-man-silhouette-10" transform="translate(3472.65 1019.584)">
			<g id="Group_10319" transform="translate(0 0)">
				<ellipse id="Ellipse_7345" class="st0" cx="6" cy="28.9" rx="1.9" ry="1.9"/>
				<path id="Path_10819" class="st0" d="M12,39.4c-0.5-6.1-3.5-7.4-3.5-7.4c-1.9-1-4.1-0.8-5.8,0.5c-1.9,1.8-2.4,4.4-2.7,7
					c-0.2,1.3,1.9,1.3,2.1,0c0.1-1.5,0.5-3,1.2-4.4v1.5l0,7.2v5.7c0,0.6,0.4,1.1,1,1.1c0,0,0,0,0,0c0.6,0,1.1-0.5,1.1-1.1v-8.1h1
					v8.2c0,0.6,0.5,1,1.1,1c0.5,0,1-0.4,1-1v-5.7l0.1-7.2c0-0.7,0-1.3,0-1.7c0.7,1.4,1.2,3,1.3,4.5C10.1,40.7,12.1,40.7,12,39.4z"/>
			</g>
		</g>
		<g id="standing-frontal-man-silhouette-11" transform="translate(3472.65 1069.968)">
			<g id="Group_10320" transform="translate(0 0)">
				<ellipse id="Ellipse_7346" class="st0" cx="6" cy="28.9" rx="1.9" ry="1.9"/>
				<path id="Path_10820" class="st0" d="M12,39.4c-0.5-6.1-3.5-7.4-3.5-7.4c-1.9-1-4.1-0.8-5.8,0.5c-1.9,1.8-2.4,4.4-2.7,7
					c-0.2,1.3,1.9,1.3,2.1,0c0.1-1.5,0.5-3,1.2-4.4v1.5l0,7.2v5.7c0,0.6,0.4,1.1,1,1.1c0,0,0,0,0,0c0.6,0,1.1-0.5,1.1-1.1v-8.1h1
					v8.2c0,0.6,0.5,1,1.1,1c0.5,0,1-0.4,1-1v-5.7l0.1-7.2c0-0.7,0-1.3,0-1.7c0.7,1.4,1.2,3,1.3,4.5C10.1,40.7,12.1,40.7,12,39.4z"/>
			</g>
		</g>
		<g id="standing-frontal-man-silhouette-12" transform="translate(3472.65 1120.353)">
			<g id="Group_10321" transform="translate(0 0)">
				<ellipse id="Ellipse_7347" class="st0" cx="6" cy="28.9" rx="1.9" ry="1.9"/>
				<path id="Path_10821" class="st0" d="M12,39.4c-0.5-6.1-3.5-7.4-3.5-7.4c-1.9-1-4.1-0.8-5.8,0.5c-1.9,1.8-2.4,4.4-2.7,7
					c-0.2,1.3,1.9,1.3,2.1,0c0.1-1.5,0.5-3,1.2-4.4v1.5l0,7.2v5.7c0,0.6,0.4,1.1,1,1.1c0,0,0,0,0,0c0.6,0,1.1-0.5,1.1-1.1v-8.1h1
					v8.2c0,0.6,0.5,1,1.1,1c0.5,0,1-0.4,1-1v-5.7l0.1-7.2c0-0.7,0-1.3,0-1.7c0.7,1.4,1.2,3,1.3,4.5C10.1,40.7,12.1,40.7,12,39.4z"/>
			</g>
		</g>
		<g id="standing-frontal-man-silhouette-13" transform="translate(3472.65 969.419)">
			<g id="Group_10322" transform="translate(0 0)">
				<ellipse id="Ellipse_7348" class="st0" cx="6" cy="28.9" rx="1.9" ry="1.9"/>
				<path id="Path_10822" class="st0" d="M12,39.4c-0.5-6.1-3.5-7.4-3.5-7.4c-1.9-1-4.1-0.8-5.8,0.5c-1.9,1.8-2.4,4.4-2.7,7
					c-0.2,1.3,1.9,1.3,2.1,0c0.1-1.5,0.5-3,1.2-4.4v1.5l0,7.2v5.7c0,0.6,0.4,1.1,1,1.1c0,0,0,0,0,0c0.6,0,1.1-0.5,1.1-1.1v-8.1h1
					v8.2c0,0.6,0.5,1,1.1,1c0.5,0,1-0.4,1-1v-5.7l0.1-7.2c0-0.7,0-1.3,0-1.7c0.7,1.4,1.2,3,1.3,4.5C10.1,40.7,12.1,40.7,12,39.4z"/>
			</g>
		</g>
		<g id="standing-frontal-man-silhouette-14" transform="translate(3472.65 1044.776)">
			<g id="Group_10323" transform="translate(0 0)">
				<ellipse id="Ellipse_7349" class="st0" cx="6" cy="28.9" rx="1.9" ry="1.9"/>
				<path id="Path_10823" class="st0" d="M12,39.4c-0.5-6.1-3.5-7.4-3.5-7.4c-1.9-1-4.1-0.8-5.8,0.5c-1.9,1.8-2.4,4.4-2.7,7
					c-0.2,1.3,1.9,1.3,2.1,0c0.1-1.5,0.5-3,1.2-4.4v1.5l0,7.2v5.7c0,0.6,0.4,1.1,1,1.1c0,0,0,0,0,0c0.6,0,1.1-0.5,1.1-1.1v-8.1h1
					v8.2c0,0.6,0.5,1,1.1,1c0.5,0,1-0.4,1-1v-5.7l0.1-7.2c0-0.7,0-1.3,0-1.7c0.7,1.4,1.2,3,1.3,4.5C10.1,40.7,12.1,40.7,12,39.4z"/>
			</g>
		</g>
		<g id="standing-frontal-man-silhouette-15" transform="translate(3472.65 1095.16)">
			<g id="Group_10324" transform="translate(0 0)">
				<ellipse id="Ellipse_7350" class="st0" cx="6" cy="28.9" rx="1.9" ry="1.9"/>
				<path id="Path_10824" class="st0" d="M12,39.4c-0.5-6.1-3.5-7.4-3.5-7.4c-1.9-1-4.1-0.8-5.8,0.5c-1.9,1.8-2.4,4.4-2.7,7
					c-0.2,1.3,1.9,1.3,2.1,0c0.1-1.5,0.5-3,1.2-4.4v1.5l0,7.2v5.7c0,0.6,0.4,1.1,1,1.1c0,0,0,0,0,0c0.6,0,1.1-0.5,1.1-1.1v-8.1h1
					v8.2c0,0.6,0.5,1,1.1,1c0.5,0,1-0.4,1-1v-5.7l0.1-7.2c0-0.7,0-1.3,0-1.7c0.7,1.4,1.2,3,1.3,4.5C10.1,40.7,12.1,40.7,12,39.4z"/>
			</g>
		</g>
		<g id="standing-frontal-man-silhouette-16" transform="translate(3472.65 1145.545)">
			<g id="Group_10325" transform="translate(0 0)">
				<ellipse id="Ellipse_7351" class="st0" cx="6" cy="28.9" rx="1.9" ry="1.9"/>
				<path id="Path_10825" class="st0" d="M12,39.4c-0.5-6.1-3.5-7.4-3.5-7.4c-1.9-1-4.1-0.8-5.8,0.5c-1.9,1.8-2.4,4.4-2.7,7
					c-0.2,1.3,1.9,1.3,2.1,0c0.1-1.5,0.5-3,1.2-4.4v1.5l0,7.2v5.7c0,0.6,0.4,1.1,1,1.1c0,0,0,0,0,0c0.6,0,1.1-0.5,1.1-1.1v-8.1h1
					v8.2c0,0.6,0.5,1,1.1,1c0.5,0,1-0.4,1-1v-5.7l0.1-7.2c0-0.7,0-1.3,0-1.7c0.7,1.4,1.2,3,1.3,4.5C10.1,40.7,12.1,40.7,12,39.4z"/>
			</g>
		</g>
		<g id="standing-frontal-man-silhouette-17" transform="translate(3472.65 994.611)">
			<g id="Group_10326" transform="translate(0 0)">
				<ellipse id="Ellipse_7352" class="st0" cx="6" cy="28.9" rx="1.9" ry="1.9"/>
				<path id="Path_10826" class="st0" d="M12,39.4c-0.5-6.1-3.5-7.4-3.5-7.4c-1.9-1-4.1-0.8-5.8,0.5c-1.9,1.8-2.4,4.4-2.7,7
					c-0.2,1.3,1.9,1.3,2.1,0c0.1-1.5,0.5-3,1.2-4.4v1.5l0,7.2v5.7c0,0.6,0.4,1.1,1,1.1c0,0,0,0,0,0c0.6,0,1.1-0.5,1.1-1.1v-8.1h1
					v8.2c0,0.6,0.5,1,1.1,1c0.5,0,1-0.4,1-1v-5.7l0.1-7.2c0-0.7,0-1.3,0-1.7c0.7,1.4,1.2,3,1.3,4.5C10.1,40.7,12.1,40.7,12,39.4z"/>
			</g>
		</g>
		<g id="standing-frontal-man-silhouette-18" transform="translate(3527.846 1220.584)">
			<g id="Group_10327" transform="translate(0 0)">
				<ellipse id="Ellipse_7353" class="st0" cx="6" cy="28.9" rx="1.9" ry="1.9"/>
				<path id="Path_10827" class="st0" d="M12,39.4c-0.5-6.1-3.5-7.4-3.5-7.4c-1.9-1-4.1-0.8-5.8,0.5c-1.9,1.8-2.4,4.4-2.7,7
					c-0.2,1.3,1.9,1.3,2.1,0c0.1-1.5,0.5-3,1.2-4.4v1.5l0,7.2v5.7c0,0.6,0.4,1.1,1,1.1c0,0,0,0,0,0c0.6,0,1.1-0.5,1.1-1.1v-8.1h1
					v8.2c0,0.6,0.5,1,1.1,1c0.5,0,1-0.4,1-1v-5.7l0.1-7.2c0-0.7,0-1.3,0-1.7c0.7,1.4,1.2,3,1.3,4.5C10.1,40.7,12.1,40.7,12,39.4z"/>
			</g>
		</g>
		<g id="standing-frontal-man-silhouette-19" transform="translate(3527.846 1270.968)">
			<g id="Group_10330" transform="translate(0 0)">
				<ellipse id="Ellipse_7356" class="st0" cx="6" cy="28.9" rx="1.9" ry="1.9"/>
				<path id="Path_10830" class="st0" d="M12,39.4c-0.5-6.1-3.5-7.4-3.5-7.4c-1.9-1-4.1-0.8-5.8,0.5c-1.9,1.8-2.4,4.4-2.7,7
					c-0.2,1.3,1.9,1.3,2.1,0c0.1-1.5,0.5-3,1.2-4.4v1.5l0,7.2v5.7c0,0.6,0.4,1.1,1,1.1c0,0,0,0,0,0c0.6,0,1.1-0.5,1.1-1.1v-8.1h1
					v8.2c0,0.6,0.5,1,1.1,1c0.5,0,1-0.4,1-1v-5.7l0.1-7.2c0-0.7,0-1.3,0-1.7c0.7,1.4,1.2,3,1.3,4.5C10.1,40.7,12.1,40.7,12,39.4z"/>
			</g>
		</g>
		<g id="standing-frontal-man-silhouette-20" transform="translate(3527.846 1321.353)">
			<g id="Group_10331" transform="translate(0 0)">
				<ellipse id="Ellipse_7357" class="st0" cx="6" cy="28.9" rx="1.9" ry="1.9"/>
				<path id="Path_10831" class="st0" d="M12,39.4c-0.5-6.1-3.5-7.4-3.5-7.4c-1.9-1-4.1-0.8-5.8,0.5c-1.9,1.8-2.4,4.4-2.7,7
					c-0.2,1.3,1.9,1.3,2.1,0c0.1-1.5,0.5-3,1.2-4.4v1.5l0,7.2v5.7c0,0.6,0.4,1.1,1,1.1c0,0,0,0,0,0c0.6,0,1.1-0.5,1.1-1.1v-8.1h1
					v8.2c0,0.6,0.5,1,1.1,1c0.5,0,1-0.4,1-1v-5.7l0.1-7.2c0-0.7,0-1.3,0-1.7c0.7,1.4,1.2,3,1.3,4.5C10.1,40.7,12.1,40.7,12,39.4z"/>
			</g>
		</g>
		<g id="standing-frontal-man-silhouette-21" transform="translate(3527.846 1170.419)">
			<g id="Group_10332" transform="translate(0 0)">
				<ellipse id="Ellipse_7358" class="st0" cx="6" cy="28.9" rx="1.9" ry="1.9"/>
				<path id="Path_10832" class="st0" d="M12,39.4c-0.5-6.1-3.5-7.4-3.5-7.4c-1.9-1-4.1-0.8-5.8,0.5c-1.9,1.8-2.4,4.4-2.7,7
					c-0.2,1.3,1.9,1.3,2.1,0c0.1-1.5,0.5-3,1.2-4.4v1.5l0,7.2v5.7c0,0.6,0.4,1.1,1,1.1c0,0,0,0,0,0c0.6,0,1.1-0.5,1.1-1.1v-8.1h1
					v8.2c0,0.6,0.5,1,1.1,1c0.5,0,1-0.4,1-1v-5.7l0.1-7.2c0-0.7,0-1.3,0-1.7c0.7,1.4,1.2,3,1.3,4.5C10.1,40.7,12.1,40.7,12,39.4z"/>
			</g>
		</g>
		<g id="standing-frontal-man-silhouette-22" transform="translate(3527.846 1245.776)">
			<g id="Group_10333" transform="translate(0 0)">
				<ellipse id="Ellipse_7359" class="st0" cx="6" cy="28.9" rx="1.9" ry="1.9"/>
				<path id="Path_10833" class="st0" d="M12,39.4c-0.5-6.1-3.5-7.4-3.5-7.4c-1.9-1-4.1-0.8-5.8,0.5c-1.9,1.8-2.4,4.4-2.7,7
					c-0.2,1.3,1.9,1.3,2.1,0c0.1-1.5,0.5-3,1.2-4.4v1.5l0,7.2v5.7c0,0.6,0.4,1.1,1,1.1c0,0,0,0,0,0c0.6,0,1.1-0.5,1.1-1.1v-8.1h1
					v8.2c0,0.6,0.5,1,1.1,1c0.5,0,1-0.4,1-1v-5.7l0.1-7.2c0-0.7,0-1.3,0-1.7c0.7,1.4,1.2,3,1.3,4.5C10.1,40.7,12.1,40.7,12,39.4z"/>
			</g>
		</g>
		<g id="standing-frontal-man-silhouette-23" transform="translate(3527.846 1296.16)">
			<g id="Group_10334" transform="translate(0 0)">
				<ellipse id="Ellipse_7360" class="st0" cx="6" cy="28.9" rx="1.9" ry="1.9"/>
				<path id="Path_10834" class="st0" d="M12,39.4c-0.5-6.1-3.5-7.4-3.5-7.4c-1.9-1-4.1-0.8-5.8,0.5c-1.9,1.8-2.4,4.4-2.7,7
					c-0.2,1.3,1.9,1.3,2.1,0c0.1-1.5,0.5-3,1.2-4.4v1.5l0,7.2v5.7c0,0.6,0.4,1.1,1,1.1c0,0,0,0,0,0c0.6,0,1.1-0.5,1.1-1.1v-8.1h1
					v8.2c0,0.6,0.5,1,1.1,1c0.5,0,1-0.4,1-1v-5.7l0.1-7.2c0-0.7,0-1.3,0-1.7c0.7,1.4,1.2,3,1.3,4.5C10.1,40.7,12.1,40.7,12,39.4z"/>
			</g>
		</g>
		<g id="standing-frontal-man-silhouette-24" transform="translate(3527.846 1346.545)">
			<g id="Group_10335" transform="translate(0 0)">
				<ellipse id="Ellipse_7361" class="st0" cx="6" cy="28.9" rx="1.9" ry="1.9"/>
				<path id="Path_10835" class="st0" d="M12,39.4c-0.5-6.1-3.5-7.4-3.5-7.4c-1.9-1-4.1-0.8-5.8,0.5c-1.9,1.8-2.4,4.4-2.7,7
					c-0.2,1.3,1.9,1.3,2.1,0c0.1-1.5,0.5-3,1.2-4.4v1.5l0,7.2v5.7c0,0.6,0.4,1.1,1,1.1c0,0,0,0,0,0c0.6,0,1.1-0.5,1.1-1.1v-8.1h1
					v8.2c0,0.6,0.5,1,1.1,1c0.5,0,1-0.4,1-1v-5.7l0.1-7.2c0-0.7,0-1.3,0-1.7c0.7,1.4,1.2,3,1.3,4.5C10.1,40.7,12.1,40.7,12,39.4z"/>
			</g>
		</g>
		<g id="standing-frontal-man-silhouette-25" transform="translate(3527.846 1195.611)">
			<g id="Group_10336" transform="translate(0 0)">
				<ellipse id="Ellipse_7362" class="st0" cx="6" cy="28.9" rx="1.9" ry="1.9"/>
				<path id="Path_10836" class="st0" d="M12,39.4c-0.5-6.1-3.5-7.4-3.5-7.4c-1.9-1-4.1-0.8-5.8,0.5c-1.9,1.8-2.4,4.4-2.7,7
					c-0.2,1.3,1.9,1.3,2.1,0c0.1-1.5,0.5-3,1.2-4.4v1.5l0,7.2v5.7c0,0.6,0.4,1.1,1,1.1c0,0,0,0,0,0c0.6,0,1.1-0.5,1.1-1.1v-8.1h1
					v8.2c0,0.6,0.5,1,1.1,1c0.5,0,1-0.4,1-1v-5.7l0.1-7.2c0-0.7,0-1.3,0-1.7c0.7,1.4,1.2,3,1.3,4.5C10.1,40.7,12.1,40.7,12,39.4z"/>
			</g>
		</g>
		<g id="standing-frontal-man-silhouette-26" transform="translate(3527.455 1019.584)">
			<g id="Group_10337" transform="translate(0 0)">
				<ellipse id="Ellipse_7363" class="st0" cx="6" cy="28.9" rx="1.9" ry="1.9"/>
				<path id="Path_10837" class="st0" d="M12,39.4c-0.5-6.1-3.5-7.4-3.5-7.4c-1.9-1-4.1-0.8-5.8,0.5c-1.9,1.8-2.4,4.4-2.7,7
					c-0.2,1.3,1.9,1.3,2.1,0c0.1-1.5,0.5-3,1.2-4.4v1.5l0,7.2v5.7c0,0.6,0.4,1.1,1,1.1c0,0,0,0,0,0c0.6,0,1.1-0.5,1.1-1.1v-8.1h1
					v8.2c0,0.6,0.5,1,1.1,1c0.5,0,1-0.4,1-1v-5.7l0.1-7.2c0-0.7,0-1.3,0-1.7c0.7,1.4,1.2,3,1.3,4.5C10.1,40.7,12.1,40.7,12,39.4z"/>
			</g>
		</g>
		<g id="standing-frontal-man-silhouette-27" transform="translate(3527.455 1069.968)">
			<g id="Group_10338" transform="translate(0 0)">
				<ellipse id="Ellipse_7364" class="st0" cx="6" cy="28.9" rx="1.9" ry="1.9"/>
				<path id="Path_10838" class="st0" d="M12,39.4c-0.5-6.1-3.5-7.4-3.5-7.4c-1.9-1-4.1-0.8-5.8,0.5c-1.9,1.8-2.4,4.4-2.7,7
					c-0.2,1.3,1.9,1.3,2.1,0c0.1-1.5,0.5-3,1.2-4.4v1.5l0,7.2v5.7c0,0.6,0.4,1.1,1,1.1c0,0,0,0,0,0c0.6,0,1.1-0.5,1.1-1.1v-8.1h1
					v8.2c0,0.6,0.5,1,1.1,1c0.5,0,1-0.4,1-1v-5.7l0.1-7.2c0-0.7,0-1.3,0-1.7c0.7,1.4,1.2,3,1.3,4.5C10.1,40.7,12.1,40.7,12,39.4z"/>
			</g>
		</g>
		<g id="standing-frontal-man-silhouette-28" transform="translate(3527.455 1120.353)">
			<g id="Group_10339" transform="translate(0 0)">
				<ellipse id="Ellipse_7365" class="st0" cx="6" cy="28.9" rx="1.9" ry="1.9"/>
				<path id="Path_10839" class="st0" d="M12,39.4c-0.5-6.1-3.5-7.4-3.5-7.4c-1.9-1-4.1-0.8-5.8,0.5c-1.9,1.8-2.4,4.4-2.7,7
					c-0.2,1.3,1.9,1.3,2.1,0c0.1-1.5,0.5-3,1.2-4.4v1.5l0,7.2v5.7c0,0.6,0.4,1.1,1,1.1c0,0,0,0,0,0c0.6,0,1.1-0.5,1.1-1.1v-8.1h1
					v8.2c0,0.6,0.5,1,1.1,1c0.5,0,1-0.4,1-1v-5.7l0.1-7.2c0-0.7,0-1.3,0-1.7c0.7,1.4,1.2,3,1.3,4.5C10.1,40.7,12.1,40.7,12,39.4z"/>
			</g>
		</g>
		<g id="standing-frontal-man-silhouette-29" transform="translate(3527.455 969.419)">
			<g id="Group_10340" transform="translate(0 0)">
				<ellipse id="Ellipse_7366" class="st0" cx="6" cy="28.9" rx="1.9" ry="1.9"/>
				<path id="Path_10840" class="st0" d="M12,39.4c-0.5-6.1-3.5-7.4-3.5-7.4c-1.9-1-4.1-0.8-5.8,0.5c-1.9,1.8-2.4,4.4-2.7,7
					c-0.2,1.3,1.9,1.3,2.1,0c0.1-1.5,0.5-3,1.2-4.4v1.5l0,7.2v5.7c0,0.6,0.4,1.1,1,1.1c0,0,0,0,0,0c0.6,0,1.1-0.5,1.1-1.1v-8.1h1
					v8.2c0,0.6,0.5,1,1.1,1c0.5,0,1-0.4,1-1v-5.7l0.1-7.2c0-0.7,0-1.3,0-1.7c0.7,1.4,1.2,3,1.3,4.5C10.1,40.7,12.1,40.7,12,39.4z"/>
			</g>
		</g>
		<g id="standing-frontal-man-silhouette-30" transform="translate(3527.455 1044.776)">
			<g id="Group_10341" transform="translate(0 0)">
				<ellipse id="Ellipse_7367" class="st0" cx="6" cy="28.9" rx="1.9" ry="1.9"/>
				<path id="Path_10841" class="st0" d="M12,39.4c-0.5-6.1-3.5-7.4-3.5-7.4c-1.9-1-4.1-0.8-5.8,0.5c-1.9,1.8-2.4,4.4-2.7,7
					c-0.2,1.3,1.9,1.3,2.1,0c0.1-1.5,0.5-3,1.2-4.4v1.5l0,7.2v5.7c0,0.6,0.4,1.1,1,1.1c0,0,0,0,0,0c0.6,0,1.1-0.5,1.1-1.1v-8.1h1
					v8.2c0,0.6,0.5,1,1.1,1c0.5,0,1-0.4,1-1v-5.7l0.1-7.2c0-0.7,0-1.3,0-1.7c0.7,1.4,1.2,3,1.3,4.5C10.1,40.7,12.1,40.7,12,39.4z"/>
			</g>
		</g>
		<g id="standing-frontal-man-silhouette-31" transform="translate(3527.455 1095.16)">
			<g id="Group_10342" transform="translate(0 0)">
				<ellipse id="Ellipse_7368" class="st0" cx="6" cy="28.9" rx="1.9" ry="1.9"/>
				<path id="Path_10842" class="st0" d="M12,39.4c-0.5-6.1-3.5-7.4-3.5-7.4c-1.9-1-4.1-0.8-5.8,0.5c-1.9,1.8-2.4,4.4-2.7,7
					c-0.2,1.3,1.9,1.3,2.1,0c0.1-1.5,0.5-3,1.2-4.4v1.5l0,7.2v5.7c0,0.6,0.4,1.1,1,1.1c0,0,0,0,0,0c0.6,0,1.1-0.5,1.1-1.1v-8.1h1
					v8.2c0,0.6,0.5,1,1.1,1c0.5,0,1-0.4,1-1v-5.7l0.1-7.2c0-0.7,0-1.3,0-1.7c0.7,1.4,1.2,3,1.3,4.5C10.1,40.7,12.1,40.7,12,39.4z"/>
			</g>
		</g>
		<g id="standing-frontal-man-silhouette-32" transform="translate(3527.455 1145.545)">
			<g id="Group_10343" transform="translate(0 0)">
				<ellipse id="Ellipse_7369" class="st0" cx="6" cy="28.9" rx="1.9" ry="1.9"/>
				<path id="Path_10843" class="st0" d="M12,39.4c-0.5-6.1-3.5-7.4-3.5-7.4c-1.9-1-4.1-0.8-5.8,0.5c-1.9,1.8-2.4,4.4-2.7,7
					c-0.2,1.3,1.9,1.3,2.1,0c0.1-1.5,0.5-3,1.2-4.4v1.5l0,7.2v5.7c0,0.6,0.4,1.1,1,1.1c0,0,0,0,0,0c0.6,0,1.1-0.5,1.1-1.1v-8.1h1
					v8.2c0,0.6,0.5,1,1.1,1c0.5,0,1-0.4,1-1v-5.7l0.1-7.2c0-0.7,0-1.3,0-1.7c0.7,1.4,1.2,3,1.3,4.5C10.1,40.7,12.1,40.7,12,39.4z"/>
			</g>
		</g>
		<g id="standing-frontal-man-silhouette-33" transform="translate(3527.455 994.611)">
			<g id="Group_10344" transform="translate(0 0)">
				<ellipse id="Ellipse_7370" class="st0" cx="6" cy="28.9" rx="1.9" ry="1.9"/>
				<path id="Path_10844" class="st0" d="M12,39.4c-0.5-6.1-3.5-7.4-3.5-7.4c-1.9-1-4.1-0.8-5.8,0.5c-1.9,1.8-2.4,4.4-2.7,7
					c-0.2,1.3,1.9,1.3,2.1,0c0.1-1.5,0.5-3,1.2-4.4v1.5l0,7.2v5.7c0,0.6,0.4,1.1,1,1.1c0,0,0,0,0,0c0.6,0,1.1-0.5,1.1-1.1v-8.1h1
					v8.2c0,0.6,0.5,1,1.1,1c0.5,0,1-0.4,1-1v-5.7l0.1-7.2c0-0.7,0-1.3,0-1.7c0.7,1.4,1.2,3,1.3,4.5C10.1,40.7,12.1,40.7,12,39.4z"/>
			</g>
		</g>
		<g id="standing-frontal-man-silhouette-34" transform="translate(3472.259 868.968)">
			<g id="Group_10345" transform="translate(0 0)">
				<ellipse id="Ellipse_7371" class="st0" cx="6" cy="28.9" rx="1.9" ry="1.9"/>
				<path id="Path_10845" class="st0" d="M12,39.4c-0.5-6.1-3.5-7.4-3.5-7.4c-1.9-1-4.1-0.8-5.8,0.5c-1.9,1.8-2.4,4.4-2.7,7
					c-0.2,1.3,1.9,1.3,2.1,0c0.1-1.5,0.5-3,1.2-4.4v1.5l0,7.2v5.7c0,0.6,0.4,1.1,1,1.1c0,0,0,0,0,0c0.6,0,1.1-0.5,1.1-1.1v-8.1h1
					v8.2c0,0.6,0.5,1,1.1,1c0.5,0,1-0.4,1-1v-5.7l0.1-7.2c0-0.7,0-1.3,0-1.7c0.7,1.4,1.2,3,1.3,4.5C10.1,40.7,12.1,40.7,12,39.4z"/>
			</g>
		</g>
		<g id="standing-frontal-man-silhouette-35" transform="translate(3472.259 919.353)">
			<g id="Group_10346" transform="translate(0 0)">
				<ellipse id="Ellipse_7372" class="st0" cx="6" cy="28.9" rx="1.9" ry="1.9"/>
				<path id="Path_10846" class="st0" d="M12,39.4c-0.5-6.1-3.5-7.4-3.5-7.4c-1.9-1-4.1-0.8-5.8,0.5c-1.9,1.8-2.4,4.4-2.7,7
					c-0.2,1.3,1.9,1.3,2.1,0c0.1-1.5,0.5-3,1.2-4.4v1.5l0,7.2v5.7c0,0.6,0.4,1.1,1,1.1c0,0,0,0,0,0c0.6,0,1.1-0.5,1.1-1.1v-8.1h1
					v8.2c0,0.6,0.5,1,1.1,1c0.5,0,1-0.4,1-1v-5.7l0.1-7.2c0-0.7,0-1.3,0-1.7c0.7,1.4,1.2,3,1.3,4.5C10.1,40.7,12.1,40.7,12,39.4z"/>
			</g>
		</g>
		<g id="standing-frontal-man-silhouette-36" transform="translate(3527.259 919.353)">
			<g id="Group_10346-2" transform="translate(0 0)">
				<ellipse id="Ellipse_7372-2" class="st0" cx="6" cy="28.9" rx="1.9" ry="1.9"/>
				<path id="Path_10846-2" class="st0" d="M12,39.4c-0.5-6.1-3.5-7.4-3.5-7.4c-1.9-1-4.1-0.8-5.8,0.5c-1.9,1.8-2.4,4.4-2.7,7
					c-0.2,1.3,1.9,1.3,2.1,0c0.1-1.5,0.5-3,1.2-4.4v1.5l0,7.2v5.7c0,0.6,0.4,1.1,1,1.1c0,0,0,0,0,0c0.6,0,1.1-0.5,1.1-1.1v-8.1h1
					v8.2c0,0.6,0.5,1,1.1,1c0.5,0,1-0.4,1-1v-5.7l0.1-7.2c0-0.7,0-1.3,0-1.7c0.7,1.4,1.2,3,1.3,4.5C10.1,40.7,12.1,40.7,12,39.4z"/>
			</g>
		</g>
		<g id="standing-frontal-man-silhouette-37" transform="translate(3472.259 894.16)">
			<g id="Group_10348" transform="translate(0 0)">
				<ellipse id="Ellipse_7374" class="st0" cx="6" cy="28.9" rx="1.9" ry="1.9"/>
				<path id="Path_10848" class="st0" d="M12,39.4c-0.5-6.1-3.5-7.4-3.5-7.4c-1.9-1-4.1-0.8-5.8,0.5c-1.9,1.8-2.4,4.4-2.7,7
					c-0.2,1.3,1.9,1.3,2.1,0c0.1-1.5,0.5-3,1.2-4.4v1.5l0,7.2v5.7c0,0.6,0.4,1.1,1,1.1c0,0,0,0,0,0c0.6,0,1.1-0.5,1.1-1.1v-8.1h1
					v8.2c0,0.6,0.5,1,1.1,1c0.5,0,1-0.4,1-1v-5.7l0.1-7.2c0-0.7,0-1.3,0-1.7c0.7,1.4,1.2,3,1.3,4.5C10.1,40.7,12.1,40.7,12,39.4z"/>
			</g>
		</g>
		<g id="standing-frontal-man-silhouette-38" transform="translate(3527.259 894.16)">
			<g id="Group_10348-2" transform="translate(0 0)">
				<ellipse id="Ellipse_7374-2" class="st0" cx="6" cy="28.9" rx="1.9" ry="1.9"/>
				<path id="Path_10848-2" class="st0" d="M12,39.4c-0.5-6.1-3.5-7.4-3.5-7.4c-1.9-1-4.1-0.8-5.8,0.5c-1.9,1.8-2.4,4.4-2.7,7
					c-0.2,1.3,1.9,1.3,2.1,0c0.1-1.5,0.5-3,1.2-4.4v1.5l0,7.2v5.7c0,0.6,0.4,1.1,1,1.1c0,0,0,0,0,0c0.6,0,1.1-0.5,1.1-1.1v-8.1h1
					v8.2c0,0.6,0.5,1,1.1,1c0.5,0,1-0.4,1-1v-5.7l0.1-7.2c0-0.7,0-1.3,0-1.7c0.7,1.4,1.2,3,1.3,4.5C10.1,40.7,12.1,40.7,12,39.4z"/>
			</g>
		</g>
		<g id="standing-frontal-man-silhouette-39" transform="translate(3472.259 944.545)">
			<g id="Group_10349" transform="translate(0 0)">
				<ellipse id="Ellipse_7375" class="st0" cx="6" cy="28.9" rx="1.9" ry="1.9"/>
				<path id="Path_10849" class="st0" d="M12,39.4c-0.5-6.1-3.5-7.4-3.5-7.4c-1.9-1-4.1-0.8-5.8,0.5c-1.9,1.8-2.4,4.4-2.7,7
					c-0.2,1.3,1.9,1.3,2.1,0c0.1-1.5,0.5-3,1.2-4.4v1.5l0,7.2v5.7c0,0.6,0.4,1.1,1,1.1c0,0,0,0,0,0c0.6,0,1.1-0.5,1.1-1.1v-8.1h1
					v8.2c0,0.6,0.5,1,1.1,1c0.5,0,1-0.4,1-1v-5.7l0.1-7.2c0-0.7,0-1.3,0-1.7c0.7,1.4,1.2,3,1.3,4.5C10.1,40.7,12.1,40.7,12,39.4z"/>
			</g>
		</g>
		<g id="standing-frontal-man-silhouette-40" transform="translate(3527.259 944.545)">
			<g id="Group_10349-2" transform="translate(0 0)">
				<ellipse id="Ellipse_7375-2" class="st0" cx="6" cy="28.9" rx="1.9" ry="1.9"/>
				<path id="Path_10849-2" class="st0" d="M12,39.4c-0.5-6.1-3.5-7.4-3.5-7.4c-1.9-1-4.1-0.8-5.8,0.5c-1.9,1.8-2.4,4.4-2.7,7
					c-0.2,1.3,1.9,1.3,2.1,0c0.1-1.5,0.5-3,1.2-4.4v1.5l0,7.2v5.7c0,0.6,0.4,1.1,1,1.1c0,0,0,0,0,0c0.6,0,1.1-0.5,1.1-1.1v-8.1h1
					v8.2c0,0.6,0.5,1,1.1,1c0.5,0,1-0.4,1-1v-5.7l0.1-7.2c0-0.7,0-1.3,0-1.7c0.7,1.4,1.2,3,1.3,4.5C10.1,40.7,12.1,40.7,12,39.4z"/>
			</g>
		</g>
		<g id="standing-frontal-man-silhouette-41" transform="translate(3500.444 1220.584)">
			<g id="Group_10351" transform="translate(0 0)">
				<ellipse id="Ellipse_7377" class="st0" cx="6" cy="28.9" rx="1.9" ry="1.9"/>
				<path id="Path_10851" class="st0" d="M12,39.4c-0.5-6.1-3.5-7.4-3.5-7.4c-1.9-1-4.1-0.8-5.8,0.5c-1.9,1.8-2.4,4.4-2.7,7
					c-0.2,1.3,1.9,1.3,2.1,0c0.1-1.5,0.5-3,1.2-4.4v1.5l0,7.2v5.7c0,0.6,0.4,1.1,1,1.1c0,0,0,0,0,0c0.6,0,1.1-0.5,1.1-1.1v-8.1h1
					v8.2c0,0.6,0.5,1,1.1,1c0.5,0,1-0.4,1-1v-5.7l0.1-7.2c0-0.7,0-1.3,0-1.7c0.7,1.4,1.2,3,1.3,4.5C10.1,40.7,12.1,40.7,12,39.4z"/>
			</g>
		</g>
		<g id="standing-frontal-man-silhouette-42" transform="translate(3500.444 1270.968)">
			<g id="Group_10353" transform="translate(0 0)">
				<ellipse id="Ellipse_7379" class="st0" cx="6" cy="28.9" rx="1.9" ry="1.9"/>
				<path id="Path_10853" class="st0" d="M12,39.4c-0.5-6.1-3.5-7.4-3.5-7.4c-1.9-1-4.1-0.8-5.8,0.5c-1.9,1.8-2.4,4.4-2.7,7
					c-0.2,1.3,1.9,1.3,2.1,0c0.1-1.5,0.5-3,1.2-4.4v1.5l0,7.2v5.7c0,0.6,0.4,1.1,1,1.1c0,0,0,0,0,0c0.6,0,1.1-0.5,1.1-1.1v-8.1h1
					v8.2c0,0.6,0.5,1,1.1,1c0.5,0,1-0.4,1-1v-5.7l0.1-7.2c0-0.7,0-1.3,0-1.7c0.7,1.4,1.2,3,1.3,4.5C10.1,40.7,12.1,40.7,12,39.4z"/>
			</g>
		</g>
		<g id="standing-frontal-man-silhouette-43" transform="translate(3500.444 1321.353)">
			<g id="Group_10354" transform="translate(0 0)">
				<ellipse id="Ellipse_7380" class="st0" cx="6" cy="28.9" rx="1.9" ry="1.9"/>
				<path id="Path_10854" class="st0" d="M12,39.4c-0.5-6.1-3.5-7.4-3.5-7.4c-1.9-1-4.1-0.8-5.8,0.5c-1.9,1.8-2.4,4.4-2.7,7
					c-0.2,1.3,1.9,1.3,2.1,0c0.1-1.5,0.5-3,1.2-4.4v1.5l0,7.2v5.7c0,0.6,0.4,1.1,1,1.1c0,0,0,0,0,0c0.6,0,1.1-0.5,1.1-1.1v-8.1h1
					v8.2c0,0.6,0.5,1,1.1,1c0.5,0,1-0.4,1-1v-5.7l0.1-7.2c0-0.7,0-1.3,0-1.7c0.7,1.4,1.2,3,1.3,4.5C10.1,40.7,12.1,40.7,12,39.4z"/>
			</g>
		</g>
		<g id="standing-frontal-man-silhouette-44" transform="translate(3500.444 1170.419)">
			<g id="Group_10355" transform="translate(0 0)">
				<ellipse id="Ellipse_7381" class="st0" cx="6" cy="28.9" rx="1.9" ry="1.9"/>
				<path id="Path_10855" class="st0" d="M12,39.4c-0.5-6.1-3.5-7.4-3.5-7.4c-1.9-1-4.1-0.8-5.8,0.5c-1.9,1.8-2.4,4.4-2.7,7
					c-0.2,1.3,1.9,1.3,2.1,0c0.1-1.5,0.5-3,1.2-4.4v1.5l0,7.2v5.7c0,0.6,0.4,1.1,1,1.1c0,0,0,0,0,0c0.6,0,1.1-0.5,1.1-1.1v-8.1h1
					v8.2c0,0.6,0.5,1,1.1,1c0.5,0,1-0.4,1-1v-5.7l0.1-7.2c0-0.7,0-1.3,0-1.7c0.7,1.4,1.2,3,1.3,4.5C10.1,40.7,12.1,40.7,12,39.4z"/>
			</g>
		</g>
		<g id="standing-frontal-man-silhouette-45" transform="translate(3500.444 1245.776)">
			<g id="Group_10356" transform="translate(0 0)">
				<ellipse id="Ellipse_7382" class="st0" cx="6" cy="28.9" rx="1.9" ry="1.9"/>
				<path id="Path_10856" class="st0" d="M12,39.4c-0.5-6.1-3.5-7.4-3.5-7.4c-1.9-1-4.1-0.8-5.8,0.5c-1.9,1.8-2.4,4.4-2.7,7
					c-0.2,1.3,1.9,1.3,2.1,0c0.1-1.5,0.5-3,1.2-4.4v1.5l0,7.2v5.7c0,0.6,0.4,1.1,1,1.1c0,0,0,0,0,0c0.6,0,1.1-0.5,1.1-1.1v-8.1h1
					v8.2c0,0.6,0.5,1,1.1,1c0.5,0,1-0.4,1-1v-5.7l0.1-7.2c0-0.7,0-1.3,0-1.7c0.7,1.4,1.2,3,1.3,4.5C10.1,40.7,12.1,40.7,12,39.4z"/>
			</g>
		</g>
		<g id="standing-frontal-man-silhouette-46" transform="translate(3500.444 1296.16)">
			<g id="Group_10357" transform="translate(0 0)">
				<ellipse id="Ellipse_7383" class="st0" cx="6" cy="28.9" rx="1.9" ry="1.9"/>
				<path id="Path_10857" class="st0" d="M12,39.4c-0.5-6.1-3.5-7.4-3.5-7.4c-1.9-1-4.1-0.8-5.8,0.5c-1.9,1.8-2.4,4.4-2.7,7
					c-0.2,1.3,1.9,1.3,2.1,0c0.1-1.5,0.5-3,1.2-4.4v1.5l0,7.2v5.7c0,0.6,0.4,1.1,1,1.1c0,0,0,0,0,0c0.6,0,1.1-0.5,1.1-1.1v-8.1h1
					v8.2c0,0.6,0.5,1,1.1,1c0.5,0,1-0.4,1-1v-5.7l0.1-7.2c0-0.7,0-1.3,0-1.7c0.7,1.4,1.2,3,1.3,4.5C10.1,40.7,12.1,40.7,12,39.4z"/>
			</g>
		</g>
		<g id="standing-frontal-man-silhouette-47" transform="translate(3500.444 1346.545)">
			<g id="Group_10358" transform="translate(0 0)">
				<ellipse id="Ellipse_7384" class="st0" cx="6" cy="28.9" rx="1.9" ry="1.9"/>
				<path id="Path_10858" class="st0" d="M12,39.4c-0.5-6.1-3.5-7.4-3.5-7.4c-1.9-1-4.1-0.8-5.8,0.5c-1.9,1.8-2.4,4.4-2.7,7
					c-0.2,1.3,1.9,1.3,2.1,0c0.1-1.5,0.5-3,1.2-4.4v1.5l0,7.2v5.7c0,0.6,0.4,1.1,1,1.1c0,0,0,0,0,0c0.6,0,1.1-0.5,1.1-1.1v-8.1h1
					v8.2c0,0.6,0.5,1,1.1,1c0.5,0,1-0.4,1-1v-5.7l0.1-7.2c0-0.7,0-1.3,0-1.7c0.7,1.4,1.2,3,1.3,4.5C10.1,40.7,12.1,40.7,12,39.4z"/>
			</g>
		</g>
		<g id="standing-frontal-man-silhouette-48" transform="translate(3500.444 1195.611)">
			<g id="Group_10359" transform="translate(0 0)">
				<ellipse id="Ellipse_7385" class="st0" cx="6" cy="28.9" rx="1.9" ry="1.9"/>
				<path id="Path_10859" class="st0" d="M12,39.4c-0.5-6.1-3.5-7.4-3.5-7.4c-1.9-1-4.1-0.8-5.8,0.5c-1.9,1.8-2.4,4.4-2.7,7
					c-0.2,1.3,1.9,1.3,2.1,0c0.1-1.5,0.5-3,1.2-4.4v1.5l0,7.2v5.7c0,0.6,0.4,1.1,1,1.1c0,0,0,0,0,0c0.6,0,1.1-0.5,1.1-1.1v-8.1h1
					v8.2c0,0.6,0.5,1,1.1,1c0.5,0,1-0.4,1-1v-5.7l0.1-7.2c0-0.7,0-1.3,0-1.7c0.7,1.4,1.2,3,1.3,4.5C10.1,40.7,12.1,40.7,12,39.4z"/>
			</g>
		</g>
		<g id="standing-frontal-man-silhouette-49" transform="translate(3500.053 1019.584)">
			<g id="Group_10360" transform="translate(0 0)">
				<ellipse id="Ellipse_7386" class="st0" cx="6" cy="28.9" rx="1.9" ry="1.9"/>
				<path id="Path_10860" class="st0" d="M12,39.4c-0.5-6.1-3.5-7.4-3.5-7.4c-1.9-1-4.1-0.8-5.8,0.5c-1.9,1.8-2.4,4.4-2.7,7
					c-0.2,1.3,1.9,1.3,2.1,0c0.1-1.5,0.5-3,1.2-4.4v1.5l0,7.2v5.7c0,0.6,0.4,1.1,1,1.1c0,0,0,0,0,0c0.6,0,1.1-0.5,1.1-1.1v-8.1h1
					v8.2c0,0.6,0.5,1,1.1,1c0.5,0,1-0.4,1-1v-5.7l0.1-7.2c0-0.7,0-1.3,0-1.7c0.7,1.4,1.2,3,1.3,4.5C10.1,40.7,12.1,40.7,12,39.4z"/>
			</g>
		</g>
		<g id="standing-frontal-man-silhouette-50" transform="translate(3500.053 1069.968)">
			<g id="Group_10361" transform="translate(0 0)">
				<ellipse id="Ellipse_7387" class="st0" cx="6" cy="28.9" rx="1.9" ry="1.9"/>
				<path id="Path_10861" class="st0" d="M12,39.4c-0.5-6.1-3.5-7.4-3.5-7.4c-1.9-1-4.1-0.8-5.8,0.5c-1.9,1.8-2.4,4.4-2.7,7
					c-0.2,1.3,1.9,1.3,2.1,0c0.1-1.5,0.5-3,1.2-4.4v1.5l0,7.2v5.7c0,0.6,0.4,1.1,1,1.1c0,0,0,0,0,0c0.6,0,1.1-0.5,1.1-1.1v-8.1h1
					v8.2c0,0.6,0.5,1,1.1,1c0.5,0,1-0.4,1-1v-5.7l0.1-7.2c0-0.7,0-1.3,0-1.7c0.7,1.4,1.2,3,1.3,4.5C10.1,40.7,12.1,40.7,12,39.4z"/>
			</g>
		</g>
		<g id="standing-frontal-man-silhouette-51" transform="translate(3500.053 1120.353)">
			<g id="Group_10362" transform="translate(0 0)">
				<ellipse id="Ellipse_7388" class="st0" cx="6" cy="28.9" rx="1.9" ry="1.9"/>
				<path id="Path_10862" class="st0" d="M12,39.4c-0.5-6.1-3.5-7.4-3.5-7.4c-1.9-1-4.1-0.8-5.8,0.5c-1.9,1.8-2.4,4.4-2.7,7
					c-0.2,1.3,1.9,1.3,2.1,0c0.1-1.5,0.5-3,1.2-4.4v1.5l0,7.2v5.7c0,0.6,0.4,1.1,1,1.1c0,0,0,0,0,0c0.6,0,1.1-0.5,1.1-1.1v-8.1h1
					v8.2c0,0.6,0.5,1,1.1,1c0.5,0,1-0.4,1-1v-5.7l0.1-7.2c0-0.7,0-1.3,0-1.7c0.7,1.4,1.2,3,1.3,4.5C10.1,40.7,12.1,40.7,12,39.4z"/>
			</g>
		</g>
		<g id="standing-frontal-man-silhouette-52" transform="translate(3500.053 969.419)">
			<g id="Group_10363" transform="translate(0 0)">
				<ellipse id="Ellipse_7389" class="st0" cx="6" cy="28.9" rx="1.9" ry="1.9"/>
				<path id="Path_10863" class="st0" d="M12,39.4c-0.5-6.1-3.5-7.4-3.5-7.4c-1.9-1-4.1-0.8-5.8,0.5c-1.9,1.8-2.4,4.4-2.7,7
					c-0.2,1.3,1.9,1.3,2.1,0c0.1-1.5,0.5-3,1.2-4.4v1.5l0,7.2v5.7c0,0.6,0.4,1.1,1,1.1c0,0,0,0,0,0c0.6,0,1.1-0.5,1.1-1.1v-8.1h1
					v8.2c0,0.6,0.5,1,1.1,1c0.5,0,1-0.4,1-1v-5.7l0.1-7.2c0-0.7,0-1.3,0-1.7c0.7,1.4,1.2,3,1.3,4.5C10.1,40.7,12.1,40.7,12,39.4z"/>
			</g>
		</g>
		<g id="standing-frontal-man-silhouette-53" transform="translate(3500.053 1044.776)">
			<g id="Group_10364" transform="translate(0 0)">
				<ellipse id="Ellipse_7390" class="st0" cx="6" cy="28.9" rx="1.9" ry="1.9"/>
				<path id="Path_10864" class="st0" d="M12,39.4c-0.5-6.1-3.5-7.4-3.5-7.4c-1.9-1-4.1-0.8-5.8,0.5c-1.9,1.8-2.4,4.4-2.7,7
					c-0.2,1.3,1.9,1.3,2.1,0c0.1-1.5,0.5-3,1.2-4.4v1.5l0,7.2v5.7c0,0.6,0.4,1.1,1,1.1c0,0,0,0,0,0c0.6,0,1.1-0.5,1.1-1.1v-8.1h1
					v8.2c0,0.6,0.5,1,1.1,1c0.5,0,1-0.4,1-1v-5.7l0.1-7.2c0-0.7,0-1.3,0-1.7c0.7,1.4,1.2,3,1.3,4.5C10.1,40.7,12.1,40.7,12,39.4z"/>
			</g>
		</g>
		<g id="standing-frontal-man-silhouette-54" transform="translate(3500.053 1095.16)">
			<g id="Group_10365" transform="translate(0 0)">
				<ellipse id="Ellipse_7391" class="st0" cx="6" cy="28.9" rx="1.9" ry="1.9"/>
				<path id="Path_10865" class="st0" d="M12,39.4c-0.5-6.1-3.5-7.4-3.5-7.4c-1.9-1-4.1-0.8-5.8,0.5c-1.9,1.8-2.4,4.4-2.7,7
					c-0.2,1.3,1.9,1.3,2.1,0c0.1-1.5,0.5-3,1.2-4.4v1.5l0,7.2v5.7c0,0.6,0.4,1.1,1,1.1c0,0,0,0,0,0c0.6,0,1.1-0.5,1.1-1.1v-8.1h1
					v8.2c0,0.6,0.5,1,1.1,1c0.5,0,1-0.4,1-1v-5.7l0.1-7.2c0-0.7,0-1.3,0-1.7c0.7,1.4,1.2,3,1.3,4.5C10.1,40.7,12.1,40.7,12,39.4z"/>
			</g>
		</g>
		<g id="standing-frontal-man-silhouette-55" transform="translate(3500.053 1145.545)">
			<g id="Group_10366" transform="translate(0 0)">
				<ellipse id="Ellipse_7392" class="st0" cx="6" cy="28.9" rx="1.9" ry="1.9"/>
				<path id="Path_10866" class="st0" d="M12,39.4c-0.5-6.1-3.5-7.4-3.5-7.4c-1.9-1-4.1-0.8-5.8,0.5c-1.9,1.8-2.4,4.4-2.7,7
					c-0.2,1.3,1.9,1.3,2.1,0c0.1-1.5,0.5-3,1.2-4.4v1.5l0,7.2v5.7c0,0.6,0.4,1.1,1,1.1c0,0,0,0,0,0c0.6,0,1.1-0.5,1.1-1.1v-8.1h1
					v8.2c0,0.6,0.5,1,1.1,1c0.5,0,1-0.4,1-1v-5.7l0.1-7.2c0-0.7,0-1.3,0-1.7c0.7,1.4,1.2,3,1.3,4.5C10.1,40.7,12.1,40.7,12,39.4z"/>
			</g>
		</g>
		<g id="standing-frontal-man-silhouette-56" transform="translate(3500.053 994.611)">
			<g id="Group_10367" transform="translate(0 0)">
				<ellipse id="Ellipse_7393" class="st0" cx="6" cy="28.9" rx="1.9" ry="1.9"/>
				<path id="Path_10867" class="st0" d="M12,39.4c-0.5-6.1-3.5-7.4-3.5-7.4c-1.9-1-4.1-0.8-5.8,0.5c-1.9,1.8-2.4,4.4-2.7,7
					c-0.2,1.3,1.9,1.3,2.1,0c0.1-1.5,0.5-3,1.2-4.4v1.5l0,7.2v5.7c0,0.6,0.4,1.1,1,1.1c0,0,0,0,0,0c0.6,0,1.1-0.5,1.1-1.1v-8.1h1
					v8.2c0,0.6,0.5,1,1.1,1c0.5,0,1-0.4,1-1v-5.7l0.1-7.2c0-0.7,0-1.3,0-1.7c0.7,1.4,1.2,3,1.3,4.5C10.1,40.7,12.1,40.7,12,39.4z"/>
			</g>
		</g>
		<g id="standing-frontal-man-silhouette-57" transform="translate(3555.249 1220.584)">
			<g id="Group_10368" transform="translate(0 0)">
				<ellipse id="Ellipse_7394" class="st0" cx="6" cy="28.9" rx="1.9" ry="1.9"/>
				<path id="Path_10868" class="st0" d="M12,39.4c-0.5-6.1-3.5-7.4-3.5-7.4c-1.9-1-4.1-0.8-5.8,0.5c-1.9,1.8-2.4,4.4-2.7,7
					c-0.2,1.3,1.9,1.3,2.1,0c0.1-1.5,0.5-3,1.2-4.4v1.5l0,7.2v5.7c0,0.6,0.4,1.1,1,1.1c0,0,0,0,0,0c0.6,0,1.1-0.5,1.1-1.1v-8.1h1
					v8.2c0,0.6,0.5,1,1.1,1c0.5,0,1-0.4,1-1v-5.7l0.1-7.2c0-0.7,0-1.3,0-1.7c0.7,1.4,1.2,3,1.3,4.5C10.1,40.7,12.1,40.7,12,39.4z"/>
			</g>
		</g>
		<g id="standing-frontal-man-silhouette-58" transform="translate(3555.249 1270.968)">
			<g id="Group_10369" transform="translate(0 0)">
				<ellipse id="Ellipse_7395" class="st0" cx="6" cy="28.9" rx="1.9" ry="1.9"/>
				<path id="Path_10869" class="st0" d="M12,39.4c-0.5-6.1-3.5-7.4-3.5-7.4c-1.9-1-4.1-0.8-5.8,0.5c-1.9,1.8-2.4,4.4-2.7,7
					c-0.2,1.3,1.9,1.3,2.1,0c0.1-1.5,0.5-3,1.2-4.4v1.5l0,7.2v5.7c0,0.6,0.4,1.1,1,1.1c0,0,0,0,0,0c0.6,0,1.1-0.5,1.1-1.1v-8.1h1
					v8.2c0,0.6,0.5,1,1.1,1c0.5,0,1-0.4,1-1v-5.7l0.1-7.2c0-0.7,0-1.3,0-1.7c0.7,1.4,1.2,3,1.3,4.5C10.1,40.7,12.1,40.7,12,39.4z"/>
			</g>
		</g>
		<g id="standing-frontal-man-silhouette-59" transform="translate(3555.249 1321.353)">
			<g id="Group_10370" transform="translate(0 0)">
				<ellipse id="Ellipse_7396" class="st0" cx="6" cy="28.9" rx="1.9" ry="1.9"/>
				<path id="Path_10870" class="st0" d="M12,39.4c-0.5-6.1-3.5-7.4-3.5-7.4c-1.9-1-4.1-0.8-5.8,0.5c-1.9,1.8-2.4,4.4-2.7,7
					c-0.2,1.3,1.9,1.3,2.1,0c0.1-1.5,0.5-3,1.2-4.4v1.5l0,7.2v5.7c0,0.6,0.4,1.1,1,1.1c0,0,0,0,0,0c0.6,0,1.1-0.5,1.1-1.1v-8.1h1
					v8.2c0,0.6,0.5,1,1.1,1c0.5,0,1-0.4,1-1v-5.7l0.1-7.2c0-0.7,0-1.3,0-1.7c0.7,1.4,1.2,3,1.3,4.5C10.1,40.7,12.1,40.7,12,39.4z"/>
			</g>
		</g>
		<g id="standing-frontal-man-silhouette-60" transform="translate(3555.249 1170.419)">
			<g id="Group_10371" transform="translate(0 0)">
				<ellipse id="Ellipse_7397" class="st0" cx="6" cy="28.9" rx="1.9" ry="1.9"/>
				<path id="Path_10871" class="st0" d="M12,39.4c-0.5-6.1-3.5-7.4-3.5-7.4c-1.9-1-4.1-0.8-5.8,0.5c-1.9,1.8-2.4,4.4-2.7,7
					c-0.2,1.3,1.9,1.3,2.1,0c0.1-1.5,0.5-3,1.2-4.4v1.5l0,7.2v5.7c0,0.6,0.4,1.1,1,1.1c0,0,0,0,0,0c0.6,0,1.1-0.5,1.1-1.1v-8.1h1
					v8.2c0,0.6,0.5,1,1.1,1c0.5,0,1-0.4,1-1v-5.7l0.1-7.2c0-0.7,0-1.3,0-1.7c0.7,1.4,1.2,3,1.3,4.5C10.1,40.7,12.1,40.7,12,39.4z"/>
			</g>
		</g>
		<g id="standing-frontal-man-silhouette-61" transform="translate(3555.249 1245.776)">
			<g id="Group_10372" transform="translate(0 0)">
				<ellipse id="Ellipse_7398" class="st0" cx="6" cy="28.9" rx="1.9" ry="1.9"/>
				<path id="Path_10872" class="st0" d="M12,39.4c-0.5-6.1-3.5-7.4-3.5-7.4c-1.9-1-4.1-0.8-5.8,0.5c-1.9,1.8-2.4,4.4-2.7,7
					c-0.2,1.3,1.9,1.3,2.1,0c0.1-1.5,0.5-3,1.2-4.4v1.5l0,7.2v5.7c0,0.6,0.4,1.1,1,1.1c0,0,0,0,0,0c0.6,0,1.1-0.5,1.1-1.1v-8.1h1
					v8.2c0,0.6,0.5,1,1.1,1c0.5,0,1-0.4,1-1v-5.7l0.1-7.2c0-0.7,0-1.3,0-1.7c0.7,1.4,1.2,3,1.3,4.5C10.1,40.7,12.1,40.7,12,39.4z"/>
			</g>
		</g>
		<g id="standing-frontal-man-silhouette-62" transform="translate(3555.249 1296.16)">
			<g id="Group_10373" transform="translate(0 0)">
				<ellipse id="Ellipse_7399" class="st0" cx="6" cy="28.9" rx="1.9" ry="1.9"/>
				<path id="Path_10873" class="st0" d="M12,39.4c-0.5-6.1-3.5-7.4-3.5-7.4c-1.9-1-4.1-0.8-5.8,0.5c-1.9,1.8-2.4,4.4-2.7,7
					c-0.2,1.3,1.9,1.3,2.1,0c0.1-1.5,0.5-3,1.2-4.4v1.5l0,7.2v5.7c0,0.6,0.4,1.1,1,1.1c0,0,0,0,0,0c0.6,0,1.1-0.5,1.1-1.1v-8.1h1
					v8.2c0,0.6,0.5,1,1.1,1c0.5,0,1-0.4,1-1v-5.7l0.1-7.2c0-0.7,0-1.3,0-1.7c0.7,1.4,1.2,3,1.3,4.5C10.1,40.7,12.1,40.7,12,39.4z"/>
			</g>
		</g>
		<g id="standing-frontal-man-silhouette-63" transform="translate(3555.249 1346.545)">
			<g id="Group_10374" transform="translate(0 0)">
				<ellipse id="Ellipse_7400" class="st0" cx="6" cy="28.9" rx="1.9" ry="1.9"/>
				<path id="Path_10874" class="st0" d="M12,39.4c-0.5-6.1-3.5-7.4-3.5-7.4c-1.9-1-4.1-0.8-5.8,0.5c-1.9,1.8-2.4,4.4-2.7,7
					c-0.2,1.3,1.9,1.3,2.1,0c0.1-1.5,0.5-3,1.2-4.4v1.5l0,7.2v5.7c0,0.6,0.4,1.1,1,1.1c0,0,0,0,0,0c0.6,0,1.1-0.5,1.1-1.1v-8.1h1
					v8.2c0,0.6,0.5,1,1.1,1c0.5,0,1-0.4,1-1v-5.7l0.1-7.2c0-0.7,0-1.3,0-1.7c0.7,1.4,1.2,3,1.3,4.5C10.1,40.7,12.1,40.7,12,39.4z"/>
			</g>
		</g>
		<g id="standing-frontal-man-silhouette-64" transform="translate(3555.249 1195.611)">
			<g id="Group_10375" transform="translate(0 0)">
				<ellipse id="Ellipse_7401" class="st0" cx="6" cy="28.9" rx="1.9" ry="1.9"/>
				<path id="Path_10875" class="st0" d="M12,39.4c-0.5-6.1-3.5-7.4-3.5-7.4c-1.9-1-4.1-0.8-5.8,0.5c-1.9,1.8-2.4,4.4-2.7,7
					c-0.2,1.3,1.9,1.3,2.1,0c0.1-1.5,0.5-3,1.2-4.4v1.5l0,7.2v5.7c0,0.6,0.4,1.1,1,1.1c0,0,0,0,0,0c0.6,0,1.1-0.5,1.1-1.1v-8.1h1
					v8.2c0,0.6,0.5,1,1.1,1c0.5,0,1-0.4,1-1v-5.7l0.1-7.2c0-0.7,0-1.3,0-1.7c0.7,1.4,1.2,3,1.3,4.5C10.1,40.7,12.1,40.7,12,39.4z"/>
			</g>
		</g>
		<g id="standing-frontal-man-silhouette-65" transform="translate(3554.855 1069.968)">
			<g id="Group_10376" transform="translate(0 0)">
				<ellipse id="Ellipse_7402" class="st0" cx="6" cy="28.9" rx="1.9" ry="1.9"/>
				<path id="Path_10876" class="st0" d="M12,39.4c-0.5-6.1-3.5-7.4-3.5-7.4c-1.9-1-4.1-0.8-5.8,0.5c-1.9,1.8-2.4,4.4-2.7,7
					c-0.2,1.3,1.9,1.3,2.1,0c0.1-1.5,0.5-3,1.2-4.4v1.5l0,7.2v5.7c0,0.6,0.4,1.1,1,1.1c0,0,0,0,0,0c0.6,0,1.1-0.5,1.1-1.1v-8.1h1
					v8.2c0,0.6,0.5,1,1.1,1c0.5,0,1-0.4,1-1v-5.7l0.1-7.2c0-0.7,0-1.3,0-1.7c0.7,1.4,1.2,3,1.3,4.5C10.1,40.7,12.1,40.7,12,39.4z"/>
			</g>
		</g>
		<g id="standing-frontal-man-silhouette-66" transform="translate(3554.855 1120.353)">
			<g id="Group_10377" transform="translate(0 0)">
				<ellipse id="Ellipse_7403" class="st0" cx="6" cy="28.9" rx="1.9" ry="1.9"/>
				<path id="Path_10877" class="st0" d="M12,39.4c-0.5-6.1-3.5-7.4-3.5-7.4c-1.9-1-4.1-0.8-5.8,0.5c-1.9,1.8-2.4,4.4-2.7,7
					c-0.2,1.3,1.9,1.3,2.1,0c0.1-1.5,0.5-3,1.2-4.4v1.5l0,7.2v5.7c0,0.6,0.4,1.1,1,1.1c0,0,0,0,0,0c0.6,0,1.1-0.5,1.1-1.1v-8.1h1
					v8.2c0,0.6,0.5,1,1.1,1c0.5,0,1-0.4,1-1v-5.7l0.1-7.2c0-0.7,0-1.3,0-1.7c0.7,1.4,1.2,3,1.3,4.5C10.1,40.7,12.1,40.7,12,39.4z"/>
			</g>
		</g>
		<g id="standing-frontal-man-silhouette-67" transform="translate(3554.855 969.419)">
			<g id="Group_10378" transform="translate(0 0)">
				<ellipse id="Ellipse_7404" class="st0" cx="6" cy="28.9" rx="1.9" ry="1.9"/>
				<path id="Path_10878" class="st0" d="M12,39.4c-0.5-6.1-3.5-7.4-3.5-7.4c-1.9-1-4.1-0.8-5.8,0.5c-1.9,1.8-2.4,4.4-2.7,7
					c-0.2,1.3,1.9,1.3,2.1,0c0.1-1.5,0.5-3,1.2-4.4v1.5l0,7.2v5.7c0,0.6,0.4,1.1,1,1.1c0,0,0,0,0,0c0.6,0,1.1-0.5,1.1-1.1v-8.1h1
					v8.2c0,0.6,0.5,1,1.1,1c0.5,0,1-0.4,1-1v-5.7l0.1-7.2c0-0.7,0-1.3,0-1.7c0.7,1.4,1.2,3,1.3,4.5C10.1,40.7,12.1,40.7,12,39.4z"/>
			</g>
		</g>
		<g id="standing-frontal-man-silhouette-68" transform="translate(3554.855 1044.776)">
			<g id="Group_10379" transform="translate(0 0)">
				<ellipse id="Ellipse_7405" class="st0" cx="6" cy="28.9" rx="1.9" ry="1.9"/>
				<path id="Path_10879" class="st0" d="M12,39.4c-0.5-6.1-3.5-7.4-3.5-7.4c-1.9-1-4.1-0.8-5.8,0.5c-1.9,1.8-2.4,4.4-2.7,7
					c-0.2,1.3,1.9,1.3,2.1,0c0.1-1.5,0.5-3,1.2-4.4v1.5l0,7.2v5.7c0,0.6,0.4,1.1,1,1.1c0,0,0,0,0,0c0.6,0,1.1-0.5,1.1-1.1v-8.1h1
					v8.2c0,0.6,0.5,1,1.1,1c0.5,0,1-0.4,1-1v-5.7l0.1-7.2c0-0.7,0-1.3,0-1.7c0.7,1.4,1.2,3,1.3,4.5C10.1,40.7,12.1,40.7,12,39.4z"/>
			</g>
		</g>
		<g id="standing-frontal-man-silhouette-69" transform="translate(3554.855 1095.16)">
			<g id="Group_10380" transform="translate(0 0)">
				<ellipse id="Ellipse_7406" class="st0" cx="6" cy="28.9" rx="1.9" ry="1.9"/>
				<path id="Path_10880" class="st0" d="M12,39.4c-0.5-6.1-3.5-7.4-3.5-7.4c-1.9-1-4.1-0.8-5.8,0.5c-1.9,1.8-2.4,4.4-2.7,7
					c-0.2,1.3,1.9,1.3,2.1,0c0.1-1.5,0.5-3,1.2-4.4v1.5l0,7.2v5.7c0,0.6,0.4,1.1,1,1.1c0,0,0,0,0,0c0.6,0,1.1-0.5,1.1-1.1v-8.1h1
					v8.2c0,0.6,0.5,1,1.1,1c0.5,0,1-0.4,1-1v-5.7l0.1-7.2c0-0.7,0-1.3,0-1.7c0.7,1.4,1.2,3,1.3,4.5C10.1,40.7,12.1,40.7,12,39.4z"/>
			</g>
		</g>
		<g id="standing-frontal-man-silhouette-70" transform="translate(3554.855 1145.545)">
			<g id="Group_10381" transform="translate(0 0)">
				<ellipse id="Ellipse_7407" class="st0" cx="6" cy="28.9" rx="1.9" ry="1.9"/>
				<path id="Path_10881" class="st0" d="M12,39.4c-0.5-6.1-3.5-7.4-3.5-7.4c-1.9-1-4.1-0.8-5.8,0.5c-1.9,1.8-2.4,4.4-2.7,7
					c-0.2,1.3,1.9,1.3,2.1,0c0.1-1.5,0.5-3,1.2-4.4v1.5l0,7.2v5.7c0,0.6,0.4,1.1,1,1.1c0,0,0,0,0,0c0.6,0,1.1-0.5,1.1-1.1v-8.1h1
					v8.2c0,0.6,0.5,1,1.1,1c0.5,0,1-0.4,1-1v-5.7l0.1-7.2c0-0.7,0-1.3,0-1.7c0.7,1.4,1.2,3,1.3,4.5C10.1,40.7,12.1,40.7,12,39.4z"/>
			</g>
		</g>
		<g id="standing-frontal-man-silhouette-71" transform="translate(3554.855 994.611)">
			<g id="Group_10382" transform="translate(0 0)">
				<ellipse id="Ellipse_7408" class="st0" cx="6" cy="28.9" rx="1.9" ry="1.9"/>
				<path id="Path_10882" class="st0" d="M12,39.4c-0.5-6.1-3.5-7.4-3.5-7.4c-1.9-1-4.1-0.8-5.8,0.5c-1.9,1.8-2.4,4.4-2.7,7
					c-0.2,1.3,1.9,1.3,2.1,0c0.1-1.5,0.5-3,1.2-4.4v1.5l0,7.2v5.7c0,0.6,0.4,1.1,1,1.1c0,0,0,0,0,0c0.6,0,1.1-0.5,1.1-1.1v-8.1h1
					v8.2c0,0.6,0.5,1,1.1,1c0.5,0,1-0.4,1-1v-5.7l0.1-7.2c0-0.7,0-1.3,0-1.7c0.7,1.4,1.2,3,1.3,4.5C10.1,40.7,12.1,40.7,12,39.4z"/>
			</g>
		</g>
		<g id="standing-frontal-man-silhouette-72" transform="translate(3499.66 868.968)">
			<g id="Group_10383" transform="translate(0 0)">
				<ellipse id="Ellipse_7409" class="st0" cx="6" cy="28.9" rx="1.9" ry="1.9"/>
				<path id="Path_10883" class="st0" d="M12,39.4c-0.5-6.1-3.5-7.4-3.5-7.4c-1.9-1-4.1-0.8-5.8,0.5c-1.9,1.8-2.4,4.4-2.7,7
					c-0.2,1.3,1.9,1.3,2.1,0c0.1-1.5,0.5-3,1.2-4.4v1.5l0,7.2v5.7c0,0.6,0.4,1.1,1,1.1c0,0,0,0,0,0c0.6,0,1.1-0.5,1.1-1.1v-8.1h1
					v8.2c0,0.6,0.5,1,1.1,1c0.5,0,1-0.4,1-1v-5.7l0.1-7.2c0-0.7,0-1.3,0-1.7c0.7,1.4,1.2,3,1.3,4.5C10.1,40.7,12.1,40.7,12,39.4z"/>
			</g>
		</g>
		<g id="standing-frontal-man-silhouette-73" transform="translate(3499.66 919.353)">
			<g id="Group_10384" transform="translate(0 0)">
				<ellipse id="Ellipse_7410" class="st0" cx="6" cy="28.9" rx="1.9" ry="1.9"/>
				<path id="Path_10884" class="st0" d="M12,39.4c-0.5-6.1-3.5-7.4-3.5-7.4c-1.9-1-4.1-0.8-5.8,0.5c-1.9,1.8-2.4,4.4-2.7,7
					c-0.2,1.3,1.9,1.3,2.1,0c0.1-1.5,0.5-3,1.2-4.4v1.5l0,7.2v5.7c0,0.6,0.4,1.1,1,1.1c0,0,0,0,0,0c0.6,0,1.1-0.5,1.1-1.1v-8.1h1
					v8.2c0,0.6,0.5,1,1.1,1c0.5,0,1-0.4,1-1v-5.7l0.1-7.2c0-0.7,0-1.3,0-1.7c0.7,1.4,1.2,3,1.3,4.5C10.1,40.7,12.1,40.7,12,39.4z"/>
			</g>
		</g>
		<g id="standing-frontal-man-silhouette-74" transform="translate(3554.66 919.353)">
			<g id="Group_10384-2" transform="translate(0 0)">
				<ellipse id="Ellipse_7410-2" class="st0" cx="6" cy="28.9" rx="1.9" ry="1.9"/>
				<path id="Path_10884-2" class="st0" d="M12,39.4c-0.5-6.1-3.5-7.4-3.5-7.4c-1.9-1-4.1-0.8-5.8,0.5c-1.9,1.8-2.4,4.4-2.7,7
					c-0.2,1.3,1.9,1.3,2.1,0c0.1-1.5,0.5-3,1.2-4.4v1.5l0,7.2v5.7c0,0.6,0.4,1.1,1,1.1c0,0,0,0,0,0c0.6,0,1.1-0.5,1.1-1.1v-8.1h1
					v8.2c0,0.6,0.5,1,1.1,1c0.5,0,1-0.4,1-1v-5.7l0.1-7.2c0-0.7,0-1.3,0-1.7c0.7,1.4,1.2,3,1.3,4.5C10.1,40.7,12.1,40.7,12,39.4z"/>
			</g>
		</g>
		<g id="standing-frontal-man-silhouette-75" transform="translate(3499.66 894.16)">
			<g id="Group_10386" transform="translate(0 0)">
				<ellipse id="Ellipse_7412" class="st0" cx="6" cy="28.9" rx="1.9" ry="1.9"/>
				<path id="Path_10886" class="st0" d="M12,39.4c-0.5-6.1-3.5-7.4-3.5-7.4c-1.9-1-4.1-0.8-5.8,0.5c-1.9,1.8-2.4,4.4-2.7,7
					c-0.2,1.3,1.9,1.3,2.1,0c0.1-1.5,0.5-3,1.2-4.4v1.5l0,7.2v5.7c0,0.6,0.4,1.1,1,1.1c0,0,0,0,0,0c0.6,0,1.1-0.5,1.1-1.1v-8.1h1
					v8.2c0,0.6,0.5,1,1.1,1c0.5,0,1-0.4,1-1v-5.7l0.1-7.2c0-0.7,0-1.3,0-1.7c0.7,1.4,1.2,3,1.3,4.5C10.1,40.7,12.1,40.7,12,39.4z"/>
			</g>
		</g>
		<g id="standing-frontal-man-silhouette-76" transform="translate(3554.66 894.16)">
			<g id="Group_10386-2" transform="translate(0 0)">
				<ellipse id="Ellipse_7412-2" class="st0" cx="6" cy="28.9" rx="1.9" ry="1.9"/>
				<path id="Path_10886-2" class="st0" d="M12,39.4c-0.5-6.1-3.5-7.4-3.5-7.4c-1.9-1-4.1-0.8-5.8,0.5c-1.9,1.8-2.4,4.4-2.7,7
					c-0.2,1.3,1.9,1.3,2.1,0c0.1-1.5,0.5-3,1.2-4.4v1.5l0,7.2v5.7c0,0.6,0.4,1.1,1,1.1c0,0,0,0,0,0c0.6,0,1.1-0.5,1.1-1.1v-8.1h1
					v8.2c0,0.6,0.5,1,1.1,1c0.5,0,1-0.4,1-1v-5.7l0.1-7.2c0-0.7,0-1.3,0-1.7c0.7,1.4,1.2,3,1.3,4.5C10.1,40.7,12.1,40.7,12,39.4z"/>
			</g>
		</g>
		<g id="standing-frontal-man-silhouette-77" transform="translate(3499.66 944.545)">
			<g id="Group_10387" transform="translate(0 0)">
				<ellipse id="Ellipse_7413" class="st0" cx="6" cy="28.9" rx="1.9" ry="1.9"/>
				<path id="Path_10887" class="st0" d="M12,39.4c-0.5-6.1-3.5-7.4-3.5-7.4c-1.9-1-4.1-0.8-5.8,0.5c-1.9,1.8-2.4,4.4-2.7,7
					c-0.2,1.3,1.9,1.3,2.1,0c0.1-1.5,0.5-3,1.2-4.4v1.5l0,7.2v5.7c0,0.6,0.4,1.1,1,1.1c0,0,0,0,0,0c0.6,0,1.1-0.5,1.1-1.1v-8.1h1
					v8.2c0,0.6,0.5,1,1.1,1c0.5,0,1-0.4,1-1v-5.7l0.1-7.2c0-0.7,0-1.3,0-1.7c0.7,1.4,1.2,3,1.3,4.5C10.1,40.7,12.1,40.7,12,39.4z"/>
			</g>
		</g>
		<g id="standing-frontal-man-silhouette-78" transform="translate(3554.66 944.545)">
			<g id="Group_10387-2" transform="translate(0 0)">
				<ellipse id="Ellipse_7413-2" class="st0" cx="6" cy="28.9" rx="1.9" ry="1.9"/>
				<path id="Path_10887-2" class="st0" d="M12,39.4c-0.5-6.1-3.5-7.4-3.5-7.4c-1.9-1-4.1-0.8-5.8,0.5c-1.9,1.8-2.4,4.4-2.7,7
					c-0.2,1.3,1.9,1.3,2.1,0c0.1-1.5,0.5-3,1.2-4.4v1.5l0,7.2v5.7c0,0.6,0.4,1.1,1,1.1c0,0,0,0,0,0c0.6,0,1.1-0.5,1.1-1.1v-8.1h1
					v8.2c0,0.6,0.5,1,1.1,1c0.5,0,1-0.4,1-1v-5.7l0.1-7.2c0-0.7,0-1.3,0-1.7c0.7,1.4,1.2,3,1.3,4.5C10.1,40.7,12.1,40.7,12,39.4z"/>
			</g>
		</g>
		<g id="standing-frontal-man-silhouette-79" transform="translate(3486.744 1220.584)">
			<g id="Group_10389" transform="translate(0 0)">
				<ellipse id="Ellipse_7415" class="st0" cx="6" cy="28.9" rx="1.9" ry="1.9"/>
				<path id="Path_10889" class="st0" d="M12,39.4c-0.5-6.1-3.5-7.4-3.5-7.4c-1.9-1-4.1-0.8-5.8,0.5c-1.9,1.8-2.4,4.4-2.7,7
					c-0.2,1.3,1.9,1.3,2.1,0c0.1-1.5,0.5-3,1.2-4.4v1.5l0,7.2v5.7c0,0.6,0.4,1.1,1,1.1c0,0,0,0,0,0c0.6,0,1.1-0.5,1.1-1.1v-8.1h1
					v8.2c0,0.6,0.5,1,1.1,1c0.5,0,1-0.4,1-1v-5.7l0.1-7.2c0-0.7,0-1.3,0-1.7c0.7,1.4,1.2,3,1.3,4.5C10.1,40.7,12.1,40.7,12,39.4z"/>
			</g>
		</g>
		<g id="standing-frontal-man-silhouette-80" transform="translate(3569.004 1019.584)">
			<g id="Group_10390" transform="translate(0 0)">
				<ellipse id="Ellipse_7416" class="st0" cx="6" cy="28.9" rx="1.9" ry="1.9"/>
				<path id="Path_10890" class="st0" d="M12,39.4c-0.5-6.1-3.5-7.4-3.5-7.4c-1.9-1-4.1-0.8-5.8,0.5c-1.9,1.8-2.4,4.4-2.7,7
					c-0.2,1.3,1.9,1.3,2.1,0c0.1-1.5,0.5-3,1.2-4.4v1.5l0,7.2v5.7c0,0.6,0.4,1.1,1,1.1c0,0,0,0,0,0c0.6,0,1.1-0.5,1.1-1.1v-8.1h1
					v8.2c0,0.6,0.5,1,1.1,1c0.5,0,1-0.4,1-1v-5.7l0.1-7.2c0-0.7,0-1.3,0-1.7c0.7,1.4,1.2,3,1.3,4.5C10.1,40.7,12.1,40.7,12,39.4z"/>
			</g>
		</g>
		<g id="standing-frontal-man-silhouette-81" transform="translate(3486.744 1270.968)">
			<g id="Group_10391" transform="translate(0 0)">
				<ellipse id="Ellipse_7417" class="st0" cx="6" cy="28.9" rx="1.9" ry="1.9"/>
				<path id="Path_10891" class="st0" d="M12,39.4c-0.5-6.1-3.5-7.4-3.5-7.4c-1.9-1-4.1-0.8-5.8,0.5c-1.9,1.8-2.4,4.4-2.7,7
					c-0.2,1.3,1.9,1.3,2.1,0c0.1-1.5,0.5-3,1.2-4.4v1.5l0,7.2v5.7c0,0.6,0.4,1.1,1,1.1c0,0,0,0,0,0c0.6,0,1.1-0.5,1.1-1.1v-8.1h1
					v8.2c0,0.6,0.5,1,1.1,1c0.5,0,1-0.4,1-1v-5.7l0.1-7.2c0-0.7,0-1.3,0-1.7c0.7,1.4,1.2,3,1.3,4.5C10.1,40.7,12.1,40.7,12,39.4z"/>
			</g>
		</g>
		<g id="standing-frontal-man-silhouette-82" transform="translate(3486.744 1321.353)">
			<g id="Group_10392" transform="translate(0 0)">
				<ellipse id="Ellipse_7418" class="st0" cx="6" cy="28.9" rx="1.9" ry="1.9"/>
				<path id="Path_10892" class="st0" d="M12,39.4c-0.5-6.1-3.5-7.4-3.5-7.4c-1.9-1-4.1-0.8-5.8,0.5c-1.9,1.8-2.4,4.4-2.7,7
					c-0.2,1.3,1.9,1.3,2.1,0c0.1-1.5,0.5-3,1.2-4.4v1.5l0,7.2v5.7c0,0.6,0.4,1.1,1,1.1c0,0,0,0,0,0c0.6,0,1.1-0.5,1.1-1.1v-8.1h1
					v8.2c0,0.6,0.5,1,1.1,1c0.5,0,1-0.4,1-1v-5.7l0.1-7.2c0-0.7,0-1.3,0-1.7c0.7,1.4,1.2,3,1.3,4.5C10.1,40.7,12.1,40.7,12,39.4z"/>
			</g>
		</g>
		<g id="standing-frontal-man-silhouette-83" transform="translate(3486.744 1170.419)">
			<g id="Group_10393" transform="translate(0 0)">
				<ellipse id="Ellipse_7419" class="st0" cx="6" cy="28.9" rx="1.9" ry="1.9"/>
				<path id="Path_10893" class="st0" d="M12,39.4c-0.5-6.1-3.5-7.4-3.5-7.4c-1.9-1-4.1-0.8-5.8,0.5c-1.9,1.8-2.4,4.4-2.7,7
					c-0.2,1.3,1.9,1.3,2.1,0c0.1-1.5,0.5-3,1.2-4.4v1.5l0,7.2v5.7c0,0.6,0.4,1.1,1,1.1c0,0,0,0,0,0c0.6,0,1.1-0.5,1.1-1.1v-8.1h1
					v8.2c0,0.6,0.5,1,1.1,1c0.5,0,1-0.4,1-1v-5.7l0.1-7.2c0-0.7,0-1.3,0-1.7c0.7,1.4,1.2,3,1.3,4.5C10.1,40.7,12.1,40.7,12,39.4z"/>
			</g>
		</g>
		<g id="standing-frontal-man-silhouette-84" transform="translate(3486.744 1245.776)">
			<g id="Group_10394" transform="translate(0 0)">
				<ellipse id="Ellipse_7420" class="st0" cx="6" cy="28.9" rx="1.9" ry="1.9"/>
				<path id="Path_10894" class="st0" d="M12,39.4c-0.5-6.1-3.5-7.4-3.5-7.4c-1.9-1-4.1-0.8-5.8,0.5c-1.9,1.8-2.4,4.4-2.7,7
					c-0.2,1.3,1.9,1.3,2.1,0c0.1-1.5,0.5-3,1.2-4.4v1.5l0,7.2v5.7c0,0.6,0.4,1.1,1,1.1c0,0,0,0,0,0c0.6,0,1.1-0.5,1.1-1.1v-8.1h1
					v8.2c0,0.6,0.5,1,1.1,1c0.5,0,1-0.4,1-1v-5.7l0.1-7.2c0-0.7,0-1.3,0-1.7c0.7,1.4,1.2,3,1.3,4.5C10.1,40.7,12.1,40.7,12,39.4z"/>
			</g>
		</g>
		<g id="standing-frontal-man-silhouette-85" transform="translate(3486.744 1296.16)">
			<g id="Group_10395" transform="translate(0 0)">
				<ellipse id="Ellipse_7421" class="st0" cx="6" cy="28.9" rx="1.9" ry="1.9"/>
				<path id="Path_10895" class="st0" d="M12,39.4c-0.5-6.1-3.5-7.4-3.5-7.4c-1.9-1-4.1-0.8-5.8,0.5c-1.9,1.8-2.4,4.4-2.7,7
					c-0.2,1.3,1.9,1.3,2.1,0c0.1-1.5,0.5-3,1.2-4.4v1.5l0,7.2v5.7c0,0.6,0.4,1.1,1,1.1c0,0,0,0,0,0c0.6,0,1.1-0.5,1.1-1.1v-8.1h1
					v8.2c0,0.6,0.5,1,1.1,1c0.5,0,1-0.4,1-1v-5.7l0.1-7.2c0-0.7,0-1.3,0-1.7c0.7,1.4,1.2,3,1.3,4.5C10.1,40.7,12.1,40.7,12,39.4z"/>
			</g>
		</g>
		<g id="standing-frontal-man-silhouette-86" transform="translate(3486.744 1346.545)">
			<g id="Group_10396" transform="translate(0 0)">
				<ellipse id="Ellipse_7422" class="st0" cx="6" cy="28.9" rx="1.9" ry="1.9"/>
				<path id="Path_10896" class="st0" d="M12,39.4c-0.5-6.1-3.5-7.4-3.5-7.4c-1.9-1-4.1-0.8-5.8,0.5c-1.9,1.8-2.4,4.4-2.7,7
					c-0.2,1.3,1.9,1.3,2.1,0c0.1-1.5,0.5-3,1.2-4.4v1.5l0,7.2v5.7c0,0.6,0.4,1.1,1,1.1c0,0,0,0,0,0c0.6,0,1.1-0.5,1.1-1.1v-8.1h1
					v8.2c0,0.6,0.5,1,1.1,1c0.5,0,1-0.4,1-1v-5.7l0.1-7.2c0-0.7,0-1.3,0-1.7c0.7,1.4,1.2,3,1.3,4.5C10.1,40.7,12.1,40.7,12,39.4z"/>
			</g>
		</g>
		<g id="standing-frontal-man-silhouette-87" transform="translate(3486.744 1195.611)">
			<g id="Group_10397" transform="translate(0 0)">
				<ellipse id="Ellipse_7423" class="st0" cx="6" cy="28.9" rx="1.9" ry="1.9"/>
				<path id="Path_10897" class="st0" d="M12,39.4c-0.5-6.1-3.5-7.4-3.5-7.4c-1.9-1-4.1-0.8-5.8,0.5c-1.9,1.8-2.4,4.4-2.7,7
					c-0.2,1.3,1.9,1.3,2.1,0c0.1-1.5,0.5-3,1.2-4.4v1.5l0,7.2v5.7c0,0.6,0.4,1.1,1,1.1c0,0,0,0,0,0c0.6,0,1.1-0.5,1.1-1.1v-8.1h1
					v8.2c0,0.6,0.5,1,1.1,1c0.5,0,1-0.4,1-1v-5.7l0.1-7.2c0-0.7,0-1.3,0-1.7c0.7,1.4,1.2,3,1.3,4.5C10.1,40.7,12.1,40.7,12,39.4z"/>
			</g>
		</g>
		<g id="standing-frontal-man-silhouette-88" transform="translate(3486.352 1019.584)">
			<g id="Group_10398" transform="translate(0 0)">
				<ellipse id="Ellipse_7424" class="st0" cx="6" cy="28.9" rx="1.9" ry="1.9"/>
				<path id="Path_10898" class="st0" d="M12,39.4c-0.5-6.1-3.5-7.4-3.5-7.4c-1.9-1-4.1-0.8-5.8,0.5c-1.9,1.8-2.4,4.4-2.7,7
					c-0.2,1.3,1.9,1.3,2.1,0c0.1-1.5,0.5-3,1.2-4.4v1.5l0,7.2v5.7c0,0.6,0.4,1.1,1,1.1c0,0,0,0,0,0c0.6,0,1.1-0.5,1.1-1.1v-8.1h1
					v8.2c0,0.6,0.5,1,1.1,1c0.5,0,1-0.4,1-1v-5.7l0.1-7.2c0-0.7,0-1.3,0-1.7c0.7,1.4,1.2,3,1.3,4.5C10.1,40.7,12.1,40.7,12,39.4z"/>
			</g>
		</g>
		<g id="standing-frontal-man-silhouette-89" transform="translate(3486.352 1069.968)">
			<g id="Group_10399" transform="translate(0 0)">
				<ellipse id="Ellipse_7425" class="st0" cx="6" cy="28.9" rx="1.9" ry="1.9"/>
				<path id="Path_10899" class="st0" d="M12,39.4c-0.5-6.1-3.5-7.4-3.5-7.4c-1.9-1-4.1-0.8-5.8,0.5c-1.9,1.8-2.4,4.4-2.7,7
					c-0.2,1.3,1.9,1.3,2.1,0c0.1-1.5,0.5-3,1.2-4.4v1.5l0,7.2v5.7c0,0.6,0.4,1.1,1,1.1c0,0,0,0,0,0c0.6,0,1.1-0.5,1.1-1.1v-8.1h1
					v8.2c0,0.6,0.5,1,1.1,1c0.5,0,1-0.4,1-1v-5.7l0.1-7.2c0-0.7,0-1.3,0-1.7c0.7,1.4,1.2,3,1.3,4.5C10.1,40.7,12.1,40.7,12,39.4z"/>
			</g>
		</g>
		<g id="standing-frontal-man-silhouette-90" transform="translate(3486.352 1120.353)">
			<g id="Group_10400" transform="translate(0 0)">
				<ellipse id="Ellipse_7426" class="st0" cx="6" cy="28.9" rx="1.9" ry="1.9"/>
				<path id="Path_10900" class="st0" d="M12,39.4c-0.5-6.1-3.5-7.4-3.5-7.4c-1.9-1-4.1-0.8-5.8,0.5c-1.9,1.8-2.4,4.4-2.7,7
					c-0.2,1.3,1.9,1.3,2.1,0c0.1-1.5,0.5-3,1.2-4.4v1.5l0,7.2v5.7c0,0.6,0.4,1.1,1,1.1c0,0,0,0,0,0c0.6,0,1.1-0.5,1.1-1.1v-8.1h1
					v8.2c0,0.6,0.5,1,1.1,1c0.5,0,1-0.4,1-1v-5.7l0.1-7.2c0-0.7,0-1.3,0-1.7c0.7,1.4,1.2,3,1.3,4.5C10.1,40.7,12.1,40.7,12,39.4z"/>
			</g>
		</g>
		<g id="standing-frontal-man-silhouette-91" transform="translate(3486.352 969.419)">
			<g id="Group_10401" transform="translate(0 0)">
				<ellipse id="Ellipse_7427" class="st0" cx="6" cy="28.9" rx="1.9" ry="1.9"/>
				<path id="Path_10901" class="st0" d="M12,39.4c-0.5-6.1-3.5-7.4-3.5-7.4c-1.9-1-4.1-0.8-5.8,0.5c-1.9,1.8-2.4,4.4-2.7,7
					c-0.2,1.3,1.9,1.3,2.1,0c0.1-1.5,0.5-3,1.2-4.4v1.5l0,7.2v5.7c0,0.6,0.4,1.1,1,1.1c0,0,0,0,0,0c0.6,0,1.1-0.5,1.1-1.1v-8.1h1
					v8.2c0,0.6,0.5,1,1.1,1c0.5,0,1-0.4,1-1v-5.7l0.1-7.2c0-0.7,0-1.3,0-1.7c0.7,1.4,1.2,3,1.3,4.5C10.1,40.7,12.1,40.7,12,39.4z"/>
			</g>
		</g>
		<g id="standing-frontal-man-silhouette-92" transform="translate(3486.352 1044.776)">
			<g id="Group_10402" transform="translate(0 0)">
				<ellipse id="Ellipse_7428" class="st0" cx="6" cy="28.9" rx="1.9" ry="1.9"/>
				<path id="Path_10902" class="st0" d="M12,39.4c-0.5-6.1-3.5-7.4-3.5-7.4c-1.9-1-4.1-0.8-5.8,0.5c-1.9,1.8-2.4,4.4-2.7,7
					c-0.2,1.3,1.9,1.3,2.1,0c0.1-1.5,0.5-3,1.2-4.4v1.5l0,7.2v5.7c0,0.6,0.4,1.1,1,1.1c0,0,0,0,0,0c0.6,0,1.1-0.5,1.1-1.1v-8.1h1
					v8.2c0,0.6,0.5,1,1.1,1c0.5,0,1-0.4,1-1v-5.7l0.1-7.2c0-0.7,0-1.3,0-1.7c0.7,1.4,1.2,3,1.3,4.5C10.1,40.7,12.1,40.7,12,39.4z"/>
			</g>
		</g>
		<g id="standing-frontal-man-silhouette-93" transform="translate(3486.352 1095.16)">
			<g id="Group_10403" transform="translate(0 0)">
				<ellipse id="Ellipse_7429" class="st0" cx="6" cy="28.9" rx="1.9" ry="1.9"/>
				<path id="Path_10903" class="st0" d="M12,39.4c-0.5-6.1-3.5-7.4-3.5-7.4c-1.9-1-4.1-0.8-5.8,0.5c-1.9,1.8-2.4,4.4-2.7,7
					c-0.2,1.3,1.9,1.3,2.1,0c0.1-1.5,0.5-3,1.2-4.4v1.5l0,7.2v5.7c0,0.6,0.4,1.1,1,1.1c0,0,0,0,0,0c0.6,0,1.1-0.5,1.1-1.1v-8.1h1
					v8.2c0,0.6,0.5,1,1.1,1c0.5,0,1-0.4,1-1v-5.7l0.1-7.2c0-0.7,0-1.3,0-1.7c0.7,1.4,1.2,3,1.3,4.5C10.1,40.7,12.1,40.7,12,39.4z"/>
			</g>
		</g>
		<g id="standing-frontal-man-silhouette-94" transform="translate(3486.352 1145.545)">
			<g id="Group_10404" transform="translate(0 0)">
				<ellipse id="Ellipse_7430" class="st0" cx="6" cy="28.9" rx="1.9" ry="1.9"/>
				<path id="Path_10904" class="st0" d="M12,39.4c-0.5-6.1-3.5-7.4-3.5-7.4c-1.9-1-4.1-0.8-5.8,0.5c-1.9,1.8-2.4,4.4-2.7,7
					c-0.2,1.3,1.9,1.3,2.1,0c0.1-1.5,0.5-3,1.2-4.4v1.5l0,7.2v5.7c0,0.6,0.4,1.1,1,1.1c0,0,0,0,0,0c0.6,0,1.1-0.5,1.1-1.1v-8.1h1
					v8.2c0,0.6,0.5,1,1.1,1c0.5,0,1-0.4,1-1v-5.7l0.1-7.2c0-0.7,0-1.3,0-1.7c0.7,1.4,1.2,3,1.3,4.5C10.1,40.7,12.1,40.7,12,39.4z"/>
			</g>
		</g>
		<g id="standing-frontal-man-silhouette-95" transform="translate(3486.352 994.611)">
			<g id="Group_10405" transform="translate(0 0)">
				<ellipse id="Ellipse_7431" class="st0" cx="6" cy="28.9" rx="1.9" ry="1.9"/>
				<path id="Path_10905" class="st0" d="M12,39.4c-0.5-6.1-3.5-7.4-3.5-7.4c-1.9-1-4.1-0.8-5.8,0.5c-1.9,1.8-2.4,4.4-2.7,7
					c-0.2,1.3,1.9,1.3,2.1,0c0.1-1.5,0.5-3,1.2-4.4v1.5l0,7.2v5.7c0,0.6,0.4,1.1,1,1.1c0,0,0,0,0,0c0.6,0,1.1-0.5,1.1-1.1v-8.1h1
					v8.2c0,0.6,0.5,1,1.1,1c0.5,0,1-0.4,1-1v-5.7l0.1-7.2c0-0.7,0-1.3,0-1.7c0.7,1.4,1.2,3,1.3,4.5C10.1,40.7,12.1,40.7,12,39.4z"/>
			</g>
		</g>
		<g id="standing-frontal-man-silhouette-96" transform="translate(3541.548 1220.584)">
			<g id="Group_10406" transform="translate(0 0)">
				<ellipse id="Ellipse_7432" class="st0" cx="6" cy="28.9" rx="1.9" ry="1.9"/>
				<path id="Path_10906" class="st0" d="M12,39.4c-0.5-6.1-3.5-7.4-3.5-7.4c-1.9-1-4.1-0.8-5.8,0.5c-1.9,1.8-2.4,4.4-2.7,7
					c-0.2,1.3,1.9,1.3,2.1,0c0.1-1.5,0.5-3,1.2-4.4v1.5l0,7.2v5.7c0,0.6,0.4,1.1,1,1.1c0,0,0,0,0,0c0.6,0,1.1-0.5,1.1-1.1v-8.1h1
					v8.2c0,0.6,0.5,1,1.1,1c0.5,0,1-0.4,1-1v-5.7l0.1-7.2c0-0.7,0-1.3,0-1.7c0.7,1.4,1.2,3,1.3,4.5C10.1,40.7,12.1,40.7,12,39.4z"/>
			</g>
		</g>
		<g id="standing-frontal-man-silhouette-97" transform="translate(3541.548 1270.968)">
			<g id="Group_10407" transform="translate(0 0)">
				<ellipse id="Ellipse_7433" class="st0" cx="6" cy="28.9" rx="1.9" ry="1.9"/>
				<path id="Path_10907" class="st0" d="M12,39.4c-0.5-6.1-3.5-7.4-3.5-7.4c-1.9-1-4.1-0.8-5.8,0.5c-1.9,1.8-2.4,4.4-2.7,7
					c-0.2,1.3,1.9,1.3,2.1,0c0.1-1.5,0.5-3,1.2-4.4v1.5l0,7.2v5.7c0,0.6,0.4,1.1,1,1.1c0,0,0,0,0,0c0.6,0,1.1-0.5,1.1-1.1v-8.1h1
					v8.2c0,0.6,0.5,1,1.1,1c0.5,0,1-0.4,1-1v-5.7l0.1-7.2c0-0.7,0-1.3,0-1.7c0.7,1.4,1.2,3,1.3,4.5C10.1,40.7,12.1,40.7,12,39.4z"/>
			</g>
		</g>
		<g id="standing-frontal-man-silhouette-98" transform="translate(3541.548 1321.353)">
			<g id="Group_10408" transform="translate(0 0)">
				<ellipse id="Ellipse_7434" class="st0" cx="6" cy="28.9" rx="1.9" ry="1.9"/>
				<path id="Path_10908" class="st0" d="M12,39.4c-0.5-6.1-3.5-7.4-3.5-7.4c-1.9-1-4.1-0.8-5.8,0.5c-1.9,1.8-2.4,4.4-2.7,7
					c-0.2,1.3,1.9,1.3,2.1,0c0.1-1.5,0.5-3,1.2-4.4v1.5l0,7.2v5.7c0,0.6,0.4,1.1,1,1.1c0,0,0,0,0,0c0.6,0,1.1-0.5,1.1-1.1v-8.1h1
					v8.2c0,0.6,0.5,1,1.1,1c0.5,0,1-0.4,1-1v-5.7l0.1-7.2c0-0.7,0-1.3,0-1.7c0.7,1.4,1.2,3,1.3,4.5C10.1,40.7,12.1,40.7,12,39.4z"/>
			</g>
		</g>
		<g id="standing-frontal-man-silhouette-99" transform="translate(3541.548 1170.419)">
			<g id="Group_10409" transform="translate(0 0)">
				<ellipse id="Ellipse_7435" class="st0" cx="6" cy="28.9" rx="1.9" ry="1.9"/>
				<path id="Path_10909" class="st0" d="M12,39.4c-0.5-6.1-3.5-7.4-3.5-7.4c-1.9-1-4.1-0.8-5.8,0.5c-1.9,1.8-2.4,4.4-2.7,7
					c-0.2,1.3,1.9,1.3,2.1,0c0.1-1.5,0.5-3,1.2-4.4v1.5l0,7.2v5.7c0,0.6,0.4,1.1,1,1.1c0,0,0,0,0,0c0.6,0,1.1-0.5,1.1-1.1v-8.1h1
					v8.2c0,0.6,0.5,1,1.1,1c0.5,0,1-0.4,1-1v-5.7l0.1-7.2c0-0.7,0-1.3,0-1.7c0.7,1.4,1.2,3,1.3,4.5C10.1,40.7,12.1,40.7,12,39.4z"/>
			</g>
		</g>
		<g id="standing-frontal-man-silhouette-100" transform="translate(3541.548 1245.776)">
			<g id="Group_10410" transform="translate(0 0)">
				<ellipse id="Ellipse_7436" class="st0" cx="6" cy="28.9" rx="1.9" ry="1.9"/>
				<path id="Path_10910" class="st0" d="M12,39.4c-0.5-6.1-3.5-7.4-3.5-7.4c-1.9-1-4.1-0.8-5.8,0.5c-1.9,1.8-2.4,4.4-2.7,7
					c-0.2,1.3,1.9,1.3,2.1,0c0.1-1.5,0.5-3,1.2-4.4v1.5l0,7.2v5.7c0,0.6,0.4,1.1,1,1.1c0,0,0,0,0,0c0.6,0,1.1-0.5,1.1-1.1v-8.1h1
					v8.2c0,0.6,0.5,1,1.1,1c0.5,0,1-0.4,1-1v-5.7l0.1-7.2c0-0.7,0-1.3,0-1.7c0.7,1.4,1.2,3,1.3,4.5C10.1,40.7,12.1,40.7,12,39.4z"/>
			</g>
		</g>
		<g id="standing-frontal-man-silhouette-101" transform="translate(3541.548 1296.16)">
			<g id="Group_10411" transform="translate(0 0)">
				<ellipse id="Ellipse_7437" class="st0" cx="6" cy="28.9" rx="1.9" ry="1.9"/>
				<path id="Path_10911" class="st0" d="M12,39.4c-0.5-6.1-3.5-7.4-3.5-7.4c-1.9-1-4.1-0.8-5.8,0.5c-1.9,1.8-2.4,4.4-2.7,7
					c-0.2,1.3,1.9,1.3,2.1,0c0.1-1.5,0.5-3,1.2-4.4v1.5l0,7.2v5.7c0,0.6,0.4,1.1,1,1.1c0,0,0,0,0,0c0.6,0,1.1-0.5,1.1-1.1v-8.1h1
					v8.2c0,0.6,0.5,1,1.1,1c0.5,0,1-0.4,1-1v-5.7l0.1-7.2c0-0.7,0-1.3,0-1.7c0.7,1.4,1.2,3,1.3,4.5C10.1,40.7,12.1,40.7,12,39.4z"/>
			</g>
		</g>
		<g id="standing-frontal-man-silhouette-102" transform="translate(3541.548 1346.545)">
			<g id="Group_10412" transform="translate(0 0)">
				<ellipse id="Ellipse_7438" class="st0" cx="6" cy="28.9" rx="1.9" ry="1.9"/>
				<path id="Path_10912" class="st0" d="M12,39.4c-0.5-6.1-3.5-7.4-3.5-7.4c-1.9-1-4.1-0.8-5.8,0.5c-1.9,1.8-2.4,4.4-2.7,7
					c-0.2,1.3,1.9,1.3,2.1,0c0.1-1.5,0.5-3,1.2-4.4v1.5l0,7.2v5.7c0,0.6,0.4,1.1,1,1.1c0,0,0,0,0,0c0.6,0,1.1-0.5,1.1-1.1v-8.1h1
					v8.2c0,0.6,0.5,1,1.1,1c0.5,0,1-0.4,1-1v-5.7l0.1-7.2c0-0.7,0-1.3,0-1.7c0.7,1.4,1.2,3,1.3,4.5C10.1,40.7,12.1,40.7,12,39.4z"/>
			</g>
		</g>
		<g id="standing-frontal-man-silhouette-103" transform="translate(3541.548 1195.611)">
			<g id="Group_10413" transform="translate(0 0)">
				<ellipse id="Ellipse_7439" class="st0" cx="6" cy="28.9" rx="1.9" ry="1.9"/>
				<path id="Path_10913" class="st0" d="M12,39.4c-0.5-6.1-3.5-7.4-3.5-7.4c-1.9-1-4.1-0.8-5.8,0.5c-1.9,1.8-2.4,4.4-2.7,7
					c-0.2,1.3,1.9,1.3,2.1,0c0.1-1.5,0.5-3,1.2-4.4v1.5l0,7.2v5.7c0,0.6,0.4,1.1,1,1.1c0,0,0,0,0,0c0.6,0,1.1-0.5,1.1-1.1v-8.1h1
					v8.2c0,0.6,0.5,1,1.1,1c0.5,0,1-0.4,1-1v-5.7l0.1-7.2c0-0.7,0-1.3,0-1.7c0.7,1.4,1.2,3,1.3,4.5C10.1,40.7,12.1,40.7,12,39.4z"/>
			</g>
		</g>
		<g id="standing-frontal-man-silhouette-104" transform="translate(3541.155 1019.584)">
			<g id="Group_10414" transform="translate(0 0)">
				<ellipse id="Ellipse_7440" class="st0" cx="6" cy="28.9" rx="1.9" ry="1.9"/>
				<path id="Path_10914" class="st0" d="M12,39.4c-0.5-6.1-3.5-7.4-3.5-7.4c-1.9-1-4.1-0.8-5.8,0.5c-1.9,1.8-2.4,4.4-2.7,7
					c-0.2,1.3,1.9,1.3,2.1,0c0.1-1.5,0.5-3,1.2-4.4v1.5l0,7.2v5.7c0,0.6,0.4,1.1,1,1.1c0,0,0,0,0,0c0.6,0,1.1-0.5,1.1-1.1v-8.1h1
					v8.2c0,0.6,0.5,1,1.1,1c0.5,0,1-0.4,1-1v-5.7l0.1-7.2c0-0.7,0-1.3,0-1.7c0.7,1.4,1.2,3,1.3,4.5C10.1,40.7,12.1,40.7,12,39.4z"/>
			</g>
		</g>
		<g id="standing-frontal-man-silhouette-105" transform="translate(3541.155 1069.968)">
			<g id="Group_10415" transform="translate(0 0)">
				<ellipse id="Ellipse_7441" class="st0" cx="6" cy="28.9" rx="1.9" ry="1.9"/>
				<path id="Path_10915" class="st0" d="M12,39.4c-0.5-6.1-3.5-7.4-3.5-7.4c-1.9-1-4.1-0.8-5.8,0.5c-1.9,1.8-2.4,4.4-2.7,7
					c-0.2,1.3,1.9,1.3,2.1,0c0.1-1.5,0.5-3,1.2-4.4v1.5l0,7.2v5.7c0,0.6,0.4,1.1,1,1.1c0,0,0,0,0,0c0.6,0,1.1-0.5,1.1-1.1v-8.1h1
					v8.2c0,0.6,0.5,1,1.1,1c0.5,0,1-0.4,1-1v-5.7l0.1-7.2c0-0.7,0-1.3,0-1.7c0.7,1.4,1.2,3,1.3,4.5C10.1,40.7,12.1,40.7,12,39.4z"/>
			</g>
		</g>
		<g id="standing-frontal-man-silhouette-106" transform="translate(3541.155 1120.353)">
			<g id="Group_10416" transform="translate(0 0)">
				<ellipse id="Ellipse_7442" class="st0" cx="6" cy="28.9" rx="1.9" ry="1.9"/>
				<path id="Path_10916" class="st0" d="M12,39.4c-0.5-6.1-3.5-7.4-3.5-7.4c-1.9-1-4.1-0.8-5.8,0.5c-1.9,1.8-2.4,4.4-2.7,7
					c-0.2,1.3,1.9,1.3,2.1,0c0.1-1.5,0.5-3,1.2-4.4v1.5l0,7.2v5.7c0,0.6,0.4,1.1,1,1.1c0,0,0,0,0,0c0.6,0,1.1-0.5,1.1-1.1v-8.1h1
					v8.2c0,0.6,0.5,1,1.1,1c0.5,0,1-0.4,1-1v-5.7l0.1-7.2c0-0.7,0-1.3,0-1.7c0.7,1.4,1.2,3,1.3,4.5C10.1,40.7,12.1,40.7,12,39.4z"/>
			</g>
		</g>
		<g id="standing-frontal-man-silhouette-107" transform="translate(3541.155 969.419)">
			<g id="Group_10417" transform="translate(0 0)">
				<ellipse id="Ellipse_7443" class="st0" cx="6" cy="28.9" rx="1.9" ry="1.9"/>
				<path id="Path_10917" class="st0" d="M12,39.4c-0.5-6.1-3.5-7.4-3.5-7.4c-1.9-1-4.1-0.8-5.8,0.5c-1.9,1.8-2.4,4.4-2.7,7
					c-0.2,1.3,1.9,1.3,2.1,0c0.1-1.5,0.5-3,1.2-4.4v1.5l0,7.2v5.7c0,0.6,0.4,1.1,1,1.1c0,0,0,0,0,0c0.6,0,1.1-0.5,1.1-1.1v-8.1h1
					v8.2c0,0.6,0.5,1,1.1,1c0.5,0,1-0.4,1-1v-5.7l0.1-7.2c0-0.7,0-1.3,0-1.7c0.7,1.4,1.2,3,1.3,4.5C10.1,40.7,12.1,40.7,12,39.4z"/>
			</g>
		</g>
		<g id="standing-frontal-man-silhouette-108" transform="translate(3541.155 1044.776)">
			<g id="Group_10418" transform="translate(0 0)">
				<ellipse id="Ellipse_7444" class="st0" cx="6" cy="28.9" rx="1.9" ry="1.9"/>
				<path id="Path_10918" class="st0" d="M12,39.4c-0.5-6.1-3.5-7.4-3.5-7.4c-1.9-1-4.1-0.8-5.8,0.5c-1.9,1.8-2.4,4.4-2.7,7
					c-0.2,1.3,1.9,1.3,2.1,0c0.1-1.5,0.5-3,1.2-4.4v1.5l0,7.2v5.7c0,0.6,0.4,1.1,1,1.1c0,0,0,0,0,0c0.6,0,1.1-0.5,1.1-1.1v-8.1h1
					v8.2c0,0.6,0.5,1,1.1,1c0.5,0,1-0.4,1-1v-5.7l0.1-7.2c0-0.7,0-1.3,0-1.7c0.7,1.4,1.2,3,1.3,4.5C10.1,40.7,12.1,40.7,12,39.4z"/>
			</g>
		</g>
		<g id="standing-frontal-man-silhouette-109" transform="translate(3541.155 1095.16)">
			<g id="Group_10419" transform="translate(0 0)">
				<ellipse id="Ellipse_7445" class="st0" cx="6" cy="28.9" rx="1.9" ry="1.9"/>
				<path id="Path_10919" class="st0" d="M12,39.4c-0.5-6.1-3.5-7.4-3.5-7.4c-1.9-1-4.1-0.8-5.8,0.5c-1.9,1.8-2.4,4.4-2.7,7
					c-0.2,1.3,1.9,1.3,2.1,0c0.1-1.5,0.5-3,1.2-4.4v1.5l0,7.2v5.7c0,0.6,0.4,1.1,1,1.1c0,0,0,0,0,0c0.6,0,1.1-0.5,1.1-1.1v-8.1h1
					v8.2c0,0.6,0.5,1,1.1,1c0.5,0,1-0.4,1-1v-5.7l0.1-7.2c0-0.7,0-1.3,0-1.7c0.7,1.4,1.2,3,1.3,4.5C10.1,40.7,12.1,40.7,12,39.4z"/>
			</g>
		</g>
		<g id="standing-frontal-man-silhouette-110" transform="translate(3541.155 1145.545)">
			<g id="Group_10420" transform="translate(0 0)">
				<ellipse id="Ellipse_7446" class="st0" cx="6" cy="28.9" rx="1.9" ry="1.9"/>
				<path id="Path_10920" class="st0" d="M12,39.4c-0.5-6.1-3.5-7.4-3.5-7.4c-1.9-1-4.1-0.8-5.8,0.5c-1.9,1.8-2.4,4.4-2.7,7
					c-0.2,1.3,1.9,1.3,2.1,0c0.1-1.5,0.5-3,1.2-4.4v1.5l0,7.2v5.7c0,0.6,0.4,1.1,1,1.1c0,0,0,0,0,0c0.6,0,1.1-0.5,1.1-1.1v-8.1h1
					v8.2c0,0.6,0.5,1,1.1,1c0.5,0,1-0.4,1-1v-5.7l0.1-7.2c0-0.7,0-1.3,0-1.7c0.7,1.4,1.2,3,1.3,4.5C10.1,40.7,12.1,40.7,12,39.4z"/>
			</g>
		</g>
		<g id="standing-frontal-man-silhouette-111" transform="translate(3541.155 994.611)">
			<g id="Group_10421" transform="translate(0 0)">
				<ellipse id="Ellipse_7447" class="st0" cx="6" cy="28.9" rx="1.9" ry="1.9"/>
				<path id="Path_10921" class="st0" d="M12,39.4c-0.5-6.1-3.5-7.4-3.5-7.4c-1.9-1-4.1-0.8-5.8,0.5c-1.9,1.8-2.4,4.4-2.7,7
					c-0.2,1.3,1.9,1.3,2.1,0c0.1-1.5,0.5-3,1.2-4.4v1.5l0,7.2v5.7c0,0.6,0.4,1.1,1,1.1c0,0,0,0,0,0c0.6,0,1.1-0.5,1.1-1.1v-8.1h1
					v8.2c0,0.6,0.5,1,1.1,1c0.5,0,1-0.4,1-1v-5.7l0.1-7.2c0-0.7,0-1.3,0-1.7c0.7,1.4,1.2,3,1.3,4.5C10.1,40.7,12.1,40.7,12,39.4z"/>
			</g>
		</g>
		<g id="standing-frontal-man-silhouette-112" transform="translate(3485.959 868.968)">
			<g id="Group_10422" transform="translate(0 0)">
				<ellipse id="Ellipse_7448" class="st0" cx="6" cy="28.9" rx="1.9" ry="1.9"/>
				<path id="Path_10922" class="st0" d="M12,39.4c-0.5-6.1-3.5-7.4-3.5-7.4c-1.9-1-4.1-0.8-5.8,0.5c-1.9,1.8-2.4,4.4-2.7,7
					c-0.2,1.3,1.9,1.3,2.1,0c0.1-1.5,0.5-3,1.2-4.4v1.5l0,7.2v5.7c0,0.6,0.4,1.1,1,1.1c0,0,0,0,0,0c0.6,0,1.1-0.5,1.1-1.1v-8.1h1
					v8.2c0,0.6,0.5,1,1.1,1c0.5,0,1-0.4,1-1v-5.7l0.1-7.2c0-0.7,0-1.3,0-1.7c0.7,1.4,1.2,3,1.3,4.5C10.1,40.7,12.1,40.7,12,39.4z"/>
			</g>
		</g>
		<g id="standing-frontal-man-silhouette-113" transform="translate(3485.959 919.353)">
			<g id="Group_10423" transform="translate(0 0)">
				<ellipse id="Ellipse_7449" class="st0" cx="6" cy="28.9" rx="1.9" ry="1.9"/>
				<path id="Path_10923" class="st0" d="M12,39.4c-0.5-6.1-3.5-7.4-3.5-7.4c-1.9-1-4.1-0.8-5.8,0.5c-1.9,1.8-2.4,4.4-2.7,7
					c-0.2,1.3,1.9,1.3,2.1,0c0.1-1.5,0.5-3,1.2-4.4v1.5l0,7.2v5.7c0,0.6,0.4,1.1,1,1.1c0,0,0,0,0,0c0.6,0,1.1-0.5,1.1-1.1v-8.1h1
					v8.2c0,0.6,0.5,1,1.1,1c0.5,0,1-0.4,1-1v-5.7l0.1-7.2c0-0.7,0-1.3,0-1.7c0.7,1.4,1.2,3,1.3,4.5C10.1,40.7,12.1,40.7,12,39.4z"/>
			</g>
		</g>
		<g id="standing-frontal-man-silhouette-114" transform="translate(3540.959 919.353)">
			<g id="Group_10423-2" transform="translate(0 0)">
				<ellipse id="Ellipse_7449-2" class="st0" cx="6" cy="28.9" rx="1.9" ry="1.9"/>
				<path id="Path_10923-2" class="st0" d="M12,39.4c-0.5-6.1-3.5-7.4-3.5-7.4c-1.9-1-4.1-0.8-5.8,0.5c-1.9,1.8-2.4,4.4-2.7,7
					c-0.2,1.3,1.9,1.3,2.1,0c0.1-1.5,0.5-3,1.2-4.4v1.5l0,7.2v5.7c0,0.6,0.4,1.1,1,1.1c0,0,0,0,0,0c0.6,0,1.1-0.5,1.1-1.1v-8.1h1
					v8.2c0,0.6,0.5,1,1.1,1c0.5,0,1-0.4,1-1v-5.7l0.1-7.2c0-0.7,0-1.3,0-1.7c0.7,1.4,1.2,3,1.3,4.5C10.1,40.7,12.1,40.7,12,39.4z"/>
			</g>
		</g>
		<g id="standing-frontal-man-silhouette-115" transform="translate(3485.959 894.16)">
			<g id="Group_10425" transform="translate(0 0)">
				<ellipse id="Ellipse_7451" class="st0" cx="6" cy="28.9" rx="1.9" ry="1.9"/>
				<path id="Path_10925" class="st0" d="M12,39.4c-0.5-6.1-3.5-7.4-3.5-7.4c-1.9-1-4.1-0.8-5.8,0.5c-1.9,1.8-2.4,4.4-2.7,7
					c-0.2,1.3,1.9,1.3,2.1,0c0.1-1.5,0.5-3,1.2-4.4v1.5l0,7.2v5.7c0,0.6,0.4,1.1,1,1.1c0,0,0,0,0,0c0.6,0,1.1-0.5,1.1-1.1v-8.1h1
					v8.2c0,0.6,0.5,1,1.1,1c0.5,0,1-0.4,1-1v-5.7l0.1-7.2c0-0.7,0-1.3,0-1.7c0.7,1.4,1.2,3,1.3,4.5C10.1,40.7,12.1,40.7,12,39.4z"/>
			</g>
		</g>
		<g id="standing-frontal-man-silhouette-116" transform="translate(3540.959 894.16)">
			<g id="Group_10425-2" transform="translate(0 0)">
				<ellipse id="Ellipse_7451-2" class="st0" cx="6" cy="28.9" rx="1.9" ry="1.9"/>
				<path id="Path_10925-2" class="st0" d="M12,39.4c-0.5-6.1-3.5-7.4-3.5-7.4c-1.9-1-4.1-0.8-5.8,0.5c-1.9,1.8-2.4,4.4-2.7,7
					c-0.2,1.3,1.9,1.3,2.1,0c0.1-1.5,0.5-3,1.2-4.4v1.5l0,7.2v5.7c0,0.6,0.4,1.1,1,1.1c0,0,0,0,0,0c0.6,0,1.1-0.5,1.1-1.1v-8.1h1
					v8.2c0,0.6,0.5,1,1.1,1c0.5,0,1-0.4,1-1v-5.7l0.1-7.2c0-0.7,0-1.3,0-1.7c0.7,1.4,1.2,3,1.3,4.5C10.1,40.7,12.1,40.7,12,39.4z"/>
			</g>
		</g>
		<g id="standing-frontal-man-silhouette-117" transform="translate(3485.959 944.545)">
			<g id="Group_10426" transform="translate(0 0)">
				<ellipse id="Ellipse_7452" class="st0" cx="6" cy="28.9" rx="1.9" ry="1.9"/>
				<path id="Path_10926" class="st0" d="M12,39.4c-0.5-6.1-3.5-7.4-3.5-7.4c-1.9-1-4.1-0.8-5.8,0.5c-1.9,1.8-2.4,4.4-2.7,7
					c-0.2,1.3,1.9,1.3,2.1,0c0.1-1.5,0.5-3,1.2-4.4v1.5l0,7.2v5.7c0,0.6,0.4,1.1,1,1.1c0,0,0,0,0,0c0.6,0,1.1-0.5,1.1-1.1v-8.1h1
					v8.2c0,0.6,0.5,1,1.1,1c0.5,0,1-0.4,1-1v-5.7l0.1-7.2c0-0.7,0-1.3,0-1.7c0.7,1.4,1.2,3,1.3,4.5C10.1,40.7,12.1,40.7,12,39.4z"/>
			</g>
		</g>
		<g id="standing-frontal-man-silhouette-118" transform="translate(3540.959 944.545)">
			<g id="Group_10426-2" transform="translate(0 0)">
				<ellipse id="Ellipse_7452-2" class="st0" cx="6" cy="28.9" rx="1.9" ry="1.9"/>
				<path id="Path_10926-2" class="st0" d="M12,39.4c-0.5-6.1-3.5-7.4-3.5-7.4c-1.9-1-4.1-0.8-5.8,0.5c-1.9,1.8-2.4,4.4-2.7,7
					c-0.2,1.3,1.9,1.3,2.1,0c0.1-1.5,0.5-3,1.2-4.4v1.5l0,7.2v5.7c0,0.6,0.4,1.1,1,1.1c0,0,0,0,0,0c0.6,0,1.1-0.5,1.1-1.1v-8.1h1
					v8.2c0,0.6,0.5,1,1.1,1c0.5,0,1-0.4,1-1v-5.7l0.1-7.2c0-0.7,0-1.3,0-1.7c0.7,1.4,1.2,3,1.3,4.5C10.1,40.7,12.1,40.7,12,39.4z"/>
			</g>
		</g>
		<g id="standing-frontal-man-silhouette-119" transform="translate(3514.146 1220.584)">
			<g id="Group_10428" transform="translate(0 0)">
				<ellipse id="Ellipse_7454" class="st0" cx="6" cy="28.9" rx="1.9" ry="1.9"/>
				<path id="Path_10928" class="st0" d="M12,39.4c-0.5-6.1-3.5-7.4-3.5-7.4c-1.9-1-4.1-0.8-5.8,0.5c-1.9,1.8-2.4,4.4-2.7,7
					c-0.2,1.3,1.9,1.3,2.1,0c0.1-1.5,0.5-3,1.2-4.4v1.5l0,7.2v5.7c0,0.6,0.4,1.1,1,1.1c0,0,0,0,0,0c0.6,0,1.1-0.5,1.1-1.1v-8.1h1
					v8.2c0,0.6,0.5,1,1.1,1c0.5,0,1-0.4,1-1v-5.7l0.1-7.2c0-0.7,0-1.3,0-1.7c0.7,1.4,1.2,3,1.3,4.5C10.1,40.7,12.1,40.7,12,39.4z"/>
			</g>
		</g>
		<g id="standing-frontal-man-silhouette-120" transform="translate(3514.146 1270.968)">
			<g id="Group_10430" transform="translate(0 0)">
				<ellipse id="Ellipse_7456" class="st0" cx="6" cy="28.9" rx="1.9" ry="1.9"/>
				<path id="Path_10930" class="st0" d="M12,39.4c-0.5-6.1-3.5-7.4-3.5-7.4c-1.9-1-4.1-0.8-5.8,0.5c-1.9,1.8-2.4,4.4-2.7,7
					c-0.2,1.3,1.9,1.3,2.1,0c0.1-1.5,0.5-3,1.2-4.4v1.5l0,7.2v5.7c0,0.6,0.4,1.1,1,1.1c0,0,0,0,0,0c0.6,0,1.1-0.5,1.1-1.1v-8.1h1
					v8.2c0,0.6,0.5,1,1.1,1c0.5,0,1-0.4,1-1v-5.7l0.1-7.2c0-0.7,0-1.3,0-1.7c0.7,1.4,1.2,3,1.3,4.5C10.1,40.7,12.1,40.7,12,39.4z"/>
			</g>
		</g>
		<g id="standing-frontal-man-silhouette-121" transform="translate(3514.146 1321.353)">
			<g id="Group_10431" transform="translate(0 0)">
				<ellipse id="Ellipse_7457" class="st0" cx="6" cy="28.9" rx="1.9" ry="1.9"/>
				<path id="Path_10931" class="st0" d="M12,39.4c-0.5-6.1-3.5-7.4-3.5-7.4c-1.9-1-4.1-0.8-5.8,0.5c-1.9,1.8-2.4,4.4-2.7,7
					c-0.2,1.3,1.9,1.3,2.1,0c0.1-1.5,0.5-3,1.2-4.4v1.5l0,7.2v5.7c0,0.6,0.4,1.1,1,1.1c0,0,0,0,0,0c0.6,0,1.1-0.5,1.1-1.1v-8.1h1
					v8.2c0,0.6,0.5,1,1.1,1c0.5,0,1-0.4,1-1v-5.7l0.1-7.2c0-0.7,0-1.3,0-1.7c0.7,1.4,1.2,3,1.3,4.5C10.1,40.7,12.1,40.7,12,39.4z"/>
			</g>
		</g>
		<g id="standing-frontal-man-silhouette-122" transform="translate(3514.146 1170.419)">
			<g id="Group_10432" transform="translate(0 0)">
				<ellipse id="Ellipse_7458" class="st0" cx="6" cy="28.9" rx="1.9" ry="1.9"/>
				<path id="Path_10932" class="st0" d="M12,39.4c-0.5-6.1-3.5-7.4-3.5-7.4c-1.9-1-4.1-0.8-5.8,0.5c-1.9,1.8-2.4,4.4-2.7,7
					c-0.2,1.3,1.9,1.3,2.1,0c0.1-1.5,0.5-3,1.2-4.4v1.5l0,7.2v5.7c0,0.6,0.4,1.1,1,1.1c0,0,0,0,0,0c0.6,0,1.1-0.5,1.1-1.1v-8.1h1
					v8.2c0,0.6,0.5,1,1.1,1c0.5,0,1-0.4,1-1v-5.7l0.1-7.2c0-0.7,0-1.3,0-1.7c0.7,1.4,1.2,3,1.3,4.5C10.1,40.7,12.1,40.7,12,39.4z"/>
			</g>
		</g>
		<g id="standing-frontal-man-silhouette-123" transform="translate(3514.146 1245.776)">
			<g id="Group_10433" transform="translate(0 0)">
				<ellipse id="Ellipse_7459" class="st0" cx="6" cy="28.9" rx="1.9" ry="1.9"/>
				<path id="Path_10933" class="st0" d="M12,39.4c-0.5-6.1-3.5-7.4-3.5-7.4c-1.9-1-4.1-0.8-5.8,0.5c-1.9,1.8-2.4,4.4-2.7,7
					c-0.2,1.3,1.9,1.3,2.1,0c0.1-1.5,0.5-3,1.2-4.4v1.5l0,7.2v5.7c0,0.6,0.4,1.1,1,1.1c0,0,0,0,0,0c0.6,0,1.1-0.5,1.1-1.1v-8.1h1
					v8.2c0,0.6,0.5,1,1.1,1c0.5,0,1-0.4,1-1v-5.7l0.1-7.2c0-0.7,0-1.3,0-1.7c0.7,1.4,1.2,3,1.3,4.5C10.1,40.7,12.1,40.7,12,39.4z"/>
			</g>
		</g>
		<g id="standing-frontal-man-silhouette-124" transform="translate(3514.146 1296.16)">
			<g id="Group_10434" transform="translate(0 0)">
				<ellipse id="Ellipse_7460" class="st0" cx="6" cy="28.9" rx="1.9" ry="1.9"/>
				<path id="Path_10934" class="st0" d="M12,39.4c-0.5-6.1-3.5-7.4-3.5-7.4c-1.9-1-4.1-0.8-5.8,0.5c-1.9,1.8-2.4,4.4-2.7,7
					c-0.2,1.3,1.9,1.3,2.1,0c0.1-1.5,0.5-3,1.2-4.4v1.5l0,7.2v5.7c0,0.6,0.4,1.1,1,1.1c0,0,0,0,0,0c0.6,0,1.1-0.5,1.1-1.1v-8.1h1
					v8.2c0,0.6,0.5,1,1.1,1c0.5,0,1-0.4,1-1v-5.7l0.1-7.2c0-0.7,0-1.3,0-1.7c0.7,1.4,1.2,3,1.3,4.5C10.1,40.7,12.1,40.7,12,39.4z"/>
			</g>
		</g>
		<g id="standing-frontal-man-silhouette-125" transform="translate(3514.146 1346.545)">
			<g id="Group_10435" transform="translate(0 0)">
				<ellipse id="Ellipse_7461" class="st0" cx="6" cy="28.9" rx="1.9" ry="1.9"/>
				<path id="Path_10935" class="st0" d="M12,39.4c-0.5-6.1-3.5-7.4-3.5-7.4c-1.9-1-4.1-0.8-5.8,0.5c-1.9,1.8-2.4,4.4-2.7,7
					c-0.2,1.3,1.9,1.3,2.1,0c0.1-1.5,0.5-3,1.2-4.4v1.5l0,7.2v5.7c0,0.6,0.4,1.1,1,1.1c0,0,0,0,0,0c0.6,0,1.1-0.5,1.1-1.1v-8.1h1
					v8.2c0,0.6,0.5,1,1.1,1c0.5,0,1-0.4,1-1v-5.7l0.1-7.2c0-0.7,0-1.3,0-1.7c0.7,1.4,1.2,3,1.3,4.5C10.1,40.7,12.1,40.7,12,39.4z"/>
			</g>
		</g>
		<g id="standing-frontal-man-silhouette-126" transform="translate(3514.146 1195.611)">
			<g id="Group_10436" transform="translate(0 0)">
				<ellipse id="Ellipse_7462" class="st0" cx="6" cy="28.9" rx="1.9" ry="1.9"/>
				<path id="Path_10936" class="st0" d="M12,39.4c-0.5-6.1-3.5-7.4-3.5-7.4c-1.9-1-4.1-0.8-5.8,0.5c-1.9,1.8-2.4,4.4-2.7,7
					c-0.2,1.3,1.9,1.3,2.1,0c0.1-1.5,0.5-3,1.2-4.4v1.5l0,7.2v5.7c0,0.6,0.4,1.1,1,1.1c0,0,0,0,0,0c0.6,0,1.1-0.5,1.1-1.1v-8.1h1
					v8.2c0,0.6,0.5,1,1.1,1c0.5,0,1-0.4,1-1v-5.7l0.1-7.2c0-0.7,0-1.3,0-1.7c0.7,1.4,1.2,3,1.3,4.5C10.1,40.7,12.1,40.7,12,39.4z"/>
			</g>
		</g>
		<g id="standing-frontal-man-silhouette-127" transform="translate(3513.754 1019.584)">
			<g id="Group_10437" transform="translate(0 0)">
				<ellipse id="Ellipse_7463" class="st0" cx="6" cy="28.9" rx="1.9" ry="1.9"/>
				<path id="Path_10937" class="st0" d="M12,39.4c-0.5-6.1-3.5-7.4-3.5-7.4c-1.9-1-4.1-0.8-5.8,0.5c-1.9,1.8-2.4,4.4-2.7,7
					c-0.2,1.3,1.9,1.3,2.1,0c0.1-1.5,0.5-3,1.2-4.4v1.5l0,7.2v5.7c0,0.6,0.4,1.1,1,1.1c0,0,0,0,0,0c0.6,0,1.1-0.5,1.1-1.1v-8.1h1
					v8.2c0,0.6,0.5,1,1.1,1c0.5,0,1-0.4,1-1v-5.7l0.1-7.2c0-0.7,0-1.3,0-1.7c0.7,1.4,1.2,3,1.3,4.5C10.1,40.7,12.1,40.7,12,39.4z"/>
			</g>
		</g>
		<g id="standing-frontal-man-silhouette-128" transform="translate(3513.754 1069.968)">
			<g id="Group_10438" transform="translate(0 0)">
				<ellipse id="Ellipse_7464" class="st0" cx="6" cy="28.9" rx="1.9" ry="1.9"/>
				<path id="Path_10938" class="st0" d="M12,39.4c-0.5-6.1-3.5-7.4-3.5-7.4c-1.9-1-4.1-0.8-5.8,0.5c-1.9,1.8-2.4,4.4-2.7,7
					c-0.2,1.3,1.9,1.3,2.1,0c0.1-1.5,0.5-3,1.2-4.4v1.5l0,7.2v5.7c0,0.6,0.4,1.1,1,1.1c0,0,0,0,0,0c0.6,0,1.1-0.5,1.1-1.1v-8.1h1
					v8.2c0,0.6,0.5,1,1.1,1c0.5,0,1-0.4,1-1v-5.7l0.1-7.2c0-0.7,0-1.3,0-1.7c0.7,1.4,1.2,3,1.3,4.5C10.1,40.7,12.1,40.7,12,39.4z"/>
			</g>
		</g>
		<g id="standing-frontal-man-silhouette-129" transform="translate(3513.754 1120.353)">
			<g id="Group_10439" transform="translate(0 0)">
				<ellipse id="Ellipse_7465" class="st0" cx="6" cy="28.9" rx="1.9" ry="1.9"/>
				<path id="Path_10939" class="st0" d="M12,39.4c-0.5-6.1-3.5-7.4-3.5-7.4c-1.9-1-4.1-0.8-5.8,0.5c-1.9,1.8-2.4,4.4-2.7,7
					c-0.2,1.3,1.9,1.3,2.1,0c0.1-1.5,0.5-3,1.2-4.4v1.5l0,7.2v5.7c0,0.6,0.4,1.1,1,1.1c0,0,0,0,0,0c0.6,0,1.1-0.5,1.1-1.1v-8.1h1
					v8.2c0,0.6,0.5,1,1.1,1c0.5,0,1-0.4,1-1v-5.7l0.1-7.2c0-0.7,0-1.3,0-1.7c0.7,1.4,1.2,3,1.3,4.5C10.1,40.7,12.1,40.7,12,39.4z"/>
			</g>
		</g>
		<g id="standing-frontal-man-silhouette-130" transform="translate(3513.754 969.419)">
			<g id="Group_10440" transform="translate(0 0)">
				<ellipse id="Ellipse_7466" class="st0" cx="6" cy="28.9" rx="1.9" ry="1.9"/>
				<path id="Path_10940" class="st0" d="M12,39.4c-0.5-6.1-3.5-7.4-3.5-7.4c-1.9-1-4.1-0.8-5.8,0.5c-1.9,1.8-2.4,4.4-2.7,7
					c-0.2,1.3,1.9,1.3,2.1,0c0.1-1.5,0.5-3,1.2-4.4v1.5l0,7.2v5.7c0,0.6,0.4,1.1,1,1.1c0,0,0,0,0,0c0.6,0,1.1-0.5,1.1-1.1v-8.1h1
					v8.2c0,0.6,0.5,1,1.1,1c0.5,0,1-0.4,1-1v-5.7l0.1-7.2c0-0.7,0-1.3,0-1.7c0.7,1.4,1.2,3,1.3,4.5C10.1,40.7,12.1,40.7,12,39.4z"/>
			</g>
		</g>
		<g id="standing-frontal-man-silhouette-131" transform="translate(3513.754 1044.776)">
			<g id="Group_10441" transform="translate(0 0)">
				<ellipse id="Ellipse_7467" class="st0" cx="6" cy="28.9" rx="1.9" ry="1.9"/>
				<path id="Path_10941" class="st0" d="M12,39.4c-0.5-6.1-3.5-7.4-3.5-7.4c-1.9-1-4.1-0.8-5.8,0.5c-1.9,1.8-2.4,4.4-2.7,7
					c-0.2,1.3,1.9,1.3,2.1,0c0.1-1.5,0.5-3,1.2-4.4v1.5l0,7.2v5.7c0,0.6,0.4,1.1,1,1.1c0,0,0,0,0,0c0.6,0,1.1-0.5,1.1-1.1v-8.1h1
					v8.2c0,0.6,0.5,1,1.1,1c0.5,0,1-0.4,1-1v-5.7l0.1-7.2c0-0.7,0-1.3,0-1.7c0.7,1.4,1.2,3,1.3,4.5C10.1,40.7,12.1,40.7,12,39.4z"/>
			</g>
		</g>
		<g id="standing-frontal-man-silhouette-132" transform="translate(3513.754 1095.16)">
			<g id="Group_10442" transform="translate(0 0)">
				<ellipse id="Ellipse_7468" class="st0" cx="6" cy="28.9" rx="1.9" ry="1.9"/>
				<path id="Path_10942" class="st0" d="M12,39.4c-0.5-6.1-3.5-7.4-3.5-7.4c-1.9-1-4.1-0.8-5.8,0.5c-1.9,1.8-2.4,4.4-2.7,7
					c-0.2,1.3,1.9,1.3,2.1,0c0.1-1.5,0.5-3,1.2-4.4v1.5l0,7.2v5.7c0,0.6,0.4,1.1,1,1.1c0,0,0,0,0,0c0.6,0,1.1-0.5,1.1-1.1v-8.1h1
					v8.2c0,0.6,0.5,1,1.1,1c0.5,0,1-0.4,1-1v-5.7l0.1-7.2c0-0.7,0-1.3,0-1.7c0.7,1.4,1.2,3,1.3,4.5C10.1,40.7,12.1,40.7,12,39.4z"/>
			</g>
		</g>
		<g id="standing-frontal-man-silhouette-133" transform="translate(3513.754 1145.545)">
			<g id="Group_10443" transform="translate(0 0)">
				<ellipse id="Ellipse_7469" class="st0" cx="6" cy="28.9" rx="1.9" ry="1.9"/>
				<path id="Path_10943" class="st0" d="M12,39.4c-0.5-6.1-3.5-7.4-3.5-7.4c-1.9-1-4.1-0.8-5.8,0.5c-1.9,1.8-2.4,4.4-2.7,7
					c-0.2,1.3,1.9,1.3,2.1,0c0.1-1.5,0.5-3,1.2-4.4v1.5l0,7.2v5.7c0,0.6,0.4,1.1,1,1.1c0,0,0,0,0,0c0.6,0,1.1-0.5,1.1-1.1v-8.1h1
					v8.2c0,0.6,0.5,1,1.1,1c0.5,0,1-0.4,1-1v-5.7l0.1-7.2c0-0.7,0-1.3,0-1.7c0.7,1.4,1.2,3,1.3,4.5C10.1,40.7,12.1,40.7,12,39.4z"/>
			</g>
		</g>
		<g id="standing-frontal-man-silhouette-134" transform="translate(3513.754 994.611)">
			<g id="Group_10444" transform="translate(0 0)">
				<ellipse id="Ellipse_7470" class="st0" cx="6" cy="28.9" rx="1.9" ry="1.9"/>
				<path id="Path_10944" class="st0" d="M12,39.4c-0.5-6.1-3.5-7.4-3.5-7.4c-1.9-1-4.1-0.8-5.8,0.5c-1.9,1.8-2.4,4.4-2.7,7
					c-0.2,1.3,1.9,1.3,2.1,0c0.1-1.5,0.5-3,1.2-4.4v1.5l0,7.2v5.7c0,0.6,0.4,1.1,1,1.1c0,0,0,0,0,0c0.6,0,1.1-0.5,1.1-1.1v-8.1h1
					v8.2c0,0.6,0.5,1,1.1,1c0.5,0,1-0.4,1-1v-5.7l0.1-7.2c0-0.7,0-1.3,0-1.7c0.7,1.4,1.2,3,1.3,4.5C10.1,40.7,12.1,40.7,12,39.4z"/>
			</g>
		</g>
		<g id="standing-frontal-man-silhouette-135" transform="translate(3568.949 1220.584)">
			<g id="Group_10445" transform="translate(0 0)">
				<ellipse id="Ellipse_7471" class="st0" cx="6" cy="28.9" rx="1.9" ry="1.9"/>
				<path id="Path_10945" class="st0" d="M12,39.4c-0.5-6.1-3.5-7.4-3.5-7.4c-1.9-1-4.1-0.8-5.8,0.5c-1.9,1.8-2.4,4.4-2.7,7
					c-0.2,1.3,1.9,1.3,2.1,0c0.1-1.5,0.5-3,1.2-4.4v1.5l0,7.2v5.7c0,0.6,0.4,1.1,1,1.1c0,0,0,0,0,0c0.6,0,1.1-0.5,1.1-1.1v-8.1h1
					v8.2c0,0.6,0.5,1,1.1,1c0.5,0,1-0.4,1-1v-5.7l0.1-7.2c0-0.7,0-1.3,0-1.7c0.7,1.4,1.2,3,1.3,4.5C10.1,40.7,12.1,40.7,12,39.4z"/>
			</g>
		</g>
		<g id="standing-frontal-man-silhouette-136" transform="translate(3568.949 1270.968)">
			<g id="Group_10446" transform="translate(0 0)">
				<ellipse id="Ellipse_7472" class="st0" cx="6" cy="28.9" rx="1.9" ry="1.9"/>
				<path id="Path_10946" class="st0" d="M12,39.4c-0.5-6.1-3.5-7.4-3.5-7.4c-1.9-1-4.1-0.8-5.8,0.5c-1.9,1.8-2.4,4.4-2.7,7
					c-0.2,1.3,1.9,1.3,2.1,0c0.1-1.5,0.5-3,1.2-4.4v1.5l0,7.2v5.7c0,0.6,0.4,1.1,1,1.1c0,0,0,0,0,0c0.6,0,1.1-0.5,1.1-1.1v-8.1h1
					v8.2c0,0.6,0.5,1,1.1,1c0.5,0,1-0.4,1-1v-5.7l0.1-7.2c0-0.7,0-1.3,0-1.7c0.7,1.4,1.2,3,1.3,4.5C10.1,40.7,12.1,40.7,12,39.4z"/>
			</g>
		</g>
		<g id="standing-frontal-man-silhouette-137" transform="translate(3568.949 1321.353)">
			<g id="Group_10447" transform="translate(0 0)">
				<ellipse id="Ellipse_7473" class="st0" cx="6" cy="28.9" rx="1.9" ry="1.9"/>
				<path id="Path_10947" class="st0" d="M12,39.4c-0.5-6.1-3.5-7.4-3.5-7.4c-1.9-1-4.1-0.8-5.8,0.5c-1.9,1.8-2.4,4.4-2.7,7
					c-0.2,1.3,1.9,1.3,2.1,0c0.1-1.5,0.5-3,1.2-4.4v1.5l0,7.2v5.7c0,0.6,0.4,1.1,1,1.1c0,0,0,0,0,0c0.6,0,1.1-0.5,1.1-1.1v-8.1h1
					v8.2c0,0.6,0.5,1,1.1,1c0.5,0,1-0.4,1-1v-5.7l0.1-7.2c0-0.7,0-1.3,0-1.7c0.7,1.4,1.2,3,1.3,4.5C10.1,40.7,12.1,40.7,12,39.4z"/>
			</g>
		</g>
		<g id="standing-frontal-man-silhouette-138" transform="translate(3568.949 1170.419)">
			<g id="Group_10448" transform="translate(0 0)">
				<ellipse id="Ellipse_7474" class="st0" cx="6" cy="28.9" rx="1.9" ry="1.9"/>
				<path id="Path_10948" class="st0" d="M12,39.4c-0.5-6.1-3.5-7.4-3.5-7.4c-1.9-1-4.1-0.8-5.8,0.5c-1.9,1.8-2.4,4.4-2.7,7
					c-0.2,1.3,1.9,1.3,2.1,0c0.1-1.5,0.5-3,1.2-4.4v1.5l0,7.2v5.7c0,0.6,0.4,1.1,1,1.1c0,0,0,0,0,0c0.6,0,1.1-0.5,1.1-1.1v-8.1h1
					v8.2c0,0.6,0.5,1,1.1,1c0.5,0,1-0.4,1-1v-5.7l0.1-7.2c0-0.7,0-1.3,0-1.7c0.7,1.4,1.2,3,1.3,4.5C10.1,40.7,12.1,40.7,12,39.4z"/>
			</g>
		</g>
		<g id="standing-frontal-man-silhouette-139" transform="translate(3568.949 1245.776)">
			<g id="Group_10449" transform="translate(0 0)">
				<ellipse id="Ellipse_7475" class="st0" cx="6" cy="28.9" rx="1.9" ry="1.9"/>
				<path id="Path_10949" class="st0" d="M12,39.4c-0.5-6.1-3.5-7.4-3.5-7.4c-1.9-1-4.1-0.8-5.8,0.5c-1.9,1.8-2.4,4.4-2.7,7
					c-0.2,1.3,1.9,1.3,2.1,0c0.1-1.5,0.5-3,1.2-4.4v1.5l0,7.2v5.7c0,0.6,0.4,1.1,1,1.1c0,0,0,0,0,0c0.6,0,1.1-0.5,1.1-1.1v-8.1h1
					v8.2c0,0.6,0.5,1,1.1,1c0.5,0,1-0.4,1-1v-5.7l0.1-7.2c0-0.7,0-1.3,0-1.7c0.7,1.4,1.2,3,1.3,4.5C10.1,40.7,12.1,40.7,12,39.4z"/>
			</g>
		</g>
		<g id="standing-frontal-man-silhouette-140" transform="translate(3568.949 1296.16)">
			<g id="Group_10450" transform="translate(0 0)">
				<ellipse id="Ellipse_7476" class="st0" cx="6" cy="28.9" rx="1.9" ry="1.9"/>
				<path id="Path_10950" class="st0" d="M12,39.4c-0.5-6.1-3.5-7.4-3.5-7.4c-1.9-1-4.1-0.8-5.8,0.5c-1.9,1.8-2.4,4.4-2.7,7
					c-0.2,1.3,1.9,1.3,2.1,0c0.1-1.5,0.5-3,1.2-4.4v1.5l0,7.2v5.7c0,0.6,0.4,1.1,1,1.1c0,0,0,0,0,0c0.6,0,1.1-0.5,1.1-1.1v-8.1h1
					v8.2c0,0.6,0.5,1,1.1,1c0.5,0,1-0.4,1-1v-5.7l0.1-7.2c0-0.7,0-1.3,0-1.7c0.7,1.4,1.2,3,1.3,4.5C10.1,40.7,12.1,40.7,12,39.4z"/>
			</g>
		</g>
		<g id="standing-frontal-man-silhouette-141" transform="translate(3568.949 1346.545)">
			<g id="Group_10451" transform="translate(0 0)">
				<ellipse id="Ellipse_7477" class="st0" cx="6" cy="28.9" rx="1.9" ry="1.9"/>
				<path id="Path_10951" class="st0" d="M12,39.4c-0.5-6.1-3.5-7.4-3.5-7.4c-1.9-1-4.1-0.8-5.8,0.5c-1.9,1.8-2.4,4.4-2.7,7
					c-0.2,1.3,1.9,1.3,2.1,0c0.1-1.5,0.5-3,1.2-4.4v1.5l0,7.2v5.7c0,0.6,0.4,1.1,1,1.1c0,0,0,0,0,0c0.6,0,1.1-0.5,1.1-1.1v-8.1h1
					v8.2c0,0.6,0.5,1,1.1,1c0.5,0,1-0.4,1-1v-5.7l0.1-7.2c0-0.7,0-1.3,0-1.7c0.7,1.4,1.2,3,1.3,4.5C10.1,40.7,12.1,40.7,12,39.4z"/>
			</g>
		</g>
		<g id="standing-frontal-man-silhouette-142" transform="translate(3568.949 1195.611)">
			<g id="Group_10452" transform="translate(0 0)">
				<ellipse id="Ellipse_7478" class="st0" cx="6" cy="28.9" rx="1.9" ry="1.9"/>
				<path id="Path_10952" class="st0" d="M12,39.4c-0.5-6.1-3.5-7.4-3.5-7.4c-1.9-1-4.1-0.8-5.8,0.5c-1.9,1.8-2.4,4.4-2.7,7
					c-0.2,1.3,1.9,1.3,2.1,0c0.1-1.5,0.5-3,1.2-4.4v1.5l0,7.2v5.7c0,0.6,0.4,1.1,1,1.1c0,0,0,0,0,0c0.6,0,1.1-0.5,1.1-1.1v-8.1h1
					v8.2c0,0.6,0.5,1,1.1,1c0.5,0,1-0.4,1-1v-5.7l0.1-7.2c0-0.7,0-1.3,0-1.7c0.7,1.4,1.2,3,1.3,4.5C10.1,40.7,12.1,40.7,12,39.4z"/>
			</g>
		</g>
		<g id="standing-frontal-man-silhouette-143" transform="translate(3568.558 1069.968)">
			<g id="Group_10453" transform="translate(0 0)">
				<ellipse id="Ellipse_7479" class="st0" cx="6" cy="28.9" rx="1.9" ry="1.9"/>
				<path id="Path_10953" class="st0" d="M12,39.4c-0.5-6.1-3.5-7.4-3.5-7.4c-1.9-1-4.1-0.8-5.8,0.5c-1.9,1.8-2.4,4.4-2.7,7
					c-0.2,1.3,1.9,1.3,2.1,0c0.1-1.5,0.5-3,1.2-4.4v1.5l0,7.2v5.7c0,0.6,0.4,1.1,1,1.1c0,0,0,0,0,0c0.6,0,1.1-0.5,1.1-1.1v-8.1h1
					v8.2c0,0.6,0.5,1,1.1,1c0.5,0,1-0.4,1-1v-5.7l0.1-7.2c0-0.7,0-1.3,0-1.7c0.7,1.4,1.2,3,1.3,4.5C10.1,40.7,12.1,40.7,12,39.4z"/>
			</g>
		</g>
		<g id="standing-frontal-man-silhouette-144" transform="translate(3568.558 1120.353)">
			<g id="Group_10454" transform="translate(0 0)">
				<ellipse id="Ellipse_7480" class="st0" cx="6" cy="28.9" rx="1.9" ry="1.9"/>
				<path id="Path_10954" class="st0" d="M12,39.4c-0.5-6.1-3.5-7.4-3.5-7.4c-1.9-1-4.1-0.8-5.8,0.5c-1.9,1.8-2.4,4.4-2.7,7
					c-0.2,1.3,1.9,1.3,2.1,0c0.1-1.5,0.5-3,1.2-4.4v1.5l0,7.2v5.7c0,0.6,0.4,1.1,1,1.1c0,0,0,0,0,0c0.6,0,1.1-0.5,1.1-1.1v-8.1h1
					v8.2c0,0.6,0.5,1,1.1,1c0.5,0,1-0.4,1-1v-5.7l0.1-7.2c0-0.7,0-1.3,0-1.7c0.7,1.4,1.2,3,1.3,4.5C10.1,40.7,12.1,40.7,12,39.4z"/>
			</g>
		</g>
		<g id="standing-frontal-man-silhouette-145" transform="translate(3568.558 1044.776)">
			<g id="Group_10455" transform="translate(0 0)">
				<ellipse id="Ellipse_7481" class="st0" cx="6" cy="28.9" rx="1.9" ry="1.9"/>
				<path id="Path_10955" class="st0" d="M12,39.4c-0.5-6.1-3.5-7.4-3.5-7.4c-1.9-1-4.1-0.8-5.8,0.5c-1.9,1.8-2.4,4.4-2.7,7
					c-0.2,1.3,1.9,1.3,2.1,0c0.1-1.5,0.5-3,1.2-4.4v1.5l0,7.2v5.7c0,0.6,0.4,1.1,1,1.1c0,0,0,0,0,0c0.6,0,1.1-0.5,1.1-1.1v-8.1h1
					v8.2c0,0.6,0.5,1,1.1,1c0.5,0,1-0.4,1-1v-5.7l0.1-7.2c0-0.7,0-1.3,0-1.7c0.7,1.4,1.2,3,1.3,4.5C10.1,40.7,12.1,40.7,12,39.4z"/>
			</g>
		</g>
		<g id="standing-frontal-man-silhouette-146" transform="translate(3568.558 1095.16)">
			<g id="Group_10456" transform="translate(0 0)">
				<ellipse id="Ellipse_7482" class="st0" cx="6" cy="28.9" rx="1.9" ry="1.9"/>
				<path id="Path_10956" class="st0" d="M12,39.4c-0.5-6.1-3.5-7.4-3.5-7.4c-1.9-1-4.1-0.8-5.8,0.5c-1.9,1.8-2.4,4.4-2.7,7
					c-0.2,1.3,1.9,1.3,2.1,0c0.1-1.5,0.5-3,1.2-4.4v1.5l0,7.2v5.7c0,0.6,0.4,1.1,1,1.1c0,0,0,0,0,0c0.6,0,1.1-0.5,1.1-1.1v-8.1h1
					v8.2c0,0.6,0.5,1,1.1,1c0.5,0,1-0.4,1-1v-5.7l0.1-7.2c0-0.7,0-1.3,0-1.7c0.7,1.4,1.2,3,1.3,4.5C10.1,40.7,12.1,40.7,12,39.4z"/>
			</g>
		</g>
		<g id="standing-frontal-man-silhouette-147" transform="translate(3568.558 1145.545)">
			<g id="Group_10457" transform="translate(0 0)">
				<ellipse id="Ellipse_7483" class="st0" cx="6" cy="28.9" rx="1.9" ry="1.9"/>
				<path id="Path_10957" class="st0" d="M12,39.4c-0.5-6.1-3.5-7.4-3.5-7.4c-1.9-1-4.1-0.8-5.8,0.5c-1.9,1.8-2.4,4.4-2.7,7
					c-0.2,1.3,1.9,1.3,2.1,0c0.1-1.5,0.5-3,1.2-4.4v1.5l0,7.2v5.7c0,0.6,0.4,1.1,1,1.1c0,0,0,0,0,0c0.6,0,1.1-0.5,1.1-1.1v-8.1h1
					v8.2c0,0.6,0.5,1,1.1,1c0.5,0,1-0.4,1-1v-5.7l0.1-7.2c0-0.7,0-1.3,0-1.7c0.7,1.4,1.2,3,1.3,4.5C10.1,40.7,12.1,40.7,12,39.4z"/>
			</g>
		</g>
		<g id="standing-frontal-man-silhouette-148" transform="translate(3568.558 994.611)">
			<g id="Group_10458" transform="translate(0 0)">
				<ellipse id="Ellipse_7484" class="st0" cx="6" cy="28.9" rx="1.9" ry="1.9"/>
				<path id="Path_10958" class="st0" d="M12,39.4c-0.5-6.1-3.5-7.4-3.5-7.4c-1.9-1-4.1-0.8-5.8,0.5c-1.9,1.8-2.4,4.4-2.7,7
					c-0.2,1.3,1.9,1.3,2.1,0c0.1-1.5,0.5-3,1.2-4.4v1.5l0,7.2v5.7c0,0.6,0.4,1.1,1,1.1c0,0,0,0,0,0c0.6,0,1.1-0.5,1.1-1.1v-8.1h1
					v8.2c0,0.6,0.5,1,1.1,1c0.5,0,1-0.4,1-1v-5.7l0.1-7.2c0-0.7,0-1.3,0-1.7c0.7,1.4,1.2,3,1.3,4.5C10.1,40.7,12.1,40.7,12,39.4z"/>
			</g>
		</g>
		<g id="standing-frontal-man-silhouette-149" transform="translate(3568.361 969.968)">
			<g id="Group_10459" transform="translate(0 0)">
				<ellipse id="Ellipse_7485" class="st0" cx="6" cy="28.9" rx="1.9" ry="1.9"/>
				<path id="Path_10959" class="st0" d="M12,39.4c-0.5-6.1-3.5-7.4-3.5-7.4c-1.9-1-4.1-0.8-5.8,0.5c-1.9,1.8-2.4,4.4-2.7,7
					c-0.2,1.3,1.9,1.3,2.1,0c0.1-1.5,0.5-3,1.2-4.4v1.5l0,7.2v5.7c0,0.6,0.4,1.1,1,1.1c0,0,0,0,0,0c0.6,0,1.1-0.5,1.1-1.1v-8.1h1
					v8.2c0,0.6,0.5,1,1.1,1c0.5,0,1-0.4,1-1v-5.7l0.1-7.2c0-0.7,0-1.3,0-1.7c0.7,1.4,1.2,3,1.3,4.5C10.1,40.7,12.1,40.7,12,39.4z"/>
			</g>
		</g>
		<g id="standing-frontal-man-silhouette-150" transform="translate(3513.361 919.353)">
			<g id="Group_10460" transform="translate(0 0)">
				<ellipse id="Ellipse_7486" class="st0" cx="6" cy="28.9" rx="1.9" ry="1.9"/>
				<path id="Path_10960" class="st0" d="M12,39.4c-0.5-6.1-3.5-7.4-3.5-7.4c-1.9-1-4.1-0.8-5.8,0.5c-1.9,1.8-2.4,4.4-2.7,7
					c-0.2,1.3,1.9,1.3,2.1,0c0.1-1.5,0.5-3,1.2-4.4v1.5l0,7.2v5.7c0,0.6,0.4,1.1,1,1.1c0,0,0,0,0,0c0.6,0,1.1-0.5,1.1-1.1v-8.1h1
					v8.2c0,0.6,0.5,1,1.1,1c0.5,0,1-0.4,1-1v-5.7l0.1-7.2c0-0.7,0-1.3,0-1.7c0.7,1.4,1.2,3,1.3,4.5C10.1,40.7,12.1,40.7,12,39.4z"/>
			</g>
		</g>
		<g id="standing-frontal-man-silhouette-151" transform="translate(3568.361 919.353)">
			<g id="Group_10460-2" transform="translate(0 0)">
				<ellipse id="Ellipse_7486-2" class="st0" cx="6" cy="28.9" rx="1.9" ry="1.9"/>
				<path id="Path_10960-2" class="st0" d="M12,39.4c-0.5-6.1-3.5-7.4-3.5-7.4c-1.9-1-4.1-0.8-5.8,0.5c-1.9,1.8-2.4,4.4-2.7,7
					c-0.2,1.3,1.9,1.3,2.1,0c0.1-1.5,0.5-3,1.2-4.4v1.5l0,7.2v5.7c0,0.6,0.4,1.1,1,1.1c0,0,0,0,0,0c0.6,0,1.1-0.5,1.1-1.1v-8.1h1
					v8.2c0,0.6,0.5,1,1.1,1c0.5,0,1-0.4,1-1v-5.7l0.1-7.2c0-0.7,0-1.3,0-1.7c0.7,1.4,1.2,3,1.3,4.5C10.1,40.7,12.1,40.7,12,39.4z"/>
			</g>
		</g>
		<g id="standing-frontal-man-silhouette-152" transform="translate(3513.361 894.16)">
			<g id="Group_10462" transform="translate(0 0)">
				<ellipse id="Ellipse_7488" class="st0" cx="6" cy="28.9" rx="1.9" ry="1.9"/>
				<path id="Path_10962" class="st0" d="M12,39.4c-0.5-6.1-3.5-7.4-3.5-7.4c-1.9-1-4.1-0.8-5.8,0.5c-1.9,1.8-2.4,4.4-2.7,7
					c-0.2,1.3,1.9,1.3,2.1,0c0.1-1.5,0.5-3,1.2-4.4v1.5l0,7.2v5.7c0,0.6,0.4,1.1,1,1.1c0,0,0,0,0,0c0.6,0,1.1-0.5,1.1-1.1v-8.1h1
					v8.2c0,0.6,0.5,1,1.1,1c0.5,0,1-0.4,1-1v-5.7l0.1-7.2c0-0.7,0-1.3,0-1.7c0.7,1.4,1.2,3,1.3,4.5C10.1,40.7,12.1,40.7,12,39.4z"/>
			</g>
		</g>
		<g id="standing-frontal-man-silhouette-153" transform="translate(3568.361 894.16)">
			<g id="Group_10462-2" transform="translate(0 0)">
				<ellipse id="Ellipse_7488-2" class="st0" cx="6" cy="28.9" rx="1.9" ry="1.9"/>
				<path id="Path_10962-2" class="st0" d="M12,39.4c-0.5-6.1-3.5-7.4-3.5-7.4c-1.9-1-4.1-0.8-5.8,0.5c-1.9,1.8-2.4,4.4-2.7,7
					c-0.2,1.3,1.9,1.3,2.1,0c0.1-1.5,0.5-3,1.2-4.4v1.5l0,7.2v5.7c0,0.6,0.4,1.1,1,1.1c0,0,0,0,0,0c0.6,0,1.1-0.5,1.1-1.1v-8.1h1
					v8.2c0,0.6,0.5,1,1.1,1c0.5,0,1-0.4,1-1v-5.7l0.1-7.2c0-0.7,0-1.3,0-1.7c0.7,1.4,1.2,3,1.3,4.5C10.1,40.7,12.1,40.7,12,39.4z"/>
			</g>
		</g>
		<g id="standing-frontal-man-silhouette-154" transform="translate(3513.361 944.545)">
			<g id="Group_10463" transform="translate(0 0)">
				<ellipse id="Ellipse_7489" class="st0" cx="6" cy="28.9" rx="1.9" ry="1.9"/>
				<path id="Path_10963" class="st0" d="M12,39.4c-0.5-6.1-3.5-7.4-3.5-7.4c-1.9-1-4.1-0.8-5.8,0.5c-1.9,1.8-2.4,4.4-2.7,7
					c-0.2,1.3,1.9,1.3,2.1,0c0.1-1.5,0.5-3,1.2-4.4v1.5l0,7.2v5.7c0,0.6,0.4,1.1,1,1.1c0,0,0,0,0,0c0.6,0,1.1-0.5,1.1-1.1v-8.1h1
					v8.2c0,0.6,0.5,1,1.1,1c0.5,0,1-0.4,1-1v-5.7l0.1-7.2c0-0.7,0-1.3,0-1.7c0.7,1.4,1.2,3,1.3,4.5C10.1,40.7,12.1,40.7,12,39.4z"/>
			</g>
		</g>
		<g id="standing-frontal-man-silhouette-155" transform="translate(3568.361 944.545)">
			<g id="Group_10463-2" transform="translate(0 0)">
				<ellipse id="Ellipse_7489-2" class="st0" cx="6" cy="28.9" rx="1.9" ry="1.9"/>
				<path id="Path_10963-2" class="st0" d="M12,39.4c-0.5-6.1-3.5-7.4-3.5-7.4c-1.9-1-4.1-0.8-5.8,0.5c-1.9,1.8-2.4,4.4-2.7,7
					c-0.2,1.3,1.9,1.3,2.1,0c0.1-1.5,0.5-3,1.2-4.4v1.5l0,7.2v5.7c0,0.6,0.4,1.1,1,1.1c0,0,0,0,0,0c0.6,0,1.1-0.5,1.1-1.1v-8.1h1
					v8.2c0,0.6,0.5,1,1.1,1c0.5,0,1-0.4,1-1v-5.7l0.1-7.2c0-0.7,0-1.3,0-1.7c0.7,1.4,1.2,3,1.3,4.5C10.1,40.7,12.1,40.7,12,39.4z"/>
			</g>
		</g>
	</g>
</g>
</svg>
