<svg xmlns="http://www.w3.org/2000/svg" xmlns:xlink="http://www.w3.org/1999/xlink" width="344.364" height="315.26" viewBox="0 0 344.364 315.26">
  <defs>
    <filter id="NL-DR" x="259" y="35.406" width="85.067" height="85.551" filterUnits="userSpaceOnUse">
      <feOffset dy="3" input="SourceAlpha"/>
      <feGaussianBlur stdDeviation="3" result="blur"/>
      <feFlood flood-opacity="0.161"/>
      <feComposite operator="in" in2="blur"/>
      <feComposite in="SourceGraphic"/>
    </filter>
  </defs>
  <g id="Group_13423" data-name="Group 13423" transform="translate(-832 -193.883)">
    <g id="Group_13256" data-name="Group 13256" transform="translate(-16925 -6931)">
      <g id="Group_9015" data-name="Group 9015" transform="translate(17834.5 7124.883)" style="mix-blend-mode: luminosity;isolation: isolate">
        <g transform="matrix(1, 0, 0, 1, -77.5, 0)" filter="url(#NL-DR)">
          <path id="NL-DR-2" data-name="NL-DR" d="M450.648,107.7l1.888.7.876-2.307.51-.157.161-1.469,1.055-2.8.118-.781.427-.423.467-.772.27-.092.31-.323.1-.881.118-.231.676-.288.955-.641.074-.14.488-.126.61-.584.039-.406,1.169-.227,1.164-.379.619.009.58-.148,1.871.815.484.026.462.894-.026.231.262.009,1.02,1.783.5,1.387.876-.379.166.026.3.515v.436l.214.837h.576l.889.781.344.458.31.118.462,1.273.305.24.157.541.3.148.017.789,2.847-1.3,1.186-.323,2.865.153.545.366.344.493,2.969,3.048,1.365,1.57,1.09,1.02,3.933,4.487,3.283,3.305L495.2,121.7l3.576,5.4.083-.022.584.6,1.456.388-1.958,4.757,1.64.174.214.807.257-.022,1.02,1.5.179.065.27.388.188.057.279-.157.078.044-.174.536-.061.65,1.387-.07h0l-1.443,3.27.009,1.286-1.221,17.42.057.262-.959,1.134-.423-.262-.51.022-1.116-.27-.349-.24-.183-.27-.837.057-.641-.432-.536-.17-.475.5-.545-.057-.458.462-.523-.065-.641.179-.541-.235-.135-.161-.61.013-.2-.693-.746-.214-.183.031-.349-.257-1.09.113-.493-.41-.737.453-.554-.022-.231.1-1.025-.384-.279.065-.711.432-1.038-.17-.218-.249-.711.078-.231-.2-.371-.022-.519.1-.392.214-.227.362-.628-.227-.379.283-.144-.2-.61.262-.937,1-.275.419-.65.318-.262.467h0l-.794-.048.249-.7-.14-.235.445-.488-.1-.227-.144-.048.353-.8-2.355-.82-4.2-2-4.4.99-.567.318-2.062,1.7-.048.214.153,1.317.214.637.192,1.9-.1.2h-.161l-.035-.24-.157-.013-.118-.283-.31-.022-.187-.349h-.436l-.414-.183-.44-.022-.144.122-.523-.057-.078-.179-.288-.113.013-.283-.305-.161-.266.842-.222.235-.759.227-.406-.065-.414-.262-.231-.3.022-.44-.188-.183-.074-.257-.192.349-.414.305-.048.262-.2.161-.624-.318-.218.4-.658-.022-.17.292-.624.331-.1-.026-.061-.314h-.174l-.253-.34-.035-.366-.2-.349.065-.467-.3-.419-.113-.554-.436-.545.07-.148-.305-.227-.214.022-.14-.148-.039-.235-.628-.375-.174-.227-.536-.192-.51-.458-.022-.51.188-.227-.236-.405-.414.022-.855.406-.528.035-.249.366-.231.031-.2-.113-.423-.576-.253-.035-.305.384-.187.035-.349-.227-.235-.318-.493-.035-.406-.305-.366-.615h0l-.379.035h0l-.523-.262-.074-.157-.2.07-.619-.353-.074-.3-.549.2-.371.013-.371.51-.885-.1-.166-.192-.532.218-.331-.685-.227-.214-.087.057-.235-.148-.427-.567-.353-1.225-.781-1.7-1.4-3.593.314-.545.148-.1,1.587-.384,1.339-.672.083-.549,2.25-2.49-.449-.453-1.308-1.8-.493-.275-2.446-2.847-.345-.453-.153-.445-.528-.685h0l2.908-2.246,2.9-1.862,1.836-2.555.876-.693.318-.619.5-.318.436-.035,2.834.275,2.167,2.224,4.086-2.921,2.407-4.557-4.513-7.011.3-3.894-4.116-1.557Z" transform="translate(-169.15 -53.83)" fill="#baa0f2"/>
        </g>
        <path id="NL-FL" d="M300.194,225.077l-.275-.1-.022-.227.14-.148.174-.907.9-2.141.536-.532,1.138-.554.144-.262-.013-.227-.794-2.446-3.828-6.166h0l.157-.113h0l3.859,6.166.815,2.638-.174.554-1.3.61-.406.453-.916,2.228Zm19.639-35.105.689.135.545.536.471-.192-.427-1.286,1.382.423,2.5,2.529.427,1.653.257-.148h0l.615,1.094.933.82.013.218H328.5l.144.1.815.148.606.3,1.352.933.406.567.7.6.414.262.249.013,1.33,1.264.249.388.488,1.26.7,2.411.484.249.235.41v.4l.14-.013.227.183.3.658.013.4-.179.3-.222.035-.392.467-.641.445-.781.885.026.388.166.192.3.035.009-.157.92.362.475.035.667.227,1.1.964,1.125.305.82.815.174.283.013.17-.358.419-1.552,1.033-2.285.5-.1.249-1.587.894-1.02.126-.345-.375-.554-.214-4.064.894-.358.148-.187.305-4.09-.013-.026,2.991,1.626-.022.637.113,2.939,3.135.214.645.545,3.113h0l-.475,2.115-.427.624-.179,1.086-.436,1.2.009.214-.131.135-.484-.157-.192.092-.964,1.84-.022.126.392.576-.759,1.108-.144.44-1.343,1.321-.545.327-1.469,1.356-.249.07-.083.157-1.077.868-.179-.013-.262-.235-.144.035-.039.157.118.214-.353.283-.166.283-.5.362-.759.305-.58.563-.65.192-.641-.013-1.884,1.613-.331-.349-.249-.079-1.709.811-.471.384-.318-.392-.236-.035-1,.214-.174.17-.807,1.251-2.285,7.059-.462,1.26-.253.362-7.666,2.193-1.02.392h0l-1.339-1.147-3.506-3.467h0l-1.661-1.644-2.028-1.339-4.243-1.068-4.8.82-.471-.27-.506-.632h0l.1-.092-.118-.214.471-.427-.615-.584-.179-.013-.074.092-.057-.1.214-.235.074-.305-.118-2.185-.711-1.352.013-.667,2.359-1.422.353-.811,3.131-1.849.815-.022.318-.17.214-.148.423-.746,1.4-.859,8.913-6.279.7-.1.427-.249,2.669-2.4.131-.432-.222-.384-.039-.532-.179.1-.249-.013.061-.6.262-.07.061.17.083-.183.318-.092.323-.292.615-1.426.449-.589,2.1-.126.292-.126,2.337-2.233.074-.113-.283-.305.24-.24.249.227-.1.078.083.07,1.953-2.006,4.618-1.339.65-.58h.2l.685-.68-2.18-3.514-1.234-.907-.026-.1.253-.092-.323-.419-.436.078.118-11.647,4.609-7.5.427-.262,2.725-.34.2-.035.07-.144Z" transform="translate(-157.568 -106.801)" fill="#baa0f2"/>
        <path id="NL-FR" d="M287.49,91.612l.044.148-.144.013-.615-.24.1-.1h.4l.218.183Zm-2.821-.51-.305-.135.074-.057.227.078V91.1Zm-8.389-13.53-.1-.113.07-.227.118.135Zm-.6-4.574-.131-.379.057-.078.131.388Zm-1.958-9.466.179.331.257.1.31-.078.366.379.153.676.449.872-1.33-.092-.144-.414-.453-.654-.153-1.02.039-.092Zm-2.424.07.092.331-.061.148-.24-.078-.283.17-.192-.057-1.788.515-5.664,4.993-.035.3-.323.262-.157-.113-.24.2.318.126.249-.2.048.057-.262.218-.427-.126L259.88,72.47h0l-.283-.379h0l2.4-2.106-.039-.253.318-.17-.257.218.044.148,6.449-5.69.292-.161,1.753-.48.044-.078.222.135.262-.07.061-.1.148.122ZM253.2,36.785l1.827.344.1.057.083.519-.318.2-.214.3-.31-.14.131.24-.288-.113-.545-.022-1.029.288-.532.541-.85.589-1.147.528-2.546.9-1.234.61-.122.275.449,1.081-.131.161-.392.07-.118.148-.035.61.187.078-.131.427-1.683.689-.937,1.012-.423.2-.933-.078-.584.1-1.265.689-.344.022-.227-.183-.34-.645.009-.331,3.907-2.472.593-.528,1.461-1.714,1.051-.85,4.055-2.764.937-.266,1.374-.576Zm4.853,2.006-.222.323-.288.048-.366.471-.157.057-.31-.148-.388.07.009-.231.249-.022.144-.174-.179-.323-.3-.092.654-.645.07-.174.637-.462.4-.519.235-.148.414-.022.2.414-.048.344-.379.75-.384.484Zm3.31-11.873-.044-.092.157-.183-.113.275Zm69.095-1.962L328.852,27.3l.057,1.465.353,1.038.236.371.5.414,2.276.624.3.161.257.392.192.728.305.371.484-.057.807-.567,1.147.275,1.264.554-.366,3.192.026.1.65.148.179.275-.405.471-.6.218-.214.344-.035.4-.2.24-.083.484-.1.083-.536-.161-.51.3L334.7,40.5l.236.68-.035.4H334.7l-.166.174-.179-.231-.131.013-.179.366-.3.266.035.323-.118.24-.419.161.2.288-.044.174-.31.253.1.323-.026.562-1.195.2.192.724.567.449.109.554.3.4-.109.515-.222.253-.1.427-.323.541-.449.366-.249.392-.414.048-.2.14-.1.61-.453.436-.109.366-.885,1.631-.192,1.208-.109,2.9,1.234,1.539.868.767,2.272.344,1.905-.078,1.007.541.506.493.406.641,1.657.663h0l-.558,1.535,4.112,1.557-.3,3.894,4.513,7.011-2.407,4.557-4.086,2.921-2.167-2.224-2.834-.275-.436.035-.506.318-.318.615-.876.7-1.836,2.555-2.9,1.858-2.9,2.246h0l-.85.719-.837.536-.371.035-.344.192-.262.275-.31.057-.9-.1-.781.318.227,1.138-.14.249-1.042.637-.584.24-.31-.628-.785.1-.571.192L317.5,93l-.227.013-.3-.057-.353-.318-.262-.057-.323-.876-.4-.593-.214-.876-.933.2-.305.2-.083.17.074.432-.641-.262-.331.135-.719.092-.026.24-.283.135.1.192-.083.126-.013.571-.619.41-.353.536-.6.375-.262.41-1.443.685-.331-.035-.637-.34-.323.013-.249-.148-.65.022-.371-.192-.27.249h-.166L305.76,94l-.842-.48-.1-.17L303.165,94.5h0l-.257.148-.427-1.653-2.5-2.529-1.382-.423.427,1.286-.471.192-.545-.536-.689-.135h0l.048-.488-.174.192h-.131l-.118-.148-.214.2-.166-.17.026-.34-.166-.135-.9-.135-.837.044.14-.4-.092-.035-.153.458-.235.044-.013.24L294.113,90l-.51.057-.039-.148-.275-.218.166-.135-.035-.776-.772-.571-.449.113-1.4.959-.964-.135-1.234.283-.166.31-.144.741-.153.161-.82.48-.985.2-.34-.044-1.53-.593-2.856-1.321-1.753-.523-.453-.035-.214.1-.048.262-.663.057-.986.331-.615-.218L275.6,88.6l-1.055-1.138-.889-.65-.353-.41.109-.218-.048-.113-.323-.057-.475-.785.323-.283.2-.41.685-.789.981-.445.283-.283.711-.2.379-.536.07-1.164-.14-.24-.227-1.565-.379-.458.366-.318.235.07.179-.126-.035-.1-.253.022.026-.1.27-.022.1.135.1-.1-.009-.8.061-.078.14.148-.009-.126-.214-.318-.026-.283-.222.078-.109-.07.51-.126.07-.528-.371-1.382-.144-.161-.131-.493.035-.24-.14-.078-.1-.606.026-1.121-.179-.2.6-1.016-.144-.227.166-.951-.174.057-.436-.227.083-.515-.192-.113.07-.126h.249l.048-.48.092.161.1-.022-.214-.628L276,66.75l-.2.767-.035.894-.262.183-.179-.2-.026-.388-.262-.549-.192-.31-.484-.436-.109-.676.1-.092h.436l.083.3.275.013v-.3l.292-.022.214.344.318-.044-.323-.767-.249-.288-.2-.445-.131-.515.1-.388-.1-.458-.628-1.365-.118-.057-.257.057-1.731,1.626-.484.231-.118.218-.2-.022-.192-.641.092-.1.144.092.4-.126.27-.183,1.927-1.866.131-.183.192-.929-.144-.253.039-.14,1.116-.676.589-.767.392-1.413.192-2.573.214-.964-.022-.484-.371-.2L276.4,52.4l.249-.253.083-.24.5-.275.083-.288-.1-.07.554-1.687.323-.6.275-.828.7-1.125,1.033-.92,1.36-1.539.567-.231.815-.632.828-.471.157-.2.746-.414.676-.828,1.247-1.151.419-1.173,1.919-1.936,1.945-1,.855-.183,2.594-.981.641-.126.619-.31.462-.022.746-.541L301,31.854l1.6-.624.65-.379.292-.057.188-.2,1.007-.266.794-.554,1.491-.828,1.051-.344.392-.427.737-.209.31-.2-.746-1.073.048-.1.192.266.153-.161.131.288-.1.148.392.554.558.092.427-.244,1,.14,1.988-.589.82-.371.842-.113.1-.218.187.2,1.029-.183,1.836-.589,1.858-.148,1.788-.323,1.112.3.122-.3.14.3.292-.449.14.209.637.022,2.254.406,2.738-1.3.462-.035.545.458Zm-45.9-4.116-.8.07-.074.14.118.14,1.84-.253.275.035.157.314-.2.8-1.064.61-.323.092-.484.1-.131-.057.061-.092-.074-.057-.118.092-.157-.048-.807.624-1.208.624-.641-.092-.366-.336-.048.288.179.314-.009.379-.672-.161-.554-.406-.379-.07-.048.148.083.092.85.6,1.068.406-.131.161-.2-.148-.187.057-.153.174.131.113-.192.126-.65.148-2.852-.092-.911.057-1.077.279-.567.253-1.3,1.326-.807.541-.471.183-.344.022-.619.449-.815-.3-.166.323-.44.218h-.344l-.2.279-.061.275-.619-.07-.641-.244-.689.244-.6-.183-1.077.946-.048-.113-.275-.126-1.138.14-.288.392.035.554-.1.083.1.2-.24.035-.262-.209h-.283l-.109.174-.34.183-.392.532-.358.174-.305.379-.815-.2-1.064-.68-.1-.161-.192-.959V30.2l.388-.484,1.1-.968.685-1.016.27-.68h.083l-.074.344.118-.013.074-.44.3-.344-.035-.083-.266.031.2-.14,7.343-1.374,1.326-.323.187.161.358-.048,6.715-2.185.323-.323,1.347-.379,4.169-1.674,1.36-.253.724.013.34.07.118.148-.013.253-.131.161-1.321.183ZM321.5,19.374l.118.924-.174-.3-.2.266-.519.253-.222.288-.379-.183-.144-.645.4-.589.536.048.536-.126Zm-23.35-.026,3.693-.148,4.657-.532.985.174,4.9-.253,2.56.1.471.083.292.288-.14.279-.257.14-.7.148-1.622-.057-.6.092-1.461-.126-.968.449-.323.266-1.1.279-.214-.022-.571.279-1.91.414-.109.118-1.91.532-1.278-.07-.676.118-.07-.057-.039.406-.14.148-.153-.083.122-.092.022-.567-1.365-.083-1.282-.323-.7.048-.253.174-.222.532-.964.741-1.042.314-.58.314-.868.048-.013.379-.2.161-.4-.118-1-.671-.972-.449-.51-.58-.619-.994-.022-.693L290.9,19l.3-.5.331-.266.414-.148.663-.013,1.469.589,2.42.567,1.653.113Zm29.489-5.69.619.118.676.637.938.161,1.029.048,5.049-.693,2.808-.266,2.52-.1.126.2-.109.288-1.1.567-.654.279-.724.126-1.561.75-.842.153-.462.58-1.727.811-.453.1-1.365.035-1.587.358.353.427-.026.118-.34-.209-.153-.279h-1.844l.009.449-.144.013-.07-.44-.471.092-.131.3-.179.083.179.244-.589-.083-.187.148.187.266-.131.1-.026.2.222.314-.414.083-.619-.231-.366.035-.488.658-.227.035-.275-.118-.022-.092.174-.5.118-.959.227-.785.5-.972.619-.9,1.347-1.2.344-.14-.1-.161-2.594-.6-.51,1.3-.305.022-.144-.092.048-.419.475-1.1h.85l1.526.253Z" transform="translate(-135.066 -7.68)" fill="#e3d8fa"/>
        <path id="NL-GE" d="M318.942,273.094l.937-.349,1.073.951.916,1.142.484.824.719,1.526.218.7.523-.24.27.249.876-.654.406-.1.6.859,3-3.109.746-.262L330,274.4l.192-.34.427.236.27.035,1.326,1.042.44,1.073.353.532.549.449,1.042.467.589.711.188.554.083,1.23-.07,1.064.266.349.545.405,1.025,1.513.392,1.129.039.419-.384,1.487-.305.611-.022,1.06-.148.314-.183.2-1.26.484-1.369.262-.275.379-.013.406.126.262.157.135.549.122.218.183.1.235-.379.314-.7.214-.174.3.092,1.138-.1,1.1-.113.8-.275.34-.009.222.685.092.235.519.039,1.225.462.148.719.009.144.262.2.628.358.506.057,1.09.658.811.2.855.384.34-.4.571v.44l.785.179.388.279.855-.078.035.227-.118.392-.484.314-.144.371.187.719.467.34.589.144.183.327-.017.358.148.135.126-.135.013-.2-.249-.292-.131-.371.27.113.052-.1-.144-.109.161-.292.314.336.065-.663.1-.392.1-.048.31.035.283-.122.449.135.759-.035,1.007.754,1.064.144.475.179.475-.009.187.144.911-.078.667.192.035-.327.453.157.161-.222.8-.214.057.179.209.044.048.192.214.192,1.426.013.554-.157.606-.026.039-.955.458-.3.275-.048.14-.3,1.3-.078.767-.327.392.192.89-.057,1.125.135-.022.563.484.685.283.811,1.391,1.456.567,1.147.41.157.454.022.139.135.031.619.379.855.231.3.667.327.227.222.236.079,1.317-.471,2.743.449,2.481-.506.048-.113.209.126.022.179.427.179.135.27.305.214-.222.458.048.183.58.536.58-.436.292-.1.118-.362.166-.135.366.113.336.471.34-.593.288.022,1.421.75.192.179.126.371-.013.27-.222.327.192.1-.013.615.092.314-.092.719-.733,1.177,1.016.471,1.5.279,1.182.549,3.109-.022h0l-.3,2.32-.24.379-.061-.157-.174-.065-.4.379.061.292.327.314.013.314-.855,1.064-2.935.493.153.292-.039.336-.436.907-.235.1-.026.436.1.122-.009,1.308h1.884l2.682,1.286.672.593.227.462.471.188,2.346,1.923,0,.414.126.144,1.247.192.222.715-.07.78.227.894-.131.484-.2.353-.916.035-.34.323-.724.257-.192,1.43.013.951-.724.737.157.179-1.095,1.339-1.264.523-.013.392-.14.144-1.02.358-.331.61-.65.314-1.142-.9-.222-.244-.048-.436-.17.087-.14-.057-.244-.6-.344-.009-.331-.2-.336.1-2.747,1.3-.44.458-.244.022-.344-.122-3.192,1.068-.828.571-.51.488-.2.013-.305-.414-.523.214-.51.545-.685.445-.785.327-.65.453-.2.192-.013.323-.292.414-1.4.375-.593.349-.371-.135-.7-.937-.305-.257-.371.305-.85.423L358,347.1l-.126-.624-.746-.249-.179-.266-1.138-.1-.353-.323-.153.065.057.292-.27.759.048.153,1.06.85.51.131.035.179-.528.737,0,.423.31.645-.035.078-.262-.07.227.772-.061.179-.222.074-1.16-.767-1.073-.031-.436-.2.1-.3-.262-.658-.5-.445-2.058-.27-1.273.122-.353-1.592-.179-.113.083-.331-.741-.358-.344-.044-.24-.235-.523-.078-.305.122-.3.4-.554.17-1.121-.022-.3-.1-1.265.153-.331-.078-.855-.5-.964-.99-.048-.445.528-.1-.17-.2.022-.235-1.478-1.125-.092.209-.82-.515-1.574.27-.467.358-.51-.4-.249.488-.222-.131-.14.131.031.292-.345.279,1.068.022.733.523.48.222.379,1.06.044.615,1.343,1.081-.026.667.153,1.535-1.478-.532-1.033-.222-1.186.044-.89-.2-.567-.279-1.086-.968-.785-.493-.379.7L332,347.5l.161.366-.065.244-.82.458-.58.536-.227-.235-.815.3-.353.7-.811.41-1,.113-.645-.244-.528-.044-.571-.358-1.116,1.382.916.711-.222.288-.1-.079-.1.1-.161-.122-.083.07-.109-.1-.126.144.044.222,1.173.632.253.449.711.554.031.157-.249.157.157.166-.262.51.222.458.432-.013.314.214.2-.07.074.113-.453.458-.074.589.475.545-.035.323-2.106,1.565-.235.07-.144.188,0,.554h-.262l-.07.214-.153.078-.794.052-.283-.3-.013-.2-.292-.257-.488-.244h-.3l-.227-1.247-1.3-1.666-.436-.078-1.43.187-.026.257.375,1.369-.388.41h0l-1.033-.187-3.113.344-1.67.432-1.007-.009-.475-.1-.567-.279-.406-.344-.362-.58.078-.065-.187-.323-.523-.532-.31-.179-1.326-.222-.331-.323-.493-.846-.523-.5-1.291-.222-.737-.467-.475-.7-.41-1.212-.453-.5-.353-.1-.863.022-.392-.157-1.156-.754-.876-.214-.837.17-1.221.087-.31.266-.51.846-.445.135-1.435-.358-1.06-1.055-.427-.222h-.257l-.672.288-.249.48-.1.632-.3.423-.379.27-.863.209-.449.065-.959-.087-.689-.288-.637-.9-.218-.144-.567.009-.214.179-.344.624-.815,1.047-1.2,2.036-.427,1.421-.065,1.461-.266.467-.349.253-2.18,1-1.387.955-.323.022-.924-.331-.767-.07-.488.17-.532.445-.44.144-.506-.192-.715-.641-.5-.214-.392-.044-1.622.353-1.369-.331-.894.035-2.437.619-.026-.811.8-.667.305-.453-.323-.279-.126-.288.031-.445.2-.589-.048-.323-1.574-.767-.7-.724-.344-.179-.419-.065-.4.174-.672.715-.488.065-.249-.1-.606-.667-.305-.645-.344-.235.009-.31-.161-.166-1.849-.846-.532-.467-.371-.9-.406-.292h0l1.033.022.449-2.171-1.483-.2-.414-.689.148-.615-.253-.811.179-.187.785.689,1.749-.044.667.266.227-.257.78-.31.257-.244-.475-.292-.174-.379.109-.379.567-.279.837-.009.48-.27.458-.68.074-.545.2-.157.41.126.449-.113.741.179.157-.3.126-.951.955-1.77.327.153-.044-.7.885-1.282-.057-.279.2-.044,1.993-3.8h0l.946.615.885.192.371-.092.493-.436.606-1.173.3-.366.523-.135.545.323.807.837.767.414.876.235,1.116.144,1.068.715.589.035.842-.427.685-.881.545-.379.584-.092,1,.214.658-.044,2.167-.828.907-.767.453-.249,1.884.371,1.217-.135.4.1.942.571.453.414,2.228.824.5.794.5.392.536.231,1.788.458,1.169.785.693-.615.4.222-.031-.571.41-.1,0-.667-.3-.728-.013-.3.179-.279.074-.471-.7-.824-.153-.916-.3-.462-.432-.087-.554-.515-.283-.3-.061-.715-.118-.192-.214-.235-.166.179-.676-.737.379-.009.092-1.958-1.312-.493.092-.772-.528-.227.244-.658.17-1.648-.074-.153.2-.828-.113-.876-.192-.009-.227-.27-.057-.807-.262-.179.131-.314-.118-.641-.467.07.035.214-.148.03-.179-.209-.615.157.048.288.209.07,0,.157.174.144-.192.449.371.1-.035.292-.048.222-.558-.166-.222.392.458.188-.663.706-.576-.122-.61.044-.179.606-.811.009-.584.2-1.186-.706-.044-.214-.275-.065-.131-.148.746-.951.994-.628-.092-1.164.6-.584.035-.214-.484-.314,1.426.148v-.157l-.288-.157L294.1,318l-.336-.109-.318-.392.157.031.1-.628.754-.109.336-.65-.929-.462-.048-.166.131-.654-.711-.022-.558-.244.1-.754-.2-.065.044-.236-.449-.192-.035-.17-2.634-.358-1.1-.392.057-.405-.113-.672-.227-.227.3-.235.519.157.283-.236.179-.863-.022-.663-2.821-2.3.794-3.414h0l1.02-.392,7.666-2.193.257-.362.462-1.26,2.285-7.059.807-1.251.17-.166,1-.218.235.035.314.4.471-.384,1.709-.811.249.078.331.349,1.884-1.613.641.013.65-.192.58-.567.759-.3.5-.362.166-.283.353-.279-.118-.218.039-.157.148-.035.262.24.179.009,1.077-.868.083-.157.249-.07,1.469-1.352.545-.327,1.343-1.321.144-.44.763-1.108-.4-.576.022-.126.968-1.84.192-.092.484.161.131-.135-.009-.218.436-1.195.179-1.086.427-.624Z" transform="translate(-146.167 -153.938)" fill="#a381ed"/>
        <path id="NL-GR" d="M487.617,12.209l.283.183.323-.035.885-.82.227-.083,1.2.484.144.406-.026.323-.144.244-1.2-.244-.048.218,1.077.266-.074.314-.558-.1-.07.183.911.218.471-.057.519.14.048-.231-.558-.1-.109-.126.292-1.108,1.352.427,1.526,1.456-.035.545-.545,1.535-.074,1.618.388.392.615,1.051-.187.3.249.1.092.209-.092,1.212.392,1.177-.022.554.388,1.718.144.244h.436l1.256,1.116.292.379.345.048v.2l-.257.057-.152.554.719.231.187.266.236-.035.842.31.227.174.379-.013.366.113,1.1.532.366.083.475.436.488.288,1.129.436.9-.035.44.148.166.183,2.041-.048.288-.414.785-.148.257-.288h.187l.013.3-.187.057-.419.562-.406.31-.144,1.025.122.815-.554,1.53.035.436.248.126.035.323.2.231.5.24.174.2.275.035.126.24.89.035.323-.113.009.183.083.022L511.3,36l.7.519.815.218.475-.183.641.484.815.148.187.161,1.247.31.109.1.131-.113-.1-.266.205-.506.235,1.622-.026.519.288.872.091,2.058-.1.344-.436.506-.109.288,1.269.929.022.266-1.077.484-.571.022-.737,1.4-.022.288-.179.358-.026,1.1-.436.8-.24.161.275,1.914,1.243.916-.144,3.815.9,7.57.353.9-.558.7-1.709,5.978-.1.676-5.294,8.777-1.147,1.469-.153.331.344,1.286h0l-1.386.07.061-.65.174-.536-.074-.044-.283.161-.187-.057-.27-.388-.179-.07-1.02-1.491-.257.022-.214-.811-1.644-.17,1.958-4.757-1.456-.388-.584-.606-.083.022-3.575-5.4-1.967-2.708-3.283-3.305-3.933-4.487-1.09-1.02-1.365-1.57L484.856,52l-.344-.493-.545-.366L481.1,50.99l-1.186.323-2.852,1.3-.013-.789-.3-.148-.157-.541-.305-.24-.462-1.273-.31-.113-.344-.458-.889-.781h-.571l-.214-.837v-.436l-.305-.515-.166-.022-.876.379-.5-1.391-1.02-1.779-.262-.013.026-.231-.462-.9-.484-.022-1.871-.815-.58.148-.619-.013-1.164.379-1.164.231-.039.4-.606.584-.488.126-.074.14-.951.645-.676.288-.118.231-.1.885-.31.323-.27.092-.471.767-.427.423-.118.781-1.055,2.8-.157,1.469-.51.161-.876,2.3-1.892-.7h0l-1.657-.663-.406-.641-.506-.493-1.007-.541-1.906.078-2.272-.344-.868-.767-1.234-1.539.109-2.9.192-1.208.885-1.631.109-.366.453-.436.1-.61.2-.14.414-.048.249-.392.449-.366.323-.541.1-.427.222-.253.1-.519-.3-.4-.109-.554L448,38l-.192-.724,1.195-.2.026-.562-.1-.323.31-.253.044-.174-.2-.288.419-.161.118-.24-.035-.323.3-.266.179-.366.131-.013.179.231.166-.174h.192l.035-.4-.236-.68.122-1.326.51-.3.536.161.1-.083.083-.484.2-.24.035-.4.214-.344.6-.218.405-.471-.179-.275-.65-.148-.026-.1.366-3.192L451.6,25.1l-1.147-.275-.807.567-.484.057-.305-.371-.192-.728-.257-.392-.3-.161-2.276-.624-.5-.414-.235-.371-.353-1.038-.057-1.465,1.609-2.346h0l.249-.14.358-.035.118.113-.131.148.035.174.275.013,2.621-.772.671-.048.58.174,2.263,1.269.345.231.58.868h.1l1-.624.785-.706,2.1-.959,1.953-.75,2.9-.484,8.577-.981,2.071-.6,1.221-.484,1.051-.58,1.945-.776,3.262-1.064,3.1-.384h.75l1.744.567.794.5ZM461.162,4.9l.323.057-.035.288-.937-.126-.737.048-.1-.183.122-.2.388-.035ZM473.48,4.23h.406l.074.083-.035.126-.235.1.057.231-.074.083-.951-.349-.157-.244.061-.183.462-.057.392.2Zm2.049-1.971.035.14-.083.092-.628-.209-.344.083-.039.244.406.349-.022.253-1.413-.671-.283-.057-.833.161-.166-.218.026-.183.406-.488.44-.126,1.491.161Zm-8.494-.279.628.048.488.209,1.182.985-.013.161-.235.035-.89-.288-.275.048-.358-.44-.083.013-.144.2.131.462-.131.244-.689.013-.345-.135-.371.253.262.3-.048.253-.34.231L465.2,4.4l-.31-.253-.153-.916-.815-.58-.283-.427-.044-.846.379-1.1.262.035.3,1.007,2.5.663Z" transform="translate(-250.901 -0.275)" fill="#d0bff6"/>
        <path id="NL-LI" d="M369.946,466.689l.388-.41-.375-1.369.026-.257,1.43-.188.436.078,1.3,1.666.227,1.247h.3l.488.244.292.257.013.2.283.3.794-.052.153-.079.07-.214h.262l.122.624,2.629.065.772.567,1.478.637.4.41.218.523.139.1.153-.135.331.257.035.174-.126.323-.545-.065-.157.065-.344.214-.083.318.122.737.27.318.048.344.022.388-.331.4.166.676-.048.458.166.41.549.353.946.266,1.622.645.1.2.414-.144.157.122v.188h.6l1.421.353-.013.68-.214.344L386.9,479l-.4,1.609-.122.022-.4,1.23-.262-.122,0,.811-.192.942,1.068.754,1,.863.432.828.746.82,1.121.985.427.523.654,1.635.545,1.077.7.462.781.7.985,1.727-.013,2.307.344.776.358,1.382-.323,2.342.022.427-.279.026-.083.131-.026,2-.519,3.035,1.369-.065-.009.2-.807,1.326.815,2.812-2.451,2.259-.026.153.2.5-1.67.362-.017.384-.379.432-.222.475-.026.506-.318.506-.035.419-.759,1.155-.959,1.221-.388.911-.048.366-2.621,2.891-.916.563.977,2.084-.087.166-.776-.044-.358.174-.022.157.2,1.195.24,2.826.615,1.195.44.144.733.031.2-.2.262-.044.453-.3.658-.693,2.952-1.426.44.253.706.637-2.839,1.317-.083.131,2.376,1.483.052.174-.846.584-.035.458-.27-.009-.187.109-.562-.057-1.121.419-.218-.109-.314.174-.2.3-.964.493-1.051.188-.266.746-.161.087.044.34-.161.03-.2-.24-.078.419-.235.1-.218.275-.794.253-.283.2-.092.558-.855.99-.8.61-.767.231-.305-.187-.1.266-.31.044-.275.414-.815.628-.414.828-.641.231.113.353-.366.58-.379.327.035.283-.161.3.1.24-.122.223.013.732-.44.283-.331.074.131.615-.262.087-.2-.2-.558-.013-.523.188-.109-.58-.672-.942-.449-1.465-.366-.427-1.535,1.421-1.823.253.122.68.824,1.007-.113.545-.235.022-.039.2.44,1.116.41.514.728.34-.017.645.641.283-.166.768.07.785-.711.789.323.632.5.031,1.112-.445.894-.711,1.36-.305.1.022.131.292.523.362.166.3.423-.1.157-.166.423-.161,2.991-.1.092.209-.78,2.023-.153.248-.532.427.794.493-.026.488.227,1.522,1.561.445.262.209.371-.131.3.283-.079.536.9.1.31-.218.2.022.606.2.375.414.179-.336.227-.109-.1.436-.423.283-.087.336-.283.275-.471,1.788.118.61.51.733.331.807-.179.253-.109.545-.179.087-.065.2-.3.34-.2,1.469-.327-.044-.8-.523-.14-.458-1.923.972-.462.161-.153-.03-.048,1.513.236.358.192.087-.009.209.283.654-.24.2-.126-.009.118.336-.641.624-.371.6-.161.1-.331.087-.262-.24-.467-.218-.283-.314-.279-.044-.331.253-.349.541-.057.654.885.262.536.406.283.628,1.919,1.177.013.174-.462.9-.236.2.3.706-.323-.013-1.033.24-1.382-.044-.249-.1-.057-.414-.288-.327-.737-.174-2,.641-.563.48-.514.166-.039-.436-.153-.044-.593.065-.305.371-.842-.61.009-.619-.262-.728-1.644.846-.724.75-.122-.031-.3-1.055-.911.589h-.676l-.445.235-.48.1-1.125-1.587-.506.283-.1-.035-.584-1.544-.693.118-1.408,1.622-.371.685H360.5l-.58-.4-.366.458-.767.131-.392.366-.453-.074-.235-.2-.34-.009.057-.414.876-1.2.331-1.033-.031-.283-.6-1.23.013-.227.453-.645-.013-.2-.392-.619-.924-.079-.109-.436h-.392l-.174-.183-.392.044-.558-.262-.092-.144.092-.153-.057-.2-.275-.318-.166.065.131-.576-.484-.611.118-.174-.222-.109-.013-.349-.157-.227.061-.349.122-.131-.122-.392.166-.284-.07-.514.061-.118-.131-.187.5-.423-.262-.327.179-.24.34-.057,1.221-.772h.58l.249-.733.619-.558.227-.336.153-1.256.214-.318.523-.109.719.414.358-.183.214-.405v-.807l.2-.6.829-1.047.388-1.221.75-.375-.017-.458-.188-.392-.227-.209-.484-.087-.554.484-.523.131-.471-.253-.061-.558.911-1.081.24-.61.746-.419.663-1.112.406-.362.161-.3.07-.27-.065-1.051.637-1.182.044-.275-.279-.48-.89-.371-.083-.318.462-.754.462-1.116.057-1.077.1-.174h.384l.828.44.414-.087.174-.222.017-.292-.249-.942.166-.288.362-.283.048-.2-.174-.419-.44-.545-.026-.331.392-.384.536-.14,1.016.406.462-.406.083-.188.1-.623-.283-.419-.275-.118-.754-.013-.336-.2-.1-.427.109-.4.981-1.2.249-.122.9-.109.318-1,.676-.471-1.286-1,.092-.384-.292-.244-.039-.349-.318-.24-.249-.4-.562.528-.135.427h-.166l-.371-.362-.131-.013-.27.388-.323.183-.31.022-.589.5-.371.1-.166-.406.07-.24.2-.222v-.327l-.2-.044-.022-.253-.318.065-.074-.327,0-.187.449-.131.057-.113-.34-.074.174-.593-.641-.658-.863-.166-.6-.362-.275.218-.061.166-.257-.131-.288.174-.292-.109-.1.131-.58.013-.536.414-.545-.2-.113-.131-.262-.035-.061.131-.174-.009-.231-.24-.85.249-.109-.2-.249-.122-.545-.044-.379.1-.436-.7-.022-.183.166-.122-.157-.384-.807-.419-5.254-2.141h0l2.014-.615-.013.24,1.753-.881.318-1.888.1-2.695,3.07-4.369,14.014-4.373,4.051-3.471-4.182-7.129-.811-4.609-.528-1.347-1.016-7,3.663.72,1.16.92,2.272-.235,2.119-.685,2.42-.994.842.671.855,1.064.4-.388.131-.022.2.166.2-.187.179-.022.026-.122-.318-.366-.2-.462L381.88,486l-.724-1.064-.2-.51-.1-.75.039-1.033-.218-.754-1.736-1.7-1.517-.929-.2-.222-.109-.554.523-1.055.013-.51-.44-.2h-.75l-.249-.253-.031-.379.545-.842-.48-1.91-.148-1.343-.266-.244-.994-.423-1.91-.257-.414-.1-.741-.366-.48-.61-.148-1.155-.318-1.312Z" transform="translate(-197.031 -262.061)" fill="#baa0f2"/>
        <path id="NL-NB" d="M187.654,451.936l.406.288.371.9.532.467,1.849.846.157.166-.009.31.344.235.305.645.606.667.249.1.488-.065.672-.711.4-.179.423.065.344.179.7.724,1.574.767.048.323-.2.589-.026.445.126.288.323.279-.305.453-.8.667.026.811,2.437-.624.9-.035,1.365.331,1.622-.358.392.044.5.209.719.645.506.188.44-.144.532-.445.488-.166.767.065.924.331.323-.022,1.387-.955,2.18-1,.344-.257.27-.467.061-1.456.427-1.421,1.2-2.036.815-1.047.344-.624.214-.179.567-.013.222.144.637.9.689.288.959.087.449-.065.863-.214.379-.266.3-.423.1-.637.249-.48.672-.288h.257l.427.222,1.064,1.06,1.435.358.44-.135.51-.846.31-.266,1.221-.087.837-.166.876.209,1.16.759.392.157.863-.022.353.1.453.5.406,1.212.475.7.737.467,1.291.222.523.5.488.846.331.323,1.326.222.31.179.523.532.188.323-.074.065.358.58.406.345.567.279.475.1,1.007.013,1.67-.436,3.113-.344,1.033.187h0l.885.833.318,1.312.144,1.156.484.61.737.366.414.1,1.91.257.994.423.27.244.144,1.343.484,1.91-.545.842.026.379.249.253h.75l.44.2-.013.51-.523,1.055.109.554.2.222,1.517.933,1.731,1.7.222.754-.039,1.029.1.754.209.51.724,1.064.009,1.862.2.467.318.366-.026.122-.179.022-.2.188-.2-.166-.131.022-.4.388-.855-1.064-.842-.676-2.42,1-2.119.685-2.272.231-1.16-.92-3.663-.719,1.016,7,.532,1.347.807,4.609,4.182,7.129-4.051,3.471-14.014,4.373-3.07,4.369-.1,2.695-.318,1.892-1.753.881.013-.24-2.015.615h0l-.262-.231-.31-2.145L226,515l-.092-.419.1-.122-.035-.3.1-.288-.1-.541-.807-.571-1.208-1.308-.51-.7-.253-.637-1.766-.5-.414-.035-.035.144-.31.288-.187.562-.719.658-1.679.318-.214.65-.388.044-1.134,1.509-2.385-.571-2.546-.746-.1.087.013.318-.249.637-.353.3-1.53-.022-1.4.174-2.084-.528-1.648.562-.275-.122-.628-.606,1.029-3.872-.1-.275-2.7-1.749-1.8.593-.772.606-1.945-.593-.179-3.6-.506-.432-.3-.4-.227-.628-.275-.384-2.852-3.187,1.461-2.956.785-1.334-1.81-4.286-1.94-.057-.34-.087-.488-.841.035-.728-.31-.131-.2.057-.781.641-.331.606-.427.375-.249.685.179,1.269-.366.541.044.51-2.712,2.3-.427.432-1.993,2.616-.026-.375-.2.013-.048.231.179.2-.44.2-.5-.144.7-.187-.157-.2-.262.079-.083-.209-.427-.31-.1-.475-.44-.419-.14-.34-.222-.013-.187.253-.153-.3-.406-.078.083-.266-.214.057-.048.153-.6-.153-.048.153-.5.419v.266l-.07.013-.484-.166.009-.31-.414-.035-.209-.144-.353.3-.51-.231-3.257.65-.724-.31-.484-.353-.187-.475.013-.475-.122-.51.179-.34.227-.065.75-.065.179.353.353.144.7.079.828.31.371.253.488.1.532.275.009.209.558-.013-.013-.131-.2-.109.436-.375-.061-.057-.462.188-.6-.044-.057-.087-.305-1.282.035-.475-.179-.85.009-.166.305-.231.358-.541.061-.331.122.209.24.078.379-.344-.685-.519.262-.959.109-1.007-.257-.144-1.116-.187-.126-.288-.074-.719-.174-.244-1.247-.51-.532.057-.4-.087-.262-.4-.571-.065-.833.188-.166.275-.379.057-.257.344.009.288-.24.475-1.112.584-.545,1.094-.379.266-.026.318-.842.2-.3.916-.414.763-.6.131-1.186.685.166,1.932-.711.231-.51-.188-.828.432-.759-.388-3.671-.685L155.449,496l-.371-2.869,1.186-2.594-.733-1.073-3.449.541-.567-.087-.388.065-.689.719-1.491.266-3.794,2.1-.249.044-.318.4.371.131.615-.013.305.484-.074.5.2.188-.122.244h-.275l.153.528h-.249l-.083.253L145,496.3l.589,1.443,2.7,3.562-.379.453.358.75-.628-.122-1.905.959-.794.144-.388-.035-1.138-.288-1.282-.044-.379-1.831-.153-.244-4.007.122h0l-.235-.693-.436-.057-.227-.5.14-.131-.026-.65.179-.209-.022-.576-.331-1.587.27-.541.558-.506-.34-.554-2.616-6.2-.9-1.9-.013-.85.449-1.347-.048-.109.767-2.058.083-.475-.044-.632-.074-.3-.536-.92-2.276-2.791-.275-.7-.048-.432.092-1,.5-1.077.785-.776,1.9-.833.733-1.374h0l1.871.222,1.657-.388.946-.423,1.36-.288,1.435-.667.606-.353.606-.632.471-.776.166-.719.863-.855.2-.445.388-.013.192-.5.453-.288.946-.89,5.18,1.731,1.517.157,5.176-1.422,1.09-.876,4.347-1.243,2.089-1.478,1.526-1.356.876-.968.31-.488.667-2.014,1.068-1.269,1.033-.558.959-.31.933-.057,1.762.266.759-.166.406-.166,1.068-.767,1.247-1.291,1.626-.811.772-.179H183.3l2.006.445,2.346.362ZM182.5,492.954l.009.209.344-.022-.122.087.07.122.262-.022-.288.44-.192.057.039.3-.144.065-.118-.388.092-.122-.035-.209-.222.187-.061-.122.109-.122-.048-.166-.379.231.257.31-.153.244.083.109-.048.318-.14-.022-.257.222.8.166.179.419.406-.1.179.2.24-.34v-.288l-.166.009.153-.231.126.065.153-.131-.144-.044.061-.153-.275-.057.009.144-.131.022-.057-.153-.083.078-.083-.353.423.044-.026-.3-.122-.065-.144.078.026-.2.122-.078.118.1.262-.31.153-.044.1.231.057-.153.3-.087-.039-.166.118-.1-.153-.253-.074.2-.249.122-.876.109Zm1.16.663.026.122.462-.057-.31-.253-.035.131Zm-3.453,2.359.061-.087-.074-.1-.174.231ZM178.38,497.1l.009-.131-.131.022.013.122Zm4.81.863-.07-.562-.331.166-.366.035.257.253-.288.244.8-.135Z" transform="translate(-74.323 -254.363)" fill="#d0bff6"/>
        <path id="NL-NH" d="M222.045,195.387l-.423-.305-.057-.148.44.227.109.157Zm-5.376-.689-.074-.057.1-.157.249.013Zm2.725-1.635-.1-.022-.009-.135.122.013Zm-3.794-.8-.1.022-.009-.135.187-.057Zm3.353-29.738-.074-.022.044-.227Zm16.5-6.593,3.759,1.67,3.092,3.27h0l-.157.113h0l-3.057-3.235-3.589-1.565-.9.092-.31-.092.118-.157,1.046-.1ZM194.3,124.273l-.262.135-1.221-.1-.654.057-1.456.353-.737.4.009.161.344.2-.24.24-.606-.044-.31-.24-.07-.344.074-.4.318-.331.685-.379.641-.571.475-.113h.5l.972.2,1.491.536Zm24.161,3.715-.07.24-.179-.035-.685.549-.126.283-.039.8.641-.113,1.779,3.388.174.092.257.82,2.307,4.526-.663,7.971.532.035.292.51.379,1.583,1.02.933.235.362.676.671.51.17.772.013.615-.41.249-.218.85-1.4.9-.022,1.051.135.3.17.436.078.24.283.5.24.388.013.174-.148.157.078.828-.249.187.218-.654.148-.022.092.937-.057.462.4.344.135.27.968-.2.262.153.318-.144.305.1.671.174.113-.048.475.889.68.419.035.044.113-.083.113-.44-.157-.153.148.057.453-.353.2-.157.249-.488.022-.061.07.131.113-.353.07-.022.113.344.283-.1.17-.109-.1-.192.013-.51.445-.916.148-.126.1-.187-.07-.484.113-.174.475-.048.907-.5,1.805-.344.51-1.609.9-.44.432-.214.51-.58.013-.637.148-.5.283-1.016,1.077-1.016.1-1.186.283-.227-.353.131-.475-.414-.624-.937.07-.78-.7-.366-.51-.959.283-.51.523-.179-.148.092-.148-.2.126-.392-.035-.057.27.1.148-.214-.07.061-.4-.318-.384-.405.013-.506.545-.488.078-.249.24-.462.227-.192.44-.035.7.249,1.4-.057.327.131.183-.061.24.126.3-.187.44.192.554.331.554-.035.227.353,1.007-.109.724.833.78.074.5.759,1.36-.048.667.318.34.414.881.061.51.3.519.305.013-.074.44.471.384.288.959-.689,1.186-.214.126-.118.227-.235.07-.249-.1-.2.27-.048.624.083.567.506.589.048.17-.092.318-.711.078-.475-.135-.833.419-.305-.179.24.576.257.1-.035.148.109.078.344-.462.288-.013.179.126-.353.724-.039.689.166.453-.118.462.118.148h.419l.3.135.449-.092.8.2.606-.035.109-.148.131-1.421.153-.362.27-.292.157-.035.057-.148-.1-.589.1-.249-.637-2.42.083-.113.131.013.663,2.285.536.5.057.227.815.022.471-.092.3.057.057.135-.689.262-.358.362-.589.078-.475.5h-.51l-.2,1.4-.471.724-.109.148h-.192l-.039-.148.1-.192-.092-.057-.2.292-.305.157-.174.453-.092.654-.249.314-.144.475-.671-.135-.235.092-.157.1-.371.676-.593.235-.366.406-.532,1.487-.318.113-.179.27H215.5l-.083.113.187.292-.118.305.035.179-.192.327-.157.057-.414-.257-.222-.349-.488.092-.746.427-.606-.676-.153.035-.392-.392-.31.362.2.541.5.07.615.506-.074.113-.288.035.061.227-.227.235-.009-.388-.2-.078h-.2l-.166.314.305.305.462.135.257.371.414.113.118.327.371.235.2.362.358.349.388.157.637.044.388-.384.567-.07.488.475-.061.406-.366.192v.227l.192.192.323-.035-.126-.257.057-.044.619.235,1.042-.214.711.122.558-.406.994.148.7.44.606.541.737.113.519.257.331-.092.222.179h0l.506.632.471.27,4.8-.82,4.243,1.068,2.028,1.339,1.661,1.644h0L235.7,202.9l-2.015-.362-.654.6-.405-.179-1.1,2.272-1.513,1.347-.044,2.564-.174.9-.545,1.282-1.36,2.525h-1.217l-3.506-.257-.122-.493.781-.406.5-.449.366-.65-.868-1.731-.828-.462-.214.414-2.961.078-.885-.249-1.4-.685.009-.641-.283-.314,1.443-.65-.951-.933.022-.392-.27-.855-.366.327-.227-.078-.109-.235.022-.484-.24-.249-.009-.414-.318-.663h.488l.222-.305.523-.214.532-.013.074-.5.558-.292.2-.044.1.092v.249l.227.113-.092-.528-.24-.336-.249-.022-.331.235-.153-.157-.536.641-.654-.549-.31.092-.192.519-.222-.192-.174.484-.257.065-.092.292h-.305l-.593-1.4-.427-.179-.719-.022-.353.1-.554.392-.388.641-.2.113L211,202.486l-.262.078-.554-.305-.523.227.092.977-.344.122-.227.2-.083.327-.358.092-.222.406.009.327-.3.249-1.844-.092-.235.1-.876.044-.283.113-.532.44-.174.17-.331.7-1.1.876-1.3.6-.344-.065-.733.065h0l-.719-.157-.676.292-.4.584-.6.471-.637.144-.842.541-.536.676-.4-.305.083-.2-.035-.406-.249-.549.1-1.282-1.347-.214-.654.27-.506.528-.092-.065-.174.113-1.312.078-2.237,1.3-1.413.1-.981-.122-1.029-.406-.733.249-1.016-.235-.471-.384-.07-.571.039-.214.567-.706.545-2.856-.126-.89,1.365-1.382.641-1.4.009-.283.453-1.195.558-.811-1.692-.719-.187.013-.933.257-.436.811-4.683-2.115h0l3.828-9.706.781-2.267.275-1.186.1-1.448.353-.484-.262-.746.545-1.173.794-2.215.842-4.116.924-5.73.436-4.339.536-3.541.026-.815.379-2.564.65-5.782.619-2.921.4-1.046.593-1.151,1.164-3.951,1.6-6.392.358-1.653.305-6.166.235-.994.5-.959.379-.467.24-.1,1-.183.388.113.536-.262,1.116.057-.057.253.249-.135.188.113-.048.126-.157-.092-.14.253.074.318.174.2.144.013.048.275h.074l.506-.135-.057-.331.3-.227-.092-.2-.209.148-.122-.331.672-.135.2.458-.026.436-.672,1.439-.192.946.109.1.026.262h.179l.048.331.767,1.722.192.262,4.513,2.59,2.241-.593.781-.515,1.387-.58-.07-.2.249-.022.876-1.108.187-.41.109-.606.654-.584.885-.218.453.013,1.029-.48.8.227.58-.113.5-.24.179.17.122-.044.275.283.781-.584-.092-.135.1-.135,7.888-6.833h0l.283.379h0l-7.714,6.745Zm-12.039-24.937.318-.1.24.218.532.733.794,1.539-.061.4-.192.022-.1.31-.14-.379-.179,3.58.14,1.055-.013.8-.27.824-.305.113-.828.7-.092.388-.453.275-.061,1.182-.545.746-.192.584-.24.227-.1-.17-.388.318.044.2-.305.445-.3.17-.536.218-.972.044-.179.148-1.858,2.416.009.2.305.183-.2.288h-.554l-.227-.262-.188.135-.462-.288H198.5l-1.02-.48-.179.148.188.092.074.344.8.318.1.24.453.288.07.148-.2.013-.462-.218.061.092-.807.344.009.126.2.035-.022.092-.689.227-.571-.092-.423.24.166.057-.192.218-.257-.035-.567-.528-.606-1.225-.24-1.247.109-2.128.44-2.254.353-1.19.654-1.6,1.317-2.477,2.041-3.266.737-.985,2.241-3.663.937-1.147.833-.737.637-.24h.174l.262.183.436.746.3.2.353.767-.035.641.074.414Z" transform="translate(-101.425 -56.418)" fill="#9771eb"/>
        <path id="NL-OV" d="M406.514,186.445l.528.685.153.445.344.453,2.446,2.847.493.275,1.308,1.8.449.453-2.25,2.49-.083.549-1.339.671-1.587.384-.148.1-.314.545,1.4,3.593.781,1.7.353,1.225.427.567.235.148.087-.057.227.214.331.685.532-.218.166.192.885.1.371-.51.371-.013.549-.2.074.3.619.353.2-.07.074.157.523.262h0l.379-.035h0l.366.615.405.305.493.035.235.318.349.227.188-.035.305-.384.253.035.423.576.2.113.231-.031.249-.366.528-.035.855-.406.414-.022.235.406-.187.227.022.51.51.458.536.192.174.227.628.375.039.235.14.148.214-.022.305.227-.07.148.436.545.113.554.3.419-.065.467.2.349.035.366.253.34h.174l.061.314.1.026.624-.331.17-.292.658.022.218-.4.624.318.2-.161.048-.262.414-.305.192-.349.074.257.188.183-.022.44.231.3.414.262.406.065.759-.227.222-.235.266-.842.305.161-.013.283L431,213l.078.179.523.057.144-.122.44.022.414.183h.436l.188.349.31.022.118.283.157.013.035.24h.161l.1-.2-.192-1.9-.214-.637-.153-1.317.048-.214,2.063-1.7.567-.318,4.4-.99,4.2,2,2.355.82-.353.8.144.048.1.227-.445.488.14.235-.249.7.794.048h0l.126.022.288.467.188.1.358.693-.187,1.326-.24.815-.044.894,3.27,2.887-.942.353-.4.022-.467-.192-.379.022-.671-.17-.349,1.169-.353.283-.026.17-2.4-.488,1.718,3.589-.488,3.9,1.108.85.423.249.414.078,1.823,1.4.571.235,1.138.34,4.073-.148.785.183.419-.044,0,1.06.711-.148,3.048.881,2.342.872.467-.17.972-.951.257-.392.759-1.753.767-.541.344.44.039.292.567,1.356.567,2.359.772.7.994,2.254-.022.2.392-.022.706.279.283-.166.2.087,0,.349.353.545.676,2.049-.048,2.4-1.16,1.622-.122.767-.493.728.048.554-.166.549-.5,1-.222.2-.554,1.238-.048.336.022.506.153.484-.013.283-.092.065.035.506.392.419.711,1.626,1.382,1.544-.305.706-1.5.968-1.151.078-.209.166-.179-.179-.863-.235-.606.135-.174-.07-.475.24-.052.244-.331.283.048.728-.318.833-.375.493-.61,1.312-.706,1.081-.135.1-1.19.235-1.67.244-.135.214-.061.528-1.548,1.439-.654,2.926-1.16,1.121-2.477.257h-4.073l-3.109.022-1.182-.549-1.5-.279-1.016-.471.733-1.177.092-.719-.092-.314.013-.615-.192-.1.222-.327.013-.27-.126-.371-.192-.179-1.421-.75-.288-.022-.34.593-.336-.471-.366-.113-.166.135-.118.362-.292.1-.58.436-.58-.536-.048-.183.222-.458-.305-.214-.135-.27-.427-.179-.022-.179-.209-.126-.048.113-2.481.506-2.743-.449-1.317.471-.235-.078-.227-.222-.667-.327-.231-.3-.379-.855-.031-.619-.14-.135-.453-.022-.41-.157L429,259.15l-1.391-1.456-.283-.811-.484-.685.022-.562-1.125-.135-.89.057-.392-.192-.767.327-1.3.079-.14.3-.275.048-.458.3-.039.955-.606.026-.554.157-1.426-.013-.214-.192-.048-.192-.209-.044-.057-.179-.8.214-.161.222-.453-.157-.035.327-.667-.192-.911.078-.187-.144-.475.009-.475-.179-1.064-.144-1.007-.754-.759.035-.449-.135-.283.122-.31-.035-.1.048-.1.392-.065.663-.314-.336-.161.292.144.109-.052.1-.27-.113.131.371.249.292-.013.2-.126.135-.148-.135.017-.358-.183-.327-.589-.144-.467-.34-.187-.719.144-.371.484-.314.118-.392-.035-.227-.855.078-.388-.279-.785-.179v-.44l.4-.571-.384-.34-.2-.855-.658-.811-.057-1.09-.358-.506-.2-.628-.144-.262-.719-.009L404,249l-.039-1.225-.235-.519-.685-.092.009-.222.275-.34.113-.8.1-1.1-.092-1.138.174-.3.7-.214.379-.314-.1-.236-.218-.183-.549-.122-.157-.135-.126-.262.013-.406.275-.379,1.369-.262,1.26-.484.183-.2.148-.314.022-1.06.305-.61.384-1.487-.039-.419-.392-1.129-1.025-1.513-.545-.406-.266-.349.07-1.064-.083-1.23-.187-.554-.589-.711-1.042-.467-.549-.449-.353-.532-.44-1.073-1.326-1.042-.27-.035-.427-.235-.192.34-.292.235-.746.262-3,3.109-.6-.859-.405.1-.876.654-.27-.249-.523.24-.218-.7-.719-1.526-.484-.824-.916-1.142-1.073-.951-.937.349h0l-.545-3.109-.214-.645-2.939-3.139-.632-.113-1.631.026.026-2.991,4.094.009.188-.305.358-.148,4.064-.894.549.214.349.375,1.02-.126,1.587-.894.1-.249,2.285-.5L399,210.9l.362-.419-.017-.174-.17-.283-.824-.815-1.121-.305-1.1-.964-.672-.227-.475-.035-.916-.362-.009.157-.3-.035-.166-.192-.026-.388.78-.885.641-.44.392-.467.222-.035.179-.3-.013-.4-.3-.658-.231-.179-.135.009v-.4l-.235-.41-.484-.249-.7-2.411-.488-1.26-.249-.388-1.33-1.26-.249-.013-.414-.262-.706-.6-.406-.571-1.352-.933-.606-.292-.815-.148-.144-.1h-1.264l-.013-.214-.933-.82-.615-1.094h0l1.653-1.151.1.174.842.475.153.467h.166l.27-.249.371.192.65-.022.249.148.323-.013.637.344.331.031,1.443-.68.262-.41.6-.375.353-.536.624-.41.013-.571.083-.126-.1-.192.283-.135.026-.24.719-.092.331-.135.641.262-.078-.436.087-.17.3-.2.933-.2.214.876.4.593.323.876.262.057.353.323.3.057.227-.013.214-.183.571-.192.789-.1.31.628.584-.24,1.042-.637.139-.253-.227-1.138.78-.318.894.1.314-.057.262-.27.344-.2.371-.035.837-.532Z" transform="translate(-216.013 -105.268)" fill="#d0bff6"/>
        <path id="NL-UT" d="M226.866,339.51l.733-.07.344.07,1.3-.6,1.1-.876.331-.7.17-.17.532-.436.283-.113.876-.044.235-.1,1.84.087.3-.249,0-.323.218-.406.362-.092.083-.327.227-.2.344-.122-.092-.981.528-.222.549.3.262-.078,1.125.179.209-.109.384-.641.554-.4.353-.1.715.022.427.183.593,1.391h.305l.092-.292.253-.065.174-.484.218.192.2-.519.31-.087.654.549.541-.641.148.157.331-.235.249.022.244.336.087.532-.227-.113v-.249l-.1-.092-.2.048-.558.292-.079.493-.528.013-.528.214-.218.305h-.493l.318.663.009.414.24.249-.022.484.113.235.227.078.366-.327.266.855-.017.392.951.933-1.443.654.283.314,0,.641,1.4.685.881.249,2.961-.078.214-.419.828.462.872,1.731-.366.65-.5.449-.781.406.122.493,3.506.257h1.217l1.36-2.525.545-1.282.17-.9.044-2.564,1.509-1.347,1.1-2.272.41.179.654-.593,2.014.358,2.062-1.474h0l3.506,3.467,1.339,1.147h0l-.794,3.414,2.821,2.3.022.663-.179.863-.283.235-.519-.157-.3.235.227.227.113.672-.057.406,1.1.392,2.634.358.035.17.449.192-.044.235.2.065-.1.754.558.244.711.022-.131.654.048.166.929.462-.336.65-.754.109-.1.628-.157-.031.318.392.336.109-.013.384.288.157v.157l-1.426-.148.484.314-.035.214-.6.584.092,1.164-.994.628-.746.951.131.148.275.065.044.214,1.186.706.584-.2.811-.009.179-.606.61-.044.576.122.663-.706-.458-.188.222-.392.558.166.048-.222.035-.292-.371-.1.192-.449-.174-.144,0-.157-.209-.07-.048-.288.615-.157.179.209.148-.031-.035-.214.467-.07.118.641-.131.314.262.179.057.807.227.27.192.009.113.876-.2.828.074.153-.17,1.648-.244.658.528.227-.092.772,1.313.493-.092,1.958-.379.009.676.737.166-.179.214.235.118.192.061.715.283.3.554.515.432.087.3.462.153.916.7.824-.074.471-.179.279.013.3.3.728,0,.667-.41.1.031.571-.4-.222-.693.615-1.169-.785-1.788-.458-.536-.231-.5-.392-.5-.794-2.228-.824-.453-.414-.942-.571-.4-.1-1.217.135-1.884-.371-.454.249-.907.767-2.167.828-.658.044-1-.214-.584.092-.545.379-.685.881-.842.427-.589-.035-1.068-.715-1.116-.144-.876-.235-.767-.414-.807-.837-.545-.323-.523.135-.3.366-.606,1.173-.493.436-.371.092-.885-.192-.946-.615h0l-.445-.292-1.23-.209-.5-.292-.344-.724-.153-1.151-.179-.336-.9-.528-.689-.257-.523-.166-.789-.044-.728.209-1.321.65-.24.358-1.221.959-.449.493-.179.536-.358.493-.7.078-1.064-.837-.523-.1-.275.052-.628.371-.9,1.273-.392.27-.528-.035-1.042-.414h-.384l-.471.493-.462,1.1-.523.658-1.347.349-.641.057-.715.244-.562-2.2-.48-.388-.174-.606-.519-.323-.811-.929-.719-1.016.27-.122-.44-.6-.528-.179-.61-.815,2.764-.685.061-.144-.563-1.086-.445.235-1.142-.044-.423.3-.772.078-.192-.628v-.4l.606-.436-.118-.842.5-.366.89-1.387,1.138-.863,1.443-.528.349-.715-2.145.022-.68.17.026-.6-.388-.467-.122-.549-.118-1.7.039-1.016-2.359-1.7.113-.458.846-.379.14-.9.392-.571.554-.236.645-.126.4-.209.161.658.384.305,1.347.179.5-.078.035-.122.31-.148-.257-1.762,1.417-.549.017-.157-2.311-1.6-1.042-.371-1.971-2.176-.14-.349-.467.022-.113-.593.013-1.1-.488-.807Z" transform="translate(-127.798 -187.803)" fill="#9771eb"/>
        <path id="NL-ZE" d="M53.83,510.972l.187.013.013-.166.07.044.318.685-.122.087-.676.065-.85-.375-.214-.244.519-.34.619.087.135.144Zm-40.647-4.343,1.282.41-.092.266.083.057.174-.079.07.087.4.013.685.807.414.144.719.022.392.109.109.209.414.109.092.209,1.718.5,3.126.5.34.4.048.2.157.066.048.2,1.112.728.532.75.663.065.536-.174,1.692.34.07.218-.275.222-.039.406.724.384.262.013.026-.122-.131-1.19.057-.153,1.33.035.249.31.506.275.663.1-.2.218-.013.2.506.981.144-.078-.192-.628.235-.1-.166-.541.2.022-.061.153.118.362.2-.109.153-.406.153.013-.1.153.131.153.532.078.532.331,1.762-.044.462-.584.153-.419,1.029-.31.3-.384,1.234-.85.746-.318,1.134-.244.039-.1.519-.166.227.035.144-.131.34.266.092-.453-.074-.174.235-.462.048-.671.379-.41-.161-.375-.07-.972.719-1.016,1.125.1.166.231,1.718.266-.14.231.166.166.179-.078.27.453.24.087.283,1.016-.118.078.083.275h.283l.523,1.125.406.5,1.958.122.9.153,1.613,1.408,1.208,1.435.711.405-.759-.99-.366-.8.746-.288.436-.022.214.153.214.44h.392l.305.218.371.528-.035.209.131.022.179-.275-.305-.266-.144-.331,1.081.057-.166-.174-.951-.174-.166-.166,1.561-.078.532.122-.288-.288L56,511.931l-.6-.188-.571-.981.035-.506.453-.144.283.1.427-.362.257-.057.188,1.343.994.584.488.087-.785-.41-.423-.375-.131-.31.013-.562.131-.122.188.144.074.462.074-.946.275-.31h.58l.471.2.2-.013.488.375.283.938.423.706.737.815-.985,1.5-3.528,4.557L51.353,522l-1.269.824-.275.275-.89.462-.235.419-1.269.3-.192-.087L47,523.813l-.283.231-.519.209-.249-.419-.453.013-.868.484-.323.362-.331.131-.34.318-.131-.166L42.89,526l-.985.174-.026.318-.283.528-.754.057-.344.109-.009.144-.462.144-.2-.484-.331-.375-.209.353-.4.022-.214.362.092.484-.2.035-.257.353-.75.34-.388-.144-.14.174-.366.188-.14-.34-.4-.462.8-.615.2-.4-.406-.68-.6.31-1.4,1-.484-.3-.174.131-.153-.065-.323.174-.4-.166-.484.375-.471.109-.885-.4-.353-.057-.074.087.1.362-.061.057-.344-.288-.14-.3-.392-.1-.1-.209-.074-1.243.07-1.857.423-1.164-.1-.153-.519-.131-.637-.571-.31-.131-.118.253-.3.153-.344-.231-.379-.737-.27-.166-.27.144-1.709-.406-.44.174-1.526-.44-.166-.1-.24-.471-.733-.013-.179-.3-1.278-.75h-.876l-.318.218-.985-.584-.318.035-.2-.34-1.91-1.012-.685.815.331.593-.262.187.118.3-.122.209-.214-.209-.227.057-.31-.266-.022-.153-.593-.3-.227.087-.092.288-.214.153-.781-.1-.353.75-.379.057-.519-.519-.676.131.837,4.522-3.131.375-2.071.144-.414-.044-.985-.375-.275.022L4.8,522.9l-.118-.152-.5-.471-.5.318-.283-.584-.733-.462-.4-.794-.606-.152-.249-.31.414-.34-.013-.628-.122-.2-.606-.419-.27-.685.619-.331L.276,516.313l-.017-.2L2,514.146l-.126-.99-.593-.772-.057-.34.1-.815-.571-1.1.344-.5.593-.419.009.174.122-.013.039-.222L3.1,508.7l1.6-.807.571-.087.083.34.31.1.061-.222.855-.266.331-.266,1.016-.144,1.007-.331.4-.187.057-.188.379-.022.689-.606.772-.078.31.131,1.151.109.436.153.052.305Zm10.94-12.383.074.087-.257-.065-.131-.157h.2l.113.135Zm-.811-1.081-.131-.044.153-.044Zm-.148-.475-.057.065-.057-.109.074-.209Zm1.914-.013-.035.1-.074-.044-.057-.166.222-.419-.057.528Zm.275-.5v.157l-.1-.344.157-.179.07.122Zm-2.228-.3h-.1l.179-.109.153-.331.061.288-.3.153Zm4.953-1.129.331.035.122-.087.34.231-.532.122-1.112-.022.009-.275.109-.144.24-.022.493.161Zm7.775-.266-.157-.013V490.4l.214-.222.109.157ZM29.1,490.5l-.44-.244.035-.057.187-.044.318.131Zm-.6-.31.074.366-.754-.078-.187-.187.628-.188h.179Zm-5.83-.1.3.131.27.266.14.31.026.419-.192-.057-.179.554-.131-.1-.126-.619-.288-.641.013-.331.17.07Zm-.663-.331-.057.065-.166-.4.24.035Zm-.353-.75.14.022.044.209-.179-.109-.257.035.026-.131Zm34.264-5.054-.24-.065.153-.057.087.122ZM33.21,467.224l.571.558,1.975.624.7-.135,1.4-1.779,1.064-.632,1.326-.344,1.278.179.981.889,2.634.589.192.288.275,1.19,1.138,1.613.1,2.154.222.876.606,1.064.5.2,3.035.244,1.3.467,1.3-.035,1.016.109,3.161,2.4,2.25,1.552,1.291.423h0L60.8,481.09l-1.9.833-.785.776-.5,1.077-.092,1,.048.432.275.7,2.276,2.791.536.92.074.3.044.632-.083.475-.767,2.058.048.109-.449,1.347.013.85.9,1.9,2.616,6.2.34.554-.558.506-.27.541.331,1.587.022.576-.179.209.026.65-.14.131.227.5.436.057.235.693h0l-2.485.109.14-.244.035-.6-.85-1.413-1.256-.576-.453.087-.153-.432-.3-.275-.619.065-.558.362-.388.144h-.318l-1.064.65h-.453l-.785-.153-.558-.331-1.661-.3-1.657-.619-.174-.044-.092.079-.414-.475-.754-.222L48,504.571l.013-.166-.353-.5.24-.375-1.112-.345-.07-.475-.109-.044-.126.2-1.016-.484-.34-.375-.379-.013-.118-.209-.249-.122-.1-.244-.724-.5-.392-.663-.392-.244-.9.628-.8.065-1.134.785-.545-.266-.1.057.074.562-.31.065.288.685.013.388-.392.728-.166.728-.166.192-.026.318-.179.179-.785,2.206-.484.231-1.539-.462-.589.31-.344.362-.519-.035-.331.288-.558.078-.34.179-1.173.078-.057.131-.3-.1-.733-.894-.685-.475-.083-.174-1-.65.118-.475-.85-.057-.746-.484-.65.362h-.667l-.2-.1-.4-.331-.366-1.282-.344.035-.318-.685-.724-.72-1.055-.85-.488-.266-2.119-.087-.388.366-.035.331-.414.244-.187.078-.44-.065-.318.122-.353-.087-.523.131-.51-.41-.035-.85-.24.035-.044.916-.344-.1v-.362l-.144.3-.083-.035.039-.318-.1-.035-.092.275-.022.087.733.353v.087l-.606-.144-.406.087-.022.188-.153-.1-.331.179-.358-.179-.174-.41-.606-.584-.406.035-.118-.2-.985-.685-.641-.606-.323-.419-.985-1.879-.663-.951-.7-.676-.427-.109-1.858-1.36-.724-.972-.34-.187-.122-.353-.27-.157.1-.894.31-.85,1.483-.863,1.483-1.186,1.1-.711,1.7-1.02.554-.187.911-.7,1.875-.964.641-.122.815.187.615-.044.75.157.785.532.3-.013,2.124-.807.937-.209.323-.2.262-1.352.039-.833.118-.065-.07-.253-.166-.035-.14-.166.5-.087.262-.41,1.387-1.43-.1-.209.34-.087.419-.92-.222-.279.07-.087.27-.013.013-1.256-1.02-.323-.794-.654-.746-1.155-.222-.676-.1-.676.026-.754.532-1.243.571-1.02.392-.432.406-.179,1.378-.453.746-.044,2.167-.89,1.779-.013,1.823.366.3-1.378.3-.423.536-.292ZM30.8,474.358l.235.057v.109l-.353-.1-.074-.331-.318.057-.31.222-.249.576.1.187-2.041,1.387-.406.244-1.993.7-.022,1.23.344.044-.131.467-.379.013-.571,1.387.14.035.227-.266.026.157-.628.689.637.331-.1.065-.593-.266-.222.2.109.475-.157.288-.061-.109.074-.222-.4-.331-.637.554-.013.087.118.057-.157.087-.048.323-.109.057.013.157-.144.231-.187,1.64.144-.044-.044.253.366-.266.013.222.685-.144.781.532h.2l.166.3.8.013.637-.4.5.078.305-.266.82-.022.187-.231.828.179.44-.419,1.291-.122.275-.253.545-.013.733.253.8-.266h.323l.27.345,1.33.244.737.785,1.138,1.984.227-.2.039.209-.257.1.048.157h.131l.1.4.283.519.157.044-.083.344-.453.288-1.182.331-.772,1.042-.554.179-.257-.109-.506-.532-.1-.31-.65-.44-1.2.275-.815.663-1.138-.266-.061.065-.924-.541-.7-.087-.109.109-.1-.078-1.844,1.073-.423.51-1.007.685-.471.807-.214.131-.344-.776.192-.663.2.1.235.728.07-.022-.048-.275-.166-.231-.013-.253-.2-.144-.249-.85-.663-.929.828-1.086-.07-.044-.166.2-.532.776-.283.065-.5-.31-.462-.532-.676-.331-.1-.222-.235.1-.305-.187-.545-1.382-.048-.323.118-.057.057-.2-.532.131-.794.419.122,1.029.14.253.6.576-.035.222.392.388.048.2.589.253.794.641.249.065.615,1.282.414,1.23.924,1.36.27.231v.253l.109-.2.235.432-.153-.4.222.131-.048-.122.933-.187-.2-.087-.615.065-.2-.266.641-.275.379-.4.536-.109.035-.079-.222-.166-.048-.209.44-.82.083-.51.772-.5.331.022-.187.445.214-.013.083-.31,1.657-.035,1.408.187.558-.187.157-.266.179-.078.65-.1.109-.144.828-.035.366.065.506.288.144.222-.022.166.24.209.82.166.214-.1-.061-.31.257-.157.131.013.126.353,1.09-.3.615.209.157-.157.192.131.109-.266.379-.013.344-.222.423.187.558-.022.2.275.074.554.153.323.606.872,1.068-.467.8.144,1.539.554.685.344.14-.044-.044.5.109.4h.214l-.074-.885.5.31.358.044.288.584.227.035.048.131.842.584.379.4.51-.157.235.366-.14.462.157.51.144.087.166.331v.179l-.2.353.061.065-.118.144.153.153.144.462.179.087.484.7.1-.035.083.131-.083.057.567.885.358.013.619,1.347.654.153,1.622,1.025.035-.078.144.035.257.4.392.057,1.055-.179.353-.331,1.116-.584.331-.022.153-.2,1.33.231.2.109.131.209.34.1.759-.057-.209-2.132.157-.532-.4-3.017-2.965-1.339-.249-.419-.026-.266.388-.8-.532-.44-.131-.323-.794-.057-.249-.122-.192.244-.318.078-.109-.013-.427-.475-.58.222-1.67-.065-.074-.1-.606.035-.057-.2-1.186-.087-.2-.231.122-.187-.192-.057.048-.087-.1-.109-.262.022-.353-.942.1-.179-.436-.388-.166.065-.118-.131-.039-.519-1.151-.209-.453-.253.187-.519-.44-.654-.733-.31-.275-.353-.427-.244-.946-.144-.379-.51.026-.576.44-.676.833-.087-.009-.087.462-.179.222.1.44-.288.288.109,1.077-.8.536-.035.5-.532.379-.1.174.065.07-.157.9-.279.545.179.366-.057.855.179.214.231.214.589.179-.087.14.065.436.445-.092-.31.746.013,1.2-.244.235.188.571-.044.083.078.118-.323.8-.122.035-.244h-.318l-.009-.087.453-.253-.026-.4-.323-.022-.323.209-.214-.122-.353.231-2.041-.057-.667-1.343-.58-.467-.24-.013-.262-.209-.057-1.151.1-.166.305.122v-.353l1.033-.911.7.022,1.256.366.488.244.353.31.964.423,1.182.719-.048-.576-.3-.523-.737-.432-.057.135-.2.057-1.1-.689-.1-.144.2-.388-.039-.078-.153-.013-.318.445-.924-.323.061-.135-.14-.109.026-.079.187.122,1.247-.087.026-.222-.235-.035.013-.109-.144-.087-.737.078-.358.209-.044-.065.318-.187.676-.065.083-.179H55l.013.135.2.022.048-.179.157-.1-.31-.82-.2-.157-.144-.279-.423.266-2.42.366-.946.654.083.222.663.676-.118.331h-.323l-.157.345.188.087-.009.131-.109.135-.144-.013-.026.323-.946.589-.144.366-.672.711-.82.4-.65-.288-.7.366-.122.209-.933.344-1,.545-1.134.022-.388.331-1.16.074-.51-.279-.868-.907h-.192l-.427-.876-.166-.157-.109.013-.353.554-.423.135.009-.135-.366-.035-.249.1-1.326-.41-.083-.157,1.565-1.387.51-.2-.571.144-1.552,1.4-.353.109.035-1.055-.34-.619.074-.157-.179-.689-.262-.166-.344-.576.035-.488-1.208-1.142-.187-.087-.558.179-1.7-.876.092-.3-.039-.366-.358-.532-.31-.166-.436-.065-.44.057.031.257Z" transform="translate(-0.258 -262.652)" fill="#e3d8fa"/>
        <path id="NL-ZH" d="M110.9,390.767l.462.4.131-.065.2.057.074.209.484.257.022.166-1.265.057-.471-.122-.475-.523.667-.423.17-.013Zm-5.163-3.466.554.013,1.762.436,2.289,1.033,1.1.358.379.2.035.358-1.6.624-1.134-.044-.842-.209-1.081-.632-2.171-1.491-.153-.187.061-.323.283-.166.515.031Zm15.492-64.416L125.909,325l.436-.811.933-.257.187-.013,1.692.719-.558.811-.453,1.195-.009.283-.641,1.4-1.365,1.382.126.89-.545,2.856-.567.706-.039.214.07.571.471.384,1.016.235.733-.249,1.029.405.981.122,1.413-.1,2.237-1.3,1.312-.078.174-.113.092.065.506-.528.654-.27,1.347.214-.1,1.282.249.549.035.405-.083.2.4.305.536-.676.842-.541.637-.144.6-.471.4-.584.676-.292.719.157h0l.026.741.488.807-.013,1.1.109.6.471-.022.14.349,1.975,2.176,1.042.371,2.311,1.6-.022.157-1.413.549.257,1.762-.31.144-.035.122-.5.079-1.347-.179-.388-.3-.157-.663-.4.214-.65.122-.554.235-.392.571-.14.9-.85.379-.109.458,2.359,1.692-.039,1.02.118,1.7.122.549.388.471-.026.593.685-.166,2.145-.022-.353.715-1.443.528-1.138.863-.89,1.387-.5.371.118.837-.606.436v.4l.192.628.772-.078.423-.3,1.147.044.44-.235.567,1.086-.061.144-2.769.68.615.815.523.179.44.6-.27.122.719,1.016.815.929.519.323.174.6.484.392.558,2.2.719-.244.641-.057,1.347-.344.523-.658.462-1.108L152,363.8h.388l1.042.414.523.035.392-.27.9-1.273.628-.371.275-.057.523.1,1.064.837.7-.078.358-.493.179-.536.449-.493,1.221-.959.24-.358,1.317-.65.733-.214.785.044.523.166.689.257.9.523.179.336.153,1.151.344.728.5.292,1.23.214.449.292h0l-1.993,3.8-.2.044.057.279-.885,1.282.044.7-.323-.157-.959,1.775-.122.946-.157.3-.737-.179-.449.113-.414-.122-.192.157-.074.545-.453.68-.484.266-.833.013-.567.279-.109.379.174.379.475.292-.257.244-.781.314-.227.257-.667-.266-1.744.044-.785-.689-.179.188.257.815-.153.615.414.689,1.483.2-.449,2.171-1.033-.022h0l-2.333-.344-2.006-.445h-1.138l-.772.179-1.626.811-1.247,1.291-1.068.767-.406.166-.759.166-1.762-.266-.933.057-.959.31-1.033.558-1.068,1.269-.667,2.014-.31.488-.876.968-1.526,1.356-2.089,1.478-4.347,1.243-1.09.876-5.176,1.422-1.517-.157-5.18-1.731-.946.89-.453.288-.192.5-.388.013-.2.445-.863.855-.166.719-.471.776-.606.632-.606.353-1.435.667-1.36.288-.946.423-1.657.388-1.871-.222h0l-1.291-.423-2.25-1.552-3.161-2.4-1.016-.109-1.3.035-1.3-.467-3.035-.244-.5-.2-.606-1.064-.222-.876-.1-2.154L88.375,388.2l-.275-1.19-.192-.288-2.634-.589-.981-.89-1.278-.179-1.326.344-1.064.632-1.4,1.779-.7.135-1.975-.624-.571-.558h0l.9-.467.358-.344.628-1.635.188-.545-.048-.266-.7-1.714-.022-.689.532-.824.615-.48.65-.135.985-.379.794-.022.593-.157,2.015-.946,2.071-.789.781-.2,1.421.022.689.323.3.279-.619-.122-.1.488.9.545.44.523.34.144.1-.1L89.548,379l.009-.2.305.078.222-.166.122.092.689-.8-.109-.122.07-.122.532-.423.523-.235.035-.388-.31-.737-2.049-3.044-.174-.414.109-.846.331-.48.794-1.7.227-.166-.048-.344-.523-.458-.388-.166-.257.423.013.48-.179-.179h-.074l-.026.2-.092-.035-.174-.3-.449-.144-.305.244-.14-.057-.366.222-.462.044-.24-.113-.131-.235.074-.6.985-3.484.022-.916-.1-.078-.249.122v-.6l.423-.981.3-.222.488.078.488-.728.187-.065.641.292.122-.092.51-.013.471.3.863.344.414.344,1.456-1.286.994-.672.584-.5.318-.436.427-.3.767-1.3.876-1.208,5.32-6.166,1.491-1.905.013-.17.166-.044.3.249.323-.48-.092-.057-.27.336-.144-.122-.022-.2L106.6,346.9l.475-.349,1.125-1.221,3.07-3.937,2.071-3.044,2.664-4.639,1.932-3.6,3.288-7.225ZM90.978,378.118l-.676.824.118.113-.131.388.044.235-.227-.044.074.188-.109.122.1.087-.044.109.109.035.323-.336.484.257.65.589,2.512,1.125.855.637,2.014,1,1.312.881,1.91.632-.048.087.118.087.174-.044,1.5,1.644.924.8.815.554.166.358,1.186,1.465.331.3,1.517.955.65.135,1.125.8,1.208.467.911.166,2.525.135.484-.057.2-.187.144-.244.009-.388.192-.013.436-1.456-.532-.3-.022-.144-.144.079-2.712-1.587-2.4-1.112v-.1l-.179-.044-.009.1-2.882-.868-1.661-.624-.51-.388-.759-1.068-.083-.209.1-.109.009-.7-1.051-1.169-.985-.545-.619-.044-.344.144-.262-.113-1.4-1.7-.275-.144-.187-.244-.554.078-.427-.078-.144.044-.1.2-.174.022-.689-.044-.3-.222.048-.366-.227-.057-.14.458-.262-.336-1.644-.58-.519-.488-.519-.815-.985.467-.214.279Z" transform="translate(-42.96 -182.215)" fill="#a381ed"/>
      </g>
    </g>
    <g id="Group_13321" data-name="Group 13321">
      <g id="Group_13320" data-name="Group 13320" transform="translate(-16845 -6931)">
        <g id="Group_9025" data-name="Group 9025" transform="translate(16637 1448)">
          <g id="Group_8879" data-name="Group 8879" transform="translate(0 -25)">
            <text id="_35_tot_40_" data-name="35 tot 40 %" transform="translate(1078 5809)" fill="#fff" font-size="14" font-family="HelveticaNeue-Light, Helvetica Neue" font-weight="300"><tspan x="0" y="0">35 tot 40 %</tspan></text>
            <g id="Group_8873" data-name="Group 8873" transform="translate(1047 5840)">
              <path id="Path_527" data-name="Path 527" d="M0,11H25" transform="translate(-4 -47)" fill="none" stroke="#e4b3ff" stroke-linecap="round" stroke-width="3"/>
            </g>
          </g>
          <g id="Group_8880" data-name="Group 8880" transform="translate(-0.422)">
            <g id="Group_8877" data-name="Group 8877">
              <text id="_30_tot_35_" data-name="30 tot 35 %" transform="translate(1078 5760)" fill="#fff" font-size="14" font-family="HelveticaNeue-Light, Helvetica Neue" font-weight="300"><tspan x="0" y="0">30 tot 35 %</tspan></text>
              <g id="Group_8874" data-name="Group 8874" transform="translate(1041.422 5744)">
                <path id="Path_528" data-name="Path 528" d="M0,11H25" transform="translate(2)" fill="none" stroke="#ead4ff" stroke-linecap="round" stroke-width="3"/>
              </g>
            </g>
          </g>
        </g>
        <g id="Group_9026" data-name="Group 9026" transform="translate(16637 1496)">
          <g id="Group_8879-2" data-name="Group 8879" transform="translate(0 -25)">
            <text id="_45_of_meer_" data-name="45 of meer %" transform="translate(1078 5809)" fill="#fff" font-size="14" font-family="HelveticaNeue-Light, Helvetica Neue" font-weight="300"><tspan x="0" y="0">45 of meer %</tspan></text>
            <g id="Group_8873-2" data-name="Group 8873" transform="translate(1047 5840)">
              <path id="Path_527-2" data-name="Path 527" d="M0,11H25" transform="translate(-4 -47)" fill="none" stroke="#b35ffb" stroke-linecap="round" stroke-width="3"/>
            </g>
          </g>
          <g id="Group_8880-2" data-name="Group 8880" transform="translate(-0.422)">
            <g id="Group_8877-2" data-name="Group 8877">
              <text id="_40_tot_45_" data-name="40 tot 45 %" transform="translate(1078 5760)" fill="#fff" font-size="14" font-family="HelveticaNeue-Light, Helvetica Neue" font-weight="300"><tspan x="0" y="0">40 tot 45 %</tspan></text>
              <g id="Group_8874-2" data-name="Group 8874" transform="translate(1041.422 5744)">
                <path id="Path_528-2" data-name="Path 528" d="M0,11H25" transform="translate(2)" fill="none" stroke="#c66cff" stroke-linecap="round" stroke-width="3"/>
              </g>
            </g>
          </g>
        </g>
      </g>
      <text id="Thuiswerkenden_per_provincie" data-name="Thuiswerkenden 
per provincie" transform="translate(832 224)" fill="#fff" font-size="18" font-family="HelveticaNeue-Medium, Helvetica Neue" font-weight="500"><tspan x="0" y="0">Thuiswerkenden </tspan><tspan x="0" y="23">per provincie</tspan></text>
    </g>
  </g>
</svg>
