<?xml version="1.0" encoding="utf-8"?>
<!-- Generator: Adobe Illustrator 25.1.0, SVG Export Plug-In . SVG Version: 6.00 Build 0)  -->
<svg version="1.1" id="Group_9043" xmlns="http://www.w3.org/2000/svg" xmlns:xlink="http://www.w3.org/1999/xlink" x="0px" y="0px"
	 viewBox="0 0 150 150" style="enable-background:new 0 0 150 150;" xml:space="preserve">
<style type="text/css">
	.st0{fill:#FFFFFF;}
</style>
<ellipse id="Ellipse_6065" class="st0" cx="24.1" cy="35.3" rx="7.8" ry="7.8"/>
<ellipse id="Ellipse_6068" class="st0" cx="95.4" cy="35.3" rx="7.8" ry="7.8"/>
<ellipse id="Ellipse_6067" class="st0" cx="130.4" cy="51.6" rx="6.3" ry="6.3"/>
<path id="Path_9543" class="st0" d="M48.2,77.5c-2.2-24.7-14-29.7-14-29.7c-7.5-4-16.6-3.2-23.4,1.9C3.1,56.8,1.3,67.6,0.1,78
	c-0.6,5.3,7.7,5.2,8.3,0c0.4-6.2,2.1-12.3,4.9-17.8l0,6l-0.1,28.9V118c-0.1,2.4,1.8,4.4,4.2,4.5c0.1,0,0.1,0,0.2,0
	c2.5,0,4.6-2,4.6-4.5V85.3h4.1v32.9c0.1,2.3,2.1,4.1,4.3,3.9c2.1-0.1,3.8-1.8,3.9-3.9v-23l0.4-28.9c0-2.8,0-5.2,0-6.9
	c3,5.7,4.8,11.9,5.2,18.3C40.5,82.8,48.8,82.8,48.2,77.5z"/>
<path id="Path_9546" class="st0" d="M119.4,77.5c-2.2-24.7-14-29.7-14-29.7c-7.5-4-16.6-3.2-23.4,1.9c-7.8,7.1-9.6,17.9-10.8,28.3
	c-0.6,5.3,7.7,5.2,8.3,0c0.4-6.2,2.1-12.3,4.9-17.8l0,6l-0.1,28.9V118c-0.1,2.4,1.8,4.4,4.2,4.5c0.1,0,0.1,0,0.2,0
	c2.5,0,4.6-2,4.6-4.5V85.3h4.1v32.9c0.1,2.3,2.1,4.1,4.3,3.9c2.1-0.1,3.8-1.8,3.9-3.9v-23l0.4-28.9c0-2.8,0-5.2,0-6.9
	c3,5.7,4.8,11.9,5.2,18.3C111.8,82.8,120.1,82.8,119.4,77.5z"/>
<path id="Path_9545" class="st0" d="M150,86c-1.8-20.1-11.4-24.1-11.4-24.1c-6.1-3.2-13.5-2.6-19,1.5c-6.3,5.7-7.8,14.5-8.8,23
	c-0.5,4.3,6.2,4.3,6.7,0c0.3-5,1.7-10,4-14.5v4.9l0,23.5v18.6c-0.1,1.9,1.5,3.6,3.4,3.6c0,0,0.1,0,0.1,0c2,0,3.7-1.6,3.7-3.6V92.3
	h3.3V119c0,1.9,1.6,3.3,3.5,3.3c1.8,0,3.2-1.5,3.3-3.3v-18.7l0.3-23.5c0-2.2,0-4.3,0-5.6c2.4,4.6,3.9,9.7,4.2,14.9
	C143.7,90.2,150.5,90.3,150,86z"/>
</svg>
