<?xml version="1.0" encoding="utf-8"?>
<!-- Generator: Adobe Illustrator 25.1.0, SVG Export Plug-In . SVG Version: 6.00 Build 0)  -->
<svg version="1.1" id="Laag_1" xmlns="http://www.w3.org/2000/svg" xmlns:xlink="http://www.w3.org/1999/xlink" x="0px" y="0px"
	 viewBox="0 0 108.7 528.2" style="enable-background:new 0 0 108.7 528.2;" xml:space="preserve">
<style type="text/css">
	.st0{fill:#FFFFFF;}
</style>
<g id="Group_13279" transform="translate(-4618.258 -917.16)">
	<g id="standing-frontal-man-silhouette" transform="translate(4619.043 1270.968)">
		<g id="Group_9092" transform="translate(0 0)">
			<ellipse id="Ellipse_6119" class="st0" cx="6" cy="77.1" rx="1.9" ry="1.9"/>
			<path id="Path_9593" class="st0" d="M12,87.6c-0.5-6.1-3.5-7.4-3.5-7.4c-1.9-1-4.1-0.8-5.8,0.5c-1.9,1.8-2.4,4.4-2.7,7
				c-0.2,1.3,1.9,1.3,2.1,0c0.1-1.5,0.5-3,1.2-4.4v1.5l0,7.2v5.7c0,0.6,0.4,1.1,1,1.1c0,0,0,0,0,0c0.6,0,1.1-0.5,1.1-1.1v-8.1h1v8.2
				c0,0.6,0.5,1,1.1,1c0.5,0,1-0.4,1-1V92l0.1-7.2c0-0.7,0-1.3,0-1.7c0.7,1.4,1.2,3,1.3,4.5C10.1,88.9,12.1,88.9,12,87.6z"/>
		</g>
	</g>
	<g id="standing-frontal-man-silhouette-2" transform="translate(4619.043 1321.353)">
		<g id="Group_9093" transform="translate(0 0)">
			<ellipse id="Ellipse_6120" class="st0" cx="6" cy="77.1" rx="1.9" ry="1.9"/>
			<path id="Path_9594" class="st0" d="M12,87.6c-0.5-6.1-3.5-7.4-3.5-7.4c-1.9-1-4.1-0.8-5.8,0.5c-1.9,1.8-2.4,4.4-2.7,7
				c-0.2,1.3,1.9,1.3,2.1,0c0.1-1.5,0.5-3,1.2-4.4v1.5l0,7.2v5.7c0,0.6,0.4,1.1,1,1.1c0,0,0,0,0,0c0.6,0,1.1-0.5,1.1-1.1v-8.1h1v8.2
				c0,0.6,0.5,1,1.1,1c0.5,0,1-0.4,1-1V92l0.1-7.2c0-0.7,0-1.3,0-1.7c0.7,1.4,1.2,3,1.3,4.5C10.1,88.9,12.1,88.9,12,87.6z"/>
		</g>
	</g>
	<g id="standing-frontal-man-silhouette-3" transform="translate(4619.043 1220.353)">
		<g id="Group_9094" transform="translate(0 0)">
			<ellipse id="Ellipse_6121" class="st0" cx="6" cy="77.1" rx="1.9" ry="1.9"/>
			<path id="Path_9595" class="st0" d="M12,87.6c-0.5-6.1-3.5-7.4-3.5-7.4c-1.9-1-4.1-0.8-5.8,0.5c-1.9,1.8-2.4,4.4-2.7,7
				c-0.2,1.3,1.9,1.3,2.1,0c0.1-1.5,0.5-3,1.2-4.4v1.5l0,7.2v5.7c0,0.6,0.4,1.1,1,1.1c0,0,0,0,0,0c0.6,0,1.1-0.5,1.1-1.1v-8.1h1v8.2
				c0,0.6,0.5,1,1.1,1c0.5,0,1-0.4,1-1V92l0.1-7.2c0-0.7,0-1.3,0-1.7c0.7,1.4,1.2,3,1.3,4.5C10.1,88.9,12.1,88.9,12,87.6z"/>
		</g>
	</g>
	<g id="standing-frontal-man-silhouette-4" transform="translate(4619.043 1296.16)">
		<g id="Group_9095" transform="translate(0 0)">
			<ellipse id="Ellipse_6122" class="st0" cx="6" cy="77.1" rx="1.9" ry="1.9"/>
			<path id="Path_9596" class="st0" d="M12,87.6c-0.5-6.1-3.5-7.4-3.5-7.4c-1.9-1-4.1-0.8-5.8,0.5c-1.9,1.8-2.4,4.4-2.7,7
				c-0.2,1.3,1.9,1.3,2.1,0c0.1-1.5,0.5-3,1.2-4.4v1.5l0,7.2v5.7c0,0.6,0.4,1.1,1,1.1c0,0,0,0,0,0c0.6,0,1.1-0.5,1.1-1.1v-8.1h1v8.2
				c0,0.6,0.5,1,1.1,1c0.5,0,1-0.4,1-1V92l0.1-7.2c0-0.7,0-1.3,0-1.7c0.7,1.4,1.2,3,1.3,4.5C10.1,88.9,12.1,88.9,12,87.6z"/>
		</g>
	</g>
	<g id="standing-frontal-man-silhouette-5" transform="translate(4619.043 1195.16)">
		<g id="Group_9096" transform="translate(0 0)">
			<ellipse id="Ellipse_6123" class="st0" cx="6" cy="77.1" rx="1.9" ry="1.9"/>
			<path id="Path_9597" class="st0" d="M12,87.6c-0.5-6.1-3.5-7.4-3.5-7.4c-1.9-1-4.1-0.8-5.8,0.5c-1.9,1.8-2.4,4.4-2.7,7
				c-0.2,1.3,1.9,1.3,2.1,0c0.1-1.5,0.5-3,1.2-4.4v1.5l0,7.2v5.7c0,0.6,0.4,1.1,1,1.1c0,0,0,0,0,0c0.6,0,1.1-0.5,1.1-1.1v-8.1h1v8.2
				c0,0.6,0.5,1,1.1,1c0.5,0,1-0.4,1-1V92l0.1-7.2c0-0.7,0-1.3,0-1.7c0.7,1.4,1.2,3,1.3,4.5C10.1,88.9,12.1,88.9,12,87.6z"/>
		</g>
	</g>
	<g id="standing-frontal-man-silhouette-6" transform="translate(4619.043 1346.545)">
		<g id="Group_9097" transform="translate(0 0)">
			<ellipse id="Ellipse_6124" class="st0" cx="6" cy="77.1" rx="1.9" ry="1.9"/>
			<path id="Path_9598" class="st0" d="M12,87.6c-0.5-6.1-3.5-7.4-3.5-7.4c-1.9-1-4.1-0.8-5.8,0.5c-1.9,1.8-2.4,4.4-2.7,7
				c-0.2,1.3,1.9,1.3,2.1,0c0.1-1.5,0.5-3,1.2-4.4v1.5l0,7.2v5.7c0,0.6,0.4,1.1,1,1.1c0,0,0,0,0,0c0.6,0,1.1-0.5,1.1-1.1v-8.1h1v8.2
				c0,0.6,0.5,1,1.1,1c0.5,0,1-0.4,1-1V92l0.1-7.2c0-0.7,0-1.3,0-1.7c0.7,1.4,1.2,3,1.3,4.5C10.1,88.9,12.1,88.9,12,87.6z"/>
		</g>
	</g>
	<g id="standing-frontal-man-silhouette-7" transform="translate(4619.043 1245.545)">
		<g id="Group_9098" transform="translate(0 0)">
			<ellipse id="Ellipse_6125" class="st0" cx="6" cy="77.1" rx="1.9" ry="1.9"/>
			<path id="Path_9599" class="st0" d="M12,87.6c-0.5-6.1-3.5-7.4-3.5-7.4c-1.9-1-4.1-0.8-5.8,0.5c-1.9,1.8-2.4,4.4-2.7,7
				c-0.2,1.3,1.9,1.3,2.1,0c0.1-1.5,0.5-3,1.2-4.4v1.5l0,7.2v5.7c0,0.6,0.4,1.1,1,1.1c0,0,0,0,0,0c0.6,0,1.1-0.5,1.1-1.1v-8.1h1v8.2
				c0,0.6,0.5,1,1.1,1c0.5,0,1-0.4,1-1V92l0.1-7.2c0-0.7,0-1.3,0-1.7c0.7,1.4,1.2,3,1.3,4.5C10.1,88.9,12.1,88.9,12,87.6z"/>
		</g>
	</g>
	<g id="standing-frontal-man-silhouette-8" transform="translate(4618.65 1093.968)">
		<g id="Group_9099" transform="translate(0 0)">
			<ellipse id="Ellipse_6126" class="st0" cx="6" cy="77.1" rx="1.9" ry="1.9"/>
			<path id="Path_9600" class="st0" d="M12,87.6c-0.5-6.1-3.5-7.4-3.5-7.4c-1.9-1-4.1-0.8-5.8,0.5c-1.9,1.8-2.4,4.4-2.7,7
				c-0.2,1.3,1.9,1.3,2.1,0c0.1-1.5,0.5-3,1.2-4.4v1.5l0,7.2v5.7c0,0.6,0.4,1.1,1,1.1c0,0,0,0,0,0c0.6,0,1.1-0.5,1.1-1.1v-8.1h1v8.2
				c0,0.6,0.5,1,1.1,1c0.5,0,1-0.4,1-1V92l0.1-7.2c0-0.7,0-1.3,0-1.7c0.7,1.4,1.2,3,1.3,4.5C10.1,88.9,12.1,88.9,12,87.6z"/>
		</g>
	</g>
	<g id="standing-frontal-man-silhouette-9" transform="translate(4618.65 1144.353)">
		<g id="Group_9100" transform="translate(0 0)">
			<ellipse id="Ellipse_6127" class="st0" cx="6" cy="77.1" rx="1.9" ry="1.9"/>
			<path id="Path_9601" class="st0" d="M12,87.6c-0.5-6.1-3.5-7.4-3.5-7.4c-1.9-1-4.1-0.8-5.8,0.5c-1.9,1.8-2.4,4.4-2.7,7
				c-0.2,1.3,1.9,1.3,2.1,0c0.1-1.5,0.5-3,1.2-4.4v1.5l0,7.2v5.7c0,0.6,0.4,1.1,1,1.1c0,0,0,0,0,0c0.6,0,1.1-0.5,1.1-1.1v-8.1h1v8.2
				c0,0.6,0.5,1,1.1,1c0.5,0,1-0.4,1-1V92l0.1-7.2c0-0.7,0-1.3,0-1.7c0.7,1.4,1.2,3,1.3,4.5C10.1,88.9,12.1,88.9,12,87.6z"/>
		</g>
	</g>
	<g id="standing-frontal-man-silhouette-10" transform="translate(4618.65 1043.353)">
		<g id="Group_9101" transform="translate(0 0)">
			<ellipse id="Ellipse_6128" class="st0" cx="6" cy="77.1" rx="1.9" ry="1.9"/>
			<path id="Path_9602" class="st0" d="M12,87.6c-0.5-6.1-3.5-7.4-3.5-7.4c-1.9-1-4.1-0.8-5.8,0.5c-1.9,1.8-2.4,4.4-2.7,7
				c-0.2,1.3,1.9,1.3,2.1,0c0.1-1.5,0.5-3,1.2-4.4v1.5l0,7.2v5.7c0,0.6,0.4,1.1,1,1.1c0,0,0,0,0,0c0.6,0,1.1-0.5,1.1-1.1v-8.1h1v8.2
				c0,0.6,0.5,1,1.1,1c0.5,0,1-0.4,1-1V92l0.1-7.2c0-0.7,0-1.3,0-1.7c0.7,1.4,1.2,3,1.3,4.5C10.1,88.9,12.1,88.9,12,87.6z"/>
		</g>
	</g>
	<g id="standing-frontal-man-silhouette-11" transform="translate(4618.65 1119.16)">
		<g id="Group_9102" transform="translate(0 0)">
			<ellipse id="Ellipse_6129" class="st0" cx="6" cy="77.1" rx="1.9" ry="1.9"/>
			<path id="Path_9603" class="st0" d="M12,87.6c-0.5-6.1-3.5-7.4-3.5-7.4c-1.9-1-4.1-0.8-5.8,0.5c-1.9,1.8-2.4,4.4-2.7,7
				c-0.2,1.3,1.9,1.3,2.1,0c0.1-1.5,0.5-3,1.2-4.4v1.5l0,7.2v5.7c0,0.6,0.4,1.1,1,1.1c0,0,0,0,0,0c0.6,0,1.1-0.5,1.1-1.1v-8.1h1v8.2
				c0,0.6,0.5,1,1.1,1c0.5,0,1-0.4,1-1V92l0.1-7.2c0-0.7,0-1.3,0-1.7c0.7,1.4,1.2,3,1.3,4.5C10.1,88.9,12.1,88.9,12,87.6z"/>
		</g>
	</g>
	<g id="standing-frontal-man-silhouette-12" transform="translate(4618.65 1018.16)">
		<g id="Group_9103" transform="translate(0 0)">
			<ellipse id="Ellipse_6130" class="st0" cx="6" cy="77.1" rx="1.9" ry="1.9"/>
			<path id="Path_9604" class="st0" d="M12,87.6c-0.5-6.1-3.5-7.4-3.5-7.4c-1.9-1-4.1-0.8-5.8,0.5c-1.9,1.8-2.4,4.4-2.7,7
				c-0.2,1.3,1.9,1.3,2.1,0c0.1-1.5,0.5-3,1.2-4.4v1.5l0,7.2v5.7c0,0.6,0.4,1.1,1,1.1c0,0,0,0,0,0c0.6,0,1.1-0.5,1.1-1.1v-8.1h1v8.2
				c0,0.6,0.5,1,1.1,1c0.5,0,1-0.4,1-1V92l0.1-7.2c0-0.7,0-1.3,0-1.7c0.7,1.4,1.2,3,1.3,4.5C10.1,88.9,12.1,88.9,12,87.6z"/>
		</g>
	</g>
	<g id="standing-frontal-man-silhouette-13" transform="translate(4618.65 1169.545)">
		<g id="Group_9104" transform="translate(0 0)">
			<ellipse id="Ellipse_6131" class="st0" cx="6" cy="77.1" rx="1.9" ry="1.9"/>
			<path id="Path_9605" class="st0" d="M12,87.6c-0.5-6.1-3.5-7.4-3.5-7.4c-1.9-1-4.1-0.8-5.8,0.5c-1.9,1.8-2.4,4.4-2.7,7
				c-0.2,1.3,1.9,1.3,2.1,0c0.1-1.5,0.5-3,1.2-4.4v1.5l0,7.2v5.7c0,0.6,0.4,1.1,1,1.1c0,0,0,0,0,0c0.6,0,1.1-0.5,1.1-1.1v-8.1h1v8.2
				c0,0.6,0.5,1,1.1,1c0.5,0,1-0.4,1-1V92l0.1-7.2c0-0.7,0-1.3,0-1.7c0.7,1.4,1.2,3,1.3,4.5C10.1,88.9,12.1,88.9,12,87.6z"/>
		</g>
	</g>
	<g id="standing-frontal-man-silhouette-14" transform="translate(4618.65 1068.545)">
		<g id="Group_9105" transform="translate(0 0)">
			<ellipse id="Ellipse_6132" class="st0" cx="6" cy="77.1" rx="1.9" ry="1.9"/>
			<path id="Path_9606" class="st0" d="M12,87.6c-0.5-6.1-3.5-7.4-3.5-7.4c-1.9-1-4.1-0.8-5.8,0.5c-1.9,1.8-2.4,4.4-2.7,7
				c-0.2,1.3,1.9,1.3,2.1,0c0.1-1.5,0.5-3,1.2-4.4v1.5l0,7.2v5.7c0,0.6,0.4,1.1,1,1.1c0,0,0,0,0,0c0.6,0,1.1-0.5,1.1-1.1v-8.1h1v8.2
				c0,0.6,0.5,1,1.1,1c0.5,0,1-0.4,1-1V92l0.1-7.2c0-0.7,0-1.3,0-1.7c0.7,1.4,1.2,3,1.3,4.5C10.1,88.9,12.1,88.9,12,87.6z"/>
		</g>
	</g>
	<g id="standing-frontal-man-silhouette-15" transform="translate(4673.846 1270.968)">
		<g id="Group_9106" transform="translate(0 0)">
			<ellipse id="Ellipse_6133" class="st0" cx="6" cy="77.1" rx="1.9" ry="1.9"/>
			<path id="Path_9607" class="st0" d="M12,87.6c-0.5-6.1-3.5-7.4-3.5-7.4c-1.9-1-4.1-0.8-5.8,0.5c-1.9,1.8-2.4,4.4-2.7,7
				c-0.2,1.3,1.9,1.3,2.1,0c0.1-1.5,0.5-3,1.2-4.4v1.5l0,7.2v5.7c0,0.6,0.4,1.1,1,1.1c0,0,0,0,0,0c0.6,0,1.1-0.5,1.1-1.1v-8.1h1v8.2
				c0,0.6,0.5,1,1.1,1c0.5,0,1-0.4,1-1V92l0.1-7.2c0-0.7,0-1.3,0-1.7c0.7,1.4,1.2,3,1.3,4.5C10.1,88.9,12.1,88.9,12,87.6z"/>
		</g>
	</g>
	<g id="standing-frontal-man-silhouette-16" transform="translate(4673.846 1321.353)">
		<g id="Group_9107" transform="translate(0 0)">
			<ellipse id="Ellipse_6134" class="st0" cx="6" cy="77.1" rx="1.9" ry="1.9"/>
			<path id="Path_9608" class="st0" d="M12,87.6c-0.5-6.1-3.5-7.4-3.5-7.4c-1.9-1-4.1-0.8-5.8,0.5c-1.9,1.8-2.4,4.4-2.7,7
				c-0.2,1.3,1.9,1.3,2.1,0c0.1-1.5,0.5-3,1.2-4.4v1.5l0,7.2v5.7c0,0.6,0.4,1.1,1,1.1c0,0,0,0,0,0c0.6,0,1.1-0.5,1.1-1.1v-8.1h1v8.2
				c0,0.6,0.5,1,1.1,1c0.5,0,1-0.4,1-1V92l0.1-7.2c0-0.7,0-1.3,0-1.7c0.7,1.4,1.2,3,1.3,4.5C10.1,88.9,12.1,88.9,12,87.6z"/>
		</g>
	</g>
	<g id="standing-frontal-man-silhouette-17" transform="translate(4673.846 1220.353)">
		<g id="Group_9108" transform="translate(0 0)">
			<ellipse id="Ellipse_6135" class="st0" cx="6" cy="77.1" rx="1.9" ry="1.9"/>
			<path id="Path_9609" class="st0" d="M12,87.6c-0.5-6.1-3.5-7.4-3.5-7.4c-1.9-1-4.1-0.8-5.8,0.5c-1.9,1.8-2.4,4.4-2.7,7
				c-0.2,1.3,1.9,1.3,2.1,0c0.1-1.5,0.5-3,1.2-4.4v1.5l0,7.2v5.7c0,0.6,0.4,1.1,1,1.1c0,0,0,0,0,0c0.6,0,1.1-0.5,1.1-1.1v-8.1h1v8.2
				c0,0.6,0.5,1,1.1,1c0.5,0,1-0.4,1-1V92l0.1-7.2c0-0.7,0-1.3,0-1.7c0.7,1.4,1.2,3,1.3,4.5C10.1,88.9,12.1,88.9,12,87.6z"/>
		</g>
	</g>
	<g id="standing-frontal-man-silhouette-18" transform="translate(4673.846 1296.16)">
		<g id="Group_9109" transform="translate(0 0)">
			<ellipse id="Ellipse_6136" class="st0" cx="6" cy="77.1" rx="1.9" ry="1.9"/>
			<path id="Path_9610" class="st0" d="M12,87.6c-0.5-6.1-3.5-7.4-3.5-7.4c-1.9-1-4.1-0.8-5.8,0.5c-1.9,1.8-2.4,4.4-2.7,7
				c-0.2,1.3,1.9,1.3,2.1,0c0.1-1.5,0.5-3,1.2-4.4v1.5l0,7.2v5.7c0,0.6,0.4,1.1,1,1.1c0,0,0,0,0,0c0.6,0,1.1-0.5,1.1-1.1v-8.1h1v8.2
				c0,0.6,0.5,1,1.1,1c0.5,0,1-0.4,1-1V92l0.1-7.2c0-0.7,0-1.3,0-1.7c0.7,1.4,1.2,3,1.3,4.5C10.1,88.9,12.1,88.9,12,87.6z"/>
		</g>
	</g>
	<g id="standing-frontal-man-silhouette-19" transform="translate(4673.846 1195.16)">
		<g id="Group_9110" transform="translate(0 0)">
			<ellipse id="Ellipse_6137" class="st0" cx="6" cy="77.1" rx="1.9" ry="1.9"/>
			<path id="Path_9611" class="st0" d="M12,87.6c-0.5-6.1-3.5-7.4-3.5-7.4c-1.9-1-4.1-0.8-5.8,0.5c-1.9,1.8-2.4,4.4-2.7,7
				c-0.2,1.3,1.9,1.3,2.1,0c0.1-1.5,0.5-3,1.2-4.4v1.5l0,7.2v5.7c0,0.6,0.4,1.1,1,1.1c0,0,0,0,0,0c0.6,0,1.1-0.5,1.1-1.1v-8.1h1v8.2
				c0,0.6,0.5,1,1.1,1c0.5,0,1-0.4,1-1V92l0.1-7.2c0-0.7,0-1.3,0-1.7c0.7,1.4,1.2,3,1.3,4.5C10.1,88.9,12.1,88.9,12,87.6z"/>
		</g>
	</g>
	<g id="standing-frontal-man-silhouette-20" transform="translate(4673.846 1346.545)">
		<g id="Group_9111" transform="translate(0 0)">
			<ellipse id="Ellipse_6138" class="st0" cx="6" cy="77.1" rx="1.9" ry="1.9"/>
			<path id="Path_9612" class="st0" d="M12,87.6c-0.5-6.1-3.5-7.4-3.5-7.4c-1.9-1-4.1-0.8-5.8,0.5c-1.9,1.8-2.4,4.4-2.7,7
				c-0.2,1.3,1.9,1.3,2.1,0c0.1-1.5,0.5-3,1.2-4.4v1.5l0,7.2v5.7c0,0.6,0.4,1.1,1,1.1c0,0,0,0,0,0c0.6,0,1.1-0.5,1.1-1.1v-8.1h1v8.2
				c0,0.6,0.5,1,1.1,1c0.5,0,1-0.4,1-1V92l0.1-7.2c0-0.7,0-1.3,0-1.7c0.7,1.4,1.2,3,1.3,4.5C10.1,88.9,12.1,88.9,12,87.6z"/>
		</g>
	</g>
	<g id="standing-frontal-man-silhouette-21" transform="translate(4673.846 1245.545)">
		<g id="Group_9112" transform="translate(0 0)">
			<ellipse id="Ellipse_6139" class="st0" cx="6" cy="77.1" rx="1.9" ry="1.9"/>
			<path id="Path_9613" class="st0" d="M12,87.6c-0.5-6.1-3.5-7.4-3.5-7.4c-1.9-1-4.1-0.8-5.8,0.5c-1.9,1.8-2.4,4.4-2.7,7
				c-0.2,1.3,1.9,1.3,2.1,0c0.1-1.5,0.5-3,1.2-4.4v1.5l0,7.2v5.7c0,0.6,0.4,1.1,1,1.1c0,0,0,0,0,0c0.6,0,1.1-0.5,1.1-1.1v-8.1h1v8.2
				c0,0.6,0.5,1,1.1,1c0.5,0,1-0.4,1-1V92l0.1-7.2c0-0.7,0-1.3,0-1.7c0.7,1.4,1.2,3,1.3,4.5C10.1,88.9,12.1,88.9,12,87.6z"/>
		</g>
	</g>
	<g id="standing-frontal-man-silhouette-22" transform="translate(4673.455 1093.968)">
		<g id="Group_9113" transform="translate(0 0)">
			<ellipse id="Ellipse_6140" class="st0" cx="6" cy="77.1" rx="1.9" ry="1.9"/>
			<path id="Path_9614" class="st0" d="M12,87.6c-0.5-6.1-3.5-7.4-3.5-7.4c-1.9-1-4.1-0.8-5.8,0.5c-1.9,1.8-2.4,4.4-2.7,7
				c-0.2,1.3,1.9,1.3,2.1,0c0.1-1.5,0.5-3,1.2-4.4v1.5l0,7.2v5.7c0,0.6,0.4,1.1,1,1.1c0,0,0,0,0,0c0.6,0,1.1-0.5,1.1-1.1v-8.1h1v8.2
				c0,0.6,0.5,1,1.1,1c0.5,0,1-0.4,1-1V92l0.1-7.2c0-0.7,0-1.3,0-1.7c0.7,1.4,1.2,3,1.3,4.5C10.1,88.9,12.1,88.9,12,87.6z"/>
		</g>
	</g>
	<g id="standing-frontal-man-silhouette-23" transform="translate(4673.455 1144.353)">
		<g id="Group_9114" transform="translate(0 0)">
			<ellipse id="Ellipse_6141" class="st0" cx="6" cy="77.1" rx="1.9" ry="1.9"/>
			<path id="Path_9615" class="st0" d="M12,87.6c-0.5-6.1-3.5-7.4-3.5-7.4c-1.9-1-4.1-0.8-5.8,0.5c-1.9,1.8-2.4,4.4-2.7,7
				c-0.2,1.3,1.9,1.3,2.1,0c0.1-1.5,0.5-3,1.2-4.4v1.5l0,7.2v5.7c0,0.6,0.4,1.1,1,1.1c0,0,0,0,0,0c0.6,0,1.1-0.5,1.1-1.1v-8.1h1v8.2
				c0,0.6,0.5,1,1.1,1c0.5,0,1-0.4,1-1V92l0.1-7.2c0-0.7,0-1.3,0-1.7c0.7,1.4,1.2,3,1.3,4.5C10.1,88.9,12.1,88.9,12,87.6z"/>
		</g>
	</g>
	<g id="standing-frontal-man-silhouette-24" transform="translate(4673.455 1043.353)">
		<g id="Group_9115" transform="translate(0 0)">
			<ellipse id="Ellipse_6142" class="st0" cx="6" cy="77.1" rx="1.9" ry="1.9"/>
			<path id="Path_9616" class="st0" d="M12,87.6c-0.5-6.1-3.5-7.4-3.5-7.4c-1.9-1-4.1-0.8-5.8,0.5c-1.9,1.8-2.4,4.4-2.7,7
				c-0.2,1.3,1.9,1.3,2.1,0c0.1-1.5,0.5-3,1.2-4.4v1.5l0,7.2v5.7c0,0.6,0.4,1.1,1,1.1c0,0,0,0,0,0c0.6,0,1.1-0.5,1.1-1.1v-8.1h1v8.2
				c0,0.6,0.5,1,1.1,1c0.5,0,1-0.4,1-1V92l0.1-7.2c0-0.7,0-1.3,0-1.7c0.7,1.4,1.2,3,1.3,4.5C10.1,88.9,12.1,88.9,12,87.6z"/>
		</g>
	</g>
	<g id="standing-frontal-man-silhouette-25" transform="translate(4673.455 1119.16)">
		<g id="Group_9116" transform="translate(0 0)">
			<ellipse id="Ellipse_6143" class="st0" cx="6" cy="77.1" rx="1.9" ry="1.9"/>
			<path id="Path_9617" class="st0" d="M12,87.6c-0.5-6.1-3.5-7.4-3.5-7.4c-1.9-1-4.1-0.8-5.8,0.5c-1.9,1.8-2.4,4.4-2.7,7
				c-0.2,1.3,1.9,1.3,2.1,0c0.1-1.5,0.5-3,1.2-4.4v1.5l0,7.2v5.7c0,0.6,0.4,1.1,1,1.1c0,0,0,0,0,0c0.6,0,1.1-0.5,1.1-1.1v-8.1h1v8.2
				c0,0.6,0.5,1,1.1,1c0.5,0,1-0.4,1-1V92l0.1-7.2c0-0.7,0-1.3,0-1.7c0.7,1.4,1.2,3,1.3,4.5C10.1,88.9,12.1,88.9,12,87.6z"/>
		</g>
	</g>
	<g id="standing-frontal-man-silhouette-26" transform="translate(4673.455 1018.16)">
		<g id="Group_9117" transform="translate(0 0)">
			<ellipse id="Ellipse_6144" class="st0" cx="6" cy="77.1" rx="1.9" ry="1.9"/>
			<path id="Path_9618" class="st0" d="M12,87.6c-0.5-6.1-3.5-7.4-3.5-7.4c-1.9-1-4.1-0.8-5.8,0.5c-1.9,1.8-2.4,4.4-2.7,7
				c-0.2,1.3,1.9,1.3,2.1,0c0.1-1.5,0.5-3,1.2-4.4v1.5l0,7.2v5.7c0,0.6,0.4,1.1,1,1.1c0,0,0,0,0,0c0.6,0,1.1-0.5,1.1-1.1v-8.1h1v8.2
				c0,0.6,0.5,1,1.1,1c0.5,0,1-0.4,1-1V92l0.1-7.2c0-0.7,0-1.3,0-1.7c0.7,1.4,1.2,3,1.3,4.5C10.1,88.9,12.1,88.9,12,87.6z"/>
		</g>
	</g>
	<g id="standing-frontal-man-silhouette-27" transform="translate(4673.455 1169.545)">
		<g id="Group_9118" transform="translate(0 0)">
			<ellipse id="Ellipse_6145" class="st0" cx="6" cy="77.1" rx="1.9" ry="1.9"/>
			<path id="Path_9619" class="st0" d="M12,87.6c-0.5-6.1-3.5-7.4-3.5-7.4c-1.9-1-4.1-0.8-5.8,0.5c-1.9,1.8-2.4,4.4-2.7,7
				c-0.2,1.3,1.9,1.3,2.1,0c0.1-1.5,0.5-3,1.2-4.4v1.5l0,7.2v5.7c0,0.6,0.4,1.1,1,1.1c0,0,0,0,0,0c0.6,0,1.1-0.5,1.1-1.1v-8.1h1v8.2
				c0,0.6,0.5,1,1.1,1c0.5,0,1-0.4,1-1V92l0.1-7.2c0-0.7,0-1.3,0-1.7c0.7,1.4,1.2,3,1.3,4.5C10.1,88.9,12.1,88.9,12,87.6z"/>
		</g>
	</g>
	<g id="standing-frontal-man-silhouette-28" transform="translate(4673.455 1068.545)">
		<g id="Group_9119" transform="translate(0 0)">
			<ellipse id="Ellipse_6146" class="st0" cx="6" cy="77.1" rx="1.9" ry="1.9"/>
			<path id="Path_9620" class="st0" d="M12,87.6c-0.5-6.1-3.5-7.4-3.5-7.4c-1.9-1-4.1-0.8-5.8,0.5c-1.9,1.8-2.4,4.4-2.7,7
				c-0.2,1.3,1.9,1.3,2.1,0c0.1-1.5,0.5-3,1.2-4.4v1.5l0,7.2v5.7c0,0.6,0.4,1.1,1,1.1c0,0,0,0,0,0c0.6,0,1.1-0.5,1.1-1.1v-8.1h1v8.2
				c0,0.6,0.5,1,1.1,1c0.5,0,1-0.4,1-1V92l0.1-7.2c0-0.7,0-1.3,0-1.7c0.7,1.4,1.2,3,1.3,4.5C10.1,88.9,12.1,88.9,12,87.6z"/>
		</g>
	</g>
	<g id="standing-frontal-man-silhouette-29" transform="translate(4618.258 992.968)">
		<g id="Group_9120" transform="translate(0 0)">
			<ellipse id="Ellipse_6147" class="st0" cx="6" cy="77.1" rx="1.9" ry="1.9"/>
			<path id="Path_9621" class="st0" d="M12,87.6c-0.5-6.1-3.5-7.4-3.5-7.4c-1.9-1-4.1-0.8-5.8,0.5c-1.9,1.8-2.4,4.4-2.7,7
				c-0.2,1.3,1.9,1.3,2.1,0c0.1-1.5,0.5-3,1.2-4.4v1.5l0,7.2v5.7c0,0.6,0.4,1.1,1,1.1c0,0,0,0,0,0c0.6,0,1.1-0.5,1.1-1.1v-8.1h1v8.2
				c0,0.6,0.5,1,1.1,1c0.5,0,1-0.4,1-1V92l0.1-7.2c0-0.7,0-1.3,0-1.7c0.7,1.4,1.2,3,1.3,4.5C10.1,88.9,12.1,88.9,12,87.6z"/>
		</g>
	</g>
	<g id="standing-frontal-man-silhouette-30" transform="translate(4673.258 967.353)">
		<g id="Group_9121" transform="translate(0 0)">
			<ellipse id="Ellipse_6148" class="st0" cx="6" cy="77.1" rx="1.9" ry="1.9"/>
			<path id="Path_9622" class="st0" d="M12,87.6c-0.5-6.1-3.5-7.4-3.5-7.4c-1.9-1-4.1-0.8-5.8,0.5c-1.9,1.8-2.4,4.4-2.7,7
				c-0.2,1.3,1.9,1.3,2.1,0c0.1-1.5,0.5-3,1.2-4.4v1.5l0,7.2v5.7c0,0.6,0.4,1.1,1,1.1c0,0,0,0,0,0c0.6,0,1.1-0.5,1.1-1.1v-8.1h1v8.2
				c0,0.6,0.5,1,1.1,1c0.5,0,1-0.4,1-1V92l0.1-7.2c0-0.7,0-1.3,0-1.7c0.7,1.4,1.2,3,1.3,4.5C10.1,88.9,12.1,88.9,12,87.6z"/>
		</g>
	</g>
	<g id="standing-frontal-man-silhouette-31" transform="translate(4618.258 942.353)">
		<g id="Group_9122" transform="translate(0 0)">
			<ellipse id="Ellipse_6149" class="st0" cx="6" cy="77.1" rx="1.9" ry="1.9"/>
			<path id="Path_9623" class="st0" d="M12,87.6c-0.5-6.1-3.5-7.4-3.5-7.4c-1.9-1-4.1-0.8-5.8,0.5c-1.9,1.8-2.4,4.4-2.7,7
				c-0.2,1.3,1.9,1.3,2.1,0c0.1-1.5,0.5-3,1.2-4.4v1.5l0,7.2v5.7c0,0.6,0.4,1.1,1,1.1c0,0,0,0,0,0c0.6,0,1.1-0.5,1.1-1.1v-8.1h1v8.2
				c0,0.6,0.5,1,1.1,1c0.5,0,1-0.4,1-1V92l0.1-7.2c0-0.7,0-1.3,0-1.7c0.7,1.4,1.2,3,1.3,4.5C10.1,88.9,12.1,88.9,12,87.6z"/>
		</g>
	</g>
	<g id="standing-frontal-man-silhouette-32" transform="translate(4673.258 942.16)">
		<g id="Group_9123" transform="translate(0 0)">
			<ellipse id="Ellipse_6150" class="st0" cx="6" cy="77.1" rx="1.9" ry="1.9"/>
			<path id="Path_9624" class="st0" d="M12,87.6c-0.5-6.1-3.5-7.4-3.5-7.4c-1.9-1-4.1-0.8-5.8,0.5c-1.9,1.8-2.4,4.4-2.7,7
				c-0.2,1.3,1.9,1.3,2.1,0c0.1-1.5,0.5-3,1.2-4.4v1.5l0,7.2v5.7c0,0.6,0.4,1.1,1,1.1c0,0,0,0,0,0c0.6,0,1.1-0.5,1.1-1.1v-8.1h1v8.2
				c0,0.6,0.5,1,1.1,1c0.5,0,1-0.4,1-1V92l0.1-7.2c0-0.7,0-1.3,0-1.7c0.7,1.4,1.2,3,1.3,4.5C10.1,88.9,12.1,88.9,12,87.6z"/>
		</g>
	</g>
	<g id="standing-frontal-man-silhouette-33" transform="translate(4618.258 917.16)">
		<g id="Group_9124" transform="translate(0 0)">
			<ellipse id="Ellipse_6151" class="st0" cx="6" cy="77.1" rx="1.9" ry="1.9"/>
			<path id="Path_9625" class="st0" d="M12,87.6c-0.5-6.1-3.5-7.4-3.5-7.4c-1.9-1-4.1-0.8-5.8,0.5c-1.9,1.8-2.4,4.4-2.7,7
				c-0.2,1.3,1.9,1.3,2.1,0c0.1-1.5,0.5-3,1.2-4.4v1.5l0,7.2v5.7c0,0.6,0.4,1.1,1,1.1c0,0,0,0,0,0c0.6,0,1.1-0.5,1.1-1.1v-8.1h1v8.2
				c0,0.6,0.5,1,1.1,1c0.5,0,1-0.4,1-1V92l0.1-7.2c0-0.7,0-1.3,0-1.7c0.7,1.4,1.2,3,1.3,4.5C10.1,88.9,12.1,88.9,12,87.6z"/>
		</g>
	</g>
	<g id="standing-frontal-man-silhouette-34" transform="translate(4673.258 992.545)">
		<g id="Group_9125" transform="translate(0 0)">
			<ellipse id="Ellipse_6152" class="st0" cx="6" cy="77.1" rx="1.9" ry="1.9"/>
			<path id="Path_9626" class="st0" d="M12,87.6c-0.5-6.1-3.5-7.4-3.5-7.4c-1.9-1-4.1-0.8-5.8,0.5c-1.9,1.8-2.4,4.4-2.7,7
				c-0.2,1.3,1.9,1.3,2.1,0c0.1-1.5,0.5-3,1.2-4.4v1.5l0,7.2v5.7c0,0.6,0.4,1.1,1,1.1c0,0,0,0,0,0c0.6,0,1.1-0.5,1.1-1.1v-8.1h1v8.2
				c0,0.6,0.5,1,1.1,1c0.5,0,1-0.4,1-1V92l0.1-7.2c0-0.7,0-1.3,0-1.7c0.7,1.4,1.2,3,1.3,4.5C10.1,88.9,12.1,88.9,12,87.6z"/>
		</g>
	</g>
	<g id="standing-frontal-man-silhouette-35" transform="translate(4618.258 967.545)">
		<g id="Group_9126" transform="translate(0 0)">
			<ellipse id="Ellipse_6153" class="st0" cx="6" cy="77.1" rx="1.9" ry="1.9"/>
			<path id="Path_9627" class="st0" d="M12,87.6c-0.5-6.1-3.5-7.4-3.5-7.4c-1.9-1-4.1-0.8-5.8,0.5c-1.9,1.8-2.4,4.4-2.7,7
				c-0.2,1.3,1.9,1.3,2.1,0c0.1-1.5,0.5-3,1.2-4.4v1.5l0,7.2v5.7c0,0.6,0.4,1.1,1,1.1c0,0,0,0,0,0c0.6,0,1.1-0.5,1.1-1.1v-8.1h1v8.2
				c0,0.6,0.5,1,1.1,1c0.5,0,1-0.4,1-1V92l0.1-7.2c0-0.7,0-1.3,0-1.7c0.7,1.4,1.2,3,1.3,4.5C10.1,88.9,12.1,88.9,12,87.6z"/>
		</g>
	</g>
	<g id="standing-frontal-man-silhouette-36" transform="translate(4646.445 1270.968)">
		<g id="Group_9127" transform="translate(0 0)">
			<ellipse id="Ellipse_6154" class="st0" cx="6" cy="77.1" rx="1.9" ry="1.9"/>
			<path id="Path_9628" class="st0" d="M12,87.6c-0.5-6.1-3.5-7.4-3.5-7.4c-1.9-1-4.1-0.8-5.8,0.5c-1.9,1.8-2.4,4.4-2.7,7
				c-0.2,1.3,1.9,1.3,2.1,0c0.1-1.5,0.5-3,1.2-4.4v1.5l0,7.2v5.7c0,0.6,0.4,1.1,1,1.1c0,0,0,0,0,0c0.6,0,1.1-0.5,1.1-1.1v-8.1h1v8.2
				c0,0.6,0.5,1,1.1,1c0.5,0,1-0.4,1-1V92l0.1-7.2c0-0.7,0-1.3,0-1.7c0.7,1.4,1.2,3,1.3,4.5C10.1,88.9,12.1,88.9,12,87.6z"/>
		</g>
	</g>
	<g id="standing-frontal-man-silhouette-37" transform="translate(4646.445 1321.353)">
		<g id="Group_9128" transform="translate(0 0)">
			<ellipse id="Ellipse_6155" class="st0" cx="6" cy="77.1" rx="1.9" ry="1.9"/>
			<path id="Path_9629" class="st0" d="M12,87.6c-0.5-6.1-3.5-7.4-3.5-7.4c-1.9-1-4.1-0.8-5.8,0.5c-1.9,1.8-2.4,4.4-2.7,7
				c-0.2,1.3,1.9,1.3,2.1,0c0.1-1.5,0.5-3,1.2-4.4v1.5l0,7.2v5.7c0,0.6,0.4,1.1,1,1.1c0,0,0,0,0,0c0.6,0,1.1-0.5,1.1-1.1v-8.1h1v8.2
				c0,0.6,0.5,1,1.1,1c0.5,0,1-0.4,1-1V92l0.1-7.2c0-0.7,0-1.3,0-1.7c0.7,1.4,1.2,3,1.3,4.5C10.1,88.9,12.1,88.9,12,87.6z"/>
		</g>
	</g>
	<g id="standing-frontal-man-silhouette-38" transform="translate(4646.445 1220.353)">
		<g id="Group_9129" transform="translate(0 0)">
			<ellipse id="Ellipse_6156" class="st0" cx="6" cy="77.1" rx="1.9" ry="1.9"/>
			<path id="Path_9630" class="st0" d="M12,87.6c-0.5-6.1-3.5-7.4-3.5-7.4c-1.9-1-4.1-0.8-5.8,0.5c-1.9,1.8-2.4,4.4-2.7,7
				c-0.2,1.3,1.9,1.3,2.1,0c0.1-1.5,0.5-3,1.2-4.4v1.5l0,7.2v5.7c0,0.6,0.4,1.1,1,1.1c0,0,0,0,0,0c0.6,0,1.1-0.5,1.1-1.1v-8.1h1v8.2
				c0,0.6,0.5,1,1.1,1c0.5,0,1-0.4,1-1V92l0.1-7.2c0-0.7,0-1.3,0-1.7c0.7,1.4,1.2,3,1.3,4.5C10.1,88.9,12.1,88.9,12,87.6z"/>
		</g>
	</g>
	<g id="standing-frontal-man-silhouette-39" transform="translate(4646.445 1296.16)">
		<g id="Group_9130" transform="translate(0 0)">
			<ellipse id="Ellipse_6157" class="st0" cx="6" cy="77.1" rx="1.9" ry="1.9"/>
			<path id="Path_9631" class="st0" d="M12,87.6c-0.5-6.1-3.5-7.4-3.5-7.4c-1.9-1-4.1-0.8-5.8,0.5c-1.9,1.8-2.4,4.4-2.7,7
				c-0.2,1.3,1.9,1.3,2.1,0c0.1-1.5,0.5-3,1.2-4.4v1.5l0,7.2v5.7c0,0.6,0.4,1.1,1,1.1c0,0,0,0,0,0c0.6,0,1.1-0.5,1.1-1.1v-8.1h1v8.2
				c0,0.6,0.5,1,1.1,1c0.5,0,1-0.4,1-1V92l0.1-7.2c0-0.7,0-1.3,0-1.7c0.7,1.4,1.2,3,1.3,4.5C10.1,88.9,12.1,88.9,12,87.6z"/>
		</g>
	</g>
	<g id="standing-frontal-man-silhouette-40" transform="translate(4646.445 1195.16)">
		<g id="Group_9131" transform="translate(0 0)">
			<ellipse id="Ellipse_6158" class="st0" cx="6" cy="77.1" rx="1.9" ry="1.9"/>
			<path id="Path_9632" class="st0" d="M12,87.6c-0.5-6.1-3.5-7.4-3.5-7.4c-1.9-1-4.1-0.8-5.8,0.5c-1.9,1.8-2.4,4.4-2.7,7
				c-0.2,1.3,1.9,1.3,2.1,0c0.1-1.5,0.5-3,1.2-4.4v1.5l0,7.2v5.7c0,0.6,0.4,1.1,1,1.1c0,0,0,0,0,0c0.6,0,1.1-0.5,1.1-1.1v-8.1h1v8.2
				c0,0.6,0.5,1,1.1,1c0.5,0,1-0.4,1-1V92l0.1-7.2c0-0.7,0-1.3,0-1.7c0.7,1.4,1.2,3,1.3,4.5C10.1,88.9,12.1,88.9,12,87.6z"/>
		</g>
	</g>
	<g id="standing-frontal-man-silhouette-41" transform="translate(4646.445 1346.545)">
		<g id="Group_9132" transform="translate(0 0)">
			<ellipse id="Ellipse_6159" class="st0" cx="6" cy="77.1" rx="1.9" ry="1.9"/>
			<path id="Path_9633" class="st0" d="M12,87.6c-0.5-6.1-3.5-7.4-3.5-7.4c-1.9-1-4.1-0.8-5.8,0.5c-1.9,1.8-2.4,4.4-2.7,7
				c-0.2,1.3,1.9,1.3,2.1,0c0.1-1.5,0.5-3,1.2-4.4v1.5l0,7.2v5.7c0,0.6,0.4,1.1,1,1.1c0,0,0,0,0,0c0.6,0,1.1-0.5,1.1-1.1v-8.1h1v8.2
				c0,0.6,0.5,1,1.1,1c0.5,0,1-0.4,1-1V92l0.1-7.2c0-0.7,0-1.3,0-1.7c0.7,1.4,1.2,3,1.3,4.5C10.1,88.9,12.1,88.9,12,87.6z"/>
		</g>
	</g>
	<g id="standing-frontal-man-silhouette-42" transform="translate(4646.445 1245.545)">
		<g id="Group_9133" transform="translate(0 0)">
			<ellipse id="Ellipse_6160" class="st0" cx="6" cy="77.1" rx="1.9" ry="1.9"/>
			<path id="Path_9634" class="st0" d="M12,87.6c-0.5-6.1-3.5-7.4-3.5-7.4c-1.9-1-4.1-0.8-5.8,0.5c-1.9,1.8-2.4,4.4-2.7,7
				c-0.2,1.3,1.9,1.3,2.1,0c0.1-1.5,0.5-3,1.2-4.4v1.5l0,7.2v5.7c0,0.6,0.4,1.1,1,1.1c0,0,0,0,0,0c0.6,0,1.1-0.5,1.1-1.1v-8.1h1v8.2
				c0,0.6,0.5,1,1.1,1c0.5,0,1-0.4,1-1V92l0.1-7.2c0-0.7,0-1.3,0-1.7c0.7,1.4,1.2,3,1.3,4.5C10.1,88.9,12.1,88.9,12,87.6z"/>
		</g>
	</g>
	<g id="standing-frontal-man-silhouette-43" transform="translate(4646.053 1093.968)">
		<g id="Group_9134" transform="translate(0 0)">
			<ellipse id="Ellipse_6161" class="st0" cx="6" cy="77.1" rx="1.9" ry="1.9"/>
			<path id="Path_9635" class="st0" d="M12,87.6c-0.5-6.1-3.5-7.4-3.5-7.4c-1.9-1-4.1-0.8-5.8,0.5c-1.9,1.8-2.4,4.4-2.7,7
				c-0.2,1.3,1.9,1.3,2.1,0c0.1-1.5,0.5-3,1.2-4.4v1.5l0,7.2v5.7c0,0.6,0.4,1.1,1,1.1c0,0,0,0,0,0c0.6,0,1.1-0.5,1.1-1.1v-8.1h1v8.2
				c0,0.6,0.5,1,1.1,1c0.5,0,1-0.4,1-1V92l0.1-7.2c0-0.7,0-1.3,0-1.7c0.7,1.4,1.2,3,1.3,4.5C10.1,88.9,12.1,88.9,12,87.6z"/>
		</g>
	</g>
	<g id="standing-frontal-man-silhouette-44" transform="translate(4646.053 1144.353)">
		<g id="Group_9135" transform="translate(0 0)">
			<ellipse id="Ellipse_6162" class="st0" cx="6" cy="77.1" rx="1.9" ry="1.9"/>
			<path id="Path_9636" class="st0" d="M12,87.6c-0.5-6.1-3.5-7.4-3.5-7.4c-1.9-1-4.1-0.8-5.8,0.5c-1.9,1.8-2.4,4.4-2.7,7
				c-0.2,1.3,1.9,1.3,2.1,0c0.1-1.5,0.5-3,1.2-4.4v1.5l0,7.2v5.7c0,0.6,0.4,1.1,1,1.1c0,0,0,0,0,0c0.6,0,1.1-0.5,1.1-1.1v-8.1h1v8.2
				c0,0.6,0.5,1,1.1,1c0.5,0,1-0.4,1-1V92l0.1-7.2c0-0.7,0-1.3,0-1.7c0.7,1.4,1.2,3,1.3,4.5C10.1,88.9,12.1,88.9,12,87.6z"/>
		</g>
	</g>
	<g id="standing-frontal-man-silhouette-45" transform="translate(4646.053 1043.353)">
		<g id="Group_9136" transform="translate(0 0)">
			<ellipse id="Ellipse_6163" class="st0" cx="6" cy="77.1" rx="1.9" ry="1.9"/>
			<path id="Path_9637" class="st0" d="M12,87.6c-0.5-6.1-3.5-7.4-3.5-7.4c-1.9-1-4.1-0.8-5.8,0.5c-1.9,1.8-2.4,4.4-2.7,7
				c-0.2,1.3,1.9,1.3,2.1,0c0.1-1.5,0.5-3,1.2-4.4v1.5l0,7.2v5.7c0,0.6,0.4,1.1,1,1.1c0,0,0,0,0,0c0.6,0,1.1-0.5,1.1-1.1v-8.1h1v8.2
				c0,0.6,0.5,1,1.1,1c0.5,0,1-0.4,1-1V92l0.1-7.2c0-0.7,0-1.3,0-1.7c0.7,1.4,1.2,3,1.3,4.5C10.1,88.9,12.1,88.9,12,87.6z"/>
		</g>
	</g>
	<g id="standing-frontal-man-silhouette-46" transform="translate(4646.053 1119.16)">
		<g id="Group_9137" transform="translate(0 0)">
			<ellipse id="Ellipse_6164" class="st0" cx="6" cy="77.1" rx="1.9" ry="1.9"/>
			<path id="Path_9638" class="st0" d="M12,87.6c-0.5-6.1-3.5-7.4-3.5-7.4c-1.9-1-4.1-0.8-5.8,0.5c-1.9,1.8-2.4,4.4-2.7,7
				c-0.2,1.3,1.9,1.3,2.1,0c0.1-1.5,0.5-3,1.2-4.4v1.5l0,7.2v5.7c0,0.6,0.4,1.1,1,1.1c0,0,0,0,0,0c0.6,0,1.1-0.5,1.1-1.1v-8.1h1v8.2
				c0,0.6,0.5,1,1.1,1c0.5,0,1-0.4,1-1V92l0.1-7.2c0-0.7,0-1.3,0-1.7c0.7,1.4,1.2,3,1.3,4.5C10.1,88.9,12.1,88.9,12,87.6z"/>
		</g>
	</g>
	<g id="standing-frontal-man-silhouette-47" transform="translate(4646.053 1018.16)">
		<g id="Group_9138" transform="translate(0 0)">
			<ellipse id="Ellipse_6165" class="st0" cx="6" cy="77.1" rx="1.9" ry="1.9"/>
			<path id="Path_9639" class="st0" d="M12,87.6c-0.5-6.1-3.5-7.4-3.5-7.4c-1.9-1-4.1-0.8-5.8,0.5c-1.9,1.8-2.4,4.4-2.7,7
				c-0.2,1.3,1.9,1.3,2.1,0c0.1-1.5,0.5-3,1.2-4.4v1.5l0,7.2v5.7c0,0.6,0.4,1.1,1,1.1c0,0,0,0,0,0c0.6,0,1.1-0.5,1.1-1.1v-8.1h1v8.2
				c0,0.6,0.5,1,1.1,1c0.5,0,1-0.4,1-1V92l0.1-7.2c0-0.7,0-1.3,0-1.7c0.7,1.4,1.2,3,1.3,4.5C10.1,88.9,12.1,88.9,12,87.6z"/>
		</g>
	</g>
	<g id="standing-frontal-man-silhouette-48" transform="translate(4646.053 1169.545)">
		<g id="Group_9139" transform="translate(0 0)">
			<ellipse id="Ellipse_6166" class="st0" cx="6" cy="77.1" rx="1.9" ry="1.9"/>
			<path id="Path_9640" class="st0" d="M12,87.6c-0.5-6.1-3.5-7.4-3.5-7.4c-1.9-1-4.1-0.8-5.8,0.5c-1.9,1.8-2.4,4.4-2.7,7
				c-0.2,1.3,1.9,1.3,2.1,0c0.1-1.5,0.5-3,1.2-4.4v1.5l0,7.2v5.7c0,0.6,0.4,1.1,1,1.1c0,0,0,0,0,0c0.6,0,1.1-0.5,1.1-1.1v-8.1h1v8.2
				c0,0.6,0.5,1,1.1,1c0.5,0,1-0.4,1-1V92l0.1-7.2c0-0.7,0-1.3,0-1.7c0.7,1.4,1.2,3,1.3,4.5C10.1,88.9,12.1,88.9,12,87.6z"/>
		</g>
	</g>
	<g id="standing-frontal-man-silhouette-49" transform="translate(4646.053 1068.545)">
		<g id="Group_9140" transform="translate(0 0)">
			<ellipse id="Ellipse_6167" class="st0" cx="6" cy="77.1" rx="1.9" ry="1.9"/>
			<path id="Path_9641" class="st0" d="M12,87.6c-0.5-6.1-3.5-7.4-3.5-7.4c-1.9-1-4.1-0.8-5.8,0.5c-1.9,1.8-2.4,4.4-2.7,7
				c-0.2,1.3,1.9,1.3,2.1,0c0.1-1.5,0.5-3,1.2-4.4v1.5l0,7.2v5.7c0,0.6,0.4,1.1,1,1.1c0,0,0,0,0,0c0.6,0,1.1-0.5,1.1-1.1v-8.1h1v8.2
				c0,0.6,0.5,1,1.1,1c0.5,0,1-0.4,1-1V92l0.1-7.2c0-0.7,0-1.3,0-1.7c0.7,1.4,1.2,3,1.3,4.5C10.1,88.9,12.1,88.9,12,87.6z"/>
		</g>
	</g>
	<g id="standing-frontal-man-silhouette-50" transform="translate(4701.248 1270.968)">
		<g id="Group_9141" transform="translate(0 0)">
			<ellipse id="Ellipse_6168" class="st0" cx="6" cy="77.1" rx="1.9" ry="1.9"/>
			<path id="Path_9642" class="st0" d="M12,87.6c-0.5-6.1-3.5-7.4-3.5-7.4c-1.9-1-4.1-0.8-5.8,0.5c-1.9,1.8-2.4,4.4-2.7,7
				c-0.2,1.3,1.9,1.3,2.1,0c0.1-1.5,0.5-3,1.2-4.4v1.5l0,7.2v5.7c0,0.6,0.4,1.1,1,1.1c0,0,0,0,0,0c0.6,0,1.1-0.5,1.1-1.1v-8.1h1v8.2
				c0,0.6,0.5,1,1.1,1c0.5,0,1-0.4,1-1V92l0.1-7.2c0-0.7,0-1.3,0-1.7c0.7,1.4,1.2,3,1.3,4.5C10.1,88.9,12.1,88.9,12,87.6z"/>
		</g>
	</g>
	<g id="standing-frontal-man-silhouette-51" transform="translate(4701.248 1321.353)">
		<g id="Group_9142" transform="translate(0 0)">
			<ellipse id="Ellipse_6169" class="st0" cx="6" cy="77.1" rx="1.9" ry="1.9"/>
			<path id="Path_9643" class="st0" d="M12,87.6c-0.5-6.1-3.5-7.4-3.5-7.4c-1.9-1-4.1-0.8-5.8,0.5c-1.9,1.8-2.4,4.4-2.7,7
				c-0.2,1.3,1.9,1.3,2.1,0c0.1-1.5,0.5-3,1.2-4.4v1.5l0,7.2v5.7c0,0.6,0.4,1.1,1,1.1c0,0,0,0,0,0c0.6,0,1.1-0.5,1.1-1.1v-8.1h1v8.2
				c0,0.6,0.5,1,1.1,1c0.5,0,1-0.4,1-1V92l0.1-7.2c0-0.7,0-1.3,0-1.7c0.7,1.4,1.2,3,1.3,4.5C10.1,88.9,12.1,88.9,12,87.6z"/>
		</g>
	</g>
	<g id="standing-frontal-man-silhouette-52" transform="translate(4701.248 1220.353)">
		<g id="Group_9143" transform="translate(0 0)">
			<ellipse id="Ellipse_6170" class="st0" cx="6" cy="77.1" rx="1.9" ry="1.9"/>
			<path id="Path_9644" class="st0" d="M12,87.6c-0.5-6.1-3.5-7.4-3.5-7.4c-1.9-1-4.1-0.8-5.8,0.5c-1.9,1.8-2.4,4.4-2.7,7
				c-0.2,1.3,1.9,1.3,2.1,0c0.1-1.5,0.5-3,1.2-4.4v1.5l0,7.2v5.7c0,0.6,0.4,1.1,1,1.1c0,0,0,0,0,0c0.6,0,1.1-0.5,1.1-1.1v-8.1h1v8.2
				c0,0.6,0.5,1,1.1,1c0.5,0,1-0.4,1-1V92l0.1-7.2c0-0.7,0-1.3,0-1.7c0.7,1.4,1.2,3,1.3,4.5C10.1,88.9,12.1,88.9,12,87.6z"/>
		</g>
	</g>
	<g id="standing-frontal-man-silhouette-53" transform="translate(4701.248 1296.16)">
		<g id="Group_9144" transform="translate(0 0)">
			<ellipse id="Ellipse_6171" class="st0" cx="6" cy="77.1" rx="1.9" ry="1.9"/>
			<path id="Path_9645" class="st0" d="M12,87.6c-0.5-6.1-3.5-7.4-3.5-7.4c-1.9-1-4.1-0.8-5.8,0.5c-1.9,1.8-2.4,4.4-2.7,7
				c-0.2,1.3,1.9,1.3,2.1,0c0.1-1.5,0.5-3,1.2-4.4v1.5l0,7.2v5.7c0,0.6,0.4,1.1,1,1.1c0,0,0,0,0,0c0.6,0,1.1-0.5,1.1-1.1v-8.1h1v8.2
				c0,0.6,0.5,1,1.1,1c0.5,0,1-0.4,1-1V92l0.1-7.2c0-0.7,0-1.3,0-1.7c0.7,1.4,1.2,3,1.3,4.5C10.1,88.9,12.1,88.9,12,87.6z"/>
		</g>
	</g>
	<g id="standing-frontal-man-silhouette-54" transform="translate(4701.248 1195.16)">
		<g id="Group_9145" transform="translate(0 0)">
			<ellipse id="Ellipse_6172" class="st0" cx="6" cy="77.1" rx="1.9" ry="1.9"/>
			<path id="Path_9646" class="st0" d="M12,87.6c-0.5-6.1-3.5-7.4-3.5-7.4c-1.9-1-4.1-0.8-5.8,0.5c-1.9,1.8-2.4,4.4-2.7,7
				c-0.2,1.3,1.9,1.3,2.1,0c0.1-1.5,0.5-3,1.2-4.4v1.5l0,7.2v5.7c0,0.6,0.4,1.1,1,1.1c0,0,0,0,0,0c0.6,0,1.1-0.5,1.1-1.1v-8.1h1v8.2
				c0,0.6,0.5,1,1.1,1c0.5,0,1-0.4,1-1V92l0.1-7.2c0-0.7,0-1.3,0-1.7c0.7,1.4,1.2,3,1.3,4.5C10.1,88.9,12.1,88.9,12,87.6z"/>
		</g>
	</g>
	<g id="standing-frontal-man-silhouette-55" transform="translate(4701.248 1346.545)">
		<g id="Group_9146" transform="translate(0 0)">
			<ellipse id="Ellipse_6173" class="st0" cx="6" cy="77.1" rx="1.9" ry="1.9"/>
			<path id="Path_9647" class="st0" d="M12,87.6c-0.5-6.1-3.5-7.4-3.5-7.4c-1.9-1-4.1-0.8-5.8,0.5c-1.9,1.8-2.4,4.4-2.7,7
				c-0.2,1.3,1.9,1.3,2.1,0c0.1-1.5,0.5-3,1.2-4.4v1.5l0,7.2v5.7c0,0.6,0.4,1.1,1,1.1c0,0,0,0,0,0c0.6,0,1.1-0.5,1.1-1.1v-8.1h1v8.2
				c0,0.6,0.5,1,1.1,1c0.5,0,1-0.4,1-1V92l0.1-7.2c0-0.7,0-1.3,0-1.7c0.7,1.4,1.2,3,1.3,4.5C10.1,88.9,12.1,88.9,12,87.6z"/>
		</g>
	</g>
	<g id="standing-frontal-man-silhouette-56" transform="translate(4701.248 1245.545)">
		<g id="Group_9147" transform="translate(0 0)">
			<ellipse id="Ellipse_6174" class="st0" cx="6" cy="77.1" rx="1.9" ry="1.9"/>
			<path id="Path_9648" class="st0" d="M12,87.6c-0.5-6.1-3.5-7.4-3.5-7.4c-1.9-1-4.1-0.8-5.8,0.5c-1.9,1.8-2.4,4.4-2.7,7
				c-0.2,1.3,1.9,1.3,2.1,0c0.1-1.5,0.5-3,1.2-4.4v1.5l0,7.2v5.7c0,0.6,0.4,1.1,1,1.1c0,0,0,0,0,0c0.6,0,1.1-0.5,1.1-1.1v-8.1h1v8.2
				c0,0.6,0.5,1,1.1,1c0.5,0,1-0.4,1-1V92l0.1-7.2c0-0.7,0-1.3,0-1.7c0.7,1.4,1.2,3,1.3,4.5C10.1,88.9,12.1,88.9,12,87.6z"/>
		</g>
	</g>
	<g id="standing-frontal-man-silhouette-57" transform="translate(4700.855 1093.968)">
		<g id="Group_9148" transform="translate(0 0)">
			<ellipse id="Ellipse_6175" class="st0" cx="6" cy="77.1" rx="1.9" ry="1.9"/>
			<path id="Path_9649" class="st0" d="M12,87.6c-0.5-6.1-3.5-7.4-3.5-7.4c-1.9-1-4.1-0.8-5.8,0.5c-1.9,1.8-2.4,4.4-2.7,7
				c-0.2,1.3,1.9,1.3,2.1,0c0.1-1.5,0.5-3,1.2-4.4v1.5l0,7.2v5.7c0,0.6,0.4,1.1,1,1.1c0,0,0,0,0,0c0.6,0,1.1-0.5,1.1-1.1v-8.1h1v8.2
				c0,0.6,0.5,1,1.1,1c0.5,0,1-0.4,1-1V92l0.1-7.2c0-0.7,0-1.3,0-1.7c0.7,1.4,1.2,3,1.3,4.5C10.1,88.9,12.1,88.9,12,87.6z"/>
		</g>
	</g>
	<g id="standing-frontal-man-silhouette-58" transform="translate(4700.855 1144.353)">
		<g id="Group_9149" transform="translate(0 0)">
			<ellipse id="Ellipse_6176" class="st0" cx="6" cy="77.1" rx="1.9" ry="1.9"/>
			<path id="Path_9650" class="st0" d="M12,87.6c-0.5-6.1-3.5-7.4-3.5-7.4c-1.9-1-4.1-0.8-5.8,0.5c-1.9,1.8-2.4,4.4-2.7,7
				c-0.2,1.3,1.9,1.3,2.1,0c0.1-1.5,0.5-3,1.2-4.4v1.5l0,7.2v5.7c0,0.6,0.4,1.1,1,1.1c0,0,0,0,0,0c0.6,0,1.1-0.5,1.1-1.1v-8.1h1v8.2
				c0,0.6,0.5,1,1.1,1c0.5,0,1-0.4,1-1V92l0.1-7.2c0-0.7,0-1.3,0-1.7c0.7,1.4,1.2,3,1.3,4.5C10.1,88.9,12.1,88.9,12,87.6z"/>
		</g>
	</g>
	<g id="standing-frontal-man-silhouette-59" transform="translate(4700.855 1043.353)">
		<g id="Group_9150" transform="translate(0 0)">
			<ellipse id="Ellipse_6177" class="st0" cx="6" cy="77.1" rx="1.9" ry="1.9"/>
			<path id="Path_9651" class="st0" d="M12,87.6c-0.5-6.1-3.5-7.4-3.5-7.4c-1.9-1-4.1-0.8-5.8,0.5c-1.9,1.8-2.4,4.4-2.7,7
				c-0.2,1.3,1.9,1.3,2.1,0c0.1-1.5,0.5-3,1.2-4.4v1.5l0,7.2v5.7c0,0.6,0.4,1.1,1,1.1c0,0,0,0,0,0c0.6,0,1.1-0.5,1.1-1.1v-8.1h1v8.2
				c0,0.6,0.5,1,1.1,1c0.5,0,1-0.4,1-1V92l0.1-7.2c0-0.7,0-1.3,0-1.7c0.7,1.4,1.2,3,1.3,4.5C10.1,88.9,12.1,88.9,12,87.6z"/>
		</g>
	</g>
	<g id="standing-frontal-man-silhouette-60" transform="translate(4700.855 1119.16)">
		<g id="Group_9151" transform="translate(0 0)">
			<ellipse id="Ellipse_6178" class="st0" cx="6" cy="77.1" rx="1.9" ry="1.9"/>
			<path id="Path_9652" class="st0" d="M12,87.6c-0.5-6.1-3.5-7.4-3.5-7.4c-1.9-1-4.1-0.8-5.8,0.5c-1.9,1.8-2.4,4.4-2.7,7
				c-0.2,1.3,1.9,1.3,2.1,0c0.1-1.5,0.5-3,1.2-4.4v1.5l0,7.2v5.7c0,0.6,0.4,1.1,1,1.1c0,0,0,0,0,0c0.6,0,1.1-0.5,1.1-1.1v-8.1h1v8.2
				c0,0.6,0.5,1,1.1,1c0.5,0,1-0.4,1-1V92l0.1-7.2c0-0.7,0-1.3,0-1.7c0.7,1.4,1.2,3,1.3,4.5C10.1,88.9,12.1,88.9,12,87.6z"/>
		</g>
	</g>
	<g id="standing-frontal-man-silhouette-61" transform="translate(4700.855 1018.16)">
		<g id="Group_9152" transform="translate(0 0)">
			<ellipse id="Ellipse_6179" class="st0" cx="6" cy="77.1" rx="1.9" ry="1.9"/>
			<path id="Path_9653" class="st0" d="M12,87.6c-0.5-6.1-3.5-7.4-3.5-7.4c-1.9-1-4.1-0.8-5.8,0.5c-1.9,1.8-2.4,4.4-2.7,7
				c-0.2,1.3,1.9,1.3,2.1,0c0.1-1.5,0.5-3,1.2-4.4v1.5l0,7.2v5.7c0,0.6,0.4,1.1,1,1.1c0,0,0,0,0,0c0.6,0,1.1-0.5,1.1-1.1v-8.1h1v8.2
				c0,0.6,0.5,1,1.1,1c0.5,0,1-0.4,1-1V92l0.1-7.2c0-0.7,0-1.3,0-1.7c0.7,1.4,1.2,3,1.3,4.5C10.1,88.9,12.1,88.9,12,87.6z"/>
		</g>
	</g>
	<g id="standing-frontal-man-silhouette-62" transform="translate(4700.855 1169.545)">
		<g id="Group_9153" transform="translate(0 0)">
			<ellipse id="Ellipse_6180" class="st0" cx="6" cy="77.1" rx="1.9" ry="1.9"/>
			<path id="Path_9654" class="st0" d="M12,87.6c-0.5-6.1-3.5-7.4-3.5-7.4c-1.9-1-4.1-0.8-5.8,0.5c-1.9,1.8-2.4,4.4-2.7,7
				c-0.2,1.3,1.9,1.3,2.1,0c0.1-1.5,0.5-3,1.2-4.4v1.5l0,7.2v5.7c0,0.6,0.4,1.1,1,1.1c0,0,0,0,0,0c0.6,0,1.1-0.5,1.1-1.1v-8.1h1v8.2
				c0,0.6,0.5,1,1.1,1c0.5,0,1-0.4,1-1V92l0.1-7.2c0-0.7,0-1.3,0-1.7c0.7,1.4,1.2,3,1.3,4.5C10.1,88.9,12.1,88.9,12,87.6z"/>
		</g>
	</g>
	<g id="standing-frontal-man-silhouette-63" transform="translate(4700.855 1068.545)">
		<g id="Group_9154" transform="translate(0 0)">
			<ellipse id="Ellipse_6181" class="st0" cx="6" cy="77.1" rx="1.9" ry="1.9"/>
			<path id="Path_9655" class="st0" d="M12,87.6c-0.5-6.1-3.5-7.4-3.5-7.4c-1.9-1-4.1-0.8-5.8,0.5c-1.9,1.8-2.4,4.4-2.7,7
				c-0.2,1.3,1.9,1.3,2.1,0c0.1-1.5,0.5-3,1.2-4.4v1.5l0,7.2v5.7c0,0.6,0.4,1.1,1,1.1c0,0,0,0,0,0c0.6,0,1.1-0.5,1.1-1.1v-8.1h1v8.2
				c0,0.6,0.5,1,1.1,1c0.5,0,1-0.4,1-1V92l0.1-7.2c0-0.7,0-1.3,0-1.7c0.7,1.4,1.2,3,1.3,4.5C10.1,88.9,12.1,88.9,12,87.6z"/>
		</g>
	</g>
	<g id="standing-frontal-man-silhouette-64" transform="translate(4645.66 992.968)">
		<g id="Group_9155" transform="translate(0 0)">
			<ellipse id="Ellipse_6182" class="st0" cx="6" cy="77.1" rx="1.9" ry="1.9"/>
			<path id="Path_9656" class="st0" d="M12,87.6c-0.5-6.1-3.5-7.4-3.5-7.4c-1.9-1-4.1-0.8-5.8,0.5c-1.9,1.8-2.4,4.4-2.7,7
				c-0.2,1.3,1.9,1.3,2.1,0c0.1-1.5,0.5-3,1.2-4.4v1.5l0,7.2v5.7c0,0.6,0.4,1.1,1,1.1c0,0,0,0,0,0c0.6,0,1.1-0.5,1.1-1.1v-8.1h1v8.2
				c0,0.6,0.5,1,1.1,1c0.5,0,1-0.4,1-1V92l0.1-7.2c0-0.7,0-1.3,0-1.7c0.7,1.4,1.2,3,1.3,4.5C10.1,88.9,12.1,88.9,12,87.6z"/>
		</g>
	</g>
	<g id="standing-frontal-man-silhouette-65" transform="translate(4700.66 967.353)">
		<g id="Group_9156" transform="translate(0 0)">
			<ellipse id="Ellipse_6183" class="st0" cx="6" cy="77.1" rx="1.9" ry="1.9"/>
			<path id="Path_9657" class="st0" d="M12,87.6c-0.5-6.1-3.5-7.4-3.5-7.4c-1.9-1-4.1-0.8-5.8,0.5c-1.9,1.8-2.4,4.4-2.7,7
				c-0.2,1.3,1.9,1.3,2.1,0c0.1-1.5,0.5-3,1.2-4.4v1.5l0,7.2v5.7c0,0.6,0.4,1.1,1,1.1c0,0,0,0,0,0c0.6,0,1.1-0.5,1.1-1.1v-8.1h1v8.2
				c0,0.6,0.5,1,1.1,1c0.5,0,1-0.4,1-1V92l0.1-7.2c0-0.7,0-1.3,0-1.7c0.7,1.4,1.2,3,1.3,4.5C10.1,88.9,12.1,88.9,12,87.6z"/>
		</g>
	</g>
	<g id="standing-frontal-man-silhouette-66" transform="translate(4645.66 942.353)">
		<g id="Group_9157" transform="translate(0 0)">
			<ellipse id="Ellipse_6184" class="st0" cx="6" cy="77.1" rx="1.9" ry="1.9"/>
			<path id="Path_9658" class="st0" d="M12,87.6c-0.5-6.1-3.5-7.4-3.5-7.4c-1.9-1-4.1-0.8-5.8,0.5c-1.9,1.8-2.4,4.4-2.7,7
				c-0.2,1.3,1.9,1.3,2.1,0c0.1-1.5,0.5-3,1.2-4.4v1.5l0,7.2v5.7c0,0.6,0.4,1.1,1,1.1c0,0,0,0,0,0c0.6,0,1.1-0.5,1.1-1.1v-8.1h1v8.2
				c0,0.6,0.5,1,1.1,1c0.5,0,1-0.4,1-1V92l0.1-7.2c0-0.7,0-1.3,0-1.7c0.7,1.4,1.2,3,1.3,4.5C10.1,88.9,12.1,88.9,12,87.6z"/>
		</g>
	</g>
	<g id="standing-frontal-man-silhouette-67" transform="translate(4700.66 942.16)">
		<g id="Group_9158" transform="translate(0 0)">
			<ellipse id="Ellipse_6185" class="st0" cx="6" cy="77.1" rx="1.9" ry="1.9"/>
			<path id="Path_9659" class="st0" d="M12,87.6c-0.5-6.1-3.5-7.4-3.5-7.4c-1.9-1-4.1-0.8-5.8,0.5c-1.9,1.8-2.4,4.4-2.7,7
				c-0.2,1.3,1.9,1.3,2.1,0c0.1-1.5,0.5-3,1.2-4.4v1.5l0,7.2v5.7c0,0.6,0.4,1.1,1,1.1c0,0,0,0,0,0c0.6,0,1.1-0.5,1.1-1.1v-8.1h1v8.2
				c0,0.6,0.5,1,1.1,1c0.5,0,1-0.4,1-1V92l0.1-7.2c0-0.7,0-1.3,0-1.7c0.7,1.4,1.2,3,1.3,4.5C10.1,88.9,12.1,88.9,12,87.6z"/>
		</g>
	</g>
	<g id="standing-frontal-man-silhouette-68" transform="translate(4700.66 992.545)">
		<g id="Group_9159" transform="translate(0 0)">
			<ellipse id="Ellipse_6186" class="st0" cx="6" cy="77.1" rx="1.9" ry="1.9"/>
			<path id="Path_9660" class="st0" d="M12,87.6c-0.5-6.1-3.5-7.4-3.5-7.4c-1.9-1-4.1-0.8-5.8,0.5c-1.9,1.8-2.4,4.4-2.7,7
				c-0.2,1.3,1.9,1.3,2.1,0c0.1-1.5,0.5-3,1.2-4.4v1.5l0,7.2v5.7c0,0.6,0.4,1.1,1,1.1c0,0,0,0,0,0c0.6,0,1.1-0.5,1.1-1.1v-8.1h1v8.2
				c0,0.6,0.5,1,1.1,1c0.5,0,1-0.4,1-1V92l0.1-7.2c0-0.7,0-1.3,0-1.7c0.7,1.4,1.2,3,1.3,4.5C10.1,88.9,12.1,88.9,12,87.6z"/>
		</g>
	</g>
	<g id="standing-frontal-man-silhouette-69" transform="translate(4645.66 967.545)">
		<g id="Group_9160" transform="translate(0 0)">
			<ellipse id="Ellipse_6187" class="st0" cx="6" cy="77.1" rx="1.9" ry="1.9"/>
			<path id="Path_9661" class="st0" d="M12,87.6c-0.5-6.1-3.5-7.4-3.5-7.4c-1.9-1-4.1-0.8-5.8,0.5c-1.9,1.8-2.4,4.4-2.7,7
				c-0.2,1.3,1.9,1.3,2.1,0c0.1-1.5,0.5-3,1.2-4.4v1.5l0,7.2v5.7c0,0.6,0.4,1.1,1,1.1c0,0,0,0,0,0c0.6,0,1.1-0.5,1.1-1.1v-8.1h1v8.2
				c0,0.6,0.5,1,1.1,1c0.5,0,1-0.4,1-1V92l0.1-7.2c0-0.7,0-1.3,0-1.7c0.7,1.4,1.2,3,1.3,4.5C10.1,88.9,12.1,88.9,12,87.6z"/>
		</g>
	</g>
	<g id="standing-frontal-man-silhouette-70" transform="translate(4632.744 1270.968)">
		<g id="Group_9161" transform="translate(0 0)">
			<ellipse id="Ellipse_6188" class="st0" cx="6" cy="77.1" rx="1.9" ry="1.9"/>
			<path id="Path_9662" class="st0" d="M12,87.6c-0.5-6.1-3.5-7.4-3.5-7.4c-1.9-1-4.1-0.8-5.8,0.5c-1.9,1.8-2.4,4.4-2.7,7
				c-0.2,1.3,1.9,1.3,2.1,0c0.1-1.5,0.5-3,1.2-4.4v1.5l0,7.2v5.7c0,0.6,0.4,1.1,1,1.1c0,0,0,0,0,0c0.6,0,1.1-0.5,1.1-1.1v-8.1h1v8.2
				c0,0.6,0.5,1,1.1,1c0.5,0,1-0.4,1-1V92l0.1-7.2c0-0.7,0-1.3,0-1.7c0.7,1.4,1.2,3,1.3,4.5C10.1,88.9,12.1,88.9,12,87.6z"/>
		</g>
	</g>
	<g id="standing-frontal-man-silhouette-71" transform="translate(4632.744 1321.353)">
		<g id="Group_9162" transform="translate(0 0)">
			<ellipse id="Ellipse_6189" class="st0" cx="6" cy="77.1" rx="1.9" ry="1.9"/>
			<path id="Path_9663" class="st0" d="M12,87.6c-0.5-6.1-3.5-7.4-3.5-7.4c-1.9-1-4.1-0.8-5.8,0.5c-1.9,1.8-2.4,4.4-2.7,7
				c-0.2,1.3,1.9,1.3,2.1,0c0.1-1.5,0.5-3,1.2-4.4v1.5l0,7.2v5.7c0,0.6,0.4,1.1,1,1.1c0,0,0,0,0,0c0.6,0,1.1-0.5,1.1-1.1v-8.1h1v8.2
				c0,0.6,0.5,1,1.1,1c0.5,0,1-0.4,1-1V92l0.1-7.2c0-0.7,0-1.3,0-1.7c0.7,1.4,1.2,3,1.3,4.5C10.1,88.9,12.1,88.9,12,87.6z"/>
		</g>
	</g>
	<g id="standing-frontal-man-silhouette-72" transform="translate(4632.744 1220.353)">
		<g id="Group_9163" transform="translate(0 0)">
			<ellipse id="Ellipse_6190" class="st0" cx="6" cy="77.1" rx="1.9" ry="1.9"/>
			<path id="Path_9664" class="st0" d="M12,87.6c-0.5-6.1-3.5-7.4-3.5-7.4c-1.9-1-4.1-0.8-5.8,0.5c-1.9,1.8-2.4,4.4-2.7,7
				c-0.2,1.3,1.9,1.3,2.1,0c0.1-1.5,0.5-3,1.2-4.4v1.5l0,7.2v5.7c0,0.6,0.4,1.1,1,1.1c0,0,0,0,0,0c0.6,0,1.1-0.5,1.1-1.1v-8.1h1v8.2
				c0,0.6,0.5,1,1.1,1c0.5,0,1-0.4,1-1V92l0.1-7.2c0-0.7,0-1.3,0-1.7c0.7,1.4,1.2,3,1.3,4.5C10.1,88.9,12.1,88.9,12,87.6z"/>
		</g>
	</g>
	<g id="standing-frontal-man-silhouette-73" transform="translate(4632.744 1296.16)">
		<g id="Group_9164" transform="translate(0 0)">
			<ellipse id="Ellipse_6191" class="st0" cx="6" cy="77.1" rx="1.9" ry="1.9"/>
			<path id="Path_9665" class="st0" d="M12,87.6c-0.5-6.1-3.5-7.4-3.5-7.4c-1.9-1-4.1-0.8-5.8,0.5c-1.9,1.8-2.4,4.4-2.7,7
				c-0.2,1.3,1.9,1.3,2.1,0c0.1-1.5,0.5-3,1.2-4.4v1.5l0,7.2v5.7c0,0.6,0.4,1.1,1,1.1c0,0,0,0,0,0c0.6,0,1.1-0.5,1.1-1.1v-8.1h1v8.2
				c0,0.6,0.5,1,1.1,1c0.5,0,1-0.4,1-1V92l0.1-7.2c0-0.7,0-1.3,0-1.7c0.7,1.4,1.2,3,1.3,4.5C10.1,88.9,12.1,88.9,12,87.6z"/>
		</g>
	</g>
	<g id="standing-frontal-man-silhouette-74" transform="translate(4632.744 1195.16)">
		<g id="Group_9165" transform="translate(0 0)">
			<ellipse id="Ellipse_6192" class="st0" cx="6" cy="77.1" rx="1.9" ry="1.9"/>
			<path id="Path_9666" class="st0" d="M12,87.6c-0.5-6.1-3.5-7.4-3.5-7.4c-1.9-1-4.1-0.8-5.8,0.5c-1.9,1.8-2.4,4.4-2.7,7
				c-0.2,1.3,1.9,1.3,2.1,0c0.1-1.5,0.5-3,1.2-4.4v1.5l0,7.2v5.7c0,0.6,0.4,1.1,1,1.1c0,0,0,0,0,0c0.6,0,1.1-0.5,1.1-1.1v-8.1h1v8.2
				c0,0.6,0.5,1,1.1,1c0.5,0,1-0.4,1-1V92l0.1-7.2c0-0.7,0-1.3,0-1.7c0.7,1.4,1.2,3,1.3,4.5C10.1,88.9,12.1,88.9,12,87.6z"/>
		</g>
	</g>
	<g id="standing-frontal-man-silhouette-75" transform="translate(4632.744 1346.545)">
		<g id="Group_9166" transform="translate(0 0)">
			<ellipse id="Ellipse_6193" class="st0" cx="6" cy="77.1" rx="1.9" ry="1.9"/>
			<path id="Path_9667" class="st0" d="M12,87.6c-0.5-6.1-3.5-7.4-3.5-7.4c-1.9-1-4.1-0.8-5.8,0.5c-1.9,1.8-2.4,4.4-2.7,7
				c-0.2,1.3,1.9,1.3,2.1,0c0.1-1.5,0.5-3,1.2-4.4v1.5l0,7.2v5.7c0,0.6,0.4,1.1,1,1.1c0,0,0,0,0,0c0.6,0,1.1-0.5,1.1-1.1v-8.1h1v8.2
				c0,0.6,0.5,1,1.1,1c0.5,0,1-0.4,1-1V92l0.1-7.2c0-0.7,0-1.3,0-1.7c0.7,1.4,1.2,3,1.3,4.5C10.1,88.9,12.1,88.9,12,87.6z"/>
		</g>
	</g>
	<g id="standing-frontal-man-silhouette-76" transform="translate(4632.744 1245.545)">
		<g id="Group_9167" transform="translate(0 0)">
			<ellipse id="Ellipse_6194" class="st0" cx="6" cy="77.1" rx="1.9" ry="1.9"/>
			<path id="Path_9668" class="st0" d="M12,87.6c-0.5-6.1-3.5-7.4-3.5-7.4c-1.9-1-4.1-0.8-5.8,0.5c-1.9,1.8-2.4,4.4-2.7,7
				c-0.2,1.3,1.9,1.3,2.1,0c0.1-1.5,0.5-3,1.2-4.4v1.5l0,7.2v5.7c0,0.6,0.4,1.1,1,1.1c0,0,0,0,0,0c0.6,0,1.1-0.5,1.1-1.1v-8.1h1v8.2
				c0,0.6,0.5,1,1.1,1c0.5,0,1-0.4,1-1V92l0.1-7.2c0-0.7,0-1.3,0-1.7c0.7,1.4,1.2,3,1.3,4.5C10.1,88.9,12.1,88.9,12,87.6z"/>
		</g>
	</g>
	<g id="standing-frontal-man-silhouette-77" transform="translate(4632.352 1093.968)">
		<g id="Group_9168" transform="translate(0 0)">
			<ellipse id="Ellipse_6195" class="st0" cx="6" cy="77.1" rx="1.9" ry="1.9"/>
			<path id="Path_9669" class="st0" d="M12,87.6c-0.5-6.1-3.5-7.4-3.5-7.4c-1.9-1-4.1-0.8-5.8,0.5c-1.9,1.8-2.4,4.4-2.7,7
				c-0.2,1.3,1.9,1.3,2.1,0c0.1-1.5,0.5-3,1.2-4.4v1.5l0,7.2v5.7c0,0.6,0.4,1.1,1,1.1c0,0,0,0,0,0c0.6,0,1.1-0.5,1.1-1.1v-8.1h1v8.2
				c0,0.6,0.5,1,1.1,1c0.5,0,1-0.4,1-1V92l0.1-7.2c0-0.7,0-1.3,0-1.7c0.7,1.4,1.2,3,1.3,4.5C10.1,88.9,12.1,88.9,12,87.6z"/>
		</g>
	</g>
	<g id="standing-frontal-man-silhouette-78" transform="translate(4632.352 1144.353)">
		<g id="Group_9169" transform="translate(0 0)">
			<ellipse id="Ellipse_6196" class="st0" cx="6" cy="77.1" rx="1.9" ry="1.9"/>
			<path id="Path_9670" class="st0" d="M12,87.6c-0.5-6.1-3.5-7.4-3.5-7.4c-1.9-1-4.1-0.8-5.8,0.5c-1.9,1.8-2.4,4.4-2.7,7
				c-0.2,1.3,1.9,1.3,2.1,0c0.1-1.5,0.5-3,1.2-4.4v1.5l0,7.2v5.7c0,0.6,0.4,1.1,1,1.1c0,0,0,0,0,0c0.6,0,1.1-0.5,1.1-1.1v-8.1h1v8.2
				c0,0.6,0.5,1,1.1,1c0.5,0,1-0.4,1-1V92l0.1-7.2c0-0.7,0-1.3,0-1.7c0.7,1.4,1.2,3,1.3,4.5C10.1,88.9,12.1,88.9,12,87.6z"/>
		</g>
	</g>
	<g id="standing-frontal-man-silhouette-79" transform="translate(4632.352 1043.353)">
		<g id="Group_9170" transform="translate(0 0)">
			<ellipse id="Ellipse_6197" class="st0" cx="6" cy="77.1" rx="1.9" ry="1.9"/>
			<path id="Path_9671" class="st0" d="M12,87.6c-0.5-6.1-3.5-7.4-3.5-7.4c-1.9-1-4.1-0.8-5.8,0.5c-1.9,1.8-2.4,4.4-2.7,7
				c-0.2,1.3,1.9,1.3,2.1,0c0.1-1.5,0.5-3,1.2-4.4v1.5l0,7.2v5.7c0,0.6,0.4,1.1,1,1.1c0,0,0,0,0,0c0.6,0,1.1-0.5,1.1-1.1v-8.1h1v8.2
				c0,0.6,0.5,1,1.1,1c0.5,0,1-0.4,1-1V92l0.1-7.2c0-0.7,0-1.3,0-1.7c0.7,1.4,1.2,3,1.3,4.5C10.1,88.9,12.1,88.9,12,87.6z"/>
		</g>
	</g>
	<g id="standing-frontal-man-silhouette-80" transform="translate(4632.352 1119.16)">
		<g id="Group_9171" transform="translate(0 0)">
			<ellipse id="Ellipse_6198" class="st0" cx="6" cy="77.1" rx="1.9" ry="1.9"/>
			<path id="Path_9672" class="st0" d="M12,87.6c-0.5-6.1-3.5-7.4-3.5-7.4c-1.9-1-4.1-0.8-5.8,0.5c-1.9,1.8-2.4,4.4-2.7,7
				c-0.2,1.3,1.9,1.3,2.1,0c0.1-1.5,0.5-3,1.2-4.4v1.5l0,7.2v5.7c0,0.6,0.4,1.1,1,1.1c0,0,0,0,0,0c0.6,0,1.1-0.5,1.1-1.1v-8.1h1v8.2
				c0,0.6,0.5,1,1.1,1c0.5,0,1-0.4,1-1V92l0.1-7.2c0-0.7,0-1.3,0-1.7c0.7,1.4,1.2,3,1.3,4.5C10.1,88.9,12.1,88.9,12,87.6z"/>
		</g>
	</g>
	<g id="standing-frontal-man-silhouette-81" transform="translate(4632.352 1018.16)">
		<g id="Group_9172" transform="translate(0 0)">
			<ellipse id="Ellipse_6199" class="st0" cx="6" cy="77.1" rx="1.9" ry="1.9"/>
			<path id="Path_9673" class="st0" d="M12,87.6c-0.5-6.1-3.5-7.4-3.5-7.4c-1.9-1-4.1-0.8-5.8,0.5c-1.9,1.8-2.4,4.4-2.7,7
				c-0.2,1.3,1.9,1.3,2.1,0c0.1-1.5,0.5-3,1.2-4.4v1.5l0,7.2v5.7c0,0.6,0.4,1.1,1,1.1c0,0,0,0,0,0c0.6,0,1.1-0.5,1.1-1.1v-8.1h1v8.2
				c0,0.6,0.5,1,1.1,1c0.5,0,1-0.4,1-1V92l0.1-7.2c0-0.7,0-1.3,0-1.7c0.7,1.4,1.2,3,1.3,4.5C10.1,88.9,12.1,88.9,12,87.6z"/>
		</g>
	</g>
	<g id="standing-frontal-man-silhouette-82" transform="translate(4632.352 1169.545)">
		<g id="Group_9173" transform="translate(0 0)">
			<ellipse id="Ellipse_6200" class="st0" cx="6" cy="77.1" rx="1.9" ry="1.9"/>
			<path id="Path_9674" class="st0" d="M12,87.6c-0.5-6.1-3.5-7.4-3.5-7.4c-1.9-1-4.1-0.8-5.8,0.5c-1.9,1.8-2.4,4.4-2.7,7
				c-0.2,1.3,1.9,1.3,2.1,0c0.1-1.5,0.5-3,1.2-4.4v1.5l0,7.2v5.7c0,0.6,0.4,1.1,1,1.1c0,0,0,0,0,0c0.6,0,1.1-0.5,1.1-1.1v-8.1h1v8.2
				c0,0.6,0.5,1,1.1,1c0.5,0,1-0.4,1-1V92l0.1-7.2c0-0.7,0-1.3,0-1.7c0.7,1.4,1.2,3,1.3,4.5C10.1,88.9,12.1,88.9,12,87.6z"/>
		</g>
	</g>
	<g id="standing-frontal-man-silhouette-83" transform="translate(4632.352 1068.545)">
		<g id="Group_9174" transform="translate(0 0)">
			<ellipse id="Ellipse_6201" class="st0" cx="6" cy="77.1" rx="1.9" ry="1.9"/>
			<path id="Path_9675" class="st0" d="M12,87.6c-0.5-6.1-3.5-7.4-3.5-7.4c-1.9-1-4.1-0.8-5.8,0.5c-1.9,1.8-2.4,4.4-2.7,7
				c-0.2,1.3,1.9,1.3,2.1,0c0.1-1.5,0.5-3,1.2-4.4v1.5l0,7.2v5.7c0,0.6,0.4,1.1,1,1.1c0,0,0,0,0,0c0.6,0,1.1-0.5,1.1-1.1v-8.1h1v8.2
				c0,0.6,0.5,1,1.1,1c0.5,0,1-0.4,1-1V92l0.1-7.2c0-0.7,0-1.3,0-1.7c0.7,1.4,1.2,3,1.3,4.5C10.1,88.9,12.1,88.9,12,87.6z"/>
		</g>
	</g>
	<g id="standing-frontal-man-silhouette-84" transform="translate(4687.547 1270.968)">
		<g id="Group_9175" transform="translate(0 0)">
			<ellipse id="Ellipse_6202" class="st0" cx="6" cy="77.1" rx="1.9" ry="1.9"/>
			<path id="Path_9676" class="st0" d="M12,87.6c-0.5-6.1-3.5-7.4-3.5-7.4c-1.9-1-4.1-0.8-5.8,0.5c-1.9,1.8-2.4,4.4-2.7,7
				c-0.2,1.3,1.9,1.3,2.1,0c0.1-1.5,0.5-3,1.2-4.4v1.5l0,7.2v5.7c0,0.6,0.4,1.1,1,1.1c0,0,0,0,0,0c0.6,0,1.1-0.5,1.1-1.1v-8.1h1v8.2
				c0,0.6,0.5,1,1.1,1c0.5,0,1-0.4,1-1V92l0.1-7.2c0-0.7,0-1.3,0-1.7c0.7,1.4,1.2,3,1.3,4.5C10.1,88.9,12.1,88.9,12,87.6z"/>
		</g>
	</g>
	<g id="standing-frontal-man-silhouette-85" transform="translate(4687.547 1321.353)">
		<g id="Group_9176" transform="translate(0 0)">
			<ellipse id="Ellipse_6203" class="st0" cx="6" cy="77.1" rx="1.9" ry="1.9"/>
			<path id="Path_9677" class="st0" d="M12,87.6c-0.5-6.1-3.5-7.4-3.5-7.4c-1.9-1-4.1-0.8-5.8,0.5c-1.9,1.8-2.4,4.4-2.7,7
				c-0.2,1.3,1.9,1.3,2.1,0c0.1-1.5,0.5-3,1.2-4.4v1.5l0,7.2v5.7c0,0.6,0.4,1.1,1,1.1c0,0,0,0,0,0c0.6,0,1.1-0.5,1.1-1.1v-8.1h1v8.2
				c0,0.6,0.5,1,1.1,1c0.5,0,1-0.4,1-1V92l0.1-7.2c0-0.7,0-1.3,0-1.7c0.7,1.4,1.2,3,1.3,4.5C10.1,88.9,12.1,88.9,12,87.6z"/>
		</g>
	</g>
	<g id="standing-frontal-man-silhouette-86" transform="translate(4687.547 1220.353)">
		<g id="Group_9177" transform="translate(0 0)">
			<ellipse id="Ellipse_6204" class="st0" cx="6" cy="77.1" rx="1.9" ry="1.9"/>
			<path id="Path_9678" class="st0" d="M12,87.6c-0.5-6.1-3.5-7.4-3.5-7.4c-1.9-1-4.1-0.8-5.8,0.5c-1.9,1.8-2.4,4.4-2.7,7
				c-0.2,1.3,1.9,1.3,2.1,0c0.1-1.5,0.5-3,1.2-4.4v1.5l0,7.2v5.7c0,0.6,0.4,1.1,1,1.1c0,0,0,0,0,0c0.6,0,1.1-0.5,1.1-1.1v-8.1h1v8.2
				c0,0.6,0.5,1,1.1,1c0.5,0,1-0.4,1-1V92l0.1-7.2c0-0.7,0-1.3,0-1.7c0.7,1.4,1.2,3,1.3,4.5C10.1,88.9,12.1,88.9,12,87.6z"/>
		</g>
	</g>
	<g id="standing-frontal-man-silhouette-87" transform="translate(4687.547 1296.16)">
		<g id="Group_9178" transform="translate(0 0)">
			<ellipse id="Ellipse_6205" class="st0" cx="6" cy="77.1" rx="1.9" ry="1.9"/>
			<path id="Path_9679" class="st0" d="M12,87.6c-0.5-6.1-3.5-7.4-3.5-7.4c-1.9-1-4.1-0.8-5.8,0.5c-1.9,1.8-2.4,4.4-2.7,7
				c-0.2,1.3,1.9,1.3,2.1,0c0.1-1.5,0.5-3,1.2-4.4v1.5l0,7.2v5.7c0,0.6,0.4,1.1,1,1.1c0,0,0,0,0,0c0.6,0,1.1-0.5,1.1-1.1v-8.1h1v8.2
				c0,0.6,0.5,1,1.1,1c0.5,0,1-0.4,1-1V92l0.1-7.2c0-0.7,0-1.3,0-1.7c0.7,1.4,1.2,3,1.3,4.5C10.1,88.9,12.1,88.9,12,87.6z"/>
		</g>
	</g>
	<g id="standing-frontal-man-silhouette-88" transform="translate(4687.547 1195.16)">
		<g id="Group_9179" transform="translate(0 0)">
			<ellipse id="Ellipse_6206" class="st0" cx="6" cy="77.1" rx="1.9" ry="1.9"/>
			<path id="Path_9680" class="st0" d="M12,87.6c-0.5-6.1-3.5-7.4-3.5-7.4c-1.9-1-4.1-0.8-5.8,0.5c-1.9,1.8-2.4,4.4-2.7,7
				c-0.2,1.3,1.9,1.3,2.1,0c0.1-1.5,0.5-3,1.2-4.4v1.5l0,7.2v5.7c0,0.6,0.4,1.1,1,1.1c0,0,0,0,0,0c0.6,0,1.1-0.5,1.1-1.1v-8.1h1v8.2
				c0,0.6,0.5,1,1.1,1c0.5,0,1-0.4,1-1V92l0.1-7.2c0-0.7,0-1.3,0-1.7c0.7,1.4,1.2,3,1.3,4.5C10.1,88.9,12.1,88.9,12,87.6z"/>
		</g>
	</g>
	<g id="standing-frontal-man-silhouette-89" transform="translate(4687.547 1346.545)">
		<g id="Group_9180" transform="translate(0 0)">
			<ellipse id="Ellipse_6207" class="st0" cx="6" cy="77.1" rx="1.9" ry="1.9"/>
			<path id="Path_9681" class="st0" d="M12,87.6c-0.5-6.1-3.5-7.4-3.5-7.4c-1.9-1-4.1-0.8-5.8,0.5c-1.9,1.8-2.4,4.4-2.7,7
				c-0.2,1.3,1.9,1.3,2.1,0c0.1-1.5,0.5-3,1.2-4.4v1.5l0,7.2v5.7c0,0.6,0.4,1.1,1,1.1c0,0,0,0,0,0c0.6,0,1.1-0.5,1.1-1.1v-8.1h1v8.2
				c0,0.6,0.5,1,1.1,1c0.5,0,1-0.4,1-1V92l0.1-7.2c0-0.7,0-1.3,0-1.7c0.7,1.4,1.2,3,1.3,4.5C10.1,88.9,12.1,88.9,12,87.6z"/>
		</g>
	</g>
	<g id="standing-frontal-man-silhouette-90" transform="translate(4687.547 1245.545)">
		<g id="Group_9181" transform="translate(0 0)">
			<ellipse id="Ellipse_6208" class="st0" cx="6" cy="77.1" rx="1.9" ry="1.9"/>
			<path id="Path_9682" class="st0" d="M12,87.6c-0.5-6.1-3.5-7.4-3.5-7.4c-1.9-1-4.1-0.8-5.8,0.5c-1.9,1.8-2.4,4.4-2.7,7
				c-0.2,1.3,1.9,1.3,2.1,0c0.1-1.5,0.5-3,1.2-4.4v1.5l0,7.2v5.7c0,0.6,0.4,1.1,1,1.1c0,0,0,0,0,0c0.6,0,1.1-0.5,1.1-1.1v-8.1h1v8.2
				c0,0.6,0.5,1,1.1,1c0.5,0,1-0.4,1-1V92l0.1-7.2c0-0.7,0-1.3,0-1.7c0.7,1.4,1.2,3,1.3,4.5C10.1,88.9,12.1,88.9,12,87.6z"/>
		</g>
	</g>
	<g id="standing-frontal-man-silhouette-91" transform="translate(4687.156 1093.968)">
		<g id="Group_9182" transform="translate(0 0)">
			<ellipse id="Ellipse_6209" class="st0" cx="6" cy="77.1" rx="1.9" ry="1.9"/>
			<path id="Path_9683" class="st0" d="M12,87.6c-0.5-6.1-3.5-7.4-3.5-7.4c-1.9-1-4.1-0.8-5.8,0.5c-1.9,1.8-2.4,4.4-2.7,7
				c-0.2,1.3,1.9,1.3,2.1,0c0.1-1.5,0.5-3,1.2-4.4v1.5l0,7.2v5.7c0,0.6,0.4,1.1,1,1.1c0,0,0,0,0,0c0.6,0,1.1-0.5,1.1-1.1v-8.1h1v8.2
				c0,0.6,0.5,1,1.1,1c0.5,0,1-0.4,1-1V92l0.1-7.2c0-0.7,0-1.3,0-1.7c0.7,1.4,1.2,3,1.3,4.5C10.1,88.9,12.1,88.9,12,87.6z"/>
		</g>
	</g>
	<g id="standing-frontal-man-silhouette-92" transform="translate(4687.156 1144.353)">
		<g id="Group_9183" transform="translate(0 0)">
			<ellipse id="Ellipse_6210" class="st0" cx="6" cy="77.1" rx="1.9" ry="1.9"/>
			<path id="Path_9684" class="st0" d="M12,87.6c-0.5-6.1-3.5-7.4-3.5-7.4c-1.9-1-4.1-0.8-5.8,0.5c-1.9,1.8-2.4,4.4-2.7,7
				c-0.2,1.3,1.9,1.3,2.1,0c0.1-1.5,0.5-3,1.2-4.4v1.5l0,7.2v5.7c0,0.6,0.4,1.1,1,1.1c0,0,0,0,0,0c0.6,0,1.1-0.5,1.1-1.1v-8.1h1v8.2
				c0,0.6,0.5,1,1.1,1c0.5,0,1-0.4,1-1V92l0.1-7.2c0-0.7,0-1.3,0-1.7c0.7,1.4,1.2,3,1.3,4.5C10.1,88.9,12.1,88.9,12,87.6z"/>
		</g>
	</g>
	<g id="standing-frontal-man-silhouette-93" transform="translate(4687.156 1043.353)">
		<g id="Group_9184" transform="translate(0 0)">
			<ellipse id="Ellipse_6211" class="st0" cx="6" cy="77.1" rx="1.9" ry="1.9"/>
			<path id="Path_9685" class="st0" d="M12,87.6c-0.5-6.1-3.5-7.4-3.5-7.4c-1.9-1-4.1-0.8-5.8,0.5c-1.9,1.8-2.4,4.4-2.7,7
				c-0.2,1.3,1.9,1.3,2.1,0c0.1-1.5,0.5-3,1.2-4.4v1.5l0,7.2v5.7c0,0.6,0.4,1.1,1,1.1c0,0,0,0,0,0c0.6,0,1.1-0.5,1.1-1.1v-8.1h1v8.2
				c0,0.6,0.5,1,1.1,1c0.5,0,1-0.4,1-1V92l0.1-7.2c0-0.7,0-1.3,0-1.7c0.7,1.4,1.2,3,1.3,4.5C10.1,88.9,12.1,88.9,12,87.6z"/>
		</g>
	</g>
	<g id="standing-frontal-man-silhouette-94" transform="translate(4687.156 1119.16)">
		<g id="Group_9185" transform="translate(0 0)">
			<ellipse id="Ellipse_6212" class="st0" cx="6" cy="77.1" rx="1.9" ry="1.9"/>
			<path id="Path_9686" class="st0" d="M12,87.6c-0.5-6.1-3.5-7.4-3.5-7.4c-1.9-1-4.1-0.8-5.8,0.5c-1.9,1.8-2.4,4.4-2.7,7
				c-0.2,1.3,1.9,1.3,2.1,0c0.1-1.5,0.5-3,1.2-4.4v1.5l0,7.2v5.7c0,0.6,0.4,1.1,1,1.1c0,0,0,0,0,0c0.6,0,1.1-0.5,1.1-1.1v-8.1h1v8.2
				c0,0.6,0.5,1,1.1,1c0.5,0,1-0.4,1-1V92l0.1-7.2c0-0.7,0-1.3,0-1.7c0.7,1.4,1.2,3,1.3,4.5C10.1,88.9,12.1,88.9,12,87.6z"/>
		</g>
	</g>
	<g id="standing-frontal-man-silhouette-95" transform="translate(4687.156 1018.16)">
		<g id="Group_9186" transform="translate(0 0)">
			<ellipse id="Ellipse_6213" class="st0" cx="6" cy="77.1" rx="1.9" ry="1.9"/>
			<path id="Path_9687" class="st0" d="M12,87.6c-0.5-6.1-3.5-7.4-3.5-7.4c-1.9-1-4.1-0.8-5.8,0.5c-1.9,1.8-2.4,4.4-2.7,7
				c-0.2,1.3,1.9,1.3,2.1,0c0.1-1.5,0.5-3,1.2-4.4v1.5l0,7.2v5.7c0,0.6,0.4,1.1,1,1.1c0,0,0,0,0,0c0.6,0,1.1-0.5,1.1-1.1v-8.1h1v8.2
				c0,0.6,0.5,1,1.1,1c0.5,0,1-0.4,1-1V92l0.1-7.2c0-0.7,0-1.3,0-1.7c0.7,1.4,1.2,3,1.3,4.5C10.1,88.9,12.1,88.9,12,87.6z"/>
		</g>
	</g>
	<g id="standing-frontal-man-silhouette-96" transform="translate(4687.156 1169.545)">
		<g id="Group_9187" transform="translate(0 0)">
			<ellipse id="Ellipse_6214" class="st0" cx="6" cy="77.1" rx="1.9" ry="1.9"/>
			<path id="Path_9688" class="st0" d="M12,87.6c-0.5-6.1-3.5-7.4-3.5-7.4c-1.9-1-4.1-0.8-5.8,0.5c-1.9,1.8-2.4,4.4-2.7,7
				c-0.2,1.3,1.9,1.3,2.1,0c0.1-1.5,0.5-3,1.2-4.4v1.5l0,7.2v5.7c0,0.6,0.4,1.1,1,1.1c0,0,0,0,0,0c0.6,0,1.1-0.5,1.1-1.1v-8.1h1v8.2
				c0,0.6,0.5,1,1.1,1c0.5,0,1-0.4,1-1V92l0.1-7.2c0-0.7,0-1.3,0-1.7c0.7,1.4,1.2,3,1.3,4.5C10.1,88.9,12.1,88.9,12,87.6z"/>
		</g>
	</g>
	<g id="standing-frontal-man-silhouette-97" transform="translate(4687.156 1068.545)">
		<g id="Group_9188" transform="translate(0 0)">
			<ellipse id="Ellipse_6215" class="st0" cx="6" cy="77.1" rx="1.9" ry="1.9"/>
			<path id="Path_9689" class="st0" d="M12,87.6c-0.5-6.1-3.5-7.4-3.5-7.4c-1.9-1-4.1-0.8-5.8,0.5c-1.9,1.8-2.4,4.4-2.7,7
				c-0.2,1.3,1.9,1.3,2.1,0c0.1-1.5,0.5-3,1.2-4.4v1.5l0,7.2v5.7c0,0.6,0.4,1.1,1,1.1c0,0,0,0,0,0c0.6,0,1.1-0.5,1.1-1.1v-8.1h1v8.2
				c0,0.6,0.5,1,1.1,1c0.5,0,1-0.4,1-1V92l0.1-7.2c0-0.7,0-1.3,0-1.7c0.7,1.4,1.2,3,1.3,4.5C10.1,88.9,12.1,88.9,12,87.6z"/>
		</g>
	</g>
	<g id="standing-frontal-man-silhouette-98" transform="translate(4631.959 992.968)">
		<g id="Group_9189" transform="translate(0 0)">
			<ellipse id="Ellipse_6216" class="st0" cx="6" cy="77.1" rx="1.9" ry="1.9"/>
			<path id="Path_9690" class="st0" d="M12,87.6c-0.5-6.1-3.5-7.4-3.5-7.4c-1.9-1-4.1-0.8-5.8,0.5c-1.9,1.8-2.4,4.4-2.7,7
				c-0.2,1.3,1.9,1.3,2.1,0c0.1-1.5,0.5-3,1.2-4.4v1.5l0,7.2v5.7c0,0.6,0.4,1.1,1,1.1c0,0,0,0,0,0c0.6,0,1.1-0.5,1.1-1.1v-8.1h1v8.2
				c0,0.6,0.5,1,1.1,1c0.5,0,1-0.4,1-1V92l0.1-7.2c0-0.7,0-1.3,0-1.7c0.7,1.4,1.2,3,1.3,4.5C10.1,88.9,12.1,88.9,12,87.6z"/>
		</g>
	</g>
	<g id="standing-frontal-man-silhouette-99" transform="translate(4686.959 967.353)">
		<g id="Group_9190" transform="translate(0 0)">
			<ellipse id="Ellipse_6217" class="st0" cx="6" cy="77.1" rx="1.9" ry="1.9"/>
			<path id="Path_9691" class="st0" d="M12,87.6c-0.5-6.1-3.5-7.4-3.5-7.4c-1.9-1-4.1-0.8-5.8,0.5c-1.9,1.8-2.4,4.4-2.7,7
				c-0.2,1.3,1.9,1.3,2.1,0c0.1-1.5,0.5-3,1.2-4.4v1.5l0,7.2v5.7c0,0.6,0.4,1.1,1,1.1c0,0,0,0,0,0c0.6,0,1.1-0.5,1.1-1.1v-8.1h1v8.2
				c0,0.6,0.5,1,1.1,1c0.5,0,1-0.4,1-1V92l0.1-7.2c0-0.7,0-1.3,0-1.7c0.7,1.4,1.2,3,1.3,4.5C10.1,88.9,12.1,88.9,12,87.6z"/>
		</g>
	</g>
	<g id="standing-frontal-man-silhouette-100" transform="translate(4631.959 942.353)">
		<g id="Group_9191" transform="translate(0 0)">
			<ellipse id="Ellipse_6218" class="st0" cx="6" cy="77.1" rx="1.9" ry="1.9"/>
			<path id="Path_9692" class="st0" d="M12,87.6c-0.5-6.1-3.5-7.4-3.5-7.4c-1.9-1-4.1-0.8-5.8,0.5c-1.9,1.8-2.4,4.4-2.7,7
				c-0.2,1.3,1.9,1.3,2.1,0c0.1-1.5,0.5-3,1.2-4.4v1.5l0,7.2v5.7c0,0.6,0.4,1.1,1,1.1c0,0,0,0,0,0c0.6,0,1.1-0.5,1.1-1.1v-8.1h1v8.2
				c0,0.6,0.5,1,1.1,1c0.5,0,1-0.4,1-1V92l0.1-7.2c0-0.7,0-1.3,0-1.7c0.7,1.4,1.2,3,1.3,4.5C10.1,88.9,12.1,88.9,12,87.6z"/>
		</g>
	</g>
	<g id="standing-frontal-man-silhouette-101" transform="translate(4686.959 942.16)">
		<g id="Group_9192" transform="translate(0 0)">
			<ellipse id="Ellipse_6219" class="st0" cx="6" cy="77.1" rx="1.9" ry="1.9"/>
			<path id="Path_9693" class="st0" d="M12,87.6c-0.5-6.1-3.5-7.4-3.5-7.4c-1.9-1-4.1-0.8-5.8,0.5c-1.9,1.8-2.4,4.4-2.7,7
				c-0.2,1.3,1.9,1.3,2.1,0c0.1-1.5,0.5-3,1.2-4.4v1.5l0,7.2v5.7c0,0.6,0.4,1.1,1,1.1c0,0,0,0,0,0c0.6,0,1.1-0.5,1.1-1.1v-8.1h1v8.2
				c0,0.6,0.5,1,1.1,1c0.5,0,1-0.4,1-1V92l0.1-7.2c0-0.7,0-1.3,0-1.7c0.7,1.4,1.2,3,1.3,4.5C10.1,88.9,12.1,88.9,12,87.6z"/>
		</g>
	</g>
	<g id="standing-frontal-man-silhouette-102" transform="translate(4631.959 917.16)">
		<g id="Group_9193" transform="translate(0 0)">
			<ellipse id="Ellipse_6220" class="st0" cx="6" cy="77.1" rx="1.9" ry="1.9"/>
			<path id="Path_9694" class="st0" d="M12,87.6c-0.5-6.1-3.5-7.4-3.5-7.4c-1.9-1-4.1-0.8-5.8,0.5c-1.9,1.8-2.4,4.4-2.7,7
				c-0.2,1.3,1.9,1.3,2.1,0c0.1-1.5,0.5-3,1.2-4.4v1.5l0,7.2v5.7c0,0.6,0.4,1.1,1,1.1c0,0,0,0,0,0c0.6,0,1.1-0.5,1.1-1.1v-8.1h1v8.2
				c0,0.6,0.5,1,1.1,1c0.5,0,1-0.4,1-1V92l0.1-7.2c0-0.7,0-1.3,0-1.7c0.7,1.4,1.2,3,1.3,4.5C10.1,88.9,12.1,88.9,12,87.6z"/>
		</g>
	</g>
	<g id="standing-frontal-man-silhouette-103" transform="translate(4686.959 992.545)">
		<g id="Group_9194" transform="translate(0 0)">
			<ellipse id="Ellipse_6221" class="st0" cx="6" cy="77.1" rx="1.9" ry="1.9"/>
			<path id="Path_9695" class="st0" d="M12,87.6c-0.5-6.1-3.5-7.4-3.5-7.4c-1.9-1-4.1-0.8-5.8,0.5c-1.9,1.8-2.4,4.4-2.7,7
				c-0.2,1.3,1.9,1.3,2.1,0c0.1-1.5,0.5-3,1.2-4.4v1.5l0,7.2v5.7c0,0.6,0.4,1.1,1,1.1c0,0,0,0,0,0c0.6,0,1.1-0.5,1.1-1.1v-8.1h1v8.2
				c0,0.6,0.5,1,1.1,1c0.5,0,1-0.4,1-1V92l0.1-7.2c0-0.7,0-1.3,0-1.7c0.7,1.4,1.2,3,1.3,4.5C10.1,88.9,12.1,88.9,12,87.6z"/>
		</g>
	</g>
	<g id="standing-frontal-man-silhouette-104" transform="translate(4631.959 967.545)">
		<g id="Group_9195" transform="translate(0 0)">
			<ellipse id="Ellipse_6222" class="st0" cx="6" cy="77.1" rx="1.9" ry="1.9"/>
			<path id="Path_9696" class="st0" d="M12,87.6c-0.5-6.1-3.5-7.4-3.5-7.4c-1.9-1-4.1-0.8-5.8,0.5c-1.9,1.8-2.4,4.4-2.7,7
				c-0.2,1.3,1.9,1.3,2.1,0c0.1-1.5,0.5-3,1.2-4.4v1.5l0,7.2v5.7c0,0.6,0.4,1.1,1,1.1c0,0,0,0,0,0c0.6,0,1.1-0.5,1.1-1.1v-8.1h1v8.2
				c0,0.6,0.5,1,1.1,1c0.5,0,1-0.4,1-1V92l0.1-7.2c0-0.7,0-1.3,0-1.7c0.7,1.4,1.2,3,1.3,4.5C10.1,88.9,12.1,88.9,12,87.6z"/>
		</g>
	</g>
	<g id="standing-frontal-man-silhouette-105" transform="translate(4660.145 1270.968)">
		<g id="Group_9196" transform="translate(0 0)">
			<ellipse id="Ellipse_6223" class="st0" cx="6" cy="77.1" rx="1.9" ry="1.9"/>
			<path id="Path_9697" class="st0" d="M12,87.6c-0.5-6.1-3.5-7.4-3.5-7.4c-1.9-1-4.1-0.8-5.8,0.5c-1.9,1.8-2.4,4.4-2.7,7
				c-0.2,1.3,1.9,1.3,2.1,0c0.1-1.5,0.5-3,1.2-4.4v1.5l0,7.2v5.7c0,0.6,0.4,1.1,1,1.1c0,0,0,0,0,0c0.6,0,1.1-0.5,1.1-1.1v-8.1h1v8.2
				c0,0.6,0.5,1,1.1,1c0.5,0,1-0.4,1-1V92l0.1-7.2c0-0.7,0-1.3,0-1.7c0.7,1.4,1.2,3,1.3,4.5C10.1,88.9,12.1,88.9,12,87.6z"/>
		</g>
	</g>
	<g id="standing-frontal-man-silhouette-106" transform="translate(4660.145 1321.353)">
		<g id="Group_9197" transform="translate(0 0)">
			<ellipse id="Ellipse_6224" class="st0" cx="6" cy="77.1" rx="1.9" ry="1.9"/>
			<path id="Path_9698" class="st0" d="M12,87.6c-0.5-6.1-3.5-7.4-3.5-7.4c-1.9-1-4.1-0.8-5.8,0.5c-1.9,1.8-2.4,4.4-2.7,7
				c-0.2,1.3,1.9,1.3,2.1,0c0.1-1.5,0.5-3,1.2-4.4v1.5l0,7.2v5.7c0,0.6,0.4,1.1,1,1.1c0,0,0,0,0,0c0.6,0,1.1-0.5,1.1-1.1v-8.1h1v8.2
				c0,0.6,0.5,1,1.1,1c0.5,0,1-0.4,1-1V92l0.1-7.2c0-0.7,0-1.3,0-1.7c0.7,1.4,1.2,3,1.3,4.5C10.1,88.9,12.1,88.9,12,87.6z"/>
		</g>
	</g>
	<g id="standing-frontal-man-silhouette-107" transform="translate(4660.145 1220.353)">
		<g id="Group_9198" transform="translate(0 0)">
			<ellipse id="Ellipse_6225" class="st0" cx="6" cy="77.1" rx="1.9" ry="1.9"/>
			<path id="Path_9699" class="st0" d="M12,87.6c-0.5-6.1-3.5-7.4-3.5-7.4c-1.9-1-4.1-0.8-5.8,0.5c-1.9,1.8-2.4,4.4-2.7,7
				c-0.2,1.3,1.9,1.3,2.1,0c0.1-1.5,0.5-3,1.2-4.4v1.5l0,7.2v5.7c0,0.6,0.4,1.1,1,1.1c0,0,0,0,0,0c0.6,0,1.1-0.5,1.1-1.1v-8.1h1v8.2
				c0,0.6,0.5,1,1.1,1c0.5,0,1-0.4,1-1V92l0.1-7.2c0-0.7,0-1.3,0-1.7c0.7,1.4,1.2,3,1.3,4.5C10.1,88.9,12.1,88.9,12,87.6z"/>
		</g>
	</g>
	<g id="standing-frontal-man-silhouette-108" transform="translate(4660.145 1296.16)">
		<g id="Group_9199" transform="translate(0 0)">
			<ellipse id="Ellipse_6226" class="st0" cx="6" cy="77.1" rx="1.9" ry="1.9"/>
			<path id="Path_9700" class="st0" d="M12,87.6c-0.5-6.1-3.5-7.4-3.5-7.4c-1.9-1-4.1-0.8-5.8,0.5c-1.9,1.8-2.4,4.4-2.7,7
				c-0.2,1.3,1.9,1.3,2.1,0c0.1-1.5,0.5-3,1.2-4.4v1.5l0,7.2v5.7c0,0.6,0.4,1.1,1,1.1c0,0,0,0,0,0c0.6,0,1.1-0.5,1.1-1.1v-8.1h1v8.2
				c0,0.6,0.5,1,1.1,1c0.5,0,1-0.4,1-1V92l0.1-7.2c0-0.7,0-1.3,0-1.7c0.7,1.4,1.2,3,1.3,4.5C10.1,88.9,12.1,88.9,12,87.6z"/>
		</g>
	</g>
	<g id="standing-frontal-man-silhouette-109" transform="translate(4660.145 1195.16)">
		<g id="Group_9200" transform="translate(0 0)">
			<ellipse id="Ellipse_6227" class="st0" cx="6" cy="77.1" rx="1.9" ry="1.9"/>
			<path id="Path_9701" class="st0" d="M12,87.6c-0.5-6.1-3.5-7.4-3.5-7.4c-1.9-1-4.1-0.8-5.8,0.5c-1.9,1.8-2.4,4.4-2.7,7
				c-0.2,1.3,1.9,1.3,2.1,0c0.1-1.5,0.5-3,1.2-4.4v1.5l0,7.2v5.7c0,0.6,0.4,1.1,1,1.1c0,0,0,0,0,0c0.6,0,1.1-0.5,1.1-1.1v-8.1h1v8.2
				c0,0.6,0.5,1,1.1,1c0.5,0,1-0.4,1-1V92l0.1-7.2c0-0.7,0-1.3,0-1.7c0.7,1.4,1.2,3,1.3,4.5C10.1,88.9,12.1,88.9,12,87.6z"/>
		</g>
	</g>
	<g id="standing-frontal-man-silhouette-110" transform="translate(4660.145 1346.545)">
		<g id="Group_9201" transform="translate(0 0)">
			<ellipse id="Ellipse_6228" class="st0" cx="6" cy="77.1" rx="1.9" ry="1.9"/>
			<path id="Path_9702" class="st0" d="M12,87.6c-0.5-6.1-3.5-7.4-3.5-7.4c-1.9-1-4.1-0.8-5.8,0.5c-1.9,1.8-2.4,4.4-2.7,7
				c-0.2,1.3,1.9,1.3,2.1,0c0.1-1.5,0.5-3,1.2-4.4v1.5l0,7.2v5.7c0,0.6,0.4,1.1,1,1.1c0,0,0,0,0,0c0.6,0,1.1-0.5,1.1-1.1v-8.1h1v8.2
				c0,0.6,0.5,1,1.1,1c0.5,0,1-0.4,1-1V92l0.1-7.2c0-0.7,0-1.3,0-1.7c0.7,1.4,1.2,3,1.3,4.5C10.1,88.9,12.1,88.9,12,87.6z"/>
		</g>
	</g>
	<g id="standing-frontal-man-silhouette-111" transform="translate(4660.145 1245.545)">
		<g id="Group_9202" transform="translate(0 0)">
			<ellipse id="Ellipse_6229" class="st0" cx="6" cy="77.1" rx="1.9" ry="1.9"/>
			<path id="Path_9703" class="st0" d="M12,87.6c-0.5-6.1-3.5-7.4-3.5-7.4c-1.9-1-4.1-0.8-5.8,0.5c-1.9,1.8-2.4,4.4-2.7,7
				c-0.2,1.3,1.9,1.3,2.1,0c0.1-1.5,0.5-3,1.2-4.4v1.5l0,7.2v5.7c0,0.6,0.4,1.1,1,1.1c0,0,0,0,0,0c0.6,0,1.1-0.5,1.1-1.1v-8.1h1v8.2
				c0,0.6,0.5,1,1.1,1c0.5,0,1-0.4,1-1V92l0.1-7.2c0-0.7,0-1.3,0-1.7c0.7,1.4,1.2,3,1.3,4.5C10.1,88.9,12.1,88.9,12,87.6z"/>
		</g>
	</g>
	<g id="standing-frontal-man-silhouette-112" transform="translate(4659.754 1093.968)">
		<g id="Group_9203" transform="translate(0 0)">
			<ellipse id="Ellipse_6230" class="st0" cx="6" cy="77.1" rx="1.9" ry="1.9"/>
			<path id="Path_9704" class="st0" d="M12,87.6c-0.5-6.1-3.5-7.4-3.5-7.4c-1.9-1-4.1-0.8-5.8,0.5c-1.9,1.8-2.4,4.4-2.7,7
				c-0.2,1.3,1.9,1.3,2.1,0c0.1-1.5,0.5-3,1.2-4.4v1.5l0,7.2v5.7c0,0.6,0.4,1.1,1,1.1c0,0,0,0,0,0c0.6,0,1.1-0.5,1.1-1.1v-8.1h1v8.2
				c0,0.6,0.5,1,1.1,1c0.5,0,1-0.4,1-1V92l0.1-7.2c0-0.7,0-1.3,0-1.7c0.7,1.4,1.2,3,1.3,4.5C10.1,88.9,12.1,88.9,12,87.6z"/>
		</g>
	</g>
	<g id="standing-frontal-man-silhouette-113" transform="translate(4659.754 1144.353)">
		<g id="Group_9204" transform="translate(0 0)">
			<ellipse id="Ellipse_6231" class="st0" cx="6" cy="77.1" rx="1.9" ry="1.9"/>
			<path id="Path_9705" class="st0" d="M12,87.6c-0.5-6.1-3.5-7.4-3.5-7.4c-1.9-1-4.1-0.8-5.8,0.5c-1.9,1.8-2.4,4.4-2.7,7
				c-0.2,1.3,1.9,1.3,2.1,0c0.1-1.5,0.5-3,1.2-4.4v1.5l0,7.2v5.7c0,0.6,0.4,1.1,1,1.1c0,0,0,0,0,0c0.6,0,1.1-0.5,1.1-1.1v-8.1h1v8.2
				c0,0.6,0.5,1,1.1,1c0.5,0,1-0.4,1-1V92l0.1-7.2c0-0.7,0-1.3,0-1.7c0.7,1.4,1.2,3,1.3,4.5C10.1,88.9,12.1,88.9,12,87.6z"/>
		</g>
	</g>
	<g id="standing-frontal-man-silhouette-114" transform="translate(4659.754 1043.353)">
		<g id="Group_9205" transform="translate(0 0)">
			<ellipse id="Ellipse_6232" class="st0" cx="6" cy="77.1" rx="1.9" ry="1.9"/>
			<path id="Path_9706" class="st0" d="M12,87.6c-0.5-6.1-3.5-7.4-3.5-7.4c-1.9-1-4.1-0.8-5.8,0.5c-1.9,1.8-2.4,4.4-2.7,7
				c-0.2,1.3,1.9,1.3,2.1,0c0.1-1.5,0.5-3,1.2-4.4v1.5l0,7.2v5.7c0,0.6,0.4,1.1,1,1.1c0,0,0,0,0,0c0.6,0,1.1-0.5,1.1-1.1v-8.1h1v8.2
				c0,0.6,0.5,1,1.1,1c0.5,0,1-0.4,1-1V92l0.1-7.2c0-0.7,0-1.3,0-1.7c0.7,1.4,1.2,3,1.3,4.5C10.1,88.9,12.1,88.9,12,87.6z"/>
		</g>
	</g>
	<g id="standing-frontal-man-silhouette-115" transform="translate(4659.754 1119.16)">
		<g id="Group_9206" transform="translate(0 0)">
			<ellipse id="Ellipse_6233" class="st0" cx="6" cy="77.1" rx="1.9" ry="1.9"/>
			<path id="Path_9707" class="st0" d="M12,87.6c-0.5-6.1-3.5-7.4-3.5-7.4c-1.9-1-4.1-0.8-5.8,0.5c-1.9,1.8-2.4,4.4-2.7,7
				c-0.2,1.3,1.9,1.3,2.1,0c0.1-1.5,0.5-3,1.2-4.4v1.5l0,7.2v5.7c0,0.6,0.4,1.1,1,1.1c0,0,0,0,0,0c0.6,0,1.1-0.5,1.1-1.1v-8.1h1v8.2
				c0,0.6,0.5,1,1.1,1c0.5,0,1-0.4,1-1V92l0.1-7.2c0-0.7,0-1.3,0-1.7c0.7,1.4,1.2,3,1.3,4.5C10.1,88.9,12.1,88.9,12,87.6z"/>
		</g>
	</g>
	<g id="standing-frontal-man-silhouette-116" transform="translate(4659.754 1018.16)">
		<g id="Group_9207" transform="translate(0 0)">
			<ellipse id="Ellipse_6234" class="st0" cx="6" cy="77.1" rx="1.9" ry="1.9"/>
			<path id="Path_9708" class="st0" d="M12,87.6c-0.5-6.1-3.5-7.4-3.5-7.4c-1.9-1-4.1-0.8-5.8,0.5c-1.9,1.8-2.4,4.4-2.7,7
				c-0.2,1.3,1.9,1.3,2.1,0c0.1-1.5,0.5-3,1.2-4.4v1.5l0,7.2v5.7c0,0.6,0.4,1.1,1,1.1c0,0,0,0,0,0c0.6,0,1.1-0.5,1.1-1.1v-8.1h1v8.2
				c0,0.6,0.5,1,1.1,1c0.5,0,1-0.4,1-1V92l0.1-7.2c0-0.7,0-1.3,0-1.7c0.7,1.4,1.2,3,1.3,4.5C10.1,88.9,12.1,88.9,12,87.6z"/>
		</g>
	</g>
	<g id="standing-frontal-man-silhouette-117" transform="translate(4659.754 1169.545)">
		<g id="Group_9208" transform="translate(0 0)">
			<ellipse id="Ellipse_6235" class="st0" cx="6" cy="77.1" rx="1.9" ry="1.9"/>
			<path id="Path_9709" class="st0" d="M12,87.6c-0.5-6.1-3.5-7.4-3.5-7.4c-1.9-1-4.1-0.8-5.8,0.5c-1.9,1.8-2.4,4.4-2.7,7
				c-0.2,1.3,1.9,1.3,2.1,0c0.1-1.5,0.5-3,1.2-4.4v1.5l0,7.2v5.7c0,0.6,0.4,1.1,1,1.1c0,0,0,0,0,0c0.6,0,1.1-0.5,1.1-1.1v-8.1h1v8.2
				c0,0.6,0.5,1,1.1,1c0.5,0,1-0.4,1-1V92l0.1-7.2c0-0.7,0-1.3,0-1.7c0.7,1.4,1.2,3,1.3,4.5C10.1,88.9,12.1,88.9,12,87.6z"/>
		</g>
	</g>
	<g id="standing-frontal-man-silhouette-118" transform="translate(4659.754 1068.545)">
		<g id="Group_9209" transform="translate(0 0)">
			<ellipse id="Ellipse_6236" class="st0" cx="6" cy="77.1" rx="1.9" ry="1.9"/>
			<path id="Path_9710" class="st0" d="M12,87.6c-0.5-6.1-3.5-7.4-3.5-7.4c-1.9-1-4.1-0.8-5.8,0.5c-1.9,1.8-2.4,4.4-2.7,7
				c-0.2,1.3,1.9,1.3,2.1,0c0.1-1.5,0.5-3,1.2-4.4v1.5l0,7.2v5.7c0,0.6,0.4,1.1,1,1.1c0,0,0,0,0,0c0.6,0,1.1-0.5,1.1-1.1v-8.1h1v8.2
				c0,0.6,0.5,1,1.1,1c0.5,0,1-0.4,1-1V92l0.1-7.2c0-0.7,0-1.3,0-1.7c0.7,1.4,1.2,3,1.3,4.5C10.1,88.9,12.1,88.9,12,87.6z"/>
		</g>
	</g>
	<g id="standing-frontal-man-silhouette-119" transform="translate(4714.949 1270.968)">
		<g id="Group_9210" transform="translate(0 0)">
			<ellipse id="Ellipse_6237" class="st0" cx="6" cy="77.1" rx="1.9" ry="1.9"/>
			<path id="Path_9711" class="st0" d="M12,87.6c-0.5-6.1-3.5-7.4-3.5-7.4c-1.9-1-4.1-0.8-5.8,0.5c-1.9,1.8-2.4,4.4-2.7,7
				c-0.2,1.3,1.9,1.3,2.1,0c0.1-1.5,0.5-3,1.2-4.4v1.5l0,7.2v5.7c0,0.6,0.4,1.1,1,1.1c0,0,0,0,0,0c0.6,0,1.1-0.5,1.1-1.1v-8.1h1v8.2
				c0,0.6,0.5,1,1.1,1c0.5,0,1-0.4,1-1V92l0.1-7.2c0-0.7,0-1.3,0-1.7c0.7,1.4,1.2,3,1.3,4.5C10.1,88.9,12.1,88.9,12,87.6z"/>
		</g>
	</g>
	<g id="standing-frontal-man-silhouette-120" transform="translate(4714.949 1321.353)">
		<g id="Group_9211" transform="translate(0 0)">
			<ellipse id="Ellipse_6238" class="st0" cx="6" cy="77.1" rx="1.9" ry="1.9"/>
			<path id="Path_9712" class="st0" d="M12,87.6c-0.5-6.1-3.5-7.4-3.5-7.4c-1.9-1-4.1-0.8-5.8,0.5c-1.9,1.8-2.4,4.4-2.7,7
				c-0.2,1.3,1.9,1.3,2.1,0c0.1-1.5,0.5-3,1.2-4.4v1.5l0,7.2v5.7c0,0.6,0.4,1.1,1,1.1c0,0,0,0,0,0c0.6,0,1.1-0.5,1.1-1.1v-8.1h1v8.2
				c0,0.6,0.5,1,1.1,1c0.5,0,1-0.4,1-1V92l0.1-7.2c0-0.7,0-1.3,0-1.7c0.7,1.4,1.2,3,1.3,4.5C10.1,88.9,12.1,88.9,12,87.6z"/>
		</g>
	</g>
	<g id="standing-frontal-man-silhouette-121" transform="translate(4714.949 1220.353)">
		<g id="Group_9212" transform="translate(0 0)">
			<ellipse id="Ellipse_6239" class="st0" cx="6" cy="77.1" rx="1.9" ry="1.9"/>
			<path id="Path_9713" class="st0" d="M12,87.6c-0.5-6.1-3.5-7.4-3.5-7.4c-1.9-1-4.1-0.8-5.8,0.5c-1.9,1.8-2.4,4.4-2.7,7
				c-0.2,1.3,1.9,1.3,2.1,0c0.1-1.5,0.5-3,1.2-4.4v1.5l0,7.2v5.7c0,0.6,0.4,1.1,1,1.1c0,0,0,0,0,0c0.6,0,1.1-0.5,1.1-1.1v-8.1h1v8.2
				c0,0.6,0.5,1,1.1,1c0.5,0,1-0.4,1-1V92l0.1-7.2c0-0.7,0-1.3,0-1.7c0.7,1.4,1.2,3,1.3,4.5C10.1,88.9,12.1,88.9,12,87.6z"/>
		</g>
	</g>
	<g id="standing-frontal-man-silhouette-122" transform="translate(4714.949 1296.16)">
		<g id="Group_9213" transform="translate(0 0)">
			<ellipse id="Ellipse_6240" class="st0" cx="6" cy="77.1" rx="1.9" ry="1.9"/>
			<path id="Path_9714" class="st0" d="M12,87.6c-0.5-6.1-3.5-7.4-3.5-7.4c-1.9-1-4.1-0.8-5.8,0.5c-1.9,1.8-2.4,4.4-2.7,7
				c-0.2,1.3,1.9,1.3,2.1,0c0.1-1.5,0.5-3,1.2-4.4v1.5l0,7.2v5.7c0,0.6,0.4,1.1,1,1.1c0,0,0,0,0,0c0.6,0,1.1-0.5,1.1-1.1v-8.1h1v8.2
				c0,0.6,0.5,1,1.1,1c0.5,0,1-0.4,1-1V92l0.1-7.2c0-0.7,0-1.3,0-1.7c0.7,1.4,1.2,3,1.3,4.5C10.1,88.9,12.1,88.9,12,87.6z"/>
		</g>
	</g>
	<g id="standing-frontal-man-silhouette-123" transform="translate(4714.949 1195.16)">
		<g id="Group_9214" transform="translate(0 0)">
			<ellipse id="Ellipse_6241" class="st0" cx="6" cy="77.1" rx="1.9" ry="1.9"/>
			<path id="Path_9715" class="st0" d="M12,87.6c-0.5-6.1-3.5-7.4-3.5-7.4c-1.9-1-4.1-0.8-5.8,0.5c-1.9,1.8-2.4,4.4-2.7,7
				c-0.2,1.3,1.9,1.3,2.1,0c0.1-1.5,0.5-3,1.2-4.4v1.5l0,7.2v5.7c0,0.6,0.4,1.1,1,1.1c0,0,0,0,0,0c0.6,0,1.1-0.5,1.1-1.1v-8.1h1v8.2
				c0,0.6,0.5,1,1.1,1c0.5,0,1-0.4,1-1V92l0.1-7.2c0-0.7,0-1.3,0-1.7c0.7,1.4,1.2,3,1.3,4.5C10.1,88.9,12.1,88.9,12,87.6z"/>
		</g>
	</g>
	<g id="standing-frontal-man-silhouette-124" transform="translate(4714.949 1346.545)">
		<g id="Group_9215" transform="translate(0 0)">
			<ellipse id="Ellipse_6242" class="st0" cx="6" cy="77.1" rx="1.9" ry="1.9"/>
			<path id="Path_9716" class="st0" d="M12,87.6c-0.5-6.1-3.5-7.4-3.5-7.4c-1.9-1-4.1-0.8-5.8,0.5c-1.9,1.8-2.4,4.4-2.7,7
				c-0.2,1.3,1.9,1.3,2.1,0c0.1-1.5,0.5-3,1.2-4.4v1.5l0,7.2v5.7c0,0.6,0.4,1.1,1,1.1c0,0,0,0,0,0c0.6,0,1.1-0.5,1.1-1.1v-8.1h1v8.2
				c0,0.6,0.5,1,1.1,1c0.5,0,1-0.4,1-1V92l0.1-7.2c0-0.7,0-1.3,0-1.7c0.7,1.4,1.2,3,1.3,4.5C10.1,88.9,12.1,88.9,12,87.6z"/>
		</g>
	</g>
	<g id="standing-frontal-man-silhouette-125" transform="translate(4714.949 1245.545)">
		<g id="Group_9216" transform="translate(0 0)">
			<ellipse id="Ellipse_6243" class="st0" cx="6" cy="77.1" rx="1.9" ry="1.9"/>
			<path id="Path_9717" class="st0" d="M12,87.6c-0.5-6.1-3.5-7.4-3.5-7.4c-1.9-1-4.1-0.8-5.8,0.5c-1.9,1.8-2.4,4.4-2.7,7
				c-0.2,1.3,1.9,1.3,2.1,0c0.1-1.5,0.5-3,1.2-4.4v1.5l0,7.2v5.7c0,0.6,0.4,1.1,1,1.1c0,0,0,0,0,0c0.6,0,1.1-0.5,1.1-1.1v-8.1h1v8.2
				c0,0.6,0.5,1,1.1,1c0.5,0,1-0.4,1-1V92l0.1-7.2c0-0.7,0-1.3,0-1.7c0.7,1.4,1.2,3,1.3,4.5C10.1,88.9,12.1,88.9,12,87.6z"/>
		</g>
	</g>
	<g id="standing-frontal-man-silhouette-126" transform="translate(4714.559 1093.968)">
		<g id="Group_9217" transform="translate(0 0)">
			<ellipse id="Ellipse_6244" class="st0" cx="6" cy="77.1" rx="1.9" ry="1.9"/>
			<path id="Path_9718" class="st0" d="M12,87.6c-0.5-6.1-3.5-7.4-3.5-7.4c-1.9-1-4.1-0.8-5.8,0.5c-1.9,1.8-2.4,4.4-2.7,7
				c-0.2,1.3,1.9,1.3,2.1,0c0.1-1.5,0.5-3,1.2-4.4v1.5l0,7.2v5.7c0,0.6,0.4,1.1,1,1.1c0,0,0,0,0,0c0.6,0,1.1-0.5,1.1-1.1v-8.1h1v8.2
				c0,0.6,0.5,1,1.1,1c0.5,0,1-0.4,1-1V92l0.1-7.2c0-0.7,0-1.3,0-1.7c0.7,1.4,1.2,3,1.3,4.5C10.1,88.9,12.1,88.9,12,87.6z"/>
		</g>
	</g>
	<g id="standing-frontal-man-silhouette-127" transform="translate(4714.559 1144.353)">
		<g id="Group_9218" transform="translate(0 0)">
			<ellipse id="Ellipse_6245" class="st0" cx="6" cy="77.1" rx="1.9" ry="1.9"/>
			<path id="Path_9719" class="st0" d="M12,87.6c-0.5-6.1-3.5-7.4-3.5-7.4c-1.9-1-4.1-0.8-5.8,0.5c-1.9,1.8-2.4,4.4-2.7,7
				c-0.2,1.3,1.9,1.3,2.1,0c0.1-1.5,0.5-3,1.2-4.4v1.5l0,7.2v5.7c0,0.6,0.4,1.1,1,1.1c0,0,0,0,0,0c0.6,0,1.1-0.5,1.1-1.1v-8.1h1v8.2
				c0,0.6,0.5,1,1.1,1c0.5,0,1-0.4,1-1V92l0.1-7.2c0-0.7,0-1.3,0-1.7c0.7,1.4,1.2,3,1.3,4.5C10.1,88.9,12.1,88.9,12,87.6z"/>
		</g>
	</g>
	<g id="standing-frontal-man-silhouette-128" transform="translate(4714.559 1043.353)">
		<g id="Group_9219" transform="translate(0 0)">
			<ellipse id="Ellipse_6246" class="st0" cx="6" cy="77.1" rx="1.9" ry="1.9"/>
			<path id="Path_9720" class="st0" d="M12,87.6c-0.5-6.1-3.5-7.4-3.5-7.4c-1.9-1-4.1-0.8-5.8,0.5c-1.9,1.8-2.4,4.4-2.7,7
				c-0.2,1.3,1.9,1.3,2.1,0c0.1-1.5,0.5-3,1.2-4.4v1.5l0,7.2v5.7c0,0.6,0.4,1.1,1,1.1c0,0,0,0,0,0c0.6,0,1.1-0.5,1.1-1.1v-8.1h1v8.2
				c0,0.6,0.5,1,1.1,1c0.5,0,1-0.4,1-1V92l0.1-7.2c0-0.7,0-1.3,0-1.7c0.7,1.4,1.2,3,1.3,4.5C10.1,88.9,12.1,88.9,12,87.6z"/>
		</g>
	</g>
	<g id="standing-frontal-man-silhouette-129" transform="translate(4714.559 1119.16)">
		<g id="Group_9220" transform="translate(0 0)">
			<ellipse id="Ellipse_6247" class="st0" cx="6" cy="77.1" rx="1.9" ry="1.9"/>
			<path id="Path_9721" class="st0" d="M12,87.6c-0.5-6.1-3.5-7.4-3.5-7.4c-1.9-1-4.1-0.8-5.8,0.5c-1.9,1.8-2.4,4.4-2.7,7
				c-0.2,1.3,1.9,1.3,2.1,0c0.1-1.5,0.5-3,1.2-4.4v1.5l0,7.2v5.7c0,0.6,0.4,1.1,1,1.1c0,0,0,0,0,0c0.6,0,1.1-0.5,1.1-1.1v-8.1h1v8.2
				c0,0.6,0.5,1,1.1,1c0.5,0,1-0.4,1-1V92l0.1-7.2c0-0.7,0-1.3,0-1.7c0.7,1.4,1.2,3,1.3,4.5C10.1,88.9,12.1,88.9,12,87.6z"/>
		</g>
	</g>
	<g id="standing-frontal-man-silhouette-130" transform="translate(4714.559 1018.16)">
		<g id="Group_9221" transform="translate(0 0)">
			<ellipse id="Ellipse_6248" class="st0" cx="6" cy="77.1" rx="1.9" ry="1.9"/>
			<path id="Path_9722" class="st0" d="M12,87.6c-0.5-6.1-3.5-7.4-3.5-7.4c-1.9-1-4.1-0.8-5.8,0.5c-1.9,1.8-2.4,4.4-2.7,7
				c-0.2,1.3,1.9,1.3,2.1,0c0.1-1.5,0.5-3,1.2-4.4v1.5l0,7.2v5.7c0,0.6,0.4,1.1,1,1.1c0,0,0,0,0,0c0.6,0,1.1-0.5,1.1-1.1v-8.1h1v8.2
				c0,0.6,0.5,1,1.1,1c0.5,0,1-0.4,1-1V92l0.1-7.2c0-0.7,0-1.3,0-1.7c0.7,1.4,1.2,3,1.3,4.5C10.1,88.9,12.1,88.9,12,87.6z"/>
		</g>
	</g>
	<g id="standing-frontal-man-silhouette-131" transform="translate(4714.559 1169.545)">
		<g id="Group_9222" transform="translate(0 0)">
			<ellipse id="Ellipse_6249" class="st0" cx="6" cy="77.1" rx="1.9" ry="1.9"/>
			<path id="Path_9723" class="st0" d="M12,87.6c-0.5-6.1-3.5-7.4-3.5-7.4c-1.9-1-4.1-0.8-5.8,0.5c-1.9,1.8-2.4,4.4-2.7,7
				c-0.2,1.3,1.9,1.3,2.1,0c0.1-1.5,0.5-3,1.2-4.4v1.5l0,7.2v5.7c0,0.6,0.4,1.1,1,1.1c0,0,0,0,0,0c0.6,0,1.1-0.5,1.1-1.1v-8.1h1v8.2
				c0,0.6,0.5,1,1.1,1c0.5,0,1-0.4,1-1V92l0.1-7.2c0-0.7,0-1.3,0-1.7c0.7,1.4,1.2,3,1.3,4.5C10.1,88.9,12.1,88.9,12,87.6z"/>
		</g>
	</g>
	<g id="standing-frontal-man-silhouette-132" transform="translate(4714.559 1068.545)">
		<g id="Group_9223" transform="translate(0 0)">
			<ellipse id="Ellipse_6250" class="st0" cx="6" cy="77.1" rx="1.9" ry="1.9"/>
			<path id="Path_9724" class="st0" d="M12,87.6c-0.5-6.1-3.5-7.4-3.5-7.4c-1.9-1-4.1-0.8-5.8,0.5c-1.9,1.8-2.4,4.4-2.7,7
				c-0.2,1.3,1.9,1.3,2.1,0c0.1-1.5,0.5-3,1.2-4.4v1.5l0,7.2v5.7c0,0.6,0.4,1.1,1,1.1c0,0,0,0,0,0c0.6,0,1.1-0.5,1.1-1.1v-8.1h1v8.2
				c0,0.6,0.5,1,1.1,1c0.5,0,1-0.4,1-1V92l0.1-7.2c0-0.7,0-1.3,0-1.7c0.7,1.4,1.2,3,1.3,4.5C10.1,88.9,12.1,88.9,12,87.6z"/>
		</g>
	</g>
	<g id="standing-frontal-man-silhouette-133" transform="translate(4659.361 992.968)">
		<g id="Group_9224" transform="translate(0 0)">
			<ellipse id="Ellipse_6251" class="st0" cx="6" cy="77.1" rx="1.9" ry="1.9"/>
			<path id="Path_9725" class="st0" d="M12,87.6c-0.5-6.1-3.5-7.4-3.5-7.4c-1.9-1-4.1-0.8-5.8,0.5c-1.9,1.8-2.4,4.4-2.7,7
				c-0.2,1.3,1.9,1.3,2.1,0c0.1-1.5,0.5-3,1.2-4.4v1.5l0,7.2v5.7c0,0.6,0.4,1.1,1,1.1c0,0,0,0,0,0c0.6,0,1.1-0.5,1.1-1.1v-8.1h1v8.2
				c0,0.6,0.5,1,1.1,1c0.5,0,1-0.4,1-1V92l0.1-7.2c0-0.7,0-1.3,0-1.7c0.7,1.4,1.2,3,1.3,4.5C10.1,88.9,12.1,88.9,12,87.6z"/>
		</g>
	</g>
	<g id="standing-frontal-man-silhouette-134" transform="translate(4714.361 967.353)">
		<g id="Group_9225" transform="translate(0 0)">
			<ellipse id="Ellipse_6252" class="st0" cx="6" cy="77.1" rx="1.9" ry="1.9"/>
			<path id="Path_9726" class="st0" d="M12,87.6c-0.5-6.1-3.5-7.4-3.5-7.4c-1.9-1-4.1-0.8-5.8,0.5c-1.9,1.8-2.4,4.4-2.7,7
				c-0.2,1.3,1.9,1.3,2.1,0c0.1-1.5,0.5-3,1.2-4.4v1.5l0,7.2v5.7c0,0.6,0.4,1.1,1,1.1c0,0,0,0,0,0c0.6,0,1.1-0.5,1.1-1.1v-8.1h1v8.2
				c0,0.6,0.5,1,1.1,1c0.5,0,1-0.4,1-1V92l0.1-7.2c0-0.7,0-1.3,0-1.7c0.7,1.4,1.2,3,1.3,4.5C10.1,88.9,12.1,88.9,12,87.6z"/>
		</g>
	</g>
	<g id="standing-frontal-man-silhouette-135" transform="translate(4659.361 942.353)">
		<g id="Group_9226" transform="translate(0 0)">
			<ellipse id="Ellipse_6253" class="st0" cx="6" cy="77.1" rx="1.9" ry="1.9"/>
			<path id="Path_9727" class="st0" d="M12,87.6c-0.5-6.1-3.5-7.4-3.5-7.4c-1.9-1-4.1-0.8-5.8,0.5c-1.9,1.8-2.4,4.4-2.7,7
				c-0.2,1.3,1.9,1.3,2.1,0c0.1-1.5,0.5-3,1.2-4.4v1.5l0,7.2v5.7c0,0.6,0.4,1.1,1,1.1c0,0,0,0,0,0c0.6,0,1.1-0.5,1.1-1.1v-8.1h1v8.2
				c0,0.6,0.5,1,1.1,1c0.5,0,1-0.4,1-1V92l0.1-7.2c0-0.7,0-1.3,0-1.7c0.7,1.4,1.2,3,1.3,4.5C10.1,88.9,12.1,88.9,12,87.6z"/>
		</g>
	</g>
	<g id="standing-frontal-man-silhouette-136" transform="translate(4714.361 942.16)">
		<g id="Group_9227" transform="translate(0 0)">
			<ellipse id="Ellipse_6254" class="st0" cx="6" cy="77.1" rx="1.9" ry="1.9"/>
			<path id="Path_9728" class="st0" d="M12,87.6c-0.5-6.1-3.5-7.4-3.5-7.4c-1.9-1-4.1-0.8-5.8,0.5c-1.9,1.8-2.4,4.4-2.7,7
				c-0.2,1.3,1.9,1.3,2.1,0c0.1-1.5,0.5-3,1.2-4.4v1.5l0,7.2v5.7c0,0.6,0.4,1.1,1,1.1c0,0,0,0,0,0c0.6,0,1.1-0.5,1.1-1.1v-8.1h1v8.2
				c0,0.6,0.5,1,1.1,1c0.5,0,1-0.4,1-1V92l0.1-7.2c0-0.7,0-1.3,0-1.7c0.7,1.4,1.2,3,1.3,4.5C10.1,88.9,12.1,88.9,12,87.6z"/>
		</g>
	</g>
	<g id="standing-frontal-man-silhouette-137" transform="translate(4714.361 992.545)">
		<g id="Group_9228" transform="translate(0 0)">
			<ellipse id="Ellipse_6255" class="st0" cx="6" cy="77.1" rx="1.9" ry="1.9"/>
			<path id="Path_9729" class="st0" d="M12,87.6c-0.5-6.1-3.5-7.4-3.5-7.4c-1.9-1-4.1-0.8-5.8,0.5c-1.9,1.8-2.4,4.4-2.7,7
				c-0.2,1.3,1.9,1.3,2.1,0c0.1-1.5,0.5-3,1.2-4.4v1.5l0,7.2v5.7c0,0.6,0.4,1.1,1,1.1c0,0,0,0,0,0c0.6,0,1.1-0.5,1.1-1.1v-8.1h1v8.2
				c0,0.6,0.5,1,1.1,1c0.5,0,1-0.4,1-1V92l0.1-7.2c0-0.7,0-1.3,0-1.7c0.7,1.4,1.2,3,1.3,4.5C10.1,88.9,12.1,88.9,12,87.6z"/>
		</g>
	</g>
	<g id="standing-frontal-man-silhouette-138" transform="translate(4659.361 967.545)">
		<g id="Group_9229" transform="translate(0 0)">
			<ellipse id="Ellipse_6256" class="st0" cx="6" cy="77.1" rx="1.9" ry="1.9"/>
			<path id="Path_9730" class="st0" d="M12,87.6c-0.5-6.1-3.5-7.4-3.5-7.4c-1.9-1-4.1-0.8-5.8,0.5c-1.9,1.8-2.4,4.4-2.7,7
				c-0.2,1.3,1.9,1.3,2.1,0c0.1-1.5,0.5-3,1.2-4.4v1.5l0,7.2v5.7c0,0.6,0.4,1.1,1,1.1c0,0,0,0,0,0c0.6,0,1.1-0.5,1.1-1.1v-8.1h1v8.2
				c0,0.6,0.5,1,1.1,1c0.5,0,1-0.4,1-1V92l0.1-7.2c0-0.7,0-1.3,0-1.7c0.7,1.4,1.2,3,1.3,4.5C10.1,88.9,12.1,88.9,12,87.6z"/>
		</g>
	</g>
</g>
</svg>
