<?xml version="1.0" encoding="utf-8"?>
<!-- Generator: Adobe Illustrator 25.1.0, SVG Export Plug-In . SVG Version: 6.00 Build 0)  -->
<svg version="1.1" id="Laag_1" xmlns="http://www.w3.org/2000/svg" xmlns:xlink="http://www.w3.org/1999/xlink" x="0px" y="0px"
	 viewBox="0 0 108.7 528.2" style="enable-background:new 0 0 108.7 528.2;" xml:space="preserve">
<style type="text/css">
	.st0{fill:#FFFFFF;}
</style>
<g id="Group_13280" transform="translate(-4416.043 -893.419)">
	<g id="standing-frontal-man-silhouette" transform="translate(4416.043 1220.584)">
		<g id="Group_12851" transform="translate(0 0)">
			<ellipse id="Ellipse_9871" class="st0" cx="6" cy="53.4" rx="1.9" ry="1.9"/>
			<path id="Path_13345" class="st0" d="M12,63.9c-0.5-6.1-3.5-7.4-3.5-7.4c-1.9-1-4.1-0.8-5.8,0.5c-1.9,1.8-2.4,4.4-2.7,7
				c-0.2,1.3,1.9,1.3,2.1,0c0.1-1.5,0.5-3,1.2-4.4v1.5l0,7.2v5.7c0,0.6,0.4,1.1,1,1.1c0,0,0,0,0,0c0.6,0,1.1-0.5,1.1-1.1v-8.1h1v8.2
				c0,0.6,0.5,1,1.1,1c0.5,0,1-0.4,1-1v-5.7l0.1-7.2c0-0.7,0-1.3,0-1.7c0.7,1.4,1.2,3,1.3,4.5C10.1,65.2,12.1,65.2,12,63.9z"/>
		</g>
	</g>
	<g id="standing-frontal-man-silhouette-2" transform="translate(4444.305 1019.584)">
		<g id="Group_12852" transform="translate(0 0)">
			<ellipse id="Ellipse_9872" class="st0" cx="6" cy="53.4" rx="1.9" ry="1.9"/>
			<path id="Path_13346" class="st0" d="M12,63.9c-0.5-6.1-3.5-7.4-3.5-7.4c-1.9-1-4.1-0.8-5.8,0.5c-1.9,1.8-2.4,4.4-2.7,7
				c-0.2,1.3,1.9,1.3,2.1,0c0.1-1.5,0.5-3,1.2-4.4v1.5l0,7.2v5.7c0,0.6,0.4,1.1,1,1.1c0,0,0,0,0,0c0.6,0,1.1-0.5,1.1-1.1v-8.1h1v8.2
				c0,0.6,0.5,1,1.1,1c0.5,0,1-0.4,1-1v-5.7l0.1-7.2c0-0.7,0-1.3,0-1.7c0.7,1.4,1.2,3,1.3,4.5C10.1,65.2,12.1,65.2,12,63.9z"/>
		</g>
	</g>
	<g id="standing-frontal-man-silhouette-3" transform="translate(4416.043 1270.968)">
		<g id="Group_12853" transform="translate(0 0)">
			<ellipse id="Ellipse_9873" class="st0" cx="6" cy="53.4" rx="1.9" ry="1.9"/>
			<path id="Path_13347" class="st0" d="M12,63.9c-0.5-6.1-3.5-7.4-3.5-7.4c-1.9-1-4.1-0.8-5.8,0.5c-1.9,1.8-2.4,4.4-2.7,7
				c-0.2,1.3,1.9,1.3,2.1,0c0.1-1.5,0.5-3,1.2-4.4v1.5l0,7.2v5.7c0,0.6,0.4,1.1,1,1.1c0,0,0,0,0,0c0.6,0,1.1-0.5,1.1-1.1v-8.1h1v8.2
				c0,0.6,0.5,1,1.1,1c0.5,0,1-0.4,1-1v-5.7l0.1-7.2c0-0.7,0-1.3,0-1.7c0.7,1.4,1.2,3,1.3,4.5C10.1,65.2,12.1,65.2,12,63.9z"/>
		</g>
	</g>
	<g id="standing-frontal-man-silhouette-4" transform="translate(4416.043 1321.353)">
		<g id="Group_12854" transform="translate(0 0)">
			<ellipse id="Ellipse_9874" class="st0" cx="6" cy="53.4" rx="1.9" ry="1.9"/>
			<path id="Path_13348" class="st0" d="M12,63.9c-0.5-6.1-3.5-7.4-3.5-7.4c-1.9-1-4.1-0.8-5.8,0.5c-1.9,1.8-2.4,4.4-2.7,7
				c-0.2,1.3,1.9,1.3,2.1,0c0.1-1.5,0.5-3,1.2-4.4v1.5l0,7.2v5.7c0,0.6,0.4,1.1,1,1.1c0,0,0,0,0,0c0.6,0,1.1-0.5,1.1-1.1v-8.1h1v8.2
				c0,0.6,0.5,1,1.1,1c0.5,0,1-0.4,1-1v-5.7l0.1-7.2c0-0.7,0-1.3,0-1.7c0.7,1.4,1.2,3,1.3,4.5C10.1,65.2,12.1,65.2,12,63.9z"/>
		</g>
	</g>
	<g id="standing-frontal-man-silhouette-5" transform="translate(4416.043 1170.419)">
		<g id="Group_12855" transform="translate(0 0)">
			<ellipse id="Ellipse_9875" class="st0" cx="6" cy="53.4" rx="1.9" ry="1.9"/>
			<path id="Path_13349" class="st0" d="M12,63.9c-0.5-6.1-3.5-7.4-3.5-7.4c-1.9-1-4.1-0.8-5.8,0.5c-1.9,1.8-2.4,4.4-2.7,7
				c-0.2,1.3,1.9,1.3,2.1,0c0.1-1.5,0.5-3,1.2-4.4v1.5l0,7.2v5.7c0,0.6,0.4,1.1,1,1.1c0,0,0,0,0,0c0.6,0,1.1-0.5,1.1-1.1v-8.1h1v8.2
				c0,0.6,0.5,1,1.1,1c0.5,0,1-0.4,1-1v-5.7l0.1-7.2c0-0.7,0-1.3,0-1.7c0.7,1.4,1.2,3,1.3,4.5C10.1,65.2,12.1,65.2,12,63.9z"/>
		</g>
	</g>
	<g id="standing-frontal-man-silhouette-6" transform="translate(4416.043 1245.776)">
		<g id="Group_12856" transform="translate(0 0)">
			<ellipse id="Ellipse_9876" class="st0" cx="6" cy="53.4" rx="1.9" ry="1.9"/>
			<path id="Path_13350" class="st0" d="M12,63.9c-0.5-6.1-3.5-7.4-3.5-7.4c-1.9-1-4.1-0.8-5.8,0.5c-1.9,1.8-2.4,4.4-2.7,7
				c-0.2,1.3,1.9,1.3,2.1,0c0.1-1.5,0.5-3,1.2-4.4v1.5l0,7.2v5.7c0,0.6,0.4,1.1,1,1.1c0,0,0,0,0,0c0.6,0,1.1-0.5,1.1-1.1v-8.1h1v8.2
				c0,0.6,0.5,1,1.1,1c0.5,0,1-0.4,1-1v-5.7l0.1-7.2c0-0.7,0-1.3,0-1.7c0.7,1.4,1.2,3,1.3,4.5C10.1,65.2,12.1,65.2,12,63.9z"/>
		</g>
	</g>
	<g id="standing-frontal-man-silhouette-7" transform="translate(4416.043 1296.16)">
		<g id="Group_12857" transform="translate(0 0)">
			<ellipse id="Ellipse_9877" class="st0" cx="6" cy="53.4" rx="1.9" ry="1.9"/>
			<path id="Path_13351" class="st0" d="M12,63.9c-0.5-6.1-3.5-7.4-3.5-7.4c-1.9-1-4.1-0.8-5.8,0.5c-1.9,1.8-2.4,4.4-2.7,7
				c-0.2,1.3,1.9,1.3,2.1,0c0.1-1.5,0.5-3,1.2-4.4v1.5l0,7.2v5.7c0,0.6,0.4,1.1,1,1.1c0,0,0,0,0,0c0.6,0,1.1-0.5,1.1-1.1v-8.1h1v8.2
				c0,0.6,0.5,1,1.1,1c0.5,0,1-0.4,1-1v-5.7l0.1-7.2c0-0.7,0-1.3,0-1.7c0.7,1.4,1.2,3,1.3,4.5C10.1,65.2,12.1,65.2,12,63.9z"/>
		</g>
	</g>
	<g id="standing-frontal-man-silhouette-8" transform="translate(4416.043 1346.545)">
		<g id="Group_12858" transform="translate(0 0)">
			<ellipse id="Ellipse_9878" class="st0" cx="6" cy="53.4" rx="1.9" ry="1.9"/>
			<path id="Path_13352" class="st0" d="M12,63.9c-0.5-6.1-3.5-7.4-3.5-7.4c-1.9-1-4.1-0.8-5.8,0.5c-1.9,1.8-2.4,4.4-2.7,7
				c-0.2,1.3,1.9,1.3,2.1,0c0.1-1.5,0.5-3,1.2-4.4v1.5l0,7.2v5.7c0,0.6,0.4,1.1,1,1.1c0,0,0,0,0,0c0.6,0,1.1-0.5,1.1-1.1v-8.1h1v8.2
				c0,0.6,0.5,1,1.1,1c0.5,0,1-0.4,1-1v-5.7l0.1-7.2c0-0.7,0-1.3,0-1.7c0.7,1.4,1.2,3,1.3,4.5C10.1,65.2,12.1,65.2,12,63.9z"/>
		</g>
	</g>
	<g id="standing-frontal-man-silhouette-9" transform="translate(4416.043 1195.611)">
		<g id="Group_12859" transform="translate(0 0)">
			<ellipse id="Ellipse_9879" class="st0" cx="6" cy="53.4" rx="1.9" ry="1.9"/>
			<path id="Path_13353" class="st0" d="M12,63.9c-0.5-6.1-3.5-7.4-3.5-7.4c-1.9-1-4.1-0.8-5.8,0.5c-1.9,1.8-2.4,4.4-2.7,7
				c-0.2,1.3,1.9,1.3,2.1,0c0.1-1.5,0.5-3,1.2-4.4v1.5l0,7.2v5.7c0,0.6,0.4,1.1,1,1.1c0,0,0,0,0,0c0.6,0,1.1-0.5,1.1-1.1v-8.1h1v8.2
				c0,0.6,0.5,1,1.1,1c0.5,0,1-0.4,1-1v-5.7l0.1-7.2c0-0.7,0-1.3,0-1.7c0.7,1.4,1.2,3,1.3,4.5C10.1,65.2,12.1,65.2,12,63.9z"/>
		</g>
	</g>
	<g id="standing-frontal-man-silhouette-10" transform="translate(4416.65 918.584)">
		<g id="Group_12860" transform="translate(0 0)">
			<ellipse id="Ellipse_9880" class="st0" cx="6" cy="53.4" rx="1.9" ry="1.9"/>
			<path id="Path_13354" class="st0" d="M12,63.9c-0.5-6.1-3.5-7.4-3.5-7.4c-1.9-1-4.1-0.8-5.8,0.5c-1.9,1.8-2.4,4.4-2.7,7
				c-0.2,1.3,1.9,1.3,2.1,0c0.1-1.5,0.5-3,1.2-4.4v1.5l0,7.2v5.7c0,0.6,0.4,1.1,1,1.1c0,0,0,0,0,0c0.6,0,1.1-0.5,1.1-1.1v-8.1h1v8.2
				c0,0.6,0.5,1,1.1,1c0.5,0,1-0.4,1-1v-5.7l0.1-7.2c0-0.7,0-1.3,0-1.7c0.7,1.4,1.2,3,1.3,4.5C10.1,65.2,12.1,65.2,12,63.9z"/>
		</g>
	</g>
	<g id="standing-frontal-man-silhouette-11" transform="translate(4416.65 968.968)">
		<g id="Group_12861" transform="translate(0 0)">
			<ellipse id="Ellipse_9881" class="st0" cx="6" cy="53.4" rx="1.9" ry="1.9"/>
			<path id="Path_13355" class="st0" d="M12,63.9c-0.5-6.1-3.5-7.4-3.5-7.4c-1.9-1-4.1-0.8-5.8,0.5c-1.9,1.8-2.4,4.4-2.7,7
				c-0.2,1.3,1.9,1.3,2.1,0c0.1-1.5,0.5-3,1.2-4.4v1.5l0,7.2v5.7c0,0.6,0.4,1.1,1,1.1c0,0,0,0,0,0c0.6,0,1.1-0.5,1.1-1.1v-8.1h1v8.2
				c0,0.6,0.5,1,1.1,1c0.5,0,1-0.4,1-1v-5.7l0.1-7.2c0-0.7,0-1.3,0-1.7c0.7,1.4,1.2,3,1.3,4.5C10.1,65.2,12.1,65.2,12,63.9z"/>
		</g>
	</g>
	<g id="standing-frontal-man-silhouette-12" transform="translate(4471.65 943.353)">
		<g id="Group_12862" transform="translate(0 0)">
			<ellipse id="Ellipse_9882" class="st0" cx="6" cy="53.4" rx="1.9" ry="1.9"/>
			<path id="Path_13356" class="st0" d="M12,63.9c-0.5-6.1-3.5-7.4-3.5-7.4c-1.9-1-4.1-0.8-5.8,0.5c-1.9,1.8-2.4,4.4-2.7,7
				c-0.2,1.3,1.9,1.3,2.1,0c0.1-1.5,0.5-3,1.2-4.4v1.5l0,7.2v5.7c0,0.6,0.4,1.1,1,1.1c0,0,0,0,0,0c0.6,0,1.1-0.5,1.1-1.1v-8.1h1v8.2
				c0,0.6,0.5,1,1.1,1c0.5,0,1-0.4,1-1v-5.7l0.1-7.2c0-0.7,0-1.3,0-1.7c0.7,1.4,1.2,3,1.3,4.5C10.1,65.2,12.1,65.2,12,63.9z"/>
		</g>
	</g>
	<g id="standing-frontal-man-silhouette-13" transform="translate(4471.65 893.419)">
		<g id="Group_12863" transform="translate(0 0)">
			<ellipse id="Ellipse_9883" class="st0" cx="6" cy="53.4" rx="1.9" ry="1.9"/>
			<path id="Path_13357" class="st0" d="M12,63.9c-0.5-6.1-3.5-7.4-3.5-7.4c-1.9-1-4.1-0.8-5.8,0.5c-1.9,1.8-2.4,4.4-2.7,7
				c-0.2,1.3,1.9,1.3,2.1,0c0.1-1.5,0.5-3,1.2-4.4v1.5l0,7.2v5.7c0,0.6,0.4,1.1,1,1.1c0,0,0,0,0,0c0.6,0,1.1-0.5,1.1-1.1v-8.1h1v8.2
				c0,0.6,0.5,1,1.1,1c0.5,0,1-0.4,1-1v-5.7l0.1-7.2c0-0.7,0-1.3,0-1.7c0.7,1.4,1.2,3,1.3,4.5C10.1,65.2,12.1,65.2,12,63.9z"/>
		</g>
	</g>
	<g id="standing-frontal-man-silhouette-14" transform="translate(4416.65 943.776)">
		<g id="Group_12864" transform="translate(0 0)">
			<ellipse id="Ellipse_9884" class="st0" cx="6" cy="53.4" rx="1.9" ry="1.9"/>
			<path id="Path_13358" class="st0" d="M12,63.9c-0.5-6.1-3.5-7.4-3.5-7.4c-1.9-1-4.1-0.8-5.8,0.5c-1.9,1.8-2.4,4.4-2.7,7
				c-0.2,1.3,1.9,1.3,2.1,0c0.1-1.5,0.5-3,1.2-4.4v1.5l0,7.2v5.7c0,0.6,0.4,1.1,1,1.1c0,0,0,0,0,0c0.6,0,1.1-0.5,1.1-1.1v-8.1h1v8.2
				c0,0.6,0.5,1,1.1,1c0.5,0,1-0.4,1-1v-5.7l0.1-7.2c0-0.7,0-1.3,0-1.7c0.7,1.4,1.2,3,1.3,4.5C10.1,65.2,12.1,65.2,12,63.9z"/>
		</g>
	</g>
	<g id="standing-frontal-man-silhouette-15" transform="translate(4471.65 918.16)">
		<g id="Group_12865" transform="translate(0 0)">
			<ellipse id="Ellipse_9885" class="st0" cx="6" cy="53.4" rx="1.9" ry="1.9"/>
			<path id="Path_13359" class="st0" d="M12,63.9c-0.5-6.1-3.5-7.4-3.5-7.4c-1.9-1-4.1-0.8-5.8,0.5c-1.9,1.8-2.4,4.4-2.7,7
				c-0.2,1.3,1.9,1.3,2.1,0c0.1-1.5,0.5-3,1.2-4.4v1.5l0,7.2v5.7c0,0.6,0.4,1.1,1,1.1c0,0,0,0,0,0c0.6,0,1.1-0.5,1.1-1.1v-8.1h1v8.2
				c0,0.6,0.5,1,1.1,1c0.5,0,1-0.4,1-1v-5.7l0.1-7.2c0-0.7,0-1.3,0-1.7c0.7,1.4,1.2,3,1.3,4.5C10.1,65.2,12.1,65.2,12,63.9z"/>
		</g>
	</g>
	<g id="standing-frontal-man-silhouette-16" transform="translate(4471.65 968.545)">
		<g id="Group_12866" transform="translate(0 0)">
			<ellipse id="Ellipse_9886" class="st0" cx="6" cy="53.4" rx="1.9" ry="1.9"/>
			<path id="Path_13360" class="st0" d="M12,63.9c-0.5-6.1-3.5-7.4-3.5-7.4c-1.9-1-4.1-0.8-5.8,0.5c-1.9,1.8-2.4,4.4-2.7,7
				c-0.2,1.3,1.9,1.3,2.1,0c0.1-1.5,0.5-3,1.2-4.4v1.5l0,7.2v5.7c0,0.6,0.4,1.1,1,1.1c0,0,0,0,0,0c0.6,0,1.1-0.5,1.1-1.1v-8.1h1v8.2
				c0,0.6,0.5,1,1.1,1c0.5,0,1-0.4,1-1v-5.7l0.1-7.2c0-0.7,0-1.3,0-1.7c0.7,1.4,1.2,3,1.3,4.5C10.1,65.2,12.1,65.2,12,63.9z"/>
		</g>
	</g>
	<g id="standing-frontal-man-silhouette-17" transform="translate(4416.65 893.611)">
		<g id="Group_12867" transform="translate(0 0)">
			<ellipse id="Ellipse_9887" class="st0" cx="6" cy="53.4" rx="1.9" ry="1.9"/>
			<path id="Path_13361" class="st0" d="M12,63.9c-0.5-6.1-3.5-7.4-3.5-7.4c-1.9-1-4.1-0.8-5.8,0.5c-1.9,1.8-2.4,4.4-2.7,7
				c-0.2,1.3,1.9,1.3,2.1,0c0.1-1.5,0.5-3,1.2-4.4v1.5l0,7.2v5.7c0,0.6,0.4,1.1,1,1.1c0,0,0,0,0,0c0.6,0,1.1-0.5,1.1-1.1v-8.1h1v8.2
				c0,0.6,0.5,1,1.1,1c0.5,0,1-0.4,1-1v-5.7l0.1-7.2c0-0.7,0-1.3,0-1.7c0.7,1.4,1.2,3,1.3,4.5C10.1,65.2,12.1,65.2,12,63.9z"/>
		</g>
	</g>
	<g id="standing-frontal-man-silhouette-18" transform="translate(4470.846 1220.584)">
		<g id="Group_12868" transform="translate(0 0)">
			<ellipse id="Ellipse_9888" class="st0" cx="6" cy="53.4" rx="1.9" ry="1.9"/>
			<path id="Path_13362" class="st0" d="M12,63.9c-0.5-6.1-3.5-7.4-3.5-7.4c-1.9-1-4.1-0.8-5.8,0.5c-1.9,1.8-2.4,4.4-2.7,7
				c-0.2,1.3,1.9,1.3,2.1,0c0.1-1.5,0.5-3,1.2-4.4v1.5l0,7.2v5.7c0,0.6,0.4,1.1,1,1.1c0,0,0,0,0,0c0.6,0,1.1-0.5,1.1-1.1v-8.1h1v8.2
				c0,0.6,0.5,1,1.1,1c0.5,0,1-0.4,1-1v-5.7l0.1-7.2c0-0.7,0-1.3,0-1.7c0.7,1.4,1.2,3,1.3,4.5C10.1,65.2,12.1,65.2,12,63.9z"/>
		</g>
	</g>
	<g id="standing-frontal-man-silhouette-19" transform="translate(4512.582 1019.584)">
		<g id="Group_12869" transform="translate(0 0)">
			<ellipse id="Ellipse_9889" class="st0" cx="6" cy="53.4" rx="1.9" ry="1.9"/>
			<path id="Path_13363" class="st0" d="M12,63.9c-0.5-6.1-3.5-7.4-3.5-7.4c-1.9-1-4.1-0.8-5.8,0.5c-1.9,1.8-2.4,4.4-2.7,7
				c-0.2,1.3,1.9,1.3,2.1,0c0.1-1.5,0.5-3,1.2-4.4v1.5l0,7.2v5.7c0,0.6,0.4,1.1,1,1.1c0,0,0,0,0,0c0.6,0,1.1-0.5,1.1-1.1v-8.1h1v8.2
				c0,0.6,0.5,1,1.1,1c0.5,0,1-0.4,1-1v-5.7l0.1-7.2c0-0.7,0-1.3,0-1.7c0.7,1.4,1.2,3,1.3,4.5C10.1,65.2,12.1,65.2,12,63.9z"/>
		</g>
	</g>
	<g id="standing-frontal-man-silhouette-20" transform="translate(4499.107 1019.584)">
		<g id="Group_12870" transform="translate(0 0)">
			<ellipse id="Ellipse_9890" class="st0" cx="6" cy="53.4" rx="1.9" ry="1.9"/>
			<path id="Path_13364" class="st0" d="M12,63.9c-0.5-6.1-3.5-7.4-3.5-7.4c-1.9-1-4.1-0.8-5.8,0.5c-1.9,1.8-2.4,4.4-2.7,7
				c-0.2,1.3,1.9,1.3,2.1,0c0.1-1.5,0.5-3,1.2-4.4v1.5l0,7.2v5.7c0,0.6,0.4,1.1,1,1.1c0,0,0,0,0,0c0.6,0,1.1-0.5,1.1-1.1v-8.1h1v8.2
				c0,0.6,0.5,1,1.1,1c0.5,0,1-0.4,1-1v-5.7l0.1-7.2c0-0.7,0-1.3,0-1.7c0.7,1.4,1.2,3,1.3,4.5C10.1,65.2,12.1,65.2,12,63.9z"/>
		</g>
	</g>
	<g id="standing-frontal-man-silhouette-21" transform="translate(4470.846 1270.968)">
		<g id="Group_12871" transform="translate(0 0)">
			<ellipse id="Ellipse_9891" class="st0" cx="6" cy="53.4" rx="1.9" ry="1.9"/>
			<path id="Path_13365" class="st0" d="M12,63.9c-0.5-6.1-3.5-7.4-3.5-7.4c-1.9-1-4.1-0.8-5.8,0.5c-1.9,1.8-2.4,4.4-2.7,7
				c-0.2,1.3,1.9,1.3,2.1,0c0.1-1.5,0.5-3,1.2-4.4v1.5l0,7.2v5.7c0,0.6,0.4,1.1,1,1.1c0,0,0,0,0,0c0.6,0,1.1-0.5,1.1-1.1v-8.1h1v8.2
				c0,0.6,0.5,1,1.1,1c0.5,0,1-0.4,1-1v-5.7l0.1-7.2c0-0.7,0-1.3,0-1.7c0.7,1.4,1.2,3,1.3,4.5C10.1,65.2,12.1,65.2,12,63.9z"/>
		</g>
	</g>
	<g id="standing-frontal-man-silhouette-22" transform="translate(4470.846 1321.353)">
		<g id="Group_12872" transform="translate(0 0)">
			<ellipse id="Ellipse_9892" class="st0" cx="6" cy="53.4" rx="1.9" ry="1.9"/>
			<path id="Path_13366" class="st0" d="M12,63.9c-0.5-6.1-3.5-7.4-3.5-7.4c-1.9-1-4.1-0.8-5.8,0.5c-1.9,1.8-2.4,4.4-2.7,7
				c-0.2,1.3,1.9,1.3,2.1,0c0.1-1.5,0.5-3,1.2-4.4v1.5l0,7.2v5.7c0,0.6,0.4,1.1,1,1.1c0,0,0,0,0,0c0.6,0,1.1-0.5,1.1-1.1v-8.1h1v8.2
				c0,0.6,0.5,1,1.1,1c0.5,0,1-0.4,1-1v-5.7l0.1-7.2c0-0.7,0-1.3,0-1.7c0.7,1.4,1.2,3,1.3,4.5C10.1,65.2,12.1,65.2,12,63.9z"/>
		</g>
	</g>
	<g id="standing-frontal-man-silhouette-23" transform="translate(4470.846 1170.419)">
		<g id="Group_12873" transform="translate(0 0)">
			<ellipse id="Ellipse_9893" class="st0" cx="6" cy="53.4" rx="1.9" ry="1.9"/>
			<path id="Path_13367" class="st0" d="M12,63.9c-0.5-6.1-3.5-7.4-3.5-7.4c-1.9-1-4.1-0.8-5.8,0.5c-1.9,1.8-2.4,4.4-2.7,7
				c-0.2,1.3,1.9,1.3,2.1,0c0.1-1.5,0.5-3,1.2-4.4v1.5l0,7.2v5.7c0,0.6,0.4,1.1,1,1.1c0,0,0,0,0,0c0.6,0,1.1-0.5,1.1-1.1v-8.1h1v8.2
				c0,0.6,0.5,1,1.1,1c0.5,0,1-0.4,1-1v-5.7l0.1-7.2c0-0.7,0-1.3,0-1.7c0.7,1.4,1.2,3,1.3,4.5C10.1,65.2,12.1,65.2,12,63.9z"/>
		</g>
	</g>
	<g id="standing-frontal-man-silhouette-24" transform="translate(4470.846 1245.776)">
		<g id="Group_12874" transform="translate(0 0)">
			<ellipse id="Ellipse_9894" class="st0" cx="6" cy="53.4" rx="1.9" ry="1.9"/>
			<path id="Path_13368" class="st0" d="M12,63.9c-0.5-6.1-3.5-7.4-3.5-7.4c-1.9-1-4.1-0.8-5.8,0.5c-1.9,1.8-2.4,4.4-2.7,7
				c-0.2,1.3,1.9,1.3,2.1,0c0.1-1.5,0.5-3,1.2-4.4v1.5l0,7.2v5.7c0,0.6,0.4,1.1,1,1.1c0,0,0,0,0,0c0.6,0,1.1-0.5,1.1-1.1v-8.1h1v8.2
				c0,0.6,0.5,1,1.1,1c0.5,0,1-0.4,1-1v-5.7l0.1-7.2c0-0.7,0-1.3,0-1.7c0.7,1.4,1.2,3,1.3,4.5C10.1,65.2,12.1,65.2,12,63.9z"/>
		</g>
	</g>
	<g id="standing-frontal-man-silhouette-25" transform="translate(4470.846 1296.16)">
		<g id="Group_12875" transform="translate(0 0)">
			<ellipse id="Ellipse_9895" class="st0" cx="6" cy="53.4" rx="1.9" ry="1.9"/>
			<path id="Path_13369" class="st0" d="M12,63.9c-0.5-6.1-3.5-7.4-3.5-7.4c-1.9-1-4.1-0.8-5.8,0.5c-1.9,1.8-2.4,4.4-2.7,7
				c-0.2,1.3,1.9,1.3,2.1,0c0.1-1.5,0.5-3,1.2-4.4v1.5l0,7.2v5.7c0,0.6,0.4,1.1,1,1.1c0,0,0,0,0,0c0.6,0,1.1-0.5,1.1-1.1v-8.1h1v8.2
				c0,0.6,0.5,1,1.1,1c0.5,0,1-0.4,1-1v-5.7l0.1-7.2c0-0.7,0-1.3,0-1.7c0.7,1.4,1.2,3,1.3,4.5C10.1,65.2,12.1,65.2,12,63.9z"/>
		</g>
	</g>
	<g id="standing-frontal-man-silhouette-26" transform="translate(4470.846 1346.545)">
		<g id="Group_12876" transform="translate(0 0)">
			<ellipse id="Ellipse_9896" class="st0" cx="6" cy="53.4" rx="1.9" ry="1.9"/>
			<path id="Path_13370" class="st0" d="M12,63.9c-0.5-6.1-3.5-7.4-3.5-7.4c-1.9-1-4.1-0.8-5.8,0.5c-1.9,1.8-2.4,4.4-2.7,7
				c-0.2,1.3,1.9,1.3,2.1,0c0.1-1.5,0.5-3,1.2-4.4v1.5l0,7.2v5.7c0,0.6,0.4,1.1,1,1.1c0,0,0,0,0,0c0.6,0,1.1-0.5,1.1-1.1v-8.1h1v8.2
				c0,0.6,0.5,1,1.1,1c0.5,0,1-0.4,1-1v-5.7l0.1-7.2c0-0.7,0-1.3,0-1.7c0.7,1.4,1.2,3,1.3,4.5C10.1,65.2,12.1,65.2,12,63.9z"/>
		</g>
	</g>
	<g id="standing-frontal-man-silhouette-27" transform="translate(4470.846 1195.611)">
		<g id="Group_12877" transform="translate(0 0)">
			<ellipse id="Ellipse_9897" class="st0" cx="6" cy="53.4" rx="1.9" ry="1.9"/>
			<path id="Path_13371" class="st0" d="M12,63.9c-0.5-6.1-3.5-7.4-3.5-7.4c-1.9-1-4.1-0.8-5.8,0.5c-1.9,1.8-2.4,4.4-2.7,7
				c-0.2,1.3,1.9,1.3,2.1,0c0.1-1.5,0.5-3,1.2-4.4v1.5l0,7.2v5.7c0,0.6,0.4,1.1,1,1.1c0,0,0,0,0,0c0.6,0,1.1-0.5,1.1-1.1v-8.1h1v8.2
				c0,0.6,0.5,1,1.1,1c0.5,0,1-0.4,1-1v-5.7l0.1-7.2c0-0.7,0-1.3,0-1.7c0.7,1.4,1.2,3,1.3,4.5C10.1,65.2,12.1,65.2,12,63.9z"/>
		</g>
	</g>
	<g id="standing-frontal-man-silhouette-28" transform="translate(4416.455 1019.584)">
		<g id="Group_12878" transform="translate(0 0)">
			<ellipse id="Ellipse_9898" class="st0" cx="6" cy="53.4" rx="1.9" ry="1.9"/>
			<path id="Path_13372" class="st0" d="M12,63.9c-0.5-6.1-3.5-7.4-3.5-7.4c-1.9-1-4.1-0.8-5.8,0.5c-1.9,1.8-2.4,4.4-2.7,7
				c-0.2,1.3,1.9,1.3,2.1,0c0.1-1.5,0.5-3,1.2-4.4v1.5l0,7.2v5.7c0,0.6,0.4,1.1,1,1.1c0,0,0,0,0,0c0.6,0,1.1-0.5,1.1-1.1v-8.1h1v8.2
				c0,0.6,0.5,1,1.1,1c0.5,0,1-0.4,1-1v-5.7l0.1-7.2c0-0.7,0-1.3,0-1.7c0.7,1.4,1.2,3,1.3,4.5C10.1,65.2,12.1,65.2,12,63.9z"/>
		</g>
	</g>
	<g id="standing-frontal-man-silhouette-29" transform="translate(4416.455 1069.968)">
		<g id="Group_12879" transform="translate(0 0)">
			<ellipse id="Ellipse_9899" class="st0" cx="6" cy="53.4" rx="1.9" ry="1.9"/>
			<path id="Path_13373" class="st0" d="M12,63.9c-0.5-6.1-3.5-7.4-3.5-7.4c-1.9-1-4.1-0.8-5.8,0.5c-1.9,1.8-2.4,4.4-2.7,7
				c-0.2,1.3,1.9,1.3,2.1,0c0.1-1.5,0.5-3,1.2-4.4v1.5l0,7.2v5.7c0,0.6,0.4,1.1,1,1.1c0,0,0,0,0,0c0.6,0,1.1-0.5,1.1-1.1v-8.1h1v8.2
				c0,0.6,0.5,1,1.1,1c0.5,0,1-0.4,1-1v-5.7l0.1-7.2c0-0.7,0-1.3,0-1.7c0.7,1.4,1.2,3,1.3,4.5C10.1,65.2,12.1,65.2,12,63.9z"/>
		</g>
	</g>
	<g id="standing-frontal-man-silhouette-30" transform="translate(4416.455 1120.353)">
		<g id="Group_12880" transform="translate(0 0)">
			<ellipse id="Ellipse_9900" class="st0" cx="6" cy="53.4" rx="1.9" ry="1.9"/>
			<path id="Path_13374" class="st0" d="M12,63.9c-0.5-6.1-3.5-7.4-3.5-7.4c-1.9-1-4.1-0.8-5.8,0.5c-1.9,1.8-2.4,4.4-2.7,7
				c-0.2,1.3,1.9,1.3,2.1,0c0.1-1.5,0.5-3,1.2-4.4v1.5l0,7.2v5.7c0,0.6,0.4,1.1,1,1.1c0,0,0,0,0,0c0.6,0,1.1-0.5,1.1-1.1v-8.1h1v8.2
				c0,0.6,0.5,1,1.1,1c0.5,0,1-0.4,1-1v-5.7l0.1-7.2c0-0.7,0-1.3,0-1.7c0.7,1.4,1.2,3,1.3,4.5C10.1,65.2,12.1,65.2,12,63.9z"/>
		</g>
	</g>
	<g id="standing-frontal-man-silhouette-31" transform="translate(4416.455 1044.776)">
		<g id="Group_12881" transform="translate(0 0)">
			<ellipse id="Ellipse_9901" class="st0" cx="6" cy="53.4" rx="1.9" ry="1.9"/>
			<path id="Path_13375" class="st0" d="M12,63.9c-0.5-6.1-3.5-7.4-3.5-7.4c-1.9-1-4.1-0.8-5.8,0.5c-1.9,1.8-2.4,4.4-2.7,7
				c-0.2,1.3,1.9,1.3,2.1,0c0.1-1.5,0.5-3,1.2-4.4v1.5l0,7.2v5.7c0,0.6,0.4,1.1,1,1.1c0,0,0,0,0,0c0.6,0,1.1-0.5,1.1-1.1v-8.1h1v8.2
				c0,0.6,0.5,1,1.1,1c0.5,0,1-0.4,1-1v-5.7l0.1-7.2c0-0.7,0-1.3,0-1.7c0.7,1.4,1.2,3,1.3,4.5C10.1,65.2,12.1,65.2,12,63.9z"/>
		</g>
	</g>
	<g id="standing-frontal-man-silhouette-32" transform="translate(4416.455 1095.16)">
		<g id="Group_12882" transform="translate(0 0)">
			<ellipse id="Ellipse_9902" class="st0" cx="6" cy="53.4" rx="1.9" ry="1.9"/>
			<path id="Path_13376" class="st0" d="M12,63.9c-0.5-6.1-3.5-7.4-3.5-7.4c-1.9-1-4.1-0.8-5.8,0.5c-1.9,1.8-2.4,4.4-2.7,7
				c-0.2,1.3,1.9,1.3,2.1,0c0.1-1.5,0.5-3,1.2-4.4v1.5l0,7.2v5.7c0,0.6,0.4,1.1,1,1.1c0,0,0,0,0,0c0.6,0,1.1-0.5,1.1-1.1v-8.1h1v8.2
				c0,0.6,0.5,1,1.1,1c0.5,0,1-0.4,1-1v-5.7l0.1-7.2c0-0.7,0-1.3,0-1.7c0.7,1.4,1.2,3,1.3,4.5C10.1,65.2,12.1,65.2,12,63.9z"/>
		</g>
	</g>
	<g id="standing-frontal-man-silhouette-33" transform="translate(4416.455 1145.545)">
		<g id="Group_12883" transform="translate(0 0)">
			<ellipse id="Ellipse_9903" class="st0" cx="6" cy="53.4" rx="1.9" ry="1.9"/>
			<path id="Path_13377" class="st0" d="M12,63.9c-0.5-6.1-3.5-7.4-3.5-7.4c-1.9-1-4.1-0.8-5.8,0.5c-1.9,1.8-2.4,4.4-2.7,7
				c-0.2,1.3,1.9,1.3,2.1,0c0.1-1.5,0.5-3,1.2-4.4v1.5l0,7.2v5.7c0,0.6,0.4,1.1,1,1.1c0,0,0,0,0,0c0.6,0,1.1-0.5,1.1-1.1v-8.1h1v8.2
				c0,0.6,0.5,1,1.1,1c0.5,0,1-0.4,1-1v-5.7l0.1-7.2c0-0.7,0-1.3,0-1.7c0.7,1.4,1.2,3,1.3,4.5C10.1,65.2,12.1,65.2,12,63.9z"/>
		</g>
	</g>
	<g id="standing-frontal-man-silhouette-34" transform="translate(4416.455 994.611)">
		<g id="Group_12884" transform="translate(0 0)">
			<ellipse id="Ellipse_9904" class="st0" cx="6" cy="53.4" rx="1.9" ry="1.9"/>
			<path id="Path_13378" class="st0" d="M12,63.9c-0.5-6.1-3.5-7.4-3.5-7.4c-1.9-1-4.1-0.8-5.8,0.5c-1.9,1.8-2.4,4.4-2.7,7
				c-0.2,1.3,1.9,1.3,2.1,0c0.1-1.5,0.5-3,1.2-4.4v1.5l0,7.2v5.7c0,0.6,0.4,1.1,1,1.1c0,0,0,0,0,0c0.6,0,1.1-0.5,1.1-1.1v-8.1h1v8.2
				c0,0.6,0.5,1,1.1,1c0.5,0,1-0.4,1-1v-5.7l0.1-7.2c0-0.7,0-1.3,0-1.7c0.7,1.4,1.2,3,1.3,4.5C10.1,65.2,12.1,65.2,12,63.9z"/>
		</g>
	</g>
	<g id="standing-frontal-man-silhouette-35" transform="translate(4471.258 1069.968)">
		<g id="Group_12885" transform="translate(0 0)">
			<ellipse id="Ellipse_9905" class="st0" cx="6" cy="53.4" rx="1.9" ry="1.9"/>
			<path id="Path_13379" class="st0" d="M12,63.9c-0.5-6.1-3.5-7.4-3.5-7.4c-1.9-1-4.1-0.8-5.8,0.5c-1.9,1.8-2.4,4.4-2.7,7
				c-0.2,1.3,1.9,1.3,2.1,0c0.1-1.5,0.5-3,1.2-4.4v1.5l0,7.2v5.7c0,0.6,0.4,1.1,1,1.1c0,0,0,0,0,0c0.6,0,1.1-0.5,1.1-1.1v-8.1h1v8.2
				c0,0.6,0.5,1,1.1,1c0.5,0,1-0.4,1-1v-5.7l0.1-7.2c0-0.7,0-1.3,0-1.7c0.7,1.4,1.2,3,1.3,4.5C10.1,65.2,12.1,65.2,12,63.9z"/>
		</g>
	</g>
	<g id="standing-frontal-man-silhouette-36" transform="translate(4471.258 1120.353)">
		<g id="Group_12886" transform="translate(0 0)">
			<ellipse id="Ellipse_9906" class="st0" cx="6" cy="53.4" rx="1.9" ry="1.9"/>
			<path id="Path_13380" class="st0" d="M12,63.9c-0.5-6.1-3.5-7.4-3.5-7.4c-1.9-1-4.1-0.8-5.8,0.5c-1.9,1.8-2.4,4.4-2.7,7
				c-0.2,1.3,1.9,1.3,2.1,0c0.1-1.5,0.5-3,1.2-4.4v1.5l0,7.2v5.7c0,0.6,0.4,1.1,1,1.1c0,0,0,0,0,0c0.6,0,1.1-0.5,1.1-1.1v-8.1h1v8.2
				c0,0.6,0.5,1,1.1,1c0.5,0,1-0.4,1-1v-5.7l0.1-7.2c0-0.7,0-1.3,0-1.7c0.7,1.4,1.2,3,1.3,4.5C10.1,65.2,12.1,65.2,12,63.9z"/>
		</g>
	</g>
	<g id="standing-frontal-man-silhouette-37" transform="translate(4471.258 1044.776)">
		<g id="Group_12887" transform="translate(0 0)">
			<ellipse id="Ellipse_9907" class="st0" cx="6" cy="53.4" rx="1.9" ry="1.9"/>
			<path id="Path_13381" class="st0" d="M12,63.9c-0.5-6.1-3.5-7.4-3.5-7.4c-1.9-1-4.1-0.8-5.8,0.5c-1.9,1.8-2.4,4.4-2.7,7
				c-0.2,1.3,1.9,1.3,2.1,0c0.1-1.5,0.5-3,1.2-4.4v1.5l0,7.2v5.7c0,0.6,0.4,1.1,1,1.1c0,0,0,0,0,0c0.6,0,1.1-0.5,1.1-1.1v-8.1h1v8.2
				c0,0.6,0.5,1,1.1,1c0.5,0,1-0.4,1-1v-5.7l0.1-7.2c0-0.7,0-1.3,0-1.7c0.7,1.4,1.2,3,1.3,4.5C10.1,65.2,12.1,65.2,12,63.9z"/>
		</g>
	</g>
	<g id="standing-frontal-man-silhouette-38" transform="translate(4471.258 1095.16)">
		<g id="Group_12888" transform="translate(0 0)">
			<ellipse id="Ellipse_9908" class="st0" cx="6" cy="53.4" rx="1.9" ry="1.9"/>
			<path id="Path_13382" class="st0" d="M12,63.9c-0.5-6.1-3.5-7.4-3.5-7.4c-1.9-1-4.1-0.8-5.8,0.5c-1.9,1.8-2.4,4.4-2.7,7
				c-0.2,1.3,1.9,1.3,2.1,0c0.1-1.5,0.5-3,1.2-4.4v1.5l0,7.2v5.7c0,0.6,0.4,1.1,1,1.1c0,0,0,0,0,0c0.6,0,1.1-0.5,1.1-1.1v-8.1h1v8.2
				c0,0.6,0.5,1,1.1,1c0.5,0,1-0.4,1-1v-5.7l0.1-7.2c0-0.7,0-1.3,0-1.7c0.7,1.4,1.2,3,1.3,4.5C10.1,65.2,12.1,65.2,12,63.9z"/>
		</g>
	</g>
	<g id="standing-frontal-man-silhouette-39" transform="translate(4471.258 1145.545)">
		<g id="Group_12889" transform="translate(0 0)">
			<ellipse id="Ellipse_9909" class="st0" cx="6" cy="53.4" rx="1.9" ry="1.9"/>
			<path id="Path_13383" class="st0" d="M12,63.9c-0.5-6.1-3.5-7.4-3.5-7.4c-1.9-1-4.1-0.8-5.8,0.5c-1.9,1.8-2.4,4.4-2.7,7
				c-0.2,1.3,1.9,1.3,2.1,0c0.1-1.5,0.5-3,1.2-4.4v1.5l0,7.2v5.7c0,0.6,0.4,1.1,1,1.1c0,0,0,0,0,0c0.6,0,1.1-0.5,1.1-1.1v-8.1h1v8.2
				c0,0.6,0.5,1,1.1,1c0.5,0,1-0.4,1-1v-5.7l0.1-7.2c0-0.7,0-1.3,0-1.7c0.7,1.4,1.2,3,1.3,4.5C10.1,65.2,12.1,65.2,12,63.9z"/>
		</g>
	</g>
	<g id="standing-frontal-man-silhouette-40" transform="translate(4471.258 994.611)">
		<g id="Group_12890" transform="translate(0 0)">
			<ellipse id="Ellipse_9910" class="st0" cx="6" cy="53.4" rx="1.9" ry="1.9"/>
			<path id="Path_13384" class="st0" d="M12,63.9c-0.5-6.1-3.5-7.4-3.5-7.4c-1.9-1-4.1-0.8-5.8,0.5c-1.9,1.8-2.4,4.4-2.7,7
				c-0.2,1.3,1.9,1.3,2.1,0c0.1-1.5,0.5-3,1.2-4.4v1.5l0,7.2v5.7c0,0.6,0.4,1.1,1,1.1c0,0,0,0,0,0c0.6,0,1.1-0.5,1.1-1.1v-8.1h1v8.2
				c0,0.6,0.5,1,1.1,1c0.5,0,1-0.4,1-1v-5.7l0.1-7.2c0-0.7,0-1.3,0-1.7c0.7,1.4,1.2,3,1.3,4.5C10.1,65.2,12.1,65.2,12,63.9z"/>
		</g>
	</g>
	<g id="standing-frontal-man-silhouette-41" transform="translate(4443.445 1220.584)">
		<g id="Group_12891" transform="translate(0 0)">
			<ellipse id="Ellipse_9911" class="st0" cx="6" cy="53.4" rx="1.9" ry="1.9"/>
			<path id="Path_13385" class="st0" d="M12,63.9c-0.5-6.1-3.5-7.4-3.5-7.4c-1.9-1-4.1-0.8-5.8,0.5c-1.9,1.8-2.4,4.4-2.7,7
				c-0.2,1.3,1.9,1.3,2.1,0c0.1-1.5,0.5-3,1.2-4.4v1.5l0,7.2v5.7c0,0.6,0.4,1.1,1,1.1c0,0,0,0,0,0c0.6,0,1.1-0.5,1.1-1.1v-8.1h1v8.2
				c0,0.6,0.5,1,1.1,1c0.5,0,1-0.4,1-1v-5.7l0.1-7.2c0-0.7,0-1.3,0-1.7c0.7,1.4,1.2,3,1.3,4.5C10.1,65.2,12.1,65.2,12,63.9z"/>
		</g>
	</g>
	<g id="standing-frontal-man-silhouette-42" transform="translate(4471.705 1019.584)">
		<g id="Group_12892" transform="translate(0 0)">
			<ellipse id="Ellipse_9912" class="st0" cx="6" cy="53.4" rx="1.9" ry="1.9"/>
			<path id="Path_13386" class="st0" d="M12,63.9c-0.5-6.1-3.5-7.4-3.5-7.4c-1.9-1-4.1-0.8-5.8,0.5c-1.9,1.8-2.4,4.4-2.7,7
				c-0.2,1.3,1.9,1.3,2.1,0c0.1-1.5,0.5-3,1.2-4.4v1.5l0,7.2v5.7c0,0.6,0.4,1.1,1,1.1c0,0,0,0,0,0c0.6,0,1.1-0.5,1.1-1.1v-8.1h1v8.2
				c0,0.6,0.5,1,1.1,1c0.5,0,1-0.4,1-1v-5.7l0.1-7.2c0-0.7,0-1.3,0-1.7c0.7,1.4,1.2,3,1.3,4.5C10.1,65.2,12.1,65.2,12,63.9z"/>
		</g>
	</g>
	<g id="standing-frontal-man-silhouette-43" transform="translate(4443.445 1270.968)">
		<g id="Group_12893" transform="translate(0 0)">
			<ellipse id="Ellipse_9913" class="st0" cx="6" cy="53.4" rx="1.9" ry="1.9"/>
			<path id="Path_13387" class="st0" d="M12,63.9c-0.5-6.1-3.5-7.4-3.5-7.4c-1.9-1-4.1-0.8-5.8,0.5c-1.9,1.8-2.4,4.4-2.7,7
				c-0.2,1.3,1.9,1.3,2.1,0c0.1-1.5,0.5-3,1.2-4.4v1.5l0,7.2v5.7c0,0.6,0.4,1.1,1,1.1c0,0,0,0,0,0c0.6,0,1.1-0.5,1.1-1.1v-8.1h1v8.2
				c0,0.6,0.5,1,1.1,1c0.5,0,1-0.4,1-1v-5.7l0.1-7.2c0-0.7,0-1.3,0-1.7c0.7,1.4,1.2,3,1.3,4.5C10.1,65.2,12.1,65.2,12,63.9z"/>
		</g>
	</g>
	<g id="standing-frontal-man-silhouette-44" transform="translate(4443.445 1321.353)">
		<g id="Group_12894" transform="translate(0 0)">
			<ellipse id="Ellipse_9914" class="st0" cx="6" cy="53.4" rx="1.9" ry="1.9"/>
			<path id="Path_13388" class="st0" d="M12,63.9c-0.5-6.1-3.5-7.4-3.5-7.4c-1.9-1-4.1-0.8-5.8,0.5c-1.9,1.8-2.4,4.4-2.7,7
				c-0.2,1.3,1.9,1.3,2.1,0c0.1-1.5,0.5-3,1.2-4.4v1.5l0,7.2v5.7c0,0.6,0.4,1.1,1,1.1c0,0,0,0,0,0c0.6,0,1.1-0.5,1.1-1.1v-8.1h1v8.2
				c0,0.6,0.5,1,1.1,1c0.5,0,1-0.4,1-1v-5.7l0.1-7.2c0-0.7,0-1.3,0-1.7c0.7,1.4,1.2,3,1.3,4.5C10.1,65.2,12.1,65.2,12,63.9z"/>
		</g>
	</g>
	<g id="standing-frontal-man-silhouette-45" transform="translate(4443.445 1170.419)">
		<g id="Group_12895" transform="translate(0 0)">
			<ellipse id="Ellipse_9915" class="st0" cx="6" cy="53.4" rx="1.9" ry="1.9"/>
			<path id="Path_13389" class="st0" d="M12,63.9c-0.5-6.1-3.5-7.4-3.5-7.4c-1.9-1-4.1-0.8-5.8,0.5c-1.9,1.8-2.4,4.4-2.7,7
				c-0.2,1.3,1.9,1.3,2.1,0c0.1-1.5,0.5-3,1.2-4.4v1.5l0,7.2v5.7c0,0.6,0.4,1.1,1,1.1c0,0,0,0,0,0c0.6,0,1.1-0.5,1.1-1.1v-8.1h1v8.2
				c0,0.6,0.5,1,1.1,1c0.5,0,1-0.4,1-1v-5.7l0.1-7.2c0-0.7,0-1.3,0-1.7c0.7,1.4,1.2,3,1.3,4.5C10.1,65.2,12.1,65.2,12,63.9z"/>
		</g>
	</g>
	<g id="standing-frontal-man-silhouette-46" transform="translate(4443.445 1245.776)">
		<g id="Group_12896" transform="translate(0 0)">
			<ellipse id="Ellipse_9916" class="st0" cx="6" cy="53.4" rx="1.9" ry="1.9"/>
			<path id="Path_13390" class="st0" d="M12,63.9c-0.5-6.1-3.5-7.4-3.5-7.4c-1.9-1-4.1-0.8-5.8,0.5c-1.9,1.8-2.4,4.4-2.7,7
				c-0.2,1.3,1.9,1.3,2.1,0c0.1-1.5,0.5-3,1.2-4.4v1.5l0,7.2v5.7c0,0.6,0.4,1.1,1,1.1c0,0,0,0,0,0c0.6,0,1.1-0.5,1.1-1.1v-8.1h1v8.2
				c0,0.6,0.5,1,1.1,1c0.5,0,1-0.4,1-1v-5.7l0.1-7.2c0-0.7,0-1.3,0-1.7c0.7,1.4,1.2,3,1.3,4.5C10.1,65.2,12.1,65.2,12,63.9z"/>
		</g>
	</g>
	<g id="standing-frontal-man-silhouette-47" transform="translate(4443.445 1296.16)">
		<g id="Group_12897" transform="translate(0 0)">
			<ellipse id="Ellipse_9917" class="st0" cx="6" cy="53.4" rx="1.9" ry="1.9"/>
			<path id="Path_13391" class="st0" d="M12,63.9c-0.5-6.1-3.5-7.4-3.5-7.4c-1.9-1-4.1-0.8-5.8,0.5c-1.9,1.8-2.4,4.4-2.7,7
				c-0.2,1.3,1.9,1.3,2.1,0c0.1-1.5,0.5-3,1.2-4.4v1.5l0,7.2v5.7c0,0.6,0.4,1.1,1,1.1c0,0,0,0,0,0c0.6,0,1.1-0.5,1.1-1.1v-8.1h1v8.2
				c0,0.6,0.5,1,1.1,1c0.5,0,1-0.4,1-1v-5.7l0.1-7.2c0-0.7,0-1.3,0-1.7c0.7,1.4,1.2,3,1.3,4.5C10.1,65.2,12.1,65.2,12,63.9z"/>
		</g>
	</g>
	<g id="standing-frontal-man-silhouette-48" transform="translate(4443.445 1346.545)">
		<g id="Group_12898" transform="translate(0 0)">
			<ellipse id="Ellipse_9918" class="st0" cx="6" cy="53.4" rx="1.9" ry="1.9"/>
			<path id="Path_13392" class="st0" d="M12,63.9c-0.5-6.1-3.5-7.4-3.5-7.4c-1.9-1-4.1-0.8-5.8,0.5c-1.9,1.8-2.4,4.4-2.7,7
				c-0.2,1.3,1.9,1.3,2.1,0c0.1-1.5,0.5-3,1.2-4.4v1.5l0,7.2v5.7c0,0.6,0.4,1.1,1,1.1c0,0,0,0,0,0c0.6,0,1.1-0.5,1.1-1.1v-8.1h1v8.2
				c0,0.6,0.5,1,1.1,1c0.5,0,1-0.4,1-1v-5.7l0.1-7.2c0-0.7,0-1.3,0-1.7c0.7,1.4,1.2,3,1.3,4.5C10.1,65.2,12.1,65.2,12,63.9z"/>
		</g>
	</g>
	<g id="standing-frontal-man-silhouette-49" transform="translate(4443.445 1195.611)">
		<g id="Group_12899" transform="translate(0 0)">
			<ellipse id="Ellipse_9919" class="st0" cx="6" cy="53.4" rx="1.9" ry="1.9"/>
			<path id="Path_13393" class="st0" d="M12,63.9c-0.5-6.1-3.5-7.4-3.5-7.4c-1.9-1-4.1-0.8-5.8,0.5c-1.9,1.8-2.4,4.4-2.7,7
				c-0.2,1.3,1.9,1.3,2.1,0c0.1-1.5,0.5-3,1.2-4.4v1.5l0,7.2v5.7c0,0.6,0.4,1.1,1,1.1c0,0,0,0,0,0c0.6,0,1.1-0.5,1.1-1.1v-8.1h1v8.2
				c0,0.6,0.5,1,1.1,1c0.5,0,1-0.4,1-1v-5.7l0.1-7.2c0-0.7,0-1.3,0-1.7c0.7,1.4,1.2,3,1.3,4.5C10.1,65.2,12.1,65.2,12,63.9z"/>
		</g>
	</g>
	<g id="standing-frontal-man-silhouette-50" transform="translate(4444.053 918.584)">
		<g id="Group_12900" transform="translate(0 0)">
			<ellipse id="Ellipse_9920" class="st0" cx="6" cy="53.4" rx="1.9" ry="1.9"/>
			<path id="Path_13394" class="st0" d="M12,63.9c-0.5-6.1-3.5-7.4-3.5-7.4c-1.9-1-4.1-0.8-5.8,0.5c-1.9,1.8-2.4,4.4-2.7,7
				c-0.2,1.3,1.9,1.3,2.1,0c0.1-1.5,0.5-3,1.2-4.4v1.5l0,7.2v5.7c0,0.6,0.4,1.1,1,1.1c0,0,0,0,0,0c0.6,0,1.1-0.5,1.1-1.1v-8.1h1v8.2
				c0,0.6,0.5,1,1.1,1c0.5,0,1-0.4,1-1v-5.7l0.1-7.2c0-0.7,0-1.3,0-1.7c0.7,1.4,1.2,3,1.3,4.5C10.1,65.2,12.1,65.2,12,63.9z"/>
		</g>
	</g>
	<g id="standing-frontal-man-silhouette-51" transform="translate(4444.053 968.968)">
		<g id="Group_12901" transform="translate(0 0)">
			<ellipse id="Ellipse_9921" class="st0" cx="6" cy="53.4" rx="1.9" ry="1.9"/>
			<path id="Path_13395" class="st0" d="M12,63.9c-0.5-6.1-3.5-7.4-3.5-7.4c-1.9-1-4.1-0.8-5.8,0.5c-1.9,1.8-2.4,4.4-2.7,7
				c-0.2,1.3,1.9,1.3,2.1,0c0.1-1.5,0.5-3,1.2-4.4v1.5l0,7.2v5.7c0,0.6,0.4,1.1,1,1.1c0,0,0,0,0,0c0.6,0,1.1-0.5,1.1-1.1v-8.1h1v8.2
				c0,0.6,0.5,1,1.1,1c0.5,0,1-0.4,1-1v-5.7l0.1-7.2c0-0.7,0-1.3,0-1.7c0.7,1.4,1.2,3,1.3,4.5C10.1,65.2,12.1,65.2,12,63.9z"/>
		</g>
	</g>
	<g id="standing-frontal-man-silhouette-52" transform="translate(4499.053 943.353)">
		<g id="Group_12902" transform="translate(0 0)">
			<ellipse id="Ellipse_9922" class="st0" cx="6" cy="53.4" rx="1.9" ry="1.9"/>
			<path id="Path_13396" class="st0" d="M12,63.9c-0.5-6.1-3.5-7.4-3.5-7.4c-1.9-1-4.1-0.8-5.8,0.5c-1.9,1.8-2.4,4.4-2.7,7
				c-0.2,1.3,1.9,1.3,2.1,0c0.1-1.5,0.5-3,1.2-4.4v1.5l0,7.2v5.7c0,0.6,0.4,1.1,1,1.1c0,0,0,0,0,0c0.6,0,1.1-0.5,1.1-1.1v-8.1h1v8.2
				c0,0.6,0.5,1,1.1,1c0.5,0,1-0.4,1-1v-5.7l0.1-7.2c0-0.7,0-1.3,0-1.7c0.7,1.4,1.2,3,1.3,4.5C10.1,65.2,12.1,65.2,12,63.9z"/>
		</g>
	</g>
	<g id="standing-frontal-man-silhouette-53" transform="translate(4499.053 893.419)">
		<g id="Group_12903" transform="translate(0 0)">
			<ellipse id="Ellipse_9923" class="st0" cx="6" cy="53.4" rx="1.9" ry="1.9"/>
			<path id="Path_13397" class="st0" d="M12,63.9c-0.5-6.1-3.5-7.4-3.5-7.4c-1.9-1-4.1-0.8-5.8,0.5c-1.9,1.8-2.4,4.4-2.7,7
				c-0.2,1.3,1.9,1.3,2.1,0c0.1-1.5,0.5-3,1.2-4.4v1.5l0,7.2v5.7c0,0.6,0.4,1.1,1,1.1c0,0,0,0,0,0c0.6,0,1.1-0.5,1.1-1.1v-8.1h1v8.2
				c0,0.6,0.5,1,1.1,1c0.5,0,1-0.4,1-1v-5.7l0.1-7.2c0-0.7,0-1.3,0-1.7c0.7,1.4,1.2,3,1.3,4.5C10.1,65.2,12.1,65.2,12,63.9z"/>
		</g>
	</g>
	<g id="standing-frontal-man-silhouette-54" transform="translate(4444.053 943.776)">
		<g id="Group_12904" transform="translate(0 0)">
			<ellipse id="Ellipse_9924" class="st0" cx="6" cy="53.4" rx="1.9" ry="1.9"/>
			<path id="Path_13398" class="st0" d="M12,63.9c-0.5-6.1-3.5-7.4-3.5-7.4c-1.9-1-4.1-0.8-5.8,0.5c-1.9,1.8-2.4,4.4-2.7,7
				c-0.2,1.3,1.9,1.3,2.1,0c0.1-1.5,0.5-3,1.2-4.4v1.5l0,7.2v5.7c0,0.6,0.4,1.1,1,1.1c0,0,0,0,0,0c0.6,0,1.1-0.5,1.1-1.1v-8.1h1v8.2
				c0,0.6,0.5,1,1.1,1c0.5,0,1-0.4,1-1v-5.7l0.1-7.2c0-0.7,0-1.3,0-1.7c0.7,1.4,1.2,3,1.3,4.5C10.1,65.2,12.1,65.2,12,63.9z"/>
		</g>
	</g>
	<g id="standing-frontal-man-silhouette-55" transform="translate(4499.053 918.16)">
		<g id="Group_12905" transform="translate(0 0)">
			<ellipse id="Ellipse_9925" class="st0" cx="6" cy="53.4" rx="1.9" ry="1.9"/>
			<path id="Path_13399" class="st0" d="M12,63.9c-0.5-6.1-3.5-7.4-3.5-7.4c-1.9-1-4.1-0.8-5.8,0.5c-1.9,1.8-2.4,4.4-2.7,7
				c-0.2,1.3,1.9,1.3,2.1,0c0.1-1.5,0.5-3,1.2-4.4v1.5l0,7.2v5.7c0,0.6,0.4,1.1,1,1.1c0,0,0,0,0,0c0.6,0,1.1-0.5,1.1-1.1v-8.1h1v8.2
				c0,0.6,0.5,1,1.1,1c0.5,0,1-0.4,1-1v-5.7l0.1-7.2c0-0.7,0-1.3,0-1.7c0.7,1.4,1.2,3,1.3,4.5C10.1,65.2,12.1,65.2,12,63.9z"/>
		</g>
	</g>
	<g id="standing-frontal-man-silhouette-56" transform="translate(4499.053 968.545)">
		<g id="Group_12906" transform="translate(0 0)">
			<ellipse id="Ellipse_9926" class="st0" cx="6" cy="53.4" rx="1.9" ry="1.9"/>
			<path id="Path_13400" class="st0" d="M12,63.9c-0.5-6.1-3.5-7.4-3.5-7.4c-1.9-1-4.1-0.8-5.8,0.5c-1.9,1.8-2.4,4.4-2.7,7
				c-0.2,1.3,1.9,1.3,2.1,0c0.1-1.5,0.5-3,1.2-4.4v1.5l0,7.2v5.7c0,0.6,0.4,1.1,1,1.1c0,0,0,0,0,0c0.6,0,1.1-0.5,1.1-1.1v-8.1h1v8.2
				c0,0.6,0.5,1,1.1,1c0.5,0,1-0.4,1-1v-5.7l0.1-7.2c0-0.7,0-1.3,0-1.7c0.7,1.4,1.2,3,1.3,4.5C10.1,65.2,12.1,65.2,12,63.9z"/>
		</g>
	</g>
	<g id="standing-frontal-man-silhouette-57" transform="translate(4444.053 893.611)">
		<g id="Group_12907" transform="translate(0 0)">
			<ellipse id="Ellipse_9927" class="st0" cx="6" cy="53.4" rx="1.9" ry="1.9"/>
			<path id="Path_13401" class="st0" d="M12,63.9c-0.5-6.1-3.5-7.4-3.5-7.4c-1.9-1-4.1-0.8-5.8,0.5c-1.9,1.8-2.4,4.4-2.7,7
				c-0.2,1.3,1.9,1.3,2.1,0c0.1-1.5,0.5-3,1.2-4.4v1.5l0,7.2v5.7c0,0.6,0.4,1.1,1,1.1c0,0,0,0,0,0c0.6,0,1.1-0.5,1.1-1.1v-8.1h1v8.2
				c0,0.6,0.5,1,1.1,1c0.5,0,1-0.4,1-1v-5.7l0.1-7.2c0-0.7,0-1.3,0-1.7c0.7,1.4,1.2,3,1.3,4.5C10.1,65.2,12.1,65.2,12,63.9z"/>
		</g>
	</g>
	<g id="standing-frontal-man-silhouette-58" transform="translate(4498.248 1220.584)">
		<g id="Group_12908" transform="translate(0 0)">
			<ellipse id="Ellipse_9928" class="st0" cx="6" cy="53.4" rx="1.9" ry="1.9"/>
			<path id="Path_13402" class="st0" d="M12,63.9c-0.5-6.1-3.5-7.4-3.5-7.4c-1.9-1-4.1-0.8-5.8,0.5c-1.9,1.8-2.4,4.4-2.7,7
				c-0.2,1.3,1.9,1.3,2.1,0c0.1-1.5,0.5-3,1.2-4.4v1.5l0,7.2v5.7c0,0.6,0.4,1.1,1,1.1c0,0,0,0,0,0c0.6,0,1.1-0.5,1.1-1.1v-8.1h1v8.2
				c0,0.6,0.5,1,1.1,1c0.5,0,1-0.4,1-1v-5.7l0.1-7.2c0-0.7,0-1.3,0-1.7c0.7,1.4,1.2,3,1.3,4.5C10.1,65.2,12.1,65.2,12,63.9z"/>
		</g>
	</g>
	<g id="standing-frontal-man-silhouette-59" transform="translate(4498.248 1270.968)">
		<g id="Group_12909" transform="translate(0 0)">
			<ellipse id="Ellipse_9929" class="st0" cx="6" cy="53.4" rx="1.9" ry="1.9"/>
			<path id="Path_13403" class="st0" d="M12,63.9c-0.5-6.1-3.5-7.4-3.5-7.4c-1.9-1-4.1-0.8-5.8,0.5c-1.9,1.8-2.4,4.4-2.7,7
				c-0.2,1.3,1.9,1.3,2.1,0c0.1-1.5,0.5-3,1.2-4.4v1.5l0,7.2v5.7c0,0.6,0.4,1.1,1,1.1c0,0,0,0,0,0c0.6,0,1.1-0.5,1.1-1.1v-8.1h1v8.2
				c0,0.6,0.5,1,1.1,1c0.5,0,1-0.4,1-1v-5.7l0.1-7.2c0-0.7,0-1.3,0-1.7c0.7,1.4,1.2,3,1.3,4.5C10.1,65.2,12.1,65.2,12,63.9z"/>
		</g>
	</g>
	<g id="standing-frontal-man-silhouette-60" transform="translate(4498.248 1321.353)">
		<g id="Group_12910" transform="translate(0 0)">
			<ellipse id="Ellipse_9930" class="st0" cx="6" cy="53.4" rx="1.9" ry="1.9"/>
			<path id="Path_13404" class="st0" d="M12,63.9c-0.5-6.1-3.5-7.4-3.5-7.4c-1.9-1-4.1-0.8-5.8,0.5c-1.9,1.8-2.4,4.4-2.7,7
				c-0.2,1.3,1.9,1.3,2.1,0c0.1-1.5,0.5-3,1.2-4.4v1.5l0,7.2v5.7c0,0.6,0.4,1.1,1,1.1c0,0,0,0,0,0c0.6,0,1.1-0.5,1.1-1.1v-8.1h1v8.2
				c0,0.6,0.5,1,1.1,1c0.5,0,1-0.4,1-1v-5.7l0.1-7.2c0-0.7,0-1.3,0-1.7c0.7,1.4,1.2,3,1.3,4.5C10.1,65.2,12.1,65.2,12,63.9z"/>
		</g>
	</g>
	<g id="standing-frontal-man-silhouette-61" transform="translate(4498.248 1170.419)">
		<g id="Group_12911" transform="translate(0 0)">
			<ellipse id="Ellipse_9931" class="st0" cx="6" cy="53.4" rx="1.9" ry="1.9"/>
			<path id="Path_13405" class="st0" d="M12,63.9c-0.5-6.1-3.5-7.4-3.5-7.4c-1.9-1-4.1-0.8-5.8,0.5c-1.9,1.8-2.4,4.4-2.7,7
				c-0.2,1.3,1.9,1.3,2.1,0c0.1-1.5,0.5-3,1.2-4.4v1.5l0,7.2v5.7c0,0.6,0.4,1.1,1,1.1c0,0,0,0,0,0c0.6,0,1.1-0.5,1.1-1.1v-8.1h1v8.2
				c0,0.6,0.5,1,1.1,1c0.5,0,1-0.4,1-1v-5.7l0.1-7.2c0-0.7,0-1.3,0-1.7c0.7,1.4,1.2,3,1.3,4.5C10.1,65.2,12.1,65.2,12,63.9z"/>
		</g>
	</g>
	<g id="standing-frontal-man-silhouette-62" transform="translate(4498.248 1245.776)">
		<g id="Group_12912" transform="translate(0 0)">
			<ellipse id="Ellipse_9932" class="st0" cx="6" cy="53.4" rx="1.9" ry="1.9"/>
			<path id="Path_13406" class="st0" d="M12,63.9c-0.5-6.1-3.5-7.4-3.5-7.4c-1.9-1-4.1-0.8-5.8,0.5c-1.9,1.8-2.4,4.4-2.7,7
				c-0.2,1.3,1.9,1.3,2.1,0c0.1-1.5,0.5-3,1.2-4.4v1.5l0,7.2v5.7c0,0.6,0.4,1.1,1,1.1c0,0,0,0,0,0c0.6,0,1.1-0.5,1.1-1.1v-8.1h1v8.2
				c0,0.6,0.5,1,1.1,1c0.5,0,1-0.4,1-1v-5.7l0.1-7.2c0-0.7,0-1.3,0-1.7c0.7,1.4,1.2,3,1.3,4.5C10.1,65.2,12.1,65.2,12,63.9z"/>
		</g>
	</g>
	<g id="standing-frontal-man-silhouette-63" transform="translate(4498.248 1296.16)">
		<g id="Group_12913" transform="translate(0 0)">
			<ellipse id="Ellipse_9933" class="st0" cx="6" cy="53.4" rx="1.9" ry="1.9"/>
			<path id="Path_13407" class="st0" d="M12,63.9c-0.5-6.1-3.5-7.4-3.5-7.4c-1.9-1-4.1-0.8-5.8,0.5c-1.9,1.8-2.4,4.4-2.7,7
				c-0.2,1.3,1.9,1.3,2.1,0c0.1-1.5,0.5-3,1.2-4.4v1.5l0,7.2v5.7c0,0.6,0.4,1.1,1,1.1c0,0,0,0,0,0c0.6,0,1.1-0.5,1.1-1.1v-8.1h1v8.2
				c0,0.6,0.5,1,1.1,1c0.5,0,1-0.4,1-1v-5.7l0.1-7.2c0-0.7,0-1.3,0-1.7c0.7,1.4,1.2,3,1.3,4.5C10.1,65.2,12.1,65.2,12,63.9z"/>
		</g>
	</g>
	<g id="standing-frontal-man-silhouette-64" transform="translate(4498.248 1346.545)">
		<g id="Group_12914" transform="translate(0 0)">
			<ellipse id="Ellipse_9934" class="st0" cx="6" cy="53.4" rx="1.9" ry="1.9"/>
			<path id="Path_13408" class="st0" d="M12,63.9c-0.5-6.1-3.5-7.4-3.5-7.4c-1.9-1-4.1-0.8-5.8,0.5c-1.9,1.8-2.4,4.4-2.7,7
				c-0.2,1.3,1.9,1.3,2.1,0c0.1-1.5,0.5-3,1.2-4.4v1.5l0,7.2v5.7c0,0.6,0.4,1.1,1,1.1c0,0,0,0,0,0c0.6,0,1.1-0.5,1.1-1.1v-8.1h1v8.2
				c0,0.6,0.5,1,1.1,1c0.5,0,1-0.4,1-1v-5.7l0.1-7.2c0-0.7,0-1.3,0-1.7c0.7,1.4,1.2,3,1.3,4.5C10.1,65.2,12.1,65.2,12,63.9z"/>
		</g>
	</g>
	<g id="standing-frontal-man-silhouette-65" transform="translate(4498.248 1195.611)">
		<g id="Group_12915" transform="translate(0 0)">
			<ellipse id="Ellipse_9935" class="st0" cx="6" cy="53.4" rx="1.9" ry="1.9"/>
			<path id="Path_13409" class="st0" d="M12,63.9c-0.5-6.1-3.5-7.4-3.5-7.4c-1.9-1-4.1-0.8-5.8,0.5c-1.9,1.8-2.4,4.4-2.7,7
				c-0.2,1.3,1.9,1.3,2.1,0c0.1-1.5,0.5-3,1.2-4.4v1.5l0,7.2v5.7c0,0.6,0.4,1.1,1,1.1c0,0,0,0,0,0c0.6,0,1.1-0.5,1.1-1.1v-8.1h1v8.2
				c0,0.6,0.5,1,1.1,1c0.5,0,1-0.4,1-1v-5.7l0.1-7.2c0-0.7,0-1.3,0-1.7c0.7,1.4,1.2,3,1.3,4.5C10.1,65.2,12.1,65.2,12,63.9z"/>
		</g>
	</g>
	<g id="standing-frontal-man-silhouette-66" transform="translate(4443.855 1069.968)">
		<g id="Group_12916" transform="translate(0 0)">
			<ellipse id="Ellipse_9936" class="st0" cx="6" cy="53.4" rx="1.9" ry="1.9"/>
			<path id="Path_13410" class="st0" d="M12,63.9c-0.5-6.1-3.5-7.4-3.5-7.4c-1.9-1-4.1-0.8-5.8,0.5c-1.9,1.8-2.4,4.4-2.7,7
				c-0.2,1.3,1.9,1.3,2.1,0c0.1-1.5,0.5-3,1.2-4.4v1.5l0,7.2v5.7c0,0.6,0.4,1.1,1,1.1c0,0,0,0,0,0c0.6,0,1.1-0.5,1.1-1.1v-8.1h1v8.2
				c0,0.6,0.5,1,1.1,1c0.5,0,1-0.4,1-1v-5.7l0.1-7.2c0-0.7,0-1.3,0-1.7c0.7,1.4,1.2,3,1.3,4.5C10.1,65.2,12.1,65.2,12,63.9z"/>
		</g>
	</g>
	<g id="standing-frontal-man-silhouette-67" transform="translate(4443.855 1120.353)">
		<g id="Group_12917" transform="translate(0 0)">
			<ellipse id="Ellipse_9937" class="st0" cx="6" cy="53.4" rx="1.9" ry="1.9"/>
			<path id="Path_13411" class="st0" d="M12,63.9c-0.5-6.1-3.5-7.4-3.5-7.4c-1.9-1-4.1-0.8-5.8,0.5c-1.9,1.8-2.4,4.4-2.7,7
				c-0.2,1.3,1.9,1.3,2.1,0c0.1-1.5,0.5-3,1.2-4.4v1.5l0,7.2v5.7c0,0.6,0.4,1.1,1,1.1c0,0,0,0,0,0c0.6,0,1.1-0.5,1.1-1.1v-8.1h1v8.2
				c0,0.6,0.5,1,1.1,1c0.5,0,1-0.4,1-1v-5.7l0.1-7.2c0-0.7,0-1.3,0-1.7c0.7,1.4,1.2,3,1.3,4.5C10.1,65.2,12.1,65.2,12,63.9z"/>
		</g>
	</g>
	<g id="standing-frontal-man-silhouette-68" transform="translate(4443.855 1044.776)">
		<g id="Group_12918" transform="translate(0 0)">
			<ellipse id="Ellipse_9938" class="st0" cx="6" cy="53.4" rx="1.9" ry="1.9"/>
			<path id="Path_13412" class="st0" d="M12,63.9c-0.5-6.1-3.5-7.4-3.5-7.4c-1.9-1-4.1-0.8-5.8,0.5c-1.9,1.8-2.4,4.4-2.7,7
				c-0.2,1.3,1.9,1.3,2.1,0c0.1-1.5,0.5-3,1.2-4.4v1.5l0,7.2v5.7c0,0.6,0.4,1.1,1,1.1c0,0,0,0,0,0c0.6,0,1.1-0.5,1.1-1.1v-8.1h1v8.2
				c0,0.6,0.5,1,1.1,1c0.5,0,1-0.4,1-1v-5.7l0.1-7.2c0-0.7,0-1.3,0-1.7c0.7,1.4,1.2,3,1.3,4.5C10.1,65.2,12.1,65.2,12,63.9z"/>
		</g>
	</g>
	<g id="standing-frontal-man-silhouette-69" transform="translate(4443.855 1095.16)">
		<g id="Group_12919" transform="translate(0 0)">
			<ellipse id="Ellipse_9939" class="st0" cx="6" cy="53.4" rx="1.9" ry="1.9"/>
			<path id="Path_13413" class="st0" d="M12,63.9c-0.5-6.1-3.5-7.4-3.5-7.4c-1.9-1-4.1-0.8-5.8,0.5c-1.9,1.8-2.4,4.4-2.7,7
				c-0.2,1.3,1.9,1.3,2.1,0c0.1-1.5,0.5-3,1.2-4.4v1.5l0,7.2v5.7c0,0.6,0.4,1.1,1,1.1c0,0,0,0,0,0c0.6,0,1.1-0.5,1.1-1.1v-8.1h1v8.2
				c0,0.6,0.5,1,1.1,1c0.5,0,1-0.4,1-1v-5.7l0.1-7.2c0-0.7,0-1.3,0-1.7c0.7,1.4,1.2,3,1.3,4.5C10.1,65.2,12.1,65.2,12,63.9z"/>
		</g>
	</g>
	<g id="standing-frontal-man-silhouette-70" transform="translate(4443.855 1145.545)">
		<g id="Group_12920" transform="translate(0 0)">
			<ellipse id="Ellipse_9940" class="st0" cx="6" cy="53.4" rx="1.9" ry="1.9"/>
			<path id="Path_13414" class="st0" d="M12,63.9c-0.5-6.1-3.5-7.4-3.5-7.4c-1.9-1-4.1-0.8-5.8,0.5c-1.9,1.8-2.4,4.4-2.7,7
				c-0.2,1.3,1.9,1.3,2.1,0c0.1-1.5,0.5-3,1.2-4.4v1.5l0,7.2v5.7c0,0.6,0.4,1.1,1,1.1c0,0,0,0,0,0c0.6,0,1.1-0.5,1.1-1.1v-8.1h1v8.2
				c0,0.6,0.5,1,1.1,1c0.5,0,1-0.4,1-1v-5.7l0.1-7.2c0-0.7,0-1.3,0-1.7c0.7,1.4,1.2,3,1.3,4.5C10.1,65.2,12.1,65.2,12,63.9z"/>
		</g>
	</g>
	<g id="standing-frontal-man-silhouette-71" transform="translate(4443.855 994.611)">
		<g id="Group_12921" transform="translate(0 0)">
			<ellipse id="Ellipse_9941" class="st0" cx="6" cy="53.4" rx="1.9" ry="1.9"/>
			<path id="Path_13415" class="st0" d="M12,63.9c-0.5-6.1-3.5-7.4-3.5-7.4c-1.9-1-4.1-0.8-5.8,0.5c-1.9,1.8-2.4,4.4-2.7,7
				c-0.2,1.3,1.9,1.3,2.1,0c0.1-1.5,0.5-3,1.2-4.4v1.5l0,7.2v5.7c0,0.6,0.4,1.1,1,1.1c0,0,0,0,0,0c0.6,0,1.1-0.5,1.1-1.1v-8.1h1v8.2
				c0,0.6,0.5,1,1.1,1c0.5,0,1-0.4,1-1v-5.7l0.1-7.2c0-0.7,0-1.3,0-1.7c0.7,1.4,1.2,3,1.3,4.5C10.1,65.2,12.1,65.2,12,63.9z"/>
		</g>
	</g>
	<g id="standing-frontal-man-silhouette-72" transform="translate(4498.66 1069.968)">
		<g id="Group_12922" transform="translate(0 0)">
			<ellipse id="Ellipse_9942" class="st0" cx="6" cy="53.4" rx="1.9" ry="1.9"/>
			<path id="Path_13416" class="st0" d="M12,63.9c-0.5-6.1-3.5-7.4-3.5-7.4c-1.9-1-4.1-0.8-5.8,0.5c-1.9,1.8-2.4,4.4-2.7,7
				c-0.2,1.3,1.9,1.3,2.1,0c0.1-1.5,0.5-3,1.2-4.4v1.5l0,7.2v5.7c0,0.6,0.4,1.1,1,1.1c0,0,0,0,0,0c0.6,0,1.1-0.5,1.1-1.1v-8.1h1v8.2
				c0,0.6,0.5,1,1.1,1c0.5,0,1-0.4,1-1v-5.7l0.1-7.2c0-0.7,0-1.3,0-1.7c0.7,1.4,1.2,3,1.3,4.5C10.1,65.2,12.1,65.2,12,63.9z"/>
		</g>
	</g>
	<g id="standing-frontal-man-silhouette-73" transform="translate(4498.66 1120.353)">
		<g id="Group_12923" transform="translate(0 0)">
			<ellipse id="Ellipse_9943" class="st0" cx="6" cy="53.4" rx="1.9" ry="1.9"/>
			<path id="Path_13417" class="st0" d="M12,63.9c-0.5-6.1-3.5-7.4-3.5-7.4c-1.9-1-4.1-0.8-5.8,0.5c-1.9,1.8-2.4,4.4-2.7,7
				c-0.2,1.3,1.9,1.3,2.1,0c0.1-1.5,0.5-3,1.2-4.4v1.5l0,7.2v5.7c0,0.6,0.4,1.1,1,1.1c0,0,0,0,0,0c0.6,0,1.1-0.5,1.1-1.1v-8.1h1v8.2
				c0,0.6,0.5,1,1.1,1c0.5,0,1-0.4,1-1v-5.7l0.1-7.2c0-0.7,0-1.3,0-1.7c0.7,1.4,1.2,3,1.3,4.5C10.1,65.2,12.1,65.2,12,63.9z"/>
		</g>
	</g>
	<g id="standing-frontal-man-silhouette-74" transform="translate(4498.66 1044.776)">
		<g id="Group_12924" transform="translate(0 0)">
			<ellipse id="Ellipse_9944" class="st0" cx="6" cy="53.4" rx="1.9" ry="1.9"/>
			<path id="Path_13418" class="st0" d="M12,63.9c-0.5-6.1-3.5-7.4-3.5-7.4c-1.9-1-4.1-0.8-5.8,0.5c-1.9,1.8-2.4,4.4-2.7,7
				c-0.2,1.3,1.9,1.3,2.1,0c0.1-1.5,0.5-3,1.2-4.4v1.5l0,7.2v5.7c0,0.6,0.4,1.1,1,1.1c0,0,0,0,0,0c0.6,0,1.1-0.5,1.1-1.1v-8.1h1v8.2
				c0,0.6,0.5,1,1.1,1c0.5,0,1-0.4,1-1v-5.7l0.1-7.2c0-0.7,0-1.3,0-1.7c0.7,1.4,1.2,3,1.3,4.5C10.1,65.2,12.1,65.2,12,63.9z"/>
		</g>
	</g>
	<g id="standing-frontal-man-silhouette-75" transform="translate(4498.66 1095.16)">
		<g id="Group_12925" transform="translate(0 0)">
			<ellipse id="Ellipse_9945" class="st0" cx="6" cy="53.4" rx="1.9" ry="1.9"/>
			<path id="Path_13419" class="st0" d="M12,63.9c-0.5-6.1-3.5-7.4-3.5-7.4c-1.9-1-4.1-0.8-5.8,0.5c-1.9,1.8-2.4,4.4-2.7,7
				c-0.2,1.3,1.9,1.3,2.1,0c0.1-1.5,0.5-3,1.2-4.4v1.5l0,7.2v5.7c0,0.6,0.4,1.1,1,1.1c0,0,0,0,0,0c0.6,0,1.1-0.5,1.1-1.1v-8.1h1v8.2
				c0,0.6,0.5,1,1.1,1c0.5,0,1-0.4,1-1v-5.7l0.1-7.2c0-0.7,0-1.3,0-1.7c0.7,1.4,1.2,3,1.3,4.5C10.1,65.2,12.1,65.2,12,63.9z"/>
		</g>
	</g>
	<g id="standing-frontal-man-silhouette-76" transform="translate(4498.66 1145.545)">
		<g id="Group_12926" transform="translate(0 0)">
			<ellipse id="Ellipse_9946" class="st0" cx="6" cy="53.4" rx="1.9" ry="1.9"/>
			<path id="Path_13420" class="st0" d="M12,63.9c-0.5-6.1-3.5-7.4-3.5-7.4c-1.9-1-4.1-0.8-5.8,0.5c-1.9,1.8-2.4,4.4-2.7,7
				c-0.2,1.3,1.9,1.3,2.1,0c0.1-1.5,0.5-3,1.2-4.4v1.5l0,7.2v5.7c0,0.6,0.4,1.1,1,1.1c0,0,0,0,0,0c0.6,0,1.1-0.5,1.1-1.1v-8.1h1v8.2
				c0,0.6,0.5,1,1.1,1c0.5,0,1-0.4,1-1v-5.7l0.1-7.2c0-0.7,0-1.3,0-1.7c0.7,1.4,1.2,3,1.3,4.5C10.1,65.2,12.1,65.2,12,63.9z"/>
		</g>
	</g>
	<g id="standing-frontal-man-silhouette-77" transform="translate(4498.66 994.611)">
		<g id="Group_12927" transform="translate(0 0)">
			<ellipse id="Ellipse_9947" class="st0" cx="6" cy="53.4" rx="1.9" ry="1.9"/>
			<path id="Path_13421" class="st0" d="M12,63.9c-0.5-6.1-3.5-7.4-3.5-7.4c-1.9-1-4.1-0.8-5.8,0.5c-1.9,1.8-2.4,4.4-2.7,7
				c-0.2,1.3,1.9,1.3,2.1,0c0.1-1.5,0.5-3,1.2-4.4v1.5l0,7.2v5.7c0,0.6,0.4,1.1,1,1.1c0,0,0,0,0,0c0.6,0,1.1-0.5,1.1-1.1v-8.1h1v8.2
				c0,0.6,0.5,1,1.1,1c0.5,0,1-0.4,1-1v-5.7l0.1-7.2c0-0.7,0-1.3,0-1.7c0.7,1.4,1.2,3,1.3,4.5C10.1,65.2,12.1,65.2,12,63.9z"/>
		</g>
	</g>
	<g id="standing-frontal-man-silhouette-78" transform="translate(4429.744 1220.584)">
		<g id="Group_12928" transform="translate(0 0)">
			<ellipse id="Ellipse_9948" class="st0" cx="6" cy="53.4" rx="1.9" ry="1.9"/>
			<path id="Path_13422" class="st0" d="M12,63.9c-0.5-6.1-3.5-7.4-3.5-7.4c-1.9-1-4.1-0.8-5.8,0.5c-1.9,1.8-2.4,4.4-2.7,7
				c-0.2,1.3,1.9,1.3,2.1,0c0.1-1.5,0.5-3,1.2-4.4v1.5l0,7.2v5.7c0,0.6,0.4,1.1,1,1.1c0,0,0,0,0,0c0.6,0,1.1-0.5,1.1-1.1v-8.1h1v8.2
				c0,0.6,0.5,1,1.1,1c0.5,0,1-0.4,1-1v-5.7l0.1-7.2c0-0.7,0-1.3,0-1.7c0.7,1.4,1.2,3,1.3,4.5C10.1,65.2,12.1,65.2,12,63.9z"/>
		</g>
	</g>
	<g id="standing-frontal-man-silhouette-79" transform="translate(4458.004 1019.584)">
		<g id="Group_12929" transform="translate(0 0)">
			<ellipse id="Ellipse_9949" class="st0" cx="6" cy="53.4" rx="1.9" ry="1.9"/>
			<path id="Path_13423" class="st0" d="M12,63.9c-0.5-6.1-3.5-7.4-3.5-7.4c-1.9-1-4.1-0.8-5.8,0.5c-1.9,1.8-2.4,4.4-2.7,7
				c-0.2,1.3,1.9,1.3,2.1,0c0.1-1.5,0.5-3,1.2-4.4v1.5l0,7.2v5.7c0,0.6,0.4,1.1,1,1.1c0,0,0,0,0,0c0.6,0,1.1-0.5,1.1-1.1v-8.1h1v8.2
				c0,0.6,0.5,1,1.1,1c0.5,0,1-0.4,1-1v-5.7l0.1-7.2c0-0.7,0-1.3,0-1.7c0.7,1.4,1.2,3,1.3,4.5C10.1,65.2,12.1,65.2,12,63.9z"/>
		</g>
	</g>
	<g id="standing-frontal-man-silhouette-80" transform="translate(4429.744 1270.968)">
		<g id="Group_12930" transform="translate(0 0)">
			<ellipse id="Ellipse_9950" class="st0" cx="6" cy="53.4" rx="1.9" ry="1.9"/>
			<path id="Path_13424" class="st0" d="M12,63.9c-0.5-6.1-3.5-7.4-3.5-7.4c-1.9-1-4.1-0.8-5.8,0.5c-1.9,1.8-2.4,4.4-2.7,7
				c-0.2,1.3,1.9,1.3,2.1,0c0.1-1.5,0.5-3,1.2-4.4v1.5l0,7.2v5.7c0,0.6,0.4,1.1,1,1.1c0,0,0,0,0,0c0.6,0,1.1-0.5,1.1-1.1v-8.1h1v8.2
				c0,0.6,0.5,1,1.1,1c0.5,0,1-0.4,1-1v-5.7l0.1-7.2c0-0.7,0-1.3,0-1.7c0.7,1.4,1.2,3,1.3,4.5C10.1,65.2,12.1,65.2,12,63.9z"/>
		</g>
	</g>
	<g id="standing-frontal-man-silhouette-81" transform="translate(4429.744 1321.353)">
		<g id="Group_12931" transform="translate(0 0)">
			<ellipse id="Ellipse_9951" class="st0" cx="6" cy="53.4" rx="1.9" ry="1.9"/>
			<path id="Path_13425" class="st0" d="M12,63.9c-0.5-6.1-3.5-7.4-3.5-7.4c-1.9-1-4.1-0.8-5.8,0.5c-1.9,1.8-2.4,4.4-2.7,7
				c-0.2,1.3,1.9,1.3,2.1,0c0.1-1.5,0.5-3,1.2-4.4v1.5l0,7.2v5.7c0,0.6,0.4,1.1,1,1.1c0,0,0,0,0,0c0.6,0,1.1-0.5,1.1-1.1v-8.1h1v8.2
				c0,0.6,0.5,1,1.1,1c0.5,0,1-0.4,1-1v-5.7l0.1-7.2c0-0.7,0-1.3,0-1.7c0.7,1.4,1.2,3,1.3,4.5C10.1,65.2,12.1,65.2,12,63.9z"/>
		</g>
	</g>
	<g id="standing-frontal-man-silhouette-82" transform="translate(4429.744 1170.419)">
		<g id="Group_12932" transform="translate(0 0)">
			<ellipse id="Ellipse_9952" class="st0" cx="6" cy="53.4" rx="1.9" ry="1.9"/>
			<path id="Path_13426" class="st0" d="M12,63.9c-0.5-6.1-3.5-7.4-3.5-7.4c-1.9-1-4.1-0.8-5.8,0.5c-1.9,1.8-2.4,4.4-2.7,7
				c-0.2,1.3,1.9,1.3,2.1,0c0.1-1.5,0.5-3,1.2-4.4v1.5l0,7.2v5.7c0,0.6,0.4,1.1,1,1.1c0,0,0,0,0,0c0.6,0,1.1-0.5,1.1-1.1v-8.1h1v8.2
				c0,0.6,0.5,1,1.1,1c0.5,0,1-0.4,1-1v-5.7l0.1-7.2c0-0.7,0-1.3,0-1.7c0.7,1.4,1.2,3,1.3,4.5C10.1,65.2,12.1,65.2,12,63.9z"/>
		</g>
	</g>
	<g id="standing-frontal-man-silhouette-83" transform="translate(4429.744 1245.776)">
		<g id="Group_12933" transform="translate(0 0)">
			<ellipse id="Ellipse_9953" class="st0" cx="6" cy="53.4" rx="1.9" ry="1.9"/>
			<path id="Path_13427" class="st0" d="M12,63.9c-0.5-6.1-3.5-7.4-3.5-7.4c-1.9-1-4.1-0.8-5.8,0.5c-1.9,1.8-2.4,4.4-2.7,7
				c-0.2,1.3,1.9,1.3,2.1,0c0.1-1.5,0.5-3,1.2-4.4v1.5l0,7.2v5.7c0,0.6,0.4,1.1,1,1.1c0,0,0,0,0,0c0.6,0,1.1-0.5,1.1-1.1v-8.1h1v8.2
				c0,0.6,0.5,1,1.1,1c0.5,0,1-0.4,1-1v-5.7l0.1-7.2c0-0.7,0-1.3,0-1.7c0.7,1.4,1.2,3,1.3,4.5C10.1,65.2,12.1,65.2,12,63.9z"/>
		</g>
	</g>
	<g id="standing-frontal-man-silhouette-84" transform="translate(4429.744 1296.16)">
		<g id="Group_12934" transform="translate(0 0)">
			<ellipse id="Ellipse_9954" class="st0" cx="6" cy="53.4" rx="1.9" ry="1.9"/>
			<path id="Path_13428" class="st0" d="M12,63.9c-0.5-6.1-3.5-7.4-3.5-7.4c-1.9-1-4.1-0.8-5.8,0.5c-1.9,1.8-2.4,4.4-2.7,7
				c-0.2,1.3,1.9,1.3,2.1,0c0.1-1.5,0.5-3,1.2-4.4v1.5l0,7.2v5.7c0,0.6,0.4,1.1,1,1.1c0,0,0,0,0,0c0.6,0,1.1-0.5,1.1-1.1v-8.1h1v8.2
				c0,0.6,0.5,1,1.1,1c0.5,0,1-0.4,1-1v-5.7l0.1-7.2c0-0.7,0-1.3,0-1.7c0.7,1.4,1.2,3,1.3,4.5C10.1,65.2,12.1,65.2,12,63.9z"/>
		</g>
	</g>
	<g id="standing-frontal-man-silhouette-85" transform="translate(4429.744 1346.545)">
		<g id="Group_12935" transform="translate(0 0)">
			<ellipse id="Ellipse_9955" class="st0" cx="6" cy="53.4" rx="1.9" ry="1.9"/>
			<path id="Path_13429" class="st0" d="M12,63.9c-0.5-6.1-3.5-7.4-3.5-7.4c-1.9-1-4.1-0.8-5.8,0.5c-1.9,1.8-2.4,4.4-2.7,7
				c-0.2,1.3,1.9,1.3,2.1,0c0.1-1.5,0.5-3,1.2-4.4v1.5l0,7.2v5.7c0,0.6,0.4,1.1,1,1.1c0,0,0,0,0,0c0.6,0,1.1-0.5,1.1-1.1v-8.1h1v8.2
				c0,0.6,0.5,1,1.1,1c0.5,0,1-0.4,1-1v-5.7l0.1-7.2c0-0.7,0-1.3,0-1.7c0.7,1.4,1.2,3,1.3,4.5C10.1,65.2,12.1,65.2,12,63.9z"/>
		</g>
	</g>
	<g id="standing-frontal-man-silhouette-86" transform="translate(4429.744 1195.611)">
		<g id="Group_12936" transform="translate(0 0)">
			<ellipse id="Ellipse_9956" class="st0" cx="6" cy="53.4" rx="1.9" ry="1.9"/>
			<path id="Path_13430" class="st0" d="M12,63.9c-0.5-6.1-3.5-7.4-3.5-7.4c-1.9-1-4.1-0.8-5.8,0.5c-1.9,1.8-2.4,4.4-2.7,7
				c-0.2,1.3,1.9,1.3,2.1,0c0.1-1.5,0.5-3,1.2-4.4v1.5l0,7.2v5.7c0,0.6,0.4,1.1,1,1.1c0,0,0,0,0,0c0.6,0,1.1-0.5,1.1-1.1v-8.1h1v8.2
				c0,0.6,0.5,1,1.1,1c0.5,0,1-0.4,1-1v-5.7l0.1-7.2c0-0.7,0-1.3,0-1.7c0.7,1.4,1.2,3,1.3,4.5C10.1,65.2,12.1,65.2,12,63.9z"/>
		</g>
	</g>
	<g id="standing-frontal-man-silhouette-87" transform="translate(4430.352 918.584)">
		<g id="Group_12937" transform="translate(0 0)">
			<ellipse id="Ellipse_9957" class="st0" cx="6" cy="53.4" rx="1.9" ry="1.9"/>
			<path id="Path_13431" class="st0" d="M12,63.9c-0.5-6.1-3.5-7.4-3.5-7.4c-1.9-1-4.1-0.8-5.8,0.5c-1.9,1.8-2.4,4.4-2.7,7
				c-0.2,1.3,1.9,1.3,2.1,0c0.1-1.5,0.5-3,1.2-4.4v1.5l0,7.2v5.7c0,0.6,0.4,1.1,1,1.1c0,0,0,0,0,0c0.6,0,1.1-0.5,1.1-1.1v-8.1h1v8.2
				c0,0.6,0.5,1,1.1,1c0.5,0,1-0.4,1-1v-5.7l0.1-7.2c0-0.7,0-1.3,0-1.7c0.7,1.4,1.2,3,1.3,4.5C10.1,65.2,12.1,65.2,12,63.9z"/>
		</g>
	</g>
	<g id="standing-frontal-man-silhouette-88" transform="translate(4430.352 968.968)">
		<g id="Group_12938" transform="translate(0 0)">
			<ellipse id="Ellipse_9958" class="st0" cx="6" cy="53.4" rx="1.9" ry="1.9"/>
			<path id="Path_13432" class="st0" d="M12,63.9c-0.5-6.1-3.5-7.4-3.5-7.4c-1.9-1-4.1-0.8-5.8,0.5c-1.9,1.8-2.4,4.4-2.7,7
				c-0.2,1.3,1.9,1.3,2.1,0c0.1-1.5,0.5-3,1.2-4.4v1.5l0,7.2v5.7c0,0.6,0.4,1.1,1,1.1c0,0,0,0,0,0c0.6,0,1.1-0.5,1.1-1.1v-8.1h1v8.2
				c0,0.6,0.5,1,1.1,1c0.5,0,1-0.4,1-1v-5.7l0.1-7.2c0-0.7,0-1.3,0-1.7c0.7,1.4,1.2,3,1.3,4.5C10.1,65.2,12.1,65.2,12,63.9z"/>
		</g>
	</g>
	<g id="standing-frontal-man-silhouette-89" transform="translate(4485.352 943.353)">
		<g id="Group_12939" transform="translate(0 0)">
			<ellipse id="Ellipse_9959" class="st0" cx="6" cy="53.4" rx="1.9" ry="1.9"/>
			<path id="Path_13433" class="st0" d="M12,63.9c-0.5-6.1-3.5-7.4-3.5-7.4c-1.9-1-4.1-0.8-5.8,0.5c-1.9,1.8-2.4,4.4-2.7,7
				c-0.2,1.3,1.9,1.3,2.1,0c0.1-1.5,0.5-3,1.2-4.4v1.5l0,7.2v5.7c0,0.6,0.4,1.1,1,1.1c0,0,0,0,0,0c0.6,0,1.1-0.5,1.1-1.1v-8.1h1v8.2
				c0,0.6,0.5,1,1.1,1c0.5,0,1-0.4,1-1v-5.7l0.1-7.2c0-0.7,0-1.3,0-1.7c0.7,1.4,1.2,3,1.3,4.5C10.1,65.2,12.1,65.2,12,63.9z"/>
		</g>
	</g>
	<g id="standing-frontal-man-silhouette-90" transform="translate(4485.352 893.419)">
		<g id="Group_12940" transform="translate(0 0)">
			<ellipse id="Ellipse_9960" class="st0" cx="6" cy="53.4" rx="1.9" ry="1.9"/>
			<path id="Path_13434" class="st0" d="M12,63.9c-0.5-6.1-3.5-7.4-3.5-7.4c-1.9-1-4.1-0.8-5.8,0.5c-1.9,1.8-2.4,4.4-2.7,7
				c-0.2,1.3,1.9,1.3,2.1,0c0.1-1.5,0.5-3,1.2-4.4v1.5l0,7.2v5.7c0,0.6,0.4,1.1,1,1.1c0,0,0,0,0,0c0.6,0,1.1-0.5,1.1-1.1v-8.1h1v8.2
				c0,0.6,0.5,1,1.1,1c0.5,0,1-0.4,1-1v-5.7l0.1-7.2c0-0.7,0-1.3,0-1.7c0.7,1.4,1.2,3,1.3,4.5C10.1,65.2,12.1,65.2,12,63.9z"/>
		</g>
	</g>
	<g id="standing-frontal-man-silhouette-91" transform="translate(4430.352 943.776)">
		<g id="Group_12941" transform="translate(0 0)">
			<ellipse id="Ellipse_9961" class="st0" cx="6" cy="53.4" rx="1.9" ry="1.9"/>
			<path id="Path_13435" class="st0" d="M12,63.9c-0.5-6.1-3.5-7.4-3.5-7.4c-1.9-1-4.1-0.8-5.8,0.5c-1.9,1.8-2.4,4.4-2.7,7
				c-0.2,1.3,1.9,1.3,2.1,0c0.1-1.5,0.5-3,1.2-4.4v1.5l0,7.2v5.7c0,0.6,0.4,1.1,1,1.1c0,0,0,0,0,0c0.6,0,1.1-0.5,1.1-1.1v-8.1h1v8.2
				c0,0.6,0.5,1,1.1,1c0.5,0,1-0.4,1-1v-5.7l0.1-7.2c0-0.7,0-1.3,0-1.7c0.7,1.4,1.2,3,1.3,4.5C10.1,65.2,12.1,65.2,12,63.9z"/>
		</g>
	</g>
	<g id="standing-frontal-man-silhouette-92" transform="translate(4485.352 918.16)">
		<g id="Group_12942" transform="translate(0 0)">
			<ellipse id="Ellipse_9962" class="st0" cx="6" cy="53.4" rx="1.9" ry="1.9"/>
			<path id="Path_13436" class="st0" d="M12,63.9c-0.5-6.1-3.5-7.4-3.5-7.4c-1.9-1-4.1-0.8-5.8,0.5c-1.9,1.8-2.4,4.4-2.7,7
				c-0.2,1.3,1.9,1.3,2.1,0c0.1-1.5,0.5-3,1.2-4.4v1.5l0,7.2v5.7c0,0.6,0.4,1.1,1,1.1c0,0,0,0,0,0c0.6,0,1.1-0.5,1.1-1.1v-8.1h1v8.2
				c0,0.6,0.5,1,1.1,1c0.5,0,1-0.4,1-1v-5.7l0.1-7.2c0-0.7,0-1.3,0-1.7c0.7,1.4,1.2,3,1.3,4.5C10.1,65.2,12.1,65.2,12,63.9z"/>
		</g>
	</g>
	<g id="standing-frontal-man-silhouette-93" transform="translate(4485.352 968.545)">
		<g id="Group_12943" transform="translate(0 0)">
			<ellipse id="Ellipse_9963" class="st0" cx="6" cy="53.4" rx="1.9" ry="1.9"/>
			<path id="Path_13437" class="st0" d="M12,63.9c-0.5-6.1-3.5-7.4-3.5-7.4c-1.9-1-4.1-0.8-5.8,0.5c-1.9,1.8-2.4,4.4-2.7,7
				c-0.2,1.3,1.9,1.3,2.1,0c0.1-1.5,0.5-3,1.2-4.4v1.5l0,7.2v5.7c0,0.6,0.4,1.1,1,1.1c0,0,0,0,0,0c0.6,0,1.1-0.5,1.1-1.1v-8.1h1v8.2
				c0,0.6,0.5,1,1.1,1c0.5,0,1-0.4,1-1v-5.7l0.1-7.2c0-0.7,0-1.3,0-1.7c0.7,1.4,1.2,3,1.3,4.5C10.1,65.2,12.1,65.2,12,63.9z"/>
		</g>
	</g>
	<g id="standing-frontal-man-silhouette-94" transform="translate(4430.352 893.611)">
		<g id="Group_12944" transform="translate(0 0)">
			<ellipse id="Ellipse_9964" class="st0" cx="6" cy="53.4" rx="1.9" ry="1.9"/>
			<path id="Path_13438" class="st0" d="M12,63.9c-0.5-6.1-3.5-7.4-3.5-7.4c-1.9-1-4.1-0.8-5.8,0.5c-1.9,1.8-2.4,4.4-2.7,7
				c-0.2,1.3,1.9,1.3,2.1,0c0.1-1.5,0.5-3,1.2-4.4v1.5l0,7.2v5.7c0,0.6,0.4,1.1,1,1.1c0,0,0,0,0,0c0.6,0,1.1-0.5,1.1-1.1v-8.1h1v8.2
				c0,0.6,0.5,1,1.1,1c0.5,0,1-0.4,1-1v-5.7l0.1-7.2c0-0.7,0-1.3,0-1.7c0.7,1.4,1.2,3,1.3,4.5C10.1,65.2,12.1,65.2,12,63.9z"/>
		</g>
	</g>
	<g id="standing-frontal-man-silhouette-95" transform="translate(4484.547 1220.584)">
		<g id="Group_12945" transform="translate(0 0)">
			<ellipse id="Ellipse_9965" class="st0" cx="6" cy="53.4" rx="1.9" ry="1.9"/>
			<path id="Path_13439" class="st0" d="M12,63.9c-0.5-6.1-3.5-7.4-3.5-7.4c-1.9-1-4.1-0.8-5.8,0.5c-1.9,1.8-2.4,4.4-2.7,7
				c-0.2,1.3,1.9,1.3,2.1,0c0.1-1.5,0.5-3,1.2-4.4v1.5l0,7.2v5.7c0,0.6,0.4,1.1,1,1.1c0,0,0,0,0,0c0.6,0,1.1-0.5,1.1-1.1v-8.1h1v8.2
				c0,0.6,0.5,1,1.1,1c0.5,0,1-0.4,1-1v-5.7l0.1-7.2c0-0.7,0-1.3,0-1.7c0.7,1.4,1.2,3,1.3,4.5C10.1,65.2,12.1,65.2,12,63.9z"/>
		</g>
	</g>
	<g id="standing-frontal-man-silhouette-96" transform="translate(4484.547 1270.968)">
		<g id="Group_12946" transform="translate(0 0)">
			<ellipse id="Ellipse_9966" class="st0" cx="6" cy="53.4" rx="1.9" ry="1.9"/>
			<path id="Path_13440" class="st0" d="M12,63.9c-0.5-6.1-3.5-7.4-3.5-7.4c-1.9-1-4.1-0.8-5.8,0.5c-1.9,1.8-2.4,4.4-2.7,7
				c-0.2,1.3,1.9,1.3,2.1,0c0.1-1.5,0.5-3,1.2-4.4v1.5l0,7.2v5.7c0,0.6,0.4,1.1,1,1.1c0,0,0,0,0,0c0.6,0,1.1-0.5,1.1-1.1v-8.1h1v8.2
				c0,0.6,0.5,1,1.1,1c0.5,0,1-0.4,1-1v-5.7l0.1-7.2c0-0.7,0-1.3,0-1.7c0.7,1.4,1.2,3,1.3,4.5C10.1,65.2,12.1,65.2,12,63.9z"/>
		</g>
	</g>
	<g id="standing-frontal-man-silhouette-97" transform="translate(4484.547 1321.353)">
		<g id="Group_12947" transform="translate(0 0)">
			<ellipse id="Ellipse_9967" class="st0" cx="6" cy="53.4" rx="1.9" ry="1.9"/>
			<path id="Path_13441" class="st0" d="M12,63.9c-0.5-6.1-3.5-7.4-3.5-7.4c-1.9-1-4.1-0.8-5.8,0.5c-1.9,1.8-2.4,4.4-2.7,7
				c-0.2,1.3,1.9,1.3,2.1,0c0.1-1.5,0.5-3,1.2-4.4v1.5l0,7.2v5.7c0,0.6,0.4,1.1,1,1.1c0,0,0,0,0,0c0.6,0,1.1-0.5,1.1-1.1v-8.1h1v8.2
				c0,0.6,0.5,1,1.1,1c0.5,0,1-0.4,1-1v-5.7l0.1-7.2c0-0.7,0-1.3,0-1.7c0.7,1.4,1.2,3,1.3,4.5C10.1,65.2,12.1,65.2,12,63.9z"/>
		</g>
	</g>
	<g id="standing-frontal-man-silhouette-98" transform="translate(4484.547 1170.419)">
		<g id="Group_12948" transform="translate(0 0)">
			<ellipse id="Ellipse_9968" class="st0" cx="6" cy="53.4" rx="1.9" ry="1.9"/>
			<path id="Path_13442" class="st0" d="M12,63.9c-0.5-6.1-3.5-7.4-3.5-7.4c-1.9-1-4.1-0.8-5.8,0.5c-1.9,1.8-2.4,4.4-2.7,7
				c-0.2,1.3,1.9,1.3,2.1,0c0.1-1.5,0.5-3,1.2-4.4v1.5l0,7.2v5.7c0,0.6,0.4,1.1,1,1.1c0,0,0,0,0,0c0.6,0,1.1-0.5,1.1-1.1v-8.1h1v8.2
				c0,0.6,0.5,1,1.1,1c0.5,0,1-0.4,1-1v-5.7l0.1-7.2c0-0.7,0-1.3,0-1.7c0.7,1.4,1.2,3,1.3,4.5C10.1,65.2,12.1,65.2,12,63.9z"/>
		</g>
	</g>
	<g id="standing-frontal-man-silhouette-99" transform="translate(4484.547 1245.776)">
		<g id="Group_12949" transform="translate(0 0)">
			<ellipse id="Ellipse_9969" class="st0" cx="6" cy="53.4" rx="1.9" ry="1.9"/>
			<path id="Path_13443" class="st0" d="M12,63.9c-0.5-6.1-3.5-7.4-3.5-7.4c-1.9-1-4.1-0.8-5.8,0.5c-1.9,1.8-2.4,4.4-2.7,7
				c-0.2,1.3,1.9,1.3,2.1,0c0.1-1.5,0.5-3,1.2-4.4v1.5l0,7.2v5.7c0,0.6,0.4,1.1,1,1.1c0,0,0,0,0,0c0.6,0,1.1-0.5,1.1-1.1v-8.1h1v8.2
				c0,0.6,0.5,1,1.1,1c0.5,0,1-0.4,1-1v-5.7l0.1-7.2c0-0.7,0-1.3,0-1.7c0.7,1.4,1.2,3,1.3,4.5C10.1,65.2,12.1,65.2,12,63.9z"/>
		</g>
	</g>
	<g id="standing-frontal-man-silhouette-100" transform="translate(4484.547 1296.16)">
		<g id="Group_12950" transform="translate(0 0)">
			<ellipse id="Ellipse_9970" class="st0" cx="6" cy="53.4" rx="1.9" ry="1.9"/>
			<path id="Path_13444" class="st0" d="M12,63.9c-0.5-6.1-3.5-7.4-3.5-7.4c-1.9-1-4.1-0.8-5.8,0.5c-1.9,1.8-2.4,4.4-2.7,7
				c-0.2,1.3,1.9,1.3,2.1,0c0.1-1.5,0.5-3,1.2-4.4v1.5l0,7.2v5.7c0,0.6,0.4,1.1,1,1.1c0,0,0,0,0,0c0.6,0,1.1-0.5,1.1-1.1v-8.1h1v8.2
				c0,0.6,0.5,1,1.1,1c0.5,0,1-0.4,1-1v-5.7l0.1-7.2c0-0.7,0-1.3,0-1.7c0.7,1.4,1.2,3,1.3,4.5C10.1,65.2,12.1,65.2,12,63.9z"/>
		</g>
	</g>
	<g id="standing-frontal-man-silhouette-101" transform="translate(4484.547 1346.545)">
		<g id="Group_12951" transform="translate(0 0)">
			<ellipse id="Ellipse_9971" class="st0" cx="6" cy="53.4" rx="1.9" ry="1.9"/>
			<path id="Path_13445" class="st0" d="M12,63.9c-0.5-6.1-3.5-7.4-3.5-7.4c-1.9-1-4.1-0.8-5.8,0.5c-1.9,1.8-2.4,4.4-2.7,7
				c-0.2,1.3,1.9,1.3,2.1,0c0.1-1.5,0.5-3,1.2-4.4v1.5l0,7.2v5.7c0,0.6,0.4,1.1,1,1.1c0,0,0,0,0,0c0.6,0,1.1-0.5,1.1-1.1v-8.1h1v8.2
				c0,0.6,0.5,1,1.1,1c0.5,0,1-0.4,1-1v-5.7l0.1-7.2c0-0.7,0-1.3,0-1.7c0.7,1.4,1.2,3,1.3,4.5C10.1,65.2,12.1,65.2,12,63.9z"/>
		</g>
	</g>
	<g id="standing-frontal-man-silhouette-102" transform="translate(4484.547 1195.611)">
		<g id="Group_12952" transform="translate(0 0)">
			<ellipse id="Ellipse_9972" class="st0" cx="6" cy="53.4" rx="1.9" ry="1.9"/>
			<path id="Path_13446" class="st0" d="M12,63.9c-0.5-6.1-3.5-7.4-3.5-7.4c-1.9-1-4.1-0.8-5.8,0.5c-1.9,1.8-2.4,4.4-2.7,7
				c-0.2,1.3,1.9,1.3,2.1,0c0.1-1.5,0.5-3,1.2-4.4v1.5l0,7.2v5.7c0,0.6,0.4,1.1,1,1.1c0,0,0,0,0,0c0.6,0,1.1-0.5,1.1-1.1v-8.1h1v8.2
				c0,0.6,0.5,1,1.1,1c0.5,0,1-0.4,1-1v-5.7l0.1-7.2c0-0.7,0-1.3,0-1.7c0.7,1.4,1.2,3,1.3,4.5C10.1,65.2,12.1,65.2,12,63.9z"/>
		</g>
	</g>
	<g id="standing-frontal-man-silhouette-103" transform="translate(4430.156 1019.584)">
		<g id="Group_12953" transform="translate(0 0)">
			<ellipse id="Ellipse_9973" class="st0" cx="6" cy="53.4" rx="1.9" ry="1.9"/>
			<path id="Path_13447" class="st0" d="M12,63.9c-0.5-6.1-3.5-7.4-3.5-7.4c-1.9-1-4.1-0.8-5.8,0.5c-1.9,1.8-2.4,4.4-2.7,7
				c-0.2,1.3,1.9,1.3,2.1,0c0.1-1.5,0.5-3,1.2-4.4v1.5l0,7.2v5.7c0,0.6,0.4,1.1,1,1.1c0,0,0,0,0,0c0.6,0,1.1-0.5,1.1-1.1v-8.1h1v8.2
				c0,0.6,0.5,1,1.1,1c0.5,0,1-0.4,1-1v-5.7l0.1-7.2c0-0.7,0-1.3,0-1.7c0.7,1.4,1.2,3,1.3,4.5C10.1,65.2,12.1,65.2,12,63.9z"/>
		</g>
	</g>
	<g id="standing-frontal-man-silhouette-104" transform="translate(4430.156 1069.968)">
		<g id="Group_12954" transform="translate(0 0)">
			<ellipse id="Ellipse_9974" class="st0" cx="6" cy="53.4" rx="1.9" ry="1.9"/>
			<path id="Path_13448" class="st0" d="M12,63.9c-0.5-6.1-3.5-7.4-3.5-7.4c-1.9-1-4.1-0.8-5.8,0.5c-1.9,1.8-2.4,4.4-2.7,7
				c-0.2,1.3,1.9,1.3,2.1,0c0.1-1.5,0.5-3,1.2-4.4v1.5l0,7.2v5.7c0,0.6,0.4,1.1,1,1.1c0,0,0,0,0,0c0.6,0,1.1-0.5,1.1-1.1v-8.1h1v8.2
				c0,0.6,0.5,1,1.1,1c0.5,0,1-0.4,1-1v-5.7l0.1-7.2c0-0.7,0-1.3,0-1.7c0.7,1.4,1.2,3,1.3,4.5C10.1,65.2,12.1,65.2,12,63.9z"/>
		</g>
	</g>
	<g id="standing-frontal-man-silhouette-105" transform="translate(4430.156 1120.353)">
		<g id="Group_12955" transform="translate(0 0)">
			<ellipse id="Ellipse_9975" class="st0" cx="6" cy="53.4" rx="1.9" ry="1.9"/>
			<path id="Path_13449" class="st0" d="M12,63.9c-0.5-6.1-3.5-7.4-3.5-7.4c-1.9-1-4.1-0.8-5.8,0.5c-1.9,1.8-2.4,4.4-2.7,7
				c-0.2,1.3,1.9,1.3,2.1,0c0.1-1.5,0.5-3,1.2-4.4v1.5l0,7.2v5.7c0,0.6,0.4,1.1,1,1.1c0,0,0,0,0,0c0.6,0,1.1-0.5,1.1-1.1v-8.1h1v8.2
				c0,0.6,0.5,1,1.1,1c0.5,0,1-0.4,1-1v-5.7l0.1-7.2c0-0.7,0-1.3,0-1.7c0.7,1.4,1.2,3,1.3,4.5C10.1,65.2,12.1,65.2,12,63.9z"/>
		</g>
	</g>
	<g id="standing-frontal-man-silhouette-106" transform="translate(4430.156 1044.776)">
		<g id="Group_12956" transform="translate(0 0)">
			<ellipse id="Ellipse_9976" class="st0" cx="6" cy="53.4" rx="1.9" ry="1.9"/>
			<path id="Path_13450" class="st0" d="M12,63.9c-0.5-6.1-3.5-7.4-3.5-7.4c-1.9-1-4.1-0.8-5.8,0.5c-1.9,1.8-2.4,4.4-2.7,7
				c-0.2,1.3,1.9,1.3,2.1,0c0.1-1.5,0.5-3,1.2-4.4v1.5l0,7.2v5.7c0,0.6,0.4,1.1,1,1.1c0,0,0,0,0,0c0.6,0,1.1-0.5,1.1-1.1v-8.1h1v8.2
				c0,0.6,0.5,1,1.1,1c0.5,0,1-0.4,1-1v-5.7l0.1-7.2c0-0.7,0-1.3,0-1.7c0.7,1.4,1.2,3,1.3,4.5C10.1,65.2,12.1,65.2,12,63.9z"/>
		</g>
	</g>
	<g id="standing-frontal-man-silhouette-107" transform="translate(4430.156 1095.16)">
		<g id="Group_12957" transform="translate(0 0)">
			<ellipse id="Ellipse_9977" class="st0" cx="6" cy="53.4" rx="1.9" ry="1.9"/>
			<path id="Path_13451" class="st0" d="M12,63.9c-0.5-6.1-3.5-7.4-3.5-7.4c-1.9-1-4.1-0.8-5.8,0.5c-1.9,1.8-2.4,4.4-2.7,7
				c-0.2,1.3,1.9,1.3,2.1,0c0.1-1.5,0.5-3,1.2-4.4v1.5l0,7.2v5.7c0,0.6,0.4,1.1,1,1.1c0,0,0,0,0,0c0.6,0,1.1-0.5,1.1-1.1v-8.1h1v8.2
				c0,0.6,0.5,1,1.1,1c0.5,0,1-0.4,1-1v-5.7l0.1-7.2c0-0.7,0-1.3,0-1.7c0.7,1.4,1.2,3,1.3,4.5C10.1,65.2,12.1,65.2,12,63.9z"/>
		</g>
	</g>
	<g id="standing-frontal-man-silhouette-108" transform="translate(4430.156 1145.545)">
		<g id="Group_12958" transform="translate(0 0)">
			<ellipse id="Ellipse_9978" class="st0" cx="6" cy="53.4" rx="1.9" ry="1.9"/>
			<path id="Path_13452" class="st0" d="M12,63.9c-0.5-6.1-3.5-7.4-3.5-7.4c-1.9-1-4.1-0.8-5.8,0.5c-1.9,1.8-2.4,4.4-2.7,7
				c-0.2,1.3,1.9,1.3,2.1,0c0.1-1.5,0.5-3,1.2-4.4v1.5l0,7.2v5.7c0,0.6,0.4,1.1,1,1.1c0,0,0,0,0,0c0.6,0,1.1-0.5,1.1-1.1v-8.1h1v8.2
				c0,0.6,0.5,1,1.1,1c0.5,0,1-0.4,1-1v-5.7l0.1-7.2c0-0.7,0-1.3,0-1.7c0.7,1.4,1.2,3,1.3,4.5C10.1,65.2,12.1,65.2,12,63.9z"/>
		</g>
	</g>
	<g id="standing-frontal-man-silhouette-109" transform="translate(4430.156 994.611)">
		<g id="Group_12959" transform="translate(0 0)">
			<ellipse id="Ellipse_9979" class="st0" cx="6" cy="53.4" rx="1.9" ry="1.9"/>
			<path id="Path_13453" class="st0" d="M12,63.9c-0.5-6.1-3.5-7.4-3.5-7.4c-1.9-1-4.1-0.8-5.8,0.5c-1.9,1.8-2.4,4.4-2.7,7
				c-0.2,1.3,1.9,1.3,2.1,0c0.1-1.5,0.5-3,1.2-4.4v1.5l0,7.2v5.7c0,0.6,0.4,1.1,1,1.1c0,0,0,0,0,0c0.6,0,1.1-0.5,1.1-1.1v-8.1h1v8.2
				c0,0.6,0.5,1,1.1,1c0.5,0,1-0.4,1-1v-5.7l0.1-7.2c0-0.7,0-1.3,0-1.7c0.7,1.4,1.2,3,1.3,4.5C10.1,65.2,12.1,65.2,12,63.9z"/>
		</g>
	</g>
	<g id="standing-frontal-man-silhouette-110" transform="translate(4484.959 1069.968)">
		<g id="Group_12960" transform="translate(0 0)">
			<ellipse id="Ellipse_9980" class="st0" cx="6" cy="53.4" rx="1.9" ry="1.9"/>
			<path id="Path_13454" class="st0" d="M12,63.9c-0.5-6.1-3.5-7.4-3.5-7.4c-1.9-1-4.1-0.8-5.8,0.5c-1.9,1.8-2.4,4.4-2.7,7
				c-0.2,1.3,1.9,1.3,2.1,0c0.1-1.5,0.5-3,1.2-4.4v1.5l0,7.2v5.7c0,0.6,0.4,1.1,1,1.1c0,0,0,0,0,0c0.6,0,1.1-0.5,1.1-1.1v-8.1h1v8.2
				c0,0.6,0.5,1,1.1,1c0.5,0,1-0.4,1-1v-5.7l0.1-7.2c0-0.7,0-1.3,0-1.7c0.7,1.4,1.2,3,1.3,4.5C10.1,65.2,12.1,65.2,12,63.9z"/>
		</g>
	</g>
	<g id="standing-frontal-man-silhouette-111" transform="translate(4484.959 1120.353)">
		<g id="Group_12961" transform="translate(0 0)">
			<ellipse id="Ellipse_9981" class="st0" cx="6" cy="53.4" rx="1.9" ry="1.9"/>
			<path id="Path_13455" class="st0" d="M12,63.9c-0.5-6.1-3.5-7.4-3.5-7.4c-1.9-1-4.1-0.8-5.8,0.5c-1.9,1.8-2.4,4.4-2.7,7
				c-0.2,1.3,1.9,1.3,2.1,0c0.1-1.5,0.5-3,1.2-4.4v1.5l0,7.2v5.7c0,0.6,0.4,1.1,1,1.1c0,0,0,0,0,0c0.6,0,1.1-0.5,1.1-1.1v-8.1h1v8.2
				c0,0.6,0.5,1,1.1,1c0.5,0,1-0.4,1-1v-5.7l0.1-7.2c0-0.7,0-1.3,0-1.7c0.7,1.4,1.2,3,1.3,4.5C10.1,65.2,12.1,65.2,12,63.9z"/>
		</g>
	</g>
	<g id="standing-frontal-man-silhouette-112" transform="translate(4484.959 1044.776)">
		<g id="Group_12962" transform="translate(0 0)">
			<ellipse id="Ellipse_9982" class="st0" cx="6" cy="53.4" rx="1.9" ry="1.9"/>
			<path id="Path_13456" class="st0" d="M12,63.9c-0.5-6.1-3.5-7.4-3.5-7.4c-1.9-1-4.1-0.8-5.8,0.5c-1.9,1.8-2.4,4.4-2.7,7
				c-0.2,1.3,1.9,1.3,2.1,0c0.1-1.5,0.5-3,1.2-4.4v1.5l0,7.2v5.7c0,0.6,0.4,1.1,1,1.1c0,0,0,0,0,0c0.6,0,1.1-0.5,1.1-1.1v-8.1h1v8.2
				c0,0.6,0.5,1,1.1,1c0.5,0,1-0.4,1-1v-5.7l0.1-7.2c0-0.7,0-1.3,0-1.7c0.7,1.4,1.2,3,1.3,4.5C10.1,65.2,12.1,65.2,12,63.9z"/>
		</g>
	</g>
	<g id="standing-frontal-man-silhouette-113" transform="translate(4484.959 1095.16)">
		<g id="Group_12963" transform="translate(0 0)">
			<ellipse id="Ellipse_9983" class="st0" cx="6" cy="53.4" rx="1.9" ry="1.9"/>
			<path id="Path_13457" class="st0" d="M12,63.9c-0.5-6.1-3.5-7.4-3.5-7.4c-1.9-1-4.1-0.8-5.8,0.5c-1.9,1.8-2.4,4.4-2.7,7
				c-0.2,1.3,1.9,1.3,2.1,0c0.1-1.5,0.5-3,1.2-4.4v1.5l0,7.2v5.7c0,0.6,0.4,1.1,1,1.1c0,0,0,0,0,0c0.6,0,1.1-0.5,1.1-1.1v-8.1h1v8.2
				c0,0.6,0.5,1,1.1,1c0.5,0,1-0.4,1-1v-5.7l0.1-7.2c0-0.7,0-1.3,0-1.7c0.7,1.4,1.2,3,1.3,4.5C10.1,65.2,12.1,65.2,12,63.9z"/>
		</g>
	</g>
	<g id="standing-frontal-man-silhouette-114" transform="translate(4484.959 1145.545)">
		<g id="Group_12964" transform="translate(0 0)">
			<ellipse id="Ellipse_9984" class="st0" cx="6" cy="53.4" rx="1.9" ry="1.9"/>
			<path id="Path_13458" class="st0" d="M12,63.9c-0.5-6.1-3.5-7.4-3.5-7.4c-1.9-1-4.1-0.8-5.8,0.5c-1.9,1.8-2.4,4.4-2.7,7
				c-0.2,1.3,1.9,1.3,2.1,0c0.1-1.5,0.5-3,1.2-4.4v1.5l0,7.2v5.7c0,0.6,0.4,1.1,1,1.1c0,0,0,0,0,0c0.6,0,1.1-0.5,1.1-1.1v-8.1h1v8.2
				c0,0.6,0.5,1,1.1,1c0.5,0,1-0.4,1-1v-5.7l0.1-7.2c0-0.7,0-1.3,0-1.7c0.7,1.4,1.2,3,1.3,4.5C10.1,65.2,12.1,65.2,12,63.9z"/>
		</g>
	</g>
	<g id="standing-frontal-man-silhouette-115" transform="translate(4484.959 994.611)">
		<g id="Group_12965" transform="translate(0 0)">
			<ellipse id="Ellipse_9985" class="st0" cx="6" cy="53.4" rx="1.9" ry="1.9"/>
			<path id="Path_13459" class="st0" d="M12,63.9c-0.5-6.1-3.5-7.4-3.5-7.4c-1.9-1-4.1-0.8-5.8,0.5c-1.9,1.8-2.4,4.4-2.7,7
				c-0.2,1.3,1.9,1.3,2.1,0c0.1-1.5,0.5-3,1.2-4.4v1.5l0,7.2v5.7c0,0.6,0.4,1.1,1,1.1c0,0,0,0,0,0c0.6,0,1.1-0.5,1.1-1.1v-8.1h1v8.2
				c0,0.6,0.5,1,1.1,1c0.5,0,1-0.4,1-1v-5.7l0.1-7.2c0-0.7,0-1.3,0-1.7c0.7,1.4,1.2,3,1.3,4.5C10.1,65.2,12.1,65.2,12,63.9z"/>
		</g>
	</g>
	<g id="standing-frontal-man-silhouette-116" transform="translate(4457.145 1220.584)">
		<g id="Group_12966" transform="translate(0 0)">
			<ellipse id="Ellipse_9986" class="st0" cx="6" cy="53.4" rx="1.9" ry="1.9"/>
			<path id="Path_13460" class="st0" d="M12,63.9c-0.5-6.1-3.5-7.4-3.5-7.4c-1.9-1-4.1-0.8-5.8,0.5c-1.9,1.8-2.4,4.4-2.7,7
				c-0.2,1.3,1.9,1.3,2.1,0c0.1-1.5,0.5-3,1.2-4.4v1.5l0,7.2v5.7c0,0.6,0.4,1.1,1,1.1c0,0,0,0,0,0c0.6,0,1.1-0.5,1.1-1.1v-8.1h1v8.2
				c0,0.6,0.5,1,1.1,1c0.5,0,1-0.4,1-1v-5.7l0.1-7.2c0-0.7,0-1.3,0-1.7c0.7,1.4,1.2,3,1.3,4.5C10.1,65.2,12.1,65.2,12,63.9z"/>
		</g>
	</g>
	<g id="standing-frontal-man-silhouette-117" transform="translate(4485.406 1019.584)">
		<g id="Group_12967" transform="translate(0 0)">
			<ellipse id="Ellipse_9987" class="st0" cx="6" cy="53.4" rx="1.9" ry="1.9"/>
			<path id="Path_13461" class="st0" d="M12,63.9c-0.5-6.1-3.5-7.4-3.5-7.4c-1.9-1-4.1-0.8-5.8,0.5c-1.9,1.8-2.4,4.4-2.7,7
				c-0.2,1.3,1.9,1.3,2.1,0c0.1-1.5,0.5-3,1.2-4.4v1.5l0,7.2v5.7c0,0.6,0.4,1.1,1,1.1c0,0,0,0,0,0c0.6,0,1.1-0.5,1.1-1.1v-8.1h1v8.2
				c0,0.6,0.5,1,1.1,1c0.5,0,1-0.4,1-1v-5.7l0.1-7.2c0-0.7,0-1.3,0-1.7c0.7,1.4,1.2,3,1.3,4.5C10.1,65.2,12.1,65.2,12,63.9z"/>
		</g>
	</g>
	<g id="standing-frontal-man-silhouette-118" transform="translate(4457.145 1270.968)">
		<g id="Group_12968" transform="translate(0 0)">
			<ellipse id="Ellipse_9988" class="st0" cx="6" cy="53.4" rx="1.9" ry="1.9"/>
			<path id="Path_13462" class="st0" d="M12,63.9c-0.5-6.1-3.5-7.4-3.5-7.4c-1.9-1-4.1-0.8-5.8,0.5c-1.9,1.8-2.4,4.4-2.7,7
				c-0.2,1.3,1.9,1.3,2.1,0c0.1-1.5,0.5-3,1.2-4.4v1.5l0,7.2v5.7c0,0.6,0.4,1.1,1,1.1c0,0,0,0,0,0c0.6,0,1.1-0.5,1.1-1.1v-8.1h1v8.2
				c0,0.6,0.5,1,1.1,1c0.5,0,1-0.4,1-1v-5.7l0.1-7.2c0-0.7,0-1.3,0-1.7c0.7,1.4,1.2,3,1.3,4.5C10.1,65.2,12.1,65.2,12,63.9z"/>
		</g>
	</g>
	<g id="standing-frontal-man-silhouette-119" transform="translate(4457.145 1321.353)">
		<g id="Group_12969" transform="translate(0 0)">
			<ellipse id="Ellipse_9989" class="st0" cx="6" cy="53.4" rx="1.9" ry="1.9"/>
			<path id="Path_13463" class="st0" d="M12,63.9c-0.5-6.1-3.5-7.4-3.5-7.4c-1.9-1-4.1-0.8-5.8,0.5c-1.9,1.8-2.4,4.4-2.7,7
				c-0.2,1.3,1.9,1.3,2.1,0c0.1-1.5,0.5-3,1.2-4.4v1.5l0,7.2v5.7c0,0.6,0.4,1.1,1,1.1c0,0,0,0,0,0c0.6,0,1.1-0.5,1.1-1.1v-8.1h1v8.2
				c0,0.6,0.5,1,1.1,1c0.5,0,1-0.4,1-1v-5.7l0.1-7.2c0-0.7,0-1.3,0-1.7c0.7,1.4,1.2,3,1.3,4.5C10.1,65.2,12.1,65.2,12,63.9z"/>
		</g>
	</g>
	<g id="standing-frontal-man-silhouette-120" transform="translate(4457.145 1170.419)">
		<g id="Group_12970" transform="translate(0 0)">
			<ellipse id="Ellipse_9990" class="st0" cx="6" cy="53.4" rx="1.9" ry="1.9"/>
			<path id="Path_13464" class="st0" d="M12,63.9c-0.5-6.1-3.5-7.4-3.5-7.4c-1.9-1-4.1-0.8-5.8,0.5c-1.9,1.8-2.4,4.4-2.7,7
				c-0.2,1.3,1.9,1.3,2.1,0c0.1-1.5,0.5-3,1.2-4.4v1.5l0,7.2v5.7c0,0.6,0.4,1.1,1,1.1c0,0,0,0,0,0c0.6,0,1.1-0.5,1.1-1.1v-8.1h1v8.2
				c0,0.6,0.5,1,1.1,1c0.5,0,1-0.4,1-1v-5.7l0.1-7.2c0-0.7,0-1.3,0-1.7c0.7,1.4,1.2,3,1.3,4.5C10.1,65.2,12.1,65.2,12,63.9z"/>
		</g>
	</g>
	<g id="standing-frontal-man-silhouette-121" transform="translate(4457.145 1245.776)">
		<g id="Group_12971" transform="translate(0 0)">
			<ellipse id="Ellipse_9991" class="st0" cx="6" cy="53.4" rx="1.9" ry="1.9"/>
			<path id="Path_13465" class="st0" d="M12,63.9c-0.5-6.1-3.5-7.4-3.5-7.4c-1.9-1-4.1-0.8-5.8,0.5c-1.9,1.8-2.4,4.4-2.7,7
				c-0.2,1.3,1.9,1.3,2.1,0c0.1-1.5,0.5-3,1.2-4.4v1.5l0,7.2v5.7c0,0.6,0.4,1.1,1,1.1c0,0,0,0,0,0c0.6,0,1.1-0.5,1.1-1.1v-8.1h1v8.2
				c0,0.6,0.5,1,1.1,1c0.5,0,1-0.4,1-1v-5.7l0.1-7.2c0-0.7,0-1.3,0-1.7c0.7,1.4,1.2,3,1.3,4.5C10.1,65.2,12.1,65.2,12,63.9z"/>
		</g>
	</g>
	<g id="standing-frontal-man-silhouette-122" transform="translate(4457.145 1296.16)">
		<g id="Group_12972" transform="translate(0 0)">
			<ellipse id="Ellipse_9992" class="st0" cx="6" cy="53.4" rx="1.9" ry="1.9"/>
			<path id="Path_13466" class="st0" d="M12,63.9c-0.5-6.1-3.5-7.4-3.5-7.4c-1.9-1-4.1-0.8-5.8,0.5c-1.9,1.8-2.4,4.4-2.7,7
				c-0.2,1.3,1.9,1.3,2.1,0c0.1-1.5,0.5-3,1.2-4.4v1.5l0,7.2v5.7c0,0.6,0.4,1.1,1,1.1c0,0,0,0,0,0c0.6,0,1.1-0.5,1.1-1.1v-8.1h1v8.2
				c0,0.6,0.5,1,1.1,1c0.5,0,1-0.4,1-1v-5.7l0.1-7.2c0-0.7,0-1.3,0-1.7c0.7,1.4,1.2,3,1.3,4.5C10.1,65.2,12.1,65.2,12,63.9z"/>
		</g>
	</g>
	<g id="standing-frontal-man-silhouette-123" transform="translate(4457.145 1346.545)">
		<g id="Group_12973" transform="translate(0 0)">
			<ellipse id="Ellipse_9993" class="st0" cx="6" cy="53.4" rx="1.9" ry="1.9"/>
			<path id="Path_13467" class="st0" d="M12,63.9c-0.5-6.1-3.5-7.4-3.5-7.4c-1.9-1-4.1-0.8-5.8,0.5c-1.9,1.8-2.4,4.4-2.7,7
				c-0.2,1.3,1.9,1.3,2.1,0c0.1-1.5,0.5-3,1.2-4.4v1.5l0,7.2v5.7c0,0.6,0.4,1.1,1,1.1c0,0,0,0,0,0c0.6,0,1.1-0.5,1.1-1.1v-8.1h1v8.2
				c0,0.6,0.5,1,1.1,1c0.5,0,1-0.4,1-1v-5.7l0.1-7.2c0-0.7,0-1.3,0-1.7c0.7,1.4,1.2,3,1.3,4.5C10.1,65.2,12.1,65.2,12,63.9z"/>
		</g>
	</g>
	<g id="standing-frontal-man-silhouette-124" transform="translate(4457.145 1195.611)">
		<g id="Group_12974" transform="translate(0 0)">
			<ellipse id="Ellipse_9994" class="st0" cx="6" cy="53.4" rx="1.9" ry="1.9"/>
			<path id="Path_13468" class="st0" d="M12,63.9c-0.5-6.1-3.5-7.4-3.5-7.4c-1.9-1-4.1-0.8-5.8,0.5c-1.9,1.8-2.4,4.4-2.7,7
				c-0.2,1.3,1.9,1.3,2.1,0c0.1-1.5,0.5-3,1.2-4.4v1.5l0,7.2v5.7c0,0.6,0.4,1.1,1,1.1c0,0,0,0,0,0c0.6,0,1.1-0.5,1.1-1.1v-8.1h1v8.2
				c0,0.6,0.5,1,1.1,1c0.5,0,1-0.4,1-1v-5.7l0.1-7.2c0-0.7,0-1.3,0-1.7c0.7,1.4,1.2,3,1.3,4.5C10.1,65.2,12.1,65.2,12,63.9z"/>
		</g>
	</g>
	<g id="standing-frontal-man-silhouette-125" transform="translate(4457.754 918.584)">
		<g id="Group_12975" transform="translate(0 0)">
			<ellipse id="Ellipse_9995" class="st0" cx="6" cy="53.4" rx="1.9" ry="1.9"/>
			<path id="Path_13469" class="st0" d="M12,63.9c-0.5-6.1-3.5-7.4-3.5-7.4c-1.9-1-4.1-0.8-5.8,0.5c-1.9,1.8-2.4,4.4-2.7,7
				c-0.2,1.3,1.9,1.3,2.1,0c0.1-1.5,0.5-3,1.2-4.4v1.5l0,7.2v5.7c0,0.6,0.4,1.1,1,1.1c0,0,0,0,0,0c0.6,0,1.1-0.5,1.1-1.1v-8.1h1v8.2
				c0,0.6,0.5,1,1.1,1c0.5,0,1-0.4,1-1v-5.7l0.1-7.2c0-0.7,0-1.3,0-1.7c0.7,1.4,1.2,3,1.3,4.5C10.1,65.2,12.1,65.2,12,63.9z"/>
		</g>
	</g>
	<g id="standing-frontal-man-silhouette-126" transform="translate(4457.754 968.968)">
		<g id="Group_12976" transform="translate(0 0)">
			<ellipse id="Ellipse_9996" class="st0" cx="6" cy="53.4" rx="1.9" ry="1.9"/>
			<path id="Path_13470" class="st0" d="M12,63.9c-0.5-6.1-3.5-7.4-3.5-7.4c-1.9-1-4.1-0.8-5.8,0.5c-1.9,1.8-2.4,4.4-2.7,7
				c-0.2,1.3,1.9,1.3,2.1,0c0.1-1.5,0.5-3,1.2-4.4v1.5l0,7.2v5.7c0,0.6,0.4,1.1,1,1.1c0,0,0,0,0,0c0.6,0,1.1-0.5,1.1-1.1v-8.1h1v8.2
				c0,0.6,0.5,1,1.1,1c0.5,0,1-0.4,1-1v-5.7l0.1-7.2c0-0.7,0-1.3,0-1.7c0.7,1.4,1.2,3,1.3,4.5C10.1,65.2,12.1,65.2,12,63.9z"/>
		</g>
	</g>
	<g id="standing-frontal-man-silhouette-127" transform="translate(4512.754 943.353)">
		<g id="Group_12977" transform="translate(0 0)">
			<ellipse id="Ellipse_9997" class="st0" cx="6" cy="53.4" rx="1.9" ry="1.9"/>
			<path id="Path_13471" class="st0" d="M12,63.9c-0.5-6.1-3.5-7.4-3.5-7.4c-1.9-1-4.1-0.8-5.8,0.5c-1.9,1.8-2.4,4.4-2.7,7
				c-0.2,1.3,1.9,1.3,2.1,0c0.1-1.5,0.5-3,1.2-4.4v1.5l0,7.2v5.7c0,0.6,0.4,1.1,1,1.1c0,0,0,0,0,0c0.6,0,1.1-0.5,1.1-1.1v-8.1h1v8.2
				c0,0.6,0.5,1,1.1,1c0.5,0,1-0.4,1-1v-5.7l0.1-7.2c0-0.7,0-1.3,0-1.7c0.7,1.4,1.2,3,1.3,4.5C10.1,65.2,12.1,65.2,12,63.9z"/>
		</g>
	</g>
	<g id="standing-frontal-man-silhouette-128" transform="translate(4457.754 943.776)">
		<g id="Group_12978" transform="translate(0 0)">
			<ellipse id="Ellipse_9998" class="st0" cx="6" cy="53.4" rx="1.9" ry="1.9"/>
			<path id="Path_13472" class="st0" d="M12,63.9c-0.5-6.1-3.5-7.4-3.5-7.4c-1.9-1-4.1-0.8-5.8,0.5c-1.9,1.8-2.4,4.4-2.7,7
				c-0.2,1.3,1.9,1.3,2.1,0c0.1-1.5,0.5-3,1.2-4.4v1.5l0,7.2v5.7c0,0.6,0.4,1.1,1,1.1c0,0,0,0,0,0c0.6,0,1.1-0.5,1.1-1.1v-8.1h1v8.2
				c0,0.6,0.5,1,1.1,1c0.5,0,1-0.4,1-1v-5.7l0.1-7.2c0-0.7,0-1.3,0-1.7c0.7,1.4,1.2,3,1.3,4.5C10.1,65.2,12.1,65.2,12,63.9z"/>
		</g>
	</g>
	<g id="standing-frontal-man-silhouette-129" transform="translate(4512.754 918.16)">
		<g id="Group_12979" transform="translate(0 0)">
			<ellipse id="Ellipse_9999" class="st0" cx="6" cy="53.4" rx="1.9" ry="1.9"/>
			<path id="Path_13473" class="st0" d="M12,63.9c-0.5-6.1-3.5-7.4-3.5-7.4c-1.9-1-4.1-0.8-5.8,0.5c-1.9,1.8-2.4,4.4-2.7,7
				c-0.2,1.3,1.9,1.3,2.1,0c0.1-1.5,0.5-3,1.2-4.4v1.5l0,7.2v5.7c0,0.6,0.4,1.1,1,1.1c0,0,0,0,0,0c0.6,0,1.1-0.5,1.1-1.1v-8.1h1v8.2
				c0,0.6,0.5,1,1.1,1c0.5,0,1-0.4,1-1v-5.7l0.1-7.2c0-0.7,0-1.3,0-1.7c0.7,1.4,1.2,3,1.3,4.5C10.1,65.2,12.1,65.2,12,63.9z"/>
		</g>
	</g>
	<g id="standing-frontal-man-silhouette-130" transform="translate(4512.754 968.545)">
		<g id="Group_12980" transform="translate(0 0)">
			<ellipse id="Ellipse_10000" class="st0" cx="6" cy="53.4" rx="1.9" ry="1.9"/>
			<path id="Path_13474" class="st0" d="M12,63.9c-0.5-6.1-3.5-7.4-3.5-7.4c-1.9-1-4.1-0.8-5.8,0.5c-1.9,1.8-2.4,4.4-2.7,7
				c-0.2,1.3,1.9,1.3,2.1,0c0.1-1.5,0.5-3,1.2-4.4v1.5l0,7.2v5.7c0,0.6,0.4,1.1,1,1.1c0,0,0,0,0,0c0.6,0,1.1-0.5,1.1-1.1v-8.1h1v8.2
				c0,0.6,0.5,1,1.1,1c0.5,0,1-0.4,1-1v-5.7l0.1-7.2c0-0.7,0-1.3,0-1.7c0.7,1.4,1.2,3,1.3,4.5C10.1,65.2,12.1,65.2,12,63.9z"/>
		</g>
	</g>
	<g id="standing-frontal-man-silhouette-131" transform="translate(4457.754 893.611)">
		<g id="Group_12981" transform="translate(0 0)">
			<ellipse id="Ellipse_10001" class="st0" cx="6" cy="53.4" rx="1.9" ry="1.9"/>
			<path id="Path_13475" class="st0" d="M12,63.9c-0.5-6.1-3.5-7.4-3.5-7.4c-1.9-1-4.1-0.8-5.8,0.5c-1.9,1.8-2.4,4.4-2.7,7
				c-0.2,1.3,1.9,1.3,2.1,0c0.1-1.5,0.5-3,1.2-4.4v1.5l0,7.2v5.7c0,0.6,0.4,1.1,1,1.1c0,0,0,0,0,0c0.6,0,1.1-0.5,1.1-1.1v-8.1h1v8.2
				c0,0.6,0.5,1,1.1,1c0.5,0,1-0.4,1-1v-5.7l0.1-7.2c0-0.7,0-1.3,0-1.7c0.7,1.4,1.2,3,1.3,4.5C10.1,65.2,12.1,65.2,12,63.9z"/>
		</g>
	</g>
	<g id="standing-frontal-man-silhouette-132" transform="translate(4511.949 1220.584)">
		<g id="Group_12982" transform="translate(0 0)">
			<ellipse id="Ellipse_10002" class="st0" cx="6" cy="53.4" rx="1.9" ry="1.9"/>
			<path id="Path_13476" class="st0" d="M12,63.9c-0.5-6.1-3.5-7.4-3.5-7.4c-1.9-1-4.1-0.8-5.8,0.5c-1.9,1.8-2.4,4.4-2.7,7
				c-0.2,1.3,1.9,1.3,2.1,0c0.1-1.5,0.5-3,1.2-4.4v1.5l0,7.2v5.7c0,0.6,0.4,1.1,1,1.1c0,0,0,0,0,0c0.6,0,1.1-0.5,1.1-1.1v-8.1h1v8.2
				c0,0.6,0.5,1,1.1,1c0.5,0,1-0.4,1-1v-5.7l0.1-7.2c0-0.7,0-1.3,0-1.7c0.7,1.4,1.2,3,1.3,4.5C10.1,65.2,12.1,65.2,12,63.9z"/>
		</g>
	</g>
	<g id="standing-frontal-man-silhouette-133" transform="translate(4511.949 1270.968)">
		<g id="Group_12983" transform="translate(0 0)">
			<ellipse id="Ellipse_10003" class="st0" cx="6" cy="53.4" rx="1.9" ry="1.9"/>
			<path id="Path_13477" class="st0" d="M12,63.9c-0.5-6.1-3.5-7.4-3.5-7.4c-1.9-1-4.1-0.8-5.8,0.5c-1.9,1.8-2.4,4.4-2.7,7
				c-0.2,1.3,1.9,1.3,2.1,0c0.1-1.5,0.5-3,1.2-4.4v1.5l0,7.2v5.7c0,0.6,0.4,1.1,1,1.1c0,0,0,0,0,0c0.6,0,1.1-0.5,1.1-1.1v-8.1h1v8.2
				c0,0.6,0.5,1,1.1,1c0.5,0,1-0.4,1-1v-5.7l0.1-7.2c0-0.7,0-1.3,0-1.7c0.7,1.4,1.2,3,1.3,4.5C10.1,65.2,12.1,65.2,12,63.9z"/>
		</g>
	</g>
	<g id="standing-frontal-man-silhouette-134" transform="translate(4511.949 1321.353)">
		<g id="Group_12984" transform="translate(0 0)">
			<ellipse id="Ellipse_10004" class="st0" cx="6" cy="53.4" rx="1.9" ry="1.9"/>
			<path id="Path_13478" class="st0" d="M12,63.9c-0.5-6.1-3.5-7.4-3.5-7.4c-1.9-1-4.1-0.8-5.8,0.5c-1.9,1.8-2.4,4.4-2.7,7
				c-0.2,1.3,1.9,1.3,2.1,0c0.1-1.5,0.5-3,1.2-4.4v1.5l0,7.2v5.7c0,0.6,0.4,1.1,1,1.1c0,0,0,0,0,0c0.6,0,1.1-0.5,1.1-1.1v-8.1h1v8.2
				c0,0.6,0.5,1,1.1,1c0.5,0,1-0.4,1-1v-5.7l0.1-7.2c0-0.7,0-1.3,0-1.7c0.7,1.4,1.2,3,1.3,4.5C10.1,65.2,12.1,65.2,12,63.9z"/>
		</g>
	</g>
	<g id="standing-frontal-man-silhouette-135" transform="translate(4511.949 1170.419)">
		<g id="Group_12985" transform="translate(0 0)">
			<ellipse id="Ellipse_10005" class="st0" cx="6" cy="53.4" rx="1.9" ry="1.9"/>
			<path id="Path_13479" class="st0" d="M12,63.9c-0.5-6.1-3.5-7.4-3.5-7.4c-1.9-1-4.1-0.8-5.8,0.5c-1.9,1.8-2.4,4.4-2.7,7
				c-0.2,1.3,1.9,1.3,2.1,0c0.1-1.5,0.5-3,1.2-4.4v1.5l0,7.2v5.7c0,0.6,0.4,1.1,1,1.1c0,0,0,0,0,0c0.6,0,1.1-0.5,1.1-1.1v-8.1h1v8.2
				c0,0.6,0.5,1,1.1,1c0.5,0,1-0.4,1-1v-5.7l0.1-7.2c0-0.7,0-1.3,0-1.7c0.7,1.4,1.2,3,1.3,4.5C10.1,65.2,12.1,65.2,12,63.9z"/>
		</g>
	</g>
	<g id="standing-frontal-man-silhouette-136" transform="translate(4511.949 1245.776)">
		<g id="Group_12986" transform="translate(0 0)">
			<ellipse id="Ellipse_10006" class="st0" cx="6" cy="53.4" rx="1.9" ry="1.9"/>
			<path id="Path_13480" class="st0" d="M12,63.9c-0.5-6.1-3.5-7.4-3.5-7.4c-1.9-1-4.1-0.8-5.8,0.5c-1.9,1.8-2.4,4.4-2.7,7
				c-0.2,1.3,1.9,1.3,2.1,0c0.1-1.5,0.5-3,1.2-4.4v1.5l0,7.2v5.7c0,0.6,0.4,1.1,1,1.1c0,0,0,0,0,0c0.6,0,1.1-0.5,1.1-1.1v-8.1h1v8.2
				c0,0.6,0.5,1,1.1,1c0.5,0,1-0.4,1-1v-5.7l0.1-7.2c0-0.7,0-1.3,0-1.7c0.7,1.4,1.2,3,1.3,4.5C10.1,65.2,12.1,65.2,12,63.9z"/>
		</g>
	</g>
	<g id="standing-frontal-man-silhouette-137" transform="translate(4511.949 1296.16)">
		<g id="Group_12987" transform="translate(0 0)">
			<ellipse id="Ellipse_10007" class="st0" cx="6" cy="53.4" rx="1.9" ry="1.9"/>
			<path id="Path_13481" class="st0" d="M12,63.9c-0.5-6.1-3.5-7.4-3.5-7.4c-1.9-1-4.1-0.8-5.8,0.5c-1.9,1.8-2.4,4.4-2.7,7
				c-0.2,1.3,1.9,1.3,2.1,0c0.1-1.5,0.5-3,1.2-4.4v1.5l0,7.2v5.7c0,0.6,0.4,1.1,1,1.1c0,0,0,0,0,0c0.6,0,1.1-0.5,1.1-1.1v-8.1h1v8.2
				c0,0.6,0.5,1,1.1,1c0.5,0,1-0.4,1-1v-5.7l0.1-7.2c0-0.7,0-1.3,0-1.7c0.7,1.4,1.2,3,1.3,4.5C10.1,65.2,12.1,65.2,12,63.9z"/>
		</g>
	</g>
	<g id="standing-frontal-man-silhouette-138" transform="translate(4511.949 1346.545)">
		<g id="Group_12988" transform="translate(0 0)">
			<ellipse id="Ellipse_10008" class="st0" cx="6" cy="53.4" rx="1.9" ry="1.9"/>
			<path id="Path_13482" class="st0" d="M12,63.9c-0.5-6.1-3.5-7.4-3.5-7.4c-1.9-1-4.1-0.8-5.8,0.5c-1.9,1.8-2.4,4.4-2.7,7
				c-0.2,1.3,1.9,1.3,2.1,0c0.1-1.5,0.5-3,1.2-4.4v1.5l0,7.2v5.7c0,0.6,0.4,1.1,1,1.1c0,0,0,0,0,0c0.6,0,1.1-0.5,1.1-1.1v-8.1h1v8.2
				c0,0.6,0.5,1,1.1,1c0.5,0,1-0.4,1-1v-5.7l0.1-7.2c0-0.7,0-1.3,0-1.7c0.7,1.4,1.2,3,1.3,4.5C10.1,65.2,12.1,65.2,12,63.9z"/>
		</g>
	</g>
	<g id="standing-frontal-man-silhouette-139" transform="translate(4511.949 1195.611)">
		<g id="Group_12989" transform="translate(0 0)">
			<ellipse id="Ellipse_10009" class="st0" cx="6" cy="53.4" rx="1.9" ry="1.9"/>
			<path id="Path_13483" class="st0" d="M12,63.9c-0.5-6.1-3.5-7.4-3.5-7.4c-1.9-1-4.1-0.8-5.8,0.5c-1.9,1.8-2.4,4.4-2.7,7
				c-0.2,1.3,1.9,1.3,2.1,0c0.1-1.5,0.5-3,1.2-4.4v1.5l0,7.2v5.7c0,0.6,0.4,1.1,1,1.1c0,0,0,0,0,0c0.6,0,1.1-0.5,1.1-1.1v-8.1h1v8.2
				c0,0.6,0.5,1,1.1,1c0.5,0,1-0.4,1-1v-5.7l0.1-7.2c0-0.7,0-1.3,0-1.7c0.7,1.4,1.2,3,1.3,4.5C10.1,65.2,12.1,65.2,12,63.9z"/>
		</g>
	</g>
	<g id="standing-frontal-man-silhouette-140" transform="translate(4457.559 1069.968)">
		<g id="Group_12990" transform="translate(0 0)">
			<ellipse id="Ellipse_10010" class="st0" cx="6" cy="53.4" rx="1.9" ry="1.9"/>
			<path id="Path_13484" class="st0" d="M12,63.9c-0.5-6.1-3.5-7.4-3.5-7.4c-1.9-1-4.1-0.8-5.8,0.5c-1.9,1.8-2.4,4.4-2.7,7
				c-0.2,1.3,1.9,1.3,2.1,0c0.1-1.5,0.5-3,1.2-4.4v1.5l0,7.2v5.7c0,0.6,0.4,1.1,1,1.1c0,0,0,0,0,0c0.6,0,1.1-0.5,1.1-1.1v-8.1h1v8.2
				c0,0.6,0.5,1,1.1,1c0.5,0,1-0.4,1-1v-5.7l0.1-7.2c0-0.7,0-1.3,0-1.7c0.7,1.4,1.2,3,1.3,4.5C10.1,65.2,12.1,65.2,12,63.9z"/>
		</g>
	</g>
	<g id="standing-frontal-man-silhouette-141" transform="translate(4457.559 1120.353)">
		<g id="Group_12991" transform="translate(0 0)">
			<ellipse id="Ellipse_10011" class="st0" cx="6" cy="53.4" rx="1.9" ry="1.9"/>
			<path id="Path_13485" class="st0" d="M12,63.9c-0.5-6.1-3.5-7.4-3.5-7.4c-1.9-1-4.1-0.8-5.8,0.5c-1.9,1.8-2.4,4.4-2.7,7
				c-0.2,1.3,1.9,1.3,2.1,0c0.1-1.5,0.5-3,1.2-4.4v1.5l0,7.2v5.7c0,0.6,0.4,1.1,1,1.1c0,0,0,0,0,0c0.6,0,1.1-0.5,1.1-1.1v-8.1h1v8.2
				c0,0.6,0.5,1,1.1,1c0.5,0,1-0.4,1-1v-5.7l0.1-7.2c0-0.7,0-1.3,0-1.7c0.7,1.4,1.2,3,1.3,4.5C10.1,65.2,12.1,65.2,12,63.9z"/>
		</g>
	</g>
	<g id="standing-frontal-man-silhouette-142" transform="translate(4457.559 1044.776)">
		<g id="Group_12992" transform="translate(0 0)">
			<ellipse id="Ellipse_10012" class="st0" cx="6" cy="53.4" rx="1.9" ry="1.9"/>
			<path id="Path_13486" class="st0" d="M12,63.9c-0.5-6.1-3.5-7.4-3.5-7.4c-1.9-1-4.1-0.8-5.8,0.5c-1.9,1.8-2.4,4.4-2.7,7
				c-0.2,1.3,1.9,1.3,2.1,0c0.1-1.5,0.5-3,1.2-4.4v1.5l0,7.2v5.7c0,0.6,0.4,1.1,1,1.1c0,0,0,0,0,0c0.6,0,1.1-0.5,1.1-1.1v-8.1h1v8.2
				c0,0.6,0.5,1,1.1,1c0.5,0,1-0.4,1-1v-5.7l0.1-7.2c0-0.7,0-1.3,0-1.7c0.7,1.4,1.2,3,1.3,4.5C10.1,65.2,12.1,65.2,12,63.9z"/>
		</g>
	</g>
	<g id="standing-frontal-man-silhouette-143" transform="translate(4457.559 1095.16)">
		<g id="Group_12993" transform="translate(0 0)">
			<ellipse id="Ellipse_10013" class="st0" cx="6" cy="53.4" rx="1.9" ry="1.9"/>
			<path id="Path_13487" class="st0" d="M12,63.9c-0.5-6.1-3.5-7.4-3.5-7.4c-1.9-1-4.1-0.8-5.8,0.5c-1.9,1.8-2.4,4.4-2.7,7
				c-0.2,1.3,1.9,1.3,2.1,0c0.1-1.5,0.5-3,1.2-4.4v1.5l0,7.2v5.7c0,0.6,0.4,1.1,1,1.1c0,0,0,0,0,0c0.6,0,1.1-0.5,1.1-1.1v-8.1h1v8.2
				c0,0.6,0.5,1,1.1,1c0.5,0,1-0.4,1-1v-5.7l0.1-7.2c0-0.7,0-1.3,0-1.7c0.7,1.4,1.2,3,1.3,4.5C10.1,65.2,12.1,65.2,12,63.9z"/>
		</g>
	</g>
	<g id="standing-frontal-man-silhouette-144" transform="translate(4457.559 1145.545)">
		<g id="Group_12994" transform="translate(0 0)">
			<ellipse id="Ellipse_10014" class="st0" cx="6" cy="53.4" rx="1.9" ry="1.9"/>
			<path id="Path_13488" class="st0" d="M12,63.9c-0.5-6.1-3.5-7.4-3.5-7.4c-1.9-1-4.1-0.8-5.8,0.5c-1.9,1.8-2.4,4.4-2.7,7
				c-0.2,1.3,1.9,1.3,2.1,0c0.1-1.5,0.5-3,1.2-4.4v1.5l0,7.2v5.7c0,0.6,0.4,1.1,1,1.1c0,0,0,0,0,0c0.6,0,1.1-0.5,1.1-1.1v-8.1h1v8.2
				c0,0.6,0.5,1,1.1,1c0.5,0,1-0.4,1-1v-5.7l0.1-7.2c0-0.7,0-1.3,0-1.7c0.7,1.4,1.2,3,1.3,4.5C10.1,65.2,12.1,65.2,12,63.9z"/>
		</g>
	</g>
	<g id="standing-frontal-man-silhouette-145" transform="translate(4457.559 994.611)">
		<g id="Group_12995" transform="translate(0 0)">
			<ellipse id="Ellipse_10015" class="st0" cx="6" cy="53.4" rx="1.9" ry="1.9"/>
			<path id="Path_13489" class="st0" d="M12,63.9c-0.5-6.1-3.5-7.4-3.5-7.4c-1.9-1-4.1-0.8-5.8,0.5c-1.9,1.8-2.4,4.4-2.7,7
				c-0.2,1.3,1.9,1.3,2.1,0c0.1-1.5,0.5-3,1.2-4.4v1.5l0,7.2v5.7c0,0.6,0.4,1.1,1,1.1c0,0,0,0,0,0c0.6,0,1.1-0.5,1.1-1.1v-8.1h1v8.2
				c0,0.6,0.5,1,1.1,1c0.5,0,1-0.4,1-1v-5.7l0.1-7.2c0-0.7,0-1.3,0-1.7c0.7,1.4,1.2,3,1.3,4.5C10.1,65.2,12.1,65.2,12,63.9z"/>
		</g>
	</g>
	<g id="standing-frontal-man-silhouette-146" transform="translate(4512.361 1069.968)">
		<g id="Group_12996" transform="translate(0 0)">
			<ellipse id="Ellipse_10016" class="st0" cx="6" cy="53.4" rx="1.9" ry="1.9"/>
			<path id="Path_13490" class="st0" d="M12,63.9c-0.5-6.1-3.5-7.4-3.5-7.4c-1.9-1-4.1-0.8-5.8,0.5c-1.9,1.8-2.4,4.4-2.7,7
				c-0.2,1.3,1.9,1.3,2.1,0c0.1-1.5,0.5-3,1.2-4.4v1.5l0,7.2v5.7c0,0.6,0.4,1.1,1,1.1c0,0,0,0,0,0c0.6,0,1.1-0.5,1.1-1.1v-8.1h1v8.2
				c0,0.6,0.5,1,1.1,1c0.5,0,1-0.4,1-1v-5.7l0.1-7.2c0-0.7,0-1.3,0-1.7c0.7,1.4,1.2,3,1.3,4.5C10.1,65.2,12.1,65.2,12,63.9z"/>
		</g>
	</g>
	<g id="standing-frontal-man-silhouette-147" transform="translate(4512.361 1120.353)">
		<g id="Group_12997" transform="translate(0 0)">
			<ellipse id="Ellipse_10017" class="st0" cx="6" cy="53.4" rx="1.9" ry="1.9"/>
			<path id="Path_13491" class="st0" d="M12,63.9c-0.5-6.1-3.5-7.4-3.5-7.4c-1.9-1-4.1-0.8-5.8,0.5c-1.9,1.8-2.4,4.4-2.7,7
				c-0.2,1.3,1.9,1.3,2.1,0c0.1-1.5,0.5-3,1.2-4.4v1.5l0,7.2v5.7c0,0.6,0.4,1.1,1,1.1c0,0,0,0,0,0c0.6,0,1.1-0.5,1.1-1.1v-8.1h1v8.2
				c0,0.6,0.5,1,1.1,1c0.5,0,1-0.4,1-1v-5.7l0.1-7.2c0-0.7,0-1.3,0-1.7c0.7,1.4,1.2,3,1.3,4.5C10.1,65.2,12.1,65.2,12,63.9z"/>
		</g>
	</g>
	<g id="standing-frontal-man-silhouette-148" transform="translate(4512.361 1044.776)">
		<g id="Group_12998" transform="translate(0 0)">
			<ellipse id="Ellipse_10018" class="st0" cx="6" cy="53.4" rx="1.9" ry="1.9"/>
			<path id="Path_13492" class="st0" d="M12,63.9c-0.5-6.1-3.5-7.4-3.5-7.4c-1.9-1-4.1-0.8-5.8,0.5c-1.9,1.8-2.4,4.4-2.7,7
				c-0.2,1.3,1.9,1.3,2.1,0c0.1-1.5,0.5-3,1.2-4.4v1.5l0,7.2v5.7c0,0.6,0.4,1.1,1,1.1c0,0,0,0,0,0c0.6,0,1.1-0.5,1.1-1.1v-8.1h1v8.2
				c0,0.6,0.5,1,1.1,1c0.5,0,1-0.4,1-1v-5.7l0.1-7.2c0-0.7,0-1.3,0-1.7c0.7,1.4,1.2,3,1.3,4.5C10.1,65.2,12.1,65.2,12,63.9z"/>
		</g>
	</g>
	<g id="standing-frontal-man-silhouette-149" transform="translate(4512.361 1095.16)">
		<g id="Group_12999" transform="translate(0 0)">
			<ellipse id="Ellipse_10019" class="st0" cx="6" cy="53.4" rx="1.9" ry="1.9"/>
			<path id="Path_13493" class="st0" d="M12,63.9c-0.5-6.1-3.5-7.4-3.5-7.4c-1.9-1-4.1-0.8-5.8,0.5c-1.9,1.8-2.4,4.4-2.7,7
				c-0.2,1.3,1.9,1.3,2.1,0c0.1-1.5,0.5-3,1.2-4.4v1.5l0,7.2v5.7c0,0.6,0.4,1.1,1,1.1c0,0,0,0,0,0c0.6,0,1.1-0.5,1.1-1.1v-8.1h1v8.2
				c0,0.6,0.5,1,1.1,1c0.5,0,1-0.4,1-1v-5.7l0.1-7.2c0-0.7,0-1.3,0-1.7c0.7,1.4,1.2,3,1.3,4.5C10.1,65.2,12.1,65.2,12,63.9z"/>
		</g>
	</g>
	<g id="standing-frontal-man-silhouette-150" transform="translate(4512.361 1145.545)">
		<g id="Group_13000" transform="translate(0 0)">
			<ellipse id="Ellipse_10020" class="st0" cx="6" cy="53.4" rx="1.9" ry="1.9"/>
			<path id="Path_13494" class="st0" d="M12,63.9c-0.5-6.1-3.5-7.4-3.5-7.4c-1.9-1-4.1-0.8-5.8,0.5c-1.9,1.8-2.4,4.4-2.7,7
				c-0.2,1.3,1.9,1.3,2.1,0c0.1-1.5,0.5-3,1.2-4.4v1.5l0,7.2v5.7c0,0.6,0.4,1.1,1,1.1c0,0,0,0,0,0c0.6,0,1.1-0.5,1.1-1.1v-8.1h1v8.2
				c0,0.6,0.5,1,1.1,1c0.5,0,1-0.4,1-1v-5.7l0.1-7.2c0-0.7,0-1.3,0-1.7c0.7,1.4,1.2,3,1.3,4.5C10.1,65.2,12.1,65.2,12,63.9z"/>
		</g>
	</g>
	<g id="standing-frontal-man-silhouette-151" transform="translate(4512.361 994.611)">
		<g id="Group_13001" transform="translate(0 0)">
			<ellipse id="Ellipse_10021" class="st0" cx="6" cy="53.4" rx="1.9" ry="1.9"/>
			<path id="Path_13495" class="st0" d="M12,63.9c-0.5-6.1-3.5-7.4-3.5-7.4c-1.9-1-4.1-0.8-5.8,0.5c-1.9,1.8-2.4,4.4-2.7,7
				c-0.2,1.3,1.9,1.3,2.1,0c0.1-1.5,0.5-3,1.2-4.4v1.5l0,7.2v5.7c0,0.6,0.4,1.1,1,1.1c0,0,0,0,0,0c0.6,0,1.1-0.5,1.1-1.1v-8.1h1v8.2
				c0,0.6,0.5,1,1.1,1c0.5,0,1-0.4,1-1v-5.7l0.1-7.2c0-0.7,0-1.3,0-1.7c0.7,1.4,1.2,3,1.3,4.5C10.1,65.2,12.1,65.2,12,63.9z"/>
		</g>
	</g>
</g>
</svg>
