<svg id="Layer_1" data-name="Layer 1" xmlns="http://www.w3.org/2000/svg" viewBox="0 0 140.01 174.09"><defs><style>.cls-1{opacity:0.9;}.cls-2{fill:#fff;}</style></defs><g id="noun_Sport_1671456" data-name="noun Sport 1671456" class="cls-1"><g id="Group_52" data-name="Group 52"><path id="Path_374-2" data-name="Path 374-2" class="cls-2" d="M366.68,402.07A8.07,8.07,0,0,0,356,398c-5.5,2.38-13.21,5.87-18.53,8.07a.18.18,0,0,0-.18-.18h0c-3.12-8.08-7.71-20.37-19.27-25-5-2-11.56-5-12.29-5.33-16.34-7-43.87-3.12-48.27-1.46-2.39.91-6.42,2.38-20,27.9a8.32,8.32,0,0,0,3.3,11,10.07,10.07,0,0,0,3.86.92,8.37,8.37,0,0,0,7.16-4.22c4.22-7.9,9.72-17.44,12.3-20.56a99.28,99.28,0,0,1,16.15-1.29c-7.16,9.73-13.77,25.33-15.6,35.06-2.94,8.26-10.1,30.83-17.26,42.95-8.63,14.68-18.17,28.44-18.35,28.63a9.65,9.65,0,0,0,2.38,13.21,15.94,15.94,0,0,0,5.32,1.1,9.54,9.54,0,0,0,7.71-4c.37-.55,10.1-14.5,19.09-29.73,5.51-9.36,10.65-22.21,14.32-33,6.42,4.23,18.9,12.49,22.76,16.7-1.1,6.43-6.43,23.86-11.2,38.36a9.46,9.46,0,0,0,6,11.93,8.48,8.48,0,0,0,2.94.56,9.48,9.48,0,0,0,9-6.43c4.78-14.31,12.67-39.28,12.48-46.43s-6.6-13.4-20.74-23.13c4.4-10.46,11.2-25.14,17.8-33.4a55.46,55.46,0,0,1,5.14,11.2c1.84,4.59,4.78,12.85,11.57,12.85a8.5,8.5,0,0,0,3.48-.74c4.59-1.65,23.31-9.91,25.52-11a7.81,7.81,0,0,0,4.15-10.22C366.75,402.24,366.72,402.16,366.68,402.07Z" transform="translate(-227.39 -335.54)"/><circle id="Ellipse_172-2" data-name="Ellipse 172-2" class="cls-2" cx="91.61" cy="18.91" r="18.91"/></g></g></svg>