<svg id="Layer_1" data-name="Layer 1" xmlns="http://www.w3.org/2000/svg" viewBox="0 0 103.46 174.44"><defs><style>.cls-1{fill:#fff;}</style></defs><g id="Group_47" data-name="Group 47"><path id="Path_365" data-name="Path 365" class="cls-1" d="M311.18,447.62c-2.94-5.14-10.65-9.18-30.66-19.27a52.46,52.46,0,0,1,2.2-10.28A23.16,23.16,0,0,0,290.8,424c4.59,1.65,14.13,2.93,21.66,3.67a3.66,3.66,0,0,1-.19-2l.92-11.56a4.19,4.19,0,0,1,.55-2c-7.33-.74-14.68-1.66-17.43-2.58-1.47-.55-3.67-3.12-6.43-6.79a46.27,46.27,0,0,1,5.51-7c7.16,2.2,16.52,4.77,22.39,4.77h.74c8.07-.36,12.84-8.81,15.78-18.17h-.18a4,4,0,0,1-1.47-.18L321.45,379a11.9,11.9,0,0,1-2.2-1.1,29.06,29.06,0,0,1-2.94,7c-4.22-.36-12.84-2.57-19.82-5.14-4.4-2.38-15.6-7.89-22.39-7.34-7.71.55-16,9.91-20,18.36-7.34,14.86-9,25.32-8.44,33.21a33.8,33.8,0,0,0,2.2,9.92c2.94,7.34,8.08,14.5,12.48,20.74,1.65,2.38,3.86,5.5,5,7.34-1.1,5.32-7.71,21.66-13.58,34.69a9.09,9.09,0,0,0,4.4,11.93,9.72,9.72,0,0,0,3.67.91,9,9,0,0,0,8.26-5.32c16.88-36.89,15.6-43.13,15.23-45.52-.73-3.3-2.57-6.42-6.06-11.38,7,3.49,15.6,7.9,18.36,10.1,2,5.14,6.42,26.61,9.54,44.6a9.07,9.07,0,0,0,9,7.52,3.49,3.49,0,0,0,1.47-.18,8.89,8.89,0,0,0,7.4-10.16l-.06-.3C320.17,482.31,314.85,453.86,311.18,447.62Z" transform="translate(-245.55 -335.04)"/><circle id="Ellipse_165" data-name="Ellipse 165" class="cls-1" cx="48.15" cy="18.17" r="18.17"/><path id="Path_366" data-name="Path 366" class="cls-1" d="M321.27,373.47a2,2,0,0,0,1.29,2.2l11.2,3.12a2,2,0,0,0,2.2-1.28l2.38-8.81a11.69,11.69,0,0,0,6.79-8.08A12.56,12.56,0,0,0,320.9,354a12.7,12.7,0,0,0,2.57,11.38Z" transform="translate(-245.55 -335.04)"/><path id="Path_367" data-name="Path 367" class="cls-1" d="M337.42,408.71a12.12,12.12,0,0,0-10.64,4.59l-8.26-.55a1.81,1.81,0,0,0-1.84,1.65L315.76,426a1.82,1.82,0,0,0,1.66,1.84l9,.73a11.79,11.79,0,0,0,9.18,5.14,12.51,12.51,0,0,0,1.83-25Z" transform="translate(-245.55 -335.04)"/></g></svg>