<svg xmlns="http://www.w3.org/2000/svg" width="20.754" height="40.886" viewBox="0 0 20.754 40.886">
  <g id="Group_13433" data-name="Group 13433" transform="translate(-115.75 -6733)">
    <ellipse id="Ellipse_1843" data-name="Ellipse 1843" cx="3.359" cy="3.359" rx="3.359" ry="3.359" transform="translate(122.769 6733)" fill="#fff"/>
    <path id="Path_922" data-name="Path 922" d="M33.876,23.868C32.929,13.226,27.858,11.1,27.858,11.1A9.382,9.382,0,0,0,17.8,11.91c-3.345,3.045-4.117,7.692-4.646,12.181-.267,2.281,3.3,2.254,3.566,0a19.677,19.677,0,0,1,2.1-7.662l-.006,2.586-.025,12.429V41.3a1.858,1.858,0,0,0,1.868,1.92,1.949,1.949,0,0,0,1.976-1.92V27.21h1.746V41.349a1.783,1.783,0,0,0,3.565,0V31.443l.151-12.453c0-1.189,0-2.251,0-2.989a19.176,19.176,0,0,1,2.219,7.866C30.576,26.122,34.144,26.149,33.876,23.868Z" transform="translate(102.613 6730.662)" fill="#fff"/>
  </g>
</svg>
